<svg width="24" height="25" viewBox="0 0 24 25" fill="none" xmlns="http://www.w3.org/2000/svg">
<path d="M3 7.3L2.3753 6.51913C2.13809 6.7089 2 6.99622 2 7.3H3ZM12 20.2273L11.3753 21.0081L12 21.5079L12.6247 21.0081L12 20.2273ZM3 20.2273H2C2 20.6117 2.22035 20.9621 2.56681 21.1286C2.91328 21.2951 3.32452 21.2483 3.62469 21.0081L3 20.2273ZM21 7.3H22C22 6.99622 21.8619 6.7089 21.6247 6.51913L21 7.3ZM21 20.2273L20.3753 21.0081C20.6755 21.2483 21.0867 21.2951 21.4332 21.1286C21.7797 20.9621 22 20.6117 22 20.2273H21ZM11 7.3V20.2273H13V7.3H11ZM4 20.2273V7.3H2V20.2273H4ZM3 7.3C3.6247 8.08087 3.62452 8.08101 3.62435 8.08115C3.6243 8.08118 3.62414 8.08131 3.62405 8.08138C3.62387 8.08153 3.62372 8.08165 3.62361 8.08174C3.62338 8.08192 3.62328 8.08199 3.62332 8.08197C3.62339 8.08191 3.624 8.08143 3.62512 8.08055C3.62736 8.07878 3.63167 8.0754 3.63799 8.07051C3.65064 8.06072 3.67128 8.04491 3.69936 8.02394C3.7556 7.98195 3.84133 7.91953 3.95225 7.84348C4.17492 7.69079 4.49449 7.48627 4.87684 7.28235C5.66435 6.86235 6.61652 6.5 7.5 6.5V4.5C6.13348 4.5 4.83565 5.03765 3.93566 5.51765C3.47426 5.76373 3.0907 6.00921 2.82119 6.19402C2.68601 6.28672 2.57839 6.36493 2.50278 6.42138C2.46496 6.44962 2.43506 6.47248 2.41364 6.48906C2.40294 6.49735 2.39434 6.50408 2.38793 6.50912C2.38473 6.51165 2.38206 6.51375 2.37996 6.51543C2.3789 6.51626 2.37799 6.51699 2.37721 6.51761C2.37683 6.51792 2.37647 6.5182 2.37615 6.51845C2.376 6.51858 2.37578 6.51875 2.3757 6.51881C2.3755 6.51898 2.3753 6.51913 3 7.3ZM7.5 6.5C8.38348 6.5 9.33565 6.86235 10.1232 7.28235C10.5055 7.48627 10.8251 7.69079 11.0478 7.84348C11.1587 7.91953 11.2444 7.98195 11.3006 8.02394C11.3287 8.04491 11.3494 8.06072 11.362 8.07051C11.3683 8.0754 11.3726 8.07878 11.3749 8.08055C11.376 8.08143 11.3766 8.08191 11.3767 8.08197C11.3767 8.08199 11.3766 8.08192 11.3764 8.08174C11.3763 8.08165 11.3761 8.08153 11.3759 8.08138C11.3759 8.08131 11.3757 8.08118 11.3757 8.08115C11.3755 8.08101 11.3753 8.08087 12 7.3C12.6247 6.51913 12.6245 6.51898 12.6243 6.51881C12.6242 6.51875 12.624 6.51858 12.6238 6.51845C12.6235 6.5182 12.6232 6.51792 12.6228 6.51761C12.622 6.51699 12.6211 6.51626 12.62 6.51543C12.6179 6.51375 12.6153 6.51165 12.6121 6.50912C12.6057 6.50408 12.5971 6.49735 12.5864 6.48906C12.5649 6.47248 12.535 6.44962 12.4972 6.42138C12.4216 6.36493 12.314 6.28672 12.1788 6.19402C11.9093 6.00921 11.5257 5.76373 11.0643 5.51765C10.1644 5.03765 8.86652 4.5 7.5 4.5V6.5ZM12 20.2273C12.6247 19.4464 12.6245 19.4462 12.6243 19.4461C12.6242 19.446 12.624 19.4459 12.6238 19.4457C12.6235 19.4455 12.6232 19.4452 12.6228 19.4449C12.622 19.4443 12.6211 19.4435 12.62 19.4427C12.6179 19.441 12.6153 19.4389 12.6121 19.4364C12.6057 19.4313 12.5971 19.4246 12.5864 19.4163C12.5649 19.3998 12.535 19.3769 12.4972 19.3486C12.4216 19.2922 12.314 19.214 12.1788 19.1213C11.9093 18.9365 11.5257 18.691 11.0643 18.4449C10.1643 17.9649 8.86652 17.4273 7.5 17.4273V19.4273C8.38348 19.4273 9.33565 19.7896 10.1232 20.2096C10.5055 20.4135 10.8251 20.6181 11.0478 20.7708C11.1587 20.8468 11.2444 20.9092 11.3006 20.9512C11.3287 20.9722 11.3494 20.988 11.362 20.9978C11.3683 21.0027 11.3726 21.0061 11.3749 21.0078C11.376 21.0087 11.3766 21.0092 11.3767 21.0092C11.3767 21.0093 11.3766 21.0092 11.3764 21.009C11.3763 21.0089 11.3761 21.0088 11.3759 21.0087C11.3759 21.0086 11.3757 21.0085 11.3757 21.0084C11.3755 21.0083 11.3753 21.0081 12 20.2273ZM7.5 17.4273C6.13348 17.4273 4.83565 17.9649 3.93566 18.4449C3.47426 18.691 3.0907 18.9365 2.82119 19.1213C2.68601 19.214 2.57839 19.2922 2.50279 19.3486C2.46496 19.3769 2.43506 19.3998 2.41364 19.4163C2.40294 19.4246 2.39434 19.4313 2.38793 19.4364C2.38473 19.4389 2.38206 19.441 2.37996 19.4427C2.3789 19.4435 2.37799 19.4443 2.37721 19.4449C2.37683 19.4452 2.37647 19.4455 2.37615 19.4457C2.376 19.4459 2.37578 19.446 2.3757 19.4461C2.3755 19.4462 2.37531 19.4464 3 20.2273C3.62469 21.0081 3.62452 21.0083 3.62435 21.0084C3.6243 21.0085 3.62414 21.0086 3.62405 21.0087C3.62387 21.0088 3.62372 21.0089 3.62361 21.009C3.62338 21.0092 3.62328 21.0093 3.62332 21.0092C3.62339 21.0092 3.624 21.0087 3.62512 21.0078C3.62736 21.0061 3.63167 21.0027 3.63799 20.9978C3.65064 20.988 3.67127 20.9722 3.69936 20.9512C3.7556 20.9092 3.84133 20.8468 3.95225 20.7708C4.17492 20.6181 4.49449 20.4135 4.87684 20.2096C5.66435 19.7896 6.61652 19.4273 7.5 19.4273V17.4273ZM20 7.3V20.2273H22V7.3H20ZM12 7.3C12.6247 8.08087 12.6245 8.08101 12.6243 8.08115C12.6243 8.08118 12.6241 8.08131 12.6241 8.08138C12.6239 8.08153 12.6237 8.08165 12.6236 8.08174C12.6234 8.08192 12.6233 8.08199 12.6233 8.08197C12.6234 8.08191 12.624 8.08143 12.6251 8.08055C12.6274 8.07878 12.6317 8.0754 12.638 8.07051C12.6506 8.06072 12.6713 8.04491 12.6994 8.02394C12.7556 7.98195 12.8413 7.91953 12.9522 7.84348C13.1749 7.69079 13.4945 7.48627 13.8768 7.28235C14.6643 6.86235 15.6165 6.5 16.5 6.5V4.5C15.1335 4.5 13.8357 5.03765 12.9357 5.51765C12.4743 5.76373 12.0907 6.00921 11.8212 6.19402C11.686 6.28672 11.5784 6.36493 11.5028 6.42138C11.465 6.44962 11.4351 6.47248 11.4136 6.48906C11.4029 6.49735 11.3943 6.50408 11.3879 6.50912C11.3847 6.51165 11.3821 6.51375 11.38 6.51543C11.3789 6.51626 11.378 6.51699 11.3772 6.51761C11.3768 6.51792 11.3765 6.5182 11.3762 6.51845C11.376 6.51858 11.3758 6.51875 11.3757 6.51881C11.3755 6.51898 11.3753 6.51913 12 7.3ZM16.5 6.5C17.3835 6.5 18.3357 6.86235 19.1232 7.28235C19.5055 7.48627 19.8251 7.69079 20.0478 7.84348C20.1587 7.91953 20.2444 7.98195 20.3006 8.02394C20.3287 8.04491 20.3494 8.06072 20.362 8.07051C20.3683 8.0754 20.3726 8.07878 20.3749 8.08055C20.376 8.08143 20.3766 8.08191 20.3767 8.08197C20.3767 8.08199 20.3766 8.08192 20.3764 8.08174C20.3763 8.08165 20.3761 8.08153 20.3759 8.08138C20.3759 8.08131 20.3757 8.08118 20.3757 8.08115C20.3755 8.08101 20.3753 8.08087 21 7.3C21.6247 6.51913 21.6245 6.51898 21.6243 6.51881C21.6242 6.51875 21.624 6.51858 21.6238 6.51845C21.6235 6.5182 21.6232 6.51792 21.6228 6.51761C21.622 6.51699 21.6211 6.51626 21.62 6.51543C21.6179 6.51375 21.6153 6.51165 21.6121 6.50912C21.6057 6.50408 21.5971 6.49735 21.5864 6.48906C21.5649 6.47248 21.535 6.44962 21.4972 6.42138C21.4216 6.36493 21.314 6.28672 21.1788 6.19402C20.9093 6.00921 20.5257 5.76373 20.0643 5.51765C19.1644 5.03765 17.8665 4.5 16.5 4.5V6.5ZM21 20.2273C21.6247 19.4464 21.6245 19.4462 21.6243 19.4461C21.6242 19.446 21.624 19.4459 21.6238 19.4457C21.6235 19.4455 21.6232 19.4452 21.6228 19.4449C21.622 19.4443 21.6211 19.4435 21.62 19.4427C21.6179 19.441 21.6153 19.4389 21.6121 19.4364C21.6057 19.4313 21.5971 19.4246 21.5864 19.4163C21.5649 19.3998 21.535 19.3769 21.4972 19.3486C21.4216 19.2922 21.314 19.214 21.1788 19.1213C20.9093 18.9365 20.5257 18.691 20.0643 18.4449C19.1643 17.9649 17.8665 17.4273 16.5 17.4273V19.4273C17.3835 19.4273 18.3357 19.7896 19.1232 20.2096C19.5055 20.4135 19.8251 20.6181 20.0478 20.7708C20.1587 20.8468 20.2444 20.9092 20.3006 20.9512C20.3287 20.9722 20.3494 20.988 20.362 20.9978C20.3683 21.0027 20.3726 21.0061 20.3749 21.0078C20.376 21.0087 20.3766 21.0092 20.3767 21.0092C20.3767 21.0093 20.3766 21.0092 20.3764 21.009C20.3763 21.0089 20.3761 21.0088 20.3759 21.0087C20.3759 21.0086 20.3757 21.0085 20.3757 21.0084C20.3755 21.0083 20.3753 21.0081 21 20.2273ZM16.5 17.4273C15.1335 17.4273 13.8357 17.9649 12.9357 18.4449C12.4743 18.691 12.0907 18.9365 11.8212 19.1213C11.686 19.214 11.5784 19.2922 11.5028 19.3486C11.465 19.3769 11.4351 19.3998 11.4136 19.4163C11.4029 19.4246 11.3943 19.4313 11.3879 19.4364C11.3847 19.4389 11.3821 19.441 11.38 19.4427C11.3789 19.4435 11.378 19.4443 11.3772 19.4449C11.3768 19.4452 11.3765 19.4455 11.3762 19.4457C11.376 19.4459 11.3758 19.446 11.3757 19.4461C11.3755 19.4462 11.3753 19.4464 12 20.2273C12.6247 21.0081 12.6245 21.0083 12.6243 21.0084C12.6243 21.0085 12.6241 21.0086 12.6241 21.0087C12.6239 21.0088 12.6237 21.0089 12.6236 21.009C12.6234 21.0092 12.6233 21.0093 12.6233 21.0092C12.6234 21.0092 12.624 21.0087 12.6251 21.0078C12.6274 21.0061 12.6317 21.0027 12.638 20.9978C12.6506 20.988 12.6713 20.9722 12.6994 20.9512C12.7556 20.9092 12.8413 20.8468 12.9522 20.7708C13.1749 20.6181 13.4945 20.4135 13.8768 20.2096C14.6643 19.7896 15.6165 19.4273 16.5 19.4273V17.4273Z" fill="#FFFFFF"/>
</svg>
