<svg width="1259" height="144" viewBox="0 0 1259 144" fill="none" xmlns="http://www.w3.org/2000/svg">
<path d="M210.5 4.00047L210.637 3.00985L210.5 4.00047ZM686 51.5013L686.398 52.4186L686 51.5013ZM1258.5 21.0013L1247.55 24.6574L1256.19 32.3148L1258.5 21.0013ZM5.08963 94.9723C5.60268 94.7678 5.85287 94.1862 5.64843 93.6731C5.44399 93.1601 4.86235 92.9099 4.3493 93.1143L5.08963 94.9723ZM11.543 90.1568C11.0346 90.3724 10.7972 90.9594 11.0128 91.4679C11.2285 91.9763 11.8155 92.2137 12.3239 91.9981L11.543 90.1568ZM19.5648 88.8283C20.0681 88.601 20.2918 88.0086 20.0645 87.5053C19.8371 87.002 19.2448 86.7783 18.7414 87.0057L19.5648 88.8283ZM25.854 83.6891C25.3563 83.9286 25.147 84.5262 25.3865 85.0238C25.626 85.5215 26.2236 85.7308 26.7212 85.4913L25.854 83.6891ZM33.7707 81.9904C34.2623 81.7386 34.4566 81.136 34.2047 80.6444C33.9529 80.1529 33.3502 79.9586 32.8587 80.2105L33.7707 81.9904ZM39.7612 76.5615C39.2763 76.8259 39.0975 77.4333 39.3619 77.9182C39.6263 78.4031 40.2337 78.5818 40.7186 78.3174L39.7612 76.5615ZM47.567 74.4664C48.0448 74.1894 48.2076 73.5775 47.9306 73.0997C47.6537 72.6219 47.0418 72.4591 46.564 72.7361L47.567 74.4664ZM53.2728 68.7279C52.8025 69.0174 52.6559 69.6333 52.9453 70.1037C53.2348 70.574 53.8507 70.7207 54.3211 70.4312L53.2728 68.7279ZM60.9836 66.2101C61.4462 65.9085 61.5768 65.289 61.2752 64.8263C60.9736 64.3636 60.3541 64.233 59.8914 64.5346L60.9836 66.2101ZM66.3953 60.1776C65.9403 60.4906 65.8252 61.1132 66.1382 61.5682C66.4512 62.0232 67.0738 62.1383 67.5288 61.8253L66.3953 60.1776ZM73.9606 57.2891C74.4083 56.9657 74.5091 56.3406 74.1857 55.8929C73.8623 55.4452 73.2372 55.3444 72.7895 55.6678L73.9606 57.2891ZM79.0891 51.0182C78.6479 51.3504 78.5596 51.9774 78.8919 52.4186C79.2242 52.8598 79.8511 52.948 80.2923 52.6158L79.0891 51.0182ZM86.5475 47.8235C86.9834 47.4844 87.0619 46.8561 86.7228 46.4202C86.3837 45.9843 85.7554 45.9058 85.3195 46.2449L86.5475 47.8235ZM91.4901 41.391C91.0575 41.7343 90.9851 42.3633 91.3284 42.7959C91.6717 43.2285 92.3007 43.301 92.7333 42.9577L91.4901 41.391ZM98.8783 38.065C99.3103 37.7209 99.3816 37.0918 99.0375 36.6598C98.6934 36.2278 98.0643 36.1565 97.6323 36.5006L98.8783 38.065ZM103.788 31.6284C103.354 31.969 103.277 32.5976 103.618 33.0323C103.958 33.4671 104.587 33.5433 105.022 33.2027L103.788 31.6284ZM111.223 28.4317C111.665 28.0997 111.753 27.4728 111.422 27.0314C111.09 26.59 110.463 26.5013 110.021 26.8332L111.223 28.4317ZM116.402 22.1887C115.95 22.5057 115.84 23.1293 116.157 23.5815C116.474 24.0338 117.097 24.1435 117.55 23.8265L116.402 22.1887ZM124.036 19.4978C124.503 19.2029 124.642 18.5852 124.347 18.1183C124.052 17.6513 123.435 17.5119 122.968 17.8068L124.036 19.4978ZM129.777 13.7853C129.293 14.0507 129.116 14.6585 129.381 15.1428C129.647 15.6271 130.254 15.8045 130.739 15.5391L129.777 13.7853ZM137.683 12.0498C138.185 11.8205 138.407 11.2273 138.177 10.7249C137.948 10.2225 137.355 10.0011 136.852 10.2304L137.683 12.0498ZM144.196 7.22424C143.677 7.41265 143.409 7.98625 143.597 8.5054C143.786 9.02455 144.359 9.29266 144.879 9.10425L144.196 7.22424ZM152.271 6.75752C152.803 6.61187 153.117 6.06193 152.971 5.5292C152.826 4.99647 152.276 4.68267 151.743 4.82832L152.271 6.75752ZM159.452 3.04344C158.91 3.14724 158.554 3.67112 158.658 4.21356C158.762 4.75601 159.286 5.1116 159.828 5.0078L159.452 3.04344ZM167.515 3.82397C168.063 3.75903 168.455 3.26178 168.39 2.71333C168.325 2.16488 167.828 1.77291 167.28 1.83784L167.515 3.82397ZM175.17 1.1607C174.619 1.19094 174.196 1.66249 174.226 2.21395C174.256 2.7654 174.728 3.18794 175.279 3.1577L175.17 1.1607ZM183.076 2.94917C183.628 2.94913 184.076 2.50138 184.076 1.94909C184.076 1.39681 183.628 0.949126 183.076 0.949165L183.076 2.94917ZM190.965 1.1385C190.413 1.11263 189.945 1.53888 189.919 2.09056C189.893 2.64224 190.32 3.11044 190.871 3.13631L190.965 1.1385ZM198.648 3.66167C199.199 3.70965 199.683 3.30253 199.731 2.75234C199.779 2.20214 199.372 1.71722 198.822 1.66923L198.648 3.66167ZM206.647 2.49095C206.099 2.42407 205.6 2.81427 205.533 3.36249C205.466 3.91071 205.857 4.40935 206.405 4.47623L206.647 2.49095ZM214.388 5.59463C214.934 5.68294 215.447 5.31257 215.535 4.76739C215.624 4.22221 215.253 3.70867 214.708 3.62036L214.388 5.59463ZM222.7 5.10416C222.159 4.99097 221.629 5.33742 221.516 5.87798C221.403 6.41855 221.749 6.94852 222.29 7.06171L222.7 5.10416ZM230.173 8.89859C230.708 9.03586 231.252 8.71346 231.39 8.17851C231.527 7.64355 231.205 7.09861 230.67 6.96135L230.173 8.89859ZM238.521 9.15632C237.992 8.99645 237.434 9.2954 237.274 9.82404C237.114 10.3527 237.413 10.9108 237.942 11.0707L238.521 9.15632ZM245.611 13.5598C246.133 13.7405 246.703 13.464 246.884 12.9421C247.064 12.4203 246.788 11.8507 246.266 11.6699L245.611 13.5598ZM253.922 14.4822C253.407 14.2825 252.828 14.538 252.628 15.0529C252.428 15.5678 252.684 16.1471 253.199 16.3468L253.922 14.4822ZM260.681 19.3947C261.189 19.6113 261.776 19.375 261.993 18.8669C262.21 18.3589 261.973 17.7714 261.465 17.5549L260.681 19.3947ZM268.907 20.8587C268.406 20.6275 267.812 20.8466 267.581 21.3482C267.349 21.8498 267.569 22.4438 268.07 22.675L268.907 20.8587ZM275.374 26.1559C275.869 26.3995 276.469 26.1952 276.712 25.6995C276.956 25.2039 276.751 24.6046 276.256 24.361L275.374 26.1559ZM283.514 28.0256C283.024 27.7718 282.42 27.9637 282.167 28.4542C281.913 28.9447 282.105 29.5481 282.595 29.8019L283.514 28.0256ZM289.757 33.5864C290.243 33.8483 290.85 33.6664 291.111 33.1802C291.373 32.6939 291.191 32.0875 290.705 31.8256L289.757 33.5864ZM297.84 35.7285C297.357 35.4606 296.748 35.635 296.48 36.118C296.213 36.6009 296.387 37.2096 296.87 37.4775L297.84 35.7285ZM303.934 41.4371C304.415 41.709 305.025 41.5396 305.297 41.0589C305.569 40.5782 305.4 39.9681 304.919 39.6962L303.934 41.4371ZM311.978 43.7116C311.498 43.4376 310.887 43.6043 310.613 44.0838C310.34 44.5634 310.506 45.1742 310.986 45.4482L311.978 43.7116ZM318.038 49.4827C318.517 49.7569 319.128 49.5906 319.403 49.1112C319.677 48.6318 319.511 48.0209 319.031 47.7466L318.038 49.4827ZM326.067 51.7597C325.587 51.4869 324.976 51.6551 324.703 52.1354C324.431 52.6156 324.599 53.226 325.079 53.4988L326.067 51.7597ZM332.154 57.4891C332.636 57.7587 333.246 57.5865 333.515 57.1045C333.785 56.6225 333.613 56.0132 333.131 55.7436L332.154 57.4891ZM340.234 59.6732C339.75 59.4084 339.142 59.5866 338.877 60.0713C338.612 60.5559 338.791 61.1635 339.275 61.4283L340.234 59.6732ZM346.418 65.2734C346.906 65.5319 347.512 65.3458 347.77 64.8577C348.029 64.3697 347.842 63.7645 347.354 63.506L346.418 65.2734ZM354.543 67.2426C354.051 66.9919 353.449 67.1876 353.198 67.6797C352.948 68.1719 353.143 68.774 353.635 69.0247L354.543 67.2426ZM360.926 72.655C361.423 72.8965 362.021 72.6895 362.262 72.1928C362.504 71.6961 362.297 71.0977 361.8 70.8563L360.926 72.655ZM369.099 74.3113C368.598 74.0804 368.004 74.2999 367.773 74.8016C367.542 75.3033 367.761 75.8972 368.263 76.1281L369.099 74.3113ZM375.705 79.4499C376.212 79.669 376.801 79.4357 377.02 78.9287C377.239 78.4217 377.005 77.8331 376.499 77.614L375.705 79.4499ZM383.961 80.7288C383.449 80.5226 382.866 80.7708 382.66 81.2832C382.454 81.7955 382.702 82.378 383.214 82.5842L383.961 80.7288ZM390.795 85.5172C391.312 85.7095 391.888 85.4456 392.08 84.9279C392.272 84.4101 392.008 83.8346 391.491 83.6423L390.795 85.5172ZM399.147 86.3622C398.624 86.1848 398.056 86.465 397.879 86.9881C397.701 87.5111 397.982 88.0789 398.505 88.2562L399.147 86.3622ZM406.213 90.7451C406.741 90.907 407.301 90.6101 407.463 90.0821C407.625 89.5541 407.328 88.9948 406.8 88.8329L406.213 90.7451ZM414.578 91.089C414.045 90.9433 413.495 91.257 413.349 91.7897C413.204 92.3224 413.517 92.8724 414.05 93.0181L414.578 91.089ZM421.933 95.0444C422.47 95.1736 423.01 94.843 423.139 94.306C423.268 93.7691 422.937 93.2291 422.4 93.0999L421.933 95.0444ZM430.274 94.8652C429.733 94.7527 429.204 95.1 429.092 95.6407C428.979 96.1814 429.326 96.7109 429.867 96.8233L430.274 94.8652ZM437.898 98.3621C438.442 98.4575 438.96 98.0939 439.056 97.5499C439.151 97.0059 438.788 96.4876 438.244 96.3921L437.898 98.3621ZM446.182 97.659C445.635 97.5803 445.128 97.9597 445.05 98.5064C444.971 99.053 445.35 99.56 445.897 99.6386L446.182 97.659ZM454.039 100.682C454.588 100.744 455.083 100.349 455.145 99.8003C455.206 99.2515 454.812 98.7565 454.263 98.6947L454.039 100.682ZM462.236 99.4727C461.686 99.4272 461.203 99.8365 461.157 100.387C461.112 100.937 461.521 101.42 462.071 101.466L462.236 99.4727ZM470.28 102.023C470.831 102.052 471.302 101.628 471.331 101.077C471.36 100.525 470.937 100.055 470.386 100.025L470.28 102.023ZM478.374 100.337C477.822 100.323 477.363 100.759 477.349 101.312C477.335 101.864 477.772 102.323 478.324 102.336L478.374 100.337ZM486.549 102.428C487.102 102.427 487.548 101.978 487.547 101.426C487.545 100.873 487.097 100.427 486.544 100.428L486.549 102.428ZM494.542 100.303C493.99 100.319 493.555 100.779 493.571 101.331C493.587 101.883 494.047 102.318 494.599 102.302L494.542 100.303ZM502.793 101.962C503.345 101.932 503.767 101.46 503.738 100.909C503.708 100.358 503.236 99.9347 502.685 99.9646L502.793 101.962ZM510.702 99.4321C510.152 99.4753 509.741 99.9566 509.784 100.507C509.827 101.058 510.308 101.469 510.859 101.426L510.702 99.4321ZM518.976 100.693C519.525 100.637 519.925 100.146 519.869 99.5969C519.813 99.0475 519.322 98.6475 518.773 98.7035L518.976 100.693ZM526.838 97.7897C526.29 97.8579 525.901 98.3575 525.969 98.9056C526.037 99.4537 526.537 99.8426 527.085 99.7744L526.838 97.7897ZM535.085 98.692C535.631 98.6123 536.01 98.1046 535.93 97.5581C535.85 97.0116 535.342 96.6332 534.796 96.713L535.085 98.692ZM542.932 95.4391C542.388 95.5301 542.02 96.0455 542.111 96.5902C542.202 97.135 542.717 97.5028 543.262 97.4118L542.932 95.4391ZM551.129 96.0204C551.672 95.9191 552.03 95.3969 551.929 94.854C551.827 94.311 551.305 93.953 550.762 94.0543L551.129 96.0204ZM558.74 92.4891C558.199 92.6004 557.85 93.1291 557.962 93.6701C558.073 94.211 558.602 94.5593 559.143 94.448L558.74 92.4891ZM567.135 92.7296C567.674 92.6088 568.013 92.074 567.892 91.5351C567.771 90.9962 567.237 90.6573 566.698 90.7781L567.135 92.7296ZM574.49 88.9632C573.953 89.0929 573.623 89.6332 573.753 90.1701C573.883 90.7069 574.423 91.037 574.96 90.9073L574.49 88.9632ZM582.937 88.9119C583.472 88.7736 583.793 88.228 583.655 87.6933C583.517 87.1587 582.971 86.8373 582.436 86.9756L582.937 88.9119ZM590.23 84.8964C589.698 85.0428 589.385 85.5931 589.531 86.1257C589.677 86.6582 590.228 86.9713 590.76 86.825L590.23 84.8964ZM598.517 84.6329C599.048 84.4789 599.353 83.9242 599.199 83.3938C599.045 82.8634 598.49 82.5582 597.96 82.7122L598.517 84.6329ZM605.831 80.3669C605.303 80.5283 605.006 81.0873 605.167 81.6154C605.329 82.1436 605.888 82.441 606.416 82.2796L605.831 80.3669ZM614.126 79.8685C614.652 79.7002 614.942 79.1374 614.774 78.6114C614.605 78.0853 614.042 77.7953 613.516 77.9636L614.126 79.8685ZM621.148 75.4697C620.624 75.6445 620.341 76.2109 620.515 76.7348C620.69 77.2587 621.257 77.5417 621.781 77.3669L621.148 75.4697ZM629.565 74.7164C630.087 74.5352 630.363 73.9654 630.182 73.4437C630.001 72.922 629.431 72.6459 628.909 72.8271L629.565 74.7164ZM636.556 70.1219C636.037 70.309 635.767 70.882 635.954 71.4016C636.142 71.9212 636.715 72.1907 637.234 72.0036L636.556 70.1219ZM644.759 69.2468C645.277 69.0541 645.54 68.4782 645.347 67.9607C645.154 67.4431 644.579 67.1799 644.061 67.3726L644.759 69.2468ZM651.685 64.4867C651.169 64.685 650.912 65.2635 651.11 65.779C651.308 66.2945 651.887 66.5517 652.403 66.3534L651.685 64.4867ZM660.112 63.3426C660.626 63.1391 660.877 62.5579 660.674 62.0445C660.47 61.5311 659.889 61.2799 659.375 61.4834L660.112 63.3426ZM666.733 58.5264C666.221 58.7347 665.975 59.3183 666.184 59.8298C666.392 60.3412 666.976 60.5869 667.487 60.3786L666.733 58.5264ZM674.97 57.2896C675.479 57.0766 675.72 56.4908 675.506 55.9813C675.293 55.4717 674.708 55.2314 674.198 55.4445L674.97 57.2896ZM681.773 52.2361C681.266 52.4537 681.031 53.0417 681.248 53.5493C681.466 54.0568 682.054 54.2918 682.561 54.0742L681.773 52.2361ZM690.119 50.8603C690.631 50.6536 690.879 50.0709 690.672 49.5587C690.466 49.0466 689.883 48.7989 689.371 49.0056L690.119 50.8603ZM696.871 46.2055C696.349 46.3848 696.071 46.9537 696.25 47.476C696.429 47.9984 696.998 48.2765 697.521 48.0972L696.871 46.2055ZM704.966 45.7643C705.497 45.6136 705.805 45.0607 705.655 44.5294C705.504 43.9981 704.951 43.6895 704.42 43.8402L704.966 45.7643ZM712.21 41.8669C711.671 41.9872 711.331 42.5217 711.451 43.0607C711.572 43.5997 712.106 43.9391 712.645 43.8188L712.21 41.8669ZM720.304 42.3353C720.849 42.2458 721.218 41.7314 721.129 41.1864C721.039 40.6414 720.525 40.2722 719.98 40.3618L720.304 42.3353ZM727.936 39.2886C727.387 39.3467 726.989 39.8389 727.047 40.3882C727.105 40.9374 727.597 41.3356 728.147 41.2776L727.936 39.2886ZM735.95 40.6755C736.502 40.6486 736.927 40.1795 736.9 39.6279C736.873 39.0762 736.404 38.6509 735.853 38.6779L735.95 40.6755ZM743.855 38.5094C743.303 38.5058 742.852 38.9506 742.849 39.5029C742.845 40.0551 743.29 40.5057 743.842 40.5093L743.855 38.5094ZM751.697 40.77C752.248 40.8028 752.722 40.3825 752.755 39.8312C752.788 39.2799 752.367 38.8063 751.816 38.7735L751.697 40.77ZM759.763 39.4498C759.214 39.3893 758.72 39.7852 758.659 40.3342C758.599 40.8831 758.995 41.3772 759.544 41.4377L759.763 39.4498ZM767.362 42.4898C767.907 42.5762 768.42 42.2041 768.506 41.6586C768.593 41.1131 768.22 40.6009 767.675 40.5144L767.362 42.4898ZM775.499 41.9324C774.958 41.8222 774.43 42.1716 774.32 42.7128C774.21 43.254 774.559 43.782 775.1 43.8922L775.499 41.9324ZM782.817 45.6286C783.353 45.7606 783.895 45.4328 784.026 44.8965C784.158 44.3602 783.831 43.8185 783.294 43.6865L782.817 45.6286ZM790.965 45.7252C790.433 45.5737 789.88 45.8815 789.729 46.4127C789.577 46.9438 789.885 47.4971 790.416 47.6485L790.965 45.7252ZM797.996 49.9486C798.521 50.1176 799.085 49.8283 799.254 49.3025C799.423 48.7767 799.133 48.2135 798.607 48.0445L797.996 49.9486ZM806.12 50.5842C805.6 50.3997 805.028 50.6723 804.844 51.1929C804.66 51.7134 804.932 52.285 805.453 52.4694L806.12 50.5842ZM812.885 55.2154C813.401 55.4135 813.979 55.1561 814.177 54.6406C814.375 54.125 814.118 53.5465 813.603 53.3485L812.885 55.2154ZM820.974 56.2807C820.463 56.0708 819.879 56.3147 819.669 56.8256C819.459 57.3364 819.703 57.9207 820.214 58.1306L820.974 56.2807ZM827.508 61.2166C828.015 61.4367 828.604 61.2046 828.824 60.6981C829.044 60.1916 828.812 59.6025 828.306 59.3824L827.508 61.2166ZM835.56 62.6125C835.057 62.3836 834.464 62.6055 834.235 63.1081C834.006 63.6107 834.228 64.2037 834.731 64.4326L835.56 62.6125ZM841.909 67.7671C842.408 68.0033 843.005 67.7901 843.241 67.2909C843.477 66.7917 843.264 66.1955 842.765 65.9593L841.909 67.7671ZM849.929 69.4044C849.433 69.1622 848.834 69.3681 848.592 69.8645C848.35 70.3608 848.556 70.9595 849.052 71.2018L849.929 69.4044ZM856.143 74.7069C856.637 74.954 857.237 74.7538 857.484 74.2599C857.731 73.7659 857.531 73.1652 857.037 72.9182L856.143 74.7069ZM864.139 76.5046C863.647 76.2539 863.045 76.4496 862.794 76.9417C862.543 77.4338 862.739 78.036 863.231 78.2867L864.139 76.5046ZM870.267 81.8955C870.758 82.1488 871.361 81.9562 871.615 81.4654C871.868 80.9746 871.675 80.3714 871.185 80.1182L870.267 81.8955ZM878.246 83.7768C877.756 83.522 877.152 83.7128 876.897 84.2028C876.642 84.6928 876.833 85.2966 877.323 85.5513L878.246 83.7768ZM884.342 89.2063C884.832 89.4615 885.436 89.2714 885.691 88.7816C885.947 88.2919 885.756 87.6879 885.267 87.4327L884.342 89.2063ZM892.305 91.0978C891.815 90.8431 891.212 91.0338 890.957 91.5238C890.702 92.0138 890.893 92.6176 891.383 92.8723L892.305 91.0978ZM898.425 96.5213C898.916 96.7746 899.519 96.582 899.772 96.0913C900.026 95.6005 899.833 94.9973 899.342 94.744L898.425 96.5213ZM906.393 98.3621C905.901 98.1112 905.299 98.3067 905.048 98.7988C904.797 99.2908 904.993 99.893 905.485 100.144L906.393 98.3621ZM912.57 103.727C913.064 103.974 913.665 103.775 913.912 103.281C914.16 102.787 913.96 102.186 913.466 101.939L912.57 103.727ZM920.562 105.457C920.066 105.214 919.467 105.419 919.224 105.915C918.981 106.411 919.186 107.01 919.682 107.253L920.562 105.457ZM926.831 110.71C927.329 110.948 927.926 110.736 928.164 110.238C928.401 109.739 928.19 109.142 927.691 108.905L926.831 110.71ZM934.861 112.268C934.359 112.036 933.765 112.255 933.534 112.757C933.303 113.259 933.522 113.853 934.023 114.084L934.861 112.268ZM941.259 117.356C941.764 117.58 942.355 117.352 942.578 116.847C942.802 116.342 942.574 115.751 942.069 115.528L941.259 117.356ZM949.334 118.675C948.825 118.46 948.238 118.698 948.023 119.206C947.808 119.715 948.046 120.302 948.554 120.517L949.334 118.675ZM955.901 123.544C956.414 123.75 956.996 123.501 957.201 122.988C957.407 122.476 957.158 121.893 956.645 121.688L955.901 123.544ZM964.016 124.554C963.499 124.359 962.923 124.62 962.728 125.137C962.533 125.654 962.795 126.231 963.312 126.426L964.016 124.554ZM970.786 129.142C971.308 129.325 971.878 129.05 972.061 128.529C972.243 128.007 971.968 127.437 971.447 127.254L970.786 129.142ZM978.935 129.771C978.41 129.602 977.846 129.891 977.677 130.417C977.508 130.942 977.797 131.506 978.323 131.675L978.935 129.771ZM985.931 134.009C986.461 134.164 987.016 133.859 987.171 133.329C987.325 132.799 987.021 132.244 986.491 132.089L985.931 134.009ZM994.104 134.188C993.569 134.049 993.023 134.37 992.885 134.905C992.746 135.439 993.067 135.985 993.601 136.124L994.104 134.188ZM1001.33 138.001C1001.87 138.123 1002.41 137.785 1002.53 137.246C1002.65 136.707 1002.31 136.172 1001.77 136.05L1001.33 138.001ZM1009.51 137.661C1008.96 137.558 1008.44 137.914 1008.34 138.456C1008.23 138.999 1008.59 139.522 1009.13 139.626L1009.51 137.661ZM1016.97 140.975C1017.51 141.059 1018.02 140.685 1018.11 140.139C1018.19 139.593 1017.82 139.083 1017.27 138.999L1016.97 140.975ZM1025.1 140.053C1024.55 139.99 1024.05 140.383 1023.99 140.932C1023.92 141.48 1024.32 141.976 1024.87 142.04L1025.1 140.053ZM1032.79 142.801C1033.34 142.843 1033.82 142.431 1033.86 141.88C1033.91 141.33 1033.49 140.849 1032.94 140.807L1032.79 142.801ZM1040.81 141.25C1040.26 141.23 1039.79 141.661 1039.77 142.213C1039.75 142.765 1040.18 143.228 1040.74 143.248L1040.81 141.25ZM1048.73 143.372C1049.28 143.369 1049.73 142.919 1049.72 142.366C1049.72 141.814 1049.27 141.369 1048.72 141.372L1048.73 143.372ZM1056.56 141.167C1056 141.193 1055.58 141.661 1055.6 142.213C1055.63 142.765 1056.1 143.191 1056.65 143.165L1056.56 141.167ZM1064.65 142.619C1065.2 142.57 1065.6 142.084 1065.55 141.534C1065.51 140.984 1065.02 140.578 1064.47 140.627L1064.65 142.619ZM1072.25 139.765C1071.7 139.838 1071.32 140.34 1071.39 140.888C1071.46 141.435 1071.96 141.82 1072.51 141.748L1072.25 139.765ZM1080.4 140.537C1080.94 140.442 1081.31 139.924 1081.21 139.38C1081.12 138.836 1080.6 138.472 1080.05 138.567L1080.4 140.537ZM1087.81 137.043C1087.27 137.16 1086.93 137.693 1087.05 138.233C1087.17 138.772 1087.7 139.115 1088.24 138.997L1087.81 137.043ZM1095.92 137.158C1096.46 137.019 1096.78 136.473 1096.64 135.939C1096.5 135.404 1095.95 135.084 1095.42 135.223L1095.92 137.158ZM1103.1 133.057C1102.57 133.217 1102.27 133.775 1102.43 134.304C1102.59 134.832 1103.15 135.131 1103.68 134.97L1103.1 133.057ZM1111.17 132.542C1111.69 132.362 1111.97 131.793 1111.79 131.271C1111.61 130.749 1111.04 130.471 1110.52 130.652L1111.17 132.542ZM1117.92 127.944C1117.4 128.143 1117.14 128.722 1117.34 129.237C1117.54 129.752 1118.12 130.008 1118.64 129.809L1117.92 127.944ZM1126.13 126.754C1126.64 126.536 1126.88 125.948 1126.66 125.441C1126.44 124.933 1125.85 124.698 1125.35 124.915L1126.13 126.754ZM1132.4 121.754C1131.9 121.988 1131.68 122.583 1131.92 123.083C1132.15 123.584 1132.75 123.799 1133.25 123.565L1132.4 121.754ZM1140.42 120.063C1140.92 119.813 1141.11 119.211 1140.86 118.718C1140.61 118.226 1140.01 118.029 1139.52 118.279L1140.42 120.063ZM1146.61 114.539C1146.12 114.805 1145.94 115.412 1146.21 115.897C1146.48 116.381 1147.08 116.559 1147.57 116.294L1146.61 114.539ZM1154.34 112.459C1154.82 112.18 1154.98 111.568 1154.7 111.091C1154.42 110.614 1153.81 110.454 1153.33 110.732L1154.34 112.459ZM1160.12 106.637C1159.65 106.929 1159.5 107.545 1159.79 108.014C1160.09 108.483 1160.7 108.627 1161.17 108.335L1160.12 106.637ZM1168.03 103.938C1168.49 103.634 1168.62 103.013 1168.31 102.552C1168.01 102.091 1167.39 101.964 1166.93 102.269L1168.03 103.938ZM1173.29 97.9589C1172.84 98.2741 1172.72 98.8972 1173.04 99.3508C1173.35 99.8043 1173.98 99.9165 1174.43 99.6013L1173.29 97.9589ZM1180.88 95.0039C1181.33 94.6783 1181.43 94.0527 1181.1 93.6066C1180.78 93.1605 1180.15 93.0628 1179.7 93.3884L1180.88 95.0039ZM1186.18 88.5519C1185.74 88.8875 1185.65 89.5151 1185.99 89.9538C1186.32 90.3924 1186.95 90.476 1187.39 90.1405L1186.18 88.5519ZM1193.59 85.2978C1194.02 84.9532 1194.09 84.324 1193.74 83.8924C1193.4 83.4607 1192.77 83.3901 1192.34 83.7346L1193.59 85.2978ZM1198.37 78.8217C1197.95 79.1745 1197.89 79.805 1198.24 80.2299C1198.59 80.6548 1199.23 80.7132 1199.65 80.3604L1198.37 78.8217ZM1205.76 75.1875C1206.18 74.8267 1206.23 74.1953 1205.86 73.7771C1205.5 73.3589 1204.87 73.3124 1204.45 73.6732L1205.76 75.1875ZM1210.58 68.2852C1210.17 68.6535 1210.14 69.2857 1210.51 69.6972C1210.87 70.1087 1211.51 70.1437 1211.92 69.7754L1210.58 68.2852ZM1217.61 64.594C1218.02 64.219 1218.04 63.5863 1217.67 63.1808C1217.29 62.7754 1216.66 62.7506 1216.25 63.1256L1217.61 64.594ZM1221.95 57.7744C1221.55 58.1557 1221.54 58.7887 1221.92 59.1882C1222.3 59.5878 1222.93 59.6025 1223.33 59.2212L1221.95 57.7744ZM1229.09 53.6392C1229.48 53.2518 1229.49 52.6187 1229.1 52.225C1228.71 51.8314 1228.08 51.8263 1227.69 52.2136L1229.09 53.6392ZM1233.47 46.4402C1233.08 46.8334 1233.08 47.4665 1233.48 47.8544C1233.87 48.2423 1234.5 48.238 1234.89 47.8449L1233.47 46.4402ZM1240.27 42.3184C1240.65 41.9201 1240.64 41.2871 1240.24 40.9044C1239.84 40.5218 1239.21 40.5345 1238.83 40.9328L1240.27 42.3184ZM1244.19 35.2816C1243.81 35.6847 1243.83 36.3175 1244.23 36.695C1244.64 37.0725 1245.27 37.0517 1245.65 36.6486L1244.19 35.2816ZM1251.06 30.7944C1251.43 30.3866 1251.41 29.7541 1251 29.3816C1250.59 29.0092 1249.96 29.0379 1249.58 29.4457L1251.06 30.7944ZM1255.02 23.4229C1254.65 23.8352 1254.69 24.4673 1255.1 24.8348C1255.51 25.2023 1256.14 25.166 1256.51 24.7537L1255.02 23.4229ZM1.3601 96.4349C2.61778 95.9495 3.86085 95.4619 5.08963 94.9723L4.3493 93.1143C3.12724 93.6013 1.89088 94.0862 0.639905 94.5691L1.3601 96.4349ZM12.3239 91.9981C14.7975 90.949 17.2102 89.892 19.5648 88.8283L18.7414 87.0057C16.401 88.063 14.0025 89.1138 11.543 90.1568L12.3239 91.9981ZM26.7212 85.4913C29.134 84.3303 31.4827 83.1628 33.7707 81.9904L32.8587 80.2105C30.5854 81.3753 28.2517 82.5353 25.854 83.6891L26.7212 85.4913ZM40.7186 78.3174C43.0667 77.0371 45.348 75.7528 47.567 74.4664L46.564 72.7361C44.3598 74.0139 42.0937 75.2896 39.7612 76.5615L40.7186 78.3174ZM54.3211 70.4312C56.6086 69.0234 58.8274 67.6156 60.9836 66.2101L59.8914 64.5346C57.7493 65.931 55.5451 67.3295 53.2728 68.7279L54.3211 70.4312ZM67.5288 61.8253C69.737 60.3063 71.8784 58.7931 73.9606 57.2891L72.7895 55.6678C70.7188 57.1635 68.5899 58.6678 66.3953 60.1776L67.5288 61.8253ZM80.2923 52.6158C82.4349 51.0021 84.5167 49.4033 86.5475 47.8235L85.3195 46.2449C83.2953 47.8196 81.2219 49.4119 79.0891 51.0182L80.2923 52.6158ZM92.7333 42.9577C94.8244 41.2983 96.87 39.6646 98.8783 38.065L97.6323 36.5006C95.6212 38.1024 93.5794 39.7331 91.4901 41.391L92.7333 42.9577ZM105.022 33.2027C107.11 31.5668 109.171 29.9746 111.223 28.4317L110.021 26.8332C107.956 28.3864 105.883 29.9871 103.788 31.6284L105.022 33.2027ZM117.55 23.8265C119.7 22.3196 121.856 20.8745 124.036 19.4978L122.968 17.8068C120.757 19.2029 118.574 20.6662 116.402 22.1887L117.55 23.8265ZM130.739 15.5391C133.005 14.297 135.313 13.1316 137.683 12.0498L136.852 10.2304C134.435 11.3338 132.083 12.5214 129.777 13.7853L130.739 15.5391ZM144.879 9.10425C147.265 8.23825 149.723 7.4539 152.271 6.75752L151.743 4.82832C149.143 5.53916 146.633 6.33997 144.196 7.22424L144.879 9.10425ZM159.828 5.0078C162.301 4.53465 164.859 4.13842 167.515 3.82397L167.28 1.83784C164.578 2.15773 161.973 2.56114 159.452 3.04344L159.828 5.0078ZM175.279 3.1577C177.791 3.02 180.387 2.94936 183.076 2.94917L183.076 0.949165C180.352 0.949361 177.719 1.02092 175.17 1.1607L175.279 3.1577ZM190.871 3.13631C193.385 3.25419 195.976 3.42855 198.648 3.66167L198.822 1.66923C196.124 1.4339 193.507 1.25769 190.965 1.1385L190.871 3.13631ZM206.405 4.47623C207.706 4.63494 209.025 4.80648 210.363 4.99109L210.637 3.00985C209.288 2.82385 207.959 2.65095 206.647 2.49095L206.405 4.47623ZM210.363 4.99109C211.714 5.17735 213.055 5.37869 214.388 5.59463L214.708 3.62036C213.36 3.40193 212.003 3.19827 210.637 3.00985L210.363 4.99109ZM222.29 7.06171C224.948 7.61834 227.575 8.23199 230.173 8.89859L230.67 6.96135C228.044 6.28752 225.388 5.66707 222.7 5.10416L222.29 7.06171ZM237.942 11.0707C240.523 11.8514 243.079 12.6825 245.611 13.5598L246.266 11.6699C243.709 10.7843 241.128 9.94501 238.521 9.15632L237.942 11.0707ZM253.199 16.3468C255.711 17.3215 258.204 18.3389 260.681 19.3947L261.465 17.5549C258.97 16.491 256.456 15.4653 253.922 14.4822L253.199 16.3468ZM268.07 22.675C270.516 23.8027 272.95 24.9645 275.374 26.1559L276.256 24.361C273.818 23.1629 271.37 21.994 268.907 20.8587L268.07 22.675ZM282.595 29.8019C284.987 31.0398 287.373 32.3028 289.757 33.5864L290.705 31.8256C288.313 30.5374 285.918 29.2693 283.514 28.0256L282.595 29.8019ZM296.87 37.4775C299.223 38.7827 301.577 40.1039 303.934 41.4371L304.919 39.6962C302.558 38.361 300.199 37.037 297.84 35.7285L296.87 37.4775ZM310.986 45.4482C313.329 46.787 315.678 48.1327 318.038 49.4827L319.031 47.7466C316.673 46.3976 314.322 45.0507 311.978 43.7116L310.986 45.4482ZM325.079 53.4988C327.424 54.8306 329.782 56.162 332.154 57.4891L333.131 55.7436C330.763 54.4192 328.409 53.0899 326.067 51.7597L325.079 53.4988ZM339.275 61.4283C341.638 62.719 344.018 64.002 346.418 65.2734L347.354 63.506C344.962 62.2391 342.59 60.9603 340.234 59.6732L339.275 61.4283ZM353.635 69.0247C356.042 70.2507 358.471 71.4619 360.926 72.655L361.8 70.8563C359.358 69.669 356.94 68.4633 354.543 67.2426L353.635 69.0247ZM368.263 76.1281C370.716 77.2572 373.196 78.3656 375.705 79.4499L376.499 77.614C374.005 76.5362 371.539 75.4342 369.099 74.3113L368.263 76.1281ZM383.214 82.5842C385.71 83.5886 388.236 84.5673 390.795 85.5172L391.491 83.6423C388.95 82.6989 386.441 81.7267 383.961 80.7288L383.214 82.5842ZM398.505 88.2562C401.041 89.1165 403.61 89.947 406.213 90.7451L406.8 88.8329C404.216 88.0407 401.666 87.2162 399.147 86.3622L398.505 88.2562ZM414.05 93.0181C416.643 93.7274 419.27 94.4037 421.933 95.0444L422.4 93.0999C419.758 92.4641 417.151 91.793 414.578 91.089L414.05 93.0181ZM429.867 96.8233C432.508 97.3724 435.185 97.886 437.898 98.3621L438.244 96.3921C435.551 95.9198 432.895 95.41 430.274 94.8652L429.867 96.8233ZM445.897 99.6386C448.575 100.024 451.288 100.372 454.039 100.682L454.263 98.6947C451.533 98.3872 448.839 98.0414 446.182 97.659L445.897 99.6386ZM462.071 101.466C464.772 101.689 467.507 101.875 470.28 102.023L470.386 100.025C467.633 99.8792 464.917 99.6944 462.236 99.4727L462.071 101.466ZM478.324 102.336C481.031 102.404 483.773 102.435 486.549 102.428L486.544 100.428C483.786 100.435 481.063 100.404 478.374 100.337L478.324 102.336ZM494.599 102.302C497.297 102.225 500.028 102.112 502.793 101.962L502.685 99.9646C499.937 100.114 497.223 100.226 494.542 100.303L494.599 102.302ZM510.859 101.426C513.533 101.216 516.239 100.972 518.976 100.693L518.773 98.7035C516.051 98.9809 513.361 99.2235 510.702 99.4321L510.859 101.426ZM527.085 99.7744C529.722 99.446 532.389 99.0855 535.085 98.692L534.796 96.713C532.114 97.1044 529.461 97.4631 526.838 97.7897L527.085 99.7744ZM543.262 97.4118C545.857 96.9783 548.479 96.5147 551.129 96.0204L550.762 94.0543C548.125 94.5464 545.515 95.0077 542.932 95.4391L543.262 97.4118ZM559.143 94.448C561.78 93.9054 564.444 93.3329 567.135 92.7296L566.698 90.7781C564.018 91.3788 561.365 91.9489 558.74 92.4891L559.143 94.448ZM574.96 90.9073C577.593 90.2712 580.252 89.6063 582.937 88.9119L582.436 86.9756C579.762 87.6673 577.113 88.3297 574.49 88.9632L574.96 90.9073ZM590.76 86.825C593.323 86.1208 595.908 85.3903 598.517 84.6329L597.96 82.7122C595.36 83.4669 592.783 84.1949 590.23 84.8964L590.76 86.825ZM606.416 82.2796C608.964 81.5012 611.534 80.6977 614.126 79.8685L613.516 77.9636C610.932 78.7901 608.371 79.5911 605.831 80.3669L606.416 82.2796ZM621.781 77.3669C624.354 76.5083 626.948 75.625 629.565 74.7164L628.909 72.8271C626.3 73.733 623.713 74.6138 621.148 75.4697L621.781 77.3669ZM637.234 72.0036C639.723 71.1072 642.231 70.1884 644.759 69.2468L644.061 67.3726C641.54 68.3117 639.038 69.228 636.556 70.1219L637.234 72.0036ZM652.403 66.3534C654.953 65.3727 657.523 64.3693 660.112 63.3426L659.375 61.4834C656.792 62.5075 654.228 63.5085 651.685 64.4867L652.403 66.3534ZM667.487 60.3786C669.963 59.3698 672.457 58.3403 674.97 57.2896L674.198 55.4445C671.691 56.4928 669.203 57.52 666.733 58.5264L667.487 60.3786ZM682.561 54.0742C683.836 53.5277 685.115 52.9758 686.398 52.4186L685.602 50.584C684.321 51.1401 683.045 51.6907 681.773 52.2361L682.561 54.0742ZM686.398 52.4186C687.641 51.8792 688.881 51.3598 690.119 50.8603L689.371 49.0056C688.117 49.5117 686.86 50.0377 685.602 50.584L686.398 52.4186ZM697.521 48.0972C700.011 47.2424 702.492 46.4657 704.966 45.7643L704.42 43.8402C701.912 44.5516 699.396 45.339 696.871 46.2055L697.521 48.0972ZM712.645 43.8188C715.206 43.2471 717.759 42.7537 720.304 42.3353L719.98 40.3618C717.397 40.7863 714.808 41.2869 712.21 41.8669L712.645 43.8188ZM728.147 41.2776C730.755 41.002 733.356 40.8025 735.95 40.6755L735.853 38.6779C733.221 38.8067 730.583 39.0091 727.936 39.2886L728.147 41.2776ZM743.842 40.5093C746.466 40.5263 749.084 40.6144 751.697 40.77L751.816 38.7735C749.169 38.6159 746.515 38.5266 743.855 38.5094L743.842 40.5093ZM759.544 41.4377C762.154 41.7256 764.76 42.0776 767.362 42.4898L767.675 40.5144C765.043 40.0974 762.406 39.7413 759.763 39.4498L759.544 41.4377ZM775.1 43.8922C777.675 44.4165 780.247 44.9966 782.817 45.6286L783.294 43.6865C780.7 43.0483 778.102 42.4623 775.499 41.9324L775.1 43.8922ZM790.416 47.6485C792.945 48.3694 795.471 49.1373 797.996 49.9486L798.607 48.0445C796.063 47.2268 793.515 46.4524 790.965 45.7252L790.416 47.6485ZM805.453 52.4694C807.931 53.3473 810.408 54.2638 812.885 55.2154L813.603 53.3485C811.11 52.3909 808.616 51.4683 806.12 50.5842L805.453 52.4694ZM820.214 58.1306C822.645 59.1297 825.076 60.1594 827.508 61.2166L828.306 59.3824C825.862 58.3202 823.418 57.2852 820.974 56.2807L820.214 58.1306ZM834.731 64.4326C837.122 65.5217 839.515 66.6343 841.909 67.7671L842.765 65.9593C840.362 64.8226 837.961 63.706 835.56 62.6125L834.731 64.4326ZM849.052 71.2018C851.413 72.3544 853.777 73.5237 856.143 74.7069L857.037 72.9182C854.666 71.7324 852.297 70.5602 849.929 69.4044L849.052 71.2018ZM863.231 78.2867C865.574 79.4799 867.919 80.6838 870.267 81.8955L871.185 80.1182C868.834 78.9052 866.485 77.6997 864.139 76.5046L863.231 78.2867ZM877.323 85.5513C879.659 86.7657 881.999 87.9849 884.342 89.2063L885.267 87.4327C882.923 86.2113 880.583 84.9917 878.246 83.7768L877.323 85.5513ZM891.383 92.8723C893.726 94.0902 896.073 95.3074 898.425 96.5213L899.342 94.744C896.992 93.5313 894.647 92.3151 892.305 91.0978L891.383 92.8723ZM905.485 100.144C907.841 101.345 910.203 102.54 912.57 103.727L913.466 101.939C911.103 100.755 908.746 99.5616 906.393 98.3621L905.485 100.144ZM919.682 107.253C922.058 108.418 924.441 109.571 926.831 110.71L927.691 108.905C925.309 107.769 922.933 106.619 920.562 105.457L919.682 107.253ZM934.023 114.084C936.428 115.192 938.84 116.284 941.259 117.356L942.069 115.528C939.66 114.46 937.257 113.372 934.861 112.268L934.023 114.084ZM948.554 120.517C950.995 121.55 953.444 122.56 955.901 123.544L956.645 121.688C954.2 120.708 951.763 119.703 949.334 118.675L948.554 120.517ZM963.312 126.426C965.794 127.36 968.285 128.267 970.786 129.142L971.447 127.254C968.962 126.384 966.485 125.483 964.016 124.554L963.312 126.426ZM978.323 131.675C980.849 132.488 983.384 133.267 985.931 134.009L986.491 132.089C983.963 131.352 981.444 130.578 978.935 129.771L978.323 131.675ZM993.601 136.124C996.167 136.79 998.744 137.416 1001.33 138.001L1001.77 136.05C999.206 135.47 996.65 134.849 994.104 134.188L993.601 136.124ZM1009.13 139.626C1011.73 140.121 1014.34 140.572 1016.97 140.975L1017.27 138.999C1014.67 138.599 1012.08 138.152 1009.51 137.661L1009.13 139.626ZM1024.87 142.04C1027.5 142.344 1030.14 142.599 1032.79 142.801L1032.94 140.807C1030.32 140.606 1027.7 140.354 1025.1 140.053L1024.87 142.04ZM1040.74 143.248C1043.39 143.344 1046.05 143.386 1048.73 143.372L1048.72 141.372C1046.07 141.386 1043.43 141.344 1040.81 141.25L1040.74 143.248ZM1056.65 143.165C1059.3 143.041 1061.97 142.86 1064.65 142.619L1064.47 140.627C1061.82 140.865 1059.18 141.044 1056.56 141.167L1056.65 143.165ZM1072.51 141.748C1075.13 141.403 1077.76 141 1080.4 140.537L1080.05 138.567C1077.44 139.025 1074.84 139.424 1072.25 139.765L1072.51 141.748ZM1088.24 138.997C1090.79 138.441 1093.35 137.829 1095.92 137.158L1095.42 135.223C1092.87 135.887 1090.33 136.493 1087.81 137.043L1088.24 138.997ZM1103.68 134.97C1106.17 134.216 1108.66 133.408 1111.17 132.542L1110.52 130.652C1108.03 131.509 1105.56 132.31 1103.1 133.057L1103.68 134.97ZM1118.64 129.809C1121.12 128.847 1123.62 127.829 1126.13 126.754L1125.35 124.915C1122.86 125.982 1120.38 126.991 1117.92 127.944L1118.64 129.809ZM1133.25 123.565C1135.63 122.451 1138.02 121.283 1140.42 120.063L1139.52 118.279C1137.13 119.491 1134.76 120.648 1132.4 121.754L1133.25 123.565ZM1147.57 116.294C1149.82 115.063 1152.07 113.785 1154.34 112.459L1153.33 110.732C1151.08 112.049 1148.84 113.318 1146.61 114.539L1147.57 116.294ZM1161.17 108.335C1163.45 106.918 1165.73 105.453 1168.03 103.938L1166.93 102.269C1164.65 103.774 1162.38 105.23 1160.12 106.637L1161.17 108.335ZM1174.43 99.6013C1176.57 98.1126 1178.72 96.5804 1180.88 95.0039L1179.7 93.3884C1177.56 94.9559 1175.42 96.4792 1173.29 97.9589L1174.43 99.6013ZM1187.39 90.1405C1189.45 88.5667 1191.51 86.9527 1193.59 85.2978L1192.34 83.7346C1190.28 85.3811 1188.22 86.9867 1186.18 88.5519L1187.39 90.1405ZM1199.65 80.3604C1201.68 78.6755 1203.72 76.9514 1205.76 75.1875L1204.45 73.6732C1202.42 75.429 1200.39 77.145 1198.37 78.8217L1199.65 80.3604ZM1211.92 69.7754C1213.81 68.0825 1215.71 66.3556 1217.61 64.594L1216.25 63.1256C1214.36 64.8799 1212.47 66.5996 1210.58 68.2852L1211.92 69.7754ZM1223.33 59.2212C1225.24 57.3956 1227.16 55.5351 1229.09 53.6392L1227.69 52.2136C1225.77 54.1025 1223.86 55.9559 1221.95 57.7744L1223.33 59.2212ZM1234.89 47.8449C1236.68 46.0332 1238.47 44.1912 1240.27 42.3184L1238.83 40.9328C1237.04 42.7993 1235.25 44.635 1233.47 46.4402L1234.89 47.8449ZM1245.65 36.6486C1247.45 34.7281 1249.25 32.7768 1251.06 30.7944L1249.58 29.4457C1247.78 31.422 1245.98 33.3672 1244.19 35.2816L1245.65 36.6486Z" fill="url(#paint0_linear_477_7276)"/>
<defs>
<linearGradient id="paint0_linear_477_7276" x1="0.999998" y1="104.5" x2="1351" y2="6.49992" gradientUnits="userSpaceOnUse">
<stop stop-color="#4B9EF9"/>
<stop offset="0.611811" stop-color="#90C1F8"/>
<stop offset="0.616463" stop-color="#A0A3BD"/>
<stop offset="1" stop-color="#EFF0F6"/>
<stop offset="1" stop-color="#A0A3BD"/>
</linearGradient>
</defs>
</svg>
