<svg version="1.2" xmlns="http://www.w3.org/2000/svg" viewBox="0 0 28 28" width="28" height="28">
	<title>poll-svg</title>
	<style>
		.s0 { fill: #ffffff } 
	</style>
	<path id="Layer" class="s0" d="m3.6 27.3q-1.2 0-2.1-0.8-0.8-0.9-0.8-2.1v-12.5q0-1.2 0.8-2 0.9-0.9 2.1-0.9 1.2 0 2 0.9 0.9 0.8 0.9 2v12.5q0 1.2-0.9 2.1-0.8 0.8-2 0.8zm10.4 0q-1.2 0-2.1-0.8-0.8-0.9-0.8-2.1v-20.8q0-1.2 0.8-2.1 0.9-0.8 2.1-0.8 1.2 0 2.1 0.8 0.8 0.9 0.8 2.1v20.8q0 1.2-0.8 2.1-0.9 0.8-2.1 0.8zm10.4 0q-1.2 0-2-0.8-0.9-0.9-0.9-2.1v-5.8q0-1.2 0.9-2.1 0.8-0.8 2-0.8 1.2 0 2.1 0.8 0.8 0.9 0.8 2.1v5.8q0 1.2-0.8 2.1-0.9 0.8-2.1 0.8z"/>
</svg>