<svg width="24" height="24" viewBox="0 0 24 24" fill="none" xmlns="http://www.w3.org/2000/svg">
<path d="M12 21C10.7647 21 9.57585 20.7585 8.48916 20.2941C7.39319 19.8204 6.43653 19.1703 5.62848 18.3715C4.82043 17.5635 4.17028 16.5975 3.70588 15.5108C3.2322 14.4241 3 13.2446 3 12C3 10.7554 3.24149 9.57585 3.70588 8.48916C4.17957 7.39319 4.82972 6.43653 5.62848 5.62848C6.42724 4.82043 7.40248 4.17028 8.48916 3.70588C9.57585 3.2322 10.7647 3 12 3C13.2353 3 14.4241 3.24149 15.5108 3.70588C16.6068 4.17957 17.5635 4.82043 18.3715 5.62848C19.1796 6.43653 19.8297 7.40248 20.2941 8.48916C20.7678 9.57585 21 10.7647 21 12C21 13.2353 20.7585 14.4241 20.2941 15.5108C19.8204 16.5975 19.1796 17.5635 18.3715 18.3715C17.5635 19.1796 16.6068 19.8297 15.5108 20.2941C14.4241 20.7678 13.2353 21 12 21ZM8.71207 17.6378L9.47368 19.2724L9.58514 19.3096C9.97523 19.4396 10.3653 19.5325 10.7647 19.5975C11.1641 19.6625 11.582 19.6904 11.9907 19.6904C12.3994 19.6904 12.8173 19.6625 13.2167 19.5975C13.6161 19.5325 14.0155 19.4396 14.3963 19.3096L14.5077 19.2724L15.2694 17.6378L14.5077 16.356H9.45511L8.6935 17.6378H8.71207ZM4.29102 11.5263V11.6656C4.29102 12.6966 4.43963 13.6533 4.71827 14.5077C5.00619 15.3622 5.48916 16.2074 6.15789 17.0062L6.25077 17.1176L7.60681 16.9969L8.43344 15.5015L7.0031 11.2198L5.43344 10.6625L4.27245 11.5356L4.29102 11.5263ZM16.9783 11.2105L15.548 15.5015L16.3746 16.9969L17.7307 17.1176L17.8235 17.0062C18.4923 16.2074 18.9845 15.3715 19.2632 14.5077C19.5511 13.6533 19.6997 12.6966 19.6997 11.6656V11.517L18.5387 10.6997L16.969 11.2012L16.9783 11.2105ZM8.32198 10.9505L9.70588 15.0557H14.2848L15.7152 10.9505L11.9907 8.34985L8.31269 10.9505H8.32198ZM12.6502 5.6192V7.20743L16.5975 9.97523L18.1207 9.4644L18.5666 7.95046L18.4923 7.83901C17.9814 7.0774 17.3591 6.40867 16.644 5.86068C15.9288 5.31269 15.1207 4.89474 14.257 4.62539L14.1269 4.58824L12.6409 5.62848L12.6502 5.6192ZM9.73375 4.6161C8.86997 4.88545 8.07121 5.30341 7.34675 5.85139C6.63158 6.39938 6.00929 7.06811 5.49845 7.82972L5.42415 7.94118L5.86997 9.45511L7.39319 9.96594L11.3406 7.19814V5.60991L9.85449 4.56966L9.72446 4.60681L9.73375 4.6161Z" fill="white"/>
</svg>
