<svg width="18" height="19" viewBox="0 0 18 19" fill="none" xmlns="http://www.w3.org/2000/svg">
    <mask id="gt4ua8evja" style="mask-type:alpha" maskUnits="userSpaceOnUse" x="0" y="0" width="18" height="19">
        <path fill="#D9D9D9" d="M.396.8h17.257v17.333H.396z"/>
    </mask>
    <g mask="url(#gt4ua8evja)">
        <path d="M9.025 16.689c-.995 0-1.93-.19-2.804-.57a7.256 7.256 0 0 1-2.283-1.543A7.29 7.29 0 0 1 2.4 12.283a7.056 7.056 0 0 1-.566-2.817c0-.999.189-1.938.566-2.816a7.29 7.29 0 0 1 1.537-2.293A7.265 7.265 0 0 1 6.22 2.813a6.979 6.979 0 0 1 2.804-.569c.995 0 1.93.19 2.804.569.875.379 1.636.894 2.283 1.544A7.292 7.292 0 0 1 15.65 6.65c.377.878.566 1.817.566 2.816 0 1-.189 1.938-.566 2.817a7.292 7.292 0 0 1-1.537 2.293 7.256 7.256 0 0 1-2.283 1.543c-.875.38-1.81.57-2.804.57zM12.62 7.66l.97-.325.289-.975a6.18 6.18 0 0 0-1.385-1.49 5.728 5.728 0 0 0-1.78-.93l-.97.686V5.64L12.62 7.66zm-7.19 0 2.876-2.022V4.627l-.97-.686a5.727 5.727 0 0 0-1.78.93c-.54.415-1 .912-1.384 1.49l.287.975.97.325zm-.755 5.56.827-.071.54-.975-1.044-3.142-1.006-.361-.72.542c0 .782.109 1.495.324 2.139.216.644.576 1.267 1.079 1.869zm4.35 2.023a5.542 5.542 0 0 0 1.798-.289l.503-1.083-.467-.794H7.192l-.468.794.503 1.083a5.542 5.542 0 0 0 1.798.29zm-1.618-3.611h3.236l1.006-2.889-2.624-1.842-2.588 1.842.97 2.889zm5.968 1.589c.504-.602.863-1.225 1.079-1.87.215-.643.323-1.356.323-2.138l-.719-.506-1.006.325-1.043 3.142.54.975.826.072z" fill="#2D2D39"/>
    </g>
</svg>
