<svg width="36" height="37" viewBox="0 0 36 37" fill="none" xmlns="http://www.w3.org/2000/svg">
<g id="Frame" clip-path="url(#clip0_483_2434)">
<path id="Vector" d="M34.7263 15.9815C34.536 14.9296 33.7608 14.1089 32.6991 13.8749L24.2557 11.9598L21.7078 3.97299C21.3733 2.95559 20.4965 2.22013 19.4225 2.12617C18.9089 2.08123 18.3829 2.17638 17.9382 2.41979C17.4934 2.6632 17.1297 3.05487 16.8554 3.50141L12.9551 10.9712L4.30752 11.3909C3.26794 11.4411 2.31534 12.1107 1.94528 13.1135C1.57522 14.1163 1.80813 15.2189 2.59148 15.9462L8.70588 21.8924L5.80787 30.8144C5.48042 31.868 5.80673 32.9787 6.63677 33.7101C7.51759 34.3989 8.685 34.501 9.62944 33.9249L14.8349 30.8983L17.0162 29.6305L19.0761 31.3635L23.545 35.1424C23.9834 35.5101 24.4848 35.6951 24.9985 35.7401C25.5121 35.785 26.0381 35.6898 26.5336 35.4038C27.5207 34.8785 28.039 33.7945 27.8995 32.7001L26.5907 23.4571L33.6447 18.663C34.4958 18.0787 34.9166 17.0333 34.7263 15.9815ZM24.6814 21.0785L23.2799 22.0381C23.2799 22.0381 23.4965 23.3275 23.622 24.0443L24.7182 31.9512L24.7142 31.9979L24.7445 32.1888L24.4807 31.9775L23.8678 31.4533L19.5734 27.8309L17.339 25.9414L15.704 26.8806L14.7637 27.4101L9.90957 30.1851L9.85879 30.2277L9.76131 30.2662L8.91844 30.7571L8.98557 30.5277L9.10756 30.209L11.3548 23.3475C11.3588 23.3008 12.1702 21.0191 12.1702 21.0191L10.5183 19.463L5.31504 14.3964L13.3007 14.0128L14.8114 13.9568L15.4943 12.6049L15.7178 12.201L19.1039 5.7685L21.3214 12.6912L21.9093 14.5778L23.3872 14.8953L24.0328 15.0459L24.1262 15.0541L31.185 16.6598L24.6814 21.0785Z" fill="#14142B"/>
</g>
<defs>
<clipPath id="clip0_483_2434">
<rect width="33.0938" height="33" fill="white" transform="translate(2.93872 0.683594) rotate(5)"/>
</clipPath>
</defs>
</svg>
