<svg width="24" height="24" viewBox="0 0 24 24" fill="none" xmlns="http://www.w3.org/2000/svg">
<path d="M12.0306 17.2166L20.3837 8.89001L18.2332 6.76602L9.9066 15.0926L12.0306 17.2166ZM5.75242 18.491C4.19483 18.3848 3.01336 18.0263 2.20802 17.4157C1.40267 16.8051 1 15.9422 1 14.8271C1 13.7651 1.45135 12.8978 2.35404 12.2252C3.25674 11.5526 4.51343 11.1455 6.12412 11.0039C6.90292 10.9331 7.48259 10.7915 7.86314 10.5791C8.24368 10.3667 8.43396 10.0747 8.43396 9.70297C8.43396 9.18967 8.17731 8.79585 7.66401 8.5215C7.15071 8.24715 6.29227 8.04803 5.08868 7.92413L5.22143 6.33114C6.79672 6.49044 7.99146 6.85328 8.80566 7.41968C9.61985 7.98608 10.0269 8.74717 10.0269 9.70297C10.0269 10.5172 9.69508 11.1809 9.03133 11.6942C8.36758 12.2075 7.44276 12.5084 6.25687 12.5969C5.03558 12.6854 4.11961 12.9155 3.50896 13.2872C2.89831 13.6589 2.59299 14.1722 2.59299 14.8271C2.59299 15.4466 2.86291 15.9289 3.40276 16.2741C3.94261 16.6192 4.75238 16.8272 5.83207 16.898L5.75242 18.491ZM12.535 18.9689L8.15431 14.5881L17.4101 5.35888C17.6579 5.11108 17.9367 4.99161 18.2464 5.00046C18.5562 5.0093 18.835 5.12878 19.0828 5.35888L21.7908 8.04041C22.0386 8.28821 22.1625 8.57141 22.1625 8.89001C22.1625 9.20861 22.0386 9.4918 21.7908 9.7396L12.535 18.9689ZM8.31361 19.845C8.01272 19.9158 7.74722 19.8362 7.51712 19.6061C7.28702 19.376 7.20737 19.1105 7.27817 18.8096L8.15431 14.5881L12.535 18.9689L8.31361 19.845Z" fill="#14142B"/>
</svg>
