<svg width="24" height="24" viewBox="0 0 24 24" fill="none" xmlns="http://www.w3.org/2000/svg">
<path d="M9.3675 14.025L12 12.4275L14.6325 14.025L13.935 11.0325L16.275 9.0075L13.1925 8.76L12 5.925L10.8075 8.76L7.725 9.0075L10.065 11.0325L9.3675 14.025ZM3 21V4.35C3 3.99 3.135 3.675 3.405 3.405C3.675 3.135 3.99 3 4.35 3H19.65C20.01 3 20.325 3.135 20.595 3.405C20.865 3.675 21 3.99 21 4.35V16.05C21 16.41 20.865 16.725 20.595 16.995C20.325 17.265 20.01 17.4 19.65 17.4H6.6L3 21ZM6.015 16.05H19.65V4.35H4.35V17.85L6.015 16.05Z" fill="#14142B"/>
</svg>
