<svg xmlns="http://www.w3.org/2000/svg" width="18" height="18" viewBox="0 0 18 18" fill="none">
  <path d="M8.925 18C6.44167 18 4.33333 17.1208 2.6 15.3625C1.04254 13.7826 0.184796 11.9033 0.0267677 9.72454C-0.00319765 9.31141 0.335786 8.975 0.75 8.975C1.16421 8.975 1.49608 9.31151 1.53204 9.72416C1.68565 11.4871 2.39163 13.0124 3.65 14.3C5.08333 15.7667 6.84167 16.5 8.925 16.5C11.0417 16.5 12.8333 15.7583 14.3 14.275C15.7667 12.7917 16.5 10.9917 16.5 8.875C16.5 6.80833 15.7583 5.0625 14.275 3.6375C12.7917 2.2125 11.0083 1.5 8.925 1.5C7.79167 1.5 6.72917 1.75833 5.7375 2.275C4.74583 2.79167 3.88333 3.475 3.15 4.325H5.025C5.43921 4.325 5.775 4.66079 5.775 5.075C5.775 5.48921 5.43921 5.825 5.025 5.825H2.55C1.44543 5.825 0.55 4.92957 0.55 3.825V1.375C0.55 0.960787 0.885786 0.625 1.3 0.625C1.71421 0.625 2.05 0.960787 2.05 1.375V3.275C2.91667 2.25833 3.94583 1.45833 5.1375 0.875C6.32917 0.291667 7.59167 0 8.925 0C10.175 0 11.35 0.233333 12.45 0.7C13.55 1.16667 14.5125 1.80417 15.3375 2.6125C16.1625 3.42083 16.8125 4.36667 17.2875 5.45C17.7625 6.53333 18 7.7 18 8.95C18 10.2 17.7625 11.375 17.2875 12.475C16.8125 13.575 16.1625 14.5333 15.3375 15.35C14.5125 16.1667 13.55 16.8125 12.45 17.2875C11.35 17.7625 10.175 18 8.925 18ZM12.6578 12.5422C12.363 12.837 11.8855 12.8386 11.5888 12.5457L8.275 9.275V4.675C8.275 4.26079 8.61079 3.925 9.025 3.925C9.43921 3.925 9.775 4.26079 9.775 4.675V8.65L12.6518 11.4638C12.9536 11.759 12.9563 12.2437 12.6578 12.5422Z" fill="#4B9EF9"/>
</svg>