<svg width="16" height="16" viewBox="0 0 16 16" fill="none" xmlns="http://www.w3.org/2000/svg">
<path d="M10.2155 15.3891L15.864 1.81648C15.9241 1.68014 15.9415 1.52885 15.914 1.38244C15.8866 1.23603 15.8155 1.10133 15.7102 0.995996C15.6048 0.890662 15.4701 0.819611 15.3237 0.792155C15.1773 0.764699 15.026 0.78212 14.8897 0.842132L1.31613 6.48974C1.19873 6.53571 1.09437 6.60971 1.01214 6.70528C0.92991 6.80086 0.872319 6.9151 0.844389 7.03805C0.816459 7.16099 0.819038 7.28891 0.851903 7.41063C0.884767 7.53235 0.946918 7.64418 1.03293 7.73636L3.46973 10.1841C3.60225 10.3135 3.77775 10.3897 3.9628 10.3981C4.14784 10.4065 4.32952 10.3465 4.47322 10.2296L13.2551 3.45103L6.47019 12.2266C6.35617 12.3729 6.29859 12.5553 6.30795 12.7405C6.31731 12.9258 6.393 13.1015 6.52118 13.2355L8.9689 15.6723C9.06108 15.7583 9.17291 15.8205 9.29463 15.8534C9.41635 15.8862 9.54426 15.8888 9.66721 15.8609C9.79016 15.8329 9.9044 15.7753 9.99998 15.6931C10.0956 15.6109 10.1696 15.5065 10.2155 15.3891Z" fill="#5CB85B"/>
</svg>
