<svg width="18" height="18" viewBox="0 0 18 18" fill="currentColor" xmlns="http://www.w3.org/2000/svg">
<path d="M16.5 18H9C8.175 18 7.5 17.325 7.5 16.5V8.25C7.5 7.425 8.175 6.75 9 6.75H16.5C17.325 6.75 18 7.425 18 8.25V16.5C18 17.325 17.325 18 16.5 18ZM9 8.25V16.5H16.5V8.25H9ZM4.5 11.25H1.5C0.675 11.25 0 10.575 0 9.75V1.5C0 0.675 0.675 0 1.5 0H9C9.825 0 10.5 0.675 10.5 1.5V3.525C10.5 3.975 10.2 4.275 9.75 4.275C9.3 4.275 9 3.975 9 3.525V1.5H1.5V9.75H4.5C4.95 9.75 5.25 10.05 5.25 10.5C5.25 10.95 4.95 11.25 4.5 11.25Z" fill="currentColor"/>
</svg>
