<svg width="18" height="18" viewBox="0 0 18 18" fill="currentColor" xmlns="http://www.w3.org/2000/svg">
<path d="M4.93025 14.056C4.71948 14.2843 4.73379 14.6404 4.9621 14.8508C5.07052 14.9506 5.20722 15 5.34356 15C5.49528 15 5.64593 14.9392 5.75687 14.8193L4.93025 14.056ZM15.5435 9.22077L14.8311 10.0918C15.0715 10.2882 15.4262 10.2528 15.6226 10.0123C15.7081 9.90783 15.75 9.78187 15.75 9.65663C15.75 9.4938 15.6795 9.33206 15.5435 9.22077ZM4.2185 9.93754C4.2185 10.2481 4.47042 10.5001 4.78103 10.5001C5.09163 10.5001 5.31815 10.2728 5.34141 9.9837C5.34284 9.96867 5.34356 9.95364 5.34356 9.93825V9.93754H4.2185ZM8.71873 9.93754V9.93825C8.71873 9.94254 8.71873 9.94684 8.71909 9.95113C8.72625 10.2553 8.97495 10.5001 9.28126 10.5001C9.58758 10.5001 9.84379 10.2481 9.84379 9.93754H8.71873ZM3.93723 3.75V4.87507H14.0624V3.75H3.93723ZM14.6249 5.43761V8.46929L13.2701 7.36068C12.5791 6.79528 11.5672 6.86613 10.9613 7.52207L9.53498 9.06725C9.39327 8.85397 9.20719 8.64463 8.98962 8.45712C8.5094 8.04238 7.82126 7.68739 7.03115 7.68739C6.24103 7.68739 5.55289 8.04238 5.07267 8.45712C4.83434 8.66288 4.63324 8.89477 4.48688 9.12916L3.3747 8.01697V9.60796L6.31868 12.552L5.097 13.8753H6.62821L11.788 8.28536C11.9901 8.06671 12.3272 8.04309 12.5577 8.23132L14.6249 9.92322V13.3128H15.75V5.43761H14.6249ZM7.08232 11.7246L5.34141 9.9837C5.34284 9.96867 5.34356 9.95364 5.34356 9.93825C5.34427 9.93825 5.3525 9.86776 5.4366 9.73177C5.51711 9.60116 5.64271 9.45086 5.80768 9.30844C6.1419 9.02002 6.57883 8.81246 7.03115 8.81246C7.48346 8.81246 7.92039 9.02002 8.25461 9.30844C8.41922 9.45086 8.54482 9.60116 8.6257 9.73177C8.70943 9.86776 8.71802 9.93825 8.71873 9.93825C8.71873 9.94254 8.71873 9.94684 8.71909 9.95113L7.08232 11.7246ZM3.93723 13.8753V15H14.0624V13.8753H3.93723ZM2.25 5.43761V13.3128H3.3747V5.43761H2.25ZM3.3747 13.8753V13.3128H2.25C2.25 14.2446 3.00541 15 3.93723 15V13.8753H3.3747ZM14.6249 13.3128V13.8753H14.0624V15C14.9942 15 15.75 14.2446 15.75 13.3128H14.6249ZM15.75 5.43761C15.75 4.50542 14.9942 3.75 14.0624 3.75V4.87507H14.6249V5.43761H15.75ZM2.25 5.43761H3.3747V4.87507H3.93723V3.75C3.00541 3.75 2.25 4.50542 2.25 5.43761ZM5.29525 9.93754L5.34141 9.9837C5.34284 9.96867 5.34356 9.95364 5.34356 9.93825V9.93754H5.29525ZM10.9613 7.52207L9.53498 9.06725L8.73162 9.93754H8.71873V9.93825C8.71873 9.94254 8.71873 9.94684 8.71909 9.95113L7.08232 11.7246L6.31868 12.552L5.097 13.8753L4.93025 14.056L5.75687 14.8193L6.62821 13.8753L11.788 8.28536L10.9613 7.52207ZM14.6249 8.46929L13.2701 7.36068L12.5577 8.23132L14.6249 9.92322L14.8311 10.0918L15.5435 9.22077L14.6249 8.46929ZM10.9613 7.52207L11.788 8.28536C11.9901 8.06671 12.3272 8.04309 12.5577 8.23132L13.2701 7.36068C12.5791 6.79528 11.5672 6.86613 10.9613 7.52207ZM7.08232 11.7246L5.34141 9.9837L5.29525 9.93754L4.48688 9.12916L3.21009 7.85236L2.41461 8.64785L6.77386 13.0071L7.56934 12.2117L7.08232 11.7246ZM5.07267 8.45712C4.83434 8.66288 4.63324 8.89477 4.48688 9.12916C4.48402 9.1331 4.48151 9.13739 4.47901 9.14133C4.33981 9.36713 4.2185 9.6484 4.2185 9.93754H5.29525L5.34141 9.9837C5.34284 9.96867 5.34356 9.95364 5.34356 9.93825C5.34427 9.93825 5.3525 9.86776 5.4366 9.73177C5.51711 9.60116 5.64271 9.45086 5.80768 9.30844C6.1419 9.02002 6.57883 8.81246 7.03115 8.81246V7.68739C6.24067 7.68739 5.55289 8.04238 5.07267 8.45712ZM9.58293 9.14133C9.56754 9.11663 9.55179 9.09194 9.53498 9.06725C9.39327 8.85397 9.20719 8.64463 8.98962 8.45712C8.5094 8.04238 7.82126 7.68739 7.03115 7.68739V8.81246C7.48346 8.81246 7.92039 9.02002 8.25461 9.30844C8.41922 9.45086 8.54482 9.60116 8.6257 9.73177C8.70943 9.86776 8.71802 9.93825 8.71873 9.93825V9.93754H9.84379C9.84379 9.6484 9.72249 9.36713 9.58293 9.14133Z" fill="currentColor"/>
</svg>
