<svg width="20" height="20" viewBox="0 0 20 20" fill="none" xmlns="http://www.w3.org/2000/svg">
<path d="M1 20C0.447715 20 0 19.5523 0 19V7.66667C0 7.11438 0.447715 6.66667 1 6.66667H3C3.55228 6.66667 4 7.11438 4 7.66667V19C4 19.5523 3.55228 20 3 20H1ZM9 20C8.44772 20 8 19.5523 8 19V1C8 0.447716 8.44772 0 9 0H11C11.5523 0 12 0.447715 12 1V19C12 19.5523 11.5523 20 11 20H9ZM17 20C16.4477 20 16 19.5523 16 19V13C16 12.4477 16.4477 12 17 12H19C19.5523 12 20 12.4477 20 13V19C20 19.5523 19.5523 20 19 20H17Z" fill="#14142B"/>
</svg>
