<svg width="18" height="18" viewBox="0 0 18 18" fill="none" xmlns="http://www.w3.org/2000/svg">
<g clip-path="url(#clip0_2514_1981)">
<path d="M1.35 18C0.99 18 0.675 17.865 0.405 17.595C0.135 17.325 0 17.01 0 16.65V7.9425C0 7.5825 0.135 7.2675 0.405 6.9975C0.675 6.7275 0.99 6.5925 1.35 6.5925H3.9375V1.35C3.9375 0.99 4.0725 0.675 4.3425 0.405C4.6125 0.135 4.9275 0 5.2875 0H16.65C17.01 0 17.325 0.135 17.595 0.405C17.865 0.675 18 0.99 18 1.35V10.0575C18 10.4175 17.865 10.7325 17.595 11.0025C17.325 11.2725 17.01 11.4075 16.65 11.4075H14.085V16.65C14.085 17.01 13.95 17.325 13.68 17.595C13.41 17.865 13.095 18 12.735 18H1.35ZM1.35 16.65H12.735V9.2925H1.35V16.65ZM14.085 10.0575H16.65V2.7H5.2875V6.5925H12.42C12.9 6.5925 13.2975 6.75 13.6125 7.065C13.9275 7.38 14.085 7.7775 14.085 8.2575V10.0575Z" fill="#14142B"/>
</g>
<defs>
<clipPath id="clip0_2514_1981">
<rect width="18" height="18" fill="white"/>
</clipPath>
</defs>
</svg>
