<svg width="100" height="100" viewBox="0 0 100 100" fill="none" xmlns="http://www.w3.org/2000/svg">
<g id="Empty State/Fun">
<path id="Fill 1" fill-rule="evenodd" clip-rule="evenodd" d="M65.399 33.1181C80.446 33.1181 92.6457 45.3181 92.6457 60.3647C92.6457 75.4114 80.446 87.6114 65.399 87.6114C50.3493 87.6114 38.1523 75.4114 38.1523 60.3647C38.1523 45.3181 50.3493 33.1181 65.399 33.1181ZM81.1827 61.1781C84.1527 60.2148 85.7757 57.0247 84.8123 54.0547C83.8493 51.0881 80.659 49.4614 77.689 50.4281C74.7227 51.3914 73.096 54.5814 74.0623 57.5481C75.0257 60.5181 78.2157 62.1447 81.1827 61.1781ZM78.6457 68.9847C76.8123 66.4581 73.2793 65.8981 70.7527 67.7347C68.2257 69.5681 67.666 73.1047 69.5027 75.6281C71.336 78.1548 74.8723 78.7148 77.3957 76.8781C79.9223 75.0448 80.4823 71.5081 78.6457 68.9847ZM59.7457 45.6047C59.7457 48.7247 62.2757 51.2547 65.399 51.2547C68.519 51.2547 71.049 48.7247 71.049 45.6047C71.049 42.4814 68.519 39.9514 65.399 39.9514C62.2757 39.9514 59.7457 42.4814 59.7457 45.6047ZM61.2957 75.6281C63.129 73.1047 62.5693 69.5681 60.0427 67.7347C57.519 65.8981 53.9823 66.4581 52.149 68.9847C50.3123 71.5081 50.8723 75.0448 53.399 76.8781C55.9257 78.7148 59.4593 78.1548 61.2957 75.6281ZM45.9823 54.0547C45.019 57.0247 46.6423 60.2148 49.6123 61.1781C52.5823 62.1447 55.769 60.5181 56.736 57.5481C57.699 54.5814 56.0757 51.3914 53.106 50.4281C50.1357 49.4614 46.949 51.0881 45.9823 54.0547Z" fill="#8CC8FA"/>
<path id="Fill 3" fill-rule="evenodd" clip-rule="evenodd" d="M82.2002 60.3645C82.2002 69.6438 74.6779 77.1662 65.3982 77.1662C56.1189 77.1662 48.5962 69.6438 48.5962 60.3645C48.5962 51.0852 56.1189 43.5625 65.3982 43.5625C74.6779 43.5625 82.2002 51.0852 82.2002 60.3645Z" fill="#D7ECFD"/>
<path id="Fill 5" fill-rule="evenodd" clip-rule="evenodd" d="M81.0334 60.3645C81.0334 68.9995 74.0334 75.9998 65.398 75.9998C56.7627 75.9998 49.7627 68.9995 49.7627 60.3645C49.7627 51.7292 56.7627 44.7292 65.398 44.7292C74.0334 44.7292 81.0334 51.7292 81.0334 60.3645Z" fill="#14142B"/>
<path id="Fill 7" fill-rule="evenodd" clip-rule="evenodd" d="M81.1826 61.178C78.216 62.1446 75.0256 60.5183 74.0626 57.548C73.096 54.5813 74.7226 51.3913 77.6893 50.428C80.6593 49.4613 83.8493 51.088 84.8126 54.0546C85.7756 57.0246 84.1526 60.2146 81.1826 61.178ZM77.396 76.8783C74.8723 78.7146 71.336 78.155 69.5026 75.6283C67.666 73.1046 68.226 69.568 70.7526 67.7346C73.2793 65.898 76.8126 66.458 78.646 68.9846C80.4823 71.508 79.9226 75.045 77.396 76.8783ZM59.7456 45.6046C59.7456 42.4813 62.2756 39.9513 65.399 39.9513C68.5193 39.9513 71.0493 42.4813 71.0493 45.6046C71.0493 48.7246 68.5193 51.2546 65.399 51.2546C62.2756 51.2546 59.7456 48.7246 59.7456 45.6046ZM61.296 75.6283C59.4593 78.155 55.9256 78.7146 53.3993 76.8783C50.8726 75.045 50.3126 71.508 52.1493 68.9846C53.9826 66.458 57.5193 65.898 60.0426 67.7346C62.5693 69.568 63.1293 73.1046 61.296 75.6283ZM45.9826 54.0546C46.9493 51.088 50.136 49.4613 53.106 50.428C56.076 51.3913 57.6993 54.5813 56.736 57.548C55.7693 60.5183 52.5826 62.1446 49.6126 61.178C46.6426 60.2146 45.0193 57.0246 45.9826 54.0546ZM65.399 34.5846C51.1593 34.5846 39.616 46.1246 39.616 60.365C39.616 74.6016 51.1593 86.1446 65.399 86.1446C79.6356 86.1446 91.1793 74.6016 91.1793 60.365C91.1793 46.1246 79.6356 34.5846 65.399 34.5846Z" fill="#F3FAFF"/>
<path id="Fill 9" fill-rule="evenodd" clip-rule="evenodd" d="M81.2483 45.5826C81.1286 45.5466 81.0393 45.4746 80.9809 45.3666L77.9106 39.9039C77.8756 39.8533 77.8299 39.7743 77.7743 39.6666C77.7183 39.5596 77.6356 39.3699 77.5259 39.0983C77.4163 38.8263 77.3266 38.5543 77.2573 38.2819C77.1879 38.0096 77.1483 37.6936 77.1383 37.3333C77.1279 36.9729 77.1693 36.6383 77.2619 36.3293C77.5663 35.3136 78.0973 34.6079 78.8549 34.2113C79.6129 33.8146 80.5086 33.7713 81.5426 34.0813C81.8286 34.1669 82.1056 34.3043 82.3736 34.4926C82.6416 34.6809 82.8786 34.8979 83.0839 35.1433C83.2896 35.3883 83.4626 35.6126 83.6029 35.8156C83.7433 36.0186 83.8716 36.2283 83.9879 36.4439C84.2039 36.3276 84.4263 36.2233 84.6553 36.1313C84.8839 36.0389 85.1519 35.9466 85.4586 35.8549C85.7653 35.7633 86.0823 35.7126 86.4096 35.7026C86.7373 35.6926 87.0439 35.7306 87.3299 35.8163C88.3639 36.1263 89.0883 36.6553 89.5029 37.4033C89.9173 38.1513 89.9726 39.0329 89.6683 40.0483C89.3623 41.0683 88.5223 41.9483 87.1486 42.6883L81.5903 45.5493C81.4823 45.6076 81.3683 45.6186 81.2483 45.5826Z" fill="#D7ECFD"/>
<path id="Fill 11" fill-rule="evenodd" clip-rule="evenodd" d="M95.4993 31.0224C95.4546 31.0307 95.4136 31.0224 95.3773 30.9967L93.4773 29.7387C93.4573 29.7281 93.4293 29.7101 93.3936 29.6847C93.3576 29.6594 93.2993 29.6117 93.2189 29.5421C93.1383 29.4721 93.0639 29.3991 92.9966 29.3224C92.9289 29.2457 92.8636 29.1501 92.8006 29.0354C92.7376 28.9204 92.6953 28.8054 92.6739 28.6897C92.6039 28.3107 92.6589 27.9941 92.8383 27.7401C93.0176 27.4861 93.2999 27.3234 93.6863 27.2521C93.7929 27.2324 93.9053 27.2307 94.0233 27.2474C94.1413 27.2637 94.2539 27.2947 94.3609 27.3401C94.4683 27.3851 94.5616 27.4291 94.6406 27.4714C94.7196 27.5137 94.7959 27.5604 94.8693 27.6107C94.9199 27.5374 94.9746 27.4667 95.0336 27.3987C95.0919 27.3311 95.1633 27.2567 95.2476 27.1761C95.3316 27.0957 95.4256 27.0267 95.5299 26.9691C95.6343 26.9114 95.7399 26.8727 95.8466 26.8531C96.2326 26.7817 96.5546 26.8327 96.8129 27.0061C97.0713 27.1794 97.2353 27.4554 97.3053 27.8347C97.3756 28.2154 97.2499 28.6394 96.9283 29.1067L95.6043 30.9547C95.5793 30.9917 95.5443 31.0141 95.4993 31.0224Z" fill="#D7ECFD"/>
<path id="Fill 13" fill-rule="evenodd" clip-rule="evenodd" d="M69.9596 60.3645C69.9596 62.8838 67.9172 64.9258 65.3979 64.9258C62.8789 64.9258 60.8369 62.8838 60.8369 60.3645C60.8369 57.8452 62.8789 55.8032 65.3979 55.8032C67.9172 55.8032 69.9596 57.8452 69.9596 60.3645Z" fill="#4B9EF9"/>
<path id="Fill 15" fill-rule="evenodd" clip-rule="evenodd" d="M68.6236 60.3645C68.6236 62.1458 67.1796 63.5898 65.3979 63.5898C63.6166 63.5898 62.1726 62.1458 62.1726 60.3645C62.1726 58.5832 63.6166 57.1392 65.3979 57.1392C67.1796 57.1392 68.6236 58.5832 68.6236 60.3645Z" fill="#14142B"/>
<path id="Fill 17" fill-rule="evenodd" clip-rule="evenodd" d="M29.2412 59.7584C28.8039 61.3344 27.1719 62.257 25.5962 61.8197C24.0205 61.3824 23.0975 59.7504 23.5349 58.1747C23.9722 56.5987 25.6042 55.676 27.1799 56.1134C28.7559 56.5507 29.6785 58.1827 29.2412 59.7584Z" fill="#FFCD41"/>
<path id="Fill 19" fill-rule="evenodd" clip-rule="evenodd" d="M25.1042 58.6101C24.6669 60.1858 23.0349 61.1088 21.4592 60.6714C19.8836 60.2341 18.9606 58.6021 19.3979 57.0264C19.8352 55.4504 21.4672 54.5278 23.0429 54.9651C24.6189 55.4024 25.5416 57.0344 25.1042 58.6101Z" fill="#FFE18D"/>
<path id="Fill 21" fill-rule="evenodd" clip-rule="evenodd" d="M35.6394 59.0124C35.2021 60.5881 33.5701 61.5111 31.9944 61.0738C30.4187 60.6364 29.4957 59.0044 29.9331 57.4288C30.3704 55.8528 32.0024 54.9301 33.5781 55.3674C35.1537 55.8048 36.0767 57.4368 35.6394 59.0124Z" fill="#FFCD41"/>
<path id="Fill 23" fill-rule="evenodd" clip-rule="evenodd" d="M31.5024 57.8642C31.0651 59.4402 29.4331 60.3628 27.8574 59.9255C26.2818 59.4882 25.3588 57.8562 25.7961 56.2805C26.2334 54.7045 27.8654 53.7818 29.4411 54.2192C31.0168 54.6565 31.9398 56.2885 31.5024 57.8642Z" fill="#FFE18D"/>
<path id="Fill 25" fill-rule="evenodd" clip-rule="evenodd" d="M30.1828 52.7483C30.6785 51.1899 32.3435 50.3286 33.9018 50.8243C35.4605 51.3199 36.3218 52.9849 35.8262 54.5433C35.3305 56.1019 33.6652 56.9633 32.1068 56.4676C30.5485 55.9719 29.6872 54.3066 30.1828 52.7483Z" fill="#FFCD41"/>
<path id="Fill 27" fill-rule="evenodd" clip-rule="evenodd" d="M22.6667 52.7483C23.1624 51.1899 24.8274 50.3286 26.386 50.8243C27.9444 51.3199 28.8057 52.9849 28.31 54.5433C27.8144 56.1019 26.1494 56.9633 24.5907 56.4676C23.0324 55.9719 22.171 54.3066 22.6667 52.7483Z" fill="#FFCD41"/>
<path id="Fill 29" fill-rule="evenodd" clip-rule="evenodd" d="M40.1259 48.1262C40.6216 46.5679 42.2866 45.7062 43.8452 46.2019C45.4036 46.6975 46.2649 48.3629 45.7692 49.9212C45.2736 51.4795 43.6086 52.3412 42.0499 51.8452C40.4919 51.3495 39.6302 49.6845 40.1259 48.1262Z" fill="#FFCD41"/>
<path id="Fill 31" fill-rule="evenodd" clip-rule="evenodd" d="M34.2741 54.0497C34.7698 52.4914 36.4351 51.6297 37.9934 52.1257C39.5518 52.621 40.4131 54.2864 39.9174 55.8447C39.4218 57.403 37.7568 58.2647 36.1984 57.769C34.6401 57.273 33.7784 55.608 34.2741 54.0497Z" fill="#FFE18D"/>
<path id="Fill 33" fill-rule="evenodd" clip-rule="evenodd" d="M35.1843 58.1475C35.68 56.5892 37.345 55.7279 38.9036 56.2235C40.462 56.7189 41.3233 58.3842 40.8276 59.9425C40.332 61.5008 38.667 62.3625 37.1083 61.8668C35.55 61.3708 34.6886 59.7059 35.1843 58.1475Z" fill="#FFCD41"/>
<path id="Fill 35" fill-rule="evenodd" clip-rule="evenodd" d="M39.2756 59.4488C39.7713 57.8905 41.4363 57.0291 42.9946 57.5248C44.5533 58.0205 45.4146 59.6855 44.9189 61.2441C44.4233 62.8025 42.7583 63.6641 41.1996 63.1681C39.6413 62.6725 38.7799 61.0075 39.2756 59.4488Z" fill="#FFE18D"/>
<path id="Fill 37" fill-rule="evenodd" clip-rule="evenodd" d="M35.4031 53.5294C33.8318 53.0767 32.9248 51.4357 33.3774 49.8644C33.8304 48.293 35.4711 47.386 37.0424 47.8387C38.6138 48.2917 39.5208 49.9324 39.0681 51.5037C38.6154 53.0754 36.9744 53.982 35.4031 53.5294Z" fill="#FFCD41"/>
<path id="Fill 39" fill-rule="evenodd" clip-rule="evenodd" d="M40.9608 59.678C39.3895 59.2253 38.4825 57.5843 38.9355 56.013C39.3881 54.4416 41.0291 53.5346 42.6005 53.9876C44.1718 54.4403 45.0788 56.081 44.6258 57.6526C44.1731 59.224 42.5321 60.1306 40.9608 59.678Z" fill="#FFCD41"/>
<path id="Fill 41" fill-rule="evenodd" clip-rule="evenodd" d="M44.2393 55.1778C42.668 54.7251 41.761 53.0841 42.2136 51.5128C42.6666 49.9415 44.3073 49.0345 45.8786 49.4871C47.4503 49.9401 48.357 51.5808 47.9043 53.1521C47.4516 54.7238 45.8106 55.6305 44.2393 55.1778Z" fill="#FFCD41"/>
<path id="Fill 43" fill-rule="evenodd" clip-rule="evenodd" d="M45.2733 59.9175C43.702 59.4649 42.795 57.8239 43.248 56.2525C43.7006 54.6812 45.3416 53.7742 46.913 54.2272C48.4843 54.6799 49.3913 56.3205 48.9383 57.8922C48.4856 59.4635 46.8446 60.3702 45.2733 59.9175Z" fill="#FFE18D"/>
<path id="Fill 45" fill-rule="evenodd" clip-rule="evenodd" d="M50.404 54.4478C52.039 54.4702 53.3466 55.8142 53.324 57.4492C53.3016 59.0845 51.958 60.3918 50.3226 60.3695C48.6876 60.3468 47.3803 59.0032 47.4026 57.3682C47.425 55.7328 48.7686 54.4255 50.404 54.4478Z" fill="#FFCD41"/>
<path id="Fill 47" fill-rule="evenodd" clip-rule="evenodd" d="M48.1569 50.1483C49.7919 50.1706 51.0996 51.5146 51.0769 53.1496C51.0546 54.785 49.7109 56.0923 48.0756 56.07C46.4406 56.0473 45.1332 54.7036 45.1556 53.0686C45.1779 51.4333 46.5219 50.126 48.1569 50.1483Z" fill="#FFE18D"/>
<path id="Fill 49" fill-rule="evenodd" clip-rule="evenodd" d="M39.1661 54.8306C37.5947 54.378 36.6877 52.737 37.1404 51.1656C37.5934 49.5943 39.2344 48.6873 40.8054 49.1403C42.3771 49.593 43.2841 51.2336 42.8311 52.8053C42.3784 54.3766 40.7374 55.2833 39.1661 54.8306Z" fill="#FFE18D"/>
<path id="Fill 51" fill-rule="evenodd" clip-rule="evenodd" d="M28.2864 54.8306C26.7151 54.378 25.8081 52.737 26.2607 51.1656C26.7137 49.5943 28.3547 48.6873 29.9257 49.1403C31.4974 49.593 32.4041 51.2336 31.9514 52.8053C31.4987 54.3766 29.8577 55.2833 28.2864 54.8306Z" fill="#FFE18D"/>
<path id="Fill 53" fill-rule="evenodd" clip-rule="evenodd" d="M30.8863 51.8689C29.315 51.4162 28.408 49.7752 28.861 48.2039C29.3137 46.6325 30.9547 45.7255 32.5257 46.1785C34.0973 46.6312 35.0043 48.2719 34.5513 49.8435C34.0987 51.4149 32.4577 52.3215 30.8863 51.8689Z" fill="#FFE18D"/>
<path id="Fill 55" fill-rule="evenodd" clip-rule="evenodd" d="M50.6219 62.5956V62.5986L50.2153 64.4343L45.4253 86.0843L45.2596 86.8313C45.1063 87.5193 44.4933 88.0133 43.7866 88.0133H26.3483C25.6666 88.0133 25.0696 87.5569 24.8943 86.8969L24.6756 86.0873V86.0843L18.9003 64.7436L18.3186 62.5956V62.5923C18.3719 60.5726 19.9759 58.9496 21.9489 58.9496C23.2779 58.9496 24.4346 59.6873 25.0726 60.7819C25.0756 60.7883 25.0789 60.7946 25.0819 60.8006C25.7136 59.6969 26.8769 58.9496 28.2119 58.9496C29.5439 58.9496 30.7073 59.6969 31.3419 60.8006C31.3419 60.8006 31.3419 60.7973 31.3449 60.7973C31.9766 59.6969 33.1366 58.9496 34.4719 58.9496C35.7853 58.9496 36.9356 59.6749 37.5736 60.7539C37.5829 60.7693 37.5926 60.7849 37.6016 60.8006C38.2333 59.6969 39.3966 58.9496 40.7319 58.9496C42.0669 58.9496 43.2299 59.6969 43.8616 60.8006C43.8679 60.7913 43.8743 60.7819 43.8803 60.7726C44.5119 59.6846 45.6689 58.9496 46.9916 58.9496C48.9646 58.9496 50.5686 60.5753 50.6219 62.5956Z" fill="#DEF5D9"/>
<path id="Fill 57" fill-rule="evenodd" clip-rule="evenodd" d="M32.2955 88.0133H28.2525L28.0275 86.0843L25.0725 60.7819C25.0755 60.7883 25.0788 60.7946 25.0818 60.8006C25.7135 59.6969 26.8768 58.9496 28.2118 58.9496C29.5438 58.9496 30.7072 59.6969 31.3418 60.8006C31.3418 60.8006 31.3418 60.7976 31.3448 60.7976L32.2265 86.0843L32.2955 88.0133Z" fill="#0FA069"/>
<path id="Fill 59" fill-rule="evenodd" clip-rule="evenodd" d="M43.8803 60.7727L40.8567 86.0844L40.6253 88.0134H36.2227L36.3197 86.0844L37.5737 60.7537C37.583 60.7694 37.5923 60.785 37.6017 60.8007C38.2333 59.6967 39.3967 58.9497 40.7317 58.9497C42.067 58.9497 43.23 59.6967 43.8617 60.8007C43.868 60.7914 43.874 60.7817 43.8803 60.7727Z" fill="#0FA069"/>
<path id="Fill 61" fill-rule="evenodd" clip-rule="evenodd" d="M45.4252 86.0842L45.2595 86.8312C45.1062 87.5196 44.4935 88.0132 43.7865 88.0132H26.3485C25.6669 88.0132 25.0695 87.5569 24.8945 86.8969L24.6755 86.0872V86.0842H45.4252Z" fill="#BEEBB4"/>
<path id="Fill 63" fill-rule="evenodd" clip-rule="evenodd" d="M29.1062 86.0842C29.1062 87.8112 27.7062 89.2109 25.9792 89.2109C24.2522 89.2109 22.8525 87.8112 22.8525 86.0842C22.8525 84.3572 24.2522 82.9572 25.9792 82.9572C27.7062 82.9572 29.1062 84.3572 29.1062 86.0842Z" fill="#FFCD41"/>
<path id="Fill 65" fill-rule="evenodd" clip-rule="evenodd" d="M24.5723 86.0842C24.5723 87.8112 23.1723 89.2109 21.4456 89.2109C19.7186 89.2109 18.3186 87.8112 18.3186 86.0842C18.3186 84.3572 19.7186 82.9572 21.4456 82.9572C23.1723 82.9572 24.5723 84.3572 24.5723 86.0842Z" fill="#FFE18D"/>
<path id="Fill 67" fill-rule="evenodd" clip-rule="evenodd" d="M61.8339 37.799L54.8603 51.6761C54.6413 52.1121 54.1079 52.2884 53.6723 52.0694C53.2366 51.8504 53.0569 51.3157 53.2763 50.88L60.2583 36.986C60.4813 36.563 61.0103 36.3947 61.4406 36.611C61.6586 36.7204 61.8123 36.9097 61.8829 37.1237C61.9053 37.1907 61.9206 37.265 61.9233 37.3364C61.9369 37.49 61.9086 37.651 61.8339 37.799Z" fill="#D32F2F"/>
<path id="Fill 69" fill-rule="evenodd" clip-rule="evenodd" d="M61.8339 37.7991L61.4915 38.4808L59.6965 38.1038L60.2582 36.9861L61.9232 37.3364C61.9369 37.4901 61.9085 37.6511 61.8339 37.7991Z" fill="#FFEBEE"/>
<path id="Fill 71" fill-rule="evenodd" clip-rule="evenodd" d="M61.0241 39.411L60.4621 40.5287L58.6677 40.1517L59.2291 39.034L61.0241 39.411Z" fill="#FFEBEE"/>
<path id="Fill 73" fill-rule="evenodd" clip-rule="evenodd" d="M59.9946 41.4589L59.433 42.5766L57.637 42.2022L58.1983 41.0846L59.9946 41.4589Z" fill="#FFEBEE"/>
<path id="Fill 75" fill-rule="evenodd" clip-rule="evenodd" d="M58.9642 43.5096L58.4025 44.6273L56.6082 44.2503L57.1695 43.1326L58.9642 43.5096Z" fill="#FFEBEE"/>
<path id="Fill 77" fill-rule="evenodd" clip-rule="evenodd" d="M57.9352 45.5575L57.3732 46.6752L55.5789 46.2982L56.1402 45.1805L57.9352 45.5575Z" fill="#FFEBEE"/>
<path id="Fill 79" fill-rule="evenodd" clip-rule="evenodd" d="M56.9058 47.6055L56.3441 48.7232L54.5481 48.3489L55.1098 47.2312L56.9058 47.6055Z" fill="#FFEBEE"/>
<path id="Fill 81" fill-rule="evenodd" clip-rule="evenodd" d="M55.8754 49.6562L55.3137 50.7738L53.519 50.3968L54.0807 49.2792L55.8754 49.6562Z" fill="#8CC8FA"/>
<path id="Fill 83" fill-rule="evenodd" clip-rule="evenodd" d="M62.4844 88.3821H48.2957C47.4487 88.3821 46.7494 87.7194 46.704 86.8737L44.7527 50.5474H66.3277L64.075 86.8867C64.023 87.7271 63.3264 88.3821 62.4844 88.3821Z" fill="#4B9EF9"/>
<path id="Fill 85" fill-rule="evenodd" clip-rule="evenodd" d="M67.5001 50.5474H43.5798C43.2491 50.5474 42.9805 50.2791 42.9805 49.9481C42.9805 49.6171 43.2491 49.3488 43.5798 49.3488H67.5001C67.8311 49.3488 68.0995 49.6171 68.0995 49.9481C68.0995 50.2791 67.8311 50.5474 67.5001 50.5474Z" fill="#F3FAFF"/>
<path id="Fill 87" fill-rule="evenodd" clip-rule="evenodd" d="M65.7807 49.3489H45.3C44.969 49.3489 44.7007 49.0805 44.7007 48.7495C44.7007 48.4185 44.969 48.1502 45.3 48.1502H65.7807C66.1114 48.1502 66.38 48.4185 66.38 48.7495C66.38 49.0805 66.1114 49.3489 65.7807 49.3489Z" fill="#8CC8FA"/>
<path id="Fill 89" fill-rule="evenodd" clip-rule="evenodd" d="M49.9468 88.382H53.2821V50.5473H49.9468V88.382Z" fill="white" fill-opacity="0.5"/>
<path id="Fill 91" fill-rule="evenodd" clip-rule="evenodd" d="M57.5554 88.382H60.8908V50.5473H57.5554V88.382Z" fill="white" fill-opacity="0.5"/>
<path id="Fill 92" fill-rule="evenodd" clip-rule="evenodd" d="M62.4134 65.9169C63.8614 68.7219 61.9578 72.5839 58.1618 74.5436C54.3654 76.5029 50.1148 75.8176 48.6668 73.0126C47.2191 70.2076 49.1224 66.3452 52.9188 64.3859C56.7148 62.4266 60.9658 63.1119 62.4134 65.9169Z" fill="#4B9EF9"/>
<path id="Fill 93" fill-rule="evenodd" clip-rule="evenodd" d="M61.5879 66.343C62.8615 68.811 61.1869 72.2093 57.8465 73.9333C54.5065 75.6573 50.7665 75.0543 49.4925 72.5863C48.2189 70.1183 49.8935 66.7203 53.2335 64.996C56.5735 63.272 60.3139 63.8753 61.5879 66.343Z" fill="#D7ECFD"/>
<path id="Fill 94" fill-rule="evenodd" clip-rule="evenodd" d="M51.8512 21.5408C50.3496 20.8128 49.1322 19.6064 48.3909 18.1114L47.7876 16.8948L47.3102 17.9268C46.5659 19.5354 45.2779 20.8304 43.6726 21.5824L42.5942 22.0884L43.7072 22.6478C45.0456 23.3204 46.1529 24.3771 46.8876 25.6828L47.7876 27.2818L48.4789 25.9741C49.1676 24.6721 50.2232 23.6004 51.5149 22.8921L52.9809 22.0884L51.8512 21.5408Z" fill="#F3FAFF"/>
<path id="Fill 95" fill-rule="evenodd" clip-rule="evenodd" d="M55.8643 12.447C55.3966 12.2203 55.0173 11.8443 54.7866 11.3787L54.5986 11L54.45 11.3213C54.2183 11.8223 53.817 12.2257 53.317 12.46L52.981 12.6177L53.3276 12.7917C53.7446 13.0013 54.0896 13.3303 54.3183 13.737L54.5986 14.235L54.814 13.828C55.0283 13.4223 55.3573 13.0883 55.7596 12.868L56.2163 12.6177L55.8643 12.447Z" fill="#F3FAFF"/>
<path id="Fill 96" fill-rule="evenodd" clip-rule="evenodd" d="M43.8597 16.3803C43.392 16.1536 43.0127 15.7779 42.782 15.3123L42.594 14.9333L42.4453 15.2546C42.2137 15.7556 41.8123 16.1589 41.3123 16.3933L40.9763 16.5509L41.3233 16.7253C41.74 16.9346 42.085 17.2636 42.3137 17.6703L42.594 18.1683L42.8093 17.7613C43.024 17.3556 43.3527 17.0216 43.755 16.8013L44.2117 16.5509L43.8597 16.3803Z" fill="#F3FAFF"/>
<g id="Stroke 97">
<path fill-rule="evenodd" clip-rule="evenodd" d="M44.309 26.523C40.9764 30.6837 43.5677 33.7087 45.9094 34.5847L44.309 26.523Z" fill="#F3FAFF"/>
<path d="M44.309 26.523C40.9764 30.6837 43.5677 33.7087 45.9094 34.5847" stroke="#F3FAFF"/>
</g>
<path id="Fill 98" fill-rule="evenodd" clip-rule="evenodd" d="M8.9555 50.5899C8.1995 49.6239 7.78584 48.4339 7.77984 47.2069L7.77484 46.2086L7.12617 46.7356C6.1145 47.5569 4.8455 47.9952 3.5425 47.9729L2.6665 47.9579L3.2205 48.6872C3.88684 49.5642 4.27617 50.6199 4.33917 51.7196L4.41617 53.0662L5.2955 52.4266C6.17117 51.7896 7.2145 51.4232 8.2965 51.3736L9.52417 51.3169L8.9555 50.5899Z" fill="#8CC8FA"/>
<path id="Fill 99" fill-rule="evenodd" clip-rule="evenodd" d="M14.5456 45.8839C14.3099 45.5829 14.1812 45.2122 14.1792 44.8302L14.1779 44.5192L13.9759 44.6832C13.6606 44.9392 13.2656 45.0755 12.8596 45.0689L12.5869 45.0642L12.7596 45.2912C12.9669 45.5645 13.0882 45.8932 13.1079 46.2355L13.1316 46.6549L13.4056 46.4559C13.6782 46.2575 14.0036 46.1432 14.3402 46.1279L14.7226 46.1102L14.5456 45.8839Z" fill="#8CC8FA"/>
<path id="Fill 100" fill-rule="evenodd" clip-rule="evenodd" d="M5.34807 44.5989C5.1124 44.2979 4.98374 43.9272 4.98174 43.5452L4.98007 43.2342L4.7784 43.3982C4.46307 43.6542 4.06807 43.7909 3.66207 43.7839L3.3894 43.7792L3.56207 44.0062C3.7694 44.2795 3.89074 44.6082 3.9104 44.9505L3.93407 45.3702L4.20807 45.1709C4.48074 44.9725 4.80607 44.8585 5.14274 44.8429L5.52507 44.8252L5.34807 44.5989Z" fill="#8CC8FA"/>
<path id="Fill 101" fill-rule="evenodd" clip-rule="evenodd" d="M21.2349 52.6069L20.9159 52.7038C20.5753 51.5822 19.6113 50.4709 18.4606 49.8729C17.7699 49.5135 16.6846 49.1722 15.4189 49.5859L15.3149 49.2692C16.4036 48.9139 17.5426 49.0195 18.6143 49.5769C19.8406 50.2145 20.8693 51.4039 21.2349 52.6069Z" fill="#8CC8FA"/>
<path id="Fill 102" fill-rule="evenodd" clip-rule="evenodd" d="M21.134 42.7408L21.322 43.0161C20.3543 43.6775 19.583 44.9301 19.357 46.2071C19.2213 46.9738 19.221 48.1115 19.995 49.1948L19.724 49.3888C19.0586 48.4568 18.8183 47.3385 19.029 46.1491C19.2696 44.7881 20.096 43.4501 21.134 42.7408Z" fill="#8CC8FA"/>
</g>
</svg>
