<svg width="48" height="49" viewBox="0 0 48 49" fill="none" xmlns="http://www.w3.org/2000/svg">
<g id="Line Darkmode/Upload">
<path id="Vector" d="M29.9642 9.45636L29.0986 9.95709C29.2773 10.2661 29.6072 10.4564 29.9642 10.4564V9.45636ZM4.05132 24.8162C4.22596 25.3402 4.79228 25.6233 5.31623 25.4487C5.84017 25.274 6.12333 24.7077 5.94868 24.1838L4.05132 24.8162ZM41.1056 24.0528C40.8586 24.5468 41.0588 25.1474 41.5528 25.3944C42.0468 25.6414 42.6474 25.4412 42.8944 24.9472L41.1056 24.0528ZM30.4734 30.5583C30.8719 30.9407 31.5049 30.9277 31.8873 30.5292C32.2697 30.1307 32.2566 29.4976 31.8581 29.1153L30.4734 30.5583ZM22.9991 22.0002L23.6915 21.2787C23.3046 20.9074 22.6936 20.9074 22.3067 21.2787L22.9991 22.0002ZM14.1401 29.1153C13.7416 29.4976 13.7285 30.1307 14.1109 30.5292C14.4933 30.9277 15.1263 30.9407 15.5248 30.5583L14.1401 29.1153ZM23.999 24.0614C23.999 23.5091 23.5513 23.0614 22.999 23.0614C22.4467 23.0614 21.999 23.5091 21.999 24.0614H23.999ZM21.999 46.0614C21.999 46.6137 22.4467 47.0614 22.999 47.0614C23.5513 47.0614 23.999 46.6137 23.999 46.0614H21.999ZM17.9127 3.5C22.691 3.5 26.8644 6.09486 29.0986 9.95709L30.8298 8.95564C28.2528 4.50082 23.4338 1.5 17.9127 1.5V3.5ZM5 16.4127C5 9.97491 10.8144 3.5 17.9127 3.5V1.5C9.64351 1.5 3 8.93782 3 16.4127H5ZM5.94868 24.1838C5.00632 21.3567 5 18.5092 5 16.4127H3C3 18.4908 2.99368 21.6433 4.05132 24.8162L5.94868 24.1838ZM42 18.5C42 20.5252 41.9854 22.2931 41.1056 24.0528L42.8944 24.9472C44.0146 22.7069 44 20.4748 44 18.5H42ZM31.8255 10.4564C34.4822 10.4564 37.0576 11.3916 38.9544 12.8882C40.8523 14.3858 42 16.3803 42 18.5H44C44 15.6197 42.4419 13.0924 40.1932 11.3181C37.9434 9.54296 34.9316 8.45636 31.8255 8.45636V10.4564ZM29.9642 10.4564H31.8255V8.45636H29.9642V10.4564ZM31.8581 29.1153L23.6915 21.2787L22.3067 22.7217L30.4734 30.5583L31.8581 29.1153ZM22.3067 21.2787L14.1401 29.1153L15.5248 30.5583L23.6915 22.7217L22.3067 21.2787ZM21.999 24.0614V46.0614H23.999V24.0614H21.999Z" fill="#4B9EF9"/>
</g>
</svg>
