<svg width="15" height="13" viewBox="0 0 15 13" fill="none" xmlns="http://www.w3.org/2000/svg">
<path d="M3.20415 11.3369C2.98167 11.5779 2.99678 11.9538 3.23777 12.1759C3.35222 12.2812 3.49651 12.3334 3.64042 12.3334C3.80058 12.3334 3.9596 12.2692 4.07669 12.1426L3.20415 11.3369ZM14.4071 6.23307L13.655 7.15246C13.9088 7.35984 14.2832 7.32244 14.4905 7.06861C14.5808 6.95831 14.625 6.82535 14.625 6.69315C14.625 6.52128 14.5506 6.35055 14.4071 6.23307ZM2.45286 6.98966C2.45286 7.31753 2.71877 7.58345 3.04664 7.58345C3.3745 7.58345 3.6136 7.34359 3.63815 7.03839C3.63966 7.02252 3.64042 7.00666 3.64042 6.99042V6.98966H2.45286ZM7.20311 6.98966V6.99042C7.20311 6.99495 7.20311 6.99948 7.20349 7.00402C7.21104 7.32508 7.47356 7.58345 7.79689 7.58345C8.12022 7.58345 8.39067 7.31753 8.39067 6.98966H7.20311ZM2.15597 0.458374V1.64595H12.8437V0.458374H2.15597ZM13.4374 2.23974V5.43985L12.0074 4.26965C11.278 3.67284 10.2098 3.74763 9.5703 4.44L8.0647 6.07103C7.91512 5.8459 7.7187 5.62493 7.48905 5.427C6.98214 4.98922 6.25578 4.61451 5.42176 4.61451C4.58775 4.61451 3.86139 4.98922 3.35448 5.427C3.10292 5.6442 2.89064 5.88896 2.73615 6.13638L1.56219 4.9624V6.64177L4.66972 9.74934L3.38017 11.1462H4.99645L10.4428 5.24569C10.6563 5.0149 11.0121 4.98997 11.2553 5.18866L13.4374 6.97455V10.5524H14.625V2.23974H13.4374ZM5.47578 8.87603L3.63815 7.03839C3.63966 7.02252 3.64042 7.00666 3.64042 6.99042C3.64118 6.99042 3.64986 6.91601 3.73863 6.77247C3.82362 6.6346 3.9562 6.47595 4.13033 6.32562C4.48312 6.02117 4.94432 5.80209 5.42176 5.80209C5.89921 5.80209 6.36041 6.02117 6.7132 6.32562C6.88695 6.47595 7.01954 6.6346 7.1049 6.77247C7.19329 6.91601 7.20235 6.99042 7.20311 6.99042C7.20311 6.99495 7.20311 6.99948 7.20349 7.00402L5.47578 8.87603ZM2.15597 11.1462V12.3334H12.8437V11.1462H2.15597ZM0.375 2.23974V10.5524H1.56219V2.23974H0.375ZM1.56219 11.1462V10.5524H0.375C0.375 11.536 1.17237 12.3334 2.15597 12.3334V11.1462H1.56219ZM13.4374 10.5524V11.1462H12.8437V12.3334C13.8272 12.3334 14.625 11.536 14.625 10.5524H13.4374ZM14.625 2.23974C14.625 1.25576 13.8272 0.458374 12.8437 0.458374V1.64595H13.4374V2.23974H14.625ZM0.375 2.23974H1.56219V1.64595H2.15597V0.458374C1.17237 0.458374 0.375 1.25576 0.375 2.23974ZM3.58943 6.98966L3.63815 7.03839C3.63966 7.02252 3.64042 7.00666 3.64042 6.99042V6.98966H3.58943ZM9.5703 4.44L8.0647 6.07103L7.21671 6.98966H7.20311V6.99042C7.20311 6.99495 7.20311 6.99948 7.20349 7.00402L5.47578 8.87603L4.66972 9.74934L3.38017 11.1462L3.20415 11.3369L4.07669 12.1426L4.99645 11.1462L10.4428 5.24569L9.5703 4.44ZM13.4374 5.43985L12.0074 4.26965L11.2553 5.18866L13.4374 6.97455L13.655 7.15246L14.4071 6.23307L13.4374 5.43985ZM9.5703 4.44L10.4428 5.24569C10.6563 5.0149 11.0121 4.98997 11.2553 5.18866L12.0074 4.26965C11.278 3.67284 10.2098 3.74763 9.5703 4.44ZM5.47578 8.87603L3.63815 7.03839L3.58943 6.98966L2.73615 6.13638L1.38843 4.78864L0.548753 5.62833L5.15018 10.2298L5.98986 9.39012L5.47578 8.87603ZM3.35448 5.427C3.10292 5.6442 2.89064 5.88896 2.73615 6.13638C2.73313 6.14053 2.73048 6.14506 2.72784 6.14922C2.58091 6.38756 2.45286 6.68446 2.45286 6.98966H3.58943L3.63815 7.03839C3.63966 7.02252 3.64042 7.00666 3.64042 6.99042C3.64118 6.99042 3.64986 6.91601 3.73863 6.77247C3.82362 6.6346 3.9562 6.47595 4.13033 6.32562C4.48312 6.02117 4.94432 5.80209 5.42176 5.80209V4.61451C4.58737 4.61451 3.86139 4.98922 3.35448 5.427ZM8.11531 6.14922C8.09907 6.12316 8.08245 6.09709 8.0647 6.07103C7.91512 5.8459 7.7187 5.62493 7.48905 5.427C6.98214 4.98922 6.25578 4.61451 5.42176 4.61451V5.80209C5.89921 5.80209 6.36041 6.02117 6.7132 6.32562C6.88695 6.47595 7.01954 6.6346 7.1049 6.77247C7.19329 6.91601 7.20235 6.99042 7.20311 6.99042V6.98966H8.39067C8.39067 6.68446 8.26262 6.38756 8.11531 6.14922Z" fill="#14142B"/>
</svg>
