<svg width="120" height="120" viewBox="0 0 120 120" fill="none" xmlns="http://www.w3.org/2000/svg">
    <path d="M60 105c-24.836 0-45-20.165-45-45 0-24.836 20.164-45 45-45 24.835 0 45 20.164 45 45 0 24.835-20.165 45-45 45z" fill="#5CB85B"/>
    <path d="M60 105c-24.836 0-45-20.165-45-45 0-24.836 20.164-45 45-45 24.835 0 45 20.164 45 45 0 24.835-20.165 45-45 45z" stroke="#5CB85B" stroke-width="6" stroke-linecap="round" stroke-linejoin="round"/>
    <path fill-rule="evenodd" clip-rule="evenodd" d="M77.399 47.344a3.86 3.86 0 0 1 0 5.46L57.546 72.656a3.86 3.86 0 0 1-5.46 0l-9.484-9.485a3.86 3.86 0 0 1 5.459-5.46l6.755 6.757L71.94 47.344a3.86 3.86 0 0 1 5.46 0z" fill="#fff"/>
</svg>
