<svg width="18" height="18" viewBox="0 0 18 18" fill="none" xmlns="http://www.w3.org/2000/svg">
<path d="M12.1974 6.90519C12.2684 6.90519 12.3324 6.91229 12.3963 6.91229L3.23763 3.05413C2.76868 2.86229 2.25 3.20334 2.25 3.71492V6.35098C2.25 6.67782 2.47026 6.96203 2.79 7.04018L7.93421 8.32624L2.79 9.61229C2.47026 9.69045 2.25 9.97466 2.25 10.3015V12.9376C2.25 13.4491 2.76868 13.7902 3.23763 13.5912L7.22368 11.9144C7.22368 11.9002 7.22368 11.8931 7.22368 11.8789C7.22368 9.13624 9.45474 6.90519 12.1974 6.90519Z" fill="#0049B2"/>
<path d="M12.1974 8.32617C10.2364 8.32617 8.64478 9.91775 8.64478 11.8788C8.64478 13.8399 10.2364 15.4314 12.1974 15.4314C14.1585 15.4314 15.75 13.8399 15.75 11.8788C15.75 9.91775 14.1585 8.32617 12.1974 8.32617ZM13.114 13.2999L11.9416 12.1275C11.8777 12.0635 11.835 11.9712 11.835 11.8788V10.1025C11.835 9.90354 11.9914 9.74722 12.1903 9.74722C12.3892 9.74722 12.5456 9.90354 12.5456 10.1025V11.7296L13.6114 12.7954C13.7535 12.9375 13.7535 13.1578 13.6114 13.2999C13.4764 13.442 13.2561 13.442 13.114 13.2999Z" fill="#0049B2"/>
</svg>
