<svg width="18" height="19" viewBox="0 0 18 19" fill="none" xmlns="http://www.w3.org/2000/svg">
<mask id="mask0_346_19808" style="mask-type:alpha" maskUnits="userSpaceOnUse" x="0" y="0" width="18" height="19">
<rect y="0.5" width="18" height="18" fill="#D9D9D9"/>
</mask>
<g mask="url(#mask0_346_19808)">
<path d="M12 10.625C12.325 10.625 12.5938 10.5187 12.8062 10.3062C13.0188 10.0938 13.125 9.825 13.125 9.5C13.125 9.175 13.0188 8.90625 12.8062 8.69375C12.5938 8.48125 12.325 8.375 12 8.375C11.675 8.375 11.4062 8.48125 11.1938 8.69375C10.9812 8.90625 10.875 9.175 10.875 9.5C10.875 9.825 10.9812 10.0938 11.1938 10.3062C11.4062 10.5187 11.675 10.625 12 10.625ZM3.75 16.25C3.3375 16.25 2.98438 16.1031 2.69063 15.8094C2.39688 15.5156 2.25 15.1625 2.25 14.75V4.25C2.25 3.8375 2.39688 3.48438 2.69063 3.19063C2.98438 2.89688 3.3375 2.75 3.75 2.75H14.25C14.6625 2.75 15.0156 2.89688 15.3094 3.19063C15.6031 3.48438 15.75 3.8375 15.75 4.25V6.125H14.25V4.25H3.75V14.75H14.25V12.875H15.75V14.75C15.75 15.1625 15.6031 15.5156 15.3094 15.8094C15.0156 16.1031 14.6625 16.25 14.25 16.25H3.75ZM9.75 13.25C9.3375 13.25 8.98438 13.1031 8.69063 12.8094C8.39688 12.5156 8.25 12.1625 8.25 11.75V7.25C8.25 6.8375 8.39688 6.48438 8.69063 6.19063C8.98438 5.89688 9.3375 5.75 9.75 5.75H15C15.4125 5.75 15.7656 5.89688 16.0594 6.19063C16.3531 6.48438 16.5 6.8375 16.5 7.25V11.75C16.5 12.1625 16.3531 12.5156 16.0594 12.8094C15.7656 13.1031 15.4125 13.25 15 13.25H9.75ZM15 11.75V7.25H9.75V11.75H15Z" fill="#1C1B1F"/>
</g>
</svg>
