<svg width="12" height="14" viewBox="0 0 12 14" fill="currentColor" xmlns="http://www.w3.org/2000/svg">
<path d="M3.41448 10.5526C3.41448 10.8469 3.65306 11.0855 3.94736 11.0855H8.21053C8.50483 11.0855 8.74341 10.8469 8.74341 10.5526V10.5526C8.74341 10.2583 8.50483 10.0198 8.21053 10.0198H3.94736C3.65306 10.0198 3.41448 10.2583 3.41448 10.5526V10.5526ZM3.41448 7.71053C3.41448 8.00483 3.65306 8.24341 3.94736 8.24341H8.21053C8.50483 8.24341 8.74341 8.00483 8.74341 7.71053V7.71053C8.74341 7.41623 8.50483 7.17765 8.21053 7.17765H3.94736C3.65306 7.17765 3.41448 7.41623 3.41448 7.71053V7.71053ZM2.03442 13.75C1.67551 13.75 1.37171 13.6257 1.12303 13.377C0.874342 13.1283 0.75 12.8245 0.75 12.4656V1.53442C0.75 1.17551 0.874342 0.871712 1.12303 0.623027C1.37171 0.374342 1.67551 0.25 2.03442 0.25H7.67765L11.4079 3.98024V12.4656C11.4079 12.8245 11.2835 13.1283 11.0349 13.377C10.7862 13.6257 10.4824 13.75 10.1235 13.75H2.03442ZM8.14475 4.51313C7.59247 4.51313 7.14475 4.06542 7.14475 3.51313V1.31577H2.03442C1.97976 1.31577 1.92965 1.33855 1.88409 1.38409C1.83855 1.42965 1.81577 1.47976 1.81577 1.53442V12.4656C1.81577 12.5202 1.83855 12.5704 1.88409 12.6159C1.92965 12.6615 1.97976 12.6842 2.03442 12.6842H10.1235C10.1781 12.6842 10.2282 12.6615 10.2738 12.6159C10.3193 12.5704 10.3421 12.5202 10.3421 12.4656V4.51313H8.14475Z" fill="currentColor"/>
</svg>
