<svg width="9" height="18" viewBox="0 0 9 18" fill="none" xmlns="http://www.w3.org/2000/svg">
<path d="M8.46437 5.83247H5.58122V3.97031C5.56639 3.85864 5.57639 3.74508 5.61054 3.63773C5.64468 3.53038 5.70208 3.4319 5.7787 3.34932C5.85531 3.26674 5.94924 3.2021 6.05374 3.16002C6.15823 3.11794 6.27075 3.09945 6.38321 3.10589H8.41781V0.0237974L5.61609 0.0132187C5.10776 -0.0309449 4.59591 0.0358619 4.11594 0.209015C3.63598 0.382168 3.19938 0.657533 2.83633 1.01606C2.47328 1.37458 2.19245 1.80771 2.01328 2.28546C1.83412 2.76322 1.76091 3.27419 1.79869 3.78304V5.83247H0V9.00661H1.79869V18H5.58122V9.01296H8.13424L8.46437 5.83247Z" fill="#226DED"/>
</svg>
