<svg width="18" height="18" viewBox="0 0 18 18" fill="none" xmlns="http://www.w3.org/2000/svg">
<g id="group">
<mask id="mask0_98_2527" style="mask-type:alpha" maskUnits="userSpaceOnUse" x="0" y="0" width="18" height="18">
<rect id="Bounding box" width="18" height="18" fill="#74A269"/>
</mask>
<g mask="url(#mask0_98_2527)">
<path id="group_2" d="M1.34863 14.4808V12.8135C1.34863 12.4269 1.4484 12.082 1.64792 11.7786C1.84743 11.4753 2.11388 11.2393 2.44727 11.0706C3.16003 10.7219 3.87675 10.4532 4.59741 10.2642C5.31808 10.0753 6.11015 9.98082 6.97361 9.98082C7.83708 9.98082 8.62914 10.0753 9.3498 10.2642C10.0705 10.4532 10.7872 10.7219 11.5 11.0706C11.8333 11.2393 12.0998 11.4753 12.2993 11.7786C12.4988 12.082 12.5986 12.4269 12.5986 12.8135V14.4808H1.34863ZM14.0986 14.4808V12.7212C14.0986 12.2289 13.978 11.7597 13.737 11.3136C13.4959 10.8676 13.1539 10.4848 12.7111 10.1654C13.214 10.2404 13.6914 10.3565 14.1433 10.5138C14.5952 10.671 15.0265 10.8568 15.437 11.0712C15.8245 11.2779 16.1238 11.5216 16.3349 11.8021C16.5459 12.0827 16.6514 12.3891 16.6514 12.7212V14.4808H14.0986ZM6.97361 8.76923C6.25175 8.76923 5.63379 8.51221 5.11973 7.99816C4.60566 7.48409 4.34863 6.86613 4.34863 6.14427C4.34863 5.42239 4.60566 4.80443 5.11973 4.29038C5.63379 3.77632 6.25175 3.51929 6.97361 3.51929C7.69548 3.51929 8.31344 3.77632 8.8275 4.29038C9.34155 4.80443 9.59858 5.42239 9.59858 6.14427C9.59858 6.86613 9.34155 7.48409 8.8275 7.99816C8.31344 8.51221 7.69548 8.76923 6.97361 8.76923ZM13.4495 6.14427C13.4495 6.86613 13.1925 7.48409 12.6784 7.99816C12.1644 8.51221 11.5464 8.76923 10.8245 8.76923C10.7399 8.76923 10.6322 8.75962 10.5015 8.74039C10.3707 8.72117 10.263 8.70002 10.1784 8.67694C10.4742 8.32136 10.7015 7.92687 10.8603 7.4935C11.0192 7.06012 11.0986 6.61008 11.0986 6.14337C11.0986 5.67667 11.0176 5.22841 10.8556 4.7986C10.6935 4.3688 10.4678 3.97313 10.1784 3.61159C10.2861 3.57313 10.3938 3.54813 10.5015 3.53659C10.6092 3.52506 10.7168 3.51929 10.8245 3.51929C11.5464 3.51929 12.1644 3.77632 12.6784 4.29038C13.1925 4.80443 13.4495 5.42239 13.4495 6.14427ZM2.47361 13.3558H11.4736V12.8135C11.4736 12.6568 11.4344 12.5173 11.3561 12.3952C11.2777 12.2731 11.1534 12.1664 10.9832 12.075C10.3659 11.7567 9.73034 11.5156 9.0765 11.3517C8.42265 11.1878 7.72169 11.1058 6.97361 11.1058C6.22554 11.1058 5.52458 11.1878 4.87073 11.3517C4.21689 11.5156 3.58131 11.7567 2.964 12.075C2.79381 12.1664 2.66953 12.2731 2.59116 12.3952C2.5128 12.5173 2.47361 12.6568 2.47361 12.8135V13.3558ZM6.97361 7.64427C7.38611 7.64427 7.73924 7.49739 8.03299 7.20364C8.32674 6.90989 8.47361 6.55677 8.47361 6.14427C8.47361 5.73177 8.32674 5.37864 8.03299 5.08489C7.73924 4.79114 7.38611 4.64427 6.97361 4.64427C6.56111 4.64427 6.20799 4.79114 5.91424 5.08489C5.62049 5.37864 5.47361 5.73177 5.47361 6.14427C5.47361 6.55677 5.62049 6.90989 5.91424 7.20364C6.20799 7.49739 6.56111 7.64427 6.97361 7.64427Z" fill="#74A269"/>
</g>
</g>
</svg>
