<svg width="18" height="14" viewBox="0 0 18 14" fill="none" xmlns="http://www.w3.org/2000/svg">
<path d="M17.4976 2.2969C17.3312 1.37847 16.5383 0.709625 15.6183 0.500816C14.2414 0.208809 11.6933 0 8.93638 0C6.18108 0 3.59217 0.208809 2.2137 0.500816C1.29527 0.709625 0.500816 1.33605 0.334421 2.2969C0.166395 3.34095 0 4.80261 0 6.68189C0 8.56117 0.166395 10.0228 0.375204 11.0669C0.54323 11.9853 1.33605 12.6542 2.25449 12.863C3.71615 13.155 6.22186 13.3638 8.97879 13.3638C11.7357 13.3638 14.2414 13.155 15.7031 12.863C16.6215 12.6542 17.4144 12.0277 17.5824 11.0669C17.7488 10.0228 17.9576 8.51876 18 6.68189C17.9152 4.80261 17.7064 3.34095 17.4976 2.2969ZM6.68189 9.60522V3.75856L11.7765 6.68189L6.68189 9.60522Z" fill="#FE0000"/>
</svg>
