<svg width="302" height="218" viewBox="0 0 302 218" fill="none" xmlns="http://www.w3.org/2000/svg">
<path d="M296.503 8.50527L301.177 0.405273H291.83L296.503 8.50527L301.177 0.405273H291.831L296.503 8.50527Z" fill="#D7ECFD"/>
<path d="M184.285 49.8594H299.057C299.64 49.8594 300.2 50.091 300.612 50.5034C301.025 50.9158 301.257 51.4751 301.257 52.0584C301.257 52.0584 301.257 52.0585 301.257 52.0586V143.805C301.257 144.389 301.025 144.948 300.613 145.361C300.2 145.774 299.64 146.005 299.057 146.005H184.285C183.996 146.005 183.71 145.948 183.443 145.838C183.176 145.727 182.934 145.565 182.729 145.361C182.525 145.157 182.363 144.914 182.252 144.647C182.142 144.38 182.085 144.094 182.085 143.805V52.0594C182.085 51.7704 182.142 51.4844 182.252 51.2175C182.363 50.9506 182.525 50.708 182.729 50.5037C182.934 50.2994 183.176 50.1374 183.443 50.0268C183.71 49.9163 183.996 49.8594 184.285 49.8594Z" fill="white" stroke="#D7ECFD"/>
<path d="M214.817 60.3311C214.25 60.3311 213.706 60.5565 213.304 60.9577C212.903 61.3589 212.678 61.9031 212.678 62.4706C212.678 63.038 212.903 63.5822 213.304 63.9834C213.706 64.3846 214.25 64.61 214.817 64.61H268.456C268.74 64.6187 269.022 64.5709 269.287 64.4695C269.552 64.3681 269.794 64.2151 269.999 64.0193C270.204 63.8235 270.368 63.5889 270.482 63.3291C270.596 63.0694 270.657 62.7896 270.661 62.506C270.666 62.2225 270.614 61.9409 270.509 61.6775C270.404 61.4142 270.247 61.1743 270.049 60.972C269.85 60.7696 269.613 60.6087 269.352 60.4987C269.09 60.3887 268.81 60.3317 268.526 60.3311H214.817Z" fill="#D7ECFD"/>
<path d="M214.817 77.707C214.25 77.707 213.706 77.9324 213.304 78.3337C212.903 78.7349 212.678 79.2791 212.678 79.8466C212.678 80.414 212.903 80.9582 213.304 81.3594C213.706 81.7606 214.25 81.9861 214.817 81.9861H268.456C268.74 81.9947 269.022 81.9469 269.287 81.8455C269.552 81.7441 269.794 81.591 269.999 81.3953C270.204 81.1995 270.368 80.9649 270.482 80.7051C270.596 80.4454 270.657 80.1656 270.661 79.882C270.666 79.5985 270.614 79.3169 270.509 79.0535C270.404 78.7902 270.247 78.5503 270.049 78.348C269.85 78.1456 269.613 77.9847 269.352 77.8747C269.09 77.7647 268.81 77.7077 268.526 77.707H214.817Z" fill="#D7ECFD"/>
<path d="M214.817 95.083C214.25 95.083 213.706 95.3084 213.304 95.7097C212.903 96.1109 212.678 96.6551 212.678 97.2225C212.678 97.79 212.903 98.3341 213.304 98.7354C213.706 99.1366 214.25 99.362 214.817 99.362H268.456C268.74 99.3707 269.022 99.3229 269.287 99.2215C269.552 99.12 269.794 98.967 269.999 98.7712C270.204 98.5755 270.368 98.3409 270.482 98.0811C270.596 97.8213 270.657 97.5416 270.661 97.258C270.666 96.9745 270.614 96.6929 270.509 96.4295C270.404 96.1661 270.247 95.9263 270.049 95.7239C269.85 95.5216 269.613 95.3607 269.352 95.2507C269.09 95.1406 268.81 95.0836 268.526 95.083H214.817Z" fill="#D7ECFD"/>
<path d="M214.817 112.46C214.25 112.46 213.706 112.685 213.304 113.087C212.903 113.488 212.678 114.032 212.678 114.599C212.678 115.167 212.903 115.711 213.304 116.112C213.706 116.514 214.25 116.739 214.817 116.739H268.456C268.74 116.748 269.022 116.7 269.287 116.598C269.552 116.497 269.794 116.344 269.999 116.148C270.204 115.952 270.368 115.718 270.482 115.458C270.596 115.198 270.657 114.919 270.661 114.635C270.666 114.351 270.614 114.07 270.509 113.806C270.404 113.543 270.247 113.303 270.049 113.101C269.85 112.899 269.613 112.738 269.352 112.628C269.09 112.518 268.81 112.461 268.526 112.46H214.817Z" fill="#D7ECFD"/>
<path d="M214.817 129.836C214.25 129.836 213.706 130.061 213.304 130.463C212.903 130.864 212.678 131.408 212.678 131.975C212.678 132.543 212.903 133.087 213.304 133.488C213.706 133.89 214.25 134.115 214.817 134.115H268.456C268.74 134.124 269.022 134.076 269.287 133.974C269.552 133.873 269.794 133.72 269.999 133.524C270.204 133.328 270.368 133.094 270.482 132.834C270.596 132.574 270.657 132.294 270.661 132.011C270.666 131.727 270.614 131.446 270.509 131.182C270.404 130.919 270.247 130.679 270.049 130.477C269.85 130.274 269.613 130.114 269.352 130.004C269.09 129.894 268.81 129.837 268.526 129.836H214.817Z" fill="#D7ECFD"/>
<path d="M301.541 13.4046H0.508515C0.442998 13.4081 0.377474 13.3978 0.315938 13.3743C0.254402 13.3508 0.198131 13.3145 0.150561 13.2678C0.102991 13.2211 0.0651149 13.1649 0.0392298 13.1026C0.0133447 13.0402 0 12.9731 0 12.9053C0 12.8374 0.0133447 12.7703 0.0392298 12.708C0.0651149 12.6457 0.102991 12.5894 0.150561 12.5427C0.198131 12.496 0.254402 12.4598 0.315938 12.4363C0.377474 12.4128 0.442998 12.4024 0.508515 12.4059H301.541C301.665 12.4125 301.782 12.468 301.867 12.561C301.952 12.6539 302 12.7771 302 12.9053C302 13.0334 301.952 13.1567 301.867 13.2496C301.782 13.3425 301.665 13.398 301.541 13.4046Z" fill="#D9DBE9"/>
<path d="M9.58075 8.31287C11.8633 8.31287 13.7138 6.46247 13.7138 4.17987C13.7138 1.89728 11.8633 0.046875 9.58075 0.046875C7.29816 0.046875 5.44775 1.89728 5.44775 4.17987C5.44775 6.46247 7.29816 8.31287 9.58075 8.31287Z" fill="#FFEBEE"/>
<path d="M23.8581 8.31287C26.1407 8.31287 27.9911 6.46247 27.9911 4.17987C27.9911 1.89728 26.1407 0.046875 23.8581 0.046875C21.5755 0.046875 19.7251 1.89728 19.7251 4.17987C19.7251 6.46247 21.5755 8.31287 23.8581 8.31287Z" fill="#FFF2D9"/>
<path d="M38.134 8.31287C40.4166 8.31287 42.267 6.46247 42.267 4.17987C42.267 1.89728 40.4166 0.046875 38.134 0.046875C35.8514 0.046875 34.001 1.89728 34.001 4.17987C34.001 6.46247 35.8514 8.31287 38.134 8.31287Z" fill="#DEF5D9"/>
<path d="M282.687 9.04628H252.255C251.121 9.02902 250.039 8.56623 249.242 7.75786C248.446 6.94948 248 5.86038 248 4.72577C248 3.59115 248.446 2.50207 249.242 1.6937C250.039 0.885321 251.121 0.422534 252.255 0.405273H282.687C283.822 0.422534 284.904 0.885321 285.7 1.6937C286.496 2.50207 286.943 3.59115 286.943 4.72577C286.943 5.86038 286.496 6.94948 285.7 7.75786C284.904 8.56623 283.822 9.02902 282.687 9.04628Z" fill="#D7ECFD"/>
<path d="M52.207 120.02L55.595 88.9292L60.959 67.0862L50.968 63.9922L45.702 88.5732L47.443 118.818C46.5226 119.133 45.7286 119.736 45.1793 120.539C44.63 121.341 44.3549 122.3 44.3949 123.272C44.435 124.244 44.7882 125.176 45.4018 125.931C46.0153 126.686 46.8564 127.222 47.7995 127.459C48.7427 127.697 49.7373 127.623 50.6351 127.249C51.533 126.875 52.2859 126.221 52.7815 125.384C53.2772 124.548 53.489 123.573 53.3855 122.606C53.282 121.639 52.8686 120.731 52.207 120.018V120.02Z" fill="#FFC6B5"/>
<path d="M43.8187 123.445C44.5187 113.136 49.4697 103.195 58.2097 93.583L81.5957 95.022L81.9557 113.011L100.665 212.311L94.1887 212.671L63.6067 148.271L49.2157 212.313L42.7397 212.673L43.8187 123.445Z" fill="#14142B"/>
<path d="M67.5651 51.4232C73.7247 51.4232 78.7181 46.4298 78.7181 40.2702C78.7181 34.1106 73.7247 29.1172 67.5651 29.1172C61.4055 29.1172 56.4121 34.1106 56.4121 40.2702C56.4121 46.4298 61.4055 51.4232 67.5651 51.4232Z" fill="#FFC6B5"/>
<path d="M53.834 85.3338C50.2912 78.491 48.8954 70.7386 49.829 63.0898C50.0549 61.2694 50.7937 59.5508 51.9593 58.1343C53.1248 56.7179 54.6691 55.662 56.412 55.0898L69.364 55.4498L78.718 65.8839C83.197 71.3619 85.99 77.0078 83.755 83.1538L81.596 96.8258L57.4899 95.3868L53.834 85.3338Z" fill="#8CC8FA"/>
<path d="M38.1349 70.4036C43.3549 68.1496 43.4519 63.4606 41.4279 57.7646C38.7469 52.3836 40.6969 47.3096 45.4279 42.4196C46.5557 41.5096 47.4291 40.3235 47.9635 38.9765C48.4979 37.6295 48.6751 36.1673 48.4779 34.7316C48.3044 33.4256 48.4351 32.0971 48.8597 30.8499C49.2844 29.6026 49.9915 28.4704 50.9259 27.5416C52.7689 25.7696 61.3529 24.6716 64.0389 24.5736L67.5499 24.4456C67.7279 24.439 67.9063 24.437 68.0849 24.4396C69.4836 24.4589 70.8648 24.7536 72.1496 25.3069C73.4343 25.8602 74.5975 26.6612 75.5726 27.6641C76.5477 28.6671 77.3156 29.8523 77.8325 31.1522C78.3493 32.452 78.605 33.8409 78.5849 35.2396C72.9649 33.8806 72.2849 35.4856 69.2029 39.0796C66.9762 41.7762 65.8523 45.2155 66.0569 48.7066C66.2569 53.4286 63.0239 61.0606 60.1279 68.4066C63.5419 74.3226 59.3139 79.0486 54.4489 83.2646H54.1909C47.4659 83.2626 36.4389 76.9106 38.1349 70.4036Z" fill="#14142B"/>
<g style="mix-blend-mode:multiply">
<path d="M67.3848 45.1265C68.1795 45.1265 68.8238 43.9185 68.8238 42.4285C68.8238 40.9384 68.1795 39.7305 67.3848 39.7305C66.5901 39.7305 65.9458 40.9384 65.9458 42.4285C65.9458 43.9185 66.5901 45.1265 67.3848 45.1265Z" fill="#FFC6B5"/>
</g>
<path d="M88.5747 125.245L80.5117 95.0209L77.6337 72.7139L67.1997 73.4339L71.1577 98.2589L83.6937 125.839C82.9489 126.464 82.4261 127.314 82.2034 128.26C81.9808 129.207 82.0701 130.201 82.4582 131.092C82.8463 131.984 83.5122 132.727 84.3568 133.209C85.2013 133.691 86.1792 133.888 87.1445 133.769C88.1098 133.65 89.0108 133.223 89.7132 132.55C90.4156 131.877 90.8817 130.995 91.042 130.036C91.2023 129.077 91.0481 128.091 90.6026 127.227C90.1571 126.362 89.444 125.665 88.5697 125.239L88.5747 125.245Z" fill="#FFC6B5"/>
<path d="M63.3799 63.0055C63.3799 62.8462 63.3822 62.6872 63.3869 62.5285C63.4332 61.5541 63.671 60.5983 64.0867 59.7158C64.5024 58.8333 65.0878 58.0413 65.8096 57.3851C66.5314 56.7288 67.3754 56.2212 68.2934 55.8911C69.2114 55.5611 70.1855 55.4151 71.1599 55.4615C73.0888 55.5533 74.9062 56.3926 76.2268 57.8017C77.5474 59.2107 78.2673 61.0787 78.2339 63.0095L79.4339 76.6715C75.0269 73.3445 70.5879 73.6145 66.1219 77.0315L63.3799 63.0055Z" fill="#8CC8FA"/>
<path d="M93.6719 211.888H102.743C104.276 211.888 105.746 212.497 106.83 213.581C107.914 214.664 108.524 216.135 108.524 217.668V217.856H93.6719V211.888Z" fill="#14142B"/>
<path d="M42.5767 211.888H51.6477C53.1807 211.888 54.651 212.497 55.7351 213.581C56.8192 214.664 57.4284 216.135 57.4287 217.668V217.856H42.5767V211.888Z" fill="#14142B"/>
<path d="M29.9851 203.521L31.3611 200.131C33.0327 199.681 34.7284 199.324 36.4401 199.064L36.3271 200.712L37.0271 198.976C39.1471 198.676 40.5701 198.611 40.5701 198.611C38.6977 202.912 36.1517 206.886 33.0281 210.384L28.3371 210.556L31.8241 211.556C31.2471 212.083 30.6376 212.573 29.9991 213.023C23.5481 217.541 16.8421 219.096 15.0221 216.497C13.2021 213.898 16.9561 208.129 23.4081 203.611C25.4947 202.223 27.782 201.162 30.1901 200.466L29.9851 203.521Z" fill="#DEF5D9"/>
<path d="M17.8128 187.971L16.0678 182.963C17.4563 180.872 18.9617 178.862 20.5768 176.94L22.0308 178.84L21.1368 176.276C23.1578 173.92 24.6448 172.488 24.6448 172.488C24.6448 172.488 28.1038 182.702 27.6978 192.525L22.7538 197.201L27.5128 194.958C27.3887 196.084 27.194 197.2 26.9298 198.301C24.2298 209.394 18.4138 217.501 13.9448 216.415C9.47577 215.329 8.04476 205.451 10.7448 194.358C11.6883 190.849 13.1641 187.506 15.1208 184.444L17.8128 187.971Z" fill="#DEF5D9"/>
<path d="M144.267 217.952H1.12488C1.07394 217.954 1.02299 217.947 0.975143 217.929C0.927297 217.911 0.883545 217.884 0.846558 217.849C0.809571 217.814 0.780121 217.771 0.759995 217.725C0.739868 217.678 0.729492 217.627 0.729492 217.576C0.729492 217.525 0.739868 217.475 0.759995 217.428C0.780121 217.381 0.809571 217.339 0.846558 217.304C0.883545 217.268 0.927297 217.241 0.975143 217.223C1.02299 217.206 1.07394 217.198 1.12488 217.201H144.267C144.318 217.198 144.369 217.206 144.417 217.223C144.464 217.241 144.508 217.268 144.545 217.304C144.582 217.339 144.612 217.381 144.632 217.428C144.652 217.475 144.662 217.525 144.662 217.576C144.662 217.627 144.652 217.678 144.632 217.725C144.612 217.771 144.582 217.814 144.545 217.849C144.508 217.884 144.464 217.911 144.417 217.929C144.369 217.947 144.318 217.954 144.267 217.952Z" fill="#D9DBE9"/>
</svg>
