<svg width="24" height="24" viewBox="0 0 24 24" fill="none" xmlns="http://www.w3.org/2000/svg">
<path fill-rule="evenodd" clip-rule="evenodd" d="M18.3763 5.62372C16.9281 4.17559 14.5802 4.1756 13.1321 5.62372L7.05076 11.7051L7.34768 15.5651L13.8538 9.05891L14.9411 10.1462L12.1834 12.9039H16.3402L18.3763 10.8679C19.8244 9.41973 19.8244 7.07185 18.3763 5.62372ZM14.8026 14.4415H10.6457L8.43497 16.6523L12.2949 16.9492L14.8026 14.4415ZM7.00295 18.0843L12.8821 18.5366L19.4635 11.9551C21.5121 9.90651 21.5121 6.58506 19.4635 4.53645C17.4149 2.48785 14.0935 2.48785 12.0449 4.53646L5.46342 11.1179L5.91567 16.9971L3 19.9127L4.08727 21L7.00295 18.0843Z" fill="#14142B"/>
</svg>
