<svg width="18" height="15" viewBox="0 0 18 15" fill="currentColor" xmlns="http://www.w3.org/2000/svg">
<path fill-rule="evenodd" clip-rule="evenodd" d="M5.47826 1.56522C4.61382 1.56522 3.91304 2.26599 3.91304 3.13043C3.91304 3.99488 4.61382 4.69565 5.47826 4.69565C6.34271 4.69565 7.04348 3.99488 7.04348 3.13043C7.04348 2.26599 6.34271 1.56522 5.47826 1.56522ZM2.34783 3.13043C2.34783 1.40154 3.74937 0 5.47826 0C7.20715 0 8.6087 1.40154 8.6087 3.13043C8.6087 4.85933 7.20715 6.26087 5.47826 6.26087C3.74937 6.26087 2.34783 4.85933 2.34783 3.13043ZM12.913 3.91304C12.2647 3.91304 11.7391 4.43862 11.7391 5.08696C11.7391 5.73529 12.2647 6.26087 12.913 6.26087C13.5614 6.26087 14.087 5.73529 14.087 5.08696C14.087 4.43862 13.5614 3.91304 12.913 3.91304ZM10.1739 5.08696C10.1739 3.57418 11.4003 2.34783 12.913 2.34783C14.4258 2.34783 15.6522 3.57418 15.6522 5.08696C15.6522 6.59974 14.4258 7.82609 12.913 7.82609C11.4003 7.82609 10.1739 6.59974 10.1739 5.08696ZM0 12.5217C0 9.49618 2.4527 7.04348 5.47826 7.04348C7.38448 7.04348 9.0633 8.01707 10.0446 9.49412C10.861 8.93582 11.8492 8.6087 12.913 8.6087C15.7225 8.6087 18 10.8862 18 13.6957V14.8696H0V12.5217ZM10.9547 12.3803C10.942 11.8796 10.8622 11.3955 10.7238 10.9368C11.3252 10.4587 12.0854 10.1739 12.913 10.1739C14.7258 10.1739 16.2186 11.5435 16.4133 13.3043H10.9565V12.5217C10.9565 12.4745 10.9559 12.4273 10.9547 12.3803ZM9.3913 12.5217C9.3913 12.4848 9.39079 12.4481 9.38978 12.4114C9.33137 10.3013 7.60248 8.6087 5.47826 8.6087C3.31715 8.6087 1.56522 10.3606 1.56522 12.5217V13.3043H9.3913V12.5217Z" fill="currentColor"/>
</svg>
