<svg width="36" height="36" viewBox="0 0 36 36" fill="none" xmlns="http://www.w3.org/2000/svg">
<rect width="36" height="36" rx="5" fill="#4B9EF9"/>
<g clip-path="url(#clip0_21_4040)">
<path d="M16.3988 19.4512V19.6012H16.5488H19.4512H19.6012V19.4512V16.5488V16.3988H19.4512H16.5488H16.3988V16.5488V19.4512ZM14.1593 27.4326V27.2826H14.0093H11.1907C10.4965 27.2826 9.91448 27.0438 9.43535 26.5647C8.95621 26.0855 8.71741 25.5035 8.71741 24.8093V21.9907V21.8407H8.56741H7C6.53056 21.8407 6.15 21.4601 6.15 20.9907V20.814C6.15 20.3446 6.53056 19.964 7 19.964H8.56741H8.71741V19.814V16.186V16.036H8.56741H7C6.53056 16.036 6.15 15.6554 6.15 15.186V15.0093C6.15 14.5399 6.53056 14.1593 7 14.1593H8.56741H8.71741V14.0093V11.1907C8.71741 10.4965 8.95621 9.91448 9.43535 9.43535C9.91448 8.95621 10.4965 8.71741 11.1907 8.71741H14.0093H14.1593V8.56741V7C14.1593 6.53056 14.5399 6.15 15.0093 6.15H15.186C15.6554 6.15 16.036 6.53056 16.036 7V8.56741V8.71741H16.186H19.814H19.964V8.56741V7C19.964 6.53056 20.3446 6.15 20.814 6.15H20.9907C21.4601 6.15 21.8407 6.53056 21.8407 7V8.56741V8.71741H21.9907H24.8093C25.5035 8.71741 26.0855 8.95621 26.5647 9.43535C27.0438 9.91448 27.2826 10.4965 27.2826 11.1907V14.0093V14.1593H27.4326H29C29.4694 14.1593 29.85 14.5399 29.85 15.0093V15.186C29.85 15.6554 29.4694 16.036 29 16.036H27.4326H27.2826V16.186V19.814V19.964H27.4326H29C29.4694 19.964 29.85 20.3446 29.85 20.814V20.9907C29.85 21.4601 29.4694 21.8407 29 21.8407H27.4326H27.2826V21.9907V24.8093C27.2826 25.5035 27.0438 26.0855 26.5647 26.5647C26.0855 27.0438 25.5035 27.2826 24.8093 27.2826H21.9907H21.8407V27.4326V29C21.8407 29.4694 21.4601 29.85 20.9907 29.85H20.814C20.3446 29.85 19.964 29.4694 19.964 29V27.4326V27.2826H19.814H16.186H16.036V27.4326V29C16.036 29.4694 15.6554 29.85 15.186 29.85H15.0093C14.5399 29.85 14.1593 29.4694 14.1593 29V27.4326ZM25.2224 25.2224L25.2224 25.2224C25.3382 25.1066 25.4059 24.9678 25.4059 24.8093V11.1907C25.4059 11.0322 25.3382 10.8934 25.2224 10.7776L25.2224 10.7776C25.1066 10.6618 24.9678 10.5941 24.8093 10.5941H11.1907C11.0322 10.5941 10.8934 10.6618 10.7776 10.7776L10.7776 10.7776C10.6618 10.8934 10.5941 11.0322 10.5941 11.1907V24.8093C10.5941 24.9678 10.6618 25.1066 10.7776 25.2224L10.7776 25.2224C10.8934 25.3382 11.0322 25.4059 11.1907 25.4059H24.8093C24.9678 25.4059 25.1066 25.3382 25.2224 25.2224ZM14.5221 21.4779V14.5221H21.4779V21.4779H14.5221Z" fill="white" stroke="#4B9EF9" stroke-width="0.3"/>
</g>
<defs>
<clipPath id="clip0_21_4040">
<rect width="24" height="24" fill="white" transform="translate(6 6)"/>
</clipPath>
</defs>
</svg>
