<svg width="28" height="28" viewBox="0 0 28 28" fill="curentColor" xmlns="http://www.w3.org/2000/svg">
<path d="M18.966 13.9999L19.2866 13.6849C20.029 13.0043 20.254 12.0256 19.2978 11.0695L17.138 8.90963C16.418 8.18968 15.3831 8.0097 14.5338 8.90963L13.9938 9.44959V9.08961C13.977 7.77347 13.1895 7.23351 12.1602 7.25038H9.08923C8.07681 7.25038 7.25 7.79034 7.25 9.08961V17.3746C7.25 19.2363 8.76301 20.7493 10.6247 20.7493H18.9097C20.2202 20.7774 20.7489 19.9225 20.7489 18.9101V15.8447C20.7489 14.8492 19.9559 14.0392 18.9716 14.0055L18.966 13.9999ZM13.9995 11.1876L15.4056 9.78143H15.4112L15.8387 9.34834L16.2493 9.75894H16.2549C16.2549 9.75894 16.2662 9.77581 16.2718 9.78143L18.4316 11.9413C18.4316 11.9413 18.4429 11.9525 18.4485 11.9581H18.4541L18.741 12.2506L18.8591 12.3687H18.8647L18.426 12.8131H18.4204L13.9938 17.1552V11.1876H13.9995ZM12.7733 17.3746C12.7733 18.5614 11.8115 19.5232 10.6247 19.5232C9.43795 19.5232 8.47615 18.5614 8.47615 17.3746V8.47654H12.7733V17.3746ZM19.5228 19.5232H13.3358L17.7173 15.226H19.5228V19.5232Z" fill="currentColor"/>
</svg>
