<svg width="250" height="153" viewBox="0 0 250 153" fill="none" xmlns="http://www.w3.org/2000/svg">
<path d="M248.454 30.3443C248.454 30.3443 245.443 28.5073 242.115 35.6679C238.787 42.8284 237.573 46.9382 237.573 46.9382C237.573 46.9382 236.676 48.4438 235.632 47.5181C234.587 46.5924 233.11 43.9162 231.396 44.4637C229.631 45.0364 229.116 47.0498 229.563 49.9638C230.009 52.8777 230.748 59.2963 230.816 59.8762C230.884 60.4561 230.582 61.3169 229.768 60.7838C228.954 60.2508 224.199 55.3414 221.995 57.7366C219.791 60.1319 222.355 68.0452 222.636 68.9025C222.917 69.7597 222.741 70.1523 222.33 70.3865C221.919 70.6206 220.479 68.8124 219.088 67.4653C217.698 66.1182 215.807 64.8071 214.654 66.2947C213.502 67.7823 213.329 73.7975 219.391 83.3353L222.488 87.5711L227.736 87.0884C238.902 85.3739 243.318 81.2894 243.678 79.4416C244.039 77.5938 241.82 77.0464 239.882 76.8735C237.944 76.7006 235.632 76.7978 235.538 76.3368C235.444 75.8757 235.625 75.5047 236.457 75.1338C237.289 74.7628 244.935 71.4922 245.292 68.2541C245.649 65.016 238.809 64.6847 237.883 64.4109C236.957 64.1372 237.404 63.352 237.883 63.0242C238.362 62.6964 243.686 59.0261 246.167 57.4449C248.649 55.8637 249.794 54.16 249.074 52.4527C248.354 50.8066 245.375 51.4549 243.988 51.2748C242.601 51.0948 243.149 49.4307 243.149 49.4307C243.149 49.4307 245.443 45.8288 248.642 38.5998C251.84 31.3708 248.386 30.3155 248.386 30.3155" fill="#F5F5F5"/>
<path d="M245.472 36.7521C245.472 36.7521 245.454 36.8061 245.411 36.907C245.368 37.0078 245.303 37.1663 245.224 37.3572L244.482 39.0681C243.833 40.5557 242.882 42.7024 241.697 45.3498C239.327 50.6446 235.992 57.9276 232.282 65.9598C228.572 73.992 225.208 81.275 222.809 86.559L219.974 92.8155L219.204 94.5156C219.114 94.7029 219.045 94.8505 218.998 94.955C218.976 95.0055 218.95 95.0548 218.923 95.1027C218.938 95.0499 218.958 94.9981 218.98 94.9478C219.027 94.8397 219.088 94.692 219.168 94.5011C219.34 94.1013 219.593 93.525 219.91 92.7867C220.558 91.2991 221.509 89.1559 222.694 86.5086C225.064 81.2138 228.399 73.9308 232.109 65.895C235.819 57.8591 239.172 50.5833 241.571 45.303C242.767 42.67 243.732 40.5341 244.406 39.0501L245.18 37.35C245.267 37.1591 245.335 37.015 245.386 36.907C245.436 36.7989 245.472 36.7521 245.472 36.7521Z" fill="#E0E0E0"/>
<path d="M233.323 48.296C233.388 48.4091 233.437 48.5302 233.471 48.6562C233.557 48.8831 233.669 49.2181 233.806 49.6323C234.072 50.4644 234.414 51.617 234.767 52.8992L235.657 56.1842C235.765 56.5768 235.855 56.9045 235.931 57.1783C235.974 57.2941 236.002 57.4152 236.014 57.5385C235.949 57.4254 235.899 57.3043 235.866 57.1783C235.779 56.9514 235.668 56.6164 235.535 56.1986C235.275 55.3665 234.947 54.2067 234.594 52.9244L233.683 49.6467L233.406 48.6562C233.365 48.5397 233.337 48.4188 233.323 48.296Z" fill="#E0E0E0"/>
<path d="M236.5 57.6142C236.5 57.5674 238.834 56.7569 241.748 55.8133C244.662 54.8696 247.039 54.124 247.053 54.1708C247.068 54.2176 244.719 55.028 241.805 55.9717C238.891 56.9154 236.514 57.661 236.5 57.6142Z" fill="#E0E0E0"/>
<path d="M230.243 69.6949C230.372 69.6708 230.502 69.66 230.632 69.6625L231.684 69.6265C232.57 69.5941 233.798 69.5472 235.149 69.4428C236.5 69.3383 237.721 69.2159 238.607 69.115L239.652 68.9961C239.78 68.9722 239.91 68.965 240.041 68.9745C239.924 69.0169 239.803 69.0471 239.68 69.0646C239.435 69.1114 239.079 69.1726 238.639 69.2375C237.761 69.3707 236.536 69.522 235.182 69.6229C233.827 69.7237 232.595 69.7525 231.702 69.7489C231.259 69.7489 230.899 69.7489 230.65 69.7309C230.514 69.7376 230.377 69.7255 230.243 69.6949Z" fill="#E0E0E0"/>
<path d="M225.518 61.9004C225.601 61.986 225.674 62.0816 225.734 62.1849C225.864 62.3722 226.051 62.6496 226.274 62.9954C226.724 63.6833 227.333 64.6414 227.996 65.704C228.659 66.7665 229.253 67.7355 229.674 68.4414C229.887 68.8016 230.053 69.0826 230.164 69.2843C230.232 69.3834 230.287 69.4912 230.326 69.6048C230.24 69.5212 230.166 69.4253 230.107 69.3203C229.977 69.1294 229.793 68.8556 229.566 68.5099C229.12 67.8219 228.511 66.8638 227.845 65.7976C227.178 64.7315 226.588 63.7662 226.166 63.0602C225.957 62.7 225.806 62.4191 225.676 62.221C225.611 62.1209 225.558 62.0132 225.518 61.9004Z" fill="#E0E0E0"/>
<path d="M218.638 71.8633C218.743 71.9731 218.836 72.0939 218.916 72.2235L219.611 73.2608C220.187 74.1397 220.979 75.3607 221.844 76.715C222.708 78.0693 223.483 79.3048 224.034 80.2017L224.682 81.2822C224.766 81.41 224.838 81.545 224.898 81.6856C224.794 81.5755 224.701 81.4548 224.621 81.3254L223.929 80.2881C223.349 79.4056 222.557 78.1846 221.693 76.8303C220.828 75.476 220.057 74.2405 219.503 73.3437C219.243 72.9186 219.027 72.5584 218.858 72.2631C218.771 72.1379 218.697 72.0039 218.638 71.8633Z" fill="#E0E0E0"/>
<path d="M224.815 81.4047C224.975 81.3683 225.138 81.349 225.302 81.3471L226.634 81.2534C227.758 81.1742 229.314 81.0589 231.025 80.8932C232.736 80.7275 234.267 80.533 235.401 80.3782L236.723 80.2017C236.885 80.1726 237.049 80.1581 237.213 80.1585C237.058 80.2117 236.897 80.2492 236.734 80.2701C236.424 80.3313 235.974 80.4106 235.419 80.5006C234.303 80.6843 232.758 80.9004 231.043 81.0733C229.329 81.2462 227.769 81.3435 226.642 81.3903C226.076 81.4119 225.622 81.4263 225.305 81.4263C225.142 81.433 224.978 81.4258 224.815 81.4047Z" fill="#E0E0E0"/>
<path d="M33.9658 65.8229C42.369 60.2147 44.4112 49.6144 44.2419 40.037C44.2095 38.4377 44.4148 36.7592 43.6656 35.3545C42.9165 33.9498 41.1443 32.9557 39.6783 33.6076C38.4717 34.1479 37.9242 35.5202 37.2363 36.6512C36.3085 38.1623 34.9741 39.3818 33.3859 40.1702C32.3485 40.6817 31.0698 40.9843 30.0613 40.4152C28.6782 39.6372 28.5413 37.7318 28.5773 36.1433L28.7718 27.2683C28.8043 25.6798 28.8367 24.059 28.3576 22.5426C27.8786 21.0262 26.798 19.6143 25.2744 19.1676C23.7508 18.721 21.8454 19.5638 21.496 21.1126C21.3519 21.7574 21.4744 22.4309 21.4204 23.0901C21.3664 23.7492 21.0602 24.4732 20.4047 24.6461C19.7491 24.819 19.126 24.3616 18.6505 23.8933C17.0153 22.2617 15.9203 20.1834 14.901 18.1303C13.8816 16.0772 12.8875 13.9413 11.4107 12.1728C9.93397 10.4042 7.86648 8.98509 5.56488 8.8194C3.26327 8.65372 0.788775 10.026 0.162047 12.2484C-0.464681 14.4708 0.831998 16.7688 2.24394 18.6021C4.34639 21.318 6.82965 23.7163 9.617 25.7231C10.1213 26.0833 10.6615 26.4759 10.8488 27.0666C11.1802 28.1471 10.1501 29.1665 9.08392 29.5014C7.87729 29.8616 6.5626 29.7356 5.32355 29.8616C4.0845 29.9877 2.69778 30.5136 2.20432 31.6626C1.52356 33.2762 2.87067 34.9979 4.20697 36.1325C6.88408 38.4051 9.92935 40.2043 13.2117 41.4525C14.3895 41.8991 15.6286 42.2917 16.5686 43.1274C17.5087 43.963 18.067 45.3966 17.4727 46.506C16.8784 47.6153 15.3908 47.9467 14.1554 47.709C12.9199 47.4713 11.8214 46.7833 10.6471 46.3259C8.44639 45.4686 5.6045 45.5767 4.14573 47.4424C3.19484 48.6671 3.08678 50.3924 3.53341 51.8764C3.98005 53.3604 4.91654 54.6462 5.91066 55.8385C9.39008 59.995 13.878 63.3664 18.9783 65.2034C24.0786 67.0403 28.8223 67.5806 33.9478 65.8157" fill="#EBEBEB"/>
<path d="M33.3212 66.0066C31.9705 61.1621 28.2785 49.7621 26.0634 44.3953L24.4173 40.4332C23.8734 39.1329 23.3367 37.847 22.728 36.6188C21.5583 34.2677 20.2597 31.983 18.838 29.7752C17.4909 27.6501 16.1366 25.6835 14.8759 23.8501C13.6152 22.0167 12.3546 20.3419 11.1732 18.8543C9.31011 16.4971 7.26259 14.2918 5.04995 12.2592C4.26834 11.5388 3.64521 10.9986 3.21658 10.6384L2.70512 10.1989C2.59346 10.1089 2.53223 10.0657 2.53223 10.0657C2.53223 10.0657 2.58265 10.1197 2.68711 10.217L3.16256 10.642C3.57677 11.0022 4.1927 11.5641 4.9635 12.2952C7.14291 14.3518 9.1656 16.5683 11.0147 18.9263C12.1889 20.4175 13.4063 22.1032 14.685 23.9329C15.9637 25.7627 17.3036 27.7365 18.6471 29.8581C20.0599 32.0666 21.3501 34.3513 22.5119 36.7016C23.1134 37.9263 23.6501 39.223 24.194 40.5088C24.7379 41.7947 25.2745 43.1346 25.84 44.4709C28.0408 49.8305 31.7435 61.2197 33.105 66.0498" fill="#E0E0E0"/>
<path d="M22.6521 36.5935C22.7266 36.3735 22.7797 36.1467 22.8106 35.9164C22.897 35.477 23.0051 34.8358 23.1275 34.0506C23.3761 32.473 23.6462 30.283 23.938 27.8662C24.2297 25.4493 24.5359 23.2702 24.8168 21.6997C24.9537 20.9145 25.0726 20.2806 25.177 19.8448C25.2333 19.6202 25.2707 19.3912 25.2887 19.1604C25.2005 19.3744 25.133 19.5963 25.087 19.8231C24.9681 20.2554 24.824 20.9037 24.6656 21.6709C24.3162 23.2341 23.992 25.4205 23.7003 27.8482C23.4085 30.2758 23.1564 32.4117 22.9619 34.0398C22.8646 34.7962 22.7818 35.4265 22.7169 35.9128C22.6761 36.1375 22.6544 36.3652 22.6521 36.5935Z" fill="#E0E0E0"/>
<path d="M2.02783 32.4693C2.09662 32.4913 2.16816 32.5034 2.24034 32.5053L2.85266 32.5666C3.38574 32.6206 4.15295 32.6926 5.09664 32.8115C6.98763 33.0348 9.5918 33.4418 12.4445 34.0145C15.2972 34.5872 17.8473 35.232 19.6843 35.747C20.6028 35.9992 21.3412 36.2225 21.8454 36.3738L22.4361 36.5467C22.503 36.5726 22.5735 36.5884 22.645 36.5935C22.5851 36.5539 22.5195 36.5236 22.4505 36.5034C22.2921 36.4422 22.0903 36.3702 21.8742 36.2873C21.3736 36.1072 20.6388 35.8551 19.7131 35.567C17.8869 35.0087 15.3296 34.3423 12.4733 33.766C9.61701 33.1897 7.02725 32.8259 5.11465 32.6422C4.16735 32.545 3.39295 32.4981 2.85987 32.4765H2.24395C2.17249 32.4651 2.09989 32.4627 2.02783 32.4693Z" fill="#E0E0E0"/>
<path d="M31.3113 59.4116C31.3662 59.3336 31.4133 59.2503 31.4518 59.163L31.8119 58.4427C32.1217 57.8015 32.5323 56.865 33.0654 55.7016C34.0955 53.3784 35.4174 50.1223 36.833 46.5132C38.2485 42.9041 39.5416 39.6264 40.5249 37.2852L41.7063 34.5189C41.836 34.2091 41.9441 33.9606 42.0269 33.7661C42.0677 33.6793 42.1003 33.5889 42.1241 33.496C42.0659 33.5718 42.0187 33.6555 41.9837 33.7445L41.6235 34.4649C41.3137 35.106 40.8851 36.0425 40.3736 37.2023C39.3435 39.5291 38.018 42.7852 36.6061 46.3943C35.1941 50.0034 33.8938 53.2667 32.9033 55.608L31.7219 58.3742L31.4049 59.127C31.3622 59.2177 31.3307 59.3132 31.3113 59.4116Z" fill="#E0E0E0"/>
<path d="M3.96191 50.2592C4.04808 50.3042 4.13859 50.3404 4.23206 50.3672L5.02807 50.6374L7.96001 51.6207C10.4345 52.4491 13.8383 53.6341 17.5951 54.9524C21.3518 56.2707 24.77 57.4305 27.2589 58.2193C28.5016 58.6119 29.5137 58.9217 30.2125 59.1234L31.0229 59.3503C31.1164 59.382 31.213 59.4038 31.311 59.4152C31.2236 59.3692 31.1319 59.3318 31.0373 59.3035L30.2413 59.0334L27.3093 58.0572C24.8349 57.2288 21.4311 56.0438 17.6743 54.7255C13.9175 53.4072 10.5029 52.2438 8.01404 51.4586C6.76778 51.066 5.75925 50.7562 5.05689 50.5545L4.25006 50.324C4.15637 50.293 4.05985 50.2713 3.96191 50.2592Z" fill="#E0E0E0"/>
<path d="M172.267 10.3323H217.676L208.794 16.6464V21.9195C208.774 24.5249 207.72 27.0157 205.864 28.8442C204.008 30.6726 201.502 31.689 198.896 31.6698H170.402C167.796 31.689 165.29 30.6726 163.434 28.8442C161.578 27.0157 160.524 24.5249 160.504 21.9195C160.515 20.3862 160.828 18.8701 161.426 17.4579C162.023 16.0457 162.893 14.7649 163.985 13.6889C165.078 12.6129 166.371 11.7626 167.792 11.1867C169.213 10.6107 170.734 10.3204 172.267 10.3323Z" fill="#F5F5F5"/>
<path d="M201.133 17.3811C201.133 17.4316 193.569 17.4748 184.204 17.4748C174.839 17.4748 167.275 17.4316 167.275 17.3811C167.275 17.3307 174.839 17.2875 184.204 17.2875C193.569 17.2875 201.133 17.3271 201.133 17.3811Z" fill="#E0E0E0"/>
<path d="M201.133 20.8893C201.133 20.9397 193.569 20.983 184.204 20.983C174.839 20.983 167.275 20.9397 167.275 20.8893C167.275 20.8389 174.839 20.7957 184.204 20.7957C193.569 20.7957 201.133 20.8353 201.133 20.8893Z" fill="#E0E0E0"/>
<path d="M103.374 118.407H49.6411L58.3937 124.739V137.165C58.3937 137.506 58.4609 137.844 58.5915 138.159C58.722 138.474 58.9134 138.76 59.1546 139.001C59.3957 139.241 59.6821 139.432 59.9971 139.562C60.3122 139.693 60.6498 139.759 60.9907 139.759H103.374C103.715 139.759 104.053 139.693 104.368 139.562C104.683 139.432 104.969 139.241 105.21 139.001C105.451 138.76 105.643 138.474 105.773 138.159C105.904 137.844 105.971 137.506 105.971 137.165V121C105.97 120.312 105.696 119.652 105.209 119.166C104.722 118.68 104.062 118.407 103.374 118.407Z" fill="#F5F5F5"/>
<path d="M101.134 127.188C101.134 127.242 93.0295 127.282 83.0343 127.282C73.0391 127.282 64.9348 127.242 64.9348 127.188C64.9348 127.134 73.0355 127.095 83.0343 127.095C93.0331 127.095 101.134 127.138 101.134 127.188Z" fill="#E0E0E0"/>
<path d="M101.134 131.961C101.134 132.011 93.0295 132.054 83.0343 132.054C73.0391 132.054 64.9348 132.011 64.9348 131.961C64.9348 131.91 73.0355 131.867 83.0343 131.867C93.0331 131.867 101.134 131.91 101.134 131.961Z" fill="#E0E0E0"/>
<path d="M213.084 57.1674H150.199C142.482 57.1674 136.227 63.4227 136.227 71.1391V122.322C136.227 130.038 142.482 136.294 150.199 136.294H213.084C220.8 136.294 227.056 130.038 227.056 122.322V71.1391C227.056 63.4227 220.8 57.1674 213.084 57.1674Z" fill="#4B9EF9"/>
<g opacity="0.4">
<path d="M213.084 57.1674H150.199C142.482 57.1674 136.227 63.4227 136.227 71.1391V122.322C136.227 130.038 142.482 136.294 150.199 136.294H213.084C220.8 136.294 227.056 130.038 227.056 122.322V71.1391C227.056 63.4227 220.8 57.1674 213.084 57.1674Z" fill="black"/>
</g>
<path d="M227.031 84.7506H240.635L226.724 98.6647L227.031 84.7506Z" fill="#4B9EF9"/>
<g opacity="0.4">
<path d="M227.031 84.7506H240.635L226.724 98.6647L227.031 84.7506Z" fill="black"/>
</g>
<path d="M134.051 93.3051L128.35 86.8217C126.808 85.2801 126.279 84.5381 126.588 84.268C126.999 83.9078 126.822 84.0267 130.025 86.4291C130.025 86.4291 125.486 82.9605 127.06 82.9389C127.338 82.9389 128.108 83.3855 128.933 83.9258C127.809 82.9713 127.492 82.3266 127.712 82.0204C128.072 81.4873 130.853 83.4143 132.132 84.34C131.087 83.562 129.095 82.0528 128.746 81.5774C128.263 80.929 129.239 80.9831 130.032 81.2532C130.921 81.5558 135.838 84.0663 137.293 84.7146C137.41 84.7842 137.54 84.8277 137.675 84.8421C137.81 84.8565 137.947 84.8415 138.076 84.798C138.204 84.7545 138.322 84.6837 138.421 84.5903C138.52 84.4969 138.597 84.3833 138.647 84.2572C139.184 82.0024 140.809 80.5364 141.428 80.3455C142.048 80.1546 142.527 80.947 142.084 81.5233C141.667 82.1939 141.344 82.9187 141.126 83.6773C140.925 84.2724 140.826 84.8971 140.834 85.525C140.834 86.2454 140.884 86.8686 140.931 87.3908L146.143 94.5406L137.426 99.5832L134.051 93.3051Z" fill="#B78876"/>
<path d="M132.013 87.4376C131.955 87.5169 130.932 86.8217 129.751 85.8816C128.569 84.9415 127.647 84.1131 127.716 84.0375C127.784 83.9618 128.796 84.6606 129.978 85.5935C131.159 86.5264 132.063 87.3548 132.013 87.4376Z" fill="#AA6550"/>
<path d="M133.115 86.2995C133.057 86.3824 131.937 85.698 130.612 84.7759C129.286 83.8539 128.256 83.0362 128.314 82.957C128.371 82.8777 129.491 83.5549 130.817 84.477C132.142 85.3991 133.173 86.2167 133.115 86.2995Z" fill="#AA6550"/>
<path d="M133.922 85.0892C133.864 85.1721 132.791 84.5453 131.527 83.6881C130.262 82.8308 129.283 82.0708 129.337 81.9844C129.391 81.8979 130.464 82.5283 131.732 83.3855C133 84.2428 133.976 85.0064 133.922 85.0892Z" fill="#AA6550"/>
<path d="M141.417 88.3597L162.193 114.704L157.435 125.78C157.435 125.78 151.737 124.519 150.008 122.12C148.279 119.721 134.052 93.3051 134.052 93.3051L141.417 88.3597Z" fill="#B78876"/>
<path d="M194.156 51.5052C195.651 52.8019 195.647 55.0855 195.475 57.0558C195.302 59.026 195.168 61.27 196.533 62.7035C197.661 63.8849 199.703 64.4 199.962 66.0101C200.024 66.3883 199.967 66.7764 199.799 67.1208C199.63 67.4653 199.36 67.7492 199.024 67.9335C198.688 68.1179 198.303 68.1937 197.922 68.1505C197.541 68.1073 197.183 67.9471 196.897 67.6921C197.337 68.9636 197.034 70.552 195.932 71.3228C194.83 72.0936 192.982 71.6182 192.64 70.3179C192.696 70.535 192.706 70.7613 192.671 70.9827C192.636 71.2041 192.555 71.4158 192.434 71.6046C192.314 71.7935 192.155 71.9554 191.969 72.0804C191.783 72.2053 191.573 72.2905 191.352 72.3307C191.132 72.3709 190.905 72.3652 190.687 72.314C190.469 72.2627 190.263 72.1671 190.084 72.033C189.904 71.8989 189.754 71.7292 189.643 71.5345C189.532 71.3398 189.462 71.1243 189.438 70.9014" fill="#14142B"/>
<path d="M172.75 64.8034C172.549 65.2858 172.165 65.6686 171.681 65.8675C171.198 66.0665 170.655 66.0652 170.173 65.8642C169.691 65.6631 169.308 65.2786 169.109 64.7953C168.91 64.312 168.911 63.7694 169.112 63.287C169.454 62.5378 170.265 61.9975 170.344 61.1763C170.438 60.1858 169.426 59.4762 168.543 59.044C167.661 58.6118 166.595 58.0499 166.497 57.0557C166.4 56.0616 167.261 55.352 167.978 54.7109C168.694 54.0698 169.418 53.0756 168.961 52.222C168.734 51.7826 168.262 51.534 167.956 51.1414C167.283 50.2842 167.636 48.9191 168.496 48.2599C169.357 47.6008 170.546 47.4963 171.619 47.6872C172.693 47.8781 173.701 48.3248 174.746 48.6381C176.477 49.1416 178.294 49.2806 180.082 49.0462C181.87 48.8119 183.59 48.2093 185.133 47.2766" fill="#14142B"/>
<path d="M179.129 88.032C180.99 88.4075 182.924 88.0364 184.514 86.9986C186.103 85.9609 187.221 84.3398 187.626 82.4851L192.737 59.0512C193.056 57.698 193.101 56.2947 192.868 54.924C192.635 53.5534 192.13 52.2434 191.382 51.0714C190.634 49.8994 189.659 48.8893 188.514 48.1008C187.369 47.3123 186.077 46.7613 184.716 46.4806L184.183 46.4014C181.579 46.0186 178.926 46.6308 176.753 48.116C174.581 49.6012 173.047 51.8504 172.458 54.4156C171.32 59.361 170.128 64.8394 169.768 67.53C169.022 73.1022 174.45 74.7806 174.45 74.7806L173.474 79.4631C173.281 80.396 173.273 81.358 173.453 82.2938C173.632 83.2296 173.995 84.1207 174.519 84.9159C175.044 85.7112 175.721 86.3949 176.511 86.9278C177.301 87.4607 178.188 87.8323 179.122 88.0212L179.129 88.032Z" fill="#B78876"/>
<path d="M173.46 58.1039C173.428 58.3107 173.478 58.5217 173.599 58.6924C173.72 58.8631 173.902 58.9801 174.108 59.0188C174.208 59.0415 174.311 59.044 174.411 59.0263C174.512 59.0086 174.608 58.971 174.694 58.9156C174.78 58.8602 174.854 58.7883 174.912 58.7039C174.969 58.6196 175.01 58.5246 175.03 58.4245C175.064 58.2179 175.015 58.0065 174.895 57.8354C174.774 57.6644 174.591 57.5474 174.385 57.5096C174.286 57.4869 174.182 57.4842 174.081 57.5019C173.98 57.5196 173.884 57.5572 173.798 57.6125C173.712 57.6679 173.637 57.7398 173.579 57.8242C173.521 57.9085 173.481 58.0036 173.46 58.1039Z" fill="#14142B"/>
<path d="M173.254 57.3116C173.337 57.4304 174.004 57.0702 174.861 57.1999C175.718 57.3296 176.276 57.8447 176.384 57.7546C176.438 57.715 176.363 57.5133 176.121 57.2756C175.789 56.9651 175.369 56.7651 174.918 56.7029C174.474 56.6358 174.02 56.7115 173.622 56.919C173.33 57.0847 173.215 57.2575 173.254 57.3116Z" fill="#14142B"/>
<path d="M181.813 59.4726C181.78 59.6795 181.829 59.891 181.951 60.0619C182.072 60.2328 182.255 60.3497 182.461 60.3875C182.561 60.4102 182.664 60.4126 182.765 60.3946C182.866 60.3767 182.962 60.3388 183.048 60.283C183.134 60.2273 183.208 60.1549 183.265 60.0702C183.323 59.9854 183.363 59.89 183.383 59.7896C183.415 59.5831 183.366 59.3721 183.245 59.2017C183.123 59.0314 182.94 58.9153 182.735 58.8783C182.635 58.8551 182.532 58.8521 182.431 58.8696C182.33 58.8871 182.234 58.9247 182.148 58.9802C182.062 59.0356 181.988 59.1078 181.93 59.1924C181.872 59.277 181.833 59.3723 181.813 59.4726Z" fill="#14142B"/>
<path d="M181.632 58.7018C181.715 58.8171 182.382 58.4605 183.235 58.5902C184.089 58.7198 184.654 59.2349 184.762 59.1449C184.813 59.1052 184.741 58.9035 184.496 58.6658C184.164 58.3554 183.743 58.1553 183.293 58.0931C182.849 58.026 182.395 58.1017 181.996 58.3092C181.719 58.4641 181.589 58.6478 181.632 58.7018Z" fill="#14142B"/>
<path d="M177.602 64.5873C177.602 64.5369 177.094 64.3676 176.251 64.1335C176.035 64.0794 175.837 64.0038 175.823 63.8489C175.837 63.622 175.92 63.4049 176.06 63.2258C176.346 62.7287 176.643 62.2065 176.95 61.659C178.193 59.4222 179.111 57.5744 179.035 57.524C178.96 57.4736 177.865 59.2457 176.622 61.4861L175.758 63.0637C175.583 63.3086 175.499 63.6065 175.52 63.9065C175.542 63.9861 175.582 64.0598 175.636 64.1221C175.69 64.1844 175.758 64.2338 175.833 64.2667C175.949 64.3161 176.07 64.3512 176.194 64.3712C176.652 64.5014 177.125 64.574 177.602 64.5873Z" fill="#14142B"/>
<path d="M181.899 55.3197C181.949 55.5647 182.821 55.5791 183.804 55.8456C184.788 56.1121 185.558 56.5047 185.724 56.3174C185.796 56.2274 185.688 55.9861 185.396 55.7159C185 55.3759 184.532 55.1306 184.027 54.9989C183.522 54.8672 182.994 54.8525 182.482 54.9559C182.079 55.0496 181.881 55.2225 181.899 55.3197Z" fill="#14142B"/>
<path d="M173.932 54.8839C174.054 55.1 174.652 54.9847 175.372 55.0784C176.093 55.172 176.662 55.4026 176.813 55.2189C176.889 55.1288 176.813 54.9199 176.59 54.6966C176.27 54.4248 175.877 54.2544 175.46 54.2069C175.043 54.1595 174.621 54.2371 174.248 54.43C173.989 54.5921 173.877 54.7794 173.932 54.8839Z" fill="#14142B"/>
<path d="M187.594 52.0672L187.619 52.096C188.403 52.9242 188.837 54.0239 188.829 55.1648V55.2764C188.829 56.8973 188.537 58.5181 188.541 60.121C188.544 61.7238 188.854 63.4311 189.866 64.6918C190.281 65.214 191.087 65.6463 191.559 65.178C191.725 64.9788 191.832 64.7365 191.865 64.4793C192.723 60.6937 194.264 57.452 194.844 53.4467C194.924 52.9105 194.876 52.3629 194.702 51.8492C194.529 51.3356 194.235 50.8707 193.846 50.4931C193.097 49.7727 192.164 48.9947 191.167 49.3009C190.169 49.6071 188.71 51.1739 187.878 51.8222" fill="#14142B"/>
<path d="M190.493 61.2916C190.594 61.2628 194.48 60.7189 193.8 64.5045C193.119 68.29 189.477 66.8277 189.477 66.716C189.477 66.6044 190.493 61.2916 190.493 61.2916Z" fill="#B78876"/>
<path d="M190.889 65.4914C190.889 65.4914 190.947 65.5491 191.048 65.6175C191.193 65.7137 191.37 65.7498 191.541 65.7183C191.966 65.6427 192.416 65.07 192.557 64.3892C192.629 64.0679 192.629 63.7345 192.557 63.4131C192.542 63.2886 192.497 63.1695 192.426 63.066C192.355 62.9626 192.261 62.8777 192.15 62.8188C192.078 62.7848 191.996 62.7774 191.919 62.7978C191.842 62.8182 191.774 62.8652 191.728 62.9305C191.66 63.0241 191.671 63.107 191.649 63.107C191.628 63.107 191.581 63.0313 191.649 62.8801C191.687 62.7903 191.754 62.7165 191.84 62.6711C191.958 62.6109 192.095 62.5993 192.222 62.6387C192.373 62.6987 192.506 62.7965 192.608 62.9227C192.71 63.0488 192.778 63.1991 192.805 63.3591C192.905 63.7109 192.919 64.0815 192.845 64.4397C192.683 65.1997 192.164 65.8408 191.591 65.902C191.484 65.9134 191.376 65.9005 191.274 65.8644C191.173 65.8282 191.08 65.7697 191.004 65.6931C190.878 65.5815 190.875 65.495 190.889 65.4914Z" fill="#AA6550"/>
<path d="M191.21 49.9096C192.37 48.5228 190.129 45.9655 188.328 45.0974C186.527 44.2294 183.934 44.7841 181.975 45.1299C180.739 45.3496 179.486 45.7242 178.254 45.49C177.436 45.2855 176.654 44.9588 175.934 44.5211C175.212 44.0913 174.411 43.8108 173.579 43.6963C173.16 43.6448 172.735 43.7085 172.35 43.8805C171.964 44.0525 171.633 44.3263 171.392 44.6724C170.964 45.3928 171.263 46.5202 172.069 46.7543C171.826 46.5697 171.542 46.4469 171.241 46.3963C170.94 46.3457 170.631 46.369 170.341 46.464C170.051 46.559 169.788 46.723 169.575 46.9418C169.362 47.1607 169.206 47.4279 169.119 47.7206C169.032 48.0133 169.017 48.3226 169.076 48.6222C169.135 48.9217 169.266 49.2025 169.457 49.4404C169.649 49.6783 169.895 49.8662 170.175 49.9881C170.455 50.11 170.76 50.1621 171.064 50.1401C170.585 49.6502 169.656 50.2085 169.624 50.8929C169.591 51.5772 170.132 52.1571 170.704 52.5209C172.185 53.4502 174.065 53.497 175.786 53.1873C177.508 52.8775 179.158 52.2364 180.872 51.8834C182.587 51.5304 185.465 50.8605 187.014 51.6781C188.152 52.276 188.778 53.8392 189.502 53.6267C189.845 53.5004 190.154 53.296 190.404 53.0297C190.654 52.7633 190.839 52.4424 190.943 52.0923C191.138 51.3894 191.22 50.6598 191.185 49.9312" fill="#14142B"/>
<path d="M198.619 67.4688C198.69 67.4526 198.757 67.4233 198.817 67.3823C198.995 67.2679 199.137 67.1056 199.228 66.9141C199.367 66.6076 199.41 66.2658 199.35 65.9344C199.257 65.4985 199.018 65.1074 198.673 64.825C198.264 64.4881 197.803 64.2193 197.308 64.029C196.751 63.826 196.217 63.5678 195.712 63.2582C195.183 62.8865 194.78 62.3626 194.556 61.7562C194.31 61.1032 194.196 60.4077 194.221 59.7103C194.257 58.2696 194.657 56.9189 194.754 55.6474C194.851 54.3759 194.689 53.1837 194.149 52.3589C193.743 51.6955 193.099 51.2124 192.348 51.0082C192.147 50.9575 191.939 50.9369 191.732 50.9469C191.66 50.9481 191.589 50.959 191.52 50.9794C191.793 50.9776 192.065 51.0115 192.33 51.0802C193.044 51.3058 193.649 51.7867 194.03 52.4309C194.531 53.2305 194.704 54.3903 194.578 55.633C194.451 56.8756 194.066 58.2264 194.023 59.7067C194 60.4297 194.122 61.1499 194.383 61.8246C194.624 62.4653 195.055 63.0171 195.618 63.4059C196.135 63.7163 196.682 63.9745 197.25 64.1767C197.732 64.3553 198.183 64.6081 198.586 64.9259C198.916 65.1862 199.149 65.5486 199.249 65.956C199.315 66.2662 199.285 66.589 199.163 66.8817C199.051 67.1322 198.86 67.3386 198.619 67.4688Z" fill="#455A64"/>
<path d="M171.947 46.6643C171.896 46.6264 171.841 46.5961 171.781 46.5743C171.714 46.5411 171.644 46.5134 171.572 46.4914C171.473 46.4573 171.37 46.432 171.266 46.4158C170.925 46.3619 170.575 46.3864 170.244 46.4875C169.914 46.5886 169.61 46.7636 169.357 46.9993C169.101 47.3116 168.909 47.6718 168.793 48.0588C168.676 48.4459 168.638 48.8521 168.68 49.2541C168.728 49.7533 168.876 50.2378 169.115 50.6789C169.354 51.12 169.679 51.5088 170.07 51.8222C170.971 52.5474 172.067 52.9876 173.218 53.0865C174.469 53.1941 175.729 53.1176 176.957 52.8596C178.905 52.4779 180.771 51.7561 182.468 50.7273C183.196 50.2772 183.957 49.8834 184.744 49.5494C185.432 49.2706 186.164 49.1204 186.906 49.1064C187.985 49.0831 189.052 49.3307 190.01 49.8268C190.357 50.0207 190.692 50.2335 191.015 50.4643C190.727 50.181 190.401 49.9386 190.046 49.7439C189.085 49.2085 188.002 48.9317 186.902 48.9407C186.142 48.9465 185.39 49.0918 184.683 49.3693C183.887 49.7029 183.118 50.0967 182.382 50.5472C180.696 51.5547 178.848 52.2628 176.921 52.6399C175.711 52.8962 174.47 52.9751 173.236 52.874C172.12 52.7814 171.056 52.3603 170.178 51.6637C169.801 51.3654 169.487 50.9948 169.254 50.5736C169.022 50.1525 168.876 49.6892 168.824 49.2109C168.78 48.8276 168.812 48.4394 168.919 48.0686C169.025 47.6977 169.203 47.3515 169.444 47.0497C169.684 46.8205 169.972 46.6476 170.287 46.5436C170.602 46.4395 170.937 46.4069 171.266 46.4482C171.499 46.4992 171.727 46.5716 171.947 46.6643Z" fill="#455A64"/>
<path d="M174.054 43.5127C174.041 43.8021 174.086 44.0912 174.187 44.3627C174.468 45.1133 174.993 45.7476 175.678 46.1637C176.139 46.4636 176.65 46.676 177.188 46.7904C177.804 46.9146 178.435 46.9473 179.061 46.8877C180.382 46.7904 181.766 46.3366 183.217 45.962C184.669 45.5874 186.12 45.3893 187.374 45.7243C188.486 46.019 189.476 46.6613 190.198 47.5576C190.694 48.1529 191.062 48.8446 191.278 49.5891C191.422 50.1186 191.44 50.4283 191.465 50.4247C191.47 50.3504 191.47 50.2758 191.465 50.2014C191.446 49.9891 191.411 49.7784 191.361 49.5711C191.169 48.8031 190.811 48.0864 190.313 47.4712C189.584 46.5381 188.573 45.8649 187.431 45.5514C186.135 45.1912 184.643 45.3965 183.185 45.7747C181.726 46.1529 180.354 46.6067 179.061 46.7112C178.451 46.7742 177.836 46.7487 177.234 46.6355C176.714 46.5296 176.216 46.332 175.765 46.052C175.097 45.6582 174.574 45.0595 174.274 44.3447C174.177 44.074 174.104 43.7957 174.054 43.5127Z" fill="#455A64"/>
<path d="M175.895 67.4148C175.942 67.7867 176.04 68.1502 176.186 68.4954C176.263 68.6659 176.375 68.8183 176.514 68.9425C176.654 69.0667 176.819 69.1598 176.997 69.2158C177.19 69.2557 177.39 69.2466 177.579 69.1893C177.768 69.1321 177.939 69.0285 178.077 68.888C178.354 68.597 178.531 68.2265 178.585 67.829C178.643 67.4688 178.585 67.0186 178.225 66.9033C178.08 66.8673 177.928 66.8673 177.782 66.9033L175.787 67.2635" fill="#AA6550"/>
<path d="M176.244 68.9275C176.561 69.0496 176.898 69.1131 177.238 69.1148C177.59 69.0942 177.921 68.9426 178.167 68.6898C178.312 68.5352 178.423 68.3516 178.492 68.151C178.561 67.9505 178.587 67.7376 178.567 67.5264C178.556 67.4182 178.532 67.3117 178.495 67.2094C178.448 67.1122 178.463 67.1194 178.38 67.1086C178.297 67.0978 178.167 67.1086 178.059 67.1266L177.724 67.1518C177.292 67.1842 176.903 67.2094 176.575 67.2275C176.216 67.2774 175.851 67.2701 175.495 67.2058C175.832 67.0829 176.185 67.0101 176.543 66.9897C176.867 66.9429 177.263 66.8961 177.685 66.8457L178.016 66.8096C178.135 66.7921 178.256 66.7813 178.376 66.7772C178.471 66.7798 178.564 66.8126 178.639 66.8709C178.706 66.9303 178.757 67.006 178.787 67.0906C178.836 67.2203 178.867 67.356 178.88 67.494C178.904 67.7533 178.87 68.0146 178.781 68.2593C178.692 68.504 178.55 68.7261 178.365 68.9095C178.058 69.2019 177.648 69.3611 177.224 69.3526C176.946 69.3537 176.675 69.2776 176.438 69.1329C176.316 69.032 176.233 68.942 176.244 68.9275Z" fill="#14142B"/>
<path d="M174.457 74.7806C174.457 74.7806 178.088 76.1566 181.621 75.1408C181.621 75.1408 178.956 77.3776 174.094 76.5204L174.457 74.7806Z" fill="#AA6550"/>
<path d="M179.997 126.421C179.822 126.306 179.656 126.179 179.5 126.039C179.345 125.913 179.14 125.758 178.92 125.592C178.7 125.427 178.434 125.232 178.128 125.034C177.822 124.836 177.505 124.62 177.134 124.415C176.763 124.209 176.37 123.993 175.949 123.777C174.101 122.868 172.114 122.274 170.07 122.019C169.598 121.969 169.152 121.911 168.73 121.901C168.309 121.89 167.916 121.872 167.56 121.875C167.203 121.879 166.875 121.897 166.591 121.908C166.306 121.919 166.061 121.94 165.87 121.962C165.664 121.993 165.456 122.008 165.247 122.005C165.45 121.953 165.656 121.914 165.863 121.89C166.102 121.849 166.342 121.82 166.584 121.803C166.868 121.782 167.192 121.742 167.556 121.742C167.92 121.742 168.313 121.72 168.738 121.742C169.163 121.764 169.616 121.8 170.092 121.843C171.123 121.971 172.141 122.181 173.139 122.47C174.129 122.774 175.093 123.158 176.021 123.619C176.442 123.842 176.849 124.047 177.206 124.278C177.562 124.508 177.901 124.714 178.196 124.923C178.491 125.131 178.751 125.333 178.978 125.506C179.205 125.679 179.392 125.845 179.54 125.981C179.704 126.115 179.857 126.262 179.997 126.421Z" fill="#FAFAFA"/>
<path d="M158.829 107.922L161.782 95.1241C162.913 90.312 164.253 85.6871 166.504 85.1396V86.6272L165.539 123.19C165.539 123.19 159.52 130.034 151.852 126.237C149.453 125.045 145.077 116.671 145.077 116.671C145.077 116.671 134.894 98.5027 135.319 97.6778C135.744 96.853 141.965 88.8352 142.599 88.4354L158.829 107.922Z" fill="#4B9EF9"/>
<path d="M189.222 81.5162C195.093 82.6399 201.702 86.0653 204.746 94.8431C205.855 98.0488 213.938 121.681 213.938 121.681L200.153 121.393L197.927 116.527L199.008 124.433L199.941 135.707L165.132 136.294L165.377 119.307L165.712 85.5215C165.712 85.5215 166.101 85.01 172.105 81.6999C175.83 79.6432 189.222 81.5162 189.222 81.5162Z" fill="#4B9EF9"/>
<g opacity="0.2">
<path d="M192.694 104.114C193.266 111.246 193.922 113.45 194.495 120.582C194.508 121.258 194.63 121.926 194.855 122.563C194.975 122.88 195.168 123.164 195.418 123.392C195.669 123.621 195.969 123.787 196.295 123.878C197.311 124.083 198.63 124.818 198.914 123.824L197.952 116.955C197.746 115.956 197.427 114.983 197.001 114.056C194.866 109.312 194.077 109.035 192.679 104.114" fill="black"/>
</g>
<path d="M172.102 85.3558L172.217 84.6138L173.33 77.4964C173.362 77.2896 173.471 77.1025 173.636 76.9729C173.8 76.8432 174.007 76.7806 174.216 76.7977L187.921 77.9431C188.335 77.9771 188.719 78.1734 188.989 78.4891C189.259 78.8049 189.393 79.2145 189.362 79.6288L189.056 83.7637L184.777 89.3466L178.614 90.3084" fill="#4B9EF9"/>
<path d="M165.219 98.7368C165.273 98.7368 165.312 104.313 165.312 111.189C165.312 118.065 165.273 123.64 165.219 123.64C165.165 123.64 165.125 118.065 165.125 111.189C165.125 104.313 165.168 98.7368 165.219 98.7368Z" fill="#14142B"/>
<path d="M200.449 122.538C200.449 122.538 200.449 122.513 200.405 122.459C200.362 122.405 200.337 122.315 200.29 122.214L199.872 121.267L198.37 117.769L193.475 106.203C192.524 103.941 191.62 101.788 190.799 99.8245C190.384 98.905 190.086 97.9369 189.913 96.943C189.761 96.0746 189.681 95.1952 189.675 94.3136C189.629 93.0362 189.815 91.7611 190.223 90.5496L190.334 90.2507L190.46 89.9986C190.52 89.8644 190.592 89.7365 190.677 89.6168L190.828 89.3934C190.845 89.3681 190.865 89.344 190.886 89.3214C190.649 89.7197 190.45 90.1394 190.291 90.5749C189.914 91.7836 189.751 93.0488 189.809 94.3136C189.815 96.192 190.206 98.0491 190.958 99.7705L193.648 106.142L198.493 117.729L199.933 121.249L200.319 122.21L200.416 122.462C200.429 122.487 200.44 122.512 200.449 122.538Z" fill="#14142B"/>
<path d="M193.493 82.7732C193.367 82.9011 193.234 83.0214 193.094 83.1334C192.689 83.4422 192.247 83.6999 191.779 83.9006C191.037 84.21 190.261 84.4278 189.466 84.5489C188.416 84.712 187.358 84.8166 186.297 84.8623C185.115 84.9127 183.826 84.8911 182.443 84.9163C180.974 84.9138 179.51 85.0929 178.084 85.4494C176.505 85.8225 175.076 86.6651 173.986 87.8663C173.442 88.5204 173.053 89.2886 172.847 90.1138C172.627 90.9603 172.642 91.8506 172.891 92.6892C173.028 93.103 173.231 93.4921 173.492 93.8418C173.755 94.1812 174.086 94.4611 174.465 94.663C174.832 94.8642 175.25 94.9519 175.668 94.9152C176.076 94.8733 176.453 94.6806 176.727 94.3749C176.97 94.0533 177.143 93.6842 177.235 93.2915C177.327 92.8987 177.335 92.4911 177.26 92.0949C177.2 91.7036 177.078 91.3243 176.899 90.9711C176.722 90.6265 176.508 90.3018 176.262 90.0022C175.299 88.8926 174.002 88.1254 172.566 87.8158C171.322 87.5223 170.025 87.5372 168.788 87.8591C167.77 88.1223 166.799 88.5389 165.906 89.0945C165.227 89.5182 164.586 90.0002 163.99 90.5353C163.497 90.9675 163.147 91.3421 162.91 91.587L162.643 91.8752C162.614 91.9096 162.581 91.941 162.546 91.9688C162.97 91.433 163.44 90.9352 163.951 90.4812C164.54 89.9357 165.179 89.4461 165.86 89.0189C166.76 88.4458 167.745 88.0157 168.777 87.7438C170.035 87.4065 171.356 87.3842 172.624 87.679C174.097 87.9897 175.429 88.7725 176.417 89.9085C176.668 90.2091 176.888 90.535 177.072 90.881C177.254 91.2521 177.376 91.6496 177.432 92.0589C177.495 92.4762 177.488 92.901 177.411 93.3159C177.333 93.7478 177.143 94.1516 176.86 94.4865C176.557 94.8264 176.138 95.0409 175.686 95.088C175.231 95.1312 174.775 95.0371 174.374 94.8179C173.972 94.6033 173.62 94.3062 173.341 93.9463C173.066 93.5795 172.852 93.1708 172.707 92.736C172.448 91.8647 172.433 90.9391 172.664 90.0598C172.874 89.2057 173.277 88.411 173.841 87.7366C174.959 86.511 176.42 85.6511 178.034 85.2693C179.476 84.9169 180.955 84.7451 182.439 84.7578C183.826 84.7362 185.115 84.7578 186.29 84.7254C187.347 84.6885 188.401 84.5936 189.448 84.4409C190.238 84.3275 191.012 84.122 191.754 83.8286C192.219 83.6395 192.661 83.3978 193.072 83.1082C193.216 83.0109 193.313 82.9209 193.385 82.8705C193.418 82.8346 193.454 82.802 193.493 82.7732Z" fill="#FAFAFA"/>
<path d="M205.405 97.7643C205.354 97.7785 205.302 97.787 205.25 97.7895C205.149 97.7895 205.001 97.8147 204.807 97.822C204.263 97.8399 203.718 97.8267 203.175 97.7823C202.487 97.7319 201.673 97.6275 200.773 97.5014C199.872 97.3753 198.886 97.2421 197.841 97.188C196.864 97.1349 195.885 97.2087 194.927 97.4077C194.144 97.567 193.392 97.8529 192.701 98.2542C192.075 98.6369 191.52 99.1242 191.059 99.6949C191.078 99.6467 191.105 99.6018 191.138 99.5617C191.214 99.4344 191.301 99.3139 191.397 99.2015C191.746 98.7752 192.164 98.41 192.633 98.1209C193.328 97.696 194.09 97.3915 194.887 97.2204C195.86 97.008 196.857 96.9281 197.852 96.9827C198.907 97.0367 199.898 97.1808 200.798 97.3141C201.699 97.4474 202.505 97.5662 203.186 97.6311C203.867 97.6959 204.425 97.7247 204.807 97.7283C205.007 97.728 205.207 97.7401 205.405 97.7643Z" fill="#FAFAFA"/>
<path d="M196.749 113.911C196.072 113.754 195.376 113.694 194.682 113.735C193.868 113.79 193.062 113.934 192.28 114.164C191.361 114.412 190.335 114.776 189.182 115.133C187.93 115.557 186.62 115.784 185.299 115.806C183.777 115.806 182.272 115.493 180.876 114.888C179.325 114.232 177.944 113.229 176.842 111.956C176.245 111.29 175.759 110.534 175.401 109.715C175.02 108.868 174.877 107.933 174.987 107.01C175.112 106.08 175.566 105.226 176.266 104.601C176.613 104.297 177.03 104.085 177.479 103.981C177.919 103.888 178.375 103.9 178.808 104.018C179.242 104.135 179.642 104.353 179.975 104.655C180.301 104.953 180.527 105.344 180.624 105.775C180.717 106.197 180.683 106.637 180.527 107.039C180.375 107.426 180.146 107.778 179.853 108.073C179.294 108.632 178.619 109.062 177.876 109.33C177.525 109.463 177.164 109.563 176.795 109.629C176.615 109.661 176.435 109.701 176.258 109.726L175.722 109.791C174.406 109.921 173.077 109.828 171.792 109.514C170.732 109.261 169.711 108.869 168.756 108.347C168.033 107.956 167.355 107.488 166.735 106.949L166.375 106.636L166.079 106.337C165.92 106.186 165.771 106.025 165.633 105.854L165.373 105.544C165.344 105.511 165.317 105.475 165.294 105.436C165.329 105.466 165.362 105.499 165.391 105.533L165.662 105.829C165.804 105.994 165.957 106.15 166.119 106.297L166.418 106.589L166.778 106.895C167.401 107.419 168.079 107.874 168.799 108.253C169.75 108.761 170.763 109.141 171.814 109.384C173.086 109.687 174.4 109.772 175.7 109.636L176.226 109.571C176.402 109.542 176.586 109.503 176.759 109.47C177.119 109.405 177.473 109.306 177.814 109.175C178.534 108.913 179.187 108.496 179.727 107.954C180.002 107.675 180.218 107.343 180.361 106.978C180.502 106.607 180.533 106.203 180.451 105.814C180.344 105.418 180.131 105.058 179.835 104.773C179.538 104.489 179.17 104.291 178.769 104.201C178.358 104.082 177.925 104.07 177.508 104.165C177.092 104.26 176.706 104.46 176.388 104.745C175.721 105.339 175.29 106.153 175.174 107.039C175.071 107.927 175.208 108.826 175.57 109.643C175.919 110.443 176.391 111.183 176.968 111.837C178.052 113.087 179.407 114.072 180.93 114.718C182.304 115.318 183.786 115.632 185.285 115.64C186.593 115.624 187.89 115.406 189.131 114.992C190.28 114.632 191.293 114.293 192.24 114.052C193.031 113.83 193.844 113.696 194.664 113.652C194.963 113.633 195.262 113.633 195.561 113.652C195.817 113.692 196.036 113.71 196.209 113.749L196.602 113.847C196.654 113.861 196.703 113.883 196.749 113.911Z" fill="#FAFAFA"/>
<path d="M165.1 110.068C165.067 110.068 164.902 109.708 164.552 109.103C163.638 107.567 162.305 106.324 160.709 105.519C160.097 105.209 159.693 105.072 159.704 105.04C159.805 105.049 159.905 105.072 159.999 105.108C160.262 105.187 160.518 105.283 160.767 105.397C161.592 105.773 162.351 106.28 163.014 106.899C163.679 107.516 164.237 108.239 164.667 109.038C164.804 109.277 164.924 109.525 165.028 109.78C165.064 109.873 165.089 109.969 165.1 110.068Z" fill="#FAFAFA"/>
<path d="M151.124 125.484C151.124 125.484 151.099 125.456 151.067 125.394C151.034 125.333 150.98 125.236 150.919 125.124C150.789 124.887 150.602 124.53 150.372 124.069C149.702 122.767 149.15 121.409 148.722 120.01C148.435 119.037 148.263 118.035 148.207 117.024C148.178 116.458 148.201 115.892 148.275 115.331C148.365 114.737 148.507 114.152 148.7 113.584C149.121 112.355 149.849 111.254 150.815 110.385C151.33 109.912 151.937 109.548 152.598 109.316C153.258 109.084 153.959 108.988 154.658 109.035C155.384 109.089 156.062 109.419 156.552 109.957C156.786 110.223 156.955 110.538 157.048 110.88C157.141 111.221 157.155 111.579 157.089 111.927C157.011 112.268 156.833 112.578 156.578 112.817C156.328 113.045 156.026 113.21 155.699 113.296C155.065 113.461 154.392 113.38 153.815 113.069C153.28 112.78 152.812 112.381 152.443 111.898C152.088 111.451 151.796 110.958 151.575 110.432C151.185 109.489 151.023 108.467 151.103 107.45C151.175 106.61 151.421 105.795 151.823 105.055C152.121 104.496 152.503 103.986 152.954 103.542C153.236 103.26 153.546 103.008 153.88 102.789C153.991 102.713 154.085 102.666 154.146 102.63L154.24 102.584C154.24 102.584 154.125 102.666 153.901 102.821C153.58 103.051 153.28 103.309 153.004 103.592C152.573 104.04 152.209 104.549 151.924 105.101C151.541 105.832 151.312 106.634 151.25 107.457C151.181 108.455 151.349 109.454 151.74 110.375C151.959 110.885 152.245 111.363 152.59 111.797C152.949 112.26 153.4 112.641 153.916 112.917C154.454 113.207 155.082 113.282 155.673 113.126C155.977 113.055 156.254 112.902 156.476 112.684C156.698 112.465 156.855 112.189 156.931 111.887C156.988 111.569 156.973 111.242 156.887 110.93C156.801 110.619 156.646 110.33 156.433 110.086C155.974 109.585 155.34 109.278 154.661 109.229C153.988 109.185 153.313 109.277 152.677 109.5C152.041 109.724 151.456 110.074 150.959 110.529C150.016 111.377 149.303 112.451 148.888 113.649C148.693 114.205 148.55 114.777 148.459 115.36C148.384 115.911 148.359 116.468 148.383 117.024C148.434 118.025 148.598 119.017 148.873 119.981C149.288 121.377 149.818 122.736 150.458 124.044L150.973 125.124C151.027 125.24 151.07 125.333 151.106 125.405C151.142 125.477 151.124 125.484 151.124 125.484Z" fill="#FAFAFA"/>
<path d="M146.676 93.6869C146.676 93.6869 146.694 93.7373 146.709 93.8346C146.734 93.98 146.752 94.1267 146.763 94.274C146.81 94.812 146.81 95.3532 146.763 95.8912C146.617 97.6828 146.004 99.4048 144.986 100.886C143.967 102.366 142.577 103.554 140.956 104.33C140.471 104.567 139.966 104.761 139.447 104.91C139.267 104.968 139.119 104.993 139.022 105.018C138.925 105.044 138.871 105.047 138.871 105.04C139.051 104.962 139.237 104.896 139.426 104.842C139.931 104.667 140.423 104.456 140.899 104.212C142.477 103.415 143.829 102.233 144.831 100.777C145.833 99.3205 146.453 97.6355 146.633 95.8768C146.69 95.3458 146.71 94.8114 146.694 94.2776C146.675 94.0813 146.669 93.884 146.676 93.6869Z" fill="#FAFAFA"/>
<path d="M208.556 109.305C208.021 109.64 207.55 110.07 207.166 110.573C206.806 111.037 206.446 111.653 206.039 112.301C205.592 113.027 205.077 113.709 204.501 114.337C203.446 115.476 202.196 116.416 200.809 117.114C200.391 117.325 199.961 117.509 199.519 117.665C199.358 117.728 199.192 117.776 199.022 117.809C199.171 117.723 199.328 117.652 199.49 117.596C199.793 117.463 200.232 117.276 200.748 116.995C202.093 116.271 203.31 115.331 204.349 114.21C204.92 113.593 205.432 112.923 205.88 112.211C206.238 111.616 206.629 111.042 207.051 110.49C207.344 110.12 207.693 109.798 208.085 109.535C208.191 109.465 208.303 109.403 208.42 109.351C208.513 109.315 208.556 109.297 208.556 109.305Z" fill="#FAFAFA"/>
<path d="M189.092 81.9483C189.039 81.9709 188.983 81.9855 188.926 81.9915L188.447 82.078C188.029 82.1464 187.424 82.2365 186.679 82.3373C185.18 82.539 183.106 82.7768 180.804 82.946C179.726 83.0445 178.644 83.083 177.562 83.0613C176.67 83.0395 175.785 82.8879 174.937 82.6111C174.364 82.4253 173.823 82.1519 173.334 81.8006C173.2 81.7066 173.073 81.6043 172.952 81.4945C172.873 81.4152 172.833 81.3756 172.837 81.3684C172.84 81.3612 173.024 81.5125 173.373 81.7286C173.871 82.0485 174.41 82.2982 174.976 82.4706C175.817 82.7265 176.69 82.8624 177.57 82.874C178.652 82.8855 179.734 82.8422 180.811 82.7443C183.106 82.575 185.18 82.3625 186.679 82.1932L188.454 81.9915C188.666 81.9622 188.879 81.9478 189.092 81.9483Z" fill="#14142B"/>
<path d="M213.776 124.231C214.047 125.624 214.008 127.06 213.662 128.437C213.316 129.814 212.672 131.098 211.774 132.198C210.877 133.298 209.749 134.187 208.469 134.802C207.19 135.417 205.791 135.743 204.371 135.757L177.087 135.455L177.807 126.619L201.169 123.111" fill="#B78876"/>
<path d="M179.478 127.004C179.352 127.044 177.778 126.338 176.366 125.686C174.869 124.992 173.224 124.673 171.576 124.757L165.071 125.088C165.071 125.088 165.471 126.169 166.151 126.529C166.832 126.889 170.913 127.004 170.913 127.004L170.704 127.217C169.851 128.096 168.687 128.605 167.463 128.636H166.839C166.378 128.599 165.922 128.51 165.481 128.37L163.879 127.721C163.392 127.505 162.881 127.537 162.668 128.027C162.456 128.517 162.618 129.079 163.943 129.745C164.682 130.106 167.427 131.067 167.427 131.067C167.445 131.458 167.5 131.846 167.589 132.227C167.707 132.627 168.784 133.027 168.784 133.027C169.064 133.619 169.384 134.192 169.743 134.741C169.869 134.885 170.845 135.191 171.886 135.483C173.564 135.953 175.34 135.939 177.011 135.444L179.489 134.702V127.138" fill="#B78876"/>
<path d="M170.582 131.943C169.436 131.913 168.312 131.617 167.301 131.078C167.301 131.035 168.021 131.309 168.932 131.543C169.843 131.777 170.585 131.889 170.582 131.943Z" fill="#AA6550"/>
<path d="M170.351 133.459C170.046 133.522 169.729 133.499 169.436 133.39C169.131 133.334 168.847 133.195 168.615 132.987C168.91 133.046 169.199 133.129 169.48 133.236C169.776 133.288 170.067 133.362 170.351 133.459Z" fill="#AA6550"/>
<path d="M171.54 126.417C171.398 126.618 171.229 126.798 171.039 126.954C170.608 127.366 170.132 127.728 169.62 128.035C169.104 128.336 168.544 128.552 167.96 128.676C167.725 128.739 167.482 128.765 167.239 128.755C168.044 128.57 168.822 128.281 169.552 127.894C170.052 127.592 170.528 127.252 170.974 126.875C171.149 126.706 171.338 126.553 171.54 126.417Z" fill="#AA6550"/>
<path d="M180.141 125.819L179.479 135.811H205.178C206.923 135.812 208.635 135.338 210.131 134.439C211.823 133.422 213.161 131.908 213.963 130.103C214.765 128.299 214.991 126.291 214.611 124.353C214.242 122.456 213.687 120.599 212.954 118.81L200.031 120.939L200.445 122.545L180.141 125.819Z" fill="#4B9EF9"/>
<path d="M206.399 121.706C206.314 121.731 206.227 121.75 206.139 121.764L205.387 121.901L202.61 122.362L193.475 123.802L184.33 125.203L181.557 125.607L180.8 125.708C180.712 125.72 180.623 125.727 180.534 125.729C180.619 125.7 180.707 125.679 180.797 125.668L181.546 125.535L184.312 125.07L193.446 123.629L202.61 122.217L205.383 121.814L206.139 121.713C206.225 121.702 206.312 121.699 206.399 121.706Z" fill="#14142B"/>
<path d="M193.245 135.818C193.198 135.818 193.4 135.098 193.425 133.92C193.43 133.6 193.417 133.28 193.385 132.962C193.354 132.599 193.301 132.238 193.227 131.881C193.048 131.06 192.768 130.263 192.391 129.511C192.006 128.763 191.534 128.062 190.986 127.422L190.626 127.001C190.504 126.864 190.37 126.745 190.248 126.623C190.007 126.374 189.751 126.176 189.528 125.985C188.609 125.265 187.957 124.904 187.979 124.872C188.138 124.936 188.291 125.014 188.436 125.106C188.616 125.2 188.789 125.304 188.955 125.42C189.146 125.556 189.384 125.69 189.61 125.884C189.87 126.078 190.118 126.288 190.352 126.511C190.478 126.633 190.619 126.749 190.745 126.871L191.138 127.296C191.702 127.94 192.186 128.65 192.578 129.41C192.96 130.178 193.241 130.992 193.414 131.831C193.488 132.198 193.536 132.57 193.558 132.944C193.581 133.268 193.581 133.593 193.558 133.916C193.551 134.185 193.527 134.454 193.486 134.72C193.466 134.92 193.431 135.119 193.382 135.314C193.351 135.486 193.305 135.654 193.245 135.818Z" fill="#FAFAFA"/>
<path d="M208.891 135.065C208.49 135.063 208.09 135.016 207.699 134.925C207.238 134.819 206.791 134.661 206.366 134.453C205.803 134.173 205.295 133.795 204.864 133.336C204.342 132.774 203.963 132.095 203.759 131.355C203.645 130.944 203.581 130.521 203.568 130.095C203.542 129.644 203.578 129.192 203.676 128.751C203.772 128.282 203.953 127.834 204.209 127.429C204.476 127 204.848 126.646 205.29 126.399C205.746 126.133 206.271 126.008 206.799 126.039C207.07 126.058 207.335 126.131 207.577 126.255C207.819 126.379 208.033 126.551 208.207 126.759C208.387 126.965 208.522 127.207 208.604 127.468C208.686 127.729 208.713 128.004 208.682 128.276C208.638 128.54 208.536 128.79 208.383 129.01C208.229 129.229 208.029 129.411 207.796 129.544C206.925 130 205.921 130.138 204.958 129.933C203.592 129.72 202.343 129.036 201.428 127.999C200.513 126.962 199.989 125.638 199.948 124.256C199.925 123.855 199.959 123.452 200.049 123.06C200.015 123.457 200.006 123.855 200.02 124.253C200.087 125.337 200.441 126.383 201.046 127.285C201.497 127.947 202.079 128.51 202.755 128.94C203.432 129.369 204.189 129.655 204.98 129.781C205.899 129.979 206.859 129.852 207.696 129.421C207.905 129.303 208.085 129.14 208.223 128.944C208.361 128.748 208.454 128.523 208.495 128.287C208.516 128.04 208.489 127.792 208.414 127.556C208.339 127.32 208.218 127.102 208.059 126.912C207.899 126.723 207.704 126.568 207.484 126.454C207.264 126.341 207.024 126.272 206.777 126.252C206.289 126.218 205.801 126.33 205.376 126.572C204.976 126.811 204.632 127.134 204.368 127.518C204.103 127.902 203.925 128.339 203.845 128.798C203.748 129.225 203.71 129.664 203.733 130.102C203.743 130.515 203.803 130.925 203.91 131.323C204.1 132.043 204.461 132.706 204.962 133.257C205.374 133.709 205.861 134.086 206.402 134.37C206.818 134.582 207.255 134.748 207.706 134.864C208.463 135.033 208.895 135.04 208.891 135.065Z" fill="#FAFAFA"/>
<path d="M106.947 26.2164H42.5851C38.8232 26.2164 35.2154 27.7108 32.5554 30.3709C29.8953 33.031 28.4009 36.6388 28.4009 40.4007V63.3375H14.5156L28.4009 77.2228V92.8153C28.4009 96.5772 29.8953 100.185 32.5554 102.845C35.2154 105.505 38.8232 107 42.5851 107H106.947C110.709 107 114.317 105.505 116.977 102.845C119.637 100.185 121.131 96.5772 121.131 92.8153V40.4007C121.131 36.6388 119.637 33.031 116.977 30.3709C114.317 27.7108 110.709 26.2164 106.947 26.2164Z" fill="#4B9EF9"/>
<path d="M80.6535 28.6406C80.2464 29.6959 80.9452 30.8449 81.734 31.659C82.5228 32.473 83.4665 33.2438 83.7151 34.346C83.9204 35.2716 83.5782 36.2334 83.661 37.177C83.7439 38.1207 84.2662 39.0104 84.5615 39.9325C85.0982 41.6038 84.8821 43.4299 84.403 45.1192C84.0575 46.523 83.3974 47.8298 82.4724 48.9408C82.0065 49.4911 81.4291 49.9362 80.7784 50.2466C80.1277 50.5571 79.4184 50.7259 78.6976 50.7418C78.4938 50.7546 78.2895 50.7254 78.0975 50.656C77.9054 50.5866 77.7296 50.4785 77.581 50.3383C77.379 50.0469 77.2675 49.7024 77.2605 49.3478C76.4356 42.0954 76.4356 34.7728 77.2605 27.5204" fill="#14142B"/>
<path d="M79.8935 52.0132C83.0271 51.8764 85.923 54.8767 85.6745 58.0032C88.8478 58.7776 91.0773 62.2678 90.4686 65.4735C90.2633 66.5325 89.7915 67.541 89.7266 68.6143C89.6546 69.7886 90.0868 70.9304 90.2993 72.083C90.7071 74.1837 90.4892 76.3579 89.6726 78.3358C89.1791 79.5281 88.2571 80.7599 86.9676 80.7959C86.5307 80.7775 86.1051 80.6519 85.7282 80.4302C85.3513 80.2085 85.0347 79.8974 84.8064 79.5245C84.3575 78.7695 84.0613 77.9336 83.9348 77.0644C83.3765 74.2477 83.2144 71.3554 82.4364 68.5927C81.6584 65.8301 80.1456 63.1071 77.6495 61.7059C76.27 60.9279 74.6131 60.5605 73.5145 59.4187C72.9619 58.7955 72.5935 58.031 72.4503 57.2104C72.3072 56.3899 72.3951 55.5458 72.7041 54.7723C73.0279 54.0058 73.5096 53.3161 74.1178 52.7482C74.726 52.1804 75.4471 51.7471 76.234 51.4766" fill="#14142B"/>
<path d="M58.203 31.2231C58.167 29.8831 59.4025 28.8494 60.6487 28.3415C61.895 27.8337 63.2817 27.6644 64.3911 26.9008C65.378 26.238 66.0371 25.2043 66.8692 24.3795C67.8966 23.3376 69.1828 22.5879 70.5957 22.2074C72.0086 21.8268 73.4974 21.8292 74.9091 22.2142C76.3208 22.5992 77.6046 23.353 78.6287 24.3982C79.6528 25.4433 80.3803 26.7422 80.7364 28.1615C81.2155 30.0668 80.8877 32.3216 79.3857 33.5895C77.6424 35.0591 75.0635 34.7313 72.8195 34.2739C70.5755 33.8164 68.0542 33.3662 66.1884 34.6809C65.0646 35.4697 64.4163 36.7592 63.7283 37.9514C63.0404 39.1436 62.1795 40.3574 60.8792 40.8077C59.579 41.2579 57.8104 40.4799 57.76 39.1076" fill="#14142B"/>
<path d="M63.4832 31.4968C62.9255 31.5571 62.4107 31.8244 62.0406 32.2459C61.6705 32.6674 61.4719 33.2124 61.4842 33.7732L62.8205 64.0291C62.8781 67.6021 68.1008 69.6084 71.926 69.5183C75.7909 69.4283 75.9133 67.5337 75.9638 64.1335C76.043 58.4569 76.0358 56.3246 76.0394 56.357C76.043 56.3895 80.92 55.5358 81.9177 49.1533C82.4111 45.9872 82.2419 40.7933 81.9645 36.5467C81.716 32.725 79.173 28.0426 75.3659 28.4532L63.4832 31.4968Z" fill="#FFBE9D"/>
<path d="M80.8659 40.5592C80.868 40.7718 80.7871 40.9768 80.6405 41.1308C80.4939 41.2848 80.2932 41.3756 80.0807 41.384C79.9779 41.3929 79.8744 41.3812 79.7761 41.3496C79.6779 41.3181 79.5869 41.2673 79.5085 41.2003C79.43 41.1333 79.3657 41.0513 79.3193 40.9592C79.2728 40.867 79.2451 40.7666 79.2379 40.6636C79.2349 40.4508 79.3155 40.2452 79.4622 40.0911C79.609 39.9369 79.8103 39.8463 80.0231 39.8388C80.1259 39.83 80.2294 39.8416 80.3277 39.8732C80.4259 39.9047 80.5169 39.9555 80.5953 40.0225C80.6738 40.0896 80.7381 40.1715 80.7845 40.2637C80.831 40.3558 80.8587 40.4563 80.8659 40.5592Z" fill="#14142B"/>
<path d="M80.8444 39.2625C80.7435 39.3706 80.124 38.9024 79.2452 38.9024C78.3663 38.9024 77.7216 39.349 77.6243 39.2409C77.5775 39.1941 77.6819 38.9996 77.9629 38.7943C78.3421 38.5303 78.7939 38.3906 79.256 38.3945C79.7133 38.3918 80.1598 38.5343 80.531 38.8015C80.8012 39.014 80.8948 39.2157 80.8444 39.2625Z" fill="#14142B"/>
<path d="M72.4196 40.5592C72.4217 40.7718 72.3408 40.9768 72.1942 41.1308C72.0477 41.2848 71.8469 41.3756 71.6344 41.384C71.5316 41.3929 71.4281 41.3812 71.3298 41.3496C71.2316 41.3181 71.1406 41.2673 71.0622 41.2003C70.9837 41.1333 70.9194 41.0513 70.873 40.9592C70.8265 40.867 70.7988 40.7666 70.7916 40.6636C70.7886 40.4508 70.8692 40.2452 71.0159 40.0911C71.1627 39.9369 71.3641 39.8463 71.5768 39.8388C71.6796 39.83 71.7831 39.8416 71.8814 39.8732C71.9796 39.9047 72.0706 39.9555 72.149 40.0225C72.2275 40.0896 72.2918 40.1715 72.3383 40.2637C72.3847 40.3558 72.4124 40.4563 72.4196 40.5592Z" fill="#14142B"/>
<path d="M72.2216 39.4461C72.1208 39.5542 71.5013 39.086 70.6224 39.086C69.7435 39.086 69.0988 39.5326 69.0051 39.4245C68.9583 39.3777 69.0592 39.1832 69.3401 38.9779C69.7192 38.7132 70.1709 38.5723 70.6332 38.5745C71.091 38.5729 71.5375 38.7166 71.9083 38.9851C72.1604 39.2048 72.254 39.3993 72.2216 39.4461Z" fill="#14142B"/>
<path d="M75.4093 45.9584C75.4093 45.908 75.9495 45.8143 76.85 45.699C77.0733 45.6738 77.2858 45.627 77.3255 45.4757C77.342 45.2435 77.2894 45.0117 77.1742 44.8094L76.5042 43.1021C75.5786 40.6708 74.905 38.6718 75.0058 38.6357C75.1067 38.5997 75.9351 40.5411 76.8608 42.958L77.502 44.6761C77.6416 44.9466 77.6836 45.2571 77.6208 45.555C77.5892 45.6335 77.5405 45.704 77.4782 45.7614C77.4159 45.8187 77.3415 45.8614 77.2606 45.8863C77.1433 45.9187 77.0222 45.9356 76.9004 45.9368C75.964 46.0016 75.4129 46.0088 75.4093 45.9584Z" fill="#14142B"/>
<path d="M76.0397 56.3607C73.04 56.4124 70.0848 55.6306 67.5032 54.1023C67.5032 54.1023 69.5815 58.475 75.9568 57.8627L76.0397 56.3607Z" fill="#EB996E"/>
<path d="M75.0418 48.0763C74.8722 47.8632 74.6505 47.6975 74.3981 47.5952C74.1457 47.493 73.8711 47.4577 73.6011 47.4928C73.4071 47.5102 73.2187 47.5667 73.0472 47.6589C72.8758 47.7512 72.7247 47.8772 72.6033 48.0294C72.4862 48.1764 72.4172 48.3558 72.4056 48.5433C72.394 48.7308 72.4404 48.9174 72.5385 49.0776C72.6795 49.2358 72.8648 49.3479 73.0704 49.3993C73.276 49.4507 73.4923 49.439 73.6911 49.3657C74.1058 49.2184 74.4867 48.9893 74.8113 48.6922C74.911 48.6225 74.9966 48.5345 75.0634 48.4329C75.0963 48.3845 75.1138 48.3274 75.1138 48.269C75.1138 48.2105 75.0963 48.1534 75.0634 48.1051" fill="#EB996E"/>
<path d="M72.8229 46.5779C72.967 46.5779 72.9706 47.5252 73.7882 48.1987C74.6059 48.8723 75.6216 48.7678 75.6288 48.9191C75.6288 48.9803 75.4019 49.1064 74.9733 49.1172C74.4142 49.1274 73.8696 48.9399 73.4352 48.5877C73.0196 48.2477 72.7523 47.7596 72.6897 47.2262C72.65 46.8048 72.7581 46.5779 72.8229 46.5779Z" fill="#14142B"/>
<path d="M72.5817 37.9046C72.4952 38.1459 71.6164 38.0342 70.5862 38.1603C69.5561 38.2864 68.7204 38.5709 68.5836 38.3548C68.5223 38.254 68.6664 38.027 69.0014 37.7965C69.4486 37.509 69.9554 37.3272 70.4834 37.2648C71.0114 37.2024 71.5467 37.2611 72.0486 37.4363C72.4412 37.6056 72.6321 37.7929 72.5817 37.9046Z" fill="#14142B"/>
<path d="M80.506 36.7195C80.3511 36.9177 79.746 36.7195 79.0148 36.7195C78.2836 36.7195 77.6713 36.8564 77.5308 36.6475C77.466 36.5467 77.5633 36.3486 77.8334 36.1577C78.1949 35.9315 78.6152 35.8173 79.0414 35.8295C79.4676 35.8417 79.8807 35.9797 80.2286 36.2261C80.506 36.417 80.5816 36.6223 80.506 36.7195Z" fill="#14142B"/>
<path d="M59.035 52.4526C59.9132 52.6301 60.8211 52.5963 61.6837 52.3539C62.5463 52.1116 63.3389 51.6675 63.9961 51.0585C64.6533 50.4495 65.1563 49.6929 65.4636 48.8513C65.7708 48.0096 65.8736 47.1069 65.7633 46.2177C65.5652 44.6509 64.7223 43.0624 65.2662 41.5785C65.9866 39.6226 68.7276 39.0211 69.4552 37.0653C69.8766 35.9307 69.4984 34.6016 69.9775 33.4886C70.4277 32.4441 71.5299 31.8426 72.6033 31.4536C73.6766 31.0646 74.822 30.798 75.7225 30.0993C76.623 29.4005 77.1813 28.0822 76.6014 27.0989C71.8443 27.6696 67.1722 28.805 62.6837 30.481C61.6427 30.8701 60.5514 31.3383 59.9354 32.2604C59.2871 33.2401 59.3195 34.5008 59.3735 35.675C59.6401 41.3948 58.7684 46.7508 59.035 52.4706" fill="#14142B"/>
<path d="M57.5187 50.6588C57.4825 50.6534 57.4472 50.6425 57.4143 50.6264C57.3115 50.5906 57.2135 50.5422 57.1225 50.4823C56.7716 50.2553 56.4959 49.9295 56.3301 49.5458C56.0575 48.9395 55.9844 48.2622 56.1212 47.6116C56.3381 46.7664 56.7322 45.9769 57.2774 45.2956C57.8357 44.5176 58.5453 43.7288 59.0279 42.7239C59.2853 42.2132 59.429 41.6529 59.4493 41.0814C59.4285 40.4748 59.3068 39.8759 59.0891 39.3093C58.8464 38.6967 58.7182 38.0447 58.711 37.3859C58.7458 36.6809 58.9528 35.9952 59.3138 35.3886C59.6749 34.7821 60.179 34.2732 60.782 33.9064C61.4289 33.5535 62.1462 33.3493 62.8819 33.3085C63.5939 33.2736 64.299 33.1527 64.9818 32.9483C65.623 32.7056 66.1499 32.2314 66.4586 31.6192C66.7528 31.017 66.9869 30.3872 67.1574 29.7391C67.3396 29.1172 67.5808 28.5141 67.8778 27.9381C68.4193 26.8461 69.244 25.9194 70.2658 25.2547C71.168 24.6875 72.2236 24.4132 73.2878 24.4695C74.1692 24.5151 75.0089 24.8593 75.6686 25.4456C76.1605 25.8878 76.527 26.4518 76.7312 27.0809C76.8639 27.4746 76.9142 27.8915 76.8789 28.3055C76.8715 28.4495 76.8473 28.5921 76.8068 28.7305C76.8068 28.7305 76.832 28.5828 76.8429 28.3019C76.8601 27.8942 76.799 27.4871 76.6628 27.1025C76.4148 26.3946 75.9596 25.7778 75.3565 25.332C74.7533 24.8862 74.03 24.6321 73.2806 24.6028C72.2458 24.5572 71.2221 24.8313 70.3487 25.388C69.3543 26.0414 68.5534 26.9493 68.029 28.0174C67.7381 28.5935 67.504 29.1967 67.3303 29.8183C67.1544 30.4782 66.913 31.1189 66.6099 31.7309C66.4429 32.0476 66.2251 32.3348 65.9652 32.5809C65.6964 32.8298 65.3804 33.0221 65.0359 33.1464C64.3341 33.3627 63.6081 33.491 62.8747 33.5282C62.1657 33.5656 61.474 33.7613 60.8505 34.1009C60.274 34.4507 59.7917 34.9362 59.4458 35.515C59.0999 36.0938 58.9008 36.7485 58.8658 37.4219C58.8722 38.0605 58.9943 38.6926 59.226 39.2877C59.4552 39.8716 59.5832 40.4904 59.6042 41.1174C59.5799 41.712 59.4276 42.2944 59.1576 42.8247C58.6533 43.8549 57.9365 44.6257 57.3747 45.4073C56.8323 46.0693 56.437 46.8392 56.2148 47.6657C56.0713 48.2945 56.1306 48.9527 56.3841 49.5458C56.5399 49.9237 56.7997 50.2497 57.1333 50.4859C57.3747 50.6084 57.5223 50.6444 57.5187 50.6588Z" fill="#455A64"/>
<path d="M76.0288 22.8846C76.1162 22.8911 76.2011 22.9169 76.2773 22.9603C76.4935 23.052 76.6959 23.1732 76.8788 23.3205C77.5064 23.8074 77.9221 24.5175 78.0395 25.303C78.1569 26.0886 77.9669 26.8892 77.5092 27.5383C77.3761 27.7317 77.2188 27.9073 77.0409 28.0606C76.9113 28.1686 76.832 28.2154 76.8248 28.2046C77.0279 27.9745 77.2191 27.734 77.3975 27.4843C77.8034 26.8513 77.9662 26.0927 77.8556 25.349C77.745 24.6052 77.3685 23.9268 76.796 23.4393C76.5512 23.2398 76.295 23.0546 76.0288 22.8846Z" fill="#455A64"/>
<path d="M90.1408 66.6008C90.2168 66.3793 90.2781 66.1531 90.3245 65.9237C90.4089 65.2949 90.2996 64.6553 90.0112 64.0903C89.5668 63.2609 88.86 62.6022 88.0013 62.2173C87.4989 61.9796 86.974 61.7926 86.4345 61.659C85.8726 61.5149 85.2783 61.3961 84.684 61.2016C84.0859 61.0386 83.5345 60.7376 83.0739 60.3227C82.6614 59.9097 82.3946 59.3736 82.3139 58.7955C82.2167 58.2588 82.1843 57.751 82.0654 57.2971C81.9589 56.8773 81.7608 56.4861 81.4855 56.1517C81.0826 55.6619 80.5476 55.2981 79.9439 55.1036C79.5153 54.9739 79.2595 54.9739 79.2595 54.9523C79.3206 54.9462 79.3821 54.9462 79.4432 54.9523C79.6194 54.9645 79.7942 54.9922 79.9655 55.0351C80.5972 55.2094 81.162 55.5695 81.5863 56.0689C81.883 56.4142 82.0984 56.8216 82.2167 57.2611C82.3463 57.733 82.386 58.248 82.4868 58.7667C82.5609 59.3134 82.8142 59.8202 83.2072 60.2075C83.6489 60.5996 84.1753 60.8844 84.7452 61.0395C85.3251 61.2268 85.9194 61.3493 86.4849 61.4969C87.0316 61.6307 87.5628 61.8214 88.0697 62.066C88.9569 62.4722 89.6805 63.1666 90.1228 64.0363C90.4112 64.6272 90.5045 65.2943 90.3894 65.9417C90.3551 66.1143 90.3007 66.2823 90.2273 66.4423C90.204 66.498 90.175 66.5511 90.1408 66.6008Z" fill="#455A64"/>
<path d="M62.4352 55.3197C59.1935 54.4553 56.42 51.2964 55.2891 48.152C54.1581 45.0075 54.1581 41.5749 54.4498 38.2468C54.6587 35.8371 55.0837 33.287 56.683 31.4716C59.0963 28.7342 61.7256 27.3366 65.3563 27.4519" fill="#14142B"/>
<path d="M81.2731 62.3433L78.2655 61.5869C78.5934 61.3615 78.8324 61.0289 78.9415 60.6463C79.0507 60.2637 79.023 59.8551 78.8634 59.4906C78.673 59.0235 78.3581 58.6176 77.9528 58.3172C77.5476 58.0168 77.0677 57.8334 76.5654 57.7869L62.8566 56.2381C62.617 56.2062 62.3735 56.2555 62.1652 56.3783C61.9569 56.501 61.7958 56.6901 61.7076 56.9153C61.1001 58.4617 61.0797 59.7343 61.6464 60.7333H61.5816L58.9378 61.2591L54.457 100.786L83.8052 99.4139L81.2731 62.3433Z" fill="#F5F5F5"/>
<path d="M76.9579 61.7383C76.7779 61.7909 76.5934 61.827 76.4068 61.8463C76.0466 61.9039 75.5316 61.9652 74.8904 62.03C71.5351 62.3417 68.1525 62.1731 64.8448 61.5293C64.2108 61.4033 63.703 61.288 63.3536 61.1944C63.17 61.1588 62.9903 61.1057 62.8169 61.0359C63.0029 61.0495 63.1873 61.0797 63.368 61.1259C63.7282 61.1944 64.236 61.2916 64.87 61.3997C68.1743 61.9683 71.5352 62.1352 74.8796 61.8967C75.5208 61.8535 76.0394 61.8067 76.3996 61.7707C76.5846 61.7453 76.7712 61.7344 76.9579 61.7383Z" fill="#14142B"/>
<path d="M63.6921 68.02C63.9809 67.4204 64.3245 66.8489 64.7187 66.3127C65.0627 65.7425 65.4595 65.2059 65.9037 64.7098C65.6145 65.3099 65.2696 65.8815 64.8736 66.4171C64.5314 66.9876 64.1358 67.5243 63.6921 68.02Z" fill="#E0E0E0"/>
<path d="M73.1508 68.6899C72.2353 67.7499 71.4115 66.7247 70.6907 65.6283C71.1705 66.0774 71.6071 66.5706 71.9946 67.1015C72.4304 67.5923 72.8176 68.1243 73.1508 68.6899Z" fill="#E0E0E0"/>
<path d="M68.7564 73.7146C68.5493 73.0738 68.401 72.4156 68.3133 71.748C68.1634 71.0915 68.0778 70.422 68.0576 69.7489C68.2652 70.3895 68.4135 71.0478 68.5006 71.7155C68.6465 72.3727 68.7321 73.0418 68.7564 73.7146Z" fill="#E0E0E0"/>
<path d="M75.9782 74.0243C75.4697 74.6567 74.9134 75.2492 74.3141 75.7964C73.7576 76.389 73.1555 76.937 72.5132 77.4353C73.0216 76.8028 73.5779 76.2103 74.1773 75.6632C74.7361 75.073 75.3381 74.5252 75.9782 74.0243Z" fill="#E0E0E0"/>
<path d="M66.2928 80.7599C64.9655 79.9668 63.8844 78.8209 63.1699 77.4497C63.2203 77.4173 63.7714 78.2818 64.6395 79.193C65.5075 80.1043 66.3288 80.713 66.2928 80.7599Z" fill="#E0E0E0"/>
<path d="M69.4049 85.9609C69.4049 86.015 68.5837 86.2779 67.6328 86.7858C66.6819 87.2936 65.9867 87.8267 65.9507 87.7799C66.404 87.2945 66.9455 86.8997 67.5463 86.6165C68.1176 86.2799 68.7488 86.0573 69.4049 85.9609Z" fill="#E0E0E0"/>
<path d="M74.4654 86.2959C74.2507 86.1141 74.0585 85.9073 73.8927 85.68C73.5613 85.2838 73.1183 84.7183 72.6573 84.0736C72.1962 83.4288 71.8072 82.8273 71.5371 82.3807C71.3763 82.1498 71.2433 81.9007 71.1409 81.6387C71.3325 81.8442 71.5026 82.0687 71.6487 82.3086L72.8121 83.9655L73.9972 85.6007C74.1774 85.8153 74.3343 86.0483 74.4654 86.2959Z" fill="#E0E0E0"/>
<path d="M74.9735 90.7334C74.2734 90.9789 73.5488 91.1479 72.8123 91.2377C72.0839 91.3896 71.3413 91.4633 70.5972 91.4574C71.3166 91.2765 72.0469 91.1418 72.7835 91.054C73.5065 90.9038 74.2378 90.7968 74.9735 90.7334Z" fill="#E0E0E0"/>
<path d="M66.7789 61.18C66.7537 61.18 66.9266 60.9639 67.0743 60.5821C67.2572 60.0825 67.3117 59.545 67.2328 59.0189C67.1434 58.4887 66.9872 57.9719 66.7681 57.4809C66.662 57.2799 66.5798 57.0671 66.5232 56.8469C66.6736 57.0196 66.7952 57.2154 66.8834 57.4268C67.1454 57.9149 67.3243 58.4432 67.4129 58.9901C67.5 59.5484 67.4237 60.1201 67.1931 60.6361C67.1127 60.8548 66.9684 61.0443 66.7789 61.18Z" fill="#E0E0E0"/>
<path d="M72.261 58.2192C72.5179 58.5729 72.7014 58.9742 72.801 59.3998C72.9006 59.8253 72.9142 60.2665 72.8409 60.6973C72.7869 60.6973 72.7797 60.1246 72.6176 59.4439C72.4555 58.7631 72.2214 58.2481 72.261 58.2192Z" fill="#E0E0E0"/>
<path d="M96.9881 86.3824L110.639 62.4046L112.285 58.2444C112.285 58.2444 116.543 49.0956 116.838 48.1591C117.18 47.0786 117.782 46.9921 118.171 47.1434C118.776 47.3847 118.97 48.2852 118.704 49.2181C118.61 49.5387 116.957 54.5669 116.957 54.5669C117.402 54.1837 117.873 53.8333 118.369 53.5187C119.417 52.7984 121.337 52.8344 123.116 53.4683C124.896 54.1022 125.335 54.4372 125.122 55.136C125.075 55.2671 125 55.3861 124.9 55.4839C124.801 55.5818 124.681 55.6562 124.55 55.7015C124.131 55.8765 123.661 55.8867 123.235 55.7303C120.375 54.7578 119.107 56.0473 119.107 56.0473L118.895 56.5911C118.895 56.5911 121.056 55.9032 122.266 56.8757C122.447 57.0184 122.598 57.1945 122.713 57.3944C123.104 57.5223 123.456 57.7503 123.732 58.0558C124.009 58.3612 124.201 58.7336 124.289 59.136C124.378 59.5384 124.359 59.9569 124.236 60.3502C124.113 60.7434 123.89 61.0977 123.588 61.3781C123.457 61.5277 123.283 61.634 123.09 61.6828C122.897 61.7317 122.694 61.7209 122.507 61.6518C122.333 61.5329 122.192 61.3702 122.1 61.1799C122.042 61.0847 121.976 60.9944 121.902 60.9098L121.088 62.3506C121.088 62.3506 119.082 65.4842 118.362 66.9502L108.961 91.9941C108.652 92.8185 108.181 93.5731 107.577 94.2138C106.974 94.8545 106.248 95.3684 105.443 95.7255C104.638 96.0826 103.771 96.2758 102.89 96.2938C102.01 96.3117 101.135 96.1541 100.316 95.8301C99.4328 95.4813 98.6346 94.9469 97.9757 94.2629C97.3167 93.5789 96.8124 92.7613 96.4968 91.8655C96.1813 90.9697 96.0618 90.0165 96.1466 89.0705C96.2313 88.1245 96.5183 87.2078 96.9881 86.3824Z" fill="#FFBE9D"/>
<path d="M111.579 62.3218C112.062 62.6387 112.728 62.4226 113.161 62.048C113.593 61.6734 113.881 61.1583 114.299 60.7513C115.513 59.5375 117.54 59.4222 118.704 58.1508C118.866 57.9743 119.01 57.7041 118.87 57.5096C118.729 57.3151 118.47 57.3511 118.254 57.3944L112.667 58.5002" fill="#FFBE9D"/>
<path d="M112.667 58.5002C112.856 58.4149 113.054 58.3544 113.258 58.3201C113.643 58.2228 114.205 58.0968 114.897 57.9599L117.332 57.4448L118.052 57.2971C118.33 57.1956 118.636 57.2059 118.906 57.326C118.983 57.3831 119.041 57.462 119.073 57.5524C119.105 57.6429 119.11 57.7409 119.086 57.8338C119.049 57.9864 118.974 58.1274 118.87 58.2444C118.681 58.4528 118.47 58.6389 118.239 58.7991C117.31 59.4439 116.291 59.7068 115.477 60.1354C115.088 60.3189 114.731 60.562 114.418 60.8558C114.13 61.1331 113.903 61.4501 113.665 61.7203C113.494 61.9586 113.273 62.1566 113.017 62.3003C112.761 62.444 112.477 62.5301 112.185 62.5523C111.756 62.5523 111.579 62.3398 111.594 62.3362C111.781 62.4005 111.979 62.431 112.177 62.4262C112.443 62.3822 112.697 62.2837 112.922 62.1368C113.148 61.9898 113.341 61.7977 113.488 61.5726C113.719 61.2578 113.966 60.9548 114.227 60.6649C114.553 60.3413 114.929 60.0714 115.34 59.8653C116.179 59.4114 117.195 59.1449 118.052 58.5326C118.259 58.3859 118.449 58.2181 118.621 58.0319C118.78 57.8554 118.834 57.6429 118.722 57.5817C118.61 57.5205 118.362 57.5493 118.113 57.5997L117.393 57.733L114.944 58.1832C114.245 58.3057 113.679 58.3993 113.287 58.4569C113.084 58.5037 112.875 58.5183 112.667 58.5002Z" fill="#EB996E"/>
<path d="M118.819 56.5984C118.962 56.264 119.182 55.9679 119.46 55.7339C119.772 55.5001 120.151 55.3737 120.541 55.3737C121.031 55.3767 121.517 55.4569 121.981 55.6115C122.456 55.7717 122.946 55.8827 123.444 55.9428C123.861 55.9908 124.284 55.9261 124.668 55.7555C124.801 55.6946 124.917 55.6035 125.007 55.4897C125.098 55.3759 125.161 55.2424 125.191 55.1C125.218 54.9998 125.218 54.8941 125.191 54.7938C125.169 54.7938 125.169 54.9019 125.115 55.082C125.076 55.2034 125.01 55.3146 124.923 55.408C124.836 55.5013 124.729 55.5744 124.611 55.6223C124.244 55.7585 123.85 55.803 123.462 55.7519C122.979 55.6759 122.504 55.5553 122.043 55.3917C121.562 55.2334 121.058 55.1555 120.552 55.1612C120.126 55.1711 119.717 55.3233 119.388 55.5934C119.17 55.7748 119.003 56.0093 118.902 56.2742C118.812 56.4867 118.805 56.5948 118.819 56.5984Z" fill="#EB996E"/>
<path d="M118.801 48.8579C118.66 49.1801 118.547 49.514 118.463 49.8556C118.25 50.5472 117.998 51.3684 117.717 52.2761C117.436 53.1838 117.159 53.9978 116.935 54.6858C116.805 55.0121 116.705 55.3497 116.636 55.6943C116.816 55.3909 116.963 55.0698 117.076 54.7362C117.314 54.1311 117.616 53.2954 117.919 52.3409C118.221 51.3864 118.455 50.54 118.607 49.8953C118.708 49.5573 118.773 49.2096 118.801 48.8579Z" fill="#EB996E"/>
<path d="M119.59 58.104C119.7 58.1198 119.811 58.1198 119.921 58.104C120.059 58.0804 120.201 58.0868 120.337 58.1228C120.472 58.1589 120.598 58.2237 120.706 58.3129C120.769 58.379 120.814 58.4601 120.836 58.5485C120.858 58.6368 120.857 58.7293 120.832 58.8171C120.774 59.0384 120.688 59.2514 120.577 59.4511C120.432 59.7016 120.385 59.9964 120.443 60.2795C120.493 60.4295 120.576 60.566 120.688 60.6779C120.799 60.7899 120.935 60.8742 121.085 60.9242C121.232 60.9711 121.388 60.9873 121.542 60.9718C121.697 60.9563 121.846 60.9095 121.981 60.8342C122.234 60.7054 122.441 60.5032 122.576 60.2543C122.771 59.8438 122.904 59.4069 122.972 58.9576C123.025 58.6561 123.025 58.3478 122.972 58.0463C122.961 57.9331 122.917 57.8255 122.846 57.7366C122.828 57.7366 122.875 57.8518 122.893 58.0571C122.908 58.351 122.883 58.6456 122.817 58.9324C122.732 59.3582 122.591 59.7711 122.399 60.1606C122.282 60.38 122.095 60.5543 121.869 60.6566C121.642 60.7589 121.388 60.7833 121.146 60.7261C121.027 60.6878 120.919 60.6222 120.83 60.5347C120.742 60.4471 120.674 60.34 120.634 60.2219C120.587 59.9866 120.627 59.7422 120.746 59.5339C120.858 59.3158 120.943 59.0848 120.998 58.846C121.022 58.7316 121.017 58.613 120.982 58.5014C120.947 58.3898 120.885 58.2889 120.8 58.2084C120.675 58.1093 120.528 58.0408 120.372 58.0083C120.216 57.9758 120.054 57.9802 119.9 58.0211C119.793 58.0318 119.688 58.0598 119.59 58.104Z" fill="#EB996E"/>
<path d="M121.946 60.6253C121.946 60.6253 121.877 60.719 121.884 60.9207C121.894 61.0622 121.938 61.1994 122.01 61.3213C122.083 61.4433 122.183 61.5466 122.302 61.623C122.487 61.7292 122.696 61.7851 122.909 61.7851C123.122 61.7851 123.331 61.7292 123.516 61.623C123.96 61.3669 124.288 60.9486 124.431 60.456C124.588 59.9738 124.588 59.4543 124.431 58.972C124.303 58.5823 124.073 58.234 123.765 57.9635C123.561 57.7816 123.325 57.6399 123.069 57.5457C122.978 57.502 122.879 57.4799 122.778 57.4809C123.099 57.6363 123.397 57.8351 123.664 58.0716C123.966 58.3664 124.179 58.74 124.28 59.15C124.381 59.56 124.364 59.99 124.233 60.3912C124.104 60.8338 123.815 61.2126 123.422 61.4538C123.265 61.5459 123.088 61.5968 122.906 61.6018C122.724 61.6069 122.543 61.5658 122.381 61.4826C122.274 61.42 122.181 61.3352 122.109 61.234C122.037 61.1328 121.988 61.0174 121.964 60.8955C121.928 60.737 121.964 60.6253 121.946 60.6253Z" fill="#EB996E"/>
<path d="M117.4 62.8873C117.257 62.7909 117.089 62.7395 116.917 62.7396C116.478 62.6968 116.037 62.802 115.664 63.0385L115.819 63.143C115.867 62.9052 115.901 62.6646 115.92 62.4226C116.046 61.0323 115.603 59.9589 115.559 59.9877C115.698 60.7854 115.75 61.5958 115.714 62.4046C115.697 62.6354 115.667 62.8651 115.624 63.0926L115.581 63.3267L115.779 63.1934C116.116 62.9731 116.511 62.8555 116.914 62.8549C117.213 62.8621 117.393 62.9125 117.4 62.8873Z" fill="#EB996E"/>
<path d="M120.242 54.3435C120.184 54.3435 120.264 54.7757 120.645 55.1071C121.027 55.4385 121.456 55.4673 121.456 55.4061C121.456 55.3448 121.114 55.2404 120.786 54.9486C120.458 54.6569 120.3 54.3219 120.242 54.3435Z" fill="#EB996E"/>
<path d="M77.6243 106.279L91.9057 106.42L89.5105 96.0571L90.3137 98.0129C91.0541 99.8187 92.3149 101.363 93.9357 102.451C95.5565 103.538 97.464 104.118 99.4157 104.118C103.932 104.118 107.055 100.758 108.964 96.6658C113.431 87.0992 117.735 71.6939 117.735 71.6939L109.029 64.0435C102.726 75.9658 96.8043 86.3176 96.8043 86.3176C96.8043 86.3176 95.0934 81.1201 93.7715 76.4808C92.4496 71.8416 92.4604 69.4067 90.4326 67.0943C87.3097 63.5357 82.8686 62.6532 78.7336 61.587L78.5788 80.8355L77.6243 106.279Z" fill="#4B9EF9"/>
<path d="M61.2826 91.9618L87.2883 97.0044L88.5525 106.996H48.6796C47.5882 107.009 46.5059 106.795 45.5019 106.367C44.4979 105.939 43.5942 105.306 42.8486 104.508C42.1029 103.711 41.5317 102.767 41.1713 101.737C40.8109 100.707 40.6693 99.6126 40.7555 98.5244C41.3282 91.2414 41.9513 82.2727 42.4268 78.4799C42.7869 75.5228 43.9756 72.4648 45.3695 69.8354C47.383 66.0462 54.0933 61.1909 59.9752 60.9387L61.0881 85.7089" fill="#4B9EF9"/>
<g opacity="0.4">
<path d="M77.6245 106.279L91.906 106.42L89.5107 96.0571L90.314 98.0129C91.0543 99.8187 92.3151 101.363 93.9359 102.451C95.5567 103.538 97.4643 104.118 99.4159 104.118C103.933 104.118 107.056 100.758 108.965 96.6658C113.431 87.0992 117.735 71.6939 117.735 71.6939L109.029 64.0435C102.726 75.9658 96.8046 86.3176 96.8046 86.3176C96.8046 86.3176 95.0937 81.1201 93.7718 76.4808C92.4499 71.8416 92.4607 69.4067 90.4328 67.0943C87.31 63.5357 82.8689 62.6532 78.7339 61.587L78.579 80.8355L77.6245 106.279Z" fill="black"/>
<path d="M61.2826 91.9618L84.7381 96.2624C85.2161 96.3509 85.657 96.5792 86.0052 96.9184C86.3533 97.2575 86.593 97.6924 86.694 98.1678L88.5525 107.018H48.6796C47.5882 107.031 46.5059 106.817 45.5019 106.388C44.4979 105.96 43.5942 105.327 42.8486 104.53C42.1029 103.733 41.5317 102.789 41.1713 101.759C40.8109 100.728 40.6693 99.6342 40.7555 98.546C41.3282 91.263 41.9513 82.2943 42.4268 78.5015C42.7869 75.5444 43.9756 72.4864 45.3695 69.857C47.383 66.0678 54.0933 61.2125 59.9752 60.9603L61.0881 85.7305" fill="black"/>
</g>
<path d="M56.33 91.2197C56.3207 91.1408 56.3207 91.061 56.33 90.982C56.33 90.8055 56.33 90.5786 56.33 90.3012C56.33 89.6853 56.33 88.8353 56.33 87.7799C56.33 85.6656 56.2904 82.7373 56.1283 79.5208C56.0454 77.9071 55.941 76.3727 55.8293 74.9824C55.7771 73.7483 55.6021 72.5224 55.307 71.3229C55.101 70.5223 54.7086 69.7817 54.1617 69.1618C53.9499 68.9454 53.7262 68.741 53.4917 68.5494C53.7667 68.6909 54.0162 68.8771 54.2301 69.1005C54.8132 69.716 55.233 70.4676 55.4511 71.2869C55.7657 72.496 55.954 73.7345 56.013 74.9824C56.1355 76.3763 56.2435 77.9107 56.3264 79.5244C56.4921 82.7661 56.5101 85.68 56.4741 87.8087C56.4525 88.8677 56.4236 89.7249 56.3984 90.3301L56.3588 91.0108C56.3574 91.0813 56.3477 91.1515 56.33 91.2197Z" fill="#14142B"/>
<path d="M86.784 97.7247C86.5097 97.4217 86.1902 97.1629 85.8367 96.9575C85.4165 96.7285 84.9702 96.5508 84.5076 96.4281C83.971 96.2732 83.3406 96.1543 82.6455 96.0138C79.8648 95.4447 76.0288 94.6559 71.7786 93.8527C67.5283 93.0495 63.6599 92.412 60.8613 91.9653L57.5439 91.4358L56.6434 91.2846C56.5374 91.2715 56.4326 91.2499 56.3301 91.2197C56.4364 91.2203 56.5424 91.2299 56.647 91.2485L57.5547 91.3638C58.3399 91.4683 59.4781 91.6267 60.8793 91.8356C63.6851 92.2535 67.5572 92.873 71.811 93.669C76.0648 94.465 79.9008 95.2719 82.6707 95.8698C83.3658 96.021 83.9962 96.1507 84.5365 96.3164C85.0042 96.4487 85.4532 96.64 85.8728 96.8855C86.1423 97.0377 86.3855 97.2323 86.5931 97.4618C86.6485 97.5187 86.6991 97.5802 86.7444 97.6455C86.7696 97.6887 86.7876 97.7247 86.784 97.7247Z" fill="#14142B"/>
<path d="M56.4091 91.2197C56.4091 91.2521 55.9301 91.3638 55.1881 91.6664C54.7549 91.8454 54.3338 92.0523 53.9274 92.2859C53.436 92.5789 52.9676 92.9088 52.5263 93.2728C52.0971 93.6448 51.6973 94.0494 51.3305 94.483C51.0286 94.8405 50.7518 95.2184 50.502 95.614C50.077 96.2948 49.8825 96.7558 49.8501 96.7414C49.8725 96.6254 49.91 96.5127 49.9618 96.4064C50.0845 96.1105 50.2264 95.823 50.3868 95.5456C50.6273 95.1345 50.8982 94.742 51.1972 94.3714C51.9366 93.4643 52.841 92.7054 53.8626 92.1346C54.2764 91.901 54.7089 91.7022 55.1557 91.5403C55.4561 91.4282 55.7643 91.3379 56.0778 91.2701C56.1853 91.2379 56.2969 91.2209 56.4091 91.2197Z" fill="#14142B"/>
<path d="M89.9897 97.4438C89.9649 97.3626 89.9469 97.2795 89.9357 97.1953C89.9069 97.0152 89.8673 96.7775 89.8204 96.4749C89.7196 95.8518 89.5863 94.9513 89.435 93.8347C89.1325 91.6052 88.7651 88.5147 88.4553 85.0929C88.1456 81.6712 87.9619 78.5663 87.861 76.3151C87.8106 75.1914 87.7818 74.2801 87.7674 73.6498C87.7674 73.3496 87.7674 73.1095 87.7674 72.9294C87.7595 72.8455 87.7595 72.7611 87.7674 72.6772C87.7868 72.7599 87.7965 72.8445 87.7962 72.9294L87.843 73.6498C87.8826 74.2981 87.9331 75.2022 87.9979 76.3079C88.1312 78.5555 88.3401 81.6568 88.6462 85.0749C88.9524 88.4931 89.3018 91.5836 89.5719 93.8167C89.7052 94.9189 89.8168 95.8158 89.8961 96.4641C89.9285 96.7631 89.9573 97.0008 89.9789 97.1845C89.9935 97.2701 89.9971 97.3573 89.9897 97.4438Z" fill="#14142B"/>
<path d="M98.6126 93.5718C98.6126 93.5718 98.5298 93.4925 98.4037 93.3341C98.2291 93.1042 98.0691 92.8636 97.9247 92.6137C96.9581 90.9639 96.5124 89.0606 96.646 87.1532C96.6641 86.8663 96.7026 86.581 96.7612 86.2996C96.774 86.1945 96.8007 86.0915 96.8405 85.9934C96.8729 85.9934 96.8045 86.44 96.7793 87.1604C96.7191 89.0407 97.1538 90.9038 98.0399 92.5633C98.3785 93.1864 98.6414 93.5502 98.6126 93.5718Z" fill="#14142B"/>
<path d="M56.2254 77.8351C56.2254 77.8351 56.1786 77.8531 56.0922 77.8639C55.9622 77.8848 55.8311 77.8981 55.6995 77.9036C55.2164 77.9239 54.7326 77.8852 54.2588 77.7883C53.5551 77.6469 52.8682 77.432 52.2093 77.1472C51.4637 76.8374 50.6713 76.4268 49.8429 76.027C49.0674 75.6375 48.2644 75.3052 47.4404 75.0329C46.7718 74.8083 46.0768 74.6715 45.3729 74.6259C44.7209 74.6046 44.0693 74.6787 43.4387 74.8456C43.4774 74.8198 43.52 74.8004 43.5648 74.7879C43.6815 74.7369 43.8019 74.6947 43.925 74.6619C44.3945 74.5361 44.8799 74.4803 45.3657 74.4962C46.0849 74.5187 46.7975 74.6399 47.4836 74.8564C48.3183 75.1249 49.1301 75.4597 49.9113 75.8577C50.7433 76.2683 51.5286 76.6717 52.2633 76.9851C52.9102 77.2725 53.5833 77.4968 54.2732 77.655C54.9154 77.7863 55.5701 77.8467 56.2254 77.8351Z" fill="#FAFAFA"/>
<path d="M60.6955 76.9598C60.0036 77.1705 59.2951 77.3223 58.5776 77.4137C57.8668 77.5685 57.1435 77.6589 56.4165 77.6838C57.1084 77.4732 57.8169 77.3214 58.5344 77.23C59.2452 77.075 59.9685 76.9846 60.6955 76.9598Z" fill="#FAFAFA"/>
<path d="M56.0635 84.6895C55.8977 84.783 55.7227 84.859 55.5412 84.9164C55.199 85.0496 54.6984 85.2297 54.0752 85.4314C52.4458 85.9543 50.7827 86.3659 49.0974 86.6633C48.1105 86.8362 47.1632 86.9622 46.2988 87.0487C45.532 87.1477 44.7572 87.1683 43.9863 87.1099C43.4634 87.0677 42.9541 86.922 42.488 86.6813C42.3612 86.6154 42.2407 86.5383 42.1278 86.4508C42.0862 86.4223 42.0486 86.3884 42.0161 86.3499C42.0161 86.3499 42.189 86.4616 42.5168 86.6165C42.9836 86.8273 43.4856 86.9494 43.9972 86.9767C44.7586 87.0161 45.5221 86.9823 46.2771 86.8758C47.138 86.7786 48.0781 86.6489 49.0614 86.476C50.7388 86.1785 52.3982 85.7877 54.032 85.3054C54.6587 85.1181 55.163 84.9452 55.5124 84.8479C55.6919 84.7816 55.8761 84.7286 56.0635 84.6895Z" fill="#FAFAFA"/>
<path d="M60.5767 86.5877C59.9277 86.6908 59.2705 86.733 58.6137 86.7137C57.9588 86.755 57.3016 86.7345 56.6506 86.6525C57.2996 86.5494 57.9568 86.5072 58.6137 86.5264C59.2685 86.4852 59.9257 86.5056 60.5767 86.5877Z" fill="#FAFAFA"/>
<path d="M42.0413 102.998C42.0454 102.932 42.0588 102.866 42.0809 102.803C42.1169 102.659 42.1673 102.483 42.225 102.263L42.333 101.874C42.3798 101.734 42.4411 101.586 42.4987 101.424C42.6282 101.056 42.7773 100.695 42.9453 100.343L43.2371 99.7274C43.3415 99.5113 43.4748 99.3024 43.5973 99.0791C43.8689 98.6068 44.1647 98.1487 44.4833 97.7068C45.9548 95.6724 47.8734 94.0027 50.0915 92.8262C50.5739 92.5713 51.0692 92.3417 51.5754 92.1383C51.8168 92.0482 52.0401 91.9438 52.267 91.8717L52.919 91.6664C53.2924 91.5474 53.6725 91.45 54.0572 91.3747C54.2264 91.3386 54.3813 91.299 54.5254 91.2738L54.9288 91.2198L55.4835 91.1513C55.548 91.1418 55.6135 91.1418 55.678 91.1513C55.6166 91.1748 55.5524 91.1906 55.4871 91.1982L54.9396 91.3026L54.5434 91.371L54.0788 91.4863C53.7474 91.5764 53.3584 91.652 52.9586 91.8033L52.3174 92.0194C52.0941 92.095 51.8708 92.1995 51.6367 92.2931C51.1379 92.5001 50.6498 92.7321 50.1743 92.9883C49.0912 93.5874 48.0715 94.2946 47.1307 95.099C46.2015 95.9189 45.3569 96.83 44.6094 97.8184C44.2852 98.2867 43.9647 98.7261 43.7197 99.1691C43.5937 99.3889 43.4604 99.5942 43.3595 99.8067L43.057 100.412C42.8517 100.794 42.7256 101.161 42.5887 101.492C42.5275 101.651 42.4627 101.799 42.4123 101.935L42.2862 102.317L42.1097 102.847C42.0924 102.899 42.0695 102.95 42.0413 102.998Z" fill="#FAFAFA"/>
<path d="M60.1048 91.9329C59.5023 92.4562 59.0017 93.0863 58.628 93.7914C58.2351 94.5623 57.9561 95.3861 57.7996 96.2371C57.6133 97.2839 57.493 98.3413 57.4394 99.4032C57.3945 100.473 57.2741 101.538 57.0792 102.591C56.9028 103.454 56.598 104.285 56.1751 105.058C55.8927 105.576 55.5277 106.044 55.0945 106.445C54.9766 106.554 54.8501 106.654 54.7163 106.744C54.6263 106.805 54.5759 106.837 54.5723 106.83C55.1856 106.319 55.6965 105.695 56.0779 104.993C56.4769 104.227 56.7632 103.407 56.9279 102.558C57.1196 101.512 57.24 100.455 57.2881 99.3924C57.3349 98.3216 57.4552 97.2553 57.6483 96.2011C57.816 95.3381 58.1123 94.5052 58.5271 93.7302C58.8102 93.2074 59.175 92.7332 59.6077 92.3255C59.721 92.2169 59.8414 92.1158 59.9679 92.0229C60.0095 91.9872 60.0555 91.9569 60.1048 91.9329Z" fill="#FAFAFA"/>
<path d="M66.2531 107.057C66.2027 107.057 66.2531 103.952 66.3864 100.127C66.5196 96.302 66.6565 93.2008 66.7069 93.2008C66.7574 93.2008 66.7069 96.3056 66.5737 100.134C66.4404 103.963 66.3035 107.061 66.2531 107.057Z" fill="#FAFAFA"/>
<path d="M76.0287 106.524C75.9609 106.38 75.9078 106.229 75.8702 106.074C75.8117 105.896 75.7625 105.716 75.7225 105.534C75.6757 105.321 75.6108 105.08 75.5712 104.813C75.4592 104.178 75.3954 103.535 75.3803 102.89C75.3449 101.305 75.5888 99.7259 76.1007 98.2254C76.3094 97.6141 76.5634 97.0194 76.8607 96.446C76.9796 96.1975 77.1128 95.9886 77.2209 95.8013C77.3124 95.6382 77.4134 95.4807 77.5234 95.3294C77.6038 95.192 77.6992 95.0639 77.808 94.9476C77.8404 94.9656 77.4478 95.5239 76.976 96.5072C76.696 97.081 76.4553 97.673 76.2556 98.2794C75.7622 99.7645 75.5188 101.321 75.5352 102.886C75.5434 103.524 75.5927 104.16 75.6829 104.792C75.863 105.865 76.0647 106.513 76.0287 106.524Z" fill="#FAFAFA"/>
<path d="M59.4278 66.7161C59.4278 66.745 58.8587 66.4964 57.9222 66.1939C55.4829 65.4064 52.8979 65.1775 50.3582 65.5239C49.3857 65.6572 48.7914 65.8085 48.7842 65.7761C48.9133 65.7137 49.0502 65.6689 49.1912 65.6428C49.568 65.5386 49.9504 65.4556 50.3366 65.3943C52.8955 64.9691 55.5205 65.2008 57.9654 66.0678C58.3327 66.1974 58.6934 66.3452 59.046 66.5108C59.1812 66.5633 59.3094 66.6323 59.4278 66.7161Z" fill="#FAFAFA"/>
<path d="M87.8826 81.8764C87.4372 81.8997 86.9907 81.8924 86.5462 81.8548C85.7214 81.8224 84.5832 81.7792 83.3262 81.7504C82.0691 81.7216 80.9309 81.7035 80.1061 81.6963C79.6601 81.7105 79.2137 81.6949 78.7698 81.6495C78.8878 81.6216 79.0087 81.6071 79.13 81.6063C79.3605 81.6063 79.6955 81.5739 80.1097 81.5631C80.9345 81.5379 82.0727 81.5307 83.3334 81.5631C84.594 81.5955 85.7322 81.6603 86.5751 81.7288C86.9857 81.7612 87.3171 81.79 87.5476 81.8188C87.661 81.826 87.7733 81.8453 87.8826 81.8764Z" fill="#FAFAFA"/>
<path d="M94.9926 80.5114C94.9926 80.5438 94.5423 80.6987 93.84 81.0444C92.0026 81.9483 90.4462 83.3354 89.3376 85.0569C88.9126 85.7161 88.7073 86.1555 88.6785 86.1375C88.6985 86.0238 88.7375 85.9142 88.7937 85.8133C88.9199 85.5271 89.0643 85.2491 89.2259 84.9813C89.7543 84.0907 90.4178 83.2875 91.1926 82.6005C91.9653 81.9114 92.8386 81.3441 93.7823 80.9184C94.0671 80.7902 94.3594 80.6795 94.6576 80.587C94.7655 80.5473 94.8781 80.5219 94.9926 80.5114Z" fill="#FAFAFA"/>
<path d="M91.4843 68.9672C90.8642 68.946 90.2451 69.0325 89.6546 69.223C89.0172 69.4455 88.3991 69.7202 87.8068 70.0442C87.0756 70.4495 86.3117 70.7929 85.5232 71.0707C84.0657 71.5377 82.5155 71.6379 81.01 71.3625C80.5576 71.2804 80.113 71.1599 79.681 71.0023C79.5194 70.9517 79.3636 70.8841 79.2163 70.8006C79.2163 70.7646 79.8935 71.0491 81.0173 71.2328C82.5017 71.4646 84.0198 71.3474 85.4512 70.8906C86.2307 70.6148 86.9881 70.2801 87.7168 69.8893C88.3197 69.5693 88.9502 69.3041 89.6006 69.0969C90.0429 68.9565 90.5053 68.8895 90.9693 68.8988C91.09 68.9023 91.2104 68.9144 91.3295 68.9348C91.4411 68.9492 91.4879 68.96 91.4843 68.9672Z" fill="#FAFAFA"/>
<path d="M89.687 93.1071C89.5564 93.1901 89.416 93.2566 89.2691 93.3052C89.1323 93.3629 88.963 93.4313 88.7613 93.4961C88.5596 93.561 88.3326 93.6474 88.0769 93.7122C87.4738 93.8803 86.8601 94.0079 86.24 94.094C85.4805 94.1924 84.7147 94.2322 83.9492 94.2129C83.1839 94.1844 82.4217 94.099 81.6692 93.9572C81.0583 93.8338 80.4566 93.6689 79.8682 93.4637C79.6125 93.3845 79.3928 93.2872 79.1983 93.208C79.0038 93.1287 78.8381 93.0531 78.7012 92.9883C78.5579 92.9287 78.4214 92.8538 78.2942 92.7649C78.2942 92.7325 78.9029 93.0207 79.9114 93.3376C80.502 93.5235 81.1034 93.6726 81.7124 93.7843C83.2022 94.0601 84.7254 94.1063 86.2292 93.9212C86.843 93.8457 87.4517 93.7326 88.0517 93.5826C89.0674 93.3232 89.6761 93.0747 89.687 93.1071Z" fill="#FAFAFA"/>
<path d="M97.9643 103.769C97.9129 103.736 97.8657 103.698 97.8238 103.653C97.741 103.571 97.6041 103.459 97.4636 103.293C97.0287 102.828 96.647 102.316 96.3254 101.766C95.286 99.9242 94.7331 97.8478 94.719 95.7329C94.7214 93.6328 94.9962 91.5419 95.5366 89.5125C95.7311 88.7344 95.8968 88.1077 96.0301 87.6791C96.0913 87.481 96.1417 87.3189 96.1814 87.1856C96.221 87.0524 96.239 87.0127 96.2462 87.0163C96.2454 87.0763 96.2357 87.1358 96.2174 87.1928C96.1886 87.3297 96.1489 87.4954 96.1021 87.6971C95.9941 88.1617 95.8464 88.7777 95.6663 89.5449C95.1691 91.5676 94.9164 93.6427 94.9135 95.7257C94.9251 97.8067 95.4457 99.8533 96.4299 101.687C96.7385 102.236 97.1004 102.754 97.5105 103.232C97.795 103.578 97.9751 103.754 97.9643 103.769Z" fill="#FAFAFA"/>
<path d="M111.072 91.5367C110.496 91.0802 109.853 90.7157 109.166 90.4561C108.414 90.1962 107.644 89.995 106.861 89.8546C105.889 89.6906 104.926 89.4706 103.979 89.1955C102.269 88.6394 100.709 87.7007 99.4158 86.4508C99.0259 86.0737 98.6647 85.668 98.3353 85.237C98.2164 85.0857 98.1372 84.9596 98.0795 84.8768C98.0219 84.794 97.9967 84.7471 98.0039 84.7435C98.1431 84.8838 98.2731 85.033 98.3929 85.1902C98.7385 85.6015 99.1103 85.9901 99.5059 86.3536C100.804 87.5585 102.349 88.4667 104.033 89.0154C104.971 89.2888 105.922 89.5124 106.883 89.6853C107.672 89.8367 108.448 90.0524 109.202 90.3301C109.712 90.5227 110.19 90.7897 110.621 91.1225C110.739 91.211 110.85 91.3086 110.953 91.4142C111.043 91.4935 111.079 91.5331 111.072 91.5367Z" fill="#FAFAFA"/>
<path d="M115.192 79.5171C115.053 79.418 114.924 79.3058 114.807 79.1822C114.688 79.0705 114.544 78.9336 114.364 78.7824C114.184 78.6311 114.003 78.451 113.759 78.2781C113.226 77.8489 112.668 77.4531 112.087 77.0931C110.662 76.2116 109.113 75.5487 107.491 75.1264C106.828 74.9559 106.156 74.8248 105.478 74.7338C105.19 74.687 104.927 74.669 104.696 74.6474C104.466 74.6258 104.264 74.6078 104.102 74.6006C103.932 74.5998 103.762 74.5842 103.594 74.5537C103.762 74.5278 103.932 74.5193 104.102 74.5285C104.302 74.5185 104.503 74.5185 104.703 74.5285C104.934 74.5285 105.204 74.5465 105.496 74.5862C106.181 74.6611 106.861 74.7815 107.531 74.9463C108.351 75.1567 109.155 75.4263 109.937 75.7532C110.712 76.091 111.461 76.4859 112.177 76.9346C112.76 77.3063 113.317 77.7167 113.845 78.1628C114.075 78.3465 114.263 78.523 114.436 78.6959C114.583 78.8302 114.724 78.9721 114.857 79.1209C114.983 79.2406 115.095 79.3735 115.192 79.5171Z" fill="#FAFAFA"/>
<path d="M83.6756 62.9845C83.4642 63.1256 83.2337 63.236 82.9913 63.3123C82.4231 63.5351 81.8392 63.7157 81.2443 63.8526C80.6518 63.9922 80.0499 64.0885 79.4434 64.1407C79.1927 64.1788 78.9377 64.1788 78.687 64.1407C78.687 64.0831 79.8288 63.9894 81.2083 63.6617C82.5879 63.3339 83.654 62.9305 83.6756 62.9845Z" fill="#FAFAFA"/>
<path d="M96.4513 113.713C96.4981 113.874 96.5039 114.044 96.4682 114.207C96.4324 114.371 96.3562 114.523 96.2466 114.649C96.1369 114.776 95.9974 114.873 95.8406 114.931C95.6838 114.99 95.5148 115.008 95.3491 114.985C95.157 114.958 94.977 114.875 94.8312 114.747C94.6853 114.619 94.5799 114.451 94.5279 114.265L94.2217 113.134H94.2686C94.2998 113.297 94.2917 113.465 94.245 113.625C94.1983 113.784 94.1143 113.931 93.9999 114.051C93.8855 114.172 93.7441 114.264 93.5873 114.319C93.4304 114.374 93.2627 114.391 93.0979 114.369C92.6261 114.369 92.2191 113.681 92.0822 113.317C91.7261 113.352 91.3672 113.288 91.0447 113.133C90.7221 112.978 90.4481 112.738 90.2525 112.438L88.1381 109.139L84.2229 106.276L86.5929 97.8147L95.0178 103.268C95.3491 103.527 95.3996 103.628 95.9254 104.122L101.364 109.125C100.748 109.485 100.226 109.467 99.3688 109.125C98.5116 108.782 94.7584 106.243 94.7584 106.243L96.4513 113.681" fill="#FFBE9D"/>
<path d="M89.2441 106.755C89.2441 106.755 89.3414 106.798 89.4927 106.902L89.7736 107.097C89.9071 107.181 90.0283 107.282 90.1338 107.399C90.2585 107.543 90.3562 107.708 90.422 107.886C90.4868 108.077 90.5552 108.271 90.6273 108.476L91.0883 109.831C91.4089 110.796 91.6898 111.668 91.8843 112.305C92.0074 112.643 92.1002 112.992 92.1617 113.346C91.9981 113.025 91.8632 112.69 91.7583 112.345C91.5313 111.718 91.2288 110.854 90.9082 109.892C90.7533 109.413 90.6021 108.956 90.4616 108.534C90.3967 108.325 90.3355 108.127 90.2743 107.94C90.2204 107.775 90.1388 107.62 90.033 107.482C89.9418 107.37 89.8378 107.268 89.7232 107.18L89.4639 106.96C89.309 106.838 89.2369 106.766 89.2441 106.755Z" fill="#EB996E"/>
<path d="M94.3118 113.328C94.2582 113.213 94.2183 113.092 94.1929 112.968L93.9228 112.003C93.6923 111.189 93.3861 110.061 92.9935 108.833C92.6009 107.605 92.1903 106.51 91.6968 105.833C91.5128 105.562 91.2794 105.329 91.0089 105.145C90.8108 105.022 90.6847 104.986 90.6883 104.965C90.7216 104.964 90.7547 104.97 90.7856 104.983C90.8753 105.006 90.9622 105.038 91.0449 105.08C91.344 105.247 91.6033 105.476 91.8049 105.753C92.3416 106.438 92.7738 107.554 93.17 108.775C93.5662 109.996 93.8544 111.145 94.0489 111.97C94.1461 112.381 94.2182 112.716 94.265 112.95C94.2996 113.073 94.3153 113.2 94.3118 113.328Z" fill="#EB996E"/>
<path d="M96.4874 113.84C96.4224 113.72 96.3728 113.593 96.3397 113.461C96.2497 113.173 96.138 112.824 96.0048 112.41C95.731 111.52 95.3672 110.288 94.9746 108.927C94.582 107.565 94.2542 106.369 93.9841 105.433C93.891 105.086 93.689 104.778 93.4078 104.554C93.2938 104.48 93.1732 104.418 93.0476 104.367C93.0831 104.358 93.1201 104.358 93.1557 104.367C93.2567 104.389 93.353 104.43 93.4402 104.486C93.7547 104.702 93.987 105.018 94.0994 105.382C94.3947 106.272 94.7441 107.504 95.1439 108.865C95.5437 110.227 95.8823 111.47 96.1236 112.366C96.2317 112.784 96.3253 113.141 96.3974 113.447C96.441 113.574 96.4712 113.706 96.4874 113.84Z" fill="#EB996E"/>
<path d="M147.67 35.7326C147.67 35.9819 147.744 36.2257 147.883 36.433C148.021 36.6403 148.218 36.8019 148.448 36.8973C148.679 36.9927 148.932 37.0177 149.177 36.969C149.421 36.9204 149.646 36.8003 149.822 36.624C149.999 36.4477 150.119 36.2231 150.167 35.9785C150.216 35.734 150.191 35.4805 150.096 35.2502C150 35.0198 149.839 34.8229 149.631 34.6844C149.424 34.5459 149.18 34.4719 148.931 34.4719C148.596 34.4719 148.276 34.6047 148.039 34.8412C147.803 35.0776 147.67 35.3982 147.67 35.7326Z" fill="#455A64"/>
<path d="M143.884 36.9932C144.581 36.9932 145.145 36.4288 145.145 35.7326C145.145 35.0363 144.581 34.4719 143.884 34.4719C143.188 34.4719 142.624 35.0363 142.624 35.7326C142.624 36.4288 143.188 36.9932 143.884 36.9932Z" fill="#455A64"/>
<path d="M137.592 35.1023C137.467 35.3182 137.409 35.5662 137.426 35.8151C137.442 36.0639 137.531 36.3023 137.683 36.5002C137.835 36.6981 138.042 36.8465 138.278 36.9267C138.514 37.0069 138.769 37.0153 139.01 36.9508C139.25 36.8863 139.467 36.7518 139.631 36.5643C139.796 36.3769 139.901 36.1449 139.933 35.8976C139.966 35.6504 139.924 35.3991 139.814 35.1754C139.704 34.9518 139.53 34.7659 139.314 34.6412C139.17 34.558 139.012 34.5039 138.848 34.4821C138.684 34.4602 138.517 34.471 138.357 34.5139C138.197 34.5567 138.047 34.6307 137.916 34.7317C137.785 34.8327 137.674 34.9586 137.592 35.1023Z" fill="#455A64"/>
<path d="M143.805 21.0045C143.721 20.9982 143.637 20.9982 143.553 21.0045L142.804 21.0261C142.638 21.0261 142.444 21.0261 142.249 21.0513L141.59 21.145L140.819 21.2566L139.955 21.4691C138.474 21.8368 137.064 22.4452 135.78 23.2701C133.882 24.4788 132.285 26.1054 131.111 28.0256C129.938 29.9458 129.219 32.1088 129.009 34.3495C128.952 35.0215 128.939 35.6964 128.969 36.3702C128.994 36.7087 128.987 37.0581 129.038 37.4003C129.088 37.7425 129.142 38.0919 129.192 38.4412C129.456 39.8727 129.93 41.2575 130.597 42.551C131.308 43.9062 132.212 45.1511 133.281 46.2465C134.419 47.3661 135.724 48.3028 137.149 49.0236C138.623 49.778 140.22 50.2658 141.864 50.4643C142.28 50.5264 142.7 50.5613 143.121 50.5688C143.544 50.6007 143.968 50.6091 144.392 50.594C145.248 50.5587 146.098 50.4515 146.935 50.2734C148.742 49.8819 150.461 49.1576 152.003 48.1375L151.852 48.1555L157.013 50.2266L157.32 50.3491L157.233 50.0321L155.713 44.514L155.688 44.6473C157.089 42.7919 158.033 40.6324 158.443 38.344C158.641 37.2755 158.709 36.187 158.645 35.1023C158.633 34.582 158.583 34.0632 158.497 33.5499C158.459 33.2953 158.419 33.0432 158.379 32.7935C158.335 32.5449 158.26 32.3036 158.198 32.0731C157.334 28.6797 155.291 25.7039 152.435 23.6771C151.382 22.9227 150.229 22.3167 149.01 21.8762L148.236 21.5988L147.515 21.4115L146.845 21.2458C146.629 21.2062 146.42 21.1846 146.226 21.1522C145.837 21.1054 145.505 21.0369 145.192 21.0225L144.436 20.9973H143.971C143.918 20.9934 143.865 20.9934 143.813 20.9973C143.864 21.0136 143.917 21.0209 143.971 21.0189L144.432 21.0585L145.185 21.109C145.484 21.1306 145.822 21.2062 146.211 21.2638C149.013 21.7506 151.614 23.0403 153.697 24.9764C155.78 26.9124 157.256 29.4115 157.946 32.1703C158 32.4081 158.076 32.6458 158.119 32.8907C158.162 33.1357 158.191 33.3806 158.231 33.6327C158.313 34.1366 158.359 34.6458 158.368 35.1563C158.424 36.2162 158.354 37.2791 158.159 38.3224C157.741 40.5606 156.804 42.67 155.425 44.4816L155.378 44.5428L155.4 44.6185C155.88 46.4002 156.382 48.2408 156.905 50.1402L157.125 49.9457L151.964 47.8674L151.884 47.835L151.809 47.8818C149.595 49.3485 147.021 50.1783 144.367 50.2806C143.953 50.2951 143.538 50.2879 143.125 50.259C142.713 50.2515 142.303 50.2166 141.896 50.1546C140.289 49.96 138.728 49.4833 137.286 48.7462C135.892 48.0409 134.614 47.1262 133.497 46.034C132.449 44.9666 131.561 43.7534 130.86 42.4321C130.21 41.1626 129.749 39.8047 129.491 38.4016C129.437 38.0414 129.383 37.7209 129.333 37.3823C129.283 37.0437 129.29 36.7051 129.264 36.3702C129.231 35.7099 129.24 35.0481 129.293 34.3891C129.49 32.1836 130.185 30.0518 131.328 28.1552C132.471 26.2587 134.03 24.6472 135.888 23.443C137.15 22.6087 138.537 21.9835 139.998 21.5916L140.848 21.3647L141.612 21.2386L142.267 21.1306C142.469 21.109 142.653 21.1017 142.815 21.0909L143.56 21.0369C143.643 21.0347 143.725 21.0239 143.805 21.0045Z" fill="#455A64"/>
</svg>
