<svg width="120" height="120" viewBox="0 0 120 120" fill="none" xmlns="http://www.w3.org/2000/svg">
<path d="M15 60C15 84.84 35.16 105 60 105C84.84 105 105 84.84 105 60C105 35.16 84.84 15 60 15C35.16 15 15 35.16 15 60Z" fill="#D32F2F"/>
<path d="M60.001 68.37C61.2441 68.37 62.251 67.3631 62.251 66.12V42C62.251 40.7569 61.2441 39.75 60.001 39.75C58.7579 39.75 57.751 40.7569 57.751 42V66.12C57.751 67.3631 58.7579 68.37 60.001 68.37Z" fill="white"/>
<path d="M59.9985 78C57.5123 78 55.4985 80.0081 55.4985 82.5C55.4985 84.9806 57.5123 87 59.9985 87C62.4848 87 64.4985 84.9806 64.4985 82.5C64.4985 80.0081 62.4848 78 59.9985 78Z" fill="white"/>
</svg>
