<svg width="20" height="20" viewBox="0 0 20 20" fill="none" xmlns="http://www.w3.org/2000/svg">
<path d="M17.008 10.6345C16.5755 10.6345 16.2249 10.2839 16.2249 9.85139V9.85139C16.2249 9.41889 16.5755 9.06828 17.008 9.06828H19.2169C19.6494 9.06828 20 9.41889 20 9.85139V9.85139C20 10.2839 19.6494 10.6345 19.2169 10.6345H17.008ZM17.8899 17.0429C17.6285 17.3859 17.1394 17.4539 16.7944 17.1951L15.0306 15.8723C14.6818 15.6107 14.6129 15.1151 14.8772 14.7683V14.7683C15.1386 14.4253 15.6277 14.3573 15.9727 14.6161L17.7365 15.9389C18.0853 16.2005 18.1542 16.6962 17.8899 17.0429V17.0429ZM15.9325 5.04655C15.5875 5.30531 15.0984 5.23735 14.837 4.89433V4.89433C14.5728 4.54758 14.6416 4.05194 14.9904 3.79036L16.7542 2.46748C17.0992 2.20872 17.5884 2.27668 17.8498 2.61969V2.61969C18.114 2.96645 18.0451 3.46209 17.6964 3.72367L15.9325 5.04655ZM3.73492 16.6184C3.30243 16.6184 2.95182 16.2678 2.95182 15.8353V12.5421H1.88754C1.3668 12.5421 0.922028 12.3577 0.553206 11.9889C0.184402 11.6201 0 11.1753 0 10.6546V9.04819C0 8.52745 0.184402 8.08268 0.553206 7.71385C0.922028 7.34505 1.3668 7.16065 1.88754 7.16065H5.92368L10.6024 4.3695V15.3333L5.92368 12.5421H4.51803V15.8353C4.51803 16.2678 4.16742 16.6184 3.73492 16.6184V16.6184ZM12.0482 13.1084V6.59436C12.4578 6.96519 12.7878 7.43239 13.0381 7.99597C13.2885 8.55956 13.4137 9.17804 13.4137 9.85139C13.4137 10.5248 13.2885 11.1432 13.0381 11.7068C12.7878 12.2704 12.4578 12.7376 12.0482 13.1084ZM1.88754 8.72689C1.80722 8.72689 1.73359 8.76036 1.66664 8.82729C1.59971 8.89424 1.56624 8.96787 1.56624 9.04819V10.6546C1.56624 10.7349 1.59971 10.8086 1.66664 10.8755C1.73359 10.9424 1.80722 10.9759 1.88754 10.9759H6.35741L9.03615 12.5502V7.15258L6.35741 8.72689H1.88754Z" fill="#14142B"/>
</svg>
