<svg width="19" height="15" viewBox="0 0 19 15" fill="none" xmlns="http://www.w3.org/2000/svg">
<path fill-rule="evenodd" clip-rule="evenodd" d="M9.78371 2.04113C6.86605 2.04113 4.19317 3.86814 2.48062 6.85096C2.27288 7.2128 2.27288 7.65743 2.48063 8.01927C4.19317 11.0021 6.86604 12.829 9.78368 12.829C12.7013 12.829 15.3742 11.002 17.0868 8.0192C17.2945 7.65737 17.2945 7.21273 17.0868 6.8509C15.3742 3.86811 12.7013 2.04113 9.78371 2.04113ZM1.14411 6.08363C3.0532 2.75847 6.17313 0.5 9.78371 0.5C13.3943 0.5 16.5142 2.75844 18.4233 6.08355C18.9038 6.92057 18.9038 7.94952 18.4233 8.78654C16.5142 12.1117 13.3942 14.3702 9.78368 14.3702C6.17313 14.3702 3.05321 12.1117 1.14412 8.78661C0.663552 7.94959 0.663549 6.92065 1.14411 6.08363ZM9.78363 5.89394C8.93248 5.89394 8.2425 6.58393 8.2425 7.43507C8.2425 8.28621 8.93248 8.97619 9.78363 8.97619C10.6348 8.97619 11.3248 8.28621 11.3248 7.43507C11.3248 6.58393 10.6348 5.89394 9.78363 5.89394ZM6.70137 7.43507C6.70137 5.73279 8.08134 4.35281 9.78363 4.35281C11.4859 4.35281 12.8659 5.73279 12.8659 7.43507C12.8659 9.13735 11.4859 10.5173 9.78363 10.5173C8.08134 10.5173 6.70137 9.13735 6.70137 7.43507Z" fill="#6E7191"/>
</svg>
