<svg width="19" height="18" viewBox="0 0 19 18" fill="none" xmlns="http://www.w3.org/2000/svg">
<path d="M2.59473 0C1.49173 0 0.594727 0.897 0.594727 2V16C0.594727 17.103 1.49173 18 2.59473 18H9.21582H12.0088H16.5947C17.6977 18 18.5947 17.103 18.5947 16V2C18.5947 0.897 17.6977 0 16.5947 0H2.59473ZM2.59473 2H16.5947L16.5967 16H12.0088V12.0352H14.374L14.7256 9.31055H12.0244V7.57422C12.0244 6.78622 12.244 6.25391 13.374 6.25391H14.8018V3.82227C14.1068 3.75127 13.409 3.71675 12.71 3.71875C10.636 3.71875 9.21582 4.98459 9.21582 7.30859V9.31445H6.87207V12.0391H9.21582V16H2.59473V2Z" fill="#14142B"/>
</svg>
