<svg width="18" height="18" viewBox="0 0 18 18" fill="none" xmlns="http://www.w3.org/2000/svg">
<rect x="1" y="9" width="16" height="4" fill="#14142B"/>
<path d="M9.75063 12.7506C9.75063 12.3378 9.41284 12 9 12C8.58716 12 8.24937 12.3378 8.24937 12.7506H9.75063ZM11.7173 17.1943C12.1001 17.352 12.5354 17.1718 12.6931 16.789C12.8507 16.4062 12.6706 15.9708 12.2877 15.8132L11.7173 17.2018V17.1943ZM5.71977 15.8057C5.33695 15.9633 5.1568 16.3987 5.31443 16.7815C5.47206 17.1643 5.90742 17.3445 6.29024 17.1868L5.71977 15.7982V15.8057ZM16.4987 2.12594V12.3753H18V2.12594H16.4987ZM1.50125 12.3753V2.12594H0V12.3753H1.50125ZM1.11843 2.50125H16.8816V1H1.11843V2.50125ZM16.8816 12H1.11843V13.5013H16.8816V12ZM0 12.3753C0 12.9833 0.487907 13.5013 1.11843 13.5013V12C1.33611 12 1.50125 12.1802 1.50125 12.3753H0ZM16.4987 12.3753C16.4987 12.1726 16.6639 12 16.8741 12V13.5013C17.5046 13.5013 18 12.9908 18 12.3753H16.4987ZM18 2.12594C18 1.51043 17.5046 1 16.8741 1V2.50125C16.6564 2.50125 16.4987 2.32861 16.4987 2.12594H18ZM1.50125 2.12594C1.50125 2.3211 1.34362 2.50125 1.11843 2.50125V1C0.487907 1 0 1.51793 0 2.12594H1.50125ZM8.24937 12.7506V15.7531H9.75063V12.7506H8.24937ZM12.0025 16.5038C12.1927 16.0434 12.2877 15.8132 12.2877 15.8132H12.2652L12.1977 15.7756C12.1451 15.7531 12.0626 15.7231 11.965 15.6856C11.7698 15.6105 11.4921 15.5129 11.1693 15.4153C10.5538 15.2277 9.71309 15.01 9 15.01V16.5113C9.47289 16.5113 10.1259 16.6689 10.7189 16.849C11.0042 16.9391 11.2519 17.0292 11.432 17.0967C11.5221 17.1268 11.5897 17.1568 11.6422 17.1793L11.6947 17.2018H11.7098C11.7098 17.2018 11.7098 17.2018 11.995 16.5113L12.0025 16.5038ZM9 15.0025C8.28691 15.0025 7.44621 15.2202 6.83069 15.4078C6.51543 15.5054 6.2377 15.603 6.03503 15.6781C5.93745 15.7156 5.85488 15.7456 5.80234 15.7681L5.73478 15.7907H5.71226C5.71226 15.7907 5.71226 15.7982 5.9975 16.4962C6.28274 17.1943 6.28274 17.1868 6.28274 17.1868H6.29775L6.35029 17.1568C6.39533 17.1343 6.47039 17.1118 6.56047 17.0742C6.74062 17.0067 6.98832 16.9166 7.27356 16.8265C7.86656 16.6389 8.52711 16.4887 8.99249 16.4887V14.9875L9 15.0025Z" fill="#14142B"/>
</svg>
