<svg width="24" height="24" viewBox="0 0 24 24" fill="currentColor" xmlns="http://www.w3.org/2000/svg">
<path d="M4.91404 21C4.37919 21 3.92647 20.8147 3.55588 20.4441C3.18529 20.0735 3 19.6208 3 19.086V4.91404C3 4.37919 3.18529 3.92647 3.55588 3.55588C3.92647 3.18529 4.37919 3 4.91404 3H19.086C19.6208 3 20.0735 3.18529 20.4441 3.55588C20.8147 3.92647 21 4.37919 21 4.91404V19.086C21 19.6208 20.8147 20.0735 20.4441 20.4441C20.0735 20.8147 19.6208 21 19.086 21H4.91404ZM4.91404 19.4118H19.086C19.1674 19.4118 19.2421 19.3778 19.31 19.31C19.3778 19.2421 19.4118 19.1674 19.4118 19.086V4.91404C19.4118 4.83258 19.3778 4.75791 19.31 4.69002C19.2421 4.62215 19.1674 4.58821 19.086 4.58821H4.91404C4.83258 4.58821 4.75791 4.62215 4.69002 4.69002C4.62215 4.75791 4.58821 4.83258 4.58821 4.91404V19.086C4.58821 19.1674 4.62215 19.2421 4.69002 19.31C4.75791 19.3778 4.83258 19.4118 4.91404 19.4118ZM6.44121 17.0294H17.6402L14.1584 12.3869L11.1855 16.2557L9.06787 13.5476L6.44121 17.0294Z" fill="currentColor"/>
</svg>
