<svg width="28" height="28" viewBox="0 0 28 28" fill="none" xmlns="http://www.w3.org/2000/svg">
<rect x="8" y="9.5" width="12" height="2.25" fill="#14142B"/>
<path d="M14.563 16.063C14.563 15.7533 14.3096 15.5 14 15.5C13.6904 15.5 13.437 15.7533 13.437 16.063H14.563ZM16.0379 19.3957C16.3251 19.514 16.6516 19.3789 16.7698 19.0917C16.888 18.8046 16.7529 18.4781 16.4658 18.3599L16.0379 19.4014V19.3957ZM11.5398 18.3543C11.2527 18.4725 11.1176 18.799 11.2358 19.0861C11.354 19.3732 11.6806 19.5083 11.9677 19.3901L11.5398 18.3486V18.3543ZM19.6241 9.59445V15.7815H20.75V9.59445H19.6241ZM8.37594 15.7815V9.59445H7.25V15.7815H8.37594ZM8.08882 9.87594H19.9112V8.75H8.08882V9.87594ZM19.9112 15.5H8.08882V16.6259H19.9112V15.5ZM7.25 15.7815C7.25 16.2375 7.61593 16.6259 8.08882 16.6259V15.5C8.25209 15.5 8.37594 15.6351 8.37594 15.7815H7.25ZM19.6241 15.7815C19.6241 15.6295 19.7479 15.5 19.9055 15.5V16.6259C20.3784 16.6259 20.75 16.2431 20.75 15.7815H19.6241ZM20.75 9.59445C20.75 9.13282 20.3784 8.75 19.9055 8.75V9.87594C19.7423 9.87594 19.6241 9.74646 19.6241 9.59445H20.75ZM8.37594 9.59445C8.37594 9.74083 8.25771 9.87594 8.08882 9.87594V8.75C7.61593 8.75 7.25 9.13845 7.25 9.59445H8.37594ZM13.437 16.063V18.3148H14.563V16.063H13.437V16.063ZM16.2519 18.8778C16.3945 18.5325 16.4658 18.3599 16.4658 18.3599H16.4489L16.3982 18.3317C16.3588 18.3148 16.2969 18.2923 16.2237 18.2642C16.0774 18.2079 15.8691 18.1347 15.627 18.0615C15.1653 17.9208 14.5348 17.7575 14 17.7575V18.8834C14.3547 18.8834 14.8445 19.0017 15.2892 19.1368C15.5031 19.2043 15.6889 19.2719 15.824 19.3226C15.8916 19.3451 15.9422 19.3676 15.9817 19.3845L16.0211 19.4014H16.0323C16.0323 19.4014 16.0323 19.4014 16.2462 18.8834L16.2519 18.8778ZM14 17.7519C13.4652 17.7519 12.8347 17.9151 12.373 18.0559C12.1366 18.1291 11.9283 18.2023 11.7763 18.2585C11.7031 18.2867 11.6412 18.3092 11.6018 18.3261L11.5511 18.343H11.5342C11.5342 18.343 11.5342 18.3486 11.7481 18.8722C11.9621 19.3957 11.9621 19.3901 11.9621 19.3901H11.9733L12.0127 19.3676C12.0465 19.3507 12.1028 19.3338 12.1704 19.3057C12.3055 19.255 12.4912 19.1874 12.7052 19.1199C13.1499 18.9791 13.6453 18.8666 13.9944 18.8666V17.7406L14 17.7519Z" fill="#14142B"/>
</svg>
