<svg width="201" height="201" viewBox="0 0 201 201" fill="none" xmlns="http://www.w3.org/2000/svg">
<path d="M24.2253 158.5V160.5" stroke="#D7ECFD" stroke-width="2.921" stroke-linecap="round"/>
<path d="M19.7331 159.583L21.3674 161.266" stroke="#D7ECFD" stroke-width="2.921" stroke-linecap="round"/>
<path d="M17.8216 164.062H20.1325" stroke="#D7ECFD" stroke-width="2.921" stroke-linecap="round"/>
<path d="M19.5456 168.62L21.1799 166.938" stroke="#D7ECFD" stroke-width="2.921" stroke-linecap="round"/>
<path d="M24.2253 169.167V167.167" stroke="#D7ECFD" stroke-width="2.921" stroke-linecap="round"/>
<path d="M28.5 168.5L27.1667 167.167" stroke="#D7ECFD" stroke-width="2.921" stroke-linecap="round"/>
<path d="M30.2253 164.5H28.2253" stroke="#D7ECFD" stroke-width="2.921" stroke-linecap="round"/>
<path d="M28.8919 159.833L27.5586 161.167" stroke="#D7ECFD" stroke-width="2.921" stroke-linecap="round"/>
<path d="M98.2253 11.1667V12.5" stroke="#D7ECFD" stroke-width="2.921" stroke-linecap="round"/>
<path d="M94.2253 15.1667H95.5586" stroke="#D7ECFD" stroke-width="2.921" stroke-linecap="round"/>
<path d="M98.2253 19.1667V17.8334" stroke="#D7ECFD" stroke-width="2.921" stroke-linecap="round"/>
<path d="M101.559 15.1667H100.225" stroke="#D7ECFD" stroke-width="2.921" stroke-linecap="round"/>
<path d="M20.8919 67.1667V69.1667" stroke="#D7ECFD" stroke-width="2.921" stroke-linecap="round"/>
<path d="M14.8919 73.1667H16.8919" stroke="#D7ECFD" stroke-width="2.921" stroke-linecap="round"/>
<path d="M20.8919 78.5V76.5" stroke="#D7ECFD" stroke-width="2.921" stroke-linecap="round"/>
<path d="M26.2253 73.1667H24.2253" stroke="#D7ECFD" stroke-width="2.921" stroke-linecap="round"/>
<path d="M117.728 152.526C119.321 152.526 120.613 153.819 120.613 155.412C120.613 157.006 119.321 158.298 117.728 158.298C116.135 158.298 114.842 157.006 114.842 155.412" stroke="#D7ECFD" stroke-width="2.921" stroke-linecap="round"/>
<path fill-rule="evenodd" clip-rule="evenodd" d="M177.599 113.676C179.312 113.141 181.938 111.046 182.546 108.792C183.097 110.784 185.408 113.141 187.493 113.32C185.146 114.151 182.902 116.619 182.546 118.559C182.304 116.582 179.2 113.964 177.599 113.676Z" fill="#8CC8FA"/>
<path fill-rule="evenodd" clip-rule="evenodd" d="M21.7396 125.637C22.5965 125.37 23.909 124.323 24.2129 123.195C24.4885 124.191 25.6437 125.37 26.6862 125.459C25.5129 125.874 24.3912 127.109 24.2129 128.079C24.0918 127.09 22.5399 125.781 21.7396 125.637Z" fill="#8CC8FA"/>
<path fill-rule="evenodd" clip-rule="evenodd" d="M17.6412 46.2315C17.6412 47.4679 16.6395 48.4693 15.404 48.4693C14.1679 48.4693 13.1667 47.4679 13.1667 46.2315C13.1667 44.9956 14.1679 43.9936 15.404 43.9936C16.6395 43.9936 17.6412 44.9956 17.6412 46.2315Z" fill="#8CC8FA"/>
<path fill-rule="evenodd" clip-rule="evenodd" d="M167.038 52.2405C167.038 54.3063 165.363 55.9808 163.299 55.9808C161.233 55.9808 159.559 54.3063 159.559 52.2405C159.559 50.1747 161.233 48.5001 163.299 48.5001C165.363 48.5001 167.038 50.1747 167.038 52.2405Z" fill="#8CC8FA"/>
<path fill-rule="evenodd" clip-rule="evenodd" d="M187.099 14.1337C187.099 15.7726 185.771 17.1008 184.133 17.1008C182.494 17.1008 181.167 15.7726 181.167 14.1337C181.167 12.4948 182.494 11.1667 184.133 11.1667C185.771 11.1667 187.099 12.4948 187.099 14.1337Z" fill="#8CC8FA"/>
<path fill-rule="evenodd" clip-rule="evenodd" d="M79.4542 187.345C79.4542 188.378 78.6172 189.216 77.5843 189.216C76.5519 189.216 75.7148 188.378 75.7148 187.345C75.7148 186.312 76.5519 185.475 77.5843 185.475C78.6172 185.475 79.4542 186.312 79.4542 187.345Z" stroke="#D7ECFD" stroke-width="2.921" stroke-linecap="round"/>
<path fill-rule="evenodd" clip-rule="evenodd" d="M58.3418 31.8545C58.3418 33.0909 57.34 34.0924 56.1045 34.0924C54.869 34.0924 53.8672 33.0909 53.8672 31.8545C53.8672 30.6187 54.869 29.6166 56.1045 29.6166C57.34 29.6166 58.3418 30.6187 58.3418 31.8545Z" stroke="#D7ECFD" stroke-width="2.921" stroke-linecap="round"/>
<path fill-rule="evenodd" clip-rule="evenodd" d="M182.077 188.058C180.647 188.602 179.047 187.883 178.503 186.454C177.96 185.024 178.677 183.423 180.107 182.879C181.536 182.335 183.136 183.053 183.68 184.483C184.225 185.913 183.507 187.514 182.077 188.058Z" stroke="#D7ECFD" stroke-width="2.921" stroke-linecap="round"/>
<path fill-rule="evenodd" clip-rule="evenodd" d="M109.501 137.833H54.831C50.9831 137.833 47.8333 134.674 47.8333 130.813V52.8516C47.8333 48.9908 50.9831 45.8333 54.831 45.8333H109.501C113.35 45.8333 116.5 48.9908 116.5 52.8516V130.813C116.5 134.674 113.35 137.833 109.501 137.833Z" fill="#D7ECFD"/>
<path fill-rule="evenodd" clip-rule="evenodd" d="M104.834 141.167H50.1643C46.3164 141.167 43.1667 138.008 43.1667 134.147V56.185C43.1667 52.3241 46.3164 49.1666 50.1643 49.1666H104.834C108.684 49.1666 111.833 52.3241 111.833 56.185V134.147C111.833 138.008 108.684 141.167 104.834 141.167Z" fill="#8CC8FA"/>
<path fill-rule="evenodd" clip-rule="evenodd" d="M100.295 143.798H45.5121C41.6562 143.798 38.5 140.652 38.5 136.807V59.1683C38.5 55.3235 41.6562 52.1791 45.5121 52.1791H100.295C104.152 52.1791 107.309 55.3235 107.309 59.1683V136.807C107.309 140.652 104.152 143.798 100.295 143.798Z" fill="#D8DBEA"/>
<path fill-rule="evenodd" clip-rule="evenodd" d="M100.295 143.798H45.5121C41.6562 143.798 38.5 140.652 38.5 136.807V59.1683C38.5 55.3235 41.6562 52.1791 45.5121 52.1791H100.295C104.152 52.1791 107.309 55.3235 107.309 59.1683V136.807C107.309 140.652 104.152 143.798 100.295 143.798Z" fill="#D7ECFD"/>
<path fill-rule="evenodd" clip-rule="evenodd" d="M92.3985 75.8333H51.9348C50.7792 75.8333 49.8333 74.9334 49.8333 73.8341C49.8333 72.7332 50.7792 71.8333 51.9348 71.8333H92.3985C93.5541 71.8333 94.5 72.7332 94.5 73.8341C94.5 74.9334 93.5541 75.8333 92.3985 75.8333Z" fill="#F3FAFF"/>
<path fill-rule="evenodd" clip-rule="evenodd" d="M92.3985 87.8333H51.9348C50.7792 87.8333 49.8333 86.9334 49.8333 85.8341C49.8333 84.7332 50.7792 83.8333 51.9348 83.8333H92.3985C93.5541 83.8333 94.5 84.7332 94.5 85.8341C94.5 86.9334 93.5541 87.8333 92.3985 87.8333Z" fill="#F3FAFF"/>
<path fill-rule="evenodd" clip-rule="evenodd" d="M92.3985 99.8333H51.9348C50.7792 99.8333 49.8333 98.9334 49.8333 97.8341C49.8333 96.7347 50.7792 95.8333 51.9348 95.8333H92.3985C93.5541 95.8333 94.5 96.7347 94.5 97.8341C94.5 98.9334 93.5541 99.8333 92.3985 99.8333Z" fill="#F3FAFF"/>
<path fill-rule="evenodd" clip-rule="evenodd" d="M92.3985 111.833H51.9348C50.7792 111.833 49.8333 110.933 49.8333 109.834C49.8333 108.733 50.7792 107.833 51.9348 107.833H92.3985C93.5541 107.833 94.5 108.733 94.5 109.834C94.5 110.933 93.5541 111.833 92.3985 111.833Z" fill="#F3FAFF"/>
<path fill-rule="evenodd" clip-rule="evenodd" d="M73.0562 123.833H51.9438C50.7833 123.833 49.8333 122.933 49.8333 121.834C49.8333 120.733 50.7833 119.833 51.9438 119.833H73.0562C74.2167 119.833 75.1667 120.733 75.1667 121.834C75.1667 122.933 74.2167 123.833 73.0562 123.833Z" fill="#F3FAFF"/>
<path fill-rule="evenodd" clip-rule="evenodd" d="M115.67 108.325C107.579 116.414 95.0528 117.327 85.9589 111.081C84.7968 110.268 83.6906 109.356 82.659 108.325C82.128 107.795 81.6275 107.249 81.1558 106.674C80.2125 105.526 79.3863 104.301 78.7093 103.035C77.5166 100.898 76.7056 98.63 76.2628 96.2857C74.8343 88.9339 76.9703 81.0205 82.659 75.3345C88.3613 69.6314 96.276 67.5093 103.629 68.9241C105.972 69.3804 108.242 70.1912 110.38 71.3702C111.647 72.0623 112.855 72.8884 114.006 73.8315C114.579 74.3014 115.125 74.8035 115.655 75.3345C116.688 76.3658 117.614 77.4701 118.412 78.6338C124.66 87.7244 123.746 100.25 115.67 108.325Z" fill="white" fill-opacity="0.1"/>
<path fill-rule="evenodd" clip-rule="evenodd" d="M113.406 106.731C104.988 115.151 91.3466 115.149 82.9273 106.731C74.5189 98.3229 74.5189 84.6797 82.9382 76.262C91.3466 67.8536 104.988 67.8536 113.396 76.262C121.814 84.6797 121.814 98.3229 113.406 106.731ZM117.726 71.937C106.921 61.1321 89.4121 61.1321 78.6072 71.937C67.8039 82.7403 67.7945 100.26 78.5978 111.065C88.4315 120.896 103.845 121.782 114.686 113.711C115.744 112.921 116.764 112.036 117.737 111.065C118.708 110.092 119.593 109.073 120.381 108.014C128.453 97.1714 127.558 81.7692 117.726 71.937Z" fill="url(#paint0_linear_164_5558)"/>
<path fill-rule="evenodd" clip-rule="evenodd" d="M160.248 151.794L159.794 152.248C156.793 155.251 151.879 155.251 148.877 152.248L121.167 124.538L132.538 113.167L160.248 140.876C163.251 143.879 163.251 148.792 160.248 151.794Z" fill="url(#paint1_linear_164_5558)"/>
<path fill-rule="evenodd" clip-rule="evenodd" d="M120.978 107.167L129.167 115.355L123.353 121.167L115.167 112.978C116.247 112.173 117.286 111.27 118.28 110.279C119.271 109.288 120.174 108.247 120.978 107.167Z" fill="#D7ECFD"/>
<path fill-rule="evenodd" clip-rule="evenodd" d="M159.833 140.536L148.534 151.833L146.5 149.798L157.798 138.5L159.833 140.536Z" fill="#4B9EF9"/>
<path fill-rule="evenodd" clip-rule="evenodd" d="M133.167 113.558L121.558 125.167L119.833 123.442L131.442 111.833L133.167 113.558Z" fill="#4B9EF9"/>
<path opacity="0.5" fill-rule="evenodd" clip-rule="evenodd" d="M107.833 73.3657L79.3643 101.833C78.2922 99.9118 77.5632 97.8728 77.1667 95.7652L101.765 71.1666C103.871 71.5784 105.912 72.3058 107.833 73.3657Z" fill="white"/>
<path opacity="0.5" fill-rule="evenodd" clip-rule="evenodd" d="M117.167 80.1322L86.3886 109.167C85.2864 108.441 84.2373 107.624 83.259 106.701C82.7553 106.226 82.2791 105.739 81.8333 105.224L112.986 75.8333C113.532 76.2553 114.05 76.7046 114.552 77.1798C115.53 78.1027 116.41 79.0909 117.167 80.1322Z" fill="white"/>
<defs>
<linearGradient id="paint0_linear_164_5558" x1="98.1666" y1="63.8333" x2="98.1666" y2="119.167" gradientUnits="userSpaceOnUse">
<stop stop-color="#8CC8FA"/>
<stop offset="0.927" stop-color="#4B9EF9"/>
</linearGradient>
<linearGradient id="paint1_linear_164_5558" x1="141.833" y1="113.167" x2="141.833" y2="154.5" gradientUnits="userSpaceOnUse">
<stop stop-color="#8CC8FA"/>
<stop offset="0.927" stop-color="#4B9EF9"/>
</linearGradient>
</defs>
</svg>
