<svg width="20" height="20" viewBox="0 0 20 20" fill="none" xmlns="http://www.w3.org/2000/svg">
    <mask id="4usp0avjba" style="mask-type:alpha" maskUnits="userSpaceOnUse" x="0" y="0" width="20" height="20">
        <path fill="#fff" d="M0 0h20v20H0z"/>
    </mask>
    <g mask="url(#4usp0avjba)">
        <path d="m8.125 13.374 5.25-3.375-5.25-3.375v6.75zM10 17.915a7.72 7.72 0 0 1-3.093-.625 7.985 7.985 0 0 1-2.511-1.687 7.984 7.984 0 0 1-1.688-2.511 7.72 7.72 0 0 1-.625-3.093c0-1.098.209-2.129.625-3.094a7.986 7.986 0 0 1 1.688-2.51 7.984 7.984 0 0 1 2.51-1.688A7.72 7.72 0 0 1 10 2.082c1.097 0 2.129.208 3.094.625.965.417 1.802.98 2.51 1.688a7.987 7.987 0 0 1 1.688 2.51c.416.965.625 1.996.625 3.094a7.719 7.719 0 0 1-.625 3.093 7.985 7.985 0 0 1-1.688 2.51 7.987 7.987 0 0 1-2.51 1.688 7.727 7.727 0 0 1-3.094.625zm0-1.25c1.861 0 3.437-.645 4.73-1.937 1.29-1.292 1.937-2.868 1.937-4.73 0-1.86-.646-3.437-1.938-4.728-1.292-1.292-2.868-1.938-4.73-1.938-1.86 0-3.437.646-4.728 1.938C3.979 6.56 3.333 8.138 3.333 9.999c0 1.86.646 3.437 1.938 4.729C6.562 16.02 8.139 16.665 10 16.665z" fill="#fff"/>
    </g>
</svg>
