<svg width="26" height="26" viewBox="0 0 26 26" fill="currentColor" xmlns="http://www.w3.org/2000/svg">
<path d="M0.666748 12.2356C0.666748 11.6833 1.11446 11.2356 1.66675 11.2356H10.2532C11.0991 11.2356 11.569 10.7657 11.569 9.91979V1.33333C11.569 0.781045 12.0167 0.333328 12.569 0.333328H13.7645C14.3168 0.333328 14.7645 0.781044 14.7645 1.33333V10.0138C14.7645 10.8596 15.2344 11.3296 16.0803 11.3296H24.7607C25.313 11.3296 25.7607 11.7773 25.7607 12.3296V13.4311C25.7607 13.9834 25.313 14.4311 24.7607 14.4311H15.9863C15.1404 14.4311 14.6705 14.901 14.6705 15.7469V24.3333C14.6705 24.8856 14.2228 25.3333 13.6705 25.3333H12.475C11.9227 25.3333 11.475 24.8856 11.475 24.3333V15.7469C11.475 14.901 11.0051 14.4311 10.1592 14.4311H1.66675C1.11446 14.4311 0.666748 13.9834 0.666748 13.4311V12.2356Z" fill="currentColor"/>
</svg>
