<svg width="18" height="18" viewBox="0 0 18 18" fill="none" xmlns="http://www.w3.org/2000/svg">
<path d="M4.6604 13.0563C4.21687 13.0563 3.84145 12.9026 3.53414 12.5953C3.22682 12.288 3.07316 11.9125 3.07316 11.469V2.58723C3.07316 2.1437 3.22682 1.76827 3.53414 1.46096C3.84145 1.15365 4.21687 1 4.6604 1H9.01688L10.5366 2.51967H16.4128C16.8563 2.51967 17.2317 2.67333 17.539 2.98065C17.8463 3.28797 18 3.66339 18 4.10693V11.469C18 11.9125 17.8463 12.288 17.539 12.5953C17.2317 12.9026 16.8563 13.0563 16.4128 13.0563H4.6604ZM4.6604 11.7392H16.4128C16.4803 11.7392 16.5422 11.7111 16.5985 11.6548C16.6548 11.5985 16.6829 11.5366 16.6829 11.469V4.10693C16.6829 4.03937 16.6548 3.97745 16.5985 3.92115C16.5422 3.86487 16.4803 3.83673 16.4128 3.83673H9.99793L8.47824 2.31704H4.6604C4.58721 2.31704 4.52388 2.34377 4.47041 2.39725C4.41694 2.45072 4.3902 2.51405 4.3902 2.58723V11.469C4.3902 11.5366 4.41835 11.5985 4.47465 11.6548C4.53093 11.7111 4.59285 11.7392 4.6604 11.7392ZM15.3658 15.4709C15.3658 15.8346 15.071 16.1294 14.7073 16.1294H1.58723C1.14372 16.1294 0.768297 15.9757 0.460978 15.6684C0.153659 15.3611 0 14.9857 0 14.5422V4.9343C0 4.57061 0.294833 4.27577 0.658529 4.27577V4.27577C1.02222 4.27577 1.31706 4.57061 1.31706 4.9343V14.5422C1.31706 14.6097 1.3452 14.6716 1.40148 14.7279C1.45778 14.7842 1.5197 14.8124 1.58723 14.8124H14.7073C15.071 14.8124 15.3658 15.1072 15.3658 15.4709V15.4709ZM6.42496 9.86489H14.6313L12.736 7.33777C12.3392 6.80868 11.5472 6.80364 11.1437 7.32762L9.68385 9.22325L9.06848 8.44231C8.66262 7.92726 7.87921 7.93566 7.48449 8.4593L6.42496 9.86489Z" fill="#14142B"/>
</svg>
