<svg width="50" height="50" viewBox="0 0 50 50" fill="none" xmlns="http://www.w3.org/2000/svg">
<rect width="50" height="50" fill="#ECC9DD"/>
<mask id="mask0_2352_70" style="mask-type:alpha" maskUnits="userSpaceOnUse" x="13" y="13" width="24" height="24">
<rect x="13" y="13" width="24" height="24" fill="#A8417C"/>
</mask>
<g mask="url(#mask0_2352_70)">
<path d="M20.9092 21.3636H26.3638V19.5455C26.3638 18.7879 26.0986 18.1439 25.5683 17.6136C25.038 17.0833 24.3941 16.8182 23.6365 16.8182C22.8789 16.8182 22.235 17.0833 21.7047 17.6136C21.1744 18.1439 20.9092 18.7879 20.9092 19.5455V21.3636ZM29.091 35C27.8335 35 26.7615 34.5568 25.8751 33.6705C24.9888 32.7841 24.5456 31.7121 24.5456 30.4545C24.5456 29.197 24.9888 28.125 25.8751 27.2386C26.7615 26.3523 27.8335 25.9091 29.091 25.9091C30.3486 25.9091 31.4206 26.3523 32.307 27.2386C33.1933 28.125 33.6365 29.197 33.6365 30.4545C33.6365 31.7121 33.1933 32.7841 32.307 33.6705C31.4206 34.5568 30.3486 35 29.091 35ZM23.8638 34.0909H18.182C17.682 34.0909 17.2539 33.9129 16.8979 33.5568C16.5418 33.2008 16.3638 32.7727 16.3638 32.2727V23.1818C16.3638 22.6818 16.5418 22.2538 16.8979 21.8977C17.2539 21.5417 17.682 21.3636 18.182 21.3636H19.091V19.5455C19.091 18.2879 19.5342 17.2159 20.4206 16.3295C21.307 15.4432 22.3789 15 23.6365 15C24.8941 15 25.966 15.4432 26.8524 16.3295C27.7388 17.2159 28.182 18.2879 28.182 19.5455V21.3636H29.091C29.591 21.3636 30.0191 21.5417 30.3751 21.8977C30.7312 22.2538 30.9092 22.6818 30.9092 23.1818V24.3636C30.6062 24.2576 30.3032 24.1856 30.0001 24.1477C29.6971 24.1098 29.3941 24.0909 29.091 24.0909C27.3183 24.0909 25.8145 24.7083 24.5797 25.9432C23.3448 27.178 22.7274 28.6818 22.7274 30.4545C22.7274 31.1061 22.8297 31.7386 23.0342 32.3523C23.2388 32.9659 23.5153 33.5455 23.8638 34.0909ZM29.091 30.4545C29.4698 30.4545 29.7918 30.322 30.057 30.0568C30.3221 29.7917 30.4547 29.4697 30.4547 29.0909C30.4547 28.7121 30.3221 28.3902 30.057 28.125C29.7918 27.8598 29.4698 27.7273 29.091 27.7273C28.7123 27.7273 28.3903 27.8598 28.1251 28.125C27.86 28.3902 27.7274 28.7121 27.7274 29.0909C27.7274 29.4697 27.86 29.7917 28.1251 30.0568C28.3903 30.322 28.7123 30.4545 29.091 30.4545ZM29.091 33.1818C29.5456 33.1818 29.9698 33.0758 30.3638 32.8636C30.7577 32.6515 31.0835 32.3561 31.341 31.9773C30.9926 31.7652 30.6289 31.6098 30.2501 31.5114C29.8713 31.4129 29.485 31.3636 29.091 31.3636C28.6971 31.3636 28.3107 31.4129 27.932 31.5114C27.5532 31.6098 27.1895 31.7652 26.841 31.9773C27.0986 32.3561 27.4244 32.6515 27.8183 32.8636C28.2123 33.0758 28.6365 33.1818 29.091 33.1818Z" fill="#A8417C"/>
</g>
</svg>
