<svg width="16" height="17" viewBox="0 0 16 17" fill="none" xmlns="http://www.w3.org/2000/svg">
<path d="M2.11844 16.9167C1.79165 16.9167 1.50963 16.7981 1.27238 16.5609C1.03513 16.3236 0.916504 16.0416 0.916504 15.7148V3.64758C0.916504 3.32078 1.03513 3.03876 1.27238 2.80151C1.50963 2.56426 1.79165 2.44564 2.11844 2.44564H3.6569V0.987305H4.70657V2.44564H11.3251V0.987305H12.3507V2.44564H13.8812C14.208 2.44564 14.49 2.56426 14.7273 2.80151C14.9645 3.03876 15.0831 3.32078 15.0831 3.64758V15.7148C15.0831 16.0416 14.9645 16.3236 14.7273 16.5609C14.49 16.7981 14.208 16.9167 13.8812 16.9167H2.11844ZM2.11844 15.9712H13.8812C13.9453 15.9712 14.0041 15.9445 14.0575 15.8911C14.1109 15.8377 14.1376 15.7789 14.1376 15.7148V7.43762H1.862V15.7148C1.862 15.7789 1.88871 15.8377 1.94213 15.8911C1.99556 15.9445 2.05433 15.9712 2.11844 15.9712ZM1.862 6.49214H14.1376V3.64758C14.1376 3.58346 14.1109 3.52469 14.0575 3.47126C14.0041 3.41785 13.9453 3.39114 13.8812 3.39114H2.11844C2.05433 3.39114 1.99556 3.41785 1.94213 3.47126C1.88871 3.52469 1.862 3.58346 1.862 3.64758V6.49214Z" fill="#14142B"/>
</svg>
