<svg width="24" height="24" viewBox="0 0 24 24" fill="none" xmlns="http://www.w3.org/2000/svg">
<g clip-path="url(#clip0_139_11730)">
<path d="M12.6728 21H12.6253C11.9842 20.9762 11.4222 20.5805 11.1926 19.9868L9.1979 14.8021L4.0132 12.8074C3.41953 12.5778 3.01584 12.0158 3.00001 11.3747C2.98418 10.7335 3.34829 10.1478 3.92613 9.88654L18.7599 3.14248C19.3694 2.86543 20.066 2.99208 20.533 3.46702C21.0079 3.94195 21.1346 4.63852 20.8575 5.2401L14.1135 20.0739C13.8523 20.6438 13.2902 21 12.6728 21ZM4.58312 11.3272L10.4248 13.5752L12.6728 19.4169L19.4169 4.58311L4.58312 11.3272Z" fill="#14142B"/>
</g>
<defs>
<clipPath id="clip0_139_11730">
<rect width="18" height="18" fill="white" transform="translate(3 3)"/>
</clipPath>
</defs>
</svg>
