<svg xmlns="http://www.w3.org/2000/svg" width="24" height="24" viewBox="0 0 24 24" fill="none">
  <path fill-rule="evenodd" clip-rule="evenodd" d="M10.0874 4.08362C10.9532 2.63879 13.0468 2.63879 13.9126 4.08362L14.4372 4.959C14.6055 5.23987 14.9378 5.3775 15.2554 5.29791L16.2453 5.04984C17.8792 4.6404 19.3596 6.12085 18.9502 7.75471L18.7021 8.74461C18.6225 9.06222 18.7601 9.39451 19.041 9.56282L19.9164 10.0874C21.3612 10.9532 21.3612 13.0468 19.9164 13.9126L19.041 14.4372C18.7601 14.6055 18.6225 14.9378 18.7021 15.2554L18.9502 16.2453C19.3596 17.8792 17.8791 19.3596 16.2453 18.9502L15.2554 18.7021C14.9378 18.6225 14.6055 18.7601 14.4372 19.041L13.9126 19.9164C13.0468 21.3612 10.9532 21.3612 10.0874 19.9164L9.56282 19.041C9.39451 18.7601 9.06222 18.6225 8.74461 18.7021L8.56394 17.9811L8.7446 18.7021L7.75471 18.9502C6.12085 19.3596 4.6404 17.8791 5.04984 16.2453L5.29791 15.2554C5.3775 14.9378 5.23987 14.6055 4.95899 14.4372L4.08362 13.9126C2.63879 13.0468 2.63879 10.9532 4.08362 10.0874L4.959 9.56282C5.23987 9.39451 5.3775 9.06222 5.29791 8.74461L5.04984 7.75471C4.6404 6.12085 6.12085 4.6404 7.75471 5.04984L8.74461 5.29791C9.06222 5.3775 9.39451 5.23987 9.56282 4.95899L10.0874 4.08362ZM12.6375 4.8477C12.3489 4.36609 11.6511 4.36609 11.3625 4.8477L10.8379 5.72307C10.333 6.56568 9.33612 6.9786 8.38327 6.73982L7.39337 6.49175C6.84875 6.35527 6.35527 6.84875 6.49175 7.39337L6.73981 8.38327C6.9786 9.33612 6.56568 10.333 5.72307 10.8379L4.8477 11.3625C4.36609 11.6511 4.36609 12.3489 4.8477 12.6375L5.72307 13.1621C6.56568 13.667 6.9786 14.6639 6.73982 15.6167L6.49175 16.6066C6.35527 17.1512 6.84875 17.6447 7.39337 17.5083L7.57404 18.2292L7.39337 17.5083L8.38327 17.2602C9.33612 17.0214 10.333 17.4343 10.8379 18.2769L11.3625 19.1523C11.6511 19.6339 12.3489 19.6339 12.6375 19.1523L13.1621 18.2769C13.667 17.4343 14.6639 17.0214 15.6167 17.2602L16.6066 17.5083C17.1512 17.6447 17.6447 17.1512 17.5083 16.6066L17.2602 15.6167C17.0214 14.6639 17.4343 13.667 18.2769 13.1621L19.1523 12.6375C19.6339 12.3489 19.6339 11.6511 19.1523 11.3625L18.2769 10.8379C17.4343 10.333 17.0214 9.33612 17.2602 8.38327L17.5083 7.39337C17.6447 6.84875 17.1512 6.35527 16.6066 6.49175L15.6167 6.73981C14.6639 6.9786 13.667 6.56568 13.1621 5.72307L12.6375 4.8477ZM12 9.77026C10.7685 9.77026 9.77026 10.7685 9.77026 12C9.77026 13.2315 10.7685 14.2297 12 14.2297C13.2315 14.2297 14.2297 13.2315 14.2297 12C14.2297 10.7685 13.2315 9.77026 12 9.77026ZM8.28377 12C8.28377 9.94758 9.94758 8.28377 12 8.28377C14.0524 8.28377 15.7162 9.94758 15.7162 12C15.7162 14.0524 14.0524 15.7162 12 15.7162C9.94758 15.7162 8.28377 14.0524 8.28377 12Z" fill="#14142B"/>
</svg>