<svg width="24" height="24" viewBox="0 0 24 24" fill="none" xmlns="http://www.w3.org/2000/svg">
    <mask id="nr5em6sb7a" style="mask-type:alpha" maskUnits="userSpaceOnUse" x="0" y="0" width="24" height="24">
        <path fill="#2D2D39" d="M0 0h24v24H0z"/>
    </mask>
    <g mask="url(#nr5em6sb7a)">
        <path d="M5.992 12.992a.946.946 0 0 1-.697-.291.994.994 0 0 1-.292-.711 1.018 1.018 0 0 1 .292-.712.971.971 0 0 1 .697-.29.877.877 0 0 1 .671.3c.18.186.282.438.282.701 0 .263-.101.515-.282.701a.902.902 0 0 1-.671.302zm-.02-5.008a.946.946 0 0 1-.608-.23 1.018 1.018 0 0 1-.23-1.234.973.973 0 0 1 .482-.446.937.937 0 0 1 .647-.03.966.966 0 0 1 .52.398 1.015 1.015 0 0 1-.121 1.25.937.937 0 0 1-.69.292zM5.992 18a.946.946 0 0 1-.697-.29.928.928 0 0 1-.295-.691c.001-.27.106-.53.292-.721a.982.982 0 0 1 .7-.3.879.879 0 0 1 .671.3 1.003 1.003 0 0 1 .282.717c-.002.26-.104.508-.282.69a.949.949 0 0 1-.67.291L5.992 18zm3.484-.4a.572.572 0 0 1-.41-.176.607.607 0 0 1 0-.846.572.572 0 0 1 .41-.175h8.943c.154 0 .302.063.41.175a.608.608 0 0 1 0 .846.572.572 0 0 1-.41.175H9.476zm0-5.009a.573.573 0 0 1-.41-.175.608.608 0 0 1 0-.846.572.572 0 0 1 .41-.175h8.943c.154 0 .302.063.41.175a.607.607 0 0 1 0 .846.573.573 0 0 1-.41.175H9.476zm0-5.008a.572.572 0 0 1-.41-.175.608.608 0 0 1 0-.846.572.572 0 0 1 .41-.176h8.943c.154 0 .302.063.41.176a.607.607 0 0 1 0 .846.572.572 0 0 1-.41.175H9.476z" fill="#2D2D39"/>
    </g>
</svg>
