<svg width="16" height="18" viewBox="0 0 16 18" fill="none" xmlns="http://www.w3.org/2000/svg">
<path d="M13.105 17.125C12.494 17.125 11.9749 16.9107 11.5478 16.4822C11.1207 16.0537 10.9072 15.5333 10.9072 14.9211C10.9072 14.8205 10.9176 14.7023 10.9385 14.5664C10.9593 14.4305 10.9932 14.309 11.0402 14.2019L4.55141 10.407C4.35377 10.6485 4.10838 10.8408 3.81523 10.9839C3.52209 11.1271 3.21941 11.1987 2.9072 11.1987C2.29644 11.1987 1.7773 10.9848 1.34979 10.5571C0.92226 10.1294 0.708496 9.61006 0.708496 8.99904C0.708496 8.38803 0.92226 7.86898 1.34979 7.4419C1.7773 7.01481 2.29644 6.80127 2.9072 6.80127C3.22319 6.80127 3.52254 6.8651 3.80525 6.99277C4.08795 7.12045 4.33668 7.30501 4.55141 7.54646L11.0402 3.78525C10.9932 3.68168 10.9593 3.56669 10.9385 3.44029C10.9176 3.31388 10.9072 3.19168 10.9072 3.07371C10.9072 2.46296 11.1211 1.94382 11.5488 1.51629C11.9765 1.08876 12.4958 0.875 13.1068 0.875C13.7179 0.875 14.2369 1.08867 14.664 1.516C15.0911 1.94335 15.3046 2.46226 15.3046 3.07275C15.3046 3.69036 15.0909 4.21138 14.6633 4.63579C14.2358 5.06019 13.7167 5.2724 13.1059 5.2724C12.7888 5.2724 12.4883 5.21631 12.2046 5.10413C11.9209 4.99194 11.6775 4.81513 11.4745 4.57369L4.99372 8.24998C5.02684 8.36109 5.05381 8.48767 5.07464 8.62973C5.09548 8.77179 5.10589 8.89633 5.10589 9.00335C5.10589 9.11037 5.09548 9.22176 5.07464 9.33754C5.05381 9.45332 5.02684 9.56676 4.99372 9.67788L11.4745 13.4054C11.6775 13.2003 11.9139 13.036 12.1836 12.9126C12.4534 12.7893 12.7608 12.7276 13.1059 12.7276C13.7167 12.7276 14.2358 12.9395 14.6633 13.3632C15.0909 13.787 15.3046 14.3064 15.3046 14.9213C15.3046 15.5363 15.0908 16.0573 14.6631 16.4843C14.2353 16.9114 13.716 17.125 13.105 17.125ZM13.108 4.32692C13.4581 4.32692 13.7542 4.20521 13.9961 3.96179C14.2381 3.71837 14.3591 3.42163 14.3591 3.07156C14.3591 2.72149 14.2374 2.42546 13.994 2.18346C13.7506 1.94147 13.4539 1.82048 13.1038 1.82048C12.7537 1.82048 12.4577 1.94219 12.2157 2.1856C11.9737 2.42902 11.8527 2.72576 11.8527 3.07583C11.8527 3.4259 11.9744 3.72194 12.2178 3.96394C12.4612 4.20592 12.758 4.32692 13.108 4.32692ZM2.90933 10.2532C3.2594 10.2532 3.55543 10.1315 3.79743 9.88808C4.03942 9.64467 4.16041 9.34792 4.16041 8.99783C4.16041 8.64776 4.0387 8.35174 3.79529 8.10975C3.55187 7.86776 3.25513 7.74677 2.90506 7.74677C2.55499 7.74677 2.25895 7.86847 2.01695 8.11187C1.77497 8.35529 1.65398 8.65204 1.65398 9.00213C1.65398 9.35219 1.77568 9.64822 2.0191 9.89021C2.26252 10.1322 2.55926 10.2532 2.90933 10.2532ZM13.108 16.1795C13.4581 16.1795 13.7542 16.0578 13.9961 15.8144C14.2381 15.5709 14.3591 15.2742 14.3591 14.9241C14.3591 14.5741 14.2374 14.278 13.994 14.036C13.7506 13.794 13.4539 13.673 13.1038 13.673C12.7537 13.673 12.4577 13.7948 12.2157 14.0382C11.9737 14.2816 11.8527 14.5783 11.8527 14.9284C11.8527 15.2785 11.9744 15.5745 12.2178 15.8165C12.4612 16.0585 12.758 16.1795 13.108 16.1795Z" fill="#14142B"/>
</svg>
