<svg width="120" height="120" viewBox="0 0 120 120" fill="none" xmlns="http://www.w3.org/2000/svg">
<path d="M60 105C35.1645 105 15 84.8355 15 60C15 35.1645 35.1645 15 60 15C84.8355 15 105 35.1645 105 60C105 84.8355 84.8355 105 60 105Z" fill="#0FA069"/>
<path d="M60 105C35.1645 105 15 84.8355 15 60C15 35.1645 35.1645 15 60 15C84.8355 15 105 35.1645 105 60C105 84.8355 84.8355 105 60 105Z" stroke="#0FA069" stroke-width="6" stroke-linecap="round" stroke-linejoin="round"/>
<path fill-rule="evenodd" clip-rule="evenodd" d="M77.3987 47.3435C78.9062 48.851 78.9062 51.2952 77.3987 52.8027L57.5461 72.6553C56.0386 74.1628 53.5944 74.1628 52.0869 72.6553L42.6018 63.1701C41.0943 61.6626 41.0943 59.2185 42.6018 57.711C44.1093 56.2035 46.5535 56.2035 48.061 57.711L54.8165 64.4665L71.9395 47.3435C73.447 45.836 75.8912 45.836 77.3987 47.3435Z" fill="white"/>
</svg>
