<svg width="18" height="16" viewBox="0 0 18 16" fill="none" xmlns="http://www.w3.org/2000/svg">
<path fill-rule="evenodd" clip-rule="evenodd" d="M3.83169 0.225693C4.13261 -0.0752309 4.62051 -0.0752309 4.92143 0.225693L17.2504 12.5547C17.5514 12.8556 17.5514 13.3435 17.2504 13.6444C16.9495 13.9454 16.4616 13.9454 16.1607 13.6444L15.1316 12.6154C13.4133 14.1471 11.3021 15.0694 8.99999 15.0694C5.38944 15.0694 2.26952 12.811 0.360428 9.48586C-0.12014 8.64884 -0.120143 7.61989 0.36042 6.78287C1.47709 4.83791 3.00234 3.26224 4.80194 2.28568L3.83169 1.31543C3.53076 1.01451 3.53076 0.526616 3.83169 0.225693ZM5.94847 3.43222C4.26791 4.22103 2.78521 5.6547 1.69693 7.55021C1.48919 7.91204 1.48919 8.35668 1.69693 8.71851C3.40948 11.7013 6.08235 13.5283 8.99999 13.5283C10.841 13.5283 12.5759 12.805 14.0399 11.5236L11.8424 9.32619C11.8414 9.32861 11.8404 9.33102 11.8394 9.33344C11.579 9.95005 11.125 10.4651 10.5459 10.8009C9.96687 11.1366 9.29426 11.2747 8.62977 11.1943C7.96527 11.1139 7.345 10.8194 6.86271 10.3553C6.38041 9.89118 6.06231 9.28268 5.95646 8.62176C5.85062 7.96085 5.9628 7.28344 6.27604 6.69192C6.58929 6.1004 7.08657 5.62692 7.69273 5.34305C7.7309 5.32517 7.76937 5.30811 7.80812 5.29186L5.94847 3.43222ZM9.1137 6.59745C8.85118 6.57802 8.5868 6.6261 8.34633 6.73871C8.04325 6.88065 7.79461 7.11738 7.63799 7.41314C7.48137 7.7089 7.42528 8.04761 7.4782 8.37807C7.53112 8.70853 7.69018 9.01278 7.93132 9.24484C8.17247 9.4769 8.48261 9.62415 8.81485 9.66434C9.1471 9.70454 9.4834 9.63548 9.77293 9.46762C10.0625 9.29976 10.2895 9.04221 10.4197 8.73391C10.5152 8.50764 10.5548 8.26305 10.5369 8.02061L9.1137 6.59745ZM10.83 2.15011C10.9687 1.74779 11.4074 1.53413 11.8097 1.67287C14.2152 2.50245 16.2461 4.35579 17.6396 6.7828C18.0056 7.4203 18.0928 8.16905 17.9014 8.85945C17.7877 9.26955 17.3631 9.50984 16.953 9.39614C16.5429 9.28244 16.3026 8.85782 16.4163 8.44772C16.499 8.14917 16.4612 7.82561 16.3031 7.55015C15.0564 5.3787 13.2933 3.8147 11.3072 3.12979C10.9049 2.99105 10.6912 2.55243 10.83 2.15011Z" fill="#14142B"/>
</svg>
