<svg width="14" height="12" viewBox="0 0 14 12" fill="none" xmlns="http://www.w3.org/2000/svg">
<path fill-rule="evenodd" clip-rule="evenodd" d="M4.3587 1.92391C3.71036 1.92391 3.18478 2.44949 3.18478 3.09783C3.18478 3.74616 3.71036 4.27174 4.3587 4.27174C5.00703 4.27174 5.53261 3.74616 5.53261 3.09783C5.53261 2.44949 5.00703 1.92391 4.3587 1.92391ZM2.01087 3.09783C2.01087 1.80116 3.06203 0.75 4.3587 0.75C5.65536 0.75 6.70652 1.80116 6.70652 3.09783C6.70652 4.39449 5.65536 5.44565 4.3587 5.44565C3.06203 5.44565 2.01087 4.39449 2.01087 3.09783ZM9.93478 3.68478C9.44853 3.68478 9.05435 4.07897 9.05435 4.56522C9.05435 5.05147 9.44853 5.44565 9.93478 5.44565C10.421 5.44565 10.8152 5.05147 10.8152 4.56522C10.8152 4.07897 10.421 3.68478 9.93478 3.68478ZM7.88043 4.56522C7.88043 3.43063 8.8002 2.51087 9.93478 2.51087C11.0694 2.51087 11.9891 3.43063 11.9891 4.56522C11.9891 5.6998 11.0694 6.61957 9.93478 6.61957C8.8002 6.61957 7.88043 5.6998 7.88043 4.56522ZM0.25 10.1413C0.25 7.87213 2.08953 6.03261 4.3587 6.03261C5.78836 6.03261 7.04747 6.7628 7.78344 7.87059C8.39578 7.45187 9.1369 7.20652 9.93478 7.20652C12.0419 7.20652 13.75 8.91465 13.75 11.0217V11.9022H0.25V10.1413ZM8.46605 10.0353C8.45653 9.65969 8.39662 9.29664 8.29282 8.95263C8.74391 8.59403 9.31405 8.38043 9.93478 8.38043C11.2943 8.38043 12.414 9.40762 12.56 10.7283H8.46739V10.1413C8.46739 10.1058 8.46694 10.0705 8.46605 10.0353ZM7.29348 10.1413C7.29348 10.1136 7.2931 10.0861 7.29233 10.0586C7.24853 8.47599 5.95186 7.20652 4.3587 7.20652C2.73786 7.20652 1.42391 8.52047 1.42391 10.1413V10.7283H7.29348V10.1413Z" fill="#14142B"/>
</svg>
