<svg width="24" height="24" viewBox="0 0 24 24" fill="none" xmlns="http://www.w3.org/2000/svg">
<path fill-rule="evenodd" clip-rule="evenodd" d="M12 5.5C11.1716 5.5 10.5 6.17157 10.5 7C10.5 7.82843 11.1716 8.5 12 8.5C12.8284 8.5 13.5 7.82843 13.5 7C13.5 6.17157 12.8284 5.5 12 5.5ZM9 7C9 5.34315 10.3431 4 12 4C13.6569 4 15 5.34315 15 7C15 8.65685 13.6569 10 12 10C10.3431 10 9 8.65685 9 7ZM6 8.5C5.58579 8.5 5.25 8.83579 5.25 9.25C5.25 9.66421 5.58579 10 6 10C6.41421 10 6.75 9.66421 6.75 9.25C6.75 8.83579 6.41421 8.5 6 8.5ZM3.75 9.25C3.75 8.00736 4.75736 7 6 7C7.24264 7 8.25 8.00736 8.25 9.25C8.25 10.4926 7.24264 11.5 6 11.5C4.75736 11.5 3.75 10.4926 3.75 9.25ZM18 8.5C17.5858 8.5 17.25 8.83579 17.25 9.25C17.25 9.66421 17.5858 10 18 10C18.4142 10 18.75 9.66421 18.75 9.25C18.75 8.83579 18.4142 8.5 18 8.5ZM15.75 9.25C15.75 8.00736 16.7574 7 18 7C19.2426 7 20.25 8.00736 20.25 9.25C20.25 10.4926 19.2426 11.5 18 11.5C16.7574 11.5 15.75 10.4926 15.75 9.25ZM8.22397 12.8012C9.02631 11.5666 10.4178 10.75 12 10.75C13.5822 10.75 14.9737 11.5666 15.776 12.8012C16.3069 12.453 16.9423 12.25 17.625 12.25C19.489 12.25 21 13.761 21 15.625V19.5H3V15.625C3 13.761 4.51104 12.25 6.375 12.25C7.05771 12.25 7.69312 12.453 8.22397 12.8012ZM9.00098 15.1726C9.00033 15.1983 9 15.2241 9 15.25V18H15V15.25C15 15.2225 14.9996 15.1951 14.9989 15.1678C14.9553 13.5489 13.6294 12.25 12 12.25C10.369 12.25 9.04205 13.5515 9.00098 15.1726ZM16.5 15.25V18H19.5V15.625C19.5 14.5895 18.6605 13.75 17.625 13.75C17.1483 13.75 16.7133 13.9274 16.3819 14.2212C16.4507 14.5154 16.4906 14.8206 16.4985 15.1339C16.4995 15.1724 16.5 15.2112 16.5 15.25ZM7.5 18V15.25C7.5 15.2078 7.50058 15.1658 7.50173 15.1239C7.51025 14.8142 7.55007 14.5123 7.61814 14.2212C7.28674 13.9274 6.85169 13.75 6.375 13.75C5.33947 13.75 4.5 14.5895 4.5 15.625V18H7.5Z" fill="#14142B"/>
</svg>
