<svg width="12" height="18" viewBox="0 0 12 18" fill="none" xmlns="http://www.w3.org/2000/svg">
<path d="M4.5 15.75C4.5 16.9875 3.4875 18 2.25 18C1.0125 18 0 16.9875 0 15.75C0 14.5125 1.0125 13.5 2.25 13.5C3.4875 13.5 4.5 14.5125 4.5 15.75ZM2.25 6.75C1.0125 6.75 0 7.7625 0 9C0 10.2375 1.0125 11.25 2.25 11.25C3.4875 11.25 4.5 10.2375 4.5 9C4.5 7.7625 3.4875 6.75 2.25 6.75ZM2.25 0C1.0125 0 0 1.0125 0 2.25C0 3.4875 1.0125 4.5 2.25 4.5C3.4875 4.5 4.5 3.4875 4.5 2.25C4.5 1.0125 3.4875 0 2.25 0ZM9 4.5C10.2375 4.5 11.25 3.4875 11.25 2.25C11.25 1.0125 10.2375 0 9 0C7.7625 0 6.75 1.0125 6.75 2.25C6.75 3.4875 7.7625 4.5 9 4.5ZM9 6.75C7.7625 6.75 6.75 7.7625 6.75 9C6.75 10.2375 7.7625 11.25 9 11.25C10.2375 11.25 11.25 10.2375 11.25 9C11.25 7.7625 10.2375 6.75 9 6.75ZM9 13.5C7.7625 13.5 6.75 14.5125 6.75 15.75C6.75 16.9875 7.7625 18 9 18C10.2375 18 11.25 16.9875 11.25 15.75C11.25 14.5125 10.2375 13.5 9 13.5Z" fill="#2D2D39"/>
</svg>
