<svg width="18" height="14" viewBox="0 0 18 14" fill="none" xmlns="http://www.w3.org/2000/svg">
<path fill-rule="evenodd" clip-rule="evenodd" d="M9.00002 1.54113C6.08236 1.54113 3.40948 3.36814 1.69693 6.35096C1.48919 6.7128 1.48919 7.15743 1.69693 7.51927C3.40948 10.5021 6.08235 12.329 8.99998 12.329C11.9176 12.329 14.5905 10.502 16.3031 7.5192C16.5108 7.15737 16.5108 6.71273 16.3031 6.3509C14.5905 3.36811 11.9176 1.54113 9.00002 1.54113ZM0.36042 5.58363C2.26951 2.25847 5.38944 0 9.00002 0C12.6106 0 15.7305 2.25844 17.6396 5.58355C18.1201 6.42057 18.1201 7.44952 17.6396 8.28654C15.7305 11.6117 12.6106 13.8702 8.99998 13.8702C5.38944 13.8702 2.26952 11.6117 0.360428 8.28661C-0.12014 7.44959 -0.120143 6.42065 0.36042 5.58363ZM8.99993 5.39394C8.14879 5.39394 7.45881 6.08393 7.45881 6.93507C7.45881 7.78621 8.14879 8.47619 8.99993 8.47619C9.85107 8.47619 10.5411 7.78621 10.5411 6.93507C10.5411 6.08393 9.85107 5.39394 8.99993 5.39394ZM5.91768 6.93507C5.91768 5.23279 7.29765 3.85281 8.99993 3.85281C10.7022 3.85281 12.0822 5.23279 12.0822 6.93507C12.0822 8.63735 10.7022 10.0173 8.99993 10.0173C7.29765 10.0173 5.91768 8.63735 5.91768 6.93507Z" fill="#14142B"/>
</svg>
