<svg width="99" height="90" viewBox="0 0 99 90" fill="none" xmlns="http://www.w3.org/2000/svg">
<g id="Group 3876">
<g id="Group">
<g id="Group_2">
<path id="Vector" d="M96.461 80.439C99.2292 75.1127 99.1139 68.9116 96.0969 63.6901L64.4034 8.80369C61.2665 3.27861 55.5997 0 49.2449 0C42.89 0 37.2233 3.29885 34.0864 8.78345L2.35281 63.7306C-0.804377 69.2557 -0.784141 75.8331 2.41352 81.3177C5.57071 86.7416 11.2172 90 17.5316 90H80.837C87.1716 90 92.8586 86.7011 96.0562 81.1761C96.1975 80.9324 96.3323 80.6867 96.461 80.439ZM88.8028 77.8033C86.9947 80.4787 84.0644 82.0463 80.817 82.0463H17.5113C14.0708 82.0463 10.9744 80.2856 9.25409 77.3105C7.51359 74.295 7.49335 70.6926 9.23385 67.6568L40.9674 12.7299C42.6877 9.71441 45.7639 7.93344 49.2449 7.93344C52.7057 7.93344 55.8021 9.73465 57.5224 12.7502L89.2359 67.6771C90.9359 70.6319 90.9157 74.1938 89.1752 77.2094C89.057 77.4129 88.9329 77.6111 88.8028 77.8033Z" fill="#FFCD41"/>
</g>
</g>
<g id="Group_3">
<g id="Group_4">
<path id="Vector_2" d="M49.2818 63.1855C46.5293 63.1855 44.2222 65.4927 44.2222 68.2451C44.2222 70.9976 46.5293 73.3047 49.2818 73.3047C51.933 73.3047 54.3414 70.9976 54.2199 68.3666C54.3414 65.4725 52.0544 63.1855 49.2818 63.1855Z" fill="#FFCD41"/>
</g>
</g>
<g id="Group_5">
<g id="Group_6">
<path id="Vector_3" d="M48.1283 27.6672C45.7204 28.3572 44.2244 30.544 44.2264 33.1953C44.3491 34.794 44.4515 36.413 44.5741 38.0117C44.9228 44.1032 45.2714 50.0733 45.62 56.1648C45.743 58.229 47.343 59.7254 49.4073 59.7238C51.4716 59.7223 53.0894 58.1222 53.1891 56.0376C53.1881 54.7828 53.1872 53.6292 53.3077 52.3541C53.5274 48.448 53.7673 44.5418 53.987 40.6356C54.1065 38.1057 54.3272 35.5758 54.4467 33.0459C54.446 32.1351 54.324 31.3257 53.9793 30.5164C52.9455 28.2505 50.5362 27.0987 48.1283 27.6672Z" fill="#FFCD41"/>
</g>
</g>
</g>
</svg>
