<svg width="50" height="50" viewBox="0 0 50 50" fill="none" xmlns="http://www.w3.org/2000/svg">
<rect x="0.5" y="0.5" width="49" height="49" rx="4.5" fill="white" stroke="#CED3D9"/>
<g clip-path="url(#clip0_762_13545)">
<g clip-path="url(#clip1_762_13545)">
<g clip-path="url(#clip2_762_13545)">
<path d="M25 17C25 17 18.7455 17 17.1855 17.418C16.3245 17.648 15.648 18.3255 15.418 19.1855C15 20.7455 15 25 15 25C15 25 15 29.2545 15.418 30.8145C15.648 31.6755 16.3255 32.352 17.1855 32.582C18.7455 33 25 33 25 33C25 33 31.2545 33 32.8145 32.582C33.6745 32.352 34.352 31.6745 34.582 30.8145C35 29.2545 35 25 35 25C35 25 35 20.7455 34.582 19.1855C34.352 18.3255 33.6745 17.648 32.8145 17.418C31.2545 17 25 17 25 17ZM25 19C27.882 19 31.4909 19.1336 32.2969 19.3496C32.4659 19.3946 32.6044 19.5331 32.6504 19.7031C32.8914 20.6011 33 23.342 33 25C33 26.658 32.8914 29.3979 32.6504 30.2969C32.6054 30.4659 32.4669 30.6044 32.2969 30.6504C31.4919 30.8664 27.882 31 25 31C22.119 31 18.5101 30.8664 17.7031 30.6504C17.5341 30.6054 17.3956 30.4669 17.3496 30.2969C17.1086 29.3989 17 26.658 17 25C17 23.342 17.1086 20.6012 17.3496 19.7012C17.3946 19.5332 17.5331 19.3946 17.7031 19.3496C18.5081 19.1336 22.118 19 25 19ZM23 21.5352V28.4648L29 25L23 21.5352Z" fill="#14142B"/>
</g>
</g>
</g>
<defs>
<clipPath id="clip0_762_13545">
<rect width="24" height="24" fill="white" transform="translate(13 13)"/>
</clipPath>
<clipPath id="clip1_762_13545">
<rect width="24" height="24" fill="white" transform="translate(13 13)"/>
</clipPath>
<clipPath id="clip2_762_13545">
<rect width="24" height="24" fill="white" transform="translate(13 13)"/>
</clipPath>
</defs>
</svg>
