<svg width="24" height="25" viewBox="0 0 24 25" fill="none" xmlns="http://www.w3.org/2000/svg">
<mask id="mask0_51_2319" style="mask-type:alpha" maskUnits="userSpaceOnUse" x="0" y="0" width="24" height="25">
<rect y="0.5" width="24" height="24" fill="#D9D9D9"/>
</mask>
<g mask="url(#mask0_51_2319)">
<path d="M4 18.5C3.71667 18.5 3.47933 18.404 3.288 18.212C3.096 18.0207 3 17.7833 3 17.5C3 17.2167 3.096 16.9793 3.288 16.788C3.47933 16.596 3.71667 16.5 4 16.5H13C13.2833 16.5 13.5207 16.596 13.712 16.788C13.904 16.9793 14 17.2167 14 17.5C14 17.7833 13.904 18.0207 13.712 18.212C13.5207 18.404 13.2833 18.5 13 18.5H4ZM4 13.5C3.71667 13.5 3.47933 13.404 3.288 13.212C3.096 13.0207 3 12.7833 3 12.5C3 12.2167 3.096 11.979 3.288 11.787C3.47933 11.5957 3.71667 11.5 4 11.5H20C20.2833 11.5 20.5207 11.5957 20.712 11.787C20.904 11.979 21 12.2167 21 12.5C21 12.7833 20.904 13.0207 20.712 13.212C20.5207 13.404 20.2833 13.5 20 13.5H4ZM4 8.5C3.71667 8.5 3.47933 8.40433 3.288 8.213C3.096 8.021 3 7.78333 3 7.5C3 7.21667 3.096 6.979 3.288 6.787C3.47933 6.59567 3.71667 6.5 4 6.5H17C17.2833 6.5 17.5207 6.59567 17.712 6.787C17.904 6.979 18 7.21667 18 7.5C18 7.78333 17.904 8.021 17.712 8.213C17.5207 8.40433 17.2833 8.5 17 8.5H4Z" fill="#89909A"/>
</g>
</svg>
