<svg width="17" height="25" viewBox="0 0 17 25" fill="none" xmlns="http://www.w3.org/2000/svg">
<path fill-rule="evenodd" clip-rule="evenodd" d="M1.25033 22.167H15.7503C16.4149 22.167 16.9587 22.7107 16.9587 23.3753C16.9587 24.0399 16.4149 24.5837 15.7503 24.5837H1.25033C0.585742 24.5837 0.0419922 24.0399 0.0419922 23.3753C0.0419922 22.7107 0.585742 22.167 1.25033 22.167ZM8.50033 6.45866C7.17116 6.45866 6.08366 7.54616 6.08366 8.87533C6.08366 10.2045 7.17116 11.292 8.50033 11.292C9.14126 11.292 9.75595 11.0374 10.2092 10.5842C10.6624 10.131 10.917 9.51626 10.917 8.87533C10.917 8.23439 10.6624 7.6197 10.2092 7.16648C9.75595 6.71327 9.14126 6.45866 8.50033 6.45866ZM8.50033 0.416992C12.4516 0.416992 16.9587 3.38949 16.9587 9.05657C16.9587 12.6574 14.3849 16.4516 9.23741 20.4028C8.80241 20.7412 8.19824 20.7412 7.76324 20.4028C2.61574 16.4395 0.0419922 12.6574 0.0419922 9.05657C0.0419922 3.38949 4.54908 0.416992 8.50033 0.416992Z" fill="#C8E1FC"/>
</svg>
