<svg width="18" height="18" viewBox="0 0 18 18" fill="none" xmlns="http://www.w3.org/2000/svg">
<mask id="mask0_98_2524" style="mask-type:alpha" maskUnits="userSpaceOnUse" x="0" y="0" width="18" height="18">
<rect width="18" height="18" fill="#5D819D"/>
</mask>
<g mask="url(#mask0_98_2524)">
<path d="M3.98078 16.1252C3.60674 16.1252 3.28727 15.9927 3.02237 15.7278C2.75746 15.4629 2.625 15.1434 2.625 14.7694V6.23098C2.625 5.85695 2.75746 5.53748 3.02237 5.27258C3.28727 5.00766 3.60674 4.87521 3.98078 4.87521H5.625C5.625 3.93868 5.95336 3.14206 6.61009 2.48533C7.26683 1.82861 8.06346 1.50024 8.99998 1.50024C9.93651 1.50024 10.7331 1.82861 11.3899 2.48533C12.0466 3.14206 12.375 3.93868 12.375 4.87521H14.0192C14.3932 4.87521 14.7127 5.00766 14.9776 5.27258C15.2425 5.53748 15.375 5.85695 15.375 6.23098V14.7694C15.375 15.1434 15.2425 15.4629 14.9776 15.7278C14.7127 15.9927 14.3932 16.1252 14.0192 16.1252H3.98078ZM3.98078 15.0002H14.0192C14.0769 15.0002 14.1298 14.9762 14.1779 14.9281C14.2259 14.88 14.25 14.8271 14.25 14.7694V6.23098C14.25 6.17328 14.2259 6.12039 14.1779 6.0723C14.1298 6.02423 14.0769 6.00019 14.0192 6.00019H3.98078C3.92308 6.00019 3.87018 6.02423 3.82209 6.0723C3.77402 6.12039 3.74998 6.17328 3.74998 6.23098V14.7694C3.74998 14.8271 3.77402 14.88 3.82209 14.9281C3.87018 14.9762 3.92308 15.0002 3.98078 15.0002ZM8.99998 10.1252C9.93651 10.1252 10.7331 9.79681 11.3899 9.14008C12.0466 8.48334 12.375 7.68671 12.375 6.75019H11.25C11.25 7.37519 11.0312 7.90644 10.5937 8.34394C10.1562 8.78144 9.62498 9.00019 8.99998 9.00019C8.37498 9.00019 7.84373 8.78144 7.40623 8.34394C6.96873 7.90644 6.74998 7.37519 6.74998 6.75019H5.625C5.625 7.68671 5.95336 8.48334 6.61009 9.14008C7.26683 9.79681 8.06346 10.1252 8.99998 10.1252ZM6.74998 4.87521H11.25C11.25 4.25021 11.0312 3.71896 10.5937 3.28146C10.1562 2.84396 9.62498 2.62521 8.99998 2.62521C8.37498 2.62521 7.84373 2.84396 7.40623 3.28146C6.96873 3.71896 6.74998 4.25021 6.74998 4.87521Z" fill="#5D819D"/>
</g>
</svg>
