<svg width="34" height="34" viewBox="0 0 34 34" fill="none" xmlns="http://www.w3.org/2000/svg">
<path d="M11.7895 23.5132C12.6334 23.5132 13.3509 23.2176 13.9421 22.6264C14.5333 22.0352 14.8289 21.3177 14.8289 20.4738C14.8289 19.6298 14.5333 18.9123 13.9421 18.3211C13.3509 17.7299 12.6334 17.4343 11.7895 17.4343C10.9455 17.4343 10.228 17.7299 9.63681 18.3211C9.04562 18.9123 8.75002 19.6298 8.75002 20.4738C8.75002 21.3177 9.04562 22.0352 9.63681 22.6264C10.228 23.2176 10.9455 23.5132 11.7895 23.5132ZM22.2105 23.5132C23.0545 23.5132 23.772 23.2176 24.3632 22.6264C24.9544 22.0352 25.25 21.3177 25.25 20.4738C25.25 19.6298 24.9544 18.9123 24.3632 18.3211C23.772 17.7299 23.0545 17.4343 22.2105 17.4343C21.3666 17.4343 20.6491 17.7299 20.0579 18.3211C19.4667 18.9123 19.1711 19.6298 19.1711 20.4738C19.1711 21.3177 19.4667 22.0352 20.0579 22.6264C20.6491 23.2176 21.3666 23.5132 22.2105 23.5132ZM17 14.829C17.8439 14.829 18.5615 14.5334 19.1526 13.9422C19.7438 13.351 20.0394 12.6335 20.0394 11.7895C20.0394 10.9456 19.7438 10.228 19.1526 9.63687C18.5615 9.04568 17.8439 8.75008 17 8.75008C16.1561 8.75008 15.4385 9.04568 14.8474 9.63687C14.2562 10.228 13.9606 10.9456 13.9606 11.7895C13.9606 12.6335 14.2562 13.351 14.8474 13.9422C15.4385 14.5334 16.1561 14.829 17 14.829ZM17.0029 33.5001C14.7208 33.5001 12.5757 33.067 10.5677 32.2009C8.55966 31.3348 6.81295 30.1594 5.32757 28.6747C3.84216 27.1899 2.66621 25.444 1.79973 23.4368C0.933242 21.4297 0.5 19.2851 0.5 17.003C0.5 14.7209 0.933054 12.5758 1.79916 10.5678C2.66527 8.55972 3.84068 6.81301 5.32539 5.32763C6.81014 3.84222 8.55609 2.66627 10.5632 1.79979C12.5704 0.933305 14.715 0.500061 16.9971 0.500061C19.2792 0.500061 21.4243 0.933117 23.4323 1.79922C25.4403 2.66533 27.1871 3.84074 28.6724 5.32546C30.1578 6.8102 31.3338 8.55615 32.2003 10.5633C33.0668 12.5704 33.5 14.7151 33.5 16.9972C33.5 19.2793 33.0669 21.4243 32.2008 23.4323C31.3347 25.4404 30.1593 27.1871 28.6746 28.6725C27.1899 30.1579 25.4439 31.3339 23.4368 32.2003C21.4296 33.0668 19.285 33.5001 17.0029 33.5001ZM17 30.8948C20.879 30.8948 24.1645 29.5488 26.8566 26.8567C29.5487 24.1646 30.8948 20.879 30.8948 17.0001C30.8948 13.1211 29.5487 9.83557 26.8566 7.14346C24.1645 4.45134 20.879 3.10529 17 3.10529C13.121 3.10529 9.83551 4.45134 7.14339 7.14346C4.45128 9.83557 3.10523 13.1211 3.10523 17.0001C3.10523 20.879 4.45128 24.1646 7.14339 26.8567C9.83551 29.5488 13.121 30.8948 17 30.8948Z" fill="#4B9EF9"/>
</svg>
