<svg width="15" height="18" viewBox="0 0 15 18" fill="none" xmlns="http://www.w3.org/2000/svg">
<path d="M1.71256 18C1.23401 18 0.828949 17.8342 0.49737 17.5026C0.16579 17.1711 0 16.766 0 16.2874V1.71256C0 1.23401 0.16579 0.82895 0.49737 0.49737C0.828949 0.16579 1.23401 0 1.71256 0H9.23687L14.2105 4.97365V16.2874C14.2105 16.766 14.0447 17.1711 13.7131 17.5026C13.3816 17.8342 12.9765 18 12.498 18H1.71256ZM9.52634 5.68418C8.97405 5.68418 8.52634 5.23646 8.52634 4.68418V1.42103H1.71256C1.63968 1.42103 1.57286 1.4514 1.51212 1.51212C1.4514 1.57286 1.42103 1.63968 1.42103 1.71256V16.2874C1.42103 16.3603 1.4514 16.4271 1.51212 16.4879C1.57286 16.5486 1.63968 16.579 1.71256 16.579H12.498C12.5708 16.579 12.6376 16.5486 12.6984 16.4879C12.7591 16.4271 12.7895 16.3603 12.7895 16.2874V5.68418H9.52634Z" fill="#14142B"/>
</svg>
