<svg width="28" height="28" viewBox="0 0 28 28" fill="none" xmlns="http://www.w3.org/2000/svg">
<g clip-path="url(#clip0_554_598)">
<path d="M19.0034 20.75H8.43261C7.77763 20.75 7.25 20.2224 7.25 19.5674V9.59703C7.25 8.94205 7.77763 8.41442 8.43261 8.41442H10.1974V7.83221C10.1974 7.50472 10.4522 7.25 10.7796 7.25C11.1071 7.25 11.3619 7.50472 11.3619 7.83221V8.41442H16.0559V7.83221C16.0559 7.50472 16.3106 7.25 16.6381 7.25C16.9656 7.25 17.2204 7.50472 17.2204 7.83221V8.41442H18.9852C19.6402 8.41442 20.1678 8.94205 20.1678 9.59703V19.5856C20.1678 20.2224 19.6402 20.75 19.0034 20.75ZM8.43261 12.5445V19.5856H19.0034V12.5445H8.43261ZM8.43261 11.3619H19.0034V9.59703H8.43261V11.3619Z" fill="#14142B"/>
<path d="M16.9291 14.2911H14.582V15.4738H16.9291V14.2911Z" fill="#14142B"/>
<path d="M16.9291 16.6382H14.582V17.8208H16.9291V16.6382Z" fill="#14142B"/>
<path d="M12.8358 16.6382H10.4888V17.8208H12.8358V16.6382Z" fill="#14142B"/>
<path d="M12.8358 14.2911H10.4888V15.4738H12.8358V14.2911Z" fill="#14142B"/>
</g>
<rect x="0.5" y="0.5" width="27" height="27" rx="4.5" stroke="#14142B"/>
<defs>
<clipPath id="clip0_554_598">
<rect width="12.9178" height="13.5" fill="white" transform="translate(7.25 7.25)"/>
</clipPath>
</defs>
</svg>
