<svg width="16" height="16" viewBox="0 0 16 16" fill="none" xmlns="http://www.w3.org/2000/svg">
<path d="M12.773 3.22703C15.409 5.86307 15.409 10.1369 12.773 12.773C10.1369 15.409 5.86307 15.409 3.22703 12.773M12.773 3.22703C10.1369 0.59099 5.86307 0.59099 3.22703 3.22703M12.773 3.22703L10.1695 5.83047M3.22703 12.773C0.59099 10.1369 0.59099 5.86307 3.22703 3.22703M3.22703 12.773L5.83047 10.1695M3.22703 3.22703L5.61352 5.6135M10.1695 10.1695L12.556 12.556M11.0682 8C11.0682 9.69451 9.69451 11.0682 8 11.0682C6.30549 11.0682 4.93182 9.69451 4.93182 8C4.93182 6.30549 6.30549 4.93182 8 4.93182C9.69451 4.93182 11.0682 6.30549 11.0682 8Z" stroke="#14142B"/>
</svg>
