<svg width="24" height="24" viewBox="0 0 24 24" fill="none" xmlns="http://www.w3.org/2000/svg">
<path d="M20.4265 12.2409C20.755 11.8638 20.7545 11.302 20.4253 10.9256L19.0036 9.3L19.2014 7.15368C19.2474 6.65418 18.9163 6.19788 18.4271 6.08677L16.3282 5.61L15.2296 3.75574C14.9735 3.32346 14.4364 3.14835 13.9747 3.3466L12 4.19455L10.0253 3.3466C9.56365 3.14835 9.02654 3.32346 8.77043 3.75574L7.67182 5.61L5.57545 6.08038C5.08512 6.1904 4.75259 6.64721 4.79858 7.14762L4.99636 9.3L3.57573 10.9244C3.24606 11.3014 3.24605 11.8641 3.57573 12.241L4.99636 13.8655L4.79836 16.0202C4.75247 16.5196 5.0836 16.9757 5.57266 17.0868L7.67182 17.5636L8.76972 19.4225C9.02599 19.8564 9.56507 20.0318 10.0276 19.8319L12 18.9791L13.9747 19.827C14.4364 20.0253 14.9735 19.8502 15.2296 19.4179L16.3282 17.5636L18.4271 17.0869C18.9163 16.9758 19.2474 16.5195 19.2014 16.02L19.0036 13.8736L20.4265 12.2409ZM17.7682 12.7936L17.31 13.3255L17.3755 14.0209L17.4421 14.7428C17.4882 15.2426 17.1566 15.6992 16.6671 15.81L15.9682 15.9682L15.2809 16.1236L14.9209 16.7291L14.5591 17.343C14.3031 17.7775 13.7635 17.9534 13.3006 17.7531L12.6545 17.4736L12 17.1955L11.3536 17.4736L10.7055 17.754C10.2435 17.9539 9.70492 17.7792 9.44823 17.3462L9.08727 16.7373L8.72727 16.1318L8.04 15.9764L7.34072 15.8181C6.8513 15.7073 6.51976 15.251 6.56565 14.7513L6.63273 14.0209L6.69818 13.3255L6.24 12.7936L5.76141 12.2483C5.43109 11.8719 5.43014 11.3091 5.7592 10.9316L6.24 10.38L6.69818 9.84818L6.62455 9.14455L6.55836 8.43125C6.51197 7.93124 6.84358 7.47437 7.33335 7.36353L8.03182 7.20545L8.71909 7.05L9.07909 6.44455L9.44085 5.83065C9.69692 5.39611 10.2365 5.22028 10.6994 5.42054L11.3455 5.7L12 5.97818L12.6464 5.7L13.2924 5.42053C13.7553 5.22028 14.2949 5.39611 14.551 5.83065L14.9127 6.44455L15.2727 7.05L15.96 7.20545L16.6589 7.36362C17.1485 7.47442 17.48 7.93102 17.4339 8.43087L17.3673 9.15273L17.3018 9.84818L17.76 10.38L18.2408 10.9279C18.5702 11.3032 18.5722 11.864 18.2456 12.2417L17.7682 12.7936Z" fill="#2D2D39"/>
<path d="M10.4373 13.0227L9.14838 11.7283C8.81243 11.3909 8.2661 11.3912 7.93055 11.729C7.59742 12.0644 7.59798 12.6059 7.9318 12.9406L9.72921 14.7428C10.12 15.1346 10.7546 15.1345 11.1453 14.7428L15.839 10.0362C16.1729 9.70146 16.1734 9.15979 15.8402 8.82434C15.5047 8.48655 14.9585 8.4861 14.6224 8.82333L10.4373 13.0227Z" fill="#2D2D39"/>
</svg>
