<svg width="24" height="24" viewBox="0 0 24 24" fill="none" xmlns="http://www.w3.org/2000/svg">
    <g clip-path="url(#nnpulwhrla)">
        <path d="M5.75 21c-.483 0-.896-.17-1.237-.512A1.686 1.686 0 0 1 4 19.25v-7.5c0-.483.17-.896.513-1.238A1.686 1.686 0 0 1 5.75 10c.483 0 .896.17 1.237.512.342.342.513.755.513 1.238v7.5c0 .483-.17.896-.513 1.238A1.686 1.686 0 0 1 5.75 21zM12 21c-.483 0-.896-.17-1.238-.512a1.686 1.686 0 0 1-.512-1.238V6.75c0-.483.17-.896.512-1.237A1.686 1.686 0 0 1 12 5c.483 0 .896.17 1.238.513.341.341.512.754.512 1.237v12.5c0 .483-.17.896-.512 1.238A1.686 1.686 0 0 1 12 21zm6.25 0c-.483 0-.896-.17-1.238-.512a1.686 1.686 0 0 1-.512-1.238v-3.5c0-.483.17-.896.512-1.238A1.686 1.686 0 0 1 18.25 14c.483 0 .896.17 1.238.512.341.342.512.755.512 1.238v3.5c0 .483-.17.896-.512 1.238A1.686 1.686 0 0 1 18.25 21z" fill="#2D2D39"/>
    </g>
    <defs>
        <clipPath id="nnpulwhrla">
            <path fill="#fff" d="M0 0h24v24H0z"/>
        </clipPath>
    </defs>
</svg>
