<svg width="24" height="24" viewBox="0 0 24 24" fill="none" xmlns="http://www.w3.org/2000/svg">
<path d="M12.42 3C12.8 3.07 13.18 3.12 13.55 3.22C15.85 3.84 17.57 5.9 17.77 8.28C17.91 9.96 17.42 11.44 16.29 12.69C15.69 13.35 15.25 14.08 15.07 14.96C15.05 15.07 15.03 15.18 15.01 15.29H8.98C8.9 14.73 8.76 14.2 8.47 13.73C8.27 13.41 8.06 13.09 7.8 12.81C6.94 11.87 6.38 10.79 6.25 9.53C6.01 7.29 6.8 5.47 8.59 4.11C9.43 3.48 10.4 3.13 11.46 3.03C11.5 3.03 11.54 3.01 11.58 3C11.86 3 12.14 3 12.42 3ZM11.47 9.33C11.47 9.33 11.47 9.44 11.47 9.52C11.49 9.81 11.72 10.03 12 10.03C12.28 10.03 12.51 9.81 12.52 9.52C12.52 9.42 12.52 9.32 12.52 9.22C12.52 9.03 12.59 8.89 12.75 8.79C12.82 8.74 12.89 8.7 12.95 8.65C13.53 8.21 13.74 7.41 13.44 6.74C13.13 6.07 12.41 5.7 11.69 5.84C10.98 5.98 10.44 6.61 10.42 7.32C10.42 7.65 10.61 7.89 10.91 7.91C11.21 7.93 11.43 7.7 11.48 7.38C11.5 7.24 11.56 7.09 11.66 7C11.87 6.78 12.23 6.82 12.42 7.06C12.62 7.31 12.56 7.65 12.27 7.84C11.74 8.18 11.45 8.65 11.48 9.33H11.47ZM12.52 11.6C12.52 11.32 12.28 11.08 11.99 11.08C11.7 11.08 11.47 11.32 11.47 11.6C11.47 11.89 11.72 12.14 12.01 12.13C12.29 12.13 12.53 11.88 12.53 11.6H12.52Z" fill="#2D2D39"/>
<path d="M21.0001 8.93998C20.8601 9.23998 20.6201 9.34998 20.2901 9.32998C20.0101 9.30998 19.7301 9.32998 19.4501 9.32998C19.1301 9.32998 18.8901 9.09998 18.8901 8.79998C18.8901 8.49998 19.1301 8.27998 19.4501 8.26998C19.7301 8.26998 20.0101 8.27998 20.2901 8.26998C20.6201 8.24998 20.8601 8.35998 21.0001 8.65998V8.93998Z" fill="#2D2D39"/>
<path d="M14.96 16.37C14.96 16.79 15 17.19 14.96 17.59C14.86 18.32 14.21 18.88 13.47 18.88C12.49 18.89 11.51 18.89 10.54 18.88C9.72002 18.87 9.04002 18.18 9.02002 17.36C9.02002 17.03 9.02002 16.71 9.02002 16.37H14.97H14.96Z" fill="#2D2D39"/>
<path d="M10.0698 19.95H13.9098C13.9698 20.37 13.6198 20.8399 13.1598 20.9599C13.0798 20.9799 12.9998 21 12.9198 21C12.3098 21 11.6998 21 11.0898 21C10.5298 21 10.0798 20.5299 10.0698 19.9599V19.95Z" fill="#2D2D39"/>
<path d="M4.05 9.33002C3.87 9.33002 3.7 9.33002 3.52 9.33002C3.23 9.32002 3 9.09002 3 8.80002C3 8.51002 3.23 8.27002 3.54 8.27002C3.88 8.27002 4.23 8.27002 4.57 8.27002C4.88 8.27002 5.11 8.51002 5.11 8.80002C5.11 9.09002 4.88 9.32002 4.56 9.32002C4.39 9.32002 4.22 9.32002 4.05 9.32002V9.33002Z" fill="#2D2D39"/>
<path d="M18.9699 6.80004C18.7299 6.80004 18.5199 6.63005 18.4599 6.40005C18.3999 6.16005 18.4999 5.91004 18.7299 5.81004C19.0999 5.66004 19.4699 5.52005 19.8499 5.40005C20.0799 5.33005 20.3299 5.47004 20.4299 5.68004C20.5299 5.89004 20.5 6.21004 20.29 6.31004C19.87 6.51004 19.4199 6.67004 18.9899 6.84004C18.9899 6.83004 18.9799 6.81004 18.9699 6.80004Z" fill="#2D2D39"/>
<path d="M5.54998 11.33C5.52998 11.55 5.42998 11.73 5.21998 11.81C4.87998 11.94 4.52998 12.07 4.17998 12.18C3.90998 12.27 3.62998 12.12 3.53998 11.87C3.43998 11.61 3.55998 11.3 3.81998 11.2C4.16998 11.06 4.51998 10.93 4.86998 10.82C5.20998 10.71 5.54998 10.98 5.53998 11.33H5.54998Z" fill="#2D2D39"/>
<path d="M19.0298 10.8C19.0298 10.8 19.1298 10.82 19.1998 10.84C19.4998 10.94 19.7898 11.05 20.0898 11.16C20.4198 11.28 20.5698 11.57 20.4598 11.87C20.3498 12.15 20.0498 12.27 19.7298 12.16C19.4198 12.05 19.0998 11.94 18.7898 11.82C18.5298 11.72 18.3998 11.47 18.4598 11.21C18.5098 10.97 18.7298 10.8 19.0198 10.8H19.0298Z" fill="#2D2D39"/>
<path d="M4.97993 6.80003C4.97993 6.80003 4.88993 6.79003 4.83993 6.77003C4.51993 6.65003 4.18993 6.54003 3.86993 6.42003C3.57993 6.31003 3.43993 6.02003 3.53993 5.74003C3.63993 5.47003 3.92993 5.33003 4.20993 5.43003C4.54993 5.54003 4.87993 5.66003 5.20993 5.79003C5.45993 5.89003 5.57993 6.13003 5.52993 6.39003C5.47993 6.63003 5.26993 6.81003 4.96993 6.81003L4.97993 6.80003Z" fill="#2D2D39"/>
</svg>
