<svg width="19" height="19" viewBox="0 0 19 19" fill="none" xmlns="http://www.w3.org/2000/svg">
<path d="M2.5835 5.6L2.11497 5.01435C1.93706 5.15668 1.8335 5.37216 1.8335 5.6H2.5835ZM9.3335 15.2955L8.86497 15.8811L9.3335 16.2559L9.80202 15.8811L9.3335 15.2955ZM2.5835 15.2955H1.8335C1.8335 15.5838 1.99876 15.8465 2.2586 15.9714C2.51845 16.0963 2.82689 16.0612 3.05202 15.8811L2.5835 15.2955ZM16.0835 5.6H16.8335C16.8335 5.37216 16.7299 5.15668 16.552 5.01435L16.0835 5.6ZM16.0835 15.2955L15.615 15.8811C15.8401 16.0612 16.1485 16.0963 16.4084 15.9714C16.6682 15.8465 16.8335 15.5838 16.8335 15.2955H16.0835ZM8.5835 5.6V15.2955H10.0835V5.6H8.5835ZM3.3335 15.2955V5.6H1.8335V15.2955H3.3335ZM2.5835 5.6C3.05202 6.18565 3.05188 6.18576 3.05176 6.18586C3.05172 6.18589 3.0516 6.18598 3.05153 6.18604C3.0514 6.18615 3.05129 6.18623 3.0512 6.1863C3.05103 6.18644 3.05096 6.1865 3.05099 6.18647C3.05104 6.18643 3.05149 6.18607 3.05233 6.18541C3.05401 6.18409 3.05725 6.18155 3.06199 6.17788C3.07147 6.17054 3.08695 6.15868 3.10802 6.14295C3.15019 6.11146 3.2145 6.06465 3.29768 6.00761C3.46469 5.89309 3.70436 5.7397 3.99112 5.58676C4.58176 5.27176 5.29589 5 5.9585 5V3.5C4.9336 3.5 3.96023 3.90324 3.28524 4.26324C2.93919 4.4478 2.65152 4.63191 2.44939 4.77052C2.348 4.84004 2.26729 4.8987 2.21058 4.94103C2.18221 4.96222 2.15979 4.97936 2.14373 4.9918C2.1357 4.99801 2.12925 5.00306 2.12444 5.00684C2.12204 5.00874 2.12004 5.01032 2.11846 5.01157C2.11767 5.0122 2.11699 5.01274 2.11641 5.01321C2.11611 5.01344 2.11585 5.01365 2.11561 5.01384C2.11549 5.01393 2.11533 5.01406 2.11527 5.01411C2.11512 5.01423 2.11497 5.01435 2.5835 5.6ZM5.9585 5C6.6211 5 7.33523 5.27176 7.92587 5.58676C8.21263 5.7397 8.45231 5.89309 8.61931 6.00761C8.7025 6.06465 8.7668 6.11146 8.80897 6.14295C8.83004 6.15868 8.84552 6.17054 8.855 6.17788C8.85974 6.18155 8.86298 6.18409 8.86466 6.18541C8.8655 6.18607 8.86595 6.18643 8.86601 6.18647C8.86603 6.1865 8.86596 6.18644 8.86579 6.1863C8.8657 6.18623 8.86559 6.18615 8.86546 6.18604C8.86539 6.18598 8.86527 6.18589 8.86523 6.18586C8.86511 6.18576 8.86497 6.18565 9.3335 5.6C9.80202 5.01435 9.80187 5.01423 9.80172 5.01411C9.80166 5.01406 9.8015 5.01393 9.80138 5.01384C9.80114 5.01365 9.80088 5.01344 9.80059 5.01321C9.8 5.01274 9.79932 5.0122 9.79853 5.01157C9.79695 5.01032 9.79495 5.00874 9.79255 5.00684C9.78774 5.00306 9.78129 4.99801 9.77326 4.9918C9.7572 4.97936 9.73478 4.96222 9.70641 4.94103C9.64971 4.8987 9.56899 4.84004 9.4676 4.77052C9.26547 4.63191 8.9778 4.4478 8.63175 4.26324C7.95676 3.90324 6.98339 3.5 5.9585 3.5V5ZM9.3335 15.2955C9.80202 14.7098 9.80187 14.7097 9.80172 14.7096C9.80166 14.7095 9.8015 14.7094 9.80138 14.7093C9.80114 14.7091 9.80088 14.7089 9.80059 14.7087C9.8 14.7082 9.79932 14.7077 9.79853 14.707C9.79695 14.7058 9.79495 14.7042 9.79255 14.7023C9.78774 14.6985 9.78129 14.6935 9.77326 14.6873C9.7572 14.6748 9.73478 14.6577 9.70641 14.6365C9.64971 14.5941 9.56899 14.5355 9.4676 14.466C9.26547 14.3274 8.9778 14.1432 8.63175 13.9587C7.95676 13.5987 6.98339 13.1955 5.9585 13.1955V14.6955C6.6211 14.6955 7.33523 14.9672 7.92587 15.2822C8.21263 15.4352 8.45231 15.5885 8.61931 15.7031C8.7025 15.7601 8.7668 15.8069 8.80897 15.8384C8.83004 15.8541 8.84552 15.866 8.855 15.8733C8.85974 15.877 8.86298 15.8795 8.86466 15.8809C8.8655 15.8815 8.86595 15.8819 8.86601 15.8819C8.86603 15.882 8.86596 15.8819 8.86579 15.8818C8.8657 15.8817 8.86559 15.8816 8.86546 15.8815C8.86539 15.8814 8.86527 15.8813 8.86524 15.8813C8.86511 15.8812 8.86497 15.8811 9.3335 15.2955ZM5.9585 13.1955C4.9336 13.1955 3.96023 13.5987 3.28524 13.9587C2.93919 14.1432 2.65152 14.3274 2.44939 14.466C2.348 14.5355 2.26729 14.5941 2.21058 14.6365C2.18221 14.6577 2.15979 14.6748 2.14373 14.6873C2.1357 14.6935 2.12925 14.6985 2.12444 14.7023C2.12204 14.7042 2.12004 14.7058 2.11846 14.707C2.11767 14.7077 2.11699 14.7082 2.11641 14.7087C2.11612 14.7089 2.11585 14.7091 2.11561 14.7093C2.11549 14.7094 2.11533 14.7095 2.11527 14.7096C2.11512 14.7097 2.11497 14.7098 2.5835 15.2955C3.05202 15.8811 3.05188 15.8812 3.05176 15.8813C3.05172 15.8813 3.0516 15.8814 3.05153 15.8815C3.0514 15.8816 3.05129 15.8817 3.0512 15.8818C3.05103 15.8819 3.05096 15.882 3.05099 15.8819C3.05104 15.8819 3.05149 15.8815 3.05233 15.8809C3.05401 15.8795 3.05725 15.877 3.06199 15.8733C3.07147 15.866 3.08695 15.8541 3.10802 15.8384C3.15019 15.8069 3.2145 15.7601 3.29768 15.7031C3.46469 15.5885 3.70436 15.4352 3.99112 15.2822C4.58176 14.9672 5.29589 14.6955 5.9585 14.6955V13.1955ZM15.3335 5.6V15.2955H16.8335V5.6H15.3335ZM9.3335 5.6C9.80202 6.18565 9.80188 6.18576 9.80176 6.18586C9.80172 6.18589 9.8016 6.18598 9.80154 6.18604C9.8014 6.18615 9.80129 6.18623 9.8012 6.1863C9.80103 6.18644 9.80096 6.1865 9.80099 6.18647C9.80104 6.18643 9.80149 6.18607 9.80233 6.18541C9.80401 6.18409 9.80725 6.18155 9.81199 6.17788C9.82147 6.17054 9.83695 6.15868 9.85802 6.14295C9.90019 6.11146 9.9645 6.06465 10.0477 6.00761C10.2147 5.89309 10.4544 5.7397 10.7411 5.58676C11.3318 5.27176 12.0459 5 12.7085 5V3.5C11.6836 3.5 10.7102 3.90324 10.0352 4.26324C9.68919 4.4478 9.40152 4.63191 9.19939 4.77052C9.098 4.84004 9.01729 4.8987 8.96059 4.94103C8.93221 4.96222 8.90979 4.97936 8.89373 4.9918C8.8857 4.99801 8.87925 5.00306 8.87444 5.00684C8.87204 5.00874 8.87004 5.01032 8.86846 5.01157C8.86767 5.0122 8.86699 5.01274 8.86641 5.01321C8.86612 5.01344 8.86585 5.01365 8.86561 5.01384C8.86549 5.01393 8.86533 5.01406 8.86527 5.01411C8.86512 5.01423 8.86497 5.01435 9.3335 5.6ZM12.7085 5C13.3711 5 14.0852 5.27176 14.6759 5.58676C14.9626 5.7397 15.2023 5.89309 15.3693 6.00761C15.4525 6.06465 15.5168 6.11146 15.559 6.14295C15.58 6.15868 15.5955 6.17054 15.605 6.17788C15.6097 6.18155 15.613 6.18409 15.6147 6.18541C15.6155 6.18607 15.616 6.18643 15.616 6.18647C15.616 6.1865 15.616 6.18644 15.6158 6.1863C15.6157 6.18623 15.6156 6.18615 15.6155 6.18604C15.6154 6.18598 15.6153 6.18589 15.6152 6.18586C15.6151 6.18576 15.615 6.18565 16.0835 5.6C16.552 5.01435 16.5519 5.01423 16.5517 5.01411C16.5517 5.01406 16.5515 5.01393 16.5514 5.01384C16.5511 5.01365 16.5509 5.01344 16.5506 5.01321C16.55 5.01274 16.5493 5.0122 16.5485 5.01157C16.5469 5.01032 16.545 5.00874 16.5425 5.00684C16.5377 5.00306 16.5313 4.99801 16.5233 4.9918C16.5072 4.97936 16.4848 4.96222 16.4564 4.94103C16.3997 4.8987 16.319 4.84004 16.2176 4.77052C16.0155 4.63191 15.7278 4.4478 15.3818 4.26324C14.7068 3.90324 13.7334 3.5 12.7085 3.5V5ZM16.0835 15.2955C16.552 14.7098 16.5519 14.7097 16.5517 14.7096C16.5517 14.7095 16.5515 14.7094 16.5514 14.7093C16.5511 14.7091 16.5509 14.7089 16.5506 14.7087C16.55 14.7082 16.5493 14.7077 16.5485 14.707C16.5469 14.7058 16.545 14.7042 16.5425 14.7023C16.5377 14.6985 16.5313 14.6935 16.5233 14.6873C16.5072 14.6748 16.4848 14.6577 16.4564 14.6365C16.3997 14.5941 16.319 14.5355 16.2176 14.466C16.0155 14.3274 15.7278 14.1432 15.3818 13.9587C14.7068 13.5987 13.7334 13.1955 12.7085 13.1955V14.6955C13.3711 14.6955 14.0852 14.9672 14.6759 15.2822C14.9626 15.4352 15.2023 15.5885 15.3693 15.7031C15.4525 15.7601 15.5168 15.8069 15.559 15.8384C15.58 15.8541 15.5955 15.866 15.605 15.8733C15.6097 15.877 15.613 15.8795 15.6147 15.8809C15.6155 15.8815 15.616 15.8819 15.616 15.8819C15.616 15.882 15.616 15.8819 15.6158 15.8818C15.6157 15.8817 15.6156 15.8816 15.6155 15.8815C15.6154 15.8814 15.6153 15.8813 15.6152 15.8813C15.6151 15.8812 15.615 15.8811 16.0835 15.2955ZM12.7085 13.1955C11.6836 13.1955 10.7102 13.5987 10.0352 13.9587C9.68919 14.1432 9.40152 14.3274 9.19939 14.466C9.098 14.5355 9.01729 14.5941 8.96059 14.6365C8.93221 14.6577 8.90979 14.6748 8.89373 14.6873C8.8857 14.6935 8.87925 14.6985 8.87444 14.7023C8.87204 14.7042 8.87004 14.7058 8.86846 14.707C8.86767 14.7077 8.86699 14.7082 8.86641 14.7087C8.86612 14.7089 8.86585 14.7091 8.86561 14.7093C8.86549 14.7094 8.86533 14.7095 8.86527 14.7096C8.86512 14.7097 8.86497 14.7098 9.3335 15.2955C9.80202 15.8811 9.80188 15.8812 9.80176 15.8813C9.80172 15.8813 9.8016 15.8814 9.80153 15.8815C9.8014 15.8816 9.80129 15.8817 9.8012 15.8818C9.80103 15.8819 9.80096 15.882 9.80099 15.8819C9.80104 15.8819 9.80149 15.8815 9.80233 15.8809C9.80401 15.8795 9.80725 15.877 9.81199 15.8733C9.82147 15.866 9.83695 15.8541 9.85802 15.8384C9.90019 15.8069 9.9645 15.7601 10.0477 15.7031C10.2147 15.5885 10.4544 15.4352 10.7411 15.2822C11.3318 14.9672 12.0459 14.6955 12.7085 14.6955V13.1955Z" fill="#14142B"/>
</svg>
