<svg width="18" height="18" viewBox="0 0 18 18" fill="none" xmlns="http://www.w3.org/2000/svg">
<path fill-rule="evenodd" clip-rule="evenodd" d="M7.08737 1.08362C7.95316 -0.36121 10.0468 -0.361206 10.9126 1.08362L11.4372 1.959C11.6055 2.23987 11.9378 2.3775 12.2554 2.29791L13.2453 2.04984C14.8792 1.6404 16.3596 3.12085 15.9502 4.75471L15.7021 5.74461C15.6225 6.06222 15.7601 6.39451 16.041 6.56282L16.9164 7.08737C18.3612 7.95316 18.3612 10.0468 16.9164 10.9126L16.041 11.4372C15.7601 11.6055 15.6225 11.9378 15.7021 12.2554L15.9502 13.2453C16.3596 14.8792 14.8791 16.3596 13.2453 15.9502L12.2554 15.7021C11.9378 15.6225 11.6055 15.7601 11.4372 16.041L10.9126 16.9164C10.0468 18.3612 7.95316 18.3612 7.08737 16.9164L6.56282 16.041C6.39451 15.7601 6.06222 15.6225 5.74461 15.7021L5.56394 14.9811L5.7446 15.7021L4.75471 15.9502C3.12085 16.3596 1.6404 14.8791 2.04984 13.2453L2.29791 12.2554C2.3775 11.9378 2.23987 11.6055 1.95899 11.4372L1.08362 10.9126C-0.36121 10.0468 -0.361206 7.95316 1.08362 7.08737L1.959 6.56282C2.23987 6.39451 2.3775 6.06222 2.29791 5.74461L2.04984 4.75471C1.6404 3.12085 3.12085 1.6404 4.75471 2.04984L5.74461 2.29791C6.06222 2.3775 6.39451 2.23987 6.56282 1.95899L7.08737 1.08362ZM9.63754 1.8477C9.34894 1.36609 8.65106 1.36609 8.36246 1.8477L7.8379 2.72307C7.33298 3.56568 6.33612 3.9786 5.38327 3.73982L4.39337 3.49175C3.84875 3.35527 3.35527 3.84875 3.49175 4.39337L3.73981 5.38327C3.9786 6.33612 3.56568 7.33298 2.72307 7.8379L1.8477 8.36246C1.36609 8.65106 1.36609 9.34895 1.8477 9.63754L2.72307 10.1621C3.56568 10.667 3.9786 11.6639 3.73982 12.6167L3.49175 13.6066C3.35527 14.1512 3.84875 14.6447 4.39337 14.5083L4.57404 15.2292L4.39337 14.5083L5.38327 14.2602C6.33612 14.0214 7.33298 14.4343 7.8379 15.2769L8.36246 16.1523C8.65106 16.6339 9.34895 16.6339 9.63754 16.1523L10.1621 15.2769C10.667 14.4343 11.6639 14.0214 12.6167 14.2602L13.6066 14.5083C14.1512 14.6447 14.6447 14.1512 14.5083 13.6066L14.2602 12.6167C14.0214 11.6639 14.4343 10.667 15.2769 10.1621L16.1523 9.63754C16.6339 9.34894 16.6339 8.65106 16.1523 8.36246L15.2769 7.8379C14.4343 7.33298 14.0214 6.33612 14.2602 5.38327L14.5083 4.39337C14.6447 3.84875 14.1512 3.35527 13.6066 3.49175L12.6167 3.73981C11.6639 3.9786 10.667 3.56568 10.1621 2.72307L9.63754 1.8477ZM9 6.77026C7.76855 6.77026 6.77026 7.76855 6.77026 9C6.77026 10.2315 7.76855 11.2297 9 11.2297C10.2315 11.2297 11.2297 10.2315 11.2297 9C11.2297 7.76855 10.2315 6.77026 9 6.77026ZM5.28377 9C5.28377 6.94758 6.94758 5.28377 9 5.28377C11.0524 5.28377 12.7162 6.94758 12.7162 9C12.7162 11.0524 11.0524 12.7162 9 12.7162C6.94758 12.7162 5.28377 11.0524 5.28377 9Z" fill="#14142B"/>
</svg>
