<svg width="18" height="16" viewBox="0 0 18 16" fill="none" xmlns="http://www.w3.org/2000/svg">
<path d="M18 1.781C17.3279 2.08855 16.6126 2.29091 15.879 2.381C16.6565 1.90043 17.2334 1.15436 17.503 0.281002C16.7806 0.721087 15.9871 1.03206 15.158 1.2C14.8165 0.822783 14.3999 0.521158 13.9349 0.314499C13.4699 0.107839 12.9668 0.000712505 12.458 0C11.4662 0.0126502 10.5201 0.418733 9.82776 1.12892C9.13539 1.83911 8.75345 2.79524 8.76599 3.787C8.76544 4.07731 8.79734 4.36677 8.86102 4.65C7.38378 4.56979 5.94064 4.17533 4.62799 3.49297C3.31534 2.8106 2.16338 1.85603 1.24902 0.693001C0.776992 1.52705 0.63255 2.50702 0.843872 3.44179C1.05519 4.37656 1.60713 5.1991 2.39203 5.749C1.80409 5.72955 1.22976 5.56684 0.718994 5.275V5.323C0.711469 6.18802 1.00187 7.02927 1.54144 7.70542C2.08101 8.38157 2.83688 8.8514 3.68201 9.036C3.36521 9.12425 3.03785 9.169 2.70898 9.169C2.47398 9.16949 2.23949 9.14671 2.00897 9.101C2.23528 9.84579 2.69016 10.5005 3.30914 10.9725C3.92812 11.4445 4.67989 11.7099 5.45801 11.731C4.6996 12.3448 3.82583 12.8003 2.88837 13.0707C1.95091 13.341 0.968779 13.4207 0 13.305C1.67951 14.4144 3.64815 15.0056 5.66101 15.005C12.454 15.005 16.168 9.235 16.168 4.231C16.168 4.067 16.168 3.903 16.158 3.74C16.8836 3.20168 17.5073 2.5383 18 1.781Z" fill="#24A0DE"/>
</svg>
