<svg width="17" height="19" viewBox="0 0 17 19" fill="none" xmlns="http://www.w3.org/2000/svg">
<path d="M14.7273 2.13636H13.9091V1.31818C13.9091 0.866312 13.5428 0.5 13.0909 0.5C12.639 0.5 12.2727 0.866312 12.2727 1.31818V2.13636H4.09091V1.31818C4.09091 0.866312 3.7246 0.5 3.27273 0.5C2.82086 0.5 2.45455 0.866312 2.45455 1.31818V2.13636H1.63636C0.736364 2.13636 0 2.87273 0 3.77273V16.8636C0 17.7636 0.736364 18.5 1.63636 18.5H14.7273C15.6273 18.5 16.3636 17.7636 16.3636 16.8636V3.77273C16.3636 2.87273 15.6273 2.13636 14.7273 2.13636ZM14.7273 16.8636H1.63636V7.86364H14.7273V16.8636ZM14.7273 6.22727H1.63636V3.77273H14.7273V6.22727Z" fill="#4B9EF9"/>
</svg>
