<svg width="14" height="14" viewBox="0 0 14 14" fill="currentColor" xmlns="http://www.w3.org/2000/svg">
<path fill-rule="currentColor" clip-rule="evenodd" d="M5.56553 1.06272C6.21487 -0.0209075 7.78513 -0.0209046 8.43447 1.06272L8.82789 1.71925C8.95412 1.9299 9.20333 2.03313 9.44155 1.97343L10.184 1.78738C11.4094 1.4803 12.5197 2.59064 12.2126 3.81603L12.0266 4.55845C11.9669 4.79667 12.0701 5.04588 12.2808 5.17211L12.9373 5.56553C14.0209 6.21487 14.0209 7.78513 12.9373 8.43447L12.2808 8.82789C12.0701 8.95412 11.9669 9.20333 12.0266 9.44155L12.2126 10.184C12.5197 11.4094 11.4094 12.5197 10.184 12.2126L9.44155 12.0266C9.20333 11.9669 8.95412 12.0701 8.82789 12.2808L8.43447 12.9373C7.78513 14.0209 6.21487 14.0209 5.56553 12.9373L5.17211 12.2808C5.04588 12.0701 4.79667 11.9669 4.55845 12.0266L4.42295 11.4859L4.55845 12.0266L3.81603 12.2126C2.59064 12.5197 1.4803 11.4094 1.78738 10.184L1.97343 9.44155C2.03313 9.20333 1.9299 8.95412 1.71925 8.82789L1.06272 8.43447C-0.0209075 7.78513 -0.0209045 6.21487 1.06272 5.56553L1.71925 5.17211C1.9299 5.04588 2.03313 4.79667 1.97343 4.55845L1.78738 3.81603C1.4803 2.59064 2.59064 1.4803 3.81603 1.78738L4.55845 1.97343C4.79667 2.03313 5.04588 1.9299 5.17211 1.71925L5.56553 1.06272ZM7.47816 1.63578C7.26171 1.27457 6.73829 1.27457 6.52184 1.63577L6.12843 2.2923C5.74974 2.92426 5.00209 3.23395 4.28745 3.05486L3.54503 2.86881C3.13656 2.76645 2.76645 3.13656 2.86881 3.54503L3.05486 4.28745C3.23395 5.00209 2.92426 5.74974 2.2923 6.12843L1.63578 6.52184C1.27457 6.73829 1.27457 7.26171 1.63577 7.47816L2.2923 7.87157C2.92426 8.25026 3.23395 8.99791 3.05486 9.71255L2.86881 10.455C2.76645 10.8634 3.13656 11.2335 3.54503 11.1312L3.68053 11.6719L3.54503 11.1312L4.28745 10.9451C5.00209 10.7661 5.74974 11.0757 6.12843 11.7077L6.52184 12.3642C6.73829 12.7254 7.26171 12.7254 7.47816 12.3642L7.87157 11.7077C8.25026 11.0757 8.99791 10.7661 9.71255 10.9451L10.455 11.1312C10.8634 11.2335 11.2335 10.8634 11.1312 10.455L10.9451 9.71255C10.7661 8.99791 11.0757 8.25026 11.7077 7.87157L12.3642 7.47816C12.7254 7.26171 12.7254 6.73829 12.3642 6.52184L11.7077 6.12843C11.0757 5.74974 10.7661 5.00209 10.9451 4.28745L11.1312 3.54503C11.2335 3.13656 10.8634 2.76645 10.455 2.86881L9.71255 3.05486C8.99791 3.23395 8.25026 2.92426 7.87157 2.2923L7.47816 1.63578ZM7 5.3277C6.07641 5.3277 5.3277 6.07641 5.3277 7C5.3277 7.92359 6.07641 8.6723 7 8.6723C7.92359 8.6723 8.6723 7.92359 8.6723 7C8.6723 6.07641 7.92359 5.3277 7 5.3277ZM4.21283 7C4.21283 5.46069 5.46069 4.21283 7 4.21283C8.53931 4.21283 9.78717 5.46069 9.78717 7C9.78717 8.53931 8.53931 9.78717 7 9.78717C5.46069 9.78717 4.21283 8.53931 4.21283 7Z" fill="currentColor"/>
</svg>
