<svg width="20" height="20" viewBox="0 0 20 20" fill="none" xmlns="http://www.w3.org/2000/svg">
<g clip-path="url(#clip0_3_792)">
<path d="M15.2913 15.89H6.16132C6.02228 15.8899 5.88481 15.8605 5.75785 15.8038C5.63088 15.7472 5.51725 15.6644 5.42432 15.561C5.32326 15.4604 5.24326 15.3407 5.18901 15.2088C5.13475 15.0769 5.10732 14.9356 5.10832 14.793V3.1C5.10732 2.95741 5.13475 2.81605 5.18901 2.68419C5.24326 2.55232 5.32326 2.43259 5.42432 2.332C5.51698 2.22803 5.63049 2.14473 5.75747 2.08753C5.88445 2.03033 6.02205 2.0005 6.16132 2H11.8323C11.9698 2.00009 12.1059 2.02799 12.2323 2.082C12.3649 2.13961 12.4843 2.22366 12.5833 2.329L16.0243 5.911C16.1267 6.01616 16.2072 6.14055 16.2613 6.277C16.3139 6.41076 16.3407 6.55327 16.3403 6.697V14.797C16.3413 14.9396 16.3139 15.0809 16.2596 15.2128C16.2054 15.3447 16.1254 15.4644 16.0243 15.565C15.9315 15.6672 15.8183 15.7489 15.6921 15.8049C15.5659 15.8608 15.4294 15.8898 15.2913 15.89ZM4.05432 18.083C3.91528 18.0829 3.77781 18.0535 3.65085 17.9968C3.52388 17.9402 3.41025 17.8574 3.31732 17.754C3.2162 17.6536 3.13609 17.5341 3.08166 17.4024C3.02723 17.2707 2.99958 17.1295 3.00032 16.987V6.222C2.99785 6.14989 3.00975 6.078 3.03533 6.01053C3.06091 5.94306 3.09966 5.88135 3.14932 5.829C3.24971 5.7294 3.3854 5.67351 3.52682 5.67351C3.66824 5.67351 3.80392 5.7294 3.90432 5.829C3.95398 5.88135 3.99272 5.94306 4.01831 6.01053C4.04389 6.078 4.05579 6.14989 4.05332 6.222V16.987H12.2703C12.3407 16.9848 12.4107 16.9974 12.4759 17.0241C12.541 17.0508 12.5998 17.091 12.6483 17.142C12.7445 17.2503 12.7976 17.3902 12.7976 17.535C12.7976 17.6798 12.7445 17.8197 12.6483 17.928C12.5998 17.979 12.541 18.0192 12.4759 18.0459C12.4107 18.0726 12.3407 18.0852 12.2703 18.083H4.05432ZM12.2713 6.715H15.2913L11.7443 3.1V6.17C11.7418 6.24212 11.7538 6.314 11.7793 6.38147C11.8049 6.44894 11.8437 6.51065 11.8933 6.563C11.9421 6.61345 12.001 6.65306 12.0661 6.67925C12.1313 6.70544 12.2012 6.71762 12.2713 6.715Z" fill="#2D2D39"/>
</g>
<defs>
<clipPath id="clip0_3_792">
<rect width="20" height="20" fill="white"/>
</clipPath>
</defs>
</svg>
