<svg width="13" height="14" viewBox="0 0 13 14" fill="currentColor" xmlns="http://www.w3.org/2000/svg">
<path d="M2.7 10.375C2.7 10.0022 3.00221 9.7 3.375 9.7H6.75C7.12279 9.7 7.425 10.0022 7.425 10.375V10.375C7.425 10.7478 7.12279 11.05 6.75 11.05H3.375C3.00221 11.05 2.7 10.7478 2.7 10.375V10.375ZM2.7 7.675C2.7 7.30221 3.00221 7 3.375 7H8.775C9.14779 7 9.45 7.30221 9.45 7.675V7.675C9.45 8.04779 9.14779 8.35 8.775 8.35H3.375C3.00221 8.35 2.7 8.04779 2.7 7.675V7.675ZM2.7 4.975C2.7 4.60221 3.00221 4.3 3.375 4.3H8.775C9.14779 4.3 9.45 4.60221 9.45 4.975V4.975C9.45 5.34779 9.14779 5.65 8.775 5.65H3.375C3.00221 5.65 2.7 5.34779 2.7 4.975V4.975ZM10.8 1.6H7.9785C7.695 0.817 6.9525 0.25 6.075 0.25C5.1975 0.25 4.455 0.817 4.1715 1.6H1.35C1.2555 1.6 1.16775 1.60675 1.08 1.627C0.81675 1.681 0.5805 1.816 0.39825 1.99825C0.27675 2.11975 0.1755 2.26825 0.108 2.43025C0.0405001 2.5855 0 2.761 0 2.95V12.4C0 12.5823 0.0405001 12.7645 0.108 12.9265C0.1755 13.0885 0.27675 13.2303 0.39825 13.3585C0.5805 13.5408 0.81675 13.6757 1.08 13.7297C1.16775 13.7432 1.2555 13.75 1.35 13.75H10.8C11.5425 13.75 12.15 13.1425 12.15 12.4V2.95C12.15 2.2075 11.5425 1.6 10.8 1.6ZM6.075 1.43125C6.35175 1.43125 6.58125 1.66075 6.58125 1.9375C6.58125 2.21425 6.35175 2.44375 6.075 2.44375C5.79825 2.44375 5.56875 2.21425 5.56875 1.9375C5.56875 1.66075 5.79825 1.43125 6.075 1.43125ZM10.8 12.4H1.35V2.95H10.8V12.4Z" fill="currentColor"/>
</svg>
