<svg width="15" height="9" viewBox="0 0 15 9" fill="none" xmlns="http://www.w3.org/2000/svg">
<g id="Frame" clip-path="url(#clip0_373_2290)">
<path id="Vector" d="M14.4165 1C14.4165 0.447715 13.9688 0 13.4165 0L10.7573 0C10.4223 0 10.1507 0.271615 10.1507 0.60667C10.1507 0.941724 10.4223 1.21334 10.7573 1.21334L12.3602 1.21334L9.40176 4.1718C9.01123 4.56232 8.37807 4.56232 7.98754 4.1718L6.83372 3.01797C6.44353 2.62779 5.81104 2.6274 5.42037 3.0171L1.34484 7.08265C1.10836 7.31855 1.10813 7.70156 1.34431 7.93774C1.58054 8.17397 1.96363 8.17369 2.19951 7.93712L5.4076 4.71959C5.79796 4.32809 6.43192 4.32762 6.82285 4.71855L7.98754 5.88324C8.37807 6.27377 9.01123 6.27377 9.40176 5.88324L13.2159 2.06906V3.66556C13.2159 3.99709 13.4847 4.26585 13.8162 4.26585C14.1477 4.26585 14.4165 3.99709 14.4165 3.66556V1Z" fill="#14142B"/>
</g>
<defs>
<clipPath id="clip0_373_2290">
<rect width="13.5" height="8.36566" fill="white" transform="translate(0.916504)"/>
</clipPath>
</defs>
</svg>
