<svg width="18" height="18" viewBox="0 0 18 18" fill="none" xmlns="http://www.w3.org/2000/svg">
<path d="M8.78951 4.22241C7.89322 4.22241 7.01706 4.48819 6.27183 4.98614C5.52659 5.48409 4.94573 6.19185 4.60274 7.01991C4.25974 7.84797 4.17004 8.75915 4.3449 9.63821C4.51976 10.5173 4.95137 11.3248 5.58514 11.9585C6.21891 12.5923 7.02636 13.0239 7.90542 13.1988C8.78449 13.3736 9.69568 13.2839 10.5237 12.9409C11.3518 12.5979 12.0595 12.017 12.5575 11.2718C13.0554 10.5266 13.3212 9.65041 13.3212 8.75412C13.3189 7.55295 12.8407 6.40164 11.9913 5.55228C11.142 4.70293 9.99068 4.22473 8.78951 4.22241ZM8.78951 11.6575C8.21523 11.6577 7.65381 11.4876 7.17622 11.1687C6.69863 10.8498 6.32631 10.3964 6.10641 9.86588C5.8865 9.33537 5.82889 8.75156 5.94081 8.18829C6.05273 7.62502 6.32915 7.10759 6.73516 6.70144C7.14117 6.29529 7.6585 6.01867 8.22174 5.90657C8.78497 5.79446 9.36881 5.8519 9.8994 6.07162C10.43 6.29134 10.8835 6.66348 11.2026 7.14097C11.5216 7.61845 11.6919 8.17984 11.6919 8.75412C11.6883 9.52279 11.3814 10.2589 10.8379 10.8025C10.2943 11.346 9.55818 11.653 8.78951 11.6566V11.6575Z" fill="#DC004A"/>
<path d="M13.4981 5.14253C13.701 5.14233 13.8993 5.08198 14.068 4.96908C14.2366 4.85619 14.368 4.69583 14.4456 4.50827C14.5231 4.32071 14.5433 4.11439 14.5036 3.91536C14.4638 3.71633 14.366 3.53355 14.2224 3.39011C14.0789 3.24667 13.896 3.14902 13.6969 3.10949C13.4979 3.06997 13.2915 3.09035 13.104 3.16806C12.9166 3.24577 12.7564 3.37732 12.6436 3.54608C12.5309 3.71484 12.4707 3.91323 12.4707 4.11618C12.4707 4.25105 12.4973 4.38459 12.5489 4.50918C12.6006 4.63376 12.6762 4.74695 12.7717 4.84226C12.8671 4.93758 12.9804 5.01316 13.105 5.06468C13.2296 5.1162 13.3632 5.14266 13.4981 5.14253Z" fill="#DC004A"/>
<path d="M16.1531 1.46049C15.665 0.978268 15.0836 0.600787 14.4444 0.351164C13.8052 0.101542 13.1218 -0.0149651 12.4361 0.00877937H5.14246C4.45754 -0.0324841 3.77163 0.0720342 3.13009 0.315429C2.48854 0.558824 1.90594 0.935555 1.42075 1.42075C0.935554 1.90594 0.558838 2.48854 0.315443 3.13009C0.0720483 3.77163 -0.0324849 4.45752 0.00877855 5.14244V12.399C-0.0170239 13.0987 0.101666 13.7963 0.357483 14.4481C0.6133 15.0999 1.00074 15.6919 1.49559 16.1873C2.4934 17.1156 3.81733 17.6124 5.1795 17.5698H12.399C13.7713 17.6156 15.1065 17.1197 16.1161 16.1893C16.6016 15.6959 16.9811 15.1085 17.2311 14.463C17.4811 13.8175 17.5963 13.1278 17.5698 12.4361V5.14244C17.5915 4.46522 17.4773 3.79051 17.234 3.15813C16.9907 2.52575 16.6232 1.94851 16.1531 1.46049ZM16.0117 12.4361C16.0287 12.9144 15.9462 13.3911 15.7695 13.8359C15.5929 14.2808 15.3259 14.6841 14.9854 15.0205C14.2759 15.6509 13.3493 15.9811 12.401 15.9415H5.18146C4.23318 15.9811 3.30657 15.6509 2.59709 15.0205C2.26951 14.6706 2.01597 14.2581 1.85168 13.8078C1.68739 13.3575 1.61569 12.8787 1.64095 12.4V5.14244C1.61892 4.66957 1.69226 4.19709 1.85651 3.75312C2.02076 3.30914 2.27261 2.90273 2.59709 2.55805C3.30327 1.92205 4.23222 1.591 5.18146 1.63707H12.4751C12.948 1.61494 13.4205 1.68818 13.8645 1.85243C14.3085 2.01669 14.7149 2.2686 15.0595 2.59317C15.6947 3.28801 16.0372 4.20124 16.0156 5.14244L16.0117 12.4361Z" fill="#DC004A"/>
</svg>
