<svg width="14" height="14" viewBox="0 0 14 14" fill="currentColor" xmlns="http://www.w3.org/2000/svg">
<path fill-rule="evenodd" clip-rule="evenodd" d="M8.29096 1.2449C9.58753 -0.0737781 11.7104 -0.0827479 13.0181 1.22492C14.318 2.52482 14.318 4.63236 13.0181 5.93225L10.5871 8.36327C9.43322 9.51713 7.5735 9.55209 6.3771 8.44239L5.69038 7.80544C5.44459 7.57747 5.43015 7.19341 5.65813 6.94762C5.8861 6.70184 6.27016 6.68739 6.51595 6.91537L7.20267 7.55232C7.92051 8.21813 9.03634 8.19716 9.72865 7.50485L12.1597 5.07383C12.9855 4.24803 12.9855 2.90915 12.1597 2.08335C11.3289 1.25261 9.98029 1.25831 9.15661 2.09604L7.14299 4.14398C6.90795 4.38303 6.52363 4.38627 6.28459 4.15124C6.04555 3.9162 6.0423 3.53189 6.27734 3.29284L8.29096 1.2449ZM7.04035 6.44768C6.32251 5.78186 5.20668 5.80284 4.51436 6.49515L2.08335 8.92617C1.25755 9.75197 1.25755 11.0909 2.08335 11.9167C2.91408 12.7474 4.26272 12.7417 5.08641 11.904L7.10003 9.85602C7.33507 9.61697 7.71938 9.61372 7.95842 9.84876C8.19747 10.0838 8.20072 10.4681 7.96568 10.7072L5.95206 12.7551C4.65549 14.0738 2.53259 14.0827 1.22492 12.7751C-0.0749732 11.4752 -0.0749736 9.36764 1.22492 8.06775L3.65594 5.63673C4.8098 4.48287 6.66951 4.44791 7.86591 5.55761L8.55263 6.19456C8.79842 6.42253 8.81286 6.80659 8.58489 7.05238C8.35692 7.29816 7.97286 7.3126 7.72707 7.08463L7.04035 6.44768Z" fill="currentColor"/>
</svg>
