<svg width="18" height="18" viewBox="0 0 18 18" fill="none" xmlns="http://www.w3.org/2000/svg">
    <path d="M13.751 4.235a6.707 6.707 0 0 0-5.466-1.949c-3.096.312-5.644 2.826-5.99 5.922a6.736 6.736 0 0 0 12.772 3.695.845.845 0 0 0-.759-1.215.82.82 0 0 0-.742.447 5.057 5.057 0 0 1-5.737 2.793c-1.873-.414-3.383-1.94-3.779-3.813A5.064 5.064 0 0 1 8.985 3.94c1.4 0 2.649.582 3.56 1.501l-1.274 1.274c-.531.532-.16 1.443.59 1.443h3.03c.463 0 .843-.38.843-.844V4.286c0-.751-.911-1.13-1.443-.6l-.54.549z" fill="#CED3D9"/>
</svg>
