<svg width="41" height="47" viewBox="0 0 41 47" fill="currentColor" xmlns="http://www.w3.org/2000/svg">
<path d="M26.9642 8.45636L26.0986 8.95709C26.2773 9.26608 26.6072 9.45636 26.9642 9.45636V8.45636ZM1.05132 23.8162C1.22596 24.3402 1.79228 24.6233 2.31623 24.4487C2.84017 24.274 3.12333 23.7077 2.94868 23.1838L1.05132 23.8162ZM38.1056 23.0528C37.8586 23.5468 38.0588 24.1474 38.5528 24.3944C39.0468 24.6414 39.6474 24.4412 39.8944 23.9472L38.1056 23.0528ZM27.4734 29.5583C27.8719 29.9407 28.5049 29.9277 28.8873 29.5292C29.2697 29.1307 29.2566 28.4976 28.8581 28.1153L27.4734 29.5583ZM19.9991 21.0002L20.6915 20.2787C20.3046 19.9074 19.6936 19.9074 19.3067 20.2787L19.9991 21.0002ZM11.1401 28.1153C10.7416 28.4976 10.7285 29.1307 11.1109 29.5292C11.4933 29.9277 12.1263 29.9407 12.5248 29.5583L11.1401 28.1153ZM20.999 23.0614C20.999 22.5091 20.5513 22.0614 19.999 22.0614C19.4467 22.0614 18.999 22.5091 18.999 23.0614H20.999ZM18.999 45.0614C18.999 45.6137 19.4467 46.0614 19.999 46.0614C20.5513 46.0614 20.999 45.6137 20.999 45.0614H18.999ZM14.9127 2.5C19.691 2.5 23.8644 5.09486 26.0986 8.95709L27.8298 7.95564C25.2528 3.50082 20.4338 0.5 14.9127 0.5V2.5ZM2 15.4127C2 8.97491 7.81437 2.5 14.9127 2.5V0.5C6.64351 0.5 0 7.93782 0 15.4127H2ZM2.94868 23.1838C2.00632 20.3567 2 17.5092 2 15.4127H0C0 17.4908 -0.00632477 20.6433 1.05132 23.8162L2.94868 23.1838ZM39 17.5C39 19.5252 38.9854 21.2931 38.1056 23.0528L39.8944 23.9472C41.0146 21.7069 41 19.4748 41 17.5H39ZM28.8255 9.45636C31.4822 9.45636 34.0576 10.3916 35.9544 11.8882C37.8523 13.3858 39 15.3803 39 17.5H41C41 14.6197 39.4419 12.0924 37.1932 10.3181C34.9434 8.54296 31.9316 7.45636 28.8255 7.45636V9.45636ZM26.9642 9.45636H28.8255V7.45636H26.9642V9.45636ZM28.8581 28.1153L20.6915 20.2787L19.3067 21.7217L27.4734 29.5583L28.8581 28.1153ZM19.3067 20.2787L11.1401 28.1153L12.5248 29.5583L20.6915 21.7217L19.3067 20.2787ZM18.999 23.0614V45.0614H20.999V23.0614H18.999Z" fill="currentColor"/>
</svg>
