<svg width="24" height="24" viewBox="0 0 24 24" fill="none" xmlns="http://www.w3.org/2000/svg">
<g id="Layer_1" clip-path="url(#clip0_5403_21141)">
<path id="memory" d="M10.3988 13.4512V13.6012H10.5488H13.4512H13.6012V13.4512V10.5488V10.3988H13.4512H10.5488H10.3988V10.5488V13.4512ZM8.15931 21.4326V21.2826H8.00931H5.1907C4.49653 21.2826 3.91448 21.0438 3.43535 20.5647C2.95621 20.0855 2.71741 19.5035 2.71741 18.8093V15.9907V15.8407H2.56741H1C0.530558 15.8407 0.15 15.4601 0.15 14.9907V14.814C0.15 14.3446 0.530558 13.964 1 13.964H2.56741H2.71741V13.814V10.186V10.036H2.56741H1C0.530558 10.036 0.15 9.65544 0.15 9.186V9.00931C0.15 8.53987 0.530558 8.15931 1 8.15931H2.56741H2.71741V8.00931V5.1907C2.71741 4.49653 2.95621 3.91448 3.43535 3.43535C3.91448 2.95621 4.49653 2.71741 5.1907 2.71741H8.00931H8.15931V2.56741V1C8.15931 0.530558 8.53987 0.15 9.00931 0.15H9.186C9.65544 0.15 10.036 0.530558 10.036 1V2.56741V2.71741H10.186H13.814H13.964V2.56741V1C13.964 0.530558 14.3446 0.15 14.814 0.15H14.9907C15.4601 0.15 15.8407 0.530558 15.8407 1V2.56741V2.71741H15.9907H18.8093C19.5035 2.71741 20.0855 2.95621 20.5647 3.43535C21.0438 3.91448 21.2826 4.49653 21.2826 5.1907V8.00931V8.15931H21.4326H23C23.4694 8.15931 23.85 8.53987 23.85 9.00931V9.186C23.85 9.65544 23.4694 10.036 23 10.036H21.4326H21.2826V10.186V13.814V13.964H21.4326H23C23.4694 13.964 23.85 14.3446 23.85 14.814V14.9907C23.85 15.4601 23.4694 15.8407 23 15.8407H21.4326H21.2826V15.9907V18.8093C21.2826 19.5035 21.0438 20.0855 20.5647 20.5647C20.0855 21.0438 19.5035 21.2826 18.8093 21.2826H15.9907H15.8407V21.4326V23C15.8407 23.4694 15.4601 23.85 14.9907 23.85H14.814C14.3446 23.85 13.964 23.4694 13.964 23V21.4326V21.2826H13.814H10.186H10.036V21.4326V23C10.036 23.4694 9.65544 23.85 9.186 23.85H9.00931C8.53987 23.85 8.15931 23.4694 8.15931 23V21.4326ZM19.2224 19.2224L19.2224 19.2224C19.3382 19.1066 19.4059 18.9678 19.4059 18.8093V5.1907C19.4059 5.03224 19.3382 4.89339 19.2224 4.77762L19.2224 4.77759C19.1066 4.66185 18.9678 4.59414 18.8093 4.59414H5.1907C5.03224 4.59414 4.89338 4.66185 4.77761 4.77759L4.77759 4.77762C4.66185 4.89339 4.59414 5.03224 4.59414 5.1907V18.8093C4.59414 18.9678 4.66185 19.1066 4.77759 19.2224L4.77762 19.2224C4.89338 19.3382 5.03224 19.4059 5.1907 19.4059H18.8093C18.9678 19.4059 19.1066 19.3382 19.2224 19.2224ZM8.5221 15.4779V8.5221H15.4779V15.4779H8.5221Z" fill="#6E7191" stroke="#A0A3BD" stroke-width="0.3"/>
</g>
<defs>
<clipPath id="clip0_5403_21141">
<rect width="24" height="24" fill="white"/>
</clipPath>
</defs>
</svg>
