<svg width="18" height="18" viewBox="0 0 18 18" fill="none" xmlns="http://www.w3.org/2000/svg">
<g clip-path="url(#clip0_2514_1789)">
<path d="M0.747327 3.62599H3.25835C3.14874 3.89569 3.19856 4.22533 3.41777 4.44508C3.56724 4.59492 3.75656 4.66484 3.94589 4.66484C4.13521 4.66484 4.32453 4.59492 4.474 4.44508L5.51029 3.40624C5.58004 3.33631 5.62986 3.2564 5.66972 3.1665C5.70958 3.0766 5.72951 2.97671 5.72951 2.87682C5.72951 2.77694 5.70958 2.67705 5.66972 2.58715C5.63983 2.51722 5.59 2.45729 5.54018 2.39736C5.53022 2.37738 5.52025 2.3574 5.51029 2.34741L4.474 1.30857C4.18503 1.01889 3.70674 1.01889 3.41777 1.30857C3.19856 1.52832 3.14874 1.85796 3.25835 2.12766H0.747327C0.338788 2.12766 0 2.46728 0 2.87682C0 3.28637 0.338788 3.62599 0.747327 3.62599Z" fill="#14142B"/>
<path d="M16.7103 13.2153C16.4213 12.9256 15.943 12.9256 15.6541 13.2153C15.4349 13.4351 15.385 13.7647 15.4946 14.0344H11.8377V14.0943C11.4491 12.8657 10.2932 12.0067 8.99788 12.0067C8.86834 12.0067 8.74877 12.0067 8.61923 12.0266C7.32387 12.1865 6.34736 13.1654 6.08829 14.364H5.01214C4.32459 14.364 3.76659 13.8047 3.76659 13.1154V11.8868C4.83278 11.6071 5.64985 10.778 5.90893 9.73918H12.1267C12.4754 11.0477 13.6512 11.9667 15.0064 11.9667C15.1359 11.9667 15.2555 11.9667 15.385 11.9467C17.0192 11.737 18.185 10.2386 17.9758 8.60044C17.8163 7.35183 16.9096 6.38291 15.7537 6.08324V4.86459C15.7537 3.34628 14.5281 2.11765 13.0135 2.11765H11.8875C11.489 0.879023 10.3331 0 9.01781 0C8.88827 0 8.7687 0 8.63916 0.0199778C7.00501 0.229745 5.83918 1.72808 6.04843 3.36626C6.23775 4.88457 7.52315 5.98335 9.00784 5.98335C9.13738 5.98335 9.25695 5.98335 9.38649 5.96337C10.6819 5.80355 11.6584 4.82464 11.9174 3.62597H12.9936C13.6811 3.62597 14.2391 4.18535 14.2391 4.87458V6.10322C13.163 6.38291 12.3559 7.21199 12.0968 8.26082H5.889C5.55021 6.95228 4.36445 6.02331 3.0093 6.02331C2.87976 6.02331 2.76019 6.02331 2.63065 6.04329C0.996499 6.25305 -0.159367 7.75139 0.03992 9.38957C0.19935 10.6382 1.10611 11.6071 2.26197 11.9068V13.1254C2.26197 14.6437 3.48759 15.8724 5.00217 15.8724H6.12814C6.50679 17.131 7.66265 18 8.97795 18C9.10749 18 9.22706 18 9.3566 17.98C10.6819 17.8102 11.6883 16.7913 11.9075 15.5327H15.4847C15.3751 15.8024 15.4249 16.1321 15.6441 16.3518C15.7936 16.5017 15.9829 16.5716 16.1722 16.5716C16.3615 16.5716 16.5509 16.5017 16.7003 16.3518L17.7366 15.313C18.0256 15.0233 18.0256 14.5438 17.7366 14.2542L16.7003 13.2153H16.7103ZM10.1936 3.91565C9.94449 4.23529 9.59574 4.43507 9.19716 4.48502C9.13738 4.48502 9.06763 4.49501 9.00784 4.49501C8.26052 4.49501 7.6228 3.93563 7.53312 3.18646C7.4833 2.7869 7.5929 2.39734 7.83205 2.07769C8.08116 1.75805 8.42991 1.55827 8.82848 1.50832C8.88827 1.50832 8.95802 1.49834 9.01781 1.49834C9.76513 1.49834 10.4029 2.05771 10.4925 2.80688C10.5424 3.20644 10.4327 3.596 10.1936 3.91565ZM13.8107 8.07103C14.0598 7.75139 14.4085 7.55161 14.8071 7.50166C14.8669 7.50166 14.9366 7.49168 14.9964 7.49168C15.7437 7.49168 16.3815 8.05105 16.4711 8.80022C16.5708 9.61931 15.9929 10.3685 15.1758 10.4784C15.116 10.4784 15.0462 10.4883 14.9865 10.4883C14.2391 10.4883 13.6014 9.92897 13.5117 9.1798C13.4619 8.78024 13.5715 8.39068 13.8107 8.07103ZM1.52461 9.19978C1.47479 8.80022 1.5844 8.41066 1.82354 8.09101C2.07265 7.77137 2.4214 7.57159 2.81998 7.52164C2.87976 7.52164 2.94951 7.51165 3.0093 7.51165C3.75663 7.51165 4.39434 8.07103 4.48402 8.8202C4.53385 9.21976 4.42424 9.60932 4.18509 9.92897C3.93598 10.2486 3.58723 10.4484 3.18866 10.4983C3.12887 10.4983 3.05912 10.5083 2.99933 10.5083C2.25201 10.5083 1.61429 9.94895 1.52461 9.19978ZM9.17724 16.4917C9.11745 16.4917 9.0477 16.5017 8.98791 16.5017C8.24059 16.5017 7.60287 15.9423 7.51319 15.1931C7.46337 14.7936 7.57298 14.404 7.81212 14.0844C8.06123 13.7647 8.40998 13.5649 8.80856 13.515C8.86834 13.515 8.93809 13.505 8.99788 13.505C9.7452 13.505 10.3829 14.0644 10.4726 14.8135C10.5722 15.6326 9.99431 16.3818 9.17724 16.4917Z" fill="#14142B"/>
</g>
<defs>
<clipPath id="clip0_2514_1789">
<rect width="18" height="18" fill="white"/>
</clipPath>
</defs>
</svg>
