<svg width="18" height="18" viewBox="0 0 18 18" fill="none" xmlns="http://www.w3.org/2000/svg">
<path d="M3.6 17.2C2.61 17.2 1.7625 16.8475 1.0575 16.1425C0.3525 15.4375 0 14.59 0 13.6C0 12.61 0.3525 11.7625 1.0575 11.0575C1.7625 10.3525 2.61 10 3.6 10C4.59 10 5.4375 10.3525 6.1425 11.0575C6.8475 11.7625 7.2 12.61 7.2 13.6C7.2 14.59 6.8475 15.4375 6.1425 16.1425C5.4375 16.8475 4.59 17.2 3.6 17.2ZM14.4 17.2C13.41 17.2 12.5625 16.8475 11.8575 16.1425C11.1525 15.4375 10.8 14.59 10.8 13.6C10.8 12.61 11.1525 11.7625 11.8575 11.0575C12.5625 10.3525 13.41 10 14.4 10C15.39 10 16.2375 10.3525 16.9425 11.0575C17.6475 11.7625 18 12.61 18 13.6C18 14.59 17.6475 15.4375 16.9425 16.1425C16.2375 16.8475 15.39 17.2 14.4 17.2ZM3.6 15.4C4.095 15.4 4.51875 15.2238 4.87125 14.8713C5.22375 14.5188 5.4 14.095 5.4 13.6C5.4 13.105 5.22375 12.6813 4.87125 12.3288C4.51875 11.9763 4.095 11.8 3.6 11.8C3.105 11.8 2.68125 11.9763 2.32875 12.3288C1.97625 12.6813 1.8 13.105 1.8 13.6C1.8 14.095 1.97625 14.5188 2.32875 14.8713C2.68125 15.2238 3.105 15.4 3.6 15.4ZM14.4 15.4C14.895 15.4 15.3187 15.2238 15.6712 14.8713C16.0237 14.5188 16.2 14.095 16.2 13.6C16.2 13.105 16.0237 12.6813 15.6712 12.3288C15.3187 11.9763 14.895 11.8 14.4 11.8C13.905 11.8 13.4813 11.9763 13.1288 12.3288C12.7763 12.6813 12.6 13.105 12.6 13.6C12.6 14.095 12.7763 14.5188 13.1288 14.8713C13.4813 15.2238 13.905 15.4 14.4 15.4ZM9 8.2C8.01 8.2 7.1625 7.8475 6.4575 7.1425C5.7525 6.4375 5.4 5.59 5.4 4.6C5.4 3.61 5.7525 2.7625 6.4575 2.0575C7.1625 1.3525 8.01 1 9 1C9.99 1 10.8375 1.3525 11.5425 2.0575C12.2475 2.7625 12.6 3.61 12.6 4.6C12.6 5.59 12.2475 6.4375 11.5425 7.1425C10.8375 7.8475 9.99 8.2 9 8.2ZM9 6.4C9.495 6.4 9.91875 6.22375 10.2713 5.87125C10.6238 5.51875 10.8 5.095 10.8 4.6C10.8 4.105 10.6238 3.68125 10.2713 3.32875C9.91875 2.97625 9.495 2.8 9 2.8C8.505 2.8 8.08125 2.97625 7.72875 3.32875C7.37625 3.68125 7.2 4.105 7.2 4.6C7.2 5.095 7.37625 5.51875 7.72875 5.87125C8.08125 6.22375 8.505 6.4 9 6.4Z" fill="#14142B"/>
</svg>
