<svg width="16" height="12" viewBox="0 0 16 12" fill="currentColor" xmlns="http://www.w3.org/2000/svg">
<path d="M1.95674 11.625C1.66263 11.625 1.40881 11.5182 1.19529 11.3047C0.981763 11.0912 0.875 10.8373 0.875 10.5432V1.45674C0.875 1.16263 0.981763 0.908813 1.19529 0.695288C1.40881 0.481763 1.66263 0.375 1.95674 0.375H14.0432C14.3373 0.375 14.5912 0.481763 14.8047 0.695288C15.0182 0.908813 15.125 1.16263 15.125 1.45674V10.5432C15.125 10.8373 15.0182 11.0912 14.8047 11.3047C14.5912 11.5182 14.3373 11.625 14.0432 11.625H1.95674ZM14.274 1.96151L8.29998 5.91488C8.24998 5.93988 8.20191 5.96175 8.15576 5.9805C8.10959 5.99925 8.05767 6.00863 7.99998 6.00863C7.94229 6.00863 7.89037 5.99925 7.84421 5.9805C7.79806 5.96175 7.75239 5.93988 7.7072 5.91488L1.72595 1.96151V10.5432C1.72595 10.6105 1.74759 10.6658 1.79086 10.7091C1.83414 10.7524 1.88943 10.774 1.95674 10.774H14.0432C14.1105 10.774 14.1658 10.7524 14.2091 10.7091C14.2524 10.6658 14.274 10.6105 14.274 10.5432V1.96151ZM7.99998 5.2197L14.1053 1.22595H1.91345L7.99998 5.2197ZM1.72595 2.09996V1.51097V1.5297V1.22595V1.52018V1.49586V2.09996Z" fill="currentColor"/>
</svg>
