<svg width="16" height="16" viewBox="0 0 16 16" fill="currentColor" xmlns="http://www.w3.org/2000/svg">
<path d="M8.00539 15.612C6.95286 15.612 5.96511 15.4127 5.04212 15.0143C4.11913 14.6158 3.31189 14.0708 2.62039 13.3793C1.92889 12.6878 1.3839 11.8803 0.985408 10.9568C0.586933 10.0333 0.387695 9.04472 0.387695 7.99113C0.387695 6.93754 0.586933 5.9488 0.985408 5.02488C1.3839 4.10096 1.92865 3.29629 2.61968 2.61088C3.31071 1.92548 4.1181 1.38286 5.04182 0.983039C5.96556 0.583214 6.95434 0.383301 8.00816 0.383301C9.062 0.383301 10.0511 0.583101 10.9753 0.982701C11.8996 1.38229 12.7043 1.92459 13.3895 2.6096C14.0747 3.29461 14.6171 4.10013 15.0168 5.02616C15.4165 5.9522 15.6164 6.94178 15.6164 7.9949C15.6164 9.04784 15.4165 10.0358 15.0166 10.9587C14.6168 11.8817 14.0742 12.6875 13.3888 13.3764C12.7034 14.0652 11.8979 14.61 10.9724 15.0108C10.0469 15.4116 9.05791 15.612 8.00539 15.612ZM8.00916 14.3345C9.76595 14.3345 11.2594 13.7173 12.4894 12.4829C13.7194 11.2485 14.3344 9.75106 14.3344 7.99051C14.3344 6.23373 13.7206 4.74031 12.4929 3.51028C11.2652 2.28025 9.76676 1.66524 7.99753 1.66524C6.2455 1.66524 4.75209 2.27908 3.51731 3.50677C2.28253 4.73446 1.66513 6.23291 1.66513 8.00214C1.66513 9.75418 2.28233 11.2476 3.51673 12.4824C4.75113 13.7171 6.24861 14.3345 8.00916 14.3345ZM6.34163 11.0492H9.62125C9.81531 11.0492 9.95941 10.9856 10.0535 10.8584C10.1477 10.7312 10.1948 10.5736 10.1948 10.3856V9.59283C10.1948 9.41948 10.1354 9.27417 10.0166 9.1569C9.89786 9.03963 9.75071 8.981 9.57516 8.981C9.41187 8.981 9.2756 9.03266 9.16635 9.13599C9.05711 9.23933 8.99503 9.36919 8.98009 9.52558V9.82558H7.01419V6.1742H8.98009V6.49295C8.99503 6.64934 9.05896 6.7792 9.17188 6.88254C9.28482 6.98586 9.42219 7.03753 9.58399 7.03753C9.76185 7.03753 9.90811 6.97839 10.0228 6.86011C10.1374 6.74184 10.1948 6.59554 10.1948 6.42121V5.62843C10.1948 5.43368 10.1477 5.27201 10.0535 5.14344C9.95941 5.01486 9.81531 4.95058 9.62125 4.95058H6.34163C6.15056 4.95058 6.0102 5.01587 5.92054 5.14646C5.83089 5.27706 5.78606 5.4407 5.78606 5.63739V10.3811C5.78606 10.5725 5.83089 10.7317 5.92054 10.8587C6.0102 10.9857 6.15056 11.0492 6.34163 11.0492Z" fill="currentColor"/>
</svg>
