<svg width="28" height="28" viewBox="0 0 28 28" fill="none" xmlns="http://www.w3.org/2000/svg">
<rect width="28" height="28" fill="#D7ECFD"/>
<rect width="28" height="28" rx="5" fill="#D7ECFD"/>
<g clip-path="url(#clip0_3136_29246)">
<path fill-rule="evenodd" clip-rule="evenodd" d="M11.644 7.93341C11.8586 7.59448 12.2611 7.25 12.9137 7.25C13.5626 7.25 13.9698 7.59028 14.1923 7.91924C14.2986 8.07632 14.3634 8.22963 14.4019 8.3419C14.4214 8.39891 14.4351 8.44781 14.4442 8.48471C14.4488 8.50322 14.4523 8.51892 14.4549 8.53133L14.4582 8.54751L14.4593 8.55369L14.4598 8.55629L14.4601 8.55802C14.4601 8.55802 14.4602 8.55856 13.9063 8.65625L14.4601 8.55802C14.4658 8.59027 14.4688 8.6235 14.4688 8.65625V10.9482C14.5948 10.9213 14.7325 10.9062 14.8824 10.9062C15.4047 10.9062 15.7691 11.1444 16.0037 11.402C16.2242 11.2773 16.5052 11.1875 16.8512 11.1875C17.342 11.1875 17.6938 11.4196 17.9242 11.6599C18.1303 11.544 18.3897 11.4688 18.7074 11.4688C19.3466 11.4688 19.7137 11.8565 19.8914 12.1863C19.9771 12.3453 20.0253 12.4984 20.0524 12.6082C20.0663 12.6642 20.0754 12.712 20.0812 12.7478C20.0842 12.7657 20.0863 12.7809 20.0879 12.7927L20.0898 12.8081L20.0904 12.8138L20.0907 12.8162L20.0908 12.8173C20.0908 12.8173 20.0909 12.8183 19.5312 12.875L20.0909 12.8183C20.0928 12.8371 20.0938 12.8561 20.0938 12.875V16.25C20.0938 16.2582 20.0936 16.2664 20.0932 16.2746L19.5312 16.25C20.0932 16.2746 20.0932 16.2746 20.0932 16.2746L20.0932 16.2758L20.0931 16.2776L20.0928 16.2832L20.0918 16.3014C20.0909 16.3167 20.0896 16.3381 20.0877 16.3651C20.0838 16.4192 20.0774 16.4958 20.0674 16.5906C20.0473 16.7796 20.0123 17.0431 19.9522 17.3444C19.8343 17.9358 19.6102 18.7225 19.1755 19.3745C18.6761 20.1236 17.7894 20.4466 17.1464 20.595C16.8093 20.6728 16.5007 20.7112 16.277 20.7304C16.1645 20.74 16.0721 20.7449 16.0064 20.7474C15.9735 20.7486 15.9472 20.7493 15.9284 20.7496L15.9058 20.7499L15.8989 20.75L15.8956 20.75C15.8956 20.75 15.8949 20.75 15.8949 20.1875L15.8956 20.75H14.0775C14.0607 20.75 14.0439 20.7492 14.0271 20.7477L14.0775 20.1875C14.0271 20.7477 14.0271 20.7477 14.0271 20.7477L14.023 20.7474L14.0137 20.7465L13.981 20.7432C13.953 20.7404 13.9133 20.7362 13.8644 20.7305C13.7667 20.7191 13.6309 20.7018 13.4778 20.6777C13.1842 20.6315 12.7806 20.5539 12.4651 20.4296C11.9922 20.2433 11.6044 19.89 11.3544 19.6222C11.2242 19.4829 11.1197 19.354 11.0473 19.2593C11.0109 19.2117 10.9822 19.1723 10.9619 19.1438C10.9518 19.1295 10.9437 19.1179 10.9379 19.1094L10.9307 19.0989L10.9284 19.0955L10.9276 19.0942C10.9276 19.0942 10.9269 19.0933 11.3949 18.7812L10.9276 19.0942C10.9226 19.0868 10.9172 19.0783 10.9126 19.0707L8.39034 14.8669L8.38911 14.8651C8.38058 14.8524 8.36947 14.8356 8.35645 14.8149C8.33049 14.7737 8.29636 14.7164 8.25958 14.6462C8.18747 14.5085 8.09792 14.3076 8.04515 14.0718C7.99248 13.8366 7.97075 13.5405 8.06516 13.2327C8.16299 12.9138 8.37198 12.6277 8.70305 12.407C9.36849 11.9634 10.0094 12.0683 10.4473 12.2782C10.6576 12.379 10.8235 12.5033 10.9356 12.5998C10.9924 12.6488 11.0376 12.6926 11.07 12.7257C11.0862 12.7423 11.0994 12.7564 11.1094 12.7674L11.122 12.7814L11.1265 12.7865L11.1283 12.7886L11.1291 12.7895C11.1291 12.7895 11.1298 12.7903 10.7026 13.1562L11.1298 12.7903C11.147 12.8104 11.1627 12.8316 11.1769 12.8539L11.3949 13.196V8.65625C11.3949 8.63139 11.3966 8.60655 11.3999 8.58191L11.9574 8.65625C11.3999 8.58191 11.3999 8.58191 11.3999 8.58191L11.4 8.5808L11.4002 8.5796L11.4006 8.57696L11.4015 8.57068L11.4041 8.5543C11.4062 8.54174 11.409 8.52587 11.4129 8.50716C11.4205 8.46988 11.4321 8.42045 11.4494 8.36278C11.4835 8.24937 11.5425 8.09358 11.644 7.93341ZM12.5199 8.71142V15.125C12.5199 15.375 12.3549 15.595 12.1149 15.665C11.8749 15.735 11.6175 15.6382 11.4831 15.4273L10.2567 13.5032C10.2434 13.4901 10.2247 13.4724 10.2012 13.4521C10.1407 13.4 10.0575 13.3389 9.96099 13.2927C9.78534 13.2085 9.58247 13.1728 9.32707 13.343C9.19772 13.4293 9.15758 13.5076 9.1407 13.5626C9.1204 13.6288 9.11838 13.7162 9.14298 13.8261C9.16747 13.9355 9.21273 14.0413 9.25613 14.1241C9.2771 14.1642 9.29589 14.1955 9.30842 14.2154C9.31463 14.2253 9.31916 14.2321 9.32145 14.2355C9.32212 14.2365 9.32286 14.2376 9.32286 14.2376C9.33103 14.2491 9.33876 14.261 9.34604 14.2731L11.8687 18.4775C11.8713 18.4813 11.8748 18.4863 11.8791 18.4924C11.8924 18.5111 11.9132 18.5397 11.9407 18.5757C11.996 18.648 12.0768 18.7476 12.1765 18.8543C12.3862 19.0788 12.6365 19.288 12.8775 19.3829C13.0706 19.459 13.3701 19.522 13.6525 19.5663C13.7874 19.5875 13.9078 19.6029 13.9943 19.613C14.0375 19.618 14.0718 19.6217 14.095 19.624L14.1048 19.625L15.894 19.625L15.896 19.625L15.9082 19.6248C15.9199 19.6246 15.9387 19.6242 15.9637 19.6232C16.0137 19.6213 16.0883 19.6174 16.1809 19.6095C16.3673 19.5935 16.6212 19.5616 16.8935 19.4988C17.4693 19.3659 17.9888 19.1264 18.2394 18.7505C18.5547 18.2775 18.7425 17.658 18.849 17.1243C18.9011 16.8632 18.9314 16.6344 18.9486 16.4719C18.9572 16.3909 18.9625 16.3269 18.9656 16.2843C18.9671 16.263 18.9681 16.2471 18.9687 16.2371L18.9688 16.2354V12.9168C18.9668 12.9067 18.9641 12.8935 18.9603 12.8781C18.9483 12.8297 18.929 12.7719 18.901 12.72C18.873 12.668 18.8452 12.6382 18.8228 12.6223C18.807 12.6112 18.777 12.5938 18.7074 12.5938C18.5027 12.5938 18.4398 12.6627 18.4212 12.6839C18.4155 12.6904 18.4105 12.6969 18.4062 12.7032V14.4055C18.4062 14.7162 18.1544 14.968 17.8438 14.968C17.5331 14.968 17.2812 14.7162 17.2812 14.4055V12.6987C17.2806 12.6973 17.28 12.6959 17.2793 12.6945C17.255 12.6409 17.2185 12.5724 17.1702 12.5074C17.0705 12.3733 16.9702 12.3125 16.8512 12.3125C16.6461 12.3125 16.5339 12.3861 16.47 12.4449C16.4579 12.4561 16.4471 12.4672 16.4375 12.4779V14.4055C16.4375 14.7162 16.1857 14.968 15.875 14.968C15.5643 14.968 15.3125 14.7162 15.3125 14.4055V12.3984C15.3111 12.3946 15.3096 12.3907 15.3079 12.3866C15.2885 12.3371 15.2584 12.2744 15.2166 12.2152C15.1377 12.1035 15.0425 12.0312 14.8824 12.0312C14.6354 12.0312 14.531 12.1128 14.4887 12.1537C14.4813 12.161 14.4746 12.1681 14.4688 12.175V14.4055C14.4688 14.7162 14.2169 14.968 13.9063 14.968C13.5956 14.968 13.3438 14.7162 13.3438 14.4055V8.72526C13.342 8.71965 13.34 8.71351 13.3377 8.70693C13.322 8.661 13.2969 8.60336 13.2604 8.54951C13.1976 8.4566 13.1085 8.375 12.9137 8.375C12.7225 8.375 12.6469 8.45239 12.5944 8.53534C12.5622 8.58611 12.5404 8.64125 12.527 8.68605C12.5241 8.69556 12.5218 8.70409 12.5199 8.71142Z" fill="#4B9EF9"/>
</g>
<defs>
<clipPath id="clip0_3136_29246">
<rect width="18" height="18" fill="white" transform="translate(5 5)"/>
</clipPath>
</defs>
</svg>
