<svg width="24" height="24" viewBox="0 0 24 24" fill="none" xmlns="http://www.w3.org/2000/svg">
<path d="M20.41 6.34C20.79 6.72 21 7.22 21 7.75V19.5C21 19.9 20.85 20.25 20.55 20.55C20.25 20.85 19.9 21 19.5 21H4.5C4.1 21 3.75 20.85 3.45 20.55C3.15 20.25 3 19.9 3 19.5V4.5C3 4.1 3.15 3.75 3.45 3.45C3.75 3.15 4.1 3 4.5 3H16.25C16.78 3 17.29 3.21 17.66 3.59L20.41 6.34ZM18.91 7.01L16.98 5.08C16.6 4.7 16.1 4.49 15.57 4.49H4.5V19.49H19.5V8.43C19.5 7.9 19.29 7.39 18.91 7.02V7.01ZM11.99 17.87C12.71 17.87 13.33 17.62 13.83 17.11C14.34 16.61 14.59 15.99 14.59 15.27C14.59 14.55 14.34 13.93 13.83 13.43C13.33 12.92 12.71 12.67 11.99 12.67C11.27 12.67 10.65 12.92 10.15 13.43C9.64 13.93 9.39 14.55 9.39 15.27C9.39 15.99 9.64 16.61 10.15 17.11C10.65 17.62 11.27 17.87 11.99 17.87ZM7.61 9.4H12.99C13.98 9.4 14.78 8.6 14.78 7.61C14.78 6.62 13.98 5.82 12.99 5.82H7.61C6.62 5.82 5.82 6.62 5.82 7.61C5.82 8.6 6.62 9.4 7.61 9.4ZM4.5 7.6V19.5V4.5V7.6Z" fill="#14142B"/>
</svg>
