<svg width="18" height="18" viewBox="0 0 18 18" fill="none" xmlns="http://www.w3.org/2000/svg">
<path fill-rule="evenodd" clip-rule="evenodd" d="M13.0505 1.66714L11.6029 3.11475L14.8853 6.39707L16.3329 4.94947C16.3419 4.92113 16.3519 4.88796 16.3621 4.85042C16.4047 4.69323 16.4488 4.4673 16.4525 4.20192C16.4596 3.68657 16.3173 3.00545 15.6559 2.34408C14.9945 1.68271 14.3134 1.54044 13.7981 1.54754C13.5327 1.5512 13.3068 1.59535 13.1496 1.63793C13.112 1.6481 13.0789 1.65805 13.0505 1.66714ZM16.9987 5.37775C17.7028 5.69841 17.7029 5.69804 17.7031 5.69767L17.7035 5.69687L17.7042 5.69515L17.706 5.69116L17.7105 5.68098C17.7139 5.67322 17.718 5.66355 17.7228 5.65201C17.7323 5.62894 17.7445 5.59837 17.7584 5.56084C17.7862 5.48591 17.821 5.38247 17.8555 5.255C17.9243 5.00131 17.9938 4.64466 17.9996 4.22326C18.0115 3.36506 17.7559 2.25582 16.75 1.24997C15.7442 0.244133 14.6349 -0.0114494 13.7767 0.000387897C13.3553 0.00620024 12.9987 0.075732 12.745 0.144454C12.6175 0.178986 12.5141 0.213845 12.4392 0.241585C12.4016 0.255477 12.3711 0.267654 12.348 0.277211C12.3365 0.281992 12.3268 0.286125 12.319 0.289499L12.3088 0.29398L12.3048 0.29577L12.3031 0.296547L12.3023 0.296906C12.302 0.297077 12.3016 0.297245 12.6223 1.00131L12.3016 0.297245L12.1742 0.355269L0.745984 11.7835L0 18L6.21653 17.254L17.6447 5.82581L17.7028 5.69841L16.9987 5.37775ZM13.7911 7.49118L10.5088 4.20886L2.2185 12.4992L1.77091 16.2291L5.50083 15.7815L13.7911 7.49118Z" fill="#14142B"/>
</svg>
