<svg width="16" height="16" viewBox="0 0 16 16" fill="none" xmlns="http://www.w3.org/2000/svg">
<path d="M14.6362 4.31856L12.015 1.69733L12.8727 0.839548C12.9859 0.725104 13.1219 0.635833 13.272 0.57757C13.422 0.519307 13.5826 0.493365 13.7434 0.501441C13.905 0.50013 14.0652 0.531065 14.2147 0.592435C14.3642 0.653804 14.5 0.744375 14.614 0.858848L15.4947 1.7395C15.7181 1.97017 15.843 2.27868 15.843 2.59978C15.843 2.92088 15.7181 3.22939 15.4947 3.46006L14.6362 4.31856ZM1.44785 15.4997C1.36645 15.5023 1.28539 15.4881 1.20968 15.4582C1.13396 15.4282 1.0652 15.383 1.00765 15.3254C0.950101 15.2677 0.904981 15.1989 0.875081 15.1232C0.845182 15.0474 0.831138 14.9664 0.833819 14.885V13.1244C0.832859 13.0474 0.846691 12.971 0.874563 12.8992C0.907972 12.8221 0.956598 12.7526 1.01753 12.6948L11.155 2.55725L13.7763 5.17848L3.63947 15.3138C3.58164 15.3748 3.51211 15.4234 3.43503 15.4568C3.36328 15.4847 3.28684 15.4985 3.20987 15.4976L1.44785 15.4997Z" fill="#2D2D39"/>
</svg>
