<svg width="28" height="28" viewBox="0 0 28 28" fill="curentColor" xmlns="http://www.w3.org/2000/svg">
<path d="M9.93025 19.056C9.71948 19.2843 9.73379 19.6404 9.96209 19.8508C10.0705 19.9506 10.2072 20 10.3436 20C10.4953 20 10.6459 19.9392 10.7569 19.8193L9.93025 19.056ZM20.5435 14.2208L19.8311 15.0918C20.0715 15.2882 20.4262 15.2528 20.6226 15.0123C20.7081 14.9078 20.75 14.7819 20.75 14.6566C20.75 14.4938 20.6795 14.3321 20.5435 14.2208ZM9.2185 14.9375C9.2185 15.2481 9.47042 15.5001 9.78103 15.5001C10.0916 15.5001 10.3181 15.2728 10.3414 14.9837C10.3428 14.9687 10.3436 14.9536 10.3436 14.9383V14.9375H9.2185V14.9375ZM13.7187 14.9375V14.9383C13.7187 14.9425 13.7187 14.9468 13.7191 14.9511C13.7262 15.2553 13.975 15.5001 14.2813 15.5001C14.5876 15.5001 14.8438 15.2481 14.8438 14.9375H13.7187V14.9375ZM8.93723 8.75V9.87507H19.0624V8.75H8.93723ZM19.6249 10.4376V13.4693L18.2701 12.3607C17.5791 11.7953 16.5672 11.8661 15.9613 12.5221L14.535 14.0673C14.3933 13.854 14.2072 13.6446 13.9896 13.4571C13.5094 13.0424 12.8213 12.6874 12.0311 12.6874C11.241 12.6874 10.5529 13.0424 10.0727 13.4571C9.83434 13.6629 9.63324 13.8948 9.48688 14.1292L8.3747 13.017V14.608L11.3187 17.552L10.097 18.8753H11.6282L16.788 13.2854C16.9901 13.0667 17.3272 13.0431 17.5577 13.2313L19.6249 14.9232V18.3128H20.75V10.4376H19.6249ZM12.0823 16.7246L10.3414 14.9837C10.3428 14.9687 10.3436 14.9536 10.3436 14.9383C10.3443 14.9383 10.3525 14.8678 10.4366 14.7318C10.5171 14.6012 10.6427 14.4509 10.8077 14.3084C11.1419 14.02 11.5788 13.8125 12.0311 13.8125C12.4835 13.8125 12.9204 14.02 13.2546 14.3084C13.4192 14.4509 13.5448 14.6012 13.6257 14.7318C13.7094 14.8678 13.718 14.9383 13.7187 14.9383C13.7187 14.9425 13.7187 14.9468 13.7191 14.9511L12.0823 16.7246V16.7246ZM8.93723 18.8753V20H19.0624V18.8753H8.93723V18.8753ZM7.25 10.4376V18.3128H8.3747V10.4376H7.25ZM8.3747 18.8753V18.3128H7.25C7.25 19.2446 8.00541 20 8.93723 20V18.8753H8.3747V18.8753ZM19.6249 18.3128V18.8753H19.0624V20C19.9942 20 20.75 19.2446 20.75 18.3128H19.6249V18.3128ZM20.75 10.4376C20.75 9.50542 19.9942 8.75 19.0624 8.75V9.87507H19.6249V10.4376H20.75V10.4376ZM7.25 10.4376H8.3747V9.87507H8.93723V8.75C8.00541 8.75 7.25 9.50542 7.25 10.4376ZM10.2952 14.9375L10.3414 14.9837C10.3428 14.9687 10.3436 14.9536 10.3436 14.9383V14.9375H10.2952V14.9375ZM15.9613 12.5221L14.535 14.0673L13.7316 14.9375H13.7187V14.9383C13.7187 14.9425 13.7187 14.9468 13.7191 14.9511L12.0823 16.7246L11.3187 17.552L10.097 18.8753L9.93025 19.056L10.7569 19.8193L11.6282 18.8753L16.788 13.2854L15.9613 12.5221V12.5221ZM19.6249 13.4693L18.2701 12.3607L17.5577 13.2313L19.6249 14.9232L19.8311 15.0918L20.5435 14.2208L19.6249 13.4693V13.4693ZM15.9613 12.5221L16.788 13.2854C16.9901 13.0667 17.3272 13.0431 17.5577 13.2313L18.2701 12.3607C17.5791 11.7953 16.5672 11.8661 15.9613 12.5221V12.5221ZM12.0823 16.7246L10.3414 14.9837L10.2952 14.9375L9.48688 14.1292L8.21009 12.8524L7.41461 13.6479L11.7739 18.0071L12.5693 17.2117L12.0823 16.7246V16.7246ZM10.0727 13.4571C9.83434 13.6629 9.63324 13.8948 9.48688 14.1292C9.48402 14.1331 9.48151 14.1374 9.47901 14.1413C9.33981 14.3671 9.2185 14.6484 9.2185 14.9375H10.2952L10.3414 14.9837C10.3428 14.9687 10.3436 14.9536 10.3436 14.9383C10.3443 14.9383 10.3525 14.8678 10.4366 14.7318C10.5171 14.6012 10.6427 14.4509 10.8077 14.3084C11.1419 14.02 11.5788 13.8125 12.0311 13.8125V12.6874C11.2407 12.6874 10.5529 13.0424 10.0727 13.4571V13.4571ZM14.5829 14.1413C14.5675 14.1166 14.5518 14.0919 14.535 14.0673C14.3933 13.854 14.2072 13.6446 13.9896 13.4571C13.5094 13.0424 12.8213 12.6874 12.0311 12.6874V13.8125C12.4835 13.8125 12.9204 14.02 13.2546 14.3084C13.4192 14.4509 13.5448 14.6012 13.6257 14.7318C13.7094 14.8678 13.718 14.9383 13.7187 14.9383V14.9375H14.8438C14.8438 14.6484 14.7225 14.3671 14.5829 14.1413Z" fill="currentColor"/>
</svg>
