<svg width="35" height="35" viewBox="0 0 35 35" fill="none" xmlns="http://www.w3.org/2000/svg">
<path fill-rule="evenodd" clip-rule="evenodd" d="M17.5 9.53913C13.2451 9.53913 9.34715 12.2035 6.84969 16.5535C6.54673 17.0812 6.54674 17.7296 6.8497 18.2573C9.34716 22.6072 13.2451 25.2715 17.5 25.2715C21.7549 25.2715 25.6528 22.6071 28.1503 18.2572C28.4533 17.7295 28.4533 17.0811 28.1503 16.5534C25.6528 12.2035 21.7549 9.53913 17.5 9.53913ZM4.90061 15.4344C7.6847 10.5853 12.2346 7.29166 17.5 7.29166C22.7654 7.29166 27.3153 10.5852 30.0994 15.4343C30.8002 16.655 30.8002 18.1555 30.0994 19.3762C27.3153 24.2254 22.7654 27.519 17.5 27.519C12.2346 27.519 7.68472 24.2254 4.90062 19.3763C4.1998 18.1556 4.19979 16.6551 4.90061 15.4344ZM17.4999 15.1578C16.2587 15.1578 15.2524 16.164 15.2524 17.4053C15.2524 18.6465 16.2587 19.6528 17.4999 19.6528C18.7411 19.6528 19.7474 18.6465 19.7474 17.4053C19.7474 16.164 18.7411 15.1578 17.4999 15.1578ZM13.005 17.4053C13.005 14.9228 15.0174 12.9103 17.4999 12.9103C19.9824 12.9103 21.9949 14.9228 21.9949 17.4053C21.9949 19.8878 19.9824 21.9002 17.4999 21.9002C15.0174 21.9002 13.005 19.8878 13.005 17.4053Z" fill="#14142B"/>
</svg>
