<svg width="31" height="31" viewBox="0 0 31 31" fill="none" xmlns="http://www.w3.org/2000/svg">
<rect width="31" height="31" rx="3" fill="#2B68B3"/>
<path d="M12.3913 20.1538H10V13.2308H12.3913V20.1538ZM11.1961 12.3077C10.5347 12.3077 10 11.7903 10 11.1534C10 10.5165 10.5357 10 11.1961 10C11.8552 10 12.3913 10.5174 12.3913 11.1534C12.3913 11.7903 11.8552 12.3077 11.1961 12.3077ZM21 20.1538H18.701V16.7846C18.701 15.9811 18.6852 14.9477 17.5058 14.9477C16.3087 14.9477 16.1246 15.8228 16.1246 16.7265V20.1538H13.8261V13.2257H16.0328V14.1723H16.0639C16.3709 13.6277 17.1213 13.0535 18.2404 13.0535C20.5696 13.0535 21 14.4885 21 16.354C21 16.354 21 20.1538 21 20.1538Z" fill="white"/>
</svg>
