<svg width="20" height="20" viewBox="0 0 20 20" fill="none" xmlns="http://www.w3.org/2000/svg">
<path d="M3.97074 17.2681C3.65848 17.6064 3.67969 18.1339 4.01792 18.4456C4.17855 18.5935 4.38106 18.6667 4.58305 18.6667C4.80782 18.6667 5.03101 18.5765 5.19536 18.3989L3.97074 17.2681ZM19.6941 10.1048L18.6386 11.3952C18.9949 11.6863 19.5202 11.6338 19.8113 11.2775C19.938 11.1227 20 10.9361 20 10.7506C20 10.5093 19.8956 10.2697 19.6941 10.1048ZM2.91629 11.1667C2.91629 11.6269 3.28951 12.0001 3.74967 12.0001C4.20983 12.0001 4.54541 11.6635 4.57987 11.2351C4.58199 11.2128 4.58305 11.1906 4.58305 11.1678V11.1667H2.91629V11.1667ZM9.58331 11.1667V11.1678C9.58331 11.1741 9.58331 11.1805 9.58384 11.1869C9.59444 11.6375 9.96289 12.0001 10.4167 12.0001C10.8705 12.0001 11.2501 11.6269 11.2501 11.1667H9.58331V11.1667ZM2.4996 2V3.66677H17.4999V2H2.4996ZM18.3332 4.50016V8.99154L16.3261 7.34915C15.3024 6.51153 13.8032 6.61649 12.9057 7.58825L10.7926 9.87741C10.5826 9.56144 10.3069 9.25131 9.98463 8.97351C9.27318 8.35908 8.25372 7.83317 7.08318 7.83317C5.91263 7.83317 4.89318 8.35908 4.18173 8.97351C3.82866 9.27835 3.53072 9.62188 3.31389 9.96912L1.66622 8.32144V10.6785L6.02767 15.04L4.21778 17.0004H6.48624L14.1303 8.71904C14.4298 8.39513 14.9292 8.36014 15.2706 8.63899L18.3332 11.1455V16.167H20V4.50016H18.3332ZM7.15899 13.8143L4.57987 11.2351C4.58199 11.2128 4.58305 11.1906 4.58305 11.1678C4.58411 11.1678 4.5963 11.0633 4.72088 10.8619C4.84016 10.6684 5.02624 10.4457 5.27064 10.2347C5.76578 9.80743 6.41308 9.49995 7.08318 9.49995C7.75327 9.49995 8.40057 9.80743 8.89572 10.2347C9.13959 10.4457 9.32566 10.6684 9.44547 10.8619C9.56953 11.0633 9.58225 11.1678 9.58331 11.1678C9.58331 11.1741 9.58331 11.1805 9.58384 11.1869L7.15899 13.8143V13.8143ZM2.4996 17.0004V18.6667H17.4999V17.0004H2.4996V17.0004ZM0 4.50016V16.167H1.66622V4.50016H0ZM1.66622 17.0004V16.167H0C0 17.5475 1.11912 18.6667 2.4996 18.6667V17.0004H1.66622V17.0004ZM18.3332 16.167V17.0004H17.4999V18.6667C18.8803 18.6667 20 17.5475 20 16.167H18.3332V16.167ZM20 4.50016C20 3.11913 18.8803 2 17.4999 2V3.66677H18.3332V4.50016H20V4.50016ZM0 4.50016H1.66622V3.66677H2.4996V2C1.11912 2 0 3.11913 0 4.50016ZM4.51148 11.1667L4.57987 11.2351C4.58199 11.2128 4.58305 11.1906 4.58305 11.1678V11.1667H4.51148V11.1667ZM12.9057 7.58825L10.7926 9.87741L9.6024 11.1667H9.58331V11.1678C9.58331 11.1741 9.58331 11.1805 9.58384 11.1869L7.15899 13.8143L6.02767 15.04L4.21778 17.0004L3.97074 17.2681L5.19536 18.3989L6.48624 17.0004L14.1303 8.71904L12.9057 7.58825V7.58825ZM18.3332 8.99154L16.3261 7.34915L15.2706 8.63899L18.3332 11.1455L18.6386 11.3952L19.6941 10.1048L18.3332 8.99154V8.99154ZM12.9057 7.58825L14.1303 8.71904C14.4298 8.39513 14.9292 8.36014 15.2706 8.63899L16.3261 7.34915C15.3024 6.51153 13.8032 6.61649 12.9057 7.58825V7.58825ZM7.15899 13.8143L4.57987 11.2351L4.51148 11.1667L3.31389 9.96912L1.42236 8.07757L0.243864 9.25608L6.70201 15.7143L7.88051 14.5358L7.15899 13.8143V13.8143ZM4.18173 8.97351C3.82866 9.27835 3.53072 9.62188 3.31389 9.96912C3.30965 9.97496 3.30594 9.98132 3.30223 9.98715C3.09601 10.3217 2.91629 10.7384 2.91629 11.1667H4.51148L4.57987 11.2351C4.58199 11.2128 4.58305 11.1906 4.58305 11.1678C4.58411 11.1678 4.5963 11.0633 4.72088 10.8619C4.84016 10.6684 5.02624 10.4457 5.27064 10.2347C5.76578 9.80743 6.41308 9.49995 7.08318 9.49995V7.83317C5.9121 7.83317 4.89318 8.35908 4.18173 8.97351V8.97351ZM10.8636 9.98715C10.8408 9.95057 10.8175 9.91399 10.7926 9.87741C10.5826 9.56144 10.3069 9.25131 9.98463 8.97351C9.27318 8.35908 8.25372 7.83317 7.08318 7.83317V9.49995C7.75327 9.49995 8.40057 9.80743 8.89572 10.2347C9.13959 10.4457 9.32566 10.6684 9.44547 10.8619C9.56953 11.0633 9.58225 11.1678 9.58331 11.1678V11.1667H11.2501C11.2501 10.7384 11.0703 10.3217 10.8636 9.98715Z" fill="#14142B"/>
</svg>
