<svg width="50" height="50" viewBox="0 0 50 50" fill="none" xmlns="http://www.w3.org/2000/svg">
<g clip-path="url(#clip0_8017_6425)">
<mask id="mask0_8017_6425" style="mask-type:luminance" maskUnits="userSpaceOnUse" x="0" y="0" width="50" height="50">
<path d="M48.2467 48.2489C47.0811 49.4144 45.5522 50 44.0222 50C42.4944 49.9978 40.9644 49.4167 39.7978 48.2489L27.5333 35.9844C26.8322 35.2833 25.9156 34.9333 24.9978 34.9344C24.0811 34.9344 23.1656 35.2844 22.4667 35.9844L10.2022 48.2489C7.86778 50.5833 4.08556 50.5811 1.75111 48.2467C0.584444 47.08 0 45.5522 0 44.0222C0 42.4922 0.583333 40.9644 1.75111 39.7978L14.0156 27.5333C14.7144 26.8344 15.0633 25.9156 15.0633 25C15.0656 24.0822 14.7144 23.1656 14.0156 22.4667L1.75 10.2011C-0.582222 7.86889 -0.582222 4.08444 1.75 1.75222C2.91667 0.585556 4.44889 0.00111111 5.97667 0C7.50667 0 9.03556 0.585555 10.2011 1.75111L22.4656 14.0156C23.1644 14.7144 24.0811 15.0656 24.9967 15.0656C25.9144 15.0633 26.8333 14.7156 27.5322 14.0156L39.7967 1.75111C42.1289 -0.581111 45.9133 -0.581111 48.2456 1.75111C49.4122 2.91778 49.9944 4.44778 49.9967 5.97556C49.9967 7.50556 49.4133 9.03667 48.2478 10.2022L35.9833 22.4667C34.5833 23.8667 34.5833 26.1333 35.9833 27.5333L48.2478 39.7978C50.58 42.13 50.58 45.9144 48.2456 48.2489H48.2467Z" fill="white"/>
</mask>
<g mask="url(#mask0_8017_6425)">
<mask id="mask1_8017_6425" style="mask-type:luminance" maskUnits="userSpaceOnUse" x="-1" y="-1" width="52" height="52">
<path d="M50.5522 -0.556671H-0.556641V50.5544H50.5522V-0.556671Z" fill="white"/>
</mask>
<g mask="url(#mask1_8017_6425)">
<rect x="-0.592224" y="-0.608887" width="51.1467" height="51.2" fill="white"/>
</g>
</g>
</g>
<defs>
<clipPath id="clip0_8017_6425">
<rect width="50" height="50" fill="white"/>
</clipPath>
</defs>
</svg>
