<svg width="24" height="24" viewBox="0 0 24 24" fill="none" xmlns="http://www.w3.org/2000/svg">
<path d="M6.57366 18.7413C6.29264 19.0457 6.31172 19.5205 6.61613 19.801C6.7607 19.9342 6.94296 20 7.12474 20C7.32704 20 7.52791 19.9189 7.67582 19.759L6.57366 18.7413ZM20.7247 12.2944L19.7747 13.4557C20.0954 13.7176 20.5682 13.6704 20.8301 13.3498C20.9442 13.2104 21 13.0425 21 12.8755C21 12.6584 20.906 12.4427 20.7247 12.2944ZM5.62466 13.25C5.62466 13.6642 5.96056 14.0001 6.3747 14.0001C6.78885 14.0001 7.09087 13.6971 7.12188 13.3116C7.12379 13.2916 7.12474 13.2715 7.12474 13.251V13.25H5.62466V13.25ZM11.625 13.25V13.251C11.625 13.2567 11.625 13.2625 11.6255 13.2682C11.635 13.6737 11.9666 14.0001 12.375 14.0001C12.7834 14.0001 13.1251 13.6642 13.1251 13.25H11.625V13.25ZM5.24964 5V6.5001H18.7499V5H5.24964ZM19.4999 7.25014V11.2924L17.6935 9.81424C16.7722 9.06037 15.4229 9.15484 14.6151 10.0294L12.7133 12.0897C12.5244 11.8053 12.2763 11.5262 11.9862 11.2762C11.3459 10.7232 10.4284 10.2499 9.37486 10.2499C8.32137 10.2499 7.40386 10.7232 6.76356 11.2762C6.44579 11.5505 6.17765 11.8597 5.98251 12.1722L4.4996 10.6893V12.8106L8.42491 16.736L6.796 18.5004H8.83762L15.7173 11.0471C15.9869 10.7556 16.4363 10.7241 16.7436 10.9751L19.4999 13.231V17.7503H21V7.25014H19.4999ZM9.44309 15.6328L7.12188 13.3116C7.12379 13.2916 7.12474 13.2715 7.12474 13.251C7.1257 13.251 7.13667 13.157 7.24879 12.9757C7.35615 12.8015 7.52362 12.6012 7.74357 12.4113C8.18921 12.0267 8.77178 11.75 9.37486 11.75C9.97795 11.75 10.5605 12.0267 11.0061 12.4113C11.2256 12.6012 11.3931 12.8015 11.5009 12.9757C11.6126 13.157 11.624 13.251 11.625 13.251C11.625 13.2567 11.625 13.2625 11.6255 13.2682L9.44309 15.6328V15.6328ZM5.24964 18.5004V20H18.7499V18.5004H5.24964V18.5004ZM3 7.25014V17.7503H4.4996V7.25014H3ZM4.4996 18.5004V17.7503H3C3 18.9928 4.00721 20 5.24964 20V18.5004H4.4996V18.5004ZM19.4999 17.7503V18.5004H18.7499V20C19.9923 20 21 18.9928 21 17.7503H19.4999V17.7503ZM21 7.25014C21 6.00722 19.9923 5 18.7499 5V6.5001H19.4999V7.25014H21V7.25014ZM3 7.25014H4.4996V6.5001H5.24964V5C4.00721 5 3 6.00722 3 7.25014ZM7.06033 13.25L7.12188 13.3116C7.12379 13.2916 7.12474 13.2715 7.12474 13.251V13.25H7.06033V13.25ZM14.6151 10.0294L12.7133 12.0897L11.6422 13.25H11.625V13.251C11.625 13.2567 11.625 13.2625 11.6255 13.2682L9.44309 15.6328L8.42491 16.736L6.796 18.5004L6.57366 18.7413L7.67582 19.759L8.83762 18.5004L15.7173 11.0471L14.6151 10.0294V10.0294ZM19.4999 11.2924L17.6935 9.81424L16.7436 10.9751L19.4999 13.231L19.7747 13.4557L20.7247 12.2944L19.4999 11.2924V11.2924ZM14.6151 10.0294L15.7173 11.0471C15.9869 10.7556 16.4363 10.7241 16.7436 10.9751L17.6935 9.81424C16.7722 9.06037 15.4229 9.15484 14.6151 10.0294V10.0294ZM9.44309 15.6328L7.12188 13.3116L7.06033 13.25L5.98251 12.1722L4.28013 10.4698L3.21948 11.5305L9.03181 17.3429L10.0925 16.2822L9.44309 15.6328V15.6328ZM6.76356 11.2762C6.44579 11.5505 6.17765 11.8597 5.98251 12.1722C5.97869 12.1775 5.97535 12.1832 5.97201 12.1884C5.78641 12.4895 5.62466 12.8645 5.62466 13.25H7.06033L7.12188 13.3116C7.12379 13.2916 7.12474 13.2715 7.12474 13.251C7.1257 13.251 7.13667 13.157 7.24879 12.9757C7.35615 12.8015 7.52362 12.6012 7.74357 12.4113C8.18921 12.0267 8.77178 11.75 9.37486 11.75V10.2499C8.32089 10.2499 7.40386 10.7232 6.76356 11.2762V11.2762ZM12.7772 12.1884C12.7567 12.1555 12.7357 12.1226 12.7133 12.0897C12.5244 11.8053 12.2763 11.5262 11.9862 11.2762C11.3459 10.7232 10.4284 10.2499 9.37486 10.2499V11.75C9.97795 11.75 10.5605 12.0267 11.0061 12.4113C11.2256 12.6012 11.3931 12.8015 11.5009 12.9757C11.6126 13.157 11.624 13.251 11.625 13.251V13.25H13.1251C13.1251 12.8645 12.9633 12.4895 12.7772 12.1884Z" fill="#14142B"/>
</svg>
