<svg width="28" height="28" viewBox="0 0 28 28" fill="none" xmlns="http://www.w3.org/2000/svg">
<path d="M17.1974 11.9052C17.2684 11.9052 17.3324 11.9123 17.3963 11.9123L8.23763 8.05413C7.76868 7.86229 7.25 8.20334 7.25 8.71492V11.351C7.25 11.6778 7.47026 11.962 7.79 12.0402L12.9342 13.3262L7.79 14.6123C7.47026 14.6904 7.25 14.9747 7.25 15.3015V17.9376C7.25 18.4491 7.76868 18.7902 8.23763 18.5912L12.2237 16.9144C12.2237 16.9002 12.2237 16.8931 12.2237 16.8789C12.2237 14.1362 14.4547 11.9052 17.1974 11.9052Z" fill="#0049B2"/>
<path d="M17.1974 13.3262C15.2364 13.3262 13.6448 14.9178 13.6448 16.8788C13.6448 18.8399 15.2364 20.4314 17.1974 20.4314C19.1585 20.4314 20.75 18.8399 20.75 16.8788C20.75 14.9178 19.1585 13.3262 17.1974 13.3262ZM18.114 18.2999L16.9416 17.1275C16.8777 17.0635 16.835 16.9712 16.835 16.8788V15.1025C16.835 14.9035 16.9914 14.7472 17.1903 14.7472C17.3892 14.7472 17.5456 14.9035 17.5456 15.1025V16.7296L18.6114 17.7954C18.7535 17.9375 18.7535 18.1578 18.6114 18.2999C18.4764 18.442 18.2561 18.442 18.114 18.2999Z" fill="#0049B2"/>
<rect x="0.5" y="0.5" width="27" height="27" rx="2.5" stroke="#0049B2"/>
</svg>
