<svg width="170" height="120" viewBox="0 0 170 120" fill="none" xmlns="http://www.w3.org/2000/svg">
<g clip-path="url(#clip0_5124_21379)">
<mask id="mask0_5124_21379" style="mask-type:luminance" maskUnits="userSpaceOnUse" x="0" y="0" width="170" height="120">
<path d="M169.078 0H0.922363V120H169.078V0Z" fill="white"/>
</mask>
<g mask="url(#mask0_5124_21379)">
<path d="M109.705 27.832L111.991 25.8789L115.042 29.4431L112.756 31.3963L109.705 27.832Z" fill="#14142B"/>
<path d="M113.966 25.6017L109.262 29.6385L105.964 25.7985C107.261 23.9793 108.808 22.6065 110.66 21.7617L113.966 25.6017Z" fill="#FFCD41"/>
<path d="M110.055 28.9612C110.029 28.9852 109.234 28.1116 108.278 27.0148C107.321 25.918 106.567 25.0108 106.596 24.9868C106.625 24.9628 107.418 25.8364 108.374 26.9332C109.33 28.03 110.082 28.9396 110.055 28.9612Z" fill="#14142B"/>
<path d="M110.944 28.1925C110.754 28.0077 110.577 27.8097 110.415 27.5997C110.098 27.2277 109.668 26.7117 109.195 26.1357L107.994 24.6573L107.634 24.2085C107.547 24.0981 107.501 24.0477 107.501 24.0405C107.55 23.9973 108.349 24.9069 109.296 26.0565C109.776 26.6325 110.19 27.1581 110.497 27.5445C110.665 27.7469 110.814 27.9638 110.944 28.1925Z" fill="#14142B"/>
<path d="M112.145 27.1675C111.952 26.9834 111.773 26.7852 111.609 26.5747C111.29 26.1979 110.857 25.6723 110.382 25.0891L109.181 23.5867L108.82 23.1283C108.774 23.0736 108.732 23.015 108.695 22.9531C108.902 23.1235 109.087 23.3177 109.248 23.5315C109.572 23.9035 110.009 24.4267 110.483 25.0099C110.956 25.5931 111.381 26.1283 111.684 26.5195C111.855 26.7221 112.01 26.939 112.145 27.1675Z" fill="#14142B"/>
<path d="M113.228 26.208C113.202 26.2296 112.412 25.3488 111.463 24.24C110.514 23.1312 109.769 22.212 109.796 22.188C109.822 22.164 110.61 23.0472 111.559 24.1584C112.508 25.2696 113.255 26.1864 113.228 26.208Z" fill="#14142B"/>
<path d="M150.164 26.1328L152.242 28.3053L148.848 31.5453L146.771 29.3728L150.164 26.1328Z" fill="#14142B"/>
<path d="M152.341 30.4426L148.061 25.9666L151.719 22.4746C153.602 23.6746 155.058 25.1458 155.997 26.9506L152.341 30.4426Z" fill="#FFCD41"/>
<path d="M148.776 26.7176C148.752 26.6912 149.581 25.8512 150.629 24.8408C151.676 23.8304 152.55 23.0312 152.567 23.0552C152.584 23.0792 151.762 23.9192 150.715 24.932C149.668 25.9448 148.8 26.7416 148.776 26.7176Z" fill="#14142B"/>
<path d="M149.593 27.5686C149.764 27.367 149.95 27.1794 150.151 27.007C150.504 26.6711 150.999 26.2127 151.549 25.7086L152.964 24.4294L153.394 24.0455C153.497 23.9542 153.547 23.9086 153.555 23.9062C153.6 23.9519 152.733 24.7991 151.633 25.8022C151.083 26.3039 150.578 26.7622 150.208 27.0719C150.017 27.2533 149.811 27.4194 149.593 27.5686Z" fill="#14142B"/>
<path d="M150.679 28.7048C150.852 28.5012 151.04 28.3119 151.243 28.1384C151.601 27.8 152.103 27.3392 152.663 26.8352L154.104 25.5536L154.544 25.1696C154.597 25.1218 154.654 25.0769 154.712 25.0352C154.553 25.2504 154.369 25.4463 154.164 25.6184C153.809 25.9616 153.307 26.4248 152.749 26.9288C152.192 27.4328 151.678 27.8888 151.308 28.2056C151.111 28.388 150.901 28.5548 150.679 28.7048Z" fill="#14142B"/>
<path d="M151.695 29.7382C151.671 29.7118 152.512 28.879 153.571 27.8734C154.631 26.8678 155.51 26.0758 155.534 26.1022C155.558 26.1286 154.717 26.9614 153.658 27.9646C152.599 28.9678 151.719 29.7598 151.695 29.7382Z" fill="#14142B"/>
<path d="M129.503 17.9336H133.064V23.4848H129.503V17.9336Z" fill="#14142B"/>
<path d="M134.966 19.594H127.639V13.6108C130.207 12.9772 132.657 12.9388 134.973 13.6108L134.966 19.594Z" fill="#4A9DF9"/>
<path d="M135.06 13.6347C134.974 13.6884 134.883 13.7333 134.788 13.7691C134.537 13.8795 134.28 13.974 134.017 14.0523C133.624 14.1735 133.222 14.268 132.816 14.3355C132.323 14.4137 131.824 14.4555 131.324 14.4603C130.825 14.461 130.326 14.424 129.833 14.3499C129.427 14.287 129.025 14.1963 128.631 14.0787C128.368 14.0019 128.11 13.9097 127.858 13.8027C127.763 13.7695 127.671 13.7254 127.586 13.6707C127.586 13.6491 127.99 13.8147 128.655 13.9923C129.046 14.0955 129.442 14.1756 129.842 14.2323C130.331 14.2983 130.824 14.3321 131.317 14.3331C131.811 14.3275 132.303 14.2889 132.792 14.2179C133.19 14.1603 133.585 14.0801 133.974 13.9779C134.656 13.7835 135.05 13.6131 135.06 13.6347Z" fill="#14142B"/>
<path d="M130.061 19.5765C130.027 19.5765 129.998 18.4269 129.998 17.0109C129.998 15.5949 130.027 14.4453 130.061 14.4453C130.094 14.4453 130.123 15.5925 130.123 17.0109C130.123 18.4293 130.097 19.5765 130.061 19.5765Z" fill="#14142B"/>
<path d="M131.456 19.6098C131.423 19.6098 131.394 18.4554 131.394 17.0322C131.394 15.609 131.423 14.457 131.456 14.457C131.49 14.457 131.519 15.609 131.519 17.0322C131.519 18.4554 131.493 19.6098 131.456 19.6098Z" fill="#14142B"/>
<path d="M132.852 19.5888C132.818 19.5888 132.79 18.4344 132.79 17.0112C132.79 15.588 132.818 14.4336 132.852 14.4336C132.886 14.4336 132.914 15.588 132.914 17.0112C132.914 18.4344 132.888 19.5888 132.852 19.5888Z" fill="#14142B"/>
<path d="M134.005 19.5884C133.969 19.5884 133.943 18.3404 133.943 16.802C133.943 15.2636 133.969 14.0156 134.005 14.0156C134.041 14.0156 134.068 15.2636 134.068 16.802C134.068 18.3404 134.049 19.5884 134.005 19.5884Z" fill="#14142B"/>
<path d="M128.742 19.5533C128.708 19.5533 128.679 18.3053 128.679 16.7669C128.679 15.2285 128.708 13.9805 128.742 13.9805C128.775 13.9805 128.804 15.2285 128.804 16.7669C128.804 18.3053 128.778 19.5533 128.742 19.5533Z" fill="#14142B"/>
<path d="M112.537 29.3474C122.653 19.241 139.054 19.241 149.17 29.3474C159.285 39.4538 159.285 55.8398 149.17 65.9462C139.054 76.0526 122.653 76.0526 112.537 65.9462C102.421 55.8398 102.421 39.4538 112.537 29.3474Z" fill="#4A9DF9"/>
<path d="M130.854 25.707C142.868 25.707 152.608 35.4378 152.608 47.4414C152.608 59.445 142.868 69.1758 130.854 69.1758C118.839 69.1758 109.099 59.445 109.099 47.4414C109.099 35.4378 118.839 25.707 130.854 25.707Z" fill="#FAFAFA"/>
<path d="M152.608 47.4403C152.608 47.4403 152.608 47.3227 152.591 47.0899C152.574 46.8571 152.591 46.5091 152.546 46.0555C152.46 44.7321 152.252 43.4193 151.926 42.1339C151.69 41.206 151.393 40.2952 151.035 39.4075C150.614 38.3491 150.108 37.3264 149.521 36.3499C148.087 33.964 146.212 31.8717 143.996 30.1843C141.307 28.1404 138.177 26.753 134.856 26.1331C132.041 25.6156 129.152 25.649 126.349 26.2315C125.365 26.4448 124.396 26.7216 123.448 27.0595C119.411 28.5283 115.901 31.158 113.358 34.6171C112.695 35.5178 112.104 36.4696 111.59 37.4635C111.324 37.9603 111.095 38.4763 110.87 38.9947C110.644 39.5131 110.442 40.0507 110.271 40.5979C109.903 41.693 109.626 42.8169 109.445 43.9579C109.263 45.1116 109.167 46.2772 109.159 47.4451C109.168 48.6136 109.262 49.78 109.443 50.9347C109.627 52.0752 109.903 53.1988 110.269 54.2947C110.442 54.8395 110.658 55.3675 110.867 55.8955C111.076 56.4235 111.328 56.9323 111.588 57.4291C112.101 58.4234 112.693 59.3752 113.358 60.2755C115.9 63.7358 119.411 66.3664 123.448 67.8355C124.396 68.1734 125.365 68.4501 126.349 68.6635C127.309 68.8639 128.281 68.9992 129.259 69.0691C131.13 69.2104 133.011 69.107 134.856 68.7619C138.177 68.142 141.307 66.7545 143.996 64.7107C146.212 63.024 148.087 60.9316 149.521 58.5451C150.107 57.5683 150.613 56.5456 151.035 55.4875C151.888 53.3654 152.398 51.1214 152.546 48.8395C152.587 48.3859 152.579 48.0379 152.591 47.8051C152.603 47.5723 152.608 47.4523 152.608 47.4523C152.608 47.4523 152.608 47.5723 152.608 47.8051C152.608 48.0379 152.608 48.3859 152.574 48.8395C152.443 51.1279 151.942 53.38 151.092 55.5091C150.674 56.5723 150.169 57.5997 149.584 58.5811C148.152 60.9792 146.277 63.083 144.059 64.7803C141.36 66.8366 138.218 68.2339 134.882 68.8603C133.029 69.21 131.139 69.3165 129.259 69.1771C128.276 69.1075 127.299 68.9719 126.335 68.7715C125.345 68.5588 124.37 68.2814 123.416 67.9411C119.356 66.4665 115.825 63.8234 113.267 60.3451C112.599 59.44 112.005 58.4834 111.489 57.4843C111.22 56.9851 110.99 56.4619 110.754 55.9411C110.519 55.4203 110.327 54.8803 110.154 54.3307C109.785 53.2303 109.507 52.1018 109.323 50.9563C108.941 48.6326 108.941 46.2624 109.323 43.9387C109.508 42.798 109.786 41.6743 110.154 40.5787C110.329 40.0291 110.545 39.4987 110.757 38.9683C110.968 38.4379 111.22 37.9267 111.489 37.4275C112.007 36.4288 112.602 35.4722 113.269 34.5667C115.826 31.0888 119.357 28.4462 123.416 26.9731C124.369 26.6332 125.343 26.3558 126.333 26.1427C127.298 25.9423 128.275 25.8069 129.259 25.7371C131.138 25.5976 133.028 25.7042 134.88 26.0539C138.216 26.6776 141.359 28.0752 144.056 30.1339C146.275 31.8324 148.15 33.9369 149.581 36.3355C150.657 38.146 151.466 40.1023 151.984 42.1435C152.304 43.4335 152.504 44.7504 152.582 46.0771C152.618 46.5307 152.606 46.8787 152.615 47.1115C152.625 47.3443 152.608 47.4403 152.608 47.4403Z" fill="#14142B"/>
<path d="M149.416 46.6547C148.726 46.6835 148.164 46.6547 148.162 46.5947C148.159 46.5347 148.714 46.4531 149.404 46.4147C150.093 46.3763 150.655 46.4003 150.66 46.4723C150.665 46.5443 150.1 46.6259 149.416 46.6547Z" fill="#14142B"/>
<path d="M148.952 51.6589C148.279 51.5005 147.75 51.3253 147.75 51.2653C147.75 51.2053 148.322 51.2773 148.997 51.4237C149.672 51.5701 150.198 51.7477 150.198 51.8173C150.198 51.8869 149.619 51.8149 148.952 51.6589Z" fill="#14142B"/>
<path d="M147.157 56.3508C146.549 56.0196 146.083 55.7052 146.112 55.6524C146.141 55.5996 146.66 55.818 147.27 56.1324C147.88 56.4468 148.349 56.7708 148.315 56.8332C148.281 56.8956 147.762 56.6844 147.157 56.3508Z" fill="#14142B"/>
<path d="M144.166 60.391C143.672 59.911 143.304 59.4838 143.347 59.431C143.39 59.3782 143.828 59.7358 144.332 60.211C144.837 60.6862 145.199 61.111 145.151 61.171C145.103 61.231 144.659 60.8734 144.166 60.391Z" fill="#14142B"/>
<path d="M140.203 63.4868C139.857 62.8892 139.617 62.3804 139.669 62.3492C139.722 62.318 140.054 62.774 140.409 63.3644C140.765 63.9548 141.005 64.4636 140.945 64.502C140.885 64.5404 140.551 64.0796 140.203 63.4868Z" fill="#14142B"/>
<path d="M135.554 65.4047C135.381 64.7351 135.288 64.1807 135.348 64.1663C135.408 64.1519 135.602 64.6775 135.787 65.3423C135.972 66.0071 136.064 66.5615 135.994 66.5807C135.924 66.5999 135.727 66.0719 135.554 65.4047Z" fill="#14142B"/>
<path d="M130.56 66.0004C130.56 65.3092 130.63 64.75 130.69 64.75C130.75 64.75 130.801 65.3116 130.801 66.0004C130.801 66.6892 130.74 67.2508 130.671 67.2508C130.601 67.2508 130.548 66.694 130.56 66.0004Z" fill="#14142B"/>
<path d="M125.598 65.2488C125.795 64.5864 126.001 64.0656 126.061 64.0824C126.121 64.0992 126.016 64.6512 125.821 65.316C125.626 65.9808 125.427 66.516 125.357 66.4824C125.288 66.4488 125.389 65.9112 125.598 65.2488Z" fill="#14142B"/>
<path d="M121.002 63.182C121.369 62.5988 121.708 62.15 121.761 62.1812C121.814 62.2124 121.564 62.7188 121.206 63.3092C120.848 63.8996 120.507 64.346 120.447 64.31C120.387 64.274 120.634 63.7676 121.002 63.182Z" fill="#14142B"/>
<path d="M117.137 59.9661C117.649 59.5005 118.098 59.1597 118.136 59.2053C118.175 59.2509 117.805 59.6685 117.3 60.1413C116.796 60.6141 116.351 60.9549 116.301 60.9045C116.25 60.8541 116.628 60.4317 117.137 59.9661Z" fill="#14142B"/>
<path d="M114.273 55.8331C114.891 55.5235 115.415 55.3147 115.441 55.3675C115.467 55.4203 114.997 55.7251 114.384 56.0467C113.771 56.3683 113.25 56.5771 113.217 56.5123C113.183 56.4475 113.659 56.1451 114.273 55.8331Z" fill="#14142B"/>
<path d="M112.625 51.0874C113.305 50.953 113.865 50.893 113.877 50.953C113.889 51.013 113.351 51.1786 112.676 51.3226C112.001 51.4666 111.439 51.5266 111.424 51.457C111.41 51.3874 111.953 51.2218 112.625 51.0874Z" fill="#14142B"/>
<path d="M112.32 46.08C113.01 46.1304 113.565 46.2216 113.562 46.2816C113.56 46.3416 112.995 46.3584 112.306 46.3176C111.617 46.2768 111.059 46.188 111.064 46.116C111.069 46.044 111.631 46.0176 112.32 46.08Z" fill="#14142B"/>
<path d="M113.366 41.1537C114.017 41.3937 114.526 41.6337 114.507 41.6841C114.487 41.7345 113.94 41.6049 113.286 41.3793C112.633 41.1537 112.124 40.9185 112.145 40.8513C112.167 40.7841 112.717 40.9185 113.366 41.1537Z" fill="#14142B"/>
<path d="M115.698 36.7016C116.26 37.1024 116.687 37.4672 116.659 37.5176C116.63 37.568 116.135 37.2896 115.566 36.8984C114.996 36.5072 114.569 36.1424 114.605 36.0824C114.641 36.0224 115.133 36.3008 115.698 36.7016Z" fill="#14142B"/>
<path d="M119.135 33.0341C119.57 33.5693 119.885 34.0349 119.839 34.0757C119.794 34.1165 119.392 33.7157 118.95 33.1853C118.508 32.6549 118.191 32.1917 118.246 32.1461C118.302 32.1005 118.701 32.4989 119.135 33.0341Z" fill="#14142B"/>
<path d="M123.435 30.4187C123.709 31.0523 123.889 31.5851 123.832 31.6187C123.774 31.6523 123.5 31.1531 123.217 30.5243C122.933 29.8955 122.753 29.3627 122.818 29.3243C122.883 29.2859 123.154 29.7875 123.435 30.4187Z" fill="#14142B"/>
<path d="M128.273 29.0572C128.367 29.7412 128.396 30.3028 128.333 30.3124C128.271 30.322 128.139 29.7748 128.036 29.0932C127.932 28.4116 127.903 27.8476 127.973 27.838C128.043 27.8284 128.18 28.3732 128.273 29.0572Z" fill="#14142B"/>
<path d="M133.304 29.0405C133.213 29.7245 133.09 30.2741 133.03 30.2669C132.97 30.2597 132.984 29.6957 133.066 29.0117C133.148 28.3277 133.27 27.7757 133.34 27.7853C133.41 27.7949 133.395 28.3541 133.304 29.0405Z" fill="#14142B"/>
<path d="M138.154 30.3668C137.882 31.0028 137.616 31.4972 137.558 31.4732C137.5 31.4492 137.671 30.914 137.933 30.2732C138.195 29.6324 138.464 29.1404 138.529 29.1692C138.593 29.198 138.428 29.7332 138.154 30.3668Z" fill="#14142B"/>
<path d="M142.468 32.9531C142.036 33.4931 141.647 33.8987 141.599 33.8603C141.551 33.8219 141.856 33.3491 142.281 32.8043C142.706 32.2595 143.093 31.8443 143.151 31.8995C143.208 31.9547 142.894 32.4155 142.468 32.9531Z" fill="#14142B"/>
<path d="M145.935 36.5965C145.373 36.9997 144.89 37.2877 144.854 37.2373C144.818 37.1869 145.238 36.8149 145.793 36.4021C146.348 35.9893 146.831 35.7037 146.874 35.7613C146.917 35.8189 146.497 36.1933 145.935 36.5965Z" fill="#14142B"/>
<path d="M148.296 41.041C147.647 41.281 147.095 41.4226 147.08 41.3674C147.066 41.3122 147.561 41.0626 148.212 40.8154C148.863 40.5682 149.399 40.4218 149.425 40.489C149.451 40.5562 148.945 40.801 148.296 41.041Z" fill="#14142B"/>
<path d="M149.379 45.9417C148.69 45.9969 148.128 45.9921 148.123 45.9417C148.118 45.8913 148.671 45.7809 149.358 45.7017C150.045 45.6225 150.609 45.6417 150.614 45.7137C150.619 45.7857 150.062 45.8865 149.379 45.9417Z" fill="#14142B"/>
<path d="M122.405 23.9277L122.331 23.9613L122.11 24.0501C121.917 24.1317 121.629 24.2301 121.262 24.3909C120.226 24.8234 119.22 25.3245 118.252 25.8909C117.637 26.2461 116.986 26.6709 116.301 27.1485C115.616 27.6261 114.917 28.1829 114.218 28.8093C111.149 31.512 108.805 34.9382 107.398 38.7765C107.069 39.6549 106.822 40.5141 106.608 41.3181C106.394 42.1221 106.25 42.8901 106.142 43.5909C105.967 44.6983 105.865 45.8157 105.837 46.9365C105.818 47.3349 105.837 47.6421 105.837 47.8509C105.837 47.9517 105.837 48.0285 105.837 48.0909C105.839 48.1181 105.839 48.1454 105.837 48.1725C105.834 48.1461 105.834 48.1197 105.837 48.0933C105.837 48.0333 105.837 47.9541 105.837 47.8533C105.837 47.6445 105.81 47.3373 105.822 46.9389C105.831 45.8141 105.92 44.6911 106.089 43.5789C106.19 42.8733 106.346 42.1077 106.541 41.2941C106.758 40.4294 107.019 39.5762 107.324 38.7381C108.723 34.8741 111.081 31.4282 114.177 28.7229C114.881 28.0965 115.597 27.5565 116.275 27.0645C116.952 26.5725 117.62 26.1645 118.242 25.8141C119.217 25.2537 120.231 24.7627 121.276 24.3453C121.643 24.1917 121.939 24.1053 122.136 24.0261L122.362 23.9493C122.376 23.9412 122.39 23.934 122.405 23.9277Z" fill="white"/>
<path d="M129.635 22.5269C129.388 22.5783 129.138 22.6112 128.886 22.6253C128.42 22.6733 127.781 22.7429 127.075 22.8341C126.368 22.9253 125.732 23.0213 125.27 23.0933C125.023 23.144 124.773 23.1761 124.521 23.1893C124.76 23.106 125.006 23.0451 125.256 23.0069C125.715 22.9133 126.351 22.8029 127.058 22.7117C127.764 22.6205 128.41 22.5629 128.879 22.5365C129.13 22.5096 129.383 22.5065 129.635 22.5269Z" fill="white"/>
<path d="M113.466 60.5063C113.466 60.5063 124.74 78.2807 142.228 69.1775C160.485 59.6735 150.396 37.8887 150.396 37.8887C150.396 37.8887 158.986 55.2503 141.19 66.5687C136.758 69.3887 131.932 69.3911 128.252 69.0215C118.847 68.0807 113.466 60.5063 113.466 60.5063Z" fill="#3B4A54"/>
<path d="M130.63 50.6818L118.205 59.9153L128.4 47.892L130.93 48.159L130.63 50.6818Z" fill="#4A9DF9"/>
<path d="M118.205 59.9142L128.859 49.6277L128.4 47.8915L118.205 59.9142ZM129.95 50.5042C128.654 49.9635 128.042 48.4752 128.584 47.1797C129.125 45.8842 130.615 45.2724 131.911 45.813C133.207 46.3537 133.819 47.8421 133.277 49.1375C132.736 50.433 131.246 51.0449 129.95 50.5042ZM128.584 47.1797C128.525 47.3792 128.478 47.5816 128.442 47.7864C128.366 48.3483 128.481 48.9191 128.768 49.408C129.197 50.138 129.966 50.6012 130.813 50.6378C131.051 50.651 131.29 50.6269 131.521 50.5668C131.765 50.5094 131.997 50.4131 132.211 50.2819C133.139 49.723 133.597 48.6275 133.342 47.5753C133.226 47.0983 132.973 46.6655 132.614 46.3298C131.596 45.3879 130.006 45.4491 129.063 46.4666C129.009 46.5251 128.958 46.5861 128.909 46.6496C128.788 46.8187 128.677 46.9948 128.577 47.1769C128.644 46.9769 128.743 46.789 128.87 46.6201C129.211 46.1425 129.709 45.7983 130.276 45.6461C130.666 45.5405 131.075 45.5285 131.47 45.6108C131.924 45.7059 132.345 45.9209 132.688 46.2333C132.876 46.4003 133.035 46.5961 133.161 46.8131C133.298 47.0364 133.398 47.2803 133.458 47.5351C133.732 48.6395 133.25 49.793 132.271 50.3746C132.047 50.5106 131.803 50.6108 131.548 50.6715C131.305 50.7323 131.054 50.7556 130.803 50.7406C130.34 50.7178 129.89 50.57 129.504 50.313C128.664 49.7568 128.229 48.7612 128.39 47.7674C128.423 47.5626 128.489 47.3644 128.584 47.1797ZM132.492 49.2096C131.906 50.0748 130.729 50.3014 129.864 49.7161C128.998 49.1308 128.772 47.9549 129.358 47.0897C129.944 46.2246 131.121 45.998 131.986 46.5832C132.852 47.1685 133.078 48.3444 132.492 49.2096Z" fill="#3B4A54"/>
<path d="M129.949 50.5055C128.653 49.9649 128.041 48.4764 128.583 47.1808C129.125 45.8851 130.615 45.2731 131.911 45.8138C133.207 46.3544 133.819 47.8428 133.277 49.1385C132.735 50.4342 131.245 51.0461 129.949 50.5055Z" fill="#FAFAFA"/>
<path d="M128.583 47.1821C128.525 47.3816 128.477 47.5841 128.441 47.7889C128.366 48.3508 128.481 48.9217 128.768 49.4105C129.196 50.1406 129.966 50.6038 130.812 50.6404C131.051 50.6535 131.29 50.6294 131.521 50.5693C131.765 50.5119 131.997 50.4156 132.21 50.2844C133.138 49.7253 133.596 48.6297 133.342 47.5774C133.226 47.1004 132.973 46.6675 132.614 46.3319C131.596 45.3899 130.006 45.4512 129.063 46.4688C129.009 46.5274 128.957 46.5884 128.909 46.6519C128.788 46.8211 128.677 46.9972 128.577 47.1793C128.644 46.9793 128.743 46.7913 128.869 46.6224C129.211 46.1448 129.709 45.8004 130.276 45.6482C130.666 45.5426 131.075 45.5305 131.47 45.6128C131.924 45.708 132.345 45.9229 132.688 46.2353C132.875 46.4023 133.035 46.5982 133.161 46.8152C133.298 47.0384 133.398 47.2824 133.458 47.5372C133.732 48.6416 133.249 49.7953 132.27 50.3771C132.046 50.5131 131.803 50.6133 131.548 50.674C131.304 50.7348 131.053 50.7581 130.803 50.7432C130.339 50.7204 129.89 50.5726 129.503 50.3157C128.664 49.7595 128.228 48.7637 128.39 47.7698C128.423 47.5651 128.489 47.3668 128.583 47.1821Z" fill="#14142B"/>
<path d="M132.492 49.2105C131.906 50.0758 130.729 50.3025 129.863 49.7172C128.998 49.132 128.772 47.956 129.358 47.0907C129.944 46.2253 131.121 45.9986 131.986 46.5839C132.852 47.1692 133.078 48.3452 132.492 49.2105Z" fill="#FFCD41"/>
<path d="M111.021 109.173H123.537L117.702 58.9316L111.021 109.173Z" fill="#DFDFDF"/>
<path d="M49.4379 58.9316L41.2896 109.766L110.822 110.671L117.702 58.9316H49.4379Z" fill="#FAFAFA"/>
<path d="M114.605 82.2194H45.7046L47.2036 72.8594H115.849L114.605 82.2194Z" fill="#EBEBEB"/>
<path d="M114.61 82.2255H45.6973L47.1987 72.8655H115.856L114.61 82.2255ZM45.7117 82.2135H114.6L115.842 72.8535H47.2107L45.7117 82.2135Z" fill="#14142B"/>
<path d="M49.4377 58.9316L47.2036 72.8588H115.849L117.702 58.9316H49.4377Z" fill="#4A9DF9"/>
<path d="M49.4473 58.9326L117.711 58.875H117.776V58.9398C115.765 74.0862 113.483 91.263 111.071 109.405V109.46H110.235L41.347 109.441H41.2798V109.381L49.4473 58.9326C49.3801 59.3502 46.2764 78.8406 41.4071 109.405L41.3567 109.345H110.219H110.999L110.939 109.397C113.354 91.2558 115.64 74.0814 117.666 58.935L117.721 58.9974L49.4473 58.9326Z" fill="#14142B"/>
<path d="M115.849 72.8593C115.849 72.8929 100.475 72.9217 81.5289 72.9217C62.5826 72.9217 47.2036 72.8929 47.2036 72.8593C47.2036 72.8257 62.5778 72.7969 81.5289 72.7969C100.48 72.7969 115.849 72.8233 115.849 72.8593Z" fill="#14142B"/>
<path d="M114.605 82.2187C114.605 82.2547 99.1494 82.281 80.0902 82.281C61.031 82.281 45.5728 82.2547 45.5728 82.2187C45.5728 82.1827 61.0238 82.1562 80.0902 82.1562C99.1567 82.1562 114.605 82.1851 114.605 82.2187Z" fill="#14142B"/>
<path d="M113.202 90.8319C113.202 90.8679 97.7489 90.8943 78.6897 90.8943C59.6305 90.8943 44.1626 90.8679 44.1626 90.8319C44.1626 90.7959 59.6137 90.7695 78.6801 90.7695C97.7465 90.7695 113.202 90.7983 113.202 90.8319Z" fill="#14142B"/>
<path d="M111.802 99.4472C111.802 99.4808 96.3457 99.5096 77.2865 99.5096C58.2273 99.5096 42.769 99.4808 42.769 99.4472C42.769 99.4136 58.2201 99.3848 77.2865 99.3848C96.3529 99.3848 111.802 99.4136 111.802 99.4472Z" fill="#14142B"/>
<path d="M51.0495 109.474C51.0159 109.474 52.277 101.266 53.8697 91.157C55.4624 81.0482 56.7764 72.8522 56.81 72.8594C56.8436 72.8666 55.5825 81.0626 53.9922 91.1762C52.4019 101.29 51.0855 109.479 51.0495 109.474Z" fill="#14142B"/>
<path d="M61.6746 109.474C61.6385 109.474 62.9021 101.266 64.4924 91.157C66.0827 81.0482 67.3991 72.8522 67.4351 72.8594C67.4711 72.8666 66.2076 81.0626 64.6149 91.1762C63.0222 101.29 61.6986 109.479 61.6746 109.474Z" fill="#14142B"/>
<path d="M71.5475 109.107C71.5139 109.107 72.7631 100.983 74.3365 90.9746C75.91 80.9666 77.2192 72.8522 77.2504 72.8594C77.2816 72.8666 76.0349 80.981 74.4614 90.9938C72.888 101.007 71.5788 109.111 71.5475 109.107Z" fill="#14142B"/>
<path d="M81.3127 109.397C81.279 109.397 82.5378 101.206 84.1257 91.1186C85.7135 81.0314 87.0275 72.8522 87.0612 72.8594C87.0948 72.8666 85.836 81.0458 84.2482 91.1378C82.6603 101.23 81.3463 109.402 81.3127 109.397Z" fill="#14142B"/>
<path d="M91.1257 109.397C91.092 109.397 92.3508 101.206 93.9387 91.1186C95.5265 81.0314 96.8405 72.8522 96.8742 72.8594C96.9078 72.8666 95.6514 81.0458 94.0636 91.1378C92.4757 101.23 91.1617 109.402 91.1257 109.397Z" fill="#14142B"/>
<path d="M100.932 109.44C100.898 109.44 102.159 101.239 103.75 91.1352C105.34 81.0312 106.654 72.8424 106.69 72.8496C106.726 72.8568 105.462 81.048 103.872 91.1544C102.282 101.261 100.965 109.454 100.932 109.44Z" fill="#14142B"/>
<path d="M94.7579 73.5124C95.9398 72.9892 96.6796 71.7604 96.9847 70.5052C97.2898 69.25 97.2418 67.9396 97.2874 66.646C97.333 65.3524 97.4868 64.0204 98.1474 62.9092C98.539 62.254 99.0891 61.7092 99.5239 61.078C99.9587 60.4468 100.281 59.6788 100.12 58.918L92.7256 58.9564L94.7579 73.5124Z" fill="#3B4A54"/>
<path d="M66.1115 85.118C66.1115 85.118 66.1355 85.0556 66.1859 84.9332C66.2657 84.7556 66.362 84.586 66.4742 84.4268C66.916 83.8103 67.5389 83.3464 68.2567 83.0996C68.7707 82.9139 69.3192 82.8419 69.8637 82.8884C70.5123 82.9513 71.1374 83.1642 71.6894 83.51C72.3267 83.9024 72.8653 84.4362 73.2629 85.07C73.7229 85.7776 73.9521 86.6101 73.9187 87.4532C73.8911 87.908 73.7498 88.3487 73.5079 88.7348C73.2542 89.1354 72.9167 89.476 72.5182 89.7332C71.6697 90.2768 70.6707 90.5382 69.6644 90.4796C69.1373 90.4513 68.6182 90.3388 68.1269 90.146C67.6158 89.9466 67.156 89.6348 66.7817 89.234C66.5958 89.0231 66.4389 88.7884 66.3157 88.5356C66.1982 88.2776 66.1172 88.0048 66.0754 87.7244C65.9957 87.1504 66.0457 86.5655 66.222 86.0132C66.5893 84.8615 67.3856 83.8948 68.4464 83.3132C69.5608 82.7017 70.896 82.6405 72.0618 83.1476C72.6578 83.3984 73.1795 83.7976 73.5776 84.3068C73.9761 84.8298 74.2252 85.4512 74.2982 86.1044C74.3814 86.7671 74.274 87.4398 73.9884 88.0436C73.8416 88.3468 73.6487 88.6252 73.4166 88.8692C73.1803 89.1097 72.9138 89.3188 72.6239 89.4908C71.4413 90.1415 70.0413 90.2718 68.7587 89.8508C68.1339 89.6591 67.5595 89.3312 67.0772 88.8908C66.5987 88.45 66.2717 87.8696 66.1427 87.2324C66.0072 86.606 66.0966 85.9518 66.3949 85.3844C66.5463 85.1048 66.7541 84.8596 67.0051 84.6644C67.2523 84.478 67.5281 84.333 67.8219 84.2348C68.3986 84.05 69.0038 83.9687 69.6091 83.9948C70.1984 83.9992 70.7845 84.0798 71.3531 84.2348C71.9152 84.3824 72.4344 84.6604 72.8689 85.046C73.2852 85.4341 73.5692 85.9427 73.6809 86.5004C73.7911 87.0395 73.7589 87.5977 73.5872 88.1204C73.4171 88.6244 73.1298 89.0809 72.7488 89.4524C72.0253 90.1592 71.0668 90.5761 70.0559 90.6236C69.5827 90.6486 69.1092 90.5802 68.6626 90.422C68.2338 90.2684 67.8483 90.014 67.5384 89.6804C67.2451 89.3622 67.0231 88.9849 66.8874 88.574C66.7536 88.1886 66.694 87.7816 66.712 87.374C66.7464 86.6195 67.0476 85.9016 67.5624 85.3484C68.0025 84.8672 68.5593 84.5077 69.1791 84.3044C69.6992 84.135 70.2505 84.0827 70.7934 84.1508C71.5436 84.244 72.2566 84.531 72.8617 84.9836C73.0188 85.0991 73.1675 85.2258 73.3061 85.3628C73.3998 85.4564 73.4455 85.5068 73.4455 85.5068C73.4455 85.5068 73.3926 85.4612 73.2989 85.3724C73.1562 85.24 73.0054 85.1166 72.8473 85.0028C72.241 84.5636 71.5323 84.2869 70.7886 84.1988C69.5985 84.0613 68.4157 84.5084 67.6153 85.3988C67.1139 85.94 66.8218 86.642 66.7913 87.3788C66.775 87.7784 66.8345 88.1773 66.9667 88.5548C67.1005 88.9535 67.3176 89.319 67.6033 89.6276C67.9043 89.9509 68.2783 90.1976 68.6939 90.3476C69.1296 90.4988 69.5906 90.5641 70.0511 90.5396C71.0377 90.4909 71.9722 90.082 72.6767 89.39C73.0448 89.0305 73.3222 88.5887 73.4863 88.1012C73.6506 87.596 73.6804 87.0568 73.5728 86.5364C73.4647 86.001 73.1915 85.5126 72.7921 85.1396C72.3695 84.7684 71.866 84.5005 71.3219 84.3572C70.7629 84.2044 70.1864 84.1237 69.6067 84.1172C69.0158 84.0949 68.4255 84.1763 67.8627 84.3572C67.2886 84.5329 66.8026 84.9198 66.503 85.4396C66.2186 85.9823 66.1336 86.6072 66.2628 87.206C66.3873 87.8183 66.7027 88.3753 67.1637 88.7972C67.6311 89.2288 68.1892 89.5501 68.7972 89.738C70.0454 90.1484 71.4081 90.0215 72.559 89.3876C72.8401 89.2228 73.0979 89.0209 73.3253 88.7876C73.5483 88.5534 73.734 88.2863 73.8755 87.9956C74.1519 87.4129 74.256 86.7635 74.1757 86.1236C74.107 85.4929 73.8687 84.8924 73.4863 84.386C73.1015 83.8938 72.597 83.5079 72.0209 83.2652C70.8897 82.7716 69.5933 82.8299 68.5113 83.4236C67.4805 83.9908 66.7065 84.9313 66.3493 86.0516C66.178 86.5876 66.1281 87.1549 66.2028 87.7124C66.246 87.9832 66.3267 88.2464 66.443 88.4948C66.5619 88.7375 66.712 88.9633 66.8898 89.1668C67.2521 89.5549 67.6969 89.8568 68.1918 90.05C68.6722 90.2399 69.1798 90.3517 69.6956 90.3812C70.6803 90.4415 71.6589 90.1895 72.4918 89.6612C73.2725 89.1839 73.7798 88.3643 73.8586 87.4532C73.8923 86.6286 73.6698 85.8138 73.222 85.1204C72.8334 84.4945 72.3056 83.9665 71.6798 83.5772C71.1376 83.2345 70.5236 83.0216 69.8854 82.9556C69.349 82.9048 68.8077 82.972 68.2999 83.1524C67.5886 83.3927 66.9681 83.8451 66.5223 84.4484C66.4072 84.6049 66.3075 84.7722 66.2244 84.9476C66.1427 85.058 66.1115 85.118 66.1115 85.118Z" fill="#4A9DF9"/>
<path d="M104.218 82.7461C104.218 82.7461 105.147 88.4917 104.206 92.1565L95.1157 91.9621C95.1157 91.9621 96.975 86.1109 95.7956 83.1853L104.218 82.7461Z" fill="#EBEBEB"/>
<path d="M104.177 82.5293C104.177 82.5293 104.117 89.7557 103.749 91.9613L94.6763 91.5317C94.6763 91.5317 95.4714 84.4277 95.1567 82.5293H104.177Z" fill="#FFCD41"/>
<path d="M96.4443 85.7448C96.4443 85.7784 97.8088 85.8072 99.4928 85.8096C101.177 85.812 102.544 85.788 102.544 85.7544C102.544 85.7208 101.179 85.692 99.4928 85.6896C97.8064 85.6872 96.4443 85.7112 96.4443 85.7448Z" fill="white"/>
<path d="M96.5308 87.2741C96.5308 87.3077 97.8952 87.3365 99.5792 87.3389C101.263 87.3413 102.63 87.3173 102.63 87.2837C102.63 87.2501 101.266 87.2213 99.5792 87.2189C97.8928 87.2165 96.5308 87.2405 96.5308 87.2741Z" fill="white"/>
<path d="M98.1572 88.6834C98.3244 88.7191 98.4955 88.7345 98.6665 88.729C98.9812 88.729 99.416 88.7458 99.8964 88.7482C100.377 88.7506 100.809 88.7482 101.124 88.7314C101.295 88.7383 101.466 88.7244 101.633 88.6906C101.466 88.6548 101.295 88.6404 101.124 88.6474C100.809 88.6354 100.377 88.6282 99.8964 88.6258C99.416 88.6234 98.9812 88.6258 98.6665 88.6426C98.4957 88.6356 98.3247 88.6495 98.1572 88.6834Z" fill="white"/>
<path d="M61.2688 99.3014C61.2688 99.3014 61.3457 105.198 59.8563 108.729L50.7783 107.183C50.7783 107.183 53.512 101.596 52.7674 98.4902L61.2688 99.3014Z" fill="#EBEBEB"/>
<path d="M61.2662 99.0814C61.2662 99.0814 60.1276 106.32 59.4309 108.48L50.4082 106.689C50.4082 106.689 52.2651 99.691 52.2411 97.7422L61.2662 99.0814Z" fill="#4A9DF9"/>
<path d="M53.1562 100.987C53.1562 101.021 54.4967 101.333 56.1662 101.683C57.8358 102.034 59.193 102.291 59.2002 102.259C59.2074 102.228 57.8598 101.914 56.1903 101.563C54.5207 101.213 53.1635 100.954 53.1562 100.987Z" fill="white"/>
<path d="M52.9258 102.52C52.9258 102.553 54.2662 102.863 55.9358 103.216C57.6053 103.569 58.9626 103.823 58.9698 103.792C58.977 103.761 57.6293 103.446 55.9598 103.096C54.2902 102.745 52.933 102.479 52.9258 102.52Z" fill="white"/>
<path d="M54.252 104.256C54.4059 104.323 54.5671 104.371 54.7324 104.4C55.0423 104.474 55.4723 104.573 55.9455 104.673C56.4188 104.774 56.8536 104.856 57.1682 104.913C57.3364 104.956 57.5091 104.977 57.6823 104.976C57.5226 104.909 57.3559 104.859 57.1851 104.829C56.8776 104.753 56.4476 104.654 55.9719 104.556C55.4963 104.457 55.0639 104.371 54.7516 104.316C54.588 104.276 54.4203 104.256 54.252 104.256Z" fill="white"/>
<path d="M72.9314 109.399C72.905 109.375 74.7979 107.393 77.1569 104.976C79.5159 102.559 81.4497 100.613 81.4809 100.637C81.5122 100.661 79.6144 102.643 77.2554 105.063C74.8964 107.482 72.9554 109.423 72.9314 109.399Z" fill="#4A9DF9"/>
<path d="M80.9333 109.397C80.9333 109.397 80.9021 109.371 80.8541 109.313L80.6523 109.073C80.4649 108.833 80.2151 108.524 79.91 108.145C79.283 107.362 78.3942 106.299 77.3636 105.169C76.3331 104.038 75.3554 103.057 74.6347 102.361L73.7795 101.521L73.5393 101.295C73.5114 101.27 73.4867 101.241 73.4648 101.211C73.4648 101.211 73.5009 101.23 73.5561 101.276L73.7964 101.485C74.0101 101.667 74.3128 101.938 74.6828 102.279C75.4178 102.961 76.4076 103.935 77.4429 105.068C78.4783 106.201 79.3647 107.276 79.9652 108.073C80.2727 108.471 80.5154 108.793 80.6859 109.033L80.8709 109.297C80.8959 109.327 80.9168 109.361 80.9333 109.397Z" fill="#4A9DF9"/>
<path d="M92.6728 91.8383C92.692 91.8647 90.8711 93.2591 88.601 94.9583C86.3309 96.6575 84.4764 97.9991 84.4548 97.9703C84.4332 97.9415 86.2564 96.5495 88.5265 94.8503C90.7966 93.1511 92.6512 91.8095 92.6728 91.8383Z" fill="#14142B"/>
<path d="M93.3792 97.7423C93.3624 97.7711 91.4262 96.5735 89.0552 95.0639C86.6842 93.5543 84.7841 92.3111 84.8009 92.2799C84.8177 92.2487 86.7539 93.4511 89.1249 94.9583C91.4959 96.4655 93.408 97.7135 93.3792 97.7423Z" fill="#14142B"/>
<path d="M72.6191 91.7445C72.6408 91.7709 70.7358 93.3981 68.3624 95.3805C65.989 97.3629 64.0384 98.9445 64.024 98.9181C64.0096 98.8917 65.9073 97.2645 68.2807 95.2845C70.6541 93.3045 72.5975 91.7181 72.6191 91.7445Z" fill="#14142B"/>
<path d="M73.0346 98.7049C72.9215 98.6384 72.8146 98.5621 72.7151 98.4769L71.8696 97.8193C71.1609 97.2577 70.188 96.4753 69.1166 95.6065C68.0452 94.7377 67.0819 93.9457 66.3877 93.3673L65.5685 92.6761C65.4648 92.5969 65.3682 92.5086 65.2803 92.4121C65.3929 92.4793 65.4996 92.5556 65.5998 92.6401L66.4429 93.2977C67.1516 93.8593 68.1245 94.6417 69.1959 95.5105C70.2673 96.3793 71.2306 97.1713 71.9272 97.7497L72.744 98.4385C72.8473 98.5201 72.9443 98.6091 73.0346 98.7049Z" fill="#14142B"/>
<path d="M64.1007 82.9121C64.081 82.9443 64.0568 82.9733 64.0287 82.9985L63.8077 83.2385C63.6131 83.4377 63.3272 83.7185 62.9669 84.0689C62.2462 84.7601 61.2445 85.7009 60.1035 86.7089C58.9624 87.7169 57.9054 88.5953 57.1295 89.2193C56.7403 89.5313 56.4233 89.7809 56.2022 89.9393L55.9452 90.1313C55.9166 90.1563 55.8842 90.1767 55.8491 90.1913C55.8491 90.1913 55.8755 90.1601 55.9284 90.1121L56.1686 89.9009L57.0694 89.1401C57.8334 88.4993 58.8807 87.6089 60.0194 86.6057C61.158 85.6025 62.1814 84.6713 62.902 83.9969L63.7692 83.1977L64.0095 82.9841C64.0368 82.9563 64.0674 82.9323 64.1007 82.9121Z" fill="#14142B"/>
<path d="M63.5457 90.2881C63.4437 90.1991 63.348 90.1028 63.2599 90.0001L62.508 89.1985C61.8594 88.5097 60.9898 87.5833 60.0313 86.5585L57.5282 83.9425L56.7691 83.1481C56.6732 83.0535 56.5841 82.9525 56.5024 82.8457C56.6113 82.9261 56.7126 83.0159 56.8051 83.1145C56.9925 83.2921 57.2615 83.5537 57.5906 83.8801C58.2489 84.5329 59.1473 85.4473 60.1202 86.4745C61.0931 87.5017 61.9579 88.4473 62.5728 89.1409C62.8803 89.4865 63.1278 89.7697 63.2935 89.9665C63.3872 90.0656 63.4718 90.1734 63.5457 90.2881Z" fill="#14142B"/>
<path d="M106.14 66.1775C104.444 66.1775 102.736 65.1143 101.837 63.4415C100.964 61.7757 100.693 59.8597 101.071 58.0175C101.568 55.6175 103.159 53.6495 105.124 53.0207C106.793 52.4855 109.777 52.7807 111.184 55.1351C111.855 56.2864 112.188 57.603 112.145 58.9343C112.119 59.332 111.775 59.6327 111.377 59.6063C110.979 59.5799 110.678 59.236 110.704 58.8383C110.717 57.7989 110.45 56.775 109.93 55.8743C108.845 54.0623 106.464 54.0983 105.546 54.3911C103.865 54.9287 102.789 56.7455 102.464 58.3079C102.153 59.8206 102.374 61.3941 103.091 62.7623C103.8 64.0823 105.234 64.9031 106.505 64.7087C106.899 64.654 107.263 64.9288 107.318 65.3226C107.372 65.7088 107.108 66.0673 106.723 66.1319C106.53 66.1619 106.335 66.177 106.14 66.1775Z" fill="#14142B"/>
<path d="M59.6135 66.1772C57.9151 66.1772 56.2096 65.114 55.3111 63.4412C54.437 61.7756 54.1655 59.8597 54.5424 58.0172C54.9628 55.9916 56.3849 53.6588 58.6262 53.0156C59.7067 52.7233 60.8526 52.7812 61.898 53.1812L61.3791 54.5252C60.6268 54.2396 59.8038 54.195 59.025 54.398C57.3722 54.878 56.296 56.7068 55.9645 58.3076C55.6532 59.8204 55.8747 61.3938 56.5915 62.762C57.3002 64.0844 58.7367 64.9028 60.0051 64.7084L60.2237 66.1316C60.0219 66.1628 59.8177 66.178 59.6135 66.1772Z" fill="#14142B"/>
<path d="M105.546 58.9707L104.883 62.5971H114.639L115.506 59.0067L105.546 58.9707Z" fill="#4A9DF9"/>
<path d="M62.0856 65.6046C62.087 66.461 61.3933 67.156 60.5362 67.1574C59.6791 67.1589 58.9834 66.4658 58.9819 65.6094C58.9805 64.7531 59.6743 64.0581 60.5314 64.0566C60.533 64.0566 60.5345 64.0566 60.5362 64.0566C61.3914 64.0578 62.0844 64.7502 62.0856 65.6046Z" fill="#14142B"/>
<path d="M108.571 65.6046C108.572 66.461 107.879 67.156 107.022 67.1574C106.164 67.1589 105.469 66.4658 105.467 65.6094C105.466 64.7531 106.16 64.0581 107.017 64.0566C107.018 64.0566 107.02 64.0566 107.022 64.0566C107.877 64.0578 108.57 64.7502 108.571 65.6046Z" fill="#14142B"/>
<path d="M82.5799 35.198L79.0594 44.5589L70.2033 44.6087L70.0447 46.161L82.3089 47.8451L85.7246 37.2889L82.5799 35.198Z" fill="#FFBE9D"/>
<path d="M86.9342 30.6949C86.9342 30.6949 83.4837 31.5285 82.3863 35.1807L85.7243 37.2911L86.9342 30.6949Z" fill="#4A9DF9"/>
<path d="M86.6811 48.4618C86.6811 48.4618 72.9212 47.8066 69.0032 50.8618C65.0852 53.917 66.9829 58.933 66.9829 58.933L89.1266 58.8754L91.082 47.6602L86.6811 48.4618Z" fill="#14142B"/>
<path d="M89.0234 55.862C88.9567 55.8637 88.8899 55.8589 88.8241 55.8476C88.6943 55.8332 88.5046 55.814 88.2595 55.7828C87.7791 55.7228 87.0584 55.622 86.1936 55.4756C83.9231 55.0897 81.6772 54.5713 79.4674 53.9228C78.175 53.5412 76.9523 53.1572 75.8233 52.8764C74.8266 52.6187 73.8073 52.4579 72.7796 52.3964C72.0864 52.3575 71.3907 52.3979 70.7065 52.5164C70.4663 52.5452 70.2813 52.6076 70.1516 52.6292C70.0875 52.6451 70.0226 52.6571 69.957 52.6652C70.018 52.6391 70.0817 52.6189 70.1468 52.6052C70.3275 52.5491 70.511 52.5035 70.6969 52.4684C71.3827 52.3299 72.083 52.2759 72.782 52.3076C73.8246 52.3573 74.8595 52.5109 75.8713 52.766C77.0075 53.0396 78.2327 53.4236 79.5203 53.8052C81.7181 54.4482 83.948 54.9762 86.2008 55.3868C87.068 55.5452 87.7719 55.658 88.2595 55.7348L88.8217 55.8236C88.8899 55.8308 88.9574 55.8435 89.0234 55.862Z" fill="#FFCD41"/>
<path d="M76.2343 52.8018C75.8521 52.4869 75.4447 52.2035 75.0164 51.9546C74.5674 51.7449 74.1023 51.5713 73.6255 51.4362C73.7735 51.4233 73.9224 51.4379 74.0651 51.4794C74.4163 51.555 74.7557 51.6777 75.074 51.8442C75.3918 52.0117 75.6859 52.2208 75.9484 52.4658C76.0637 52.5592 76.1605 52.6732 76.2343 52.8018Z" fill="#FFCD41"/>
<path d="M88.1395 78.3438L88.3245 84.1205L87.1618 88.7333C87.0859 89.0504 87.2819 89.3689 87.5993 89.4447C87.6135 89.4481 87.6279 89.4509 87.6423 89.4534C87.8306 89.4877 88.0242 89.4286 88.1612 89.2949C89.0356 88.4405 92.2449 85.2821 92.2041 84.8621C92.1609 84.3821 92.4131 78.7517 92.4131 78.7517L88.1395 78.3438Z" fill="#4A9DF9"/>
<path d="M87.6206 89.4629L92.1848 84.4805V84.7205C92.1875 84.9324 92.1142 85.1385 91.9782 85.3013C91.6155 85.7357 90.5849 86.9141 88.1611 89.2997C88.0203 89.4389 87.8193 89.4981 87.6254 89.4581L87.6206 89.4629Z" fill="white"/>
<path d="M90.9742 82.6262C90.8224 82.7373 90.7816 82.9464 90.8806 83.1062C90.9855 83.2555 91.1885 83.2975 91.3442 83.2022C91.5003 83.0865 91.5421 82.8708 91.4403 82.7054C91.3161 82.5592 91.098 82.5379 90.9478 82.6574" fill="white"/>
<path d="M88.9202 86.9239C88.8866 86.9407 88.7521 86.6407 88.4085 86.4799C88.1959 86.3964 87.9692 86.3559 87.7407 86.3599C87.7407 86.3455 87.808 86.2999 87.9425 86.2783C88.3064 86.2342 88.6629 86.4058 88.8554 86.7175C88.9226 86.8351 88.9322 86.9191 88.9202 86.9239Z" fill="#14142B"/>
<path d="M88.5141 87.704C88.3479 87.6132 88.1761 87.5331 88 87.464C87.8124 87.4308 87.6231 87.4085 87.4331 87.3968C87.6123 87.2816 87.8364 87.2609 88.0337 87.3416C88.3748 87.4328 88.5429 87.6872 88.5141 87.704Z" fill="#14142B"/>
<path d="M89.677 85.9215C89.4315 85.7598 89.1747 85.6162 88.9083 85.4919C88.627 85.406 88.3395 85.3417 88.0483 85.2999C88.6662 85.1706 89.3028 85.4134 89.677 85.9215Z" fill="#14142B"/>
<path d="M89.7683 84.1654C89.7539 84.2014 89.432 84.0694 89.0164 84.0598C88.6008 84.0502 88.2717 84.151 88.2573 84.115C88.732 83.8536 89.3121 83.8728 89.7683 84.1654Z" fill="#14142B"/>
<path d="M89.7561 82.4673C89.5031 82.3879 89.2403 82.3435 88.9753 82.3353C88.7125 82.3658 88.4555 82.4328 88.2114 82.5345C88.2114 82.5225 88.2643 82.4481 88.3964 82.3713C88.755 82.169 89.1891 82.1503 89.5639 82.3209C89.696 82.3857 89.7657 82.4529 89.7561 82.4673Z" fill="#14142B"/>
<path d="M88.9828 82.0119C88.9679 81.9399 88.9679 81.8655 88.9828 81.7935C89.0008 81.5929 89.0587 81.3978 89.1533 81.2199C89.2096 81.0829 89.3102 80.9689 89.4392 80.8959C89.5307 80.8551 89.6379 80.8751 89.7083 80.9463C89.7702 81.0183 89.8034 81.1105 89.8019 81.2055C89.7786 81.6044 89.4772 81.9315 89.0813 81.9879C88.6892 82.0314 88.3099 81.8343 88.1204 81.4887C88.0731 81.4026 88.0661 81.2999 88.1012 81.2079C88.1473 81.1201 88.2427 81.0695 88.3414 81.0807C88.4841 81.1112 88.6167 81.1782 88.7257 81.2751C88.8833 81.3999 89.0183 81.5509 89.1245 81.7215C89.167 81.7818 89.1978 81.8492 89.2158 81.9207C89.063 81.7038 88.8795 81.5106 88.6705 81.3471C88.573 81.2672 88.4577 81.212 88.3342 81.1863C88.2794 81.177 88.2251 81.2043 88.1997 81.2535C88.1824 81.3159 88.191 81.3824 88.2237 81.4383C88.3957 81.7304 88.7224 81.8953 89.0597 81.8607C89.3974 81.8178 89.6588 81.5444 89.6866 81.2055C89.6898 81.1398 89.6693 81.0752 89.629 81.0231C89.5917 80.9809 89.5312 80.9682 89.48 80.9919C89.3746 81.0563 89.291 81.1508 89.2398 81.2631C89.112 81.4962 89.0251 81.7496 88.9828 82.0119Z" fill="#14142B"/>
<path d="M91.0702 47.6599C91.0702 47.6599 85.1199 58.8991 85.0383 60.8599C84.9566 62.8207 85.0383 80.8951 85.0383 80.8951H94.2484C94.4886 80.8951 95.8699 72.7519 95.5888 70.8775C95.3077 69.0031 94.3156 58.9279 94.3156 58.9279H99.6149C99.6149 58.9279 101.068 57.3751 101.015 55.4047C100.984 54.3175 100.273 52.0951 99.5741 50.9167C99.1201 50.1607 96.211 46.2031 96.211 46.2031L91.0702 47.6599Z" fill="#14142B"/>
<path d="M90.6715 48.4221C90.665 48.4447 90.6562 48.4663 90.6451 48.4869C90.6235 48.5349 90.5947 48.5949 90.5586 48.6693L90.2127 49.3701C90.0566 49.6749 89.8716 50.0445 89.6554 50.4741L89.3095 51.1629L88.9467 51.9477L87.1619 55.8093C86.8232 56.5293 86.4677 57.2997 86.0977 58.0893L85.538 59.2893C85.3571 59.7043 85.2202 60.137 85.1296 60.5805C85.0383 61.0252 84.991 61.4779 84.9879 61.9317C84.9735 62.3805 84.9639 62.8245 84.9567 63.2589C84.9567 64.1325 84.9398 64.9725 84.9422 65.7741C84.9422 67.3773 84.9615 68.8221 84.9783 70.0341C84.9951 71.2461 85.0095 72.2181 85.0215 72.9141C85.0215 73.2453 85.0215 73.5069 85.0215 73.6941C85.0215 73.7781 85.0215 73.8453 85.0215 73.8981C85.0215 73.9509 85.0215 73.9677 85.0215 73.9677C85.0174 73.9447 85.0174 73.9212 85.0215 73.8981C85.0215 73.8453 85.0215 73.7781 85.0215 73.6965C85.0215 73.5069 85.0023 73.2477 84.9879 72.9141C84.9639 72.2373 84.9326 71.2557 84.9062 70.0341C84.8798 68.8125 84.851 67.3797 84.8438 65.7741C84.8438 64.9725 84.8438 64.1301 84.8438 63.2589C84.8438 62.8221 84.8582 62.3781 84.875 61.9269C84.8774 61.4659 84.9247 61.006 85.0167 60.5541C85.1097 60.1024 85.2497 59.6616 85.4347 59.2389L85.9968 58.0389L87.0682 55.7637L88.8891 51.9117L89.259 51.1293C89.3863 50.8893 89.4993 50.6493 89.6146 50.4453L90.1887 49.3509C90.3448 49.0557 90.4697 48.8253 90.5562 48.6597C90.5971 48.5877 90.6307 48.5301 90.6547 48.4821C90.6787 48.4341 90.6691 48.4197 90.6715 48.4221Z" fill="#FFCD41"/>
<path d="M88.7447 52.2495C88.5538 51.7926 88.3933 51.3236 88.2643 50.8455C88.0957 50.3799 87.9585 49.9038 87.8535 49.4199C88.0774 49.8634 88.2547 50.3293 88.382 50.8095C88.5521 51.2758 88.6736 51.7582 88.7447 52.2495Z" fill="#FFCD41"/>
<path d="M95.6078 70.5258C95.5924 70.485 95.5828 70.442 95.5789 70.3986C95.5676 70.3009 95.5508 70.1785 95.5285 70.0314C95.4852 69.693 95.43 69.2322 95.3603 68.673C95.2282 67.5114 95.0504 65.9346 94.8535 64.1922C94.6565 62.4498 94.4955 60.8538 94.397 59.7042C94.3514 59.1426 94.313 58.6818 94.2841 58.3434C94.2841 58.1922 94.2649 58.0698 94.2577 57.9714C94.2546 57.9282 94.2546 57.885 94.2577 57.8418C94.2728 57.8826 94.2817 57.9256 94.2841 57.969C94.2961 58.0674 94.313 58.1898 94.3322 58.3386C94.3706 58.677 94.4235 59.1354 94.4859 59.697C94.6132 60.8586 94.7862 62.4378 94.9664 64.1802C95.1465 65.9226 95.3171 67.4994 95.4468 68.6634C95.4997 69.225 95.5453 69.6858 95.5765 70.0242C95.5885 70.173 95.5982 70.2978 95.6054 70.3962C95.6099 70.4392 95.6106 70.4826 95.6078 70.5258Z" fill="#FFCD41"/>
<path d="M92.1944 17.4061C91.9519 16.4663 92.6734 15.4605 93.6072 15.2482C94.5411 15.0358 95.5567 15.5244 96.0831 16.3401C96.5852 17.1727 96.7183 18.1765 96.4503 19.1108C96.2757 19.74 95.8989 20.3978 95.2615 20.5136C94.6241 20.6294 94.0801 20.1922 93.607 19.7861" fill="#14142B"/>
<path d="M85.9734 22.853C83.6175 18.8711 87.9317 16.2875 90.4731 16.7232C92.8645 17.1337 93.9786 18.184 94.5258 19.695C95.1101 21.2072 95.202 22.865 94.7883 24.4322C94.5651 25.1944 94.104 25.9916 93.3303 26.1652" fill="#14142B"/>
<path d="M92.2004 18.8892C92.6123 18.8883 92.956 19.2038 92.9899 19.6141L93.6764 30.3112C93.7935 31.5708 92.0327 32.4766 90.6803 32.5909C89.3184 32.7062 89.202 32.0427 89.0461 30.85C88.8025 28.8556 88.7225 28.1037 88.7238 28.1156C88.7251 28.1276 86.9739 28.0114 86.3796 25.8079C86.0819 24.7122 85.9447 22.8779 85.8789 21.3739C85.8219 20.021 86.537 18.275 87.8931 18.2641L92.2004 18.8892Z" fill="#FFBE9D"/>
<path d="M86.893 22.556C86.907 22.7126 87.0441 22.8291 87.2011 22.8178C87.3535 22.8137 87.4741 22.687 87.47 22.5347C87.4699 22.5318 87.4696 22.5291 87.4696 22.5262C87.4544 22.3702 87.3182 22.2543 87.1615 22.2644C87.0091 22.2685 86.8885 22.3952 86.8926 22.5476C86.8927 22.5505 86.893 22.5531 86.893 22.556Z" fill="#14142B"/>
<path d="M86.3835 22.2853C86.4232 22.3173 86.6259 22.134 86.9341 22.1013C87.2422 22.0687 87.488 22.1996 87.5174 22.1578C87.5468 22.1161 87.4894 22.0763 87.3815 22.0153C87.2376 21.9369 87.0731 21.9046 86.9103 21.9228C86.7493 21.9381 86.5978 22.0061 86.4791 22.1158C86.3911 22.1975 86.365 22.2703 86.3835 22.2853Z" fill="#14142B"/>
<path d="M89.9193 22.2351C89.9338 22.3875 90.0644 22.5028 90.2178 22.4979C90.3702 22.4938 90.4908 22.3671 90.4867 22.2148C90.4866 22.2119 90.4863 22.2092 90.4863 22.2064C90.4711 22.0503 90.3349 21.9344 90.1783 21.9445C90.0266 21.9538 89.9109 22.0836 89.9193 22.2351Z" fill="#14142B"/>
<path d="M89.4425 22.0191C89.4822 22.0511 89.6825 21.8681 89.9907 21.8354C90.2988 21.8027 90.5446 21.9336 90.5743 21.8943C90.6039 21.8549 90.546 21.8103 90.4381 21.7494C90.2944 21.6706 90.1296 21.6381 89.9669 21.6568C89.8063 21.6739 89.6553 21.7415 89.5357 21.8498C89.4334 21.9331 89.4147 22.0075 89.4425 22.0191Z" fill="#14142B"/>
<path d="M88.5536 24.433C88.3854 24.4001 88.2138 24.3874 88.0425 24.3954C87.9636 24.4038 87.8847 24.388 87.8672 24.3368C87.8509 24.2545 87.8605 24.1692 87.8943 24.0925C87.9481 23.8937 88.0032 23.6852 88.0692 23.4658C88.2313 22.9333 88.3512 22.3886 88.4273 21.8372C88.2208 22.3551 88.0571 22.8892 87.9378 23.4338L87.7778 24.0638C87.7385 24.1646 87.7359 24.2759 87.7702 24.3784C87.8003 24.432 87.853 24.4691 87.9137 24.4791C87.9586 24.4859 88.0042 24.4876 88.0495 24.484C88.2189 24.488 88.3883 24.4708 88.5536 24.433Z" fill="#14142B"/>
<path d="M88.7301 28.1123C89.7927 28.0192 90.808 27.6316 91.6619 26.9929C91.6619 26.9929 91.095 28.6126 88.8273 28.6403L88.7301 28.1123Z" fill="#EB996E"/>
<path d="M88.764 25.1626C88.8683 25.0004 89.0485 24.9029 89.2414 24.9044C89.3814 24.9014 89.5164 24.9559 89.6149 25.0555C89.7102 25.1521 89.7354 25.2977 89.6779 25.4206C89.5885 25.5455 89.4319 25.6033 89.2828 25.5663C89.1301 25.5301 88.9866 25.4632 88.8609 25.3696C88.8237 25.3487 88.7903 25.3211 88.7629 25.2882C88.7365 25.2558 88.7317 25.2109 88.7507 25.1737" fill="#EB996E"/>
<path d="M89.4889 24.5499C89.4388 24.5552 89.4717 24.8872 89.2105 25.1563C88.9493 25.4253 88.5869 25.4251 88.5886 25.4635C88.5903 25.502 88.6743 25.5196 88.8348 25.5075C89.0323 25.4887 89.217 25.4018 89.3569 25.2615C89.4897 25.1265 89.5656 24.9456 89.5689 24.7562C89.5573 24.6247 89.5102 24.5452 89.4889 24.5499Z" fill="#14142B"/>
<path d="M89.2366 21.493C89.2766 21.5732 89.5828 21.4997 89.9507 21.5066C90.3186 21.5135 90.6226 21.5779 90.6625 21.4988C90.6802 21.4607 90.6192 21.3875 90.4933 21.3164C90.3251 21.2318 90.1391 21.1887 89.9509 21.1903C89.7628 21.1868 89.5767 21.229 89.4083 21.313C89.2801 21.3797 89.2204 21.4536 89.2366 21.493Z" fill="#14142B"/>
<path d="M86.4027 21.3756C86.4652 21.4414 86.6702 21.3472 86.9282 21.3199C87.1861 21.2925 87.411 21.317 87.4485 21.2382C87.4662 21.2001 87.4371 21.1307 87.3227 21.0777C87.188 21.0084 87.0349 20.9831 86.8851 21.0057C86.7349 21.0248 86.5942 21.0894 86.4821 21.1909C86.3986 21.2698 86.3752 21.3447 86.4027 21.3756Z" fill="#14142B"/>
<path d="M88.935 17.4103C88.1777 17.5299 87.463 17.838 86.8566 18.3063C86.1622 18.7649 85.679 19.4803 85.5128 20.2952C85.4668 20.4661 85.4931 20.6482 85.5858 20.7992C85.7519 20.9691 86.0155 20.997 86.2135 20.8654C86.4043 20.7339 86.5597 20.5575 86.666 20.3516C86.8436 20.8513 87.3929 21.1127 87.8928 20.9355C88.241 20.8119 88.4875 20.5 88.5266 20.1328C88.6098 20.5759 89.0268 20.8752 89.4732 20.8122C89.9091 20.7277 90.2529 20.3924 90.3486 19.9592C90.4424 20.3417 90.6165 20.7001 90.8589 21.0106C91.112 21.3256 91.5354 21.4487 91.9182 21.3184C91.873 21.6568 91.9147 22.0014 92.0391 22.3194C92.1921 22.6218 93.241 27.9634 93.5494 27.8197C93.8577 27.676 93.2607 22.1779 93.2983 21.8505C93.3919 21.2202 93.4049 20.5804 93.3373 19.9467C93.238 18.5935 92.1715 17.5116 90.8193 17.3918C90.1634 17.3128 89.4999 17.3222 88.8466 17.4197" fill="#14142B"/>
<path d="M94.475 26.7529C94.475 26.7529 94.455 26.7695 94.409 26.7913C94.3445 26.8229 94.2766 26.847 94.2066 26.8634C93.5378 27.0211 92.8378 26.7796 92.4091 26.2428C92.1196 25.8439 91.9646 25.3633 91.9661 24.8705C91.9473 24.3536 92.0169 23.8731 92.0261 23.4377C92.0395 23.0506 92.0324 22.663 92.0041 22.2767C91.969 21.9473 91.9408 21.6824 91.921 21.4962C91.9006 21.4021 91.8904 21.3061 91.8906 21.2098C91.929 21.3006 91.956 21.396 91.9714 21.4933C92.0252 21.7514 92.066 22.0121 92.0932 22.2745C92.134 22.6631 92.1507 23.054 92.1428 23.4447C92.137 23.8894 92.0748 24.3715 92.0915 24.8693C92.0896 25.3373 92.2326 25.7942 92.5011 26.1776C92.7319 26.4809 93.06 26.6959 93.4304 26.7863C93.6799 26.8523 93.9405 26.8643 94.1948 26.8212C94.3774 26.7898 94.4713 26.7412 94.475 26.7529Z" fill="#14142B"/>
<path d="M88.1143 17.2064C88.2186 17.3607 88.2786 17.5404 88.2879 17.7263C88.4056 18.6661 87.7411 19.5239 86.8014 19.6458C86.6197 19.6829 86.431 19.6694 86.2563 19.607C86.254 19.5855 86.4655 19.6211 86.7865 19.5509C87.6596 19.398 88.2743 18.6085 88.2081 17.7251C88.1815 17.4068 88.0933 17.2134 88.1143 17.2064Z" fill="#FFCD41"/>
<path d="M88.7243 19.8119C88.7363 19.8106 88.7239 19.9665 88.5696 20.1518C88.361 20.3838 88.0668 20.5204 87.7548 20.5303C87.4517 20.5354 87.1519 20.467 86.8808 20.3308C86.6744 20.2295 86.5594 20.1475 86.5664 20.1226C86.6859 20.1467 86.8021 20.1855 86.9121 20.2381C87.178 20.3423 87.4616 20.3943 87.7472 20.3911C88.0296 20.3778 88.2977 20.2637 88.5029 20.0696C88.6656 19.9413 88.709 19.8039 88.7243 19.8119Z" fill="#FFCD41"/>
<path d="M94.0621 18.5533C94.1 18.7571 94.1074 18.9654 94.0844 19.1713C94.0699 19.6771 93.9317 20.1714 93.6821 20.6115C93.4164 21.0541 92.9795 21.3676 92.4749 21.478C92.3228 21.5081 92.1664 21.509 92.0139 21.481C91.9079 21.4608 91.8544 21.4351 91.856 21.4277C92.0568 21.4422 92.2584 21.4297 92.4559 21.3907C92.9228 21.2633 93.323 20.9617 93.5739 20.5481C93.8118 20.123 93.9551 19.6518 93.9945 19.1663C94.0043 18.9608 94.027 18.7562 94.0621 18.5533Z" fill="#FFCD41"/>
<path d="M94.5881 19.5945C94.6166 19.6535 94.6354 19.7167 94.6442 19.7816C94.6787 19.9537 94.7014 20.128 94.7118 20.3031C94.7616 20.8919 94.6116 21.4801 94.2856 21.9728C94.101 22.2443 93.846 22.4606 93.5479 22.5989C93.3033 22.7085 93.0344 22.7537 92.7672 22.7298C92.5878 22.7148 92.4137 22.6628 92.2557 22.5764C92.1475 22.513 92.0987 22.4627 92.103 22.4574C92.3123 22.5613 92.5395 22.6241 92.7724 22.6424C93.0226 22.6516 93.2714 22.6014 93.4983 22.4955C93.7738 22.3594 94.0098 22.1548 94.1838 21.9015C94.4921 21.4276 94.6463 20.8701 94.625 20.3051C94.6173 19.869 94.5668 19.5991 94.5881 19.5945Z" fill="#FFCD41"/>
<path d="M63.7546 48.9972L59.3945 58.9596H65.3977L69.6736 48.918L63.7546 48.9972Z" fill="#FFCD41"/>
<path d="M60.5838 38.4006L65.5011 48.063H81.0099L80.3829 46.8006L75.8907 46.6662L72.2274 38.5206C72.0001 38.0137 71.4959 37.6876 70.9398 37.6878H61.021C60.7558 37.6782 60.5334 37.8853 60.5237 38.1503C60.5206 38.2377 60.5413 38.3243 60.5838 38.4006Z" fill="#DFDFDF"/>
<path d="M68.3498 42.7334C68.3498 43.0608 68.0841 43.3262 67.7564 43.3262C67.4288 43.3262 67.1631 43.0608 67.1631 42.7334C67.1631 42.4061 67.4288 42.1406 67.7564 42.1406C68.0836 42.1418 68.3486 42.4065 68.3498 42.7334Z" fill="#14142B"/>
<path d="M63.7041 48.084H82.6624V49.008H63.7041V48.084Z" fill="#FFCD41"/>
<path d="M76.8228 48.5469L82.5905 58.9701H85.3482L85.9488 57.7773L86.5013 56.5221L82.6625 49.0077L76.8228 48.5469Z" fill="#FFCD41"/>
<path d="M86.8446 30.6758C86.8446 30.6758 84.5025 35.9222 84.5913 38.7878C84.6226 39.7838 85.276 42.3878 85.276 42.3878L86.4939 48.8342C86.4939 48.8342 95.8169 47.5742 96.0235 47.5742C96.2301 47.5742 95.7112 42.2822 95.7112 42.2822L97.2318 32.1134C97.2318 32.1134 96.5352 30.7286 93.3883 30.2486C91.5025 29.9534 86.8446 30.6758 86.8446 30.6758Z" fill="#4A9DF9"/>
<path d="M85.9607 33.7207C85.9823 33.7327 85.7373 34.1239 85.4418 34.8007C85.2705 35.1969 85.1262 35.6042 85.0094 36.0199C84.8691 36.5292 84.767 37.0483 84.7043 37.5727C84.6491 38.0981 84.6323 38.6265 84.6539 39.1543C84.6758 39.5851 84.7262 40.0142 84.8052 40.4383C84.9398 41.1583 85.0935 41.5999 85.0695 41.6071C85.019 41.5116 84.9789 41.411 84.9494 41.3071C84.9066 41.1883 84.8696 41.0673 84.8389 40.9447C84.8004 40.8007 84.75 40.6399 84.7164 40.4647C84.6263 40.0375 84.5669 39.6043 84.5386 39.1687C84.5098 38.634 84.5235 38.0981 84.5794 37.5655C84.6433 37.0337 84.7502 36.5081 84.8989 35.9935C85.0224 35.5752 85.1773 35.1669 85.3626 34.7719C85.4301 34.6185 85.5055 34.4688 85.5884 34.3231C85.6458 34.2103 85.7092 34.1004 85.7781 33.9943C85.8295 33.8971 85.8908 33.8054 85.9607 33.7207Z" fill="#14142B"/>
<path d="M87.9785 30.628L88.113 29.188C88.1435 28.8782 88.402 28.6406 88.7136 28.636L93.3138 28.5664C93.6033 28.5631 93.8459 28.7844 93.8688 29.0728L93.9865 30.6256C93.6014 31.4412 92.9499 32.1014 92.1392 32.4976C90.7867 33.1528 88.6848 33.1744 88.6848 33.1744L87.9785 30.628Z" fill="#4A9DF9"/>
<path d="M89.1821 28.6479C89.1966 28.6479 89.1293 28.7415 89.1005 28.8879C89.0745 29.0998 89.0745 29.3144 89.1005 29.5263C89.1408 29.8354 89.1408 30.1484 89.1005 30.4575C89.0178 30.1565 88.9758 29.8457 88.9756 29.5335C88.9434 29.3112 88.9532 29.0849 89.0044 28.8663C89.0837 28.7007 89.1749 28.6359 89.1821 28.6479Z" fill="#14142B"/>
<path d="M90.2849 30.4284C90.2047 30.1344 90.1657 29.8308 90.1696 29.526C90.1518 29.3104 90.1518 29.0935 90.1696 28.878C90.1936 28.7052 90.2633 28.6164 90.2777 28.638C90.2921 28.6596 90.2561 28.7388 90.2585 28.8972C90.2609 29.0556 90.2849 29.2812 90.2849 29.5212C90.3252 29.8221 90.3252 30.1274 90.2849 30.4284Z" fill="#14142B"/>
<path d="M91.6661 30.3905C91.5667 30.1104 91.5061 29.8181 91.486 29.5217C91.4266 29.2279 91.4081 28.9277 91.4307 28.6289C91.5311 28.9111 91.5917 29.2059 91.6109 29.5049C91.6692 29.7963 91.688 30.0941 91.6661 30.3905Z" fill="#14142B"/>
<path d="M92.8577 30.4807C92.7479 30.1723 92.6895 29.848 92.6847 29.5207C92.6386 29.1943 92.6467 28.8628 92.7087 28.5391C92.7717 28.8554 92.8053 29.1767 92.8096 29.4991C92.8562 29.824 92.8723 30.1526 92.8577 30.4807Z" fill="#14142B"/>
<path d="M93.7704 35.9805C93.5854 37.5957 93.7079 40.3797 94.2797 41.9037L96.9653 37.4709L93.7704 35.9805Z" fill="#3B4A54"/>
<path d="M87.952 33.5671C87.6829 33.4107 87.4357 33.2194 87.2169 32.9983C86.9702 32.808 86.7504 32.5853 86.5635 32.3359C87.0792 32.6825 87.5462 33.0967 87.952 33.5671Z" fill="#FAFAFA"/>
<path d="M87.2384 36.3438C87.0501 36.5372 86.8317 36.6992 86.5922 36.8237C86.3724 36.9831 86.1293 37.1077 85.8716 37.1934C86.2792 36.8432 86.7388 36.5583 87.2336 36.3485L87.2384 36.3438Z" fill="#FAFAFA"/>
<path d="M90.1864 37.0292C90.1436 36.6881 90.1436 36.343 90.1864 36.002C90.188 35.659 90.2301 35.3175 90.3113 34.9844C90.3533 35.3247 90.3533 35.6689 90.3113 36.0092C90.3103 36.3529 90.2685 36.6953 90.1864 37.0292Z" fill="#FAFAFA"/>
<path d="M93.0521 39.8052C92.813 39.5811 92.5899 39.3404 92.3842 39.0852C92.1481 38.8604 91.9273 38.6199 91.7236 38.3652C92.0119 38.5323 92.2668 38.7512 92.4755 39.0108C92.7133 39.2396 92.9084 39.5084 93.0521 39.8052Z" fill="#FAFAFA"/>
<path d="M93.4555 34C93.2494 34.2143 93.014 34.3984 92.7565 34.5472C92.5206 34.7286 92.2611 34.8772 91.9854 34.9888C92.1922 34.7742 92.4283 34.5899 92.6868 34.4416C92.9225 34.2611 93.1809 34.1126 93.4555 34Z" fill="#FAFAFA"/>
<path d="M90.8661 31.9004C90.6381 32.1219 90.3811 32.3117 90.1022 32.4644C89.8463 32.6535 89.5669 32.8085 89.271 32.9252C89.4992 32.7032 89.7562 32.5129 90.0349 32.3588C90.2917 32.1718 90.5708 32.018 90.8661 31.9004Z" fill="#FAFAFA"/>
<path d="M93.2011 32.7349C93.0437 32.5026 92.9207 32.2486 92.8359 31.9813C92.7177 31.7269 92.6368 31.4571 92.5957 31.1797C92.755 31.4118 92.8782 31.6666 92.9608 31.9357C93.0805 32.1886 93.1614 32.4579 93.2011 32.7349Z" fill="#FAFAFA"/>
<path d="M86.9959 40.4806C86.8001 40.2096 86.6387 39.9154 86.5154 39.6046C86.3545 39.3113 86.2303 38.9993 86.1455 38.6758C86.3413 38.9467 86.5027 39.241 86.626 39.5518C86.7874 39.8448 86.9116 40.1568 86.9959 40.4806Z" fill="#FAFAFA"/>
<path d="M90.5251 44.2661C90.2993 44.0612 90.1031 43.8262 89.9414 43.5677C89.7485 43.332 89.5871 43.0721 89.4609 42.7949C89.6872 43.0001 89.8844 43.2351 90.0471 43.4933C90.2409 43.728 90.4019 43.988 90.5251 44.2661Z" fill="#FAFAFA"/>
<path d="M93.441 42.6777C93.1938 42.8388 92.9253 42.9648 92.6435 43.0521C92.3763 43.1781 92.0924 43.2645 91.8003 43.3089C92.3141 43.0212 92.8666 42.8085 93.441 42.6777Z" fill="#FAFAFA"/>
<path d="M86.2563 45.7457C86.3717 45.2928 86.566 44.864 86.8305 44.4785C86.7899 44.7108 86.7084 44.9343 86.5903 45.1385C86.5155 45.3588 86.4024 45.5645 86.2563 45.7457Z" fill="#FAFAFA"/>
<path d="M83.9957 34.9C83.8568 34.7243 83.7732 34.5112 83.7554 34.288C83.6988 34.0718 83.7088 33.8433 83.7843 33.6328C83.8338 33.8409 83.8659 34.0528 83.8804 34.2664C83.9359 34.4743 83.9745 34.6859 83.9957 34.9Z" fill="#FAFAFA"/>
<path d="M88.0098 43.3165C87.7533 43.2491 87.5099 43.1397 87.2891 42.9925C87.0499 42.8841 86.8294 42.7381 86.6357 42.5605C86.8918 42.6292 87.1352 42.7386 87.3564 42.8845C87.5947 42.9949 87.815 43.1404 88.0098 43.3165Z" fill="#FAFAFA"/>
<path d="M90.3279 39.3184C89.934 39.7897 89.4763 40.204 88.9683 40.5496C89.1506 40.3012 89.3656 40.0784 89.6073 39.8872C89.8203 39.6656 90.063 39.4744 90.3279 39.3184Z" fill="#FAFAFA"/>
<path d="M88.9082 39.2441C89.0247 40.0808 89.3983 40.8605 89.9772 41.4761C90.5777 42.0617 91.5074 42.3569 92.2881 42.0521C92.4613 42.0046 92.6002 41.8755 92.6605 41.7065C92.6876 41.4956 92.562 41.2947 92.3602 41.2265C92.1656 41.1641 91.9617 41.1349 91.7572 41.1401C90.5729 41.0624 89.5131 40.3779 88.9562 39.3305" fill="#3B4A54"/>
<path d="M92.0312 41.1779C92.0312 41.1779 91.976 41.1971 91.8703 41.2067C91.7218 41.2218 91.5719 41.2218 91.4235 41.2067C91.2027 41.1807 90.986 41.1291 90.7773 41.0531C90.2622 40.868 89.8051 40.551 89.4512 40.1339C89.3076 39.9647 89.1844 39.7796 89.0837 39.5819C89.0128 39.4501 88.9573 39.3109 88.9179 39.1667C88.8987 39.1153 88.8882 39.0608 88.8867 39.0059C88.9107 39.0059 88.9756 39.2219 89.1606 39.5387C89.2689 39.7235 89.3953 39.8972 89.5377 40.0571C89.7143 40.2517 89.9117 40.4262 90.1263 40.5779C90.3429 40.7247 90.575 40.8479 90.8181 40.9451C91.0175 41.0233 91.2243 41.0814 91.4355 41.1179C91.7982 41.1707 92.0312 41.1539 92.0312 41.1779Z" fill="#14142B"/>
<path d="M96.9855 31.7822L96.9999 31.7967C97.7589 32.5977 98.3132 33.5703 98.6149 34.6313L99.1027 36.8865L93.8153 37.686C93.5274 36.7291 93.4616 35.7195 93.6228 34.7333C93.8876 33.035 96.9855 31.7822 96.9855 31.7822Z" fill="#4A9DF9"/>
<path d="M99.1024 36.8874C99.068 36.8993 99.0327 36.9081 98.9966 36.9135L98.6938 36.9677L97.5618 37.149L93.7308 37.7178L93.6636 37.7176L93.6638 37.648C93.6528 37.3288 93.6442 36.9976 93.6381 36.6567C93.6288 35.7711 93.6435 34.9239 93.6988 34.1537C93.7374 33.4633 93.9512 32.7944 94.3198 32.2092C94.5675 31.8157 94.9063 31.4875 95.3077 31.2523C95.416 31.1886 95.5305 31.1356 95.6493 31.095C95.689 31.0769 95.7311 31.065 95.7744 31.0594C95.7744 31.0594 95.606 31.1236 95.3316 31.298C94.9496 31.5409 94.6289 31.8682 94.3942 32.2551C94.0443 32.8365 93.8442 33.4956 93.8116 34.1733C93.754 34.9363 93.7537 35.7811 93.7654 36.6667C93.7643 37.0027 93.7801 37.3364 93.7863 37.6532L93.7168 37.593L97.562 37.065L98.6987 36.9221L99.0063 36.8871C99.0383 36.8831 99.0705 36.8832 99.1024 36.8874Z" fill="#14142B"/>
<path d="M96.4096 33.7894C96.0263 33.522 95.6939 33.1886 95.4277 32.8047C95.6308 32.9215 95.8117 33.0732 95.962 33.2528C96.1424 33.4031 96.2942 33.5848 96.4096 33.7894Z" fill="#FAFAFA"/>
<path d="M95.079 36.1263C95.0034 35.889 94.9693 35.6405 94.978 35.3916C94.943 35.1457 94.951 34.8957 95.002 34.6525C95.111 35.1359 95.137 35.6343 95.079 36.1263Z" fill="#FAFAFA"/>
<path d="M97.7491 35.6497C97.4694 35.6933 97.184 35.6828 96.9085 35.6183C96.627 35.5944 96.3527 35.5179 96.0996 35.3926C96.3787 35.3963 96.6566 35.431 96.9281 35.496C97.2064 35.518 97.4818 35.5695 97.7491 35.6497Z" fill="#FAFAFA"/>
<path d="M78.769 44.9927L82.2486 44.5979L84.6962 46.2112L94.0719 43.994L94.3129 37.5819L98.4777 37.0477L98.4534 44.8117C98.3987 46.7741 96.7651 48.3223 94.8007 48.2732L81.071 47.8487L80.4909 46.6805L77.5437 46.5825L78.769 44.9927Z" fill="#FFBE9D"/>
<path d="M93.9611 43.9832C93.9034 44.0061 93.8438 44.0244 93.7832 44.0379L93.2735 44.1683L91.3911 44.6281L85.1695 46.1135L84.5901 46.2509L84.5661 46.2508L84.5469 46.2508L82.1017 44.6327L82.1353 44.6328L78.6533 45.0251L78.6773 45.0108L77.7512 46.1767L77.51 46.4832C77.4833 46.5198 77.4524 46.5536 77.4184 46.5837C77.4409 46.5447 77.466 46.5071 77.4933 46.4711L77.7345 46.1551L78.6318 44.9722L78.6462 44.9723L82.1236 44.5487L82.1428 44.5488L82.1572 44.5488L84.6072 46.1597L84.564 46.1596L85.1434 46.0222L91.3721 44.568L93.264 44.1395L93.7784 44.0283C93.8381 44.0085 93.8991 43.9934 93.9611 43.9832Z" fill="#EB996E"/>
<path d="M80.6656 45.9955C80.2167 46.0467 79.7646 46.0628 79.313 46.0441L79.0728 46.0433L79.1065 46.0315C78.834 46.2802 78.5397 46.5042 78.2276 46.7007C78.4761 46.4284 78.7469 46.1772 79.0371 45.9496L79.0515 45.9353L79.3182 45.9361C79.7681 45.919 80.2187 45.9389 80.6656 45.9955Z" fill="#EB996E"/>
<path d="M95.685 45.0362C95.5069 44.7534 95.2752 44.5081 95.0026 44.3141C94.7135 44.1497 94.3945 44.0443 94.0643 44.004C94.1617 43.9707 94.2658 43.9626 94.3671 43.9809C94.8642 44.035 95.3075 44.3177 95.5658 44.7455C95.6304 44.8301 95.6714 44.9306 95.685 45.0362Z" fill="#EB996E"/>
<path d="M31.8798 81.4953L32.7233 81.509C33.3231 81.5192 33.9179 81.3996 34.4672 81.1583C34.7365 81.0352 35.0131 80.9289 35.2955 80.8399C36.3716 80.5292 37.5211 80.7179 38.6407 80.7709C40.4748 80.8598 42.3084 80.5805 44.0329 79.9495C44.136 79.9158 44.2266 79.8514 44.2926 79.7653C44.4959 79.4694 44.2034 79.1582 43.9454 78.9613C42.6193 77.9518 41.2702 76.9303 39.7142 76.3395C38.1581 75.7486 36.3318 75.6424 34.8759 76.4463C33.1645 77.3912 32.3535 79.5978 31.8918 81.4965" fill="#4A9DF9"/>
<path d="M44.3108 79.6558C44.2645 79.6312 44.2196 79.6043 44.1764 79.5749L43.8003 79.3277C43.4742 79.1121 43.006 78.7955 42.4071 78.4346C41.7148 78.0029 40.9847 77.635 40.2257 77.3354C39.2978 76.9663 38.3056 76.7859 37.307 76.8049C36.3077 76.8169 35.3344 77.125 34.5105 77.6906C33.8619 78.1832 33.3206 78.8026 32.9196 79.5112C32.5631 80.1104 32.3257 80.6273 32.1605 80.9776L31.9679 81.3855C31.948 81.4342 31.9241 81.4811 31.896 81.5256C31.9081 81.4742 31.9251 81.4242 31.9471 81.3762C31.9912 81.2721 32.0485 81.133 32.1187 80.9614C32.3301 80.4552 32.5711 79.9621 32.8402 79.4841C33.2377 78.7577 33.7827 78.1223 34.4404 77.6186C35.2773 77.0313 36.2715 76.7096 37.2938 76.6951C38.3062 76.6733 39.3125 76.8551 40.2531 77.2296C41.0156 77.5379 41.7481 77.9157 42.4412 78.3583C43.0342 78.7307 43.4966 79.0564 43.8168 79.2835L44.1814 79.5489C44.2289 79.5789 44.2724 79.6148 44.3108 79.6558Z" fill="#14142B"/>
<path d="M42.1922 80.544C42.1731 80.5662 41.1464 79.7504 39.902 78.7201C38.6577 77.6898 37.6639 76.8338 37.6783 76.8111C37.6926 76.7884 38.7217 77.6045 39.9661 78.6348C41.2104 79.6651 42.2116 80.5194 42.1922 80.544Z" fill="#14142B"/>
<path d="M41.4748 77.0804C40.8992 77.2004 40.3045 77.1965 39.7306 77.0691C40.0204 77.0382 40.3128 77.0332 40.6035 77.0543C40.8941 77.0377 41.1856 77.0466 41.4748 77.0804Z" fill="#14142B"/>
<path d="M36.6499 75.7137C36.3916 76.1873 36.0716 76.6245 35.6977 77.0134C35.8086 76.7675 35.9532 76.5382 36.1274 76.3324C36.2715 76.1023 36.4474 75.894 36.6499 75.7137Z" fill="#14142B"/>
<path d="M37.1441 80.6945C36.9669 80.5993 36.8001 80.4858 36.6467 80.3557C36.3479 80.1331 35.9485 79.8041 35.5318 79.4323C35.115 79.0605 34.7379 78.7023 34.4691 78.4441C34.3173 78.3126 34.1783 78.1673 34.0537 78.0098C34.2221 78.1198 34.3792 78.2461 34.5231 78.3868L35.6075 79.3506C36.0288 79.7252 36.4183 80.0557 36.7034 80.2962C36.8616 80.4159 37.0091 80.5492 37.1441 80.6945Z" fill="#14142B"/>
<path d="M32.7583 85.1721C31.9812 84.8804 30.9503 85.5622 30.7096 86.3561C30.4688 87.1499 30.6877 88.0062 30.9666 88.7937C31.5615 90.5396 32.5436 92.1286 33.8395 93.4419C35.1483 94.7508 36.8613 95.5793 38.7007 95.7929C38.5197 94.1926 39.1082 92.5962 39.0803 90.9846C39.025 88.0609 36.956 85.5637 34.092 84.9642C33.5884 84.8588 33.0059 84.7215 32.7559 85.1719" fill="#4A9DF9"/>
<path d="M38.7009 95.793C38.6621 95.7757 38.6253 95.7544 38.5914 95.7291C38.4926 95.6597 38.3994 95.5827 38.3126 95.4989C38.0068 95.1745 37.7739 94.7889 37.6288 94.3674C37.5259 94.116 37.4101 93.8247 37.3012 93.5124C37.1923 93.2001 37.085 92.8711 36.9661 92.5144C36.8477 92.1495 36.7048 91.7929 36.5389 91.4469C36.3608 91.0781 36.154 90.7238 35.9203 90.3871C35.4391 89.6929 34.9064 89.0806 34.4503 88.4975C34.0362 87.9883 33.6672 87.4442 33.3475 86.871C33.1337 86.4827 32.9674 86.0702 32.8519 85.6424C32.8162 85.4917 32.7897 85.3709 32.7784 85.2902C32.7692 85.2495 32.7651 85.2078 32.7666 85.166C32.7666 85.166 32.8054 85.3339 32.894 85.6321C33.0244 86.0505 33.1996 86.4535 33.4163 86.8344C33.7444 87.3966 34.1174 87.9312 34.5315 88.4332C34.9907 89.0093 35.5259 89.6219 36.0135 90.3239C36.2528 90.6653 36.4648 91.0252 36.6474 91.3998C36.812 91.7512 36.9542 92.1123 37.0731 92.4816L37.3986 93.4787C37.503 93.7881 37.6145 94.0741 37.7143 94.3325C37.849 94.7491 38.0668 95.1342 38.3547 95.4645C38.5637 95.6926 38.7138 95.7847 38.7009 95.793Z" fill="#14142B"/>
<path d="M34.703 94.0823C34.7258 93.9015 34.7686 93.7236 34.8305 93.5523C34.9255 93.2288 35.0731 92.7876 35.2607 92.3093C35.4482 91.8311 35.6399 91.4087 35.7905 91.1077C35.8601 90.9392 35.9496 90.7795 36.0574 90.6324C36.0074 90.8067 35.9421 90.9763 35.8622 91.1389C35.73 91.449 35.5476 91.8747 35.3651 92.351C35.1826 92.8274 35.0332 93.2612 34.9053 93.5766C34.8546 93.7515 34.7869 93.9208 34.703 94.0823Z" fill="#14142B"/>
<path d="M39.0683 90.6291C38.8796 90.5819 38.6954 90.5195 38.5172 90.4417C38.1818 90.3192 37.7185 90.1478 37.2021 89.9759C36.6857 89.8041 36.2119 89.6654 35.8696 89.5639C35.6805 89.5203 35.4961 89.46 35.3178 89.3837C35.5114 89.3978 35.7029 89.4332 35.8891 89.4886C36.2384 89.5691 36.7179 89.6987 37.2374 89.8636C37.7569 90.0285 38.2183 90.2191 38.5468 90.3626C38.7293 90.4331 38.9041 90.5223 39.0683 90.6291Z" fill="#14142B"/>
<path d="M32.0102 91.0585C32.0402 90.8495 32.0897 90.6436 32.1583 90.4437C32.2678 90.071 32.43 89.5565 32.6373 89.0006C32.8446 88.4447 33.0534 87.9468 33.2143 87.5913C33.2958 87.3954 33.3951 87.2074 33.5115 87.0299C33.4562 87.2333 33.3849 87.4317 33.2979 87.6237C33.1557 87.9859 32.9565 88.4847 32.7518 89.0385C32.5471 89.5922 32.3708 90.1029 32.245 90.4691C32.1836 90.6719 32.1051 90.8691 32.0102 91.0585Z" fill="#14142B"/>
<path d="M37.5679 87.0951C37.565 87.1238 36.5713 86.9456 35.3581 86.6925C34.1449 86.4395 33.1633 86.2118 33.1709 86.1836C33.9139 86.279 34.6516 86.4125 35.381 86.5838C36.1182 86.717 36.8481 86.8876 37.5679 87.0951Z" fill="#14142B"/>
<path d="M32.011 85.3947C31.9964 85.4348 31.9781 85.4735 31.9561 85.5099C31.9115 85.5947 31.8528 85.6998 31.7846 85.8281C31.7461 85.8991 31.7048 85.9746 31.6581 86.0568C31.6113 86.139 31.5724 86.2388 31.5264 86.338L31.3713 86.6602C31.3188 86.7756 31.2734 86.8917 31.2186 87.031C30.9708 87.6398 30.7614 88.2635 30.5913 88.8983C30.3927 89.6779 30.2336 90.4672 30.1149 91.2629C29.9138 92.712 29.8104 94.1732 29.8053 95.6362C29.7998 96.2001 29.8053 96.654 29.8127 96.9683C29.8125 97.1154 29.815 97.2362 29.8153 97.3303C29.8142 97.3727 29.81 97.4152 29.8027 97.4569C29.7916 97.4155 29.7862 97.3728 29.7864 97.3299C29.7789 97.2351 29.7714 97.1162 29.7618 96.9705C29.7425 96.655 29.7227 96.1996 29.7183 95.6372C29.7003 94.1688 29.794 92.7009 29.9983 91.2465C30.1136 90.4461 30.2731 89.6528 30.4759 88.87C30.6506 88.2342 30.8692 87.6111 31.1295 87.0053C31.1858 86.8758 31.2344 86.7504 31.2891 86.6376L31.4513 86.3161L31.5948 86.0384C31.6418 85.9539 31.6876 85.8812 31.7284 85.8105L31.9208 85.5016C31.945 85.4613 31.9754 85.4252 32.011 85.3947Z" fill="#14142B"/>
<path d="M32.0243 81.2074C32.0054 81.2637 31.9831 81.3186 31.9573 81.372C31.905 81.485 31.8341 81.6396 31.7473 81.8336L31.5936 82.1656C31.5426 82.2908 31.4858 82.4251 31.4257 82.5687C31.3054 82.8558 31.1668 83.1821 31.0359 83.5526L30.8191 84.1317C30.7506 84.3347 30.6812 84.5473 30.6089 84.7645C30.4546 85.2002 30.3276 85.6772 30.1773 86.1688C29.9041 87.1691 29.641 88.2863 29.4183 89.458C29.1956 90.6298 29.0459 91.7703 28.9287 92.803C28.8115 93.8357 28.7332 94.7685 28.7081 95.5547C28.6811 95.9476 28.6724 96.3013 28.6606 96.6136C28.6489 96.926 28.6414 97.1954 28.6389 97.4146C28.6363 97.6339 28.63 97.7948 28.6269 97.9223C28.6243 97.9807 28.6185 98.039 28.6096 98.0967C28.5999 98.039 28.5961 97.9803 28.598 97.9219C28.5963 97.7939 28.5936 97.6272 28.5882 97.4144C28.5828 97.2017 28.5832 96.9316 28.5909 96.6115C28.5986 96.2915 28.6017 95.9445 28.6216 95.551C28.647 94.7624 28.7181 93.8288 28.8188 92.7921C28.9196 91.7553 29.0831 90.6211 29.3019 89.4393C29.5208 88.2575 29.7933 87.1437 30.0717 86.139C30.2251 85.6405 30.3569 85.164 30.5129 84.7356C30.5878 84.5164 30.662 84.3042 30.7304 84.1012L30.9542 83.5252C31.0899 83.1552 31.2357 82.8296 31.3631 82.5432C31.4256 82.3998 31.4845 82.2682 31.538 82.1432C31.5914 82.0183 31.6501 81.9132 31.7009 81.8145L31.93 81.3549C31.9557 81.3024 31.9874 81.253 32.0243 81.2074Z" fill="#14142B"/>
<path d="M27.3839 98.2043C27.3529 98.2013 27.8246 93.0675 28.4351 86.732C29.0456 80.3964 29.5747 75.2684 29.5986 75.2707C29.6225 75.2731 29.1579 80.4076 28.5474 86.7431C27.9369 93.0786 27.415 98.2074 27.3839 98.2043Z" fill="#14142B"/>
<path d="M26.3046 99.0143C26.3042 98.9942 26.3062 98.9741 26.3106 98.9545C26.3151 98.9092 26.3208 98.8518 26.3138 98.7764C26.318 98.6128 26.3263 98.3845 26.3359 98.0936C26.3573 97.4904 26.3893 96.6349 26.427 95.5774C26.503 93.4553 26.5962 90.5293 26.5598 87.2818C26.5379 85.6589 26.479 84.1167 26.3966 82.7144C26.3503 82.0153 26.3103 81.3504 26.2493 80.727C26.1883 80.1035 26.1275 79.5258 26.0835 78.9981C26.0395 78.4704 25.9638 77.995 25.9112 77.5773C25.8587 77.1597 25.8102 76.7979 25.7766 76.5052C25.743 76.2124 25.7047 75.9916 25.68 75.8275C25.6725 75.7568 25.6639 75.6981 25.6589 75.6518C25.6572 75.6316 25.6592 75.6115 25.6648 75.5921C25.6728 75.6109 25.6781 75.631 25.6806 75.6515L25.7115 75.8258C25.7412 75.9879 25.7791 76.2136 25.8301 76.5008C25.8812 76.7881 25.9392 77.1508 25.9963 77.5713C26.0533 77.9918 26.1269 78.4646 26.1829 78.9935C26.2388 79.5224 26.3142 80.0991 26.3632 80.7214C26.4123 81.3437 26.4762 82.0108 26.5222 82.7124C26.6095 84.1151 26.6705 85.6599 26.6926 87.2805C26.7293 90.5256 26.6231 93.46 26.5278 95.5826C26.4799 96.6463 26.4357 97.503 26.4006 98.0976C26.3719 98.3866 26.3684 98.6154 26.3568 98.7807C26.3497 98.8523 26.3438 98.912 26.3392 98.9574C26.3307 98.978 26.3189 98.9971 26.3046 99.0143Z" fill="#14142B"/>
<path d="M29.2896 77.7457C29.2916 77.0222 28.6136 76.3907 27.883 76.311C27.1386 76.2703 26.4167 76.5741 25.9257 77.1349C25.4454 77.6928 25.0744 78.3359 24.832 79.0309C24.1692 80.6947 23.7225 82.4666 23.7567 84.2573C23.7909 86.048 24.3345 87.8602 25.4816 89.2354C25.6667 89.4611 25.9189 89.6912 26.2047 89.6568C26.3604 89.6276 26.506 89.559 26.6276 89.4575C29.3746 87.4033 31.0999 84.2635 31.3607 80.8453C31.4084 80.1722 31.3899 79.4613 31.0751 78.8657C30.7603 78.2701 29.9474 77.5865 29.2918 77.7483" fill="#4A9DF9"/>
<path d="M24.4111 71.377L23.198 73.1382C23.1698 73.1788 23.1337 73.2259 23.0833 73.2233C23.0329 73.2208 22.9922 73.1685 22.9681 73.1203L20.6623 68.6899L21.3239 68.396L24.4111 71.377Z" fill="#4A9DF9"/>
<path d="M24.4108 71.3769L23.1976 73.1383C23.1694 73.1789 23.1333 73.226 23.0829 73.2234C23.0325 73.2208 22.9918 73.1685 22.9677 73.1203L20.6623 68.6899L21.3239 68.396L24.4108 71.3769Z" fill="#3B4A54"/>
<path d="M29.5965 75.2789L20.8625 68.887C20.76 68.8356 20.6821 68.7454 20.6461 68.6364C20.6238 68.4967 20.7399 68.3731 20.8481 68.2801C22.2732 67.0702 24.154 66.5389 26.0015 66.8248C27.8511 67.1433 29.4247 68.3522 30.208 70.0567C30.9429 71.7433 30.7633 73.8627 29.5845 75.2777" fill="#4A9DF9"/>
<path d="M22.3845 67.2758C22.4253 67.2688 22.4669 67.2681 22.5079 67.2736C22.5867 67.2814 22.7081 67.2741 22.8609 67.2917C23.2922 67.3286 23.7193 67.4047 24.1368 67.5194C24.7587 67.6905 25.3567 67.9384 25.917 68.2578C27.8741 69.3822 29.2258 71.3219 29.6025 73.5463C29.681 73.9733 29.7187 74.4067 29.7151 74.8408C29.7192 74.9931 29.7025 75.1121 29.6992 75.1938C29.6993 75.2348 29.6952 75.2754 29.6871 75.3156C29.6871 75.3156 29.6822 75.1463 29.6749 74.832C29.6643 74.4025 29.6188 73.9744 29.5392 73.5521C29.0219 70.6957 26.9237 68.3827 24.1299 67.5887C23.7176 67.4673 23.296 67.3794 22.8695 67.3263C22.5418 67.2962 22.3836 67.2854 22.3845 67.2758Z" fill="#14142B"/>
<path d="M28.715 71.3794C28.5563 71.4556 28.3886 71.5111 28.2158 71.5446C27.9078 71.6322 27.4723 71.7386 27.0035 71.8417C26.5346 71.9448 26.0929 72.0168 25.7746 72.0624C25.6046 72.0964 25.4315 72.1116 25.2583 72.1077C25.4186 72.049 25.5845 72.0071 25.7535 71.9831L26.9711 71.7299L28.1873 71.467C28.3599 71.4204 28.5367 71.3911 28.715 71.3794Z" fill="#14142B"/>
<path d="M27.6444 67.3126C27.6937 67.659 27.6961 68.0106 27.6515 68.3576C27.6442 68.7075 27.5901 69.055 27.4909 69.3908C27.4804 69.0427 27.4971 68.6944 27.5414 68.3491C27.5484 68.0015 27.5829 67.6547 27.6444 67.3126Z" fill="#14142B"/>
<path d="M20.7859 68.7769C21.0128 68.6988 21.2464 68.6411 21.4837 68.6048C21.9175 68.5151 22.5219 68.4086 23.2021 68.3169C23.8823 68.2251 24.4822 68.164 24.9105 68.1292C25.1514 68.1001 25.3946 68.0919 25.6371 68.1048C25.403 68.1552 25.1657 68.1898 24.9268 68.2081C24.487 68.261 23.88 68.3455 23.2151 68.4291C22.5502 68.5128 21.9438 68.6143 21.5003 68.6813C21.2645 68.7288 21.026 68.7609 20.7859 68.7769Z" fill="#14142B"/>
<path d="M25.2439 75.602C24.5057 74.9186 23.6731 74.7227 22.6686 74.6545C21.6605 74.6191 20.6549 74.7722 19.703 75.1061C18.0695 75.6341 16.499 76.4989 15.4222 77.8347C14.3455 79.1705 13.8297 81.0299 14.375 82.6567C14.414 82.825 14.5135 82.9731 14.6546 83.0727C14.8236 83.1384 15.0105 83.1423 15.1821 83.084C17.0206 82.68 18.869 82.2722 20.5967 81.5267C22.3243 80.7812 23.9391 79.6652 24.9806 78.1015C25.2436 77.7385 25.4307 77.3265 25.5309 76.8897C25.6244 76.4418 25.5205 75.9754 25.2455 75.6094" fill="#4A9DF9"/>
<path d="M25.277 75.4155C25.2348 75.4342 25.1905 75.4477 25.1451 75.4555L24.7594 75.5475L24.4805 75.6092C24.3789 75.6353 24.2695 75.6679 24.1526 75.7021C23.9189 75.7706 23.6565 75.8363 23.3588 75.9419L22.904 76.097C22.7442 76.1511 22.585 76.2222 22.4166 76.2899C22.0782 76.4156 21.7329 76.5864 21.3635 76.7573C19.7811 77.533 18.3389 78.5663 17.0958 79.8152C16.8252 80.1092 16.5445 80.3829 16.3162 80.6643C16.1986 80.8022 16.0821 80.9305 15.9772 81.0625L15.6978 81.4448C15.505 81.6838 15.356 81.9199 15.2154 82.1207C15.1475 82.2201 15.0804 82.3124 15.0233 82.4008C14.9663 82.4892 14.9197 82.569 14.876 82.6443L14.6639 82.9803C14.643 83.0214 14.6165 83.0593 14.5851 83.0931C14.6013 83.0498 14.6216 83.0082 14.6458 82.9688L14.8373 82.6212C14.881 82.5459 14.9278 82.4637 14.9779 82.3722C15.0281 82.2806 15.0976 82.1886 15.1632 82.0866C15.2996 81.8806 15.4498 81.6325 15.6325 81.3974C15.7269 81.274 15.8219 81.1435 15.9127 81.0078C16.0034 80.8721 16.1319 80.7449 16.2473 80.6044C16.4737 80.318 16.7451 80.041 17.0234 79.7429C17.6486 79.1138 18.3227 78.5353 19.0396 78.0129C19.7628 77.5008 20.5264 77.0482 21.3226 76.6591C21.6944 76.4885 22.0442 76.3206 22.3847 76.1975C22.5553 76.1324 22.7166 76.064 22.8865 76.006L23.3477 75.8587C23.6405 75.7551 23.9119 75.6951 24.1499 75.6319C24.2687 75.6026 24.3779 75.5725 24.4816 75.549L24.7622 75.4948L25.1529 75.4249C25.1941 75.4186 25.2354 75.4155 25.277 75.4155Z" fill="#14142B"/>
<path d="M18.7074 78.1717C18.0477 78.3506 17.3792 78.4945 16.7044 78.6027C16.036 78.7489 15.3595 78.8567 14.6785 78.9252C15.3381 78.7463 16.0066 78.6025 16.6814 78.4942C17.3502 78.3495 18.0267 78.2417 18.7074 78.1717Z" fill="#14142B"/>
<path d="M18.2014 82.4336C18.1888 82.2307 18.1943 82.0269 18.2185 81.8251C18.2556 81.4525 18.3071 80.9342 18.3636 80.3658C18.4201 79.7974 18.5194 79.2839 18.5875 78.9144C18.6125 78.7121 18.6583 78.5131 18.7238 78.3202C18.7197 78.5235 18.6995 78.7266 18.6635 78.9268C18.6085 79.3337 18.5448 79.8291 18.4732 80.3791C18.4017 80.9291 18.3427 81.425 18.2902 81.8322C18.2789 82.0348 18.2493 82.2362 18.2014 82.4336Z" fill="#14142B"/>
<path d="M22.0582 80.9414C22.0271 80.9383 22.0334 79.8801 22.074 78.5745C22.1145 77.2689 22.1691 76.2107 22.2001 76.2138C22.2312 76.2169 22.2228 77.2724 22.1846 78.5783C22.1464 79.8841 22.0895 80.9421 22.0582 80.9414Z" fill="#14142B"/>
<path d="M17.9672 75.69C18.1758 75.6844 18.3846 75.6986 18.5906 75.7325C18.973 75.7704 19.5023 75.8374 20.086 75.9146C20.6698 75.9918 21.1957 76.0681 21.576 76.1276C21.7835 76.1508 21.9885 76.1914 22.1892 76.2488C21.9806 76.2544 21.7717 76.2402 21.5658 76.2062C21.1833 76.1683 20.6539 76.1037 20.0703 76.0241C19.4868 75.9445 18.9607 75.8706 18.5779 75.8109C18.3712 75.788 18.1669 75.7474 17.9672 75.69Z" fill="#14142B"/>
<path d="M25.8325 89.7702C25.8261 89.7271 25.8254 89.6831 25.831 89.6398C25.8402 89.5466 25.8524 89.4248 25.8504 89.2751C25.8676 88.956 25.9106 88.4996 25.9839 87.9329C26.0572 87.3661 26.155 86.6981 26.2961 85.9595C26.4371 85.221 26.6285 84.4127 26.8639 83.575C27.0992 82.7373 27.3652 81.9557 27.6271 81.2388C27.889 80.5219 28.1575 79.9094 28.3978 79.3857C28.6381 78.862 28.8369 78.4645 29.0006 78.1768C29.0718 78.044 29.1271 77.9482 29.1751 77.854C29.1936 77.8156 29.2159 77.779 29.2415 77.7449C29.232 77.7866 29.2157 77.8265 29.1935 77.8631L29.0224 78.2007C28.883 78.4859 28.6907 78.8914 28.4616 79.4234C28.2325 79.9554 27.9772 80.5813 27.7172 81.2791C27.4572 81.9769 27.2 82.7666 26.9625 83.6017C26.725 84.4368 26.5406 85.2482 26.3911 85.9738C26.2417 86.6994 26.131 87.3758 26.0558 87.9376C25.9806 88.4993 25.9231 88.9567 25.8914 89.2743C25.8767 89.4224 25.8648 89.5418 25.8553 89.6374C25.8509 89.682 25.8431 89.7264 25.8325 89.7702Z" fill="#14142B"/>
<path d="M26.9485 83.4914C26.8252 83.629 26.6874 83.7528 26.5376 83.8608C26.2748 84.0759 25.9012 84.3622 25.48 84.6654C25.0588 84.9686 24.6638 85.2261 24.3731 85.4072C24.223 85.5137 24.0619 85.6036 23.8926 85.6756C24.0279 85.5503 24.1747 85.438 24.3314 85.3404L25.4142 84.5744L26.4907 83.7982C26.6332 83.6816 26.7865 83.5788 26.9485 83.4914Z" fill="#14142B"/>
<path d="M29.6509 86.1452C29.5226 85.9597 29.4088 85.7647 29.3108 85.5615L28.5286 84.1332L27.7234 82.7172C27.6021 82.5269 27.4953 82.3275 27.4038 82.1211C27.5501 82.2931 27.6795 82.4789 27.7903 82.6756C28.0158 83.0284 28.3144 83.5211 28.616 84.0792C28.9177 84.6373 29.1901 85.1492 29.3724 85.5242C29.4845 85.722 29.5777 85.93 29.6509 86.1452Z" fill="#14142B"/>
<path d="M28.8514 78.5575C28.8655 78.5855 27.8273 79.146 26.5279 79.8085C25.2285 80.471 24.1656 80.988 24.1515 80.9601C24.1374 80.9321 25.1756 80.3716 26.4774 79.7094C27.7792 79.0471 28.8394 78.5322 28.8514 78.5575Z" fill="#14142B"/>
<path d="M31.3186 81.8063C30.8462 81.3268 30.3994 80.8228 29.9797 80.2963C29.5325 79.7959 29.1134 79.2712 28.7241 78.7246C29.1986 79.2032 29.6463 79.7073 30.0655 80.2349C30.513 80.7341 30.9314 81.2588 31.3186 81.8063Z" fill="#14142B"/>
<path d="M35.7628 99.4214C35.7597 99.4525 32.2505 99.1285 27.9262 98.6994C23.6018 98.2704 20.0974 97.8986 20.1005 97.8675C20.1036 97.8364 23.6128 98.1604 27.9371 98.5895C32.2614 99.0185 35.7659 99.3903 35.7628 99.4214Z" fill="#FFCD41"/>
<path d="M19.96 96.3047H35.6465V98.4575H19.96V96.3047Z" fill="#14142B"/>
<path d="M35.6729 98.4873H19.9336V96.2793H35.6729V98.4873ZM19.9864 98.4321H35.6201V96.3321H19.9864V98.4321Z" fill="#14142B"/>
<path d="M21.4155 97.7422L23.6712 108.871H32.0261L34.2097 98.4598L21.4155 97.7422Z" fill="#14142B"/>
<path d="M21.4155 107.818L22.619 109.474H32.7732L34.2097 107.818H21.4155Z" fill="#FFCD41"/>
<path d="M33.2225 102.979C33.2225 103.01 30.8467 103.037 27.9184 103.037C24.9901 103.037 22.6167 103.01 22.6167 102.979C22.6167 102.948 24.9901 102.924 27.9184 102.924C30.8467 102.924 33.2225 102.96 33.2225 102.979Z" fill="#FFCD41"/>
<path d="M33.3138 103.627C33.3138 103.659 30.9405 103.683 28.0121 103.683C25.0838 103.683 22.7104 103.659 22.7104 103.627C22.7104 103.596 25.0838 103.572 28.0121 103.572C30.9405 103.572 33.3138 103.596 33.3138 103.627Z" fill="#FFCD41"/>
<path d="M33.3137 102.446C33.3137 102.477 30.8587 102.501 27.8295 102.501C24.8003 102.501 22.3452 102.477 22.3452 102.446C22.3452 102.415 24.8003 102.391 27.8295 102.391C30.8587 102.391 33.3137 102.415 33.3137 102.446Z" fill="#FFCD41"/>
<path d="M18.0981 17.1816H40.1361V49.0968H18.0981V17.1816Z" fill="#DFDFDF"/>
<path d="M16.9932 17.1816H39.0311V49.0968H16.9932V17.1816Z" fill="#F5F5F5"/>
<path d="M19.7314 20.6367H36.2947V45.6375H19.7314V20.6367Z" fill="white"/>
<path d="M36.2949 45.6402C36.2949 45.6402 36.2949 45.597 36.2949 45.5178C36.2949 45.4386 36.2949 45.3162 36.2949 45.1626C36.2949 44.8482 36.2949 44.3874 36.2949 43.7922C36.2949 42.5922 36.2949 40.8474 36.2781 38.6418C36.2781 34.233 36.2637 27.9882 36.2516 20.6418L36.3069 20.697H19.746L19.806 20.637C19.806 30.069 19.806 38.7642 19.806 45.6402L19.758 45.5922L31.8147 45.6162L35.1442 45.6282H36.0186H36.3213H36.0282H35.1634H31.8436L19.758 45.6522H19.71V45.6042C19.71 38.7282 19.71 30.033 19.71 20.601V20.541H19.7724H36.3333H36.3886V20.6394C36.3886 28.0074 36.3669 34.2618 36.3621 38.6802C36.3621 40.881 36.3501 42.621 36.3453 43.8162C36.3453 44.409 36.3453 44.865 36.3453 45.177C36.3453 45.3282 36.3453 45.4458 36.3453 45.525C36.3453 45.6042 36.2949 45.6402 36.2949 45.6402Z" fill="#DFDFDF"/>
<path d="M39.0961 17.1816C38.9823 17.3856 38.8504 17.5793 38.7022 17.76C38.4475 18.1008 38.0824 18.5664 37.6692 19.0704C37.256 19.5744 36.8669 20.0184 36.5786 20.3352C36.4337 20.5143 36.273 20.6796 36.0981 20.8296C36.2226 20.635 36.3631 20.4512 36.5185 20.28L37.5803 18.9936L38.6373 17.7C38.7752 17.5145 38.9287 17.3412 39.0961 17.1816Z" fill="#DFDFDF"/>
<path d="M36.3789 45.5586C37.2014 46.863 38.1683 48.0707 39.2616 49.1586Z" fill="white"/>
<path d="M39.2687 49.1682C39.084 49.0348 38.9147 48.8809 38.7643 48.7098C38.3802 48.3198 38.0162 47.9104 37.6737 47.4834C37.2749 46.9818 36.941 46.5042 36.7128 46.1514C36.5816 45.9652 36.469 45.7667 36.3765 45.5586C36.5249 45.73 36.6606 45.9121 36.7824 46.1034C37.0227 46.4442 37.3686 46.9098 37.7649 47.4066C38.1613 47.9034 38.5457 48.3402 38.8243 48.6522C38.9846 48.8132 39.1333 48.9858 39.2687 49.1682Z" fill="#DFDFDF"/>
<path d="M16.9907 49.0705L19.8734 45.5137Z" fill="white"/>
<path d="M19.8782 45.5137C19.4434 46.1427 18.9766 46.749 18.4801 47.3305C18.0153 47.9367 17.5182 48.5178 16.9907 49.0705C17.4255 48.4414 17.8923 47.8352 18.3888 47.2537C18.8536 46.6474 19.3507 46.0664 19.8782 45.5137Z" fill="#DFDFDF"/>
<path d="M16.9932 17.1816C17.4911 17.7156 17.9596 18.2765 18.3961 18.8616C18.8635 19.4204 19.2998 20.0045 19.7029 20.6112C19.2058 20.0772 18.7381 19.5164 18.3024 18.9312C17.8342 18.3725 17.3972 17.7884 16.9932 17.1816Z" fill="#DFDFDF"/>
<path d="M25.5884 25.7129H31.1351V41.4449H25.5884V25.7129Z" fill="#DFDFDF"/>
<path d="M69.8494 12.5312V26.5088H49.7572L49.0342 12.6296L69.8494 12.5312Z" fill="#DFDFDF"/>
<path d="M49.0317 26.4769V12.6289H69.1239V26.4769H49.0317Z" fill="white"/>
<path d="M69.2199 26.5732H48.938V12.5332H69.2199V26.5732ZM49.1302 26.3836H69.0301V12.7204H49.1302V26.3836Z" fill="#DFDFDF"/>
<path d="M51.2104 14.3496H66.9498V24.756H51.2104V14.3496Z" fill="white"/>
<path d="M66.95 14.3503H66.6473H65.7825H62.5395L51.2106 14.4007L51.2563 14.3551C51.2563 17.5351 51.2563 21.0583 51.2563 24.7615L51.2082 24.7135H66.9476L66.9067 24.7519C66.9067 21.5863 66.9235 18.9919 66.9283 17.1799C66.9283 16.2775 66.9283 15.5719 66.9283 15.0871C66.9283 14.8471 66.9283 14.6647 66.9283 14.5375C66.9283 14.4103 66.9283 14.3455 66.9283 14.3455C66.9283 14.3455 66.9283 14.4055 66.9283 14.5279C66.9283 14.6503 66.9283 14.8351 66.9283 15.0703C66.9283 15.5503 66.9283 16.2559 66.9404 17.1559C66.9404 18.9703 66.9524 21.5767 66.9596 24.7519V24.7927H66.9211H51.1818H51.1313V24.7423C51.1313 21.0391 51.1313 17.5159 51.1313 14.3359V14.3047H51.177L62.5371 14.3263L65.7705 14.3407H66.6257H66.9163L66.95 14.3503Z" fill="#DFDFDF"/>
<path d="M69.1261 12.6289C68.7958 12.9536 68.4424 13.2543 68.0691 13.5289C67.7158 13.8284 67.3417 14.1027 66.9497 14.3497C67.28 14.025 67.6334 13.7243 68.0067 13.4497C68.3596 13.1495 68.7336 12.8751 69.1261 12.6289Z" fill="#DFDFDF"/>
<path d="M69.1094 26.4804L66.8682 24.666Z" fill="white"/>
<path d="M66.8682 24.666C67.2713 24.93 67.6563 25.2202 68.0212 25.5348C68.4049 25.8252 68.7683 26.1413 69.1094 26.4804C68.7061 26.2179 68.3215 25.9277 67.9588 25.6116C67.5735 25.3224 67.209 25.0063 66.8682 24.666Z" fill="#DFDFDF"/>
<path d="M54.4053 21.0786V17.5938H64.3096V21.0786H54.4053Z" fill="#DFDFDF"/>
</g>
</g>
<defs>
<clipPath id="clip0_5124_21379">
<rect width="168.155" height="120" fill="white" transform="translate(0.922363)"/>
</clipPath>
</defs>
</svg>
