<svg width="16" height="16" viewBox="0 0 16 16" fill="none" xmlns="http://www.w3.org/2000/svg">
<path fill-rule="evenodd" clip-rule="evenodd" d="M6.29989 0.963221C7.06948 -0.321075 8.93052 -0.321072 9.70012 0.963222L10.1664 1.74133C10.316 1.99099 10.6114 2.11334 10.8937 2.04259L11.7736 1.82208C13.2259 1.45813 14.5419 2.77409 14.1779 4.22641L13.9574 5.10632C13.8867 5.38864 14.009 5.68401 14.2587 5.83362L15.0368 6.29989C16.3211 7.06948 16.3211 8.93052 15.0368 9.70012L14.2587 10.1664C14.009 10.316 13.8867 10.6114 13.9574 10.8937L14.1779 11.7736C14.5419 13.2259 13.2259 14.5419 11.7736 14.1779L10.8937 13.9574C10.6114 13.8867 10.316 14.009 10.1664 14.2587L9.70012 15.0368C8.93052 16.3211 7.06948 16.3211 6.29988 15.0368L5.83362 14.2587C5.68401 14.009 5.38864 13.8867 5.10632 13.9574L4.94572 13.3166L5.10632 13.9574L4.22641 14.1779C2.77409 14.5419 1.45813 13.2259 1.82208 11.7736L2.04259 10.8937C2.11334 10.6114 1.99099 10.316 1.74133 10.1664L0.963221 9.70012C-0.321075 8.93052 -0.321072 7.06948 0.963222 6.29988L1.74133 5.83362C1.99099 5.68401 2.11334 5.38864 2.04259 5.10632L1.82208 4.22641C1.45813 2.77409 2.77409 1.45813 4.22641 1.82208L5.10632 2.04259C5.38864 2.11334 5.68401 1.99099 5.83362 1.74133L6.29989 0.963221ZM8.56671 1.6424C8.31017 1.2143 7.68983 1.2143 7.4333 1.6424L6.96703 2.42051C6.51821 3.16949 5.6321 3.53653 4.78513 3.32428L3.90522 3.10378C3.42111 2.98246 2.98246 3.42111 3.10378 3.90522L3.32428 4.78513C3.53653 5.6321 3.1695 6.51821 2.42051 6.96703L1.6424 7.43329C1.2143 7.68983 1.2143 8.31017 1.6424 8.5667L2.42051 9.03297C3.16949 9.48179 3.53653 10.3679 3.32428 11.2149L3.10378 12.0948C2.98246 12.5789 3.42111 13.0175 3.90522 12.8962L4.06581 13.5371L3.90522 12.8962L4.78513 12.6757C5.6321 12.4635 6.51821 12.8305 6.96703 13.5795L7.43329 14.3576C7.68983 14.7857 8.31017 14.7857 8.5667 14.3576L9.03297 13.5795C9.48179 12.8305 10.3679 12.4635 11.2149 12.6757L12.0948 12.8962C12.5789 13.0175 13.0175 12.5789 12.8962 12.0948L12.6757 11.2149C12.4635 10.3679 12.8305 9.48179 13.5795 9.03297L14.3576 8.56671C14.7857 8.31017 14.7857 7.68983 14.3576 7.4333L13.5795 6.96703C12.8305 6.51821 12.4635 5.63211 12.6757 4.78513L12.8962 3.90522C13.0175 3.42111 12.5789 2.98246 12.0948 3.10378L11.2149 3.32428C10.3679 3.53653 9.48179 3.1695 9.03297 2.42051L8.56671 1.6424ZM8 6.01801C6.90538 6.01801 6.01801 6.90538 6.01801 8C6.01801 9.09462 6.90538 9.98199 8 9.98199C9.09462 9.98199 9.98199 9.09462 9.98199 8C9.98199 6.90538 9.09462 6.01801 8 6.01801ZM4.69668 8C4.69668 6.17563 6.17563 4.69668 8 4.69668C9.82437 4.69668 11.3033 6.17563 11.3033 8C11.3033 9.82437 9.82437 11.3033 8 11.3033C6.17563 11.3033 4.69668 9.82437 4.69668 8Z" fill="#14142B"/>
</svg>
