<svg width="15" height="14" viewBox="0 0 15 14" fill="currentColor" xmlns="http://www.w3.org/2000/svg">
<path fill-rule="evenodd" clip-rule="evenodd" d="M3.5 1.75C2.67157 1.75 2 2.42157 2 3.25C2 4.07843 2.67157 4.75 3.5 4.75C4.32843 4.75 5 4.07843 5 3.25C5 2.42157 4.32843 1.75 3.5 1.75ZM0.5 3.25C0.5 1.59315 1.84315 0.25 3.5 0.25C4.89788 0.25 6.07245 1.20608 6.40549 2.5H14C14.4142 2.5 14.75 2.83579 14.75 3.25C14.75 3.66421 14.4142 4 14 4H6.40549C6.07245 5.29392 4.89788 6.25 3.5 6.25C1.84315 6.25 0.5 4.90685 0.5 3.25ZM11.75 9.25C10.9216 9.25 10.25 9.92157 10.25 10.75C10.25 11.5784 10.9216 12.25 11.75 12.25C12.5784 12.25 13.25 11.5784 13.25 10.75C13.25 9.92157 12.5784 9.25 11.75 9.25ZM8.84451 10C9.17755 8.70608 10.3521 7.75 11.75 7.75C13.4069 7.75 14.75 9.09315 14.75 10.75C14.75 12.4069 13.4069 13.75 11.75 13.75C10.3521 13.75 9.17755 12.7939 8.84451 11.5H1.25C0.835786 11.5 0.5 11.1642 0.5 10.75C0.5 10.3358 0.835786 10 1.25 10H8.84451Z" fill="currentColor"/>
</svg>
