<svg width="28" height="28" viewBox="0 0 28 28" fill="currentColor" xmlns="http://www.w3.org/2000/svg">
<path d="M20.75 12.3509C20.635 11.929 20.2898 11.6222 19.8487 11.5646L16.3395 11.0852L15.0163 7.92116C14.8438 7.51847 14.4602 7.25 14.0192 7.25C13.8082 7.25 13.5973 7.30753 13.4247 7.42259C13.2521 7.53764 13.1179 7.71023 13.022 7.90199L11.6989 11.0852L8.18964 11.5646C7.76776 11.6222 7.40342 11.929 7.28836 12.3509C7.1733 12.7727 7.30753 13.2138 7.65271 13.4822L10.3565 15.6875L9.49361 19.4268C9.39773 19.8679 9.57032 20.3089 9.93467 20.5774C10.3182 20.8267 10.7976 20.8267 11.1619 20.5582L13.1754 19.1392L14.0192 18.5447L14.9205 19.1776L16.8764 20.5582C17.0682 20.6925 17.2791 20.75 17.4901 20.75C17.701 20.75 17.9119 20.6925 18.1037 20.5582C18.4872 20.3089 18.6598 19.8487 18.5639 19.4077L17.701 15.6875L20.4048 13.4822C20.7308 13.2138 20.8651 12.7727 20.75 12.3509ZM16.8381 14.7862L16.3011 15.2273C16.3011 15.2273 16.4354 15.745 16.5121 16.0327L17.2408 19.2159V19.2351L17.26 19.3118L17.1449 19.2351L16.8764 19.0433L14.9972 17.7202L14.0192 17.0298L13.3864 17.4709L13.022 17.7202L11.1428 19.0241L11.1236 19.0433L11.0852 19.0625L10.7592 19.2926L10.7784 19.1967L10.8168 19.0625L11.4879 16.1861C11.4879 16.1669 11.7372 15.2081 11.7372 15.2081L11.0085 14.6328L8.70739 12.7536L11.9482 12.3125L12.5618 12.2358L12.7919 11.6605L12.8686 11.4879L14.0192 8.74574L15.1698 11.4879L15.4766 12.2358L16.0902 12.3125L16.3587 12.3509H16.397L19.331 12.7536L16.8381 14.7862Z" fill="currentColor"/>
</svg>

