<svg width="19" height="16" viewBox="0 0 19 16" fill="none" xmlns="http://www.w3.org/2000/svg">
<path fill-rule="evenodd" clip-rule="evenodd" d="M9.29032 1.54839C8.43517 1.54839 7.74194 2.24162 7.74194 3.09677C7.74194 3.95192 8.43517 4.64516 9.29032 4.64516C10.1455 4.64516 10.8387 3.95192 10.8387 3.09677C10.8387 2.24162 10.1455 1.54839 9.29032 1.54839ZM6.19355 3.09677C6.19355 1.38647 7.58002 0 9.29032 0C11.0006 0 12.3871 1.38647 12.3871 3.09677C12.3871 4.80708 11.0006 6.19355 9.29032 6.19355C7.58002 6.19355 6.19355 4.80708 6.19355 3.09677ZM3.09677 4.64516C2.6692 4.64516 2.32258 4.99178 2.32258 5.41935C2.32258 5.84693 2.6692 6.19355 3.09677 6.19355C3.52435 6.19355 3.87097 5.84693 3.87097 5.41935C3.87097 4.99178 3.52435 4.64516 3.09677 4.64516ZM0.774194 5.41935C0.774194 4.13663 1.81405 3.09677 3.09677 3.09677C4.3795 3.09677 5.41935 4.13663 5.41935 5.41935C5.41935 6.70208 4.3795 7.74194 3.09677 7.74194C1.81405 7.74194 0.774194 6.70208 0.774194 5.41935ZM15.4839 4.64516C15.0563 4.64516 14.7097 4.99178 14.7097 5.41935C14.7097 5.84693 15.0563 6.19355 15.4839 6.19355C15.9114 6.19355 16.2581 5.84693 16.2581 5.41935C16.2581 4.99178 15.9114 4.64516 15.4839 4.64516ZM13.1613 5.41935C13.1613 4.13663 14.2011 3.09677 15.4839 3.09677C16.7666 3.09677 17.8065 4.13663 17.8065 5.41935C17.8065 6.70208 16.7666 7.74194 15.4839 7.74194C14.2011 7.74194 13.1613 6.70208 13.1613 5.41935ZM5.39249 9.08516C6.22071 7.81064 7.65708 6.96774 9.29032 6.96774C10.9236 6.96774 12.3599 7.81064 13.1882 9.08516C13.7361 8.72571 14.392 8.51613 15.0968 8.51613C17.0209 8.51613 18.5806 10.0759 18.5806 12V16H0V12C0 10.0759 1.55978 8.51613 3.48387 8.51613C4.1886 8.51613 4.84451 8.72571 5.39249 9.08516ZM6.19456 11.533C6.19389 11.5595 6.19355 11.5862 6.19355 11.6129V14.4516H12.3871V11.6129C12.3871 11.5845 12.3867 11.5562 12.386 11.528C12.341 9.85695 10.9722 8.51613 9.29032 8.51613C7.60675 8.51613 6.23695 9.85961 6.19456 11.533ZM13.9355 11.6129V14.4516H17.0323V12C17.0323 10.9311 16.1657 10.0645 15.0968 10.0645C14.6047 10.0645 14.1556 10.2476 13.8135 10.551C13.8845 10.8546 13.9258 11.1697 13.934 11.493C13.935 11.5329 13.9355 11.5728 13.9355 11.6129ZM4.64516 14.4516V11.6129C4.64516 11.5694 4.64576 11.526 4.64695 11.4828C4.65574 11.1631 4.69684 10.8514 4.76711 10.551C4.42502 10.2476 3.97594 10.0645 3.48387 10.0645C2.41493 10.0645 1.54839 10.9311 1.54839 12V14.4516H4.64516Z" fill="#14142B"/>
</svg>
