<svg width="28" height="28" viewBox="0 0 28 28" fill="curentColor" xmlns="http://www.w3.org/2000/svg">
<path d="M9.31775 19.6846C8.94952 19.6846 8.63784 19.557 8.38269 19.3019C8.12757 19.0468 8 18.7351 8 18.3668V10.0678C8 9.69954 8.12757 9.38785 8.38269 9.13271C8.63784 8.87757 8.94952 8.75 9.31775 8.75H17.6168C17.9851 8.75 18.2967 8.87757 18.5519 9.13271C18.807 9.38785 18.9346 9.69954 18.9346 10.0678V13.4042L20.6464 11.6924C20.9614 11.3774 21.5 11.6005 21.5 12.0459V16.3887C21.5 16.8341 20.9614 17.0572 20.6464 16.7422L18.9346 15.0304V18.3668C18.9346 18.7351 18.807 19.0468 18.5519 19.3019C18.2967 19.557 17.9851 19.6846 17.6168 19.6846H9.31775ZM9.31775 18.5912H17.6168C17.6823 18.5912 17.736 18.5701 17.7781 18.5281C17.8201 18.486 17.8412 18.4323 17.8412 18.3668V10.0678C17.8412 10.0023 17.8201 9.9486 17.7781 9.90654C17.736 9.86448 17.6823 9.84345 17.6168 9.84345H9.31775C9.25233 9.84345 9.19858 9.86448 9.15652 9.90654C9.11446 9.9486 9.09343 10.0023 9.09343 10.0678V18.3668C9.09343 18.4323 9.11446 18.486 9.15652 18.5281C9.19858 18.5701 9.25233 18.5912 9.31775 18.5912Z" fill="currentColor"/>
</svg>

