<svg width="44" height="45" viewBox="0 0 44 45" fill="none" xmlns="http://www.w3.org/2000/svg">
<rect y="0.5" width="44" height="44" rx="5" fill="#FFEBEE"/>
<path d="M19.75 26.55L26.05 22.5L19.75 18.45V26.55ZM22 31.5C20.755 31.5 19.585 31.2636 18.49 30.7908C17.395 30.3186 16.4425 29.6775 15.6325 28.8675C14.8225 28.0575 14.1814 27.105 13.7092 26.01C13.2364 24.915 13 23.745 13 22.5C13 21.255 13.2364 20.085 13.7092 18.99C14.1814 17.895 14.8225 16.9425 15.6325 16.1325C16.4425 15.3225 17.395 14.6811 18.49 14.2083C19.585 13.7361 20.755 13.5 22 13.5C23.245 13.5 24.415 13.7361 25.51 14.2083C26.605 14.6811 27.5575 15.3225 28.3675 16.1325C29.1775 16.9425 29.8186 17.895 30.2908 18.99C30.7636 20.085 31 21.255 31 22.5C31 23.745 30.7636 24.915 30.2908 26.01C29.8186 27.105 29.1775 28.0575 28.3675 28.8675C27.5575 29.6775 26.605 30.3186 25.51 30.7908C24.415 31.2636 23.245 31.5 22 31.5Z" fill="#EF5350"/>
</svg>
