<svg width="34" height="34" viewBox="0 0 34 34" fill="none" xmlns="http://www.w3.org/2000/svg">
<path fill-rule="evenodd" clip-rule="evenodd" d="M28.6897 5.31016C26.0348 2.65526 21.7304 2.65526 19.0755 5.31016L7.92632 16.4593L8.47067 23.5359L20.3986 11.608L22.3919 13.6013L17.3361 18.6572H24.9569L28.6897 14.9244C31.3446 12.2695 31.3446 7.96506 28.6897 5.31016ZM22.138 21.4762H14.5171L10.464 25.5292L17.5406 26.0736L22.138 21.4762ZM7.83867 28.1546L18.6171 28.9837L30.683 16.9177C34.4388 13.1619 34.4388 7.07262 30.683 3.31683C26.9273 -0.438948 20.8379 -0.438943 17.0822 3.31684L5.01619 15.3828L5.84531 26.1613L0.499924 31.5067L2.49325 33.5L7.83867 28.1546Z" fill="#D32F2F"/>
</svg>
