<svg width="48" height="48" viewBox="0 0 48 48" fill="none" xmlns="http://www.w3.org/2000/svg">
<g id="Line Lightmode/General/Call">
<path id="Vector" fill-rule="evenodd" clip-rule="evenodd" d="M41.6199 32.7041C41.8276 30.8344 40.9047 29.0201 39.2713 28.0869L35.3651 25.8554C33.5181 24.8003 31.1934 25.1118 29.6893 26.6159L28.6872 27.618C28.2913 28.0138 27.9141 28.015 27.7069 27.9168C26.7336 27.4558 25.2571 26.5682 23.6053 24.9164C21.9535 23.2647 21.066 21.7881 20.6049 20.8149C20.5068 20.6077 20.5079 20.2304 20.9038 19.8346L21.9059 18.8325C23.41 17.3283 23.7214 15.0037 22.6663 13.1567L20.4348 9.25047C19.5017 7.61706 17.6873 6.69415 15.8177 6.90189L10.3643 7.50782C8.21483 7.74665 6.27742 9.53432 6.53822 12.0196C6.95529 15.9941 8.89886 23.553 16.9327 31.5869C24.9665 39.6206 32.5263 41.5652 36.5013 41.983C38.9869 42.2442 40.7751 40.3067 41.014 38.1568L41.6199 32.7041ZM37.7113 30.8177C38.2557 31.1288 38.5634 31.7336 38.4941 32.3568L37.8883 37.8095C37.847 38.1806 37.6838 38.4671 37.4921 38.6402C37.3124 38.8025 37.0941 38.883 36.83 38.8553C33.4895 38.5042 26.6253 36.8318 19.1565 29.363C11.6877 21.8942 10.0165 15.0311 9.66602 11.6914C9.63831 11.4274 9.71884 11.2092 9.8811 11.0296C10.0542 10.838 10.3406 10.6748 10.7116 10.6336L16.165 10.0276C16.7882 9.95838 17.393 10.266 17.704 10.8105L19.9355 14.7167C20.2872 15.3324 20.1834 16.1073 19.682 16.6086L18.6799 17.6107C17.5887 18.702 16.9606 20.4678 17.7627 22.1612C18.3685 23.44 19.4594 25.2182 21.3815 27.1403C23.3035 29.0624 25.0818 30.1533 26.3605 30.759C28.0539 31.5612 29.8197 30.9331 30.911 29.8418L31.9131 28.8397C32.4145 28.3383 33.1894 28.2345 33.805 28.5862L37.7113 30.8177Z" fill="#14142B"/>
</g>
</svg>
