<svg width="42" height="42" viewBox="0 0 42 42" fill="none" xmlns="http://www.w3.org/2000/svg">
    <mask id="ah5aokrhca" style="mask-type:alpha" maskUnits="userSpaceOnUse" x="0" y="0" width="42" height="42">
        <path fill="#fff" d="M0 0h41.935v41.935H0z"/>
    </mask>
    <g mask="url(#ah5aokrhca)">
        <path d="M20.968 6.99c-.961 0-1.784-.343-2.468-1.028-.684-.684-1.027-1.506-1.027-2.467 0-.961.343-1.784 1.027-2.47A3.364 3.364 0 0 1 20.968 0c.96 0 1.784.342 2.469 1.026.683.685 1.025 1.508 1.025 2.469 0 .96-.341 1.783-1.025 2.467-.685.685-1.508 1.027-2.47 1.027zm-5.242 26.209V12.23a69.913 69.913 0 0 1-5.33-.655 51.813 51.813 0 0 1-5.154-1.092l.874-3.495c2.271.612 4.688 1.056 7.25 1.332 2.564.277 5.097.416 7.602.416 2.504 0 5.038-.14 7.6-.416 2.563-.276 4.98-.72 7.252-1.332l.874 3.495c-1.631.437-3.35.8-5.155 1.092-1.806.291-3.582.51-5.33.655V33.2h-3.494V22.715H19.22V33.2h-3.494zm-1.748 8.736c-.495 0-.91-.167-1.245-.503a1.69 1.69 0 0 1-.502-1.244c0-.495.167-.91.502-1.244.335-.335.75-.503 1.245-.503.496 0 .91.168 1.246.503.335.334.502.75.502 1.244 0 .495-.167.91-.502 1.244-.335.336-.75.503-1.245.503zm6.99 0c-.495 0-.91-.167-1.244-.503a1.687 1.687 0 0 1-.504-1.244c0-.495.168-.91.504-1.244a1.686 1.686 0 0 1 1.244-.503c.495 0 .91.168 1.246.503.334.334.501.75.501 1.244 0 .495-.167.91-.501 1.244-.336.336-.751.503-1.246.503zm6.989 0c-.495 0-.91-.167-1.244-.503a1.686 1.686 0 0 1-.503-1.244c0-.495.167-.91.503-1.244a1.686 1.686 0 0 1 1.244-.503c.495 0 .91.168 1.244.503.336.334.503.75.503 1.244 0 .495-.167.91-.503 1.244a1.687 1.687 0 0 1-1.244.503z" fill="#fff"/>
    </g>
</svg>
