<svg width="42" height="42" viewBox="0 0 42 42" fill="none" xmlns="http://www.w3.org/2000/svg">
    <path fill-rule="evenodd" clip-rule="evenodd" d="M20.968 5.99 5.99 20.969l14.977 14.977 14.977-14.977L20.968 5.99zm2.496-3.494a3.53 3.53 0 0 0-4.992 0L2.496 18.472a3.53 3.53 0 0 0 0 4.992l15.976 15.975a3.53 3.53 0 0 0 4.992 0l15.975-15.975a3.53 3.53 0 0 0 0-4.992L23.464 2.496z" fill="#fff"/>
    <path fill-rule="evenodd" clip-rule="evenodd" d="m21.074 19.405-1.669 1.67 1.67 1.668 1.668-1.669-1.669-1.669zm.999-4.992a1.412 1.412 0 0 0-1.997 0l-5.663 5.663a1.412 1.412 0 0 0 0 1.997l5.663 5.663a1.412 1.412 0 0 0 1.997 0l5.662-5.663a1.412 1.412 0 0 0 0-1.997l-5.662-5.663z" fill="#fff"/>
</svg>
