<svg width="42" height="42" viewBox="0 0 42 42" fill="none" xmlns="http://www.w3.org/2000/svg">
    <mask id="lnkd7y4u8a" style="mask-type:alpha" maskUnits="userSpaceOnUse" x="0" y="0" width="42" height="42">
        <path fill="#fff" d="M0 0h41.935v41.935H0z"/>
    </mask>
    <g mask="url(#lnkd7y4u8a)">
        <path d="M20.444 31.452c-2.796-.146-5.155-1.224-7.077-3.233-1.922-2.01-2.883-4.426-2.883-7.251 0-2.912 1.02-5.388 3.058-7.426 2.038-2.039 4.514-3.058 7.426-3.058 2.825 0 5.242.96 7.251 2.883 2.01 1.922 3.087 4.28 3.233 7.077l-3.67-1.092c-.378-1.573-1.194-2.861-2.446-3.866-1.252-1.005-2.708-1.508-4.368-1.508-1.922 0-3.568.685-4.936 2.054-1.369 1.368-2.053 3.014-2.053 4.936 0 1.66.502 3.116 1.508 4.368 1.004 1.252 2.292 2.068 3.865 2.446l1.092 3.67zm2.096 6.901a3.616 3.616 0 0 1-.786.088h-.786c-2.417 0-4.689-.46-6.815-1.377-2.126-.917-3.975-2.161-5.547-3.734-1.573-1.573-2.818-3.422-3.734-5.548-.918-2.126-1.377-4.397-1.377-6.814s.459-4.689 1.377-6.815c.916-2.126 2.161-3.975 3.734-5.547 1.572-1.573 3.421-2.818 5.547-3.736 2.126-.917 4.398-1.375 6.815-1.375 2.417 0 4.689.458 6.814 1.375 2.126.918 3.976 2.163 5.548 3.736 1.573 1.572 2.817 3.421 3.734 5.547.918 2.126 1.377 4.398 1.377 6.815v.786c0 .262-.03.524-.087.786l-3.408-1.048v-.524c0-3.903-1.354-7.208-4.062-9.916-2.709-2.709-6.014-4.063-9.916-4.063s-7.208 1.354-9.916 4.063c-2.708 2.708-4.063 6.013-4.063 9.916 0 3.902 1.355 7.207 4.063 9.916 2.708 2.708 6.014 4.062 9.916 4.062h.524l1.048 3.407zm13.324.962-7.47-7.47-2.184 6.596-5.242-17.473L38.44 26.21l-6.596 2.184 7.47 7.47-3.451 3.45z" fill="#fff"/>
    </g>
</svg>
