<svg width="16" height="16" viewBox="0 0 16 16" fill="none" xmlns="http://www.w3.org/2000/svg">
    <path d="M11.828 9.41a.794.794 0 0 1-.556-.23.793.793 0 0 1 0-1.12l1.682-1.681a1.587 1.587 0 0 0 0-2.246l-1.127-1.127a1.635 1.635 0 0 0-2.245 0L7.9 4.688a.793.793 0 0 1-1.12-1.11l1.683-1.683a3.253 3.253 0 0 1 4.491 0l1.12 1.12a3.176 3.176 0 0 1 0 4.49L12.382 9.18a.793.793 0 0 1-.555.23zM4.536 15.718a3.173 3.173 0 0 1-2.246-.928L1.171 13.67a3.175 3.175 0 0 1 0-4.491l1.69-1.683a.793.793 0 0 1 1.111 1.12L2.29 10.298a1.586 1.586 0 0 0 0 2.245l1.127 1.127a1.635 1.635 0 0 0 2.245 0l1.683-1.682a.793.793 0 1 1 1.119 1.11L6.78 14.783a3.174 3.174 0 0 1-2.245.936z" fill="#2D2D39"/>
    <path d="M5.099 11.655a.793.793 0 0 1-.564-1.356L9.59 5.252a.794.794 0 1 1 1.119 1.127l-5.055 5.046a.793.793 0 0 1-.555.23z" fill="#2D2D39"/>
</svg>
