<svg width="8" height="17" viewBox="0 0 8 17" fill="none" xmlns="http://www.w3.org/2000/svg">
<path d="M7.80488 5.37804H5.14637V3.66097C5.13269 3.558 5.14191 3.45329 5.1734 3.3543C5.20488 3.25532 5.25781 3.16451 5.32846 3.08836C5.39911 3.01221 5.48572 2.95261 5.58207 2.91381C5.67842 2.87501 5.78217 2.85796 5.88587 2.8639H7.76195V0.0219433L5.17852 0.0121888C4.7098 -0.0285339 4.23782 0.0330678 3.79526 0.19273C3.35269 0.352392 2.95011 0.606302 2.61534 0.936894C2.28057 1.26749 2.02163 1.66686 1.85642 2.1074C1.69122 2.54793 1.62371 3.01909 1.65855 3.48829V5.37804H0V8.30487H1.65855V16.5976H5.14637V8.31073H7.50048L7.80488 5.37804Z" fill="#277DE4"/>
</svg>
