<svg width="18" height="19" viewBox="0 0 18 19" fill="none" xmlns="http://www.w3.org/2000/svg">
    <mask id="ogbsa1h52a" style="mask-type:alpha" maskUnits="userSpaceOnUse" x="0" y="0" width="18" height="19">
        <path fill="#D9D9D9" d="M.396.733h17.257v17.333H.396z"/>
    </mask>
    <g mask="url(#ogbsa1h52a)">
        <path d="M5.43 16.622V12.29H4.28a1.66 1.66 0 0 1-1.223-.506 1.675 1.675 0 0 1-.504-1.227c0-.35.096-.672.288-.967.192-.294.443-.514.755-.658l4.71-2.095v-.47a2.16 2.16 0 0 1-1.043-.785 2.068 2.068 0 0 1-.395-1.237c0-.601.21-1.113.629-1.534.42-.422.929-.632 1.528-.632s1.108.21 1.528.632c.42.421.629.933.629 1.534H9.744a.702.702 0 0 0-.207-.515.696.696 0 0 0-.512-.207.694.694 0 0 0-.512.207.7.7 0 0 0-.207.515c0 .205.069.377.207.515a.694.694 0 0 0 .512.208.702.702 0 0 1 .719.722v1.047l4.71 2.095c.311.144.563.364.755.658.191.295.287.617.287.966 0 .482-.168.891-.503 1.228a1.66 1.66 0 0 1-1.223.506h-1.15v4.333H5.43zm-1.15-5.778h1.15v-.722h7.19v.722h1.15c.084 0 .153-.03.207-.09a.34.34 0 0 0 .081-.235.26.26 0 0 0-.045-.153.298.298 0 0 0-.135-.1L9.025 8.1 4.17 10.267a.298.298 0 0 0-.135.099.26.26 0 0 0-.044.153c0 .097.027.175.08.235.054.06.123.09.207.09zm2.588 4.334h4.314v-3.611H6.868v3.61z" fill="#2D2D39"/>
    </g>
</svg>
