<svg width="16" height="16" viewBox="0 0 16 16" fill="none" xmlns="http://www.w3.org/2000/svg">
    <mask id="fqwv2ngu9a" style="mask-type:alpha" maskUnits="userSpaceOnUse" x="0" y="0" width="16" height="16">
        <path fill="#D9D9D9" d="M.259.2H15.79v15.6H.259z"/>
    </mask>
    <g mask="url(#fqwv2ngu9a)">
        <path d="M4.79 13.2H2.847c-.356 0-.66-.127-.914-.381a1.255 1.255 0 0 1-.38-.919V4.1c0-.357.126-.663.38-.918.253-.254.558-.382.914-.382h10.354v1.3H2.848v7.8h1.941v1.3zm1.293 0v-1.17a1.978 1.978 0 0 1-.477-.642 1.848 1.848 0 0 1-.17-.788c0-.281.057-.544.17-.788a1.98 1.98 0 0 1 .477-.642V8h2.589v1.17c.205.184.364.398.477.642.114.244.17.507.17.788 0 .282-.056.545-.17.788a1.978 1.978 0 0 1-.477.642v1.17H6.083zm1.295-1.625c.27 0 .498-.095.687-.284a.94.94 0 0 0 .283-.69.94.94 0 0 0-.283-.691.932.932 0 0 0-.687-.285.932.932 0 0 0-.688.285.94.94 0 0 0-.283.69c0 .271.094.501.283.69.189.19.418.285.688.285zm6.47 1.625h-3.235a.623.623 0 0 1-.46-.187.629.629 0 0 1-.187-.463V6.7c0-.184.062-.338.187-.463a.624.624 0 0 1 .46-.187h3.236c.183 0 .337.062.46.187.125.125.187.28.187.463v5.85a.629.629 0 0 1-.186.463.623.623 0 0 1-.461.187zm-2.588-1.3h1.942V7.35H11.26v4.55z" fill="#2D2D39"/>
    </g>
</svg>
