<svg width="120" height="120" viewBox="0 0 120 120" fill="none" xmlns="http://www.w3.org/2000/svg">
<g id="alert" clip-path="url(#clip0_5201_20035)">
<g id="Group">
<path id="Vector" fill-rule="evenodd" clip-rule="evenodd" d="M57.7318 19.4937C72.2134 19.3137 88.4422 5.84005 99.3262 15.3969C110.16 24.9105 99.499 42.6033 100.435 56.9913C101.508 73.4553 116.964 92.8905 105.117 104.377C93.235 115.897 74.2534 99.3801 57.7318 98.3913C43.1902 97.5225 26.275 109.045 15.6934 99.0297C5.10704 89.0073 13.7398 71.5689 13.999 56.9913C14.2486 42.8889 6.44624 25.5945 17.155 16.4145C27.8614 7.23685 43.6318 19.6689 57.7318 19.4961V19.4937Z" fill="#F3FAFF"/>
<g id="Group_2">
<path id="Vector_2" d="M67.4278 106.792C66.967 106.792 66.511 106.672 66.1006 106.434C63.2062 104.764 61.1326 102.052 60.259 98.7995C59.3878 95.5475 59.8294 92.1635 61.4998 89.2667L75.247 65.4539C76.183 63.8315 77.695 62.6699 79.5046 62.1851C81.3142 61.7003 83.2054 61.9499 84.8254 62.8859L85.867 63.4883C89.215 65.4203 90.367 69.7187 88.4326 73.0691L69.7342 105.457C69.379 106.074 68.8054 106.513 68.1166 106.698C67.8862 106.758 67.6534 106.789 67.423 106.789L67.4278 106.792ZM81.3334 62.5259C80.7742 62.5259 80.2126 62.6003 79.6582 62.7491C77.9974 63.1931 76.6102 64.2587 75.751 65.7467L62.0038 89.5595C60.4102 92.3195 59.9902 95.5499 60.8206 98.6507C61.651 101.752 63.631 104.339 66.391 105.932C66.8734 106.211 67.4326 106.285 67.9726 106.141C68.5102 105.997 68.959 105.652 69.2374 105.172L87.9358 72.7835C89.7094 69.7115 88.6534 65.7683 85.5814 63.9947L84.5398 63.3923C83.5486 62.8211 82.4494 62.5283 81.3334 62.5283V62.5259Z" fill="#4B9EF9"/>
<path id="Vector_3" d="M79.9358 82.6558L58.9307 75.7577C54.8309 74.4114 52.5951 69.989 53.9414 65.8893L55.2047 62.0426C55.6839 60.5832 57.256 59.7885 58.7153 60.2677L88.3989 70.0157C88.9142 70.1849 89.1944 70.7392 89.0252 71.2545L86.346 79.4131C85.4714 82.0763 82.5991 83.5304 79.9336 82.655L79.9358 82.6558Z" fill="#D7ECFD"/>
<g id="Group_3">
<path id="Vector_4" d="M95.8941 50.4916C92.4093 43.798 86.8629 43.6756 79.3845 40.0684C81.8517 46.3228 82.7853 53.1652 80.9301 59.7196C78.8469 67.0828 73.7709 72.2332 69.2949 75.5308C74.1213 77.17 79.2765 79.0828 85.2117 77.1964C92.7165 74.8108 96.0549 68.0764 96.2949 67.5748C100.272 59.2228 96.1005 50.8828 95.8965 50.4892L95.8941 50.4916Z" fill="#1886FE"/>
<path id="Vector_5" d="M80.93 59.7195C82.7852 53.1651 81.8516 46.3203 79.3844 40.0683C76.478 38.6667 73.2812 36.7419 69.7988 33.6987C61.3916 26.3523 58.8116 19.0419 54.6884 19.9683C51.3908 20.7099 50.0228 26.0667 49.346 28.6155C46.6772 38.6931 42.146 52.8411 33.8276 74.0211C49.0508 70.8795 59.9948 72.5691 67.4036 74.9067C68.0276 75.1035 68.6564 75.3147 69.2924 75.5307C73.7684 72.2307 78.8444 67.0827 80.9276 59.7195H80.93Z" fill="#4B9EF9"/>
</g>
<g id="Group_4">
<path id="Vector_6" fill-rule="evenodd" clip-rule="evenodd" d="M33.878 76.925C32.4956 76.925 31.1684 76.673 29.9276 76.1762C25.154 74.2634 22.2212 69.0458 21.6692 61.4834C21.1724 54.6554 22.6556 46.5075 25.8476 38.5394C31.7804 23.7218 42.0524 13.373 50.8268 13.373C52.2092 13.373 53.5364 13.625 54.7772 14.1218C64.0316 17.8274 65.8244 34.3586 58.8572 51.7586C52.9244 66.5762 42.6524 76.925 33.878 76.925Z" fill="#1886FE"/>
<path id="Vector_7" d="M50.8269 16.275C51.8277 16.275 52.7877 16.4502 53.6997 16.815C61.3293 19.8702 62.4333 35.0334 56.1669 50.6814C50.6493 64.4622 41.2533 74.0262 33.8805 74.0262C32.8797 74.0262 31.9197 73.851 31.0077 73.4862C23.3781 70.431 22.2741 55.2678 28.5405 39.6198C34.0581 25.839 43.4541 16.2774 50.8269 16.275ZM50.8269 10.4766C40.7397 10.4766 29.6205 21.3222 23.1573 37.4646C19.8069 45.8334 18.2517 54.4398 18.7797 61.6974C19.4157 70.4262 22.9917 76.5246 28.8525 78.8694C30.4365 79.503 32.1285 79.8246 33.8805 79.8246C43.9677 79.8246 55.0869 68.979 61.5525 52.8366C64.9029 44.4678 66.4581 35.8614 65.9301 28.6038C65.2941 19.875 61.7181 13.7766 55.8573 11.4318C54.2733 10.7982 52.5813 10.4766 50.8293 10.4766H50.8269Z" fill="#DBEFFF"/>
</g>
<path id="Vector_8" d="M58.43 44.0402L47.3612 40.4042C43.8332 39.245 40.034 41.165 38.8748 44.693L38.5004 45.8354C37.3412 49.3634 39.2612 53.1626 42.7892 54.3218L52.8956 57.641C54.098 55.4762 55.2092 53.1458 56.198 50.6786C57.0932 48.4442 57.8324 46.2194 58.43 44.0402Z" fill="#D7ECFD"/>
</g>
</g>
</g>
<defs>
<clipPath id="clip0_5201_20035">
<rect width="120" height="120" fill="white"/>
</clipPath>
</defs>
</svg>
