<svg width="19" height="19" viewBox="0 0 19 19" fill="none" xmlns="http://www.w3.org/2000/svg">
<path d="M9.5 18.5C8.255 18.5 7.085 18.2638 5.99001 17.7914C4.89501 17.3189 3.94251 16.6778 3.13251 15.868C2.3225 15.0581 1.68125 14.1058 1.20875 13.011C0.736251 11.9162 0.5 10.7464 0.5 9.50159C0.5 8.2568 0.736211 7.08677 1.20863 5.99148C1.68106 4.89618 2.32219 3.94343 3.13203 3.13322C3.94189 2.323 4.89423 1.68157 5.98904 1.20894C7.08384 0.736315 8.25363 0.5 9.49841 0.5C10.7432 0.5 11.9132 0.736252 13.0085 1.20875C14.1038 1.68125 15.0566 2.32251 15.8668 3.13251C16.677 3.94251 17.3184 4.89501 17.7911 5.99002C18.2637 7.085 18.5 8.255 18.5 9.5V16.7874C18.5 17.2584 18.3323 17.6616 17.9969 17.9969C17.6616 18.3323 17.2584 18.5 16.7874 18.5H9.5ZM9.5 17.079C11.6158 17.079 13.4079 16.3448 14.8763 14.8763C16.3448 13.4079 17.079 11.6158 17.079 9.5C17.079 7.38421 16.3448 5.5921 14.8763 4.12367C13.4079 2.65525 11.6158 1.92103 9.5 1.92103C7.3842 1.92103 5.59209 2.65525 4.12367 4.12367C2.65525 5.5921 1.92103 7.38421 1.92103 9.5C1.92103 9.90694 1.95079 10.305 2.0103 10.6943C2.06983 11.0835 2.16214 11.4622 2.28724 11.8302L5.71964 8.39781L8.85505 11.0268L12.5134 7.36839H10.6842V5.94738H14.9474V10.2105H13.5264V8.39044L8.92246 12.9706L5.81982 10.318L2.91577 13.2221C3.56071 14.3723 4.46269 15.3026 5.62172 16.0132C6.78075 16.7237 8.07351 17.079 9.5 17.079ZM16.496 17.334C16.7279 17.334 16.9256 17.2523 17.089 17.089C17.2523 16.9256 17.334 16.7279 17.334 16.496C17.334 16.264 17.2523 16.0663 17.089 15.9029C16.9256 15.7396 16.7279 15.6579 16.496 15.6579C16.264 15.6579 16.0663 15.7396 15.9029 15.9029C15.7396 16.0663 15.6579 16.264 15.6579 16.496C15.6579 16.7279 15.7396 16.9256 15.9029 17.089C16.0663 17.2523 16.264 17.334 16.496 17.334Z" fill="#1C1B1F"/>
</svg>
