<svg width="20" height="20" viewBox="0 0 20 20" fill="none" xmlns="http://www.w3.org/2000/svg">
<path d="M5.94738 15.2632C5.94738 15.6992 6.30083 16.0526 6.73683 16.0526H13.0526C13.4886 16.0526 13.8421 15.6992 13.8421 15.2632V15.2632C13.8421 14.8272 13.4886 14.4737 13.0526 14.4737H6.73683C6.30083 14.4737 5.94738 14.8272 5.94738 15.2632V15.2632ZM5.94738 11.0526C5.94738 11.4886 6.30083 11.8421 6.73683 11.8421H13.0526C13.4886 11.8421 13.8421 11.4886 13.8421 11.0526V11.0526C13.8421 10.6166 13.4886 10.2632 13.0526 10.2632H6.73683C6.30083 10.2632 5.94738 10.6166 5.94738 11.0526V11.0526ZM3.90285 20C3.37113 20 2.92105 19.8158 2.55263 19.4474C2.18421 19.0789 2 18.6289 2 18.0972V1.90285C2 1.37113 2.18421 0.921055 2.55263 0.552633C2.92105 0.184211 3.37113 0 3.90285 0H12.2632L17.7895 5.52628V18.0972C17.7895 18.6289 17.6053 19.0789 17.2368 19.4474C16.8684 19.8158 16.4183 20 15.8866 20H3.90285ZM12.4737 6.31575C11.9214 6.31575 11.4737 5.86804 11.4737 5.31575V1.57893H3.90285C3.82186 1.57893 3.74763 1.61266 3.68014 1.68014C3.61266 1.74763 3.57892 1.82186 3.57892 1.90285V18.0972C3.57892 18.1781 3.61266 18.2524 3.68014 18.3199C3.74763 18.3873 3.82186 18.4211 3.90285 18.4211H15.8866C15.9676 18.4211 16.0418 18.3873 16.1093 18.3199C16.1768 18.2524 16.2105 18.1781 16.2105 18.0972V6.31575H12.4737Z" fill="#14142B"/>
</svg>
