<svg width="20" height="20" viewBox="0 0 20 20" fill="none" xmlns="http://www.w3.org/2000/svg">
<mask id="mask0_223_743" style="mask-type:alpha" maskUnits="userSpaceOnUse" x="0" y="0" width="20" height="20">
<rect width="20" height="20" fill="#D9D9D9"/>
</mask>
<g mask="url(#mask0_223_743)">
<path d="M8.2257 14.3631C8.61141 14.763 9.16902 14.9499 9.89851 14.9238C10.628 14.8978 11.1605 14.6152 11.4959 14.0762L15.9986 6.77308C16.116 6.58181 16.1034 6.41228 15.9609 6.26448C15.8183 6.11668 15.6548 6.10363 15.4704 6.22535L8.50241 10.9463C7.99931 11.294 7.73099 11.8505 7.69745 12.6155C7.66391 13.3806 7.83999 13.9631 8.2257 14.3631ZM2.81737 18.6667C2.53228 18.6667 2.25138 18.5928 1.97467 18.445C1.69797 18.2972 1.49253 18.0842 1.35837 17.8059C0.922352 16.9713 0.586951 16.1236 0.352171 15.2629C0.11739 14.4022 0 13.485 0 12.5112C0 11.068 0.264128 9.70735 0.792384 8.42932C1.32064 7.15128 2.03756 6.03843 2.94314 5.09077C3.84872 4.14311 4.90943 3.39106 6.12525 2.83464C7.34108 2.27821 8.63657 2 10.0117 2C10.7664 2 11.5546 2.09998 12.3763 2.29995C13.198 2.49991 14.0114 2.83464 14.8163 3.30412C15.1517 3.49539 15.3362 3.72579 15.3697 3.99531C15.4033 4.26482 15.3194 4.48652 15.1182 4.66041C14.984 4.76474 14.8289 4.82994 14.6528 4.85602C14.4767 4.88211 14.3132 4.85168 14.1623 4.76474C13.458 4.36481 12.7285 4.06486 11.9738 3.86489C11.2192 3.66493 10.5651 3.56495 10.0117 3.56495C7.66391 3.56495 5.65989 4.43436 3.99965 6.17319C2.33942 7.91201 1.5093 10.0247 1.5093 12.5112C1.5093 13.2937 1.61412 14.0849 1.82374 14.8847C2.03337 15.6846 2.33103 16.4236 2.71675 17.1017H17.2815C17.6505 16.4757 17.9439 15.7454 18.1619 14.9108C18.38 14.0762 18.489 13.2589 18.489 12.459C18.489 11.8157 18.4093 11.1288 18.25 10.3985C18.0907 9.66823 17.8182 8.9727 17.4325 8.31195C17.3318 8.13806 17.2983 7.95983 17.3318 7.77726C17.3654 7.59468 17.4492 7.44253 17.5834 7.32081C17.7679 7.16432 17.9691 7.10781 18.1871 7.15128C18.4051 7.19475 18.5728 7.32081 18.6902 7.52947C19.1095 8.32933 19.4281 9.12485 19.6461 9.91601C19.8641 10.7072 19.9815 11.5027 19.9983 12.3026C20.015 13.3459 19.9102 14.3283 19.6838 15.2499C19.4574 16.1714 19.1178 17.0235 18.665 17.8059C18.4638 18.2059 18.25 18.4493 18.0236 18.5363C17.7972 18.6232 17.5163 18.6667 17.1809 18.6667H2.81737Z" fill="#14142B"/>
</g>
</svg>
