<svg width="50" height="51" viewBox="0 0 50 51" fill="none" xmlns="http://www.w3.org/2000/svg">
<rect y="0.5" width="50" height="50" fill="#D0FFFA"/>
<mask id="mask0_2406_84" style="mask-type:alpha" maskUnits="userSpaceOnUse" x="13" y="13" width="24" height="25">
<rect x="13" y="13.5" width="24" height="24" fill="#32BEB1"/>
</mask>
<g mask="url(#mask0_2406_84)">
<path d="M17.7602 33.5C17.2848 33.5 16.8824 33.3353 16.553 33.0059C16.2235 32.6765 16.0588 32.2741 16.0588 31.7986V19.2014C16.0588 18.7259 16.2235 18.3235 16.553 17.9941C16.8824 17.6647 17.2848 17.5 17.7602 17.5H32.2398C32.7152 17.5 33.1177 17.6647 33.4471 17.9941C33.7765 18.3235 33.9412 18.7259 33.9412 19.2014V31.7986C33.9412 32.2741 33.7765 32.6765 33.4471 33.0059C33.1177 33.3353 32.7152 33.5 32.2398 33.5H17.7602ZM19.715 29.8439H30.2851V28.4321H19.715V29.8439ZM19.715 26.2059H23.1901V21.1561H19.715V26.2059ZM25.2534 26.2059H30.2851V24.7941H25.2534V26.2059ZM25.2534 22.5678H30.2851V21.1561H25.2534V22.5678Z" fill="#32BEB1"/>
</g>
</svg>
