<svg width="16" height="16" viewBox="0 0 16 16" fill="none" xmlns="http://www.w3.org/2000/svg">
<path d="M7.57387 11.9585H8.51935V7.16681H7.57387V11.9585ZM7.99977 5.8335C8.15974 5.8335 8.29434 5.78095 8.40358 5.67587C8.51282 5.5708 8.56743 5.43852 8.56743 5.27902C8.56743 5.11304 8.51294 4.97486 8.40396 4.86448C8.29496 4.75409 8.16048 4.69889 8.00052 4.69889C7.83521 4.69889 7.69927 4.75409 7.59271 4.86448C7.48614 4.97486 7.43285 5.11304 7.43285 5.27902C7.43285 5.43852 7.48734 5.5708 7.59633 5.67587C7.70533 5.78095 7.83981 5.8335 7.99977 5.8335ZM8.00708 15.9168C6.91048 15.9168 5.88342 15.709 4.92589 15.2935C3.96836 14.8779 3.12979 14.3105 2.41016 13.5912C1.69052 12.8718 1.12284 12.0331 0.7071 11.075C0.291364 10.1168 0.0834961 9.08889 0.0834961 7.99112C0.0834961 6.89869 0.291274 5.87186 0.70683 4.91062C1.12239 3.94939 1.68982 3.11243 2.40912 2.39975C3.12844 1.68705 3.96717 1.12284 4.92531 0.7071C5.88345 0.291364 6.9114 0.0834961 8.00916 0.0834961C9.10159 0.0834961 10.1284 0.291274 11.0897 0.706829C12.0509 1.12239 12.8879 1.68634 13.6005 2.3987C14.3132 3.11108 14.8774 3.94878 15.2932 4.91181C15.7089 5.87482 15.9168 6.90196 15.9168 7.99321C15.9168 9.0898 15.709 10.1169 15.2935 11.0744C14.8779 12.0319 14.3139 12.8692 13.6016 13.5863C12.8892 14.3034 12.0515 14.871 11.0885 15.2893C10.1255 15.7076 9.09833 15.9168 8.00708 15.9168ZM8.01056 14.9713C9.94378 14.9713 11.5872 14.2923 12.9409 12.9344C14.2945 11.5765 14.9713 9.9283 14.9713 7.98973C14.9713 6.0565 14.2958 4.41307 12.9447 3.05943C11.5937 1.70581 9.94552 1.029 8.00014 1.029C6.06852 1.029 4.42375 1.70451 3.06585 3.05554C1.70795 4.40657 1.029 6.05477 1.029 8.00014C1.029 9.93177 1.70795 11.5765 3.06585 12.9344C4.42375 14.2923 6.07199 14.9713 8.01056 14.9713Z" fill="#14142B"/>
</svg>
