<svg width="17" height="14" viewBox="0 0 17 14" fill="none" xmlns="http://www.w3.org/2000/svg">
<path fill-rule="evenodd" clip-rule="evenodd" d="M8.50002 1.45551C5.74445 1.45551 3.22006 3.18102 1.60266 5.99813C1.40646 6.33986 1.40646 6.7598 1.60266 7.10153C3.22007 9.91861 5.74444 11.6441 8.49999 11.6441C11.2555 11.6441 13.7799 9.91858 15.3973 7.10147C15.5935 6.75974 15.5935 6.3398 15.3973 5.99807C13.7799 3.18099 11.2556 1.45551 8.50002 1.45551ZM0.340396 5.27342C2.14342 2.133 5.09003 0 8.50002 0C11.91 0 14.8566 2.13297 16.6596 5.27336C17.1135 6.06387 17.1135 7.03566 16.6596 7.82618C14.8566 10.9666 11.91 13.0996 8.49999 13.0996C5.09002 13.0996 2.14343 10.9666 0.340404 7.82624C-0.113465 7.03573 -0.113468 6.06394 0.340396 5.27342ZM8.49994 5.09428C7.69608 5.09428 7.04443 5.74593 7.04443 6.54978C7.04443 7.35364 7.69608 8.00529 8.49994 8.00529C9.30379 8.00529 9.95545 7.35364 9.95545 6.54978C9.95545 5.74593 9.30379 5.09428 8.49994 5.09428ZM5.58892 6.54978C5.58892 4.94208 6.89223 3.63877 8.49994 3.63877C10.1076 3.63877 11.411 4.94208 11.411 6.54978C11.411 8.15749 10.1076 9.4608 8.49994 9.4608C6.89223 9.4608 5.58892 8.15749 5.58892 6.54978Z" fill="#14142B"/>
</svg>
