<svg width="18" height="18" viewBox="0 0 18 18" fill="none" xmlns="http://www.w3.org/2000/svg">
<path fill-rule="evenodd" clip-rule="evenodd" d="M1.38462 3.70406V14C1.47384 13.9488 1.56731 13.897 1.66459 13.8451C2.48237 13.4089 3.64048 12.9329 4.84615 12.9329C6.05182 12.9329 7.20994 13.4089 8.02772 13.8451C8.125 13.897 8.21847 13.9488 8.30769 14V3.70406C8.28979 3.69157 8.27106 3.6786 8.25151 3.6652C8.04056 3.52055 7.73819 3.32704 7.37613 3.13394C6.63622 2.73932 5.71741 2.38462 4.84615 2.38462C3.9749 2.38462 3.05609 2.73932 2.31618 3.13394C1.95412 3.32704 1.65175 3.52055 1.4408 3.6652C1.42125 3.6786 1.40251 3.69157 1.38462 3.70406ZM9.69231 3.70406V14C9.78153 13.9488 9.875 13.897 9.97228 13.8451C10.7901 13.4089 11.9482 12.9329 13.1538 12.9329C14.3595 12.9329 15.5176 13.4089 16.3354 13.8451C16.4327 13.897 16.5262 13.9488 16.6154 14V3.70406C16.5975 3.69157 16.5787 3.6786 16.5592 3.6652C16.3483 3.52055 16.0459 3.32704 15.6838 3.13394C14.9439 2.73932 14.0251 2.38462 13.1538 2.38462C12.2826 2.38462 11.3638 2.73932 10.6239 3.13394C10.2618 3.32704 9.95944 3.52055 9.74849 3.6652C9.72894 3.6786 9.71021 3.69157 9.69231 3.70406ZM17.3077 3.35385L17.7402 2.81324C17.9044 2.94463 18 3.14353 18 3.35385V15.2867C18 15.5528 17.8475 15.7954 17.6076 15.9107C17.3679 16.0259 17.0835 15.9936 16.8757 15.8277C16.8756 15.8276 16.8758 15.8278 16.8757 15.8277L16.8734 15.8259L16.86 15.8155C16.8474 15.8057 16.8272 15.7902 16.8002 15.7701C16.746 15.7296 16.6644 15.6702 16.5592 15.5981C16.3483 15.4534 16.0459 15.2599 15.6838 15.0668C14.9439 14.6722 14.0251 14.3175 13.1538 14.3175C12.2826 14.3175 11.3638 14.6722 10.6239 15.0668C10.2618 15.2599 9.95944 15.4534 9.74849 15.5981C9.64331 15.6702 9.56164 15.7296 9.5075 15.7701C9.48045 15.7902 9.46033 15.8057 9.44764 15.8155L9.43428 15.8259L9.43248 15.8273L9 16.1733L8.56818 15.8278L8.56572 15.8259L8.55236 15.8155C8.53967 15.8057 8.51955 15.7902 8.4925 15.7701C8.43836 15.7296 8.35669 15.6702 8.25151 15.5981C8.04056 15.4534 7.73819 15.2599 7.37613 15.0668C6.63622 14.6722 5.71741 14.3175 4.84615 14.3175C3.9749 14.3175 3.05609 14.6722 2.31618 15.0668C1.95412 15.2599 1.65175 15.4534 1.4408 15.5981C1.33562 15.6702 1.25395 15.7296 1.19981 15.7701C1.17276 15.7902 1.15264 15.8057 1.13995 15.8155L1.12659 15.8259L1.12479 15.8273C0.916999 15.9934 0.632178 16.0259 0.392408 15.9107C0.152547 15.7954 0 15.5528 0 15.2867V3.35385C0 3.14353 0.0956006 2.94463 0.259826 2.81324L0.692308 3.35385C0.259826 2.81324 0.259682 2.81336 0.259826 2.81324L0.261242 2.81211L0.263426 2.81038L0.270073 2.80513L0.292327 2.78776C0.311081 2.77324 0.337611 2.75295 0.371407 2.72772C0.438958 2.67728 0.535777 2.60691 0.657759 2.52326C0.901137 2.35638 1.24781 2.1345 1.66459 1.91222C2.48237 1.47607 3.64048 1 4.84615 1C6.05182 1 7.20994 1.47607 8.02772 1.91222C8.42516 2.12419 8.75884 2.33578 9 2.49968C9.24116 2.33578 9.57484 2.12419 9.97228 1.91222C10.7901 1.47607 11.9482 1 13.1538 1C14.3595 1 15.5176 1.47607 16.3354 1.91222C16.7522 2.1345 17.0989 2.35638 17.3422 2.52326C17.4642 2.60691 17.561 2.67728 17.6286 2.72772C17.6624 2.75295 17.6889 2.77324 17.7077 2.78776L17.7299 2.80513L17.7366 2.81038L17.7388 2.81211L17.7402 2.81324C17.7403 2.81336 17.7402 2.81324 17.3077 3.35385Z" fill="#14142B"/>
</svg>
