<svg width="20" height="20" viewBox="0 0 20 20" fill="none" xmlns="http://www.w3.org/2000/svg">
    <mask id="swqljfyqxa" style="mask-type:alpha" maskUnits="userSpaceOnUse" x="0" y="0" width="20" height="20">
        <path fill="#E6EAED" d="M0 0h20v20H0z"/>
    </mask>
    <g mask="url(#swqljfyqxa)">
        <path d="M10 17.5c-1.917 0-3.587-.636-5.01-1.907-1.424-1.27-2.24-2.857-2.448-4.76H4.25c.194 1.445.837 2.64 1.927 3.584S8.542 15.833 10 15.833c1.625 0 3.003-.566 4.135-1.698 1.132-1.132 1.698-2.51 1.698-4.135s-.566-3.004-1.698-4.136C13.003 4.733 11.625 4.167 10 4.167c-.958 0-1.854.222-2.688.666a6.193 6.193 0 0 0-2.104 1.834H7.5v1.666h-5v-5h1.667v1.959A7.275 7.275 0 0 1 6.76 3.229 7.44 7.44 0 0 1 10 2.5c1.042 0 2.018.198 2.928.593a7.64 7.64 0 0 1 2.374 1.604 7.64 7.64 0 0 1 1.605 2.375c.395.91.593 1.886.593 2.928a7.259 7.259 0 0 1-.593 2.927 7.628 7.628 0 0 1-1.604 2.375 7.632 7.632 0 0 1-2.376 1.605A7.264 7.264 0 0 1 10 17.5zm2.333-4-3.166-3.167v-4.5h1.666v3.834l2.667 2.666-1.167 1.167z" fill="#2D2D39"/>
    </g>
</svg>
