<svg width="16" height="16" viewBox="0 0 16 16" fill="none" xmlns="http://www.w3.org/2000/svg">
<path fill-rule="evenodd" clip-rule="evenodd" d="M6.40614 1.40302C7.12764 0.198992 8.87237 0.198995 9.59386 1.40302L10.031 2.1325C10.1712 2.36655 10.4481 2.48125 10.7128 2.41492L11.5377 2.2082C12.8993 1.867 14.133 3.10071 13.7918 4.46226L13.5851 5.28717C13.5187 5.55185 13.6334 5.82876 13.8675 5.96902L14.597 6.40614C15.801 7.12764 15.801 8.87236 14.597 9.59386L13.8675 10.031C13.6334 10.1712 13.5187 10.4481 13.5851 10.7128L13.7918 11.5377C14.133 12.8993 12.8993 14.133 11.5377 13.7918L10.7128 13.5851C10.4481 13.5187 10.1712 13.6334 10.031 13.8675L9.59386 14.597C8.87236 15.801 7.12764 15.801 6.40614 14.597L5.96902 13.8675C5.82876 13.6334 5.55185 13.5187 5.28717 13.5851L5.13661 12.9843L5.28717 13.5851L4.46226 13.7918C3.10071 14.133 1.867 12.8993 2.2082 11.5377L2.41492 10.7128C2.48125 10.4481 2.36655 10.1712 2.1325 10.031L1.40302 9.59386C0.198992 8.87236 0.198995 7.12764 1.40302 6.40614L2.1325 5.96901C2.36655 5.82876 2.48125 5.55185 2.41492 5.28717L2.2082 4.46226C1.867 3.10071 3.10071 1.867 4.46226 2.2082L5.28717 2.41492C5.55185 2.48125 5.82876 2.36655 5.96902 2.1325L6.40614 1.40302ZM8.53129 2.03975C8.29079 1.63841 7.70921 1.63841 7.46871 2.03975L7.03159 2.76923C6.61082 3.4714 5.7801 3.8155 4.98606 3.61651L4.16114 3.40979C3.70729 3.29606 3.29606 3.70729 3.40979 4.16114L3.61651 4.98606C3.8155 5.7801 3.4714 6.61082 2.76923 7.03159L2.03975 7.46871C1.63841 7.70921 1.63841 8.29079 2.03975 8.53129L2.76923 8.96841C3.4714 9.38918 3.8155 10.2199 3.61651 11.0139L3.40979 11.8389C3.29606 12.2927 3.70729 12.7039 4.16114 12.5902L4.3117 13.191L4.16114 12.5902L4.98606 12.3835C5.7801 12.1845 6.61082 12.5286 7.03159 13.2308L7.46871 13.9602C7.70921 14.3616 8.29079 14.3616 8.53129 13.9602L8.96841 13.2308C9.38918 12.5286 10.2199 12.1845 11.0139 12.3835L11.8389 12.5902C12.2927 12.7039 12.7039 12.2927 12.5902 11.8389L12.3835 11.0139C12.1845 10.2199 12.5286 9.38918 13.2308 8.96841L13.9602 8.53129C14.3616 8.29079 14.3616 7.70921 13.9603 7.46871L13.2308 7.03159C12.5286 6.61082 12.1845 5.7801 12.3835 4.98606L12.5902 4.16114C12.7039 3.70729 12.2927 3.29606 11.8389 3.40979L11.0139 3.61651C10.2199 3.8155 9.38918 3.4714 8.96841 2.76923L8.53129 2.03975ZM8 6.14188C6.97379 6.14188 6.14189 6.97379 6.14189 8C6.14189 9.02621 6.97379 9.85811 8 9.85811C9.02621 9.85811 9.85812 9.02621 9.85812 8C9.85812 6.97379 9.02621 6.14188 8 6.14188ZM4.90314 8C4.90314 6.28965 6.28965 4.90314 8 4.90314C9.71035 4.90314 11.0969 6.28965 11.0969 8C11.0969 9.71035 9.71035 11.0969 8 11.0969C6.28965 11.0969 4.90314 9.71035 4.90314 8Z" fill="#14142B"/>
</svg>
