<svg width="17" height="18" viewBox="0 0 17 18" fill="none" xmlns="http://www.w3.org/2000/svg">
<path d="M13.5 18C12.75 18 12.1125 17.7375 11.5875 17.2125C11.0625 16.6875 10.8 16.05 10.8 15.3C10.8 15.195 10.8075 15.0863 10.8225 14.9738C10.8375 14.8613 10.86 14.76 10.89 14.67L4.545 10.98C4.29 11.205 4.005 11.3813 3.69 11.5088C3.375 11.6363 3.045 11.7 2.7 11.7C1.95 11.7 1.3125 11.4375 0.7875 10.9125C0.2625 10.3875 0 9.75 0 9C0 8.25 0.2625 7.6125 0.7875 7.0875C1.3125 6.5625 1.95 6.3 2.7 6.3C3.045 6.3 3.375 6.36375 3.69 6.49125C4.005 6.61875 4.29 6.795 4.545 7.02L10.89 3.33C10.86 3.24 10.8375 3.13875 10.8225 3.02625C10.8075 2.91375 10.8 2.805 10.8 2.7C10.8 1.95 11.0625 1.3125 11.5875 0.7875C12.1125 0.2625 12.75 0 13.5 0C14.25 0 14.8875 0.2625 15.4125 0.7875C15.9375 1.3125 16.2 1.95 16.2 2.7C16.2 3.45 15.9375 4.0875 15.4125 4.6125C14.8875 5.1375 14.25 5.4 13.5 5.4C13.155 5.4 12.825 5.33625 12.51 5.20875C12.195 5.08125 11.91 4.905 11.655 4.68L5.31 8.37C5.34 8.46 5.3625 8.56125 5.3775 8.67375C5.3925 8.78625 5.4 8.895 5.4 9C5.4 9.105 5.3925 9.21375 5.3775 9.32625C5.3625 9.43875 5.34 9.54 5.31 9.63L11.655 13.32C11.91 13.095 12.195 12.9188 12.51 12.7913C12.825 12.6638 13.155 12.6 13.5 12.6C14.25 12.6 14.8875 12.8625 15.4125 13.3875C15.9375 13.9125 16.2 14.55 16.2 15.3C16.2 16.05 15.9375 16.6875 15.4125 17.2125C14.8875 17.7375 14.25 18 13.5 18ZM13.5 3.6C13.755 3.6 13.9688 3.51375 14.1413 3.34125C14.3138 3.16875 14.4 2.955 14.4 2.7C14.4 2.445 14.3138 2.23125 14.1413 2.05875C13.9688 1.88625 13.755 1.8 13.5 1.8C13.245 1.8 13.0313 1.88625 12.8588 2.05875C12.6863 2.23125 12.6 2.445 12.6 2.7C12.6 2.955 12.6863 3.16875 12.8588 3.34125C13.0313 3.51375 13.245 3.6 13.5 3.6ZM2.7 9.9C2.955 9.9 3.16875 9.81375 3.34125 9.64125C3.51375 9.46875 3.6 9.255 3.6 9C3.6 8.745 3.51375 8.53125 3.34125 8.35875C3.16875 8.18625 2.955 8.1 2.7 8.1C2.445 8.1 2.23125 8.18625 2.05875 8.35875C1.88625 8.53125 1.8 8.745 1.8 9C1.8 9.255 1.88625 9.46875 2.05875 9.64125C2.23125 9.81375 2.445 9.9 2.7 9.9ZM13.5 16.2C13.755 16.2 13.9688 16.1137 14.1413 15.9412C14.3138 15.7687 14.4 15.555 14.4 15.3C14.4 15.045 14.3138 14.8312 14.1413 14.6587C13.9688 14.4862 13.755 14.4 13.5 14.4C13.245 14.4 13.0313 14.4862 12.8588 14.6587C12.6863 14.8312 12.6 15.045 12.6 15.3C12.6 15.555 12.6863 15.7687 12.8588 15.9412C13.0313 16.1137 13.245 16.2 13.5 16.2Z" fill="#14142B"/>
</svg>
