<svg width="21" height="20" viewBox="0 0 21 20" fill="none" xmlns="http://www.w3.org/2000/svg">
<mask id="mask0_1072_6889" style="mask-type:alpha" maskUnits="userSpaceOnUse" x="0" y="0" width="21" height="20">
<rect x="0.333496" width="20" height="20" fill="#89909A"/>
</mask>
<g mask="url(#mask0_1072_6889)">
<path d="M17.0003 16.6667V10.8333V11.0833V16.6667ZM16.167 7.08333C16.4031 7.08333 16.6009 7.00361 16.7603 6.84417C16.9203 6.68417 17.0003 6.48611 17.0003 6.25C17.0003 6.01389 16.9203 5.81583 16.7603 5.65583C16.6009 5.49639 16.4031 5.41667 16.167 5.41667C15.9309 5.41667 15.7331 5.49639 15.5737 5.65583C15.4137 5.81583 15.3337 6.01389 15.3337 6.25C15.3337 6.48611 15.4137 6.68417 15.5737 6.84417C15.7331 7.00361 15.9309 7.08333 16.167 7.08333ZM16.167 8.33333C15.5698 8.33333 15.0731 8.13528 14.677 7.73917C14.2814 7.34361 14.0837 6.84722 14.0837 6.25C14.0837 5.66667 14.2814 5.17361 14.677 4.77083C15.0731 4.36806 15.5698 4.16667 16.167 4.16667C16.7503 4.16667 17.2434 4.36806 17.6462 4.77083C18.0489 5.17361 18.2503 5.66667 18.2503 6.25C18.2503 6.84722 18.0489 7.34361 17.6462 7.73917C17.2434 8.13528 16.7503 8.33333 16.167 8.33333ZM10.3337 6.25C10.6809 6.25 10.9759 6.13194 11.2187 5.89583C11.462 5.65972 11.5837 5.36111 11.5837 5C11.5837 4.65278 11.462 4.35778 11.2187 4.115C10.9759 3.87167 10.6809 3.75 10.3337 3.75C9.97255 3.75 9.67394 3.87167 9.43783 4.115C9.20171 4.35778 9.08366 4.65278 9.08366 5C9.08366 5.36111 9.20171 5.65972 9.43783 5.89583C9.67394 6.13194 9.97255 6.25 10.3337 6.25ZM10.3337 7.5C9.62532 7.5 9.03171 7.26028 8.55282 6.78083C8.07338 6.30194 7.83366 5.70833 7.83366 5C7.83366 4.30556 8.07338 3.71528 8.55282 3.22917C9.03171 2.74306 9.62532 2.5 10.3337 2.5C11.0281 2.5 11.6184 2.74306 12.1045 3.22917C12.5906 3.71528 12.8337 4.30556 12.8337 5C12.8337 5.70833 12.5906 6.30194 12.1045 6.78083C11.6184 7.26028 11.0281 7.5 10.3337 7.5ZM6.77116 11.1458C6.77116 11.6042 7.00033 12.1214 7.45866 12.6975C7.91699 13.2742 8.82671 14.1806 10.1878 15.4167L10.3337 15.5625L10.5003 15.3958C11.8059 14.2153 12.6984 13.33 13.1778 12.74C13.6567 12.1494 13.8962 11.6181 13.8962 11.1458C13.8962 10.7569 13.7712 10.4306 13.5212 10.1667C13.2712 9.90278 12.9587 9.77083 12.5837 9.77083C12.3614 9.77083 12.1462 9.82278 11.9378 9.92667C11.7295 10.0311 11.5628 10.1667 11.4378 10.3333L10.5003 11.4375H10.1462L9.20866 10.3333C9.08366 10.1667 8.92033 10.0311 8.71866 9.92667C8.51755 9.82278 8.30588 9.77083 8.08366 9.77083C7.69477 9.77083 7.37866 9.90278 7.13532 10.1667C6.89255 10.4306 6.77116 10.7569 6.77116 11.1458ZM5.52116 11.1458C5.52116 10.4653 5.76421 9.85778 6.25033 9.32333C6.73644 8.78833 7.34755 8.52083 8.08366 8.52083C8.50033 8.52083 8.89616 8.61806 9.27116 8.8125C9.64616 9.00694 9.9656 9.26389 10.2295 9.58333L10.3337 9.70833L10.4378 9.58333C10.7017 9.26389 11.0178 9.00694 11.3862 8.8125C11.7539 8.61806 12.1531 8.52083 12.5837 8.52083C13.3198 8.52083 13.9309 8.79167 14.417 9.33333C14.9031 9.875 15.1462 10.4792 15.1462 11.1458C15.1462 11.8403 14.8859 12.5347 14.3653 13.2292C13.8442 13.9236 12.7989 14.9861 11.2295 16.4167L10.3337 17.25L9.45866 16.4375C7.84755 14.9792 6.78866 13.9064 6.28199 13.2192C5.77477 12.5314 5.52116 11.8403 5.52116 11.1458ZM4.50033 7.08333C4.73644 7.08333 4.93449 7.00361 5.09449 6.84417C5.25394 6.68417 5.33366 6.48611 5.33366 6.25C5.33366 6.01389 5.25394 5.81583 5.09449 5.65583C4.93449 5.49639 4.73644 5.41667 4.50033 5.41667C4.26421 5.41667 4.06616 5.49639 3.90616 5.65583C3.74671 5.81583 3.66699 6.01389 3.66699 6.25C3.66699 6.48611 3.74671 6.68417 3.90616 6.84417C4.06616 7.00361 4.26421 7.08333 4.50033 7.08333ZM10.3962 17.9167V16.6667H17.0003V11.0833C17.0003 11.0139 16.9762 10.9547 16.9278 10.9058C16.8789 10.8575 16.8198 10.8333 16.7503 10.8333H14.5837V9.58333H16.7503C17.167 9.58333 17.5212 9.72917 17.8128 10.0208C18.1045 10.3125 18.2503 10.6667 18.2503 11.0833V17.9167H10.3962ZM3.66699 16.6667H10.3962V17.9167H2.41699V11.0833C2.41699 10.6667 2.56283 10.3125 2.85449 10.0208C3.14616 9.72917 3.50033 9.58333 3.91699 9.58333H6.08366V10.8333H3.91699C3.84755 10.8333 3.78866 10.8575 3.74033 10.9058C3.69144 10.9547 3.66699 11.0139 3.66699 11.0833V16.6667ZM4.50033 8.33333C3.9031 8.33333 3.40671 8.13528 3.01116 7.73917C2.61505 7.34361 2.41699 6.84722 2.41699 6.25C2.41699 5.66667 2.61505 5.17361 3.01116 4.77083C3.40671 4.36806 3.9031 4.16667 4.50033 4.16667C5.08366 4.16667 5.57671 4.36806 5.97949 4.77083C6.38227 5.17361 6.58366 5.66667 6.58366 6.25C6.58366 6.84722 6.38227 7.34361 5.97949 7.73917C5.57671 8.13528 5.08366 8.33333 4.50033 8.33333Z" fill="#14142B"/>
</g>
</svg>
