<svg width="14" height="14" viewBox="0 0 14 14" fill="currentColor" xmlns="http://www.w3.org/2000/svg">
<path d="M13.7481 5.35085C13.633 4.92898 13.2878 4.62216 12.8468 4.56463L9.33754 4.08523L8.01439 0.921165C7.8418 0.518466 7.45828 0.25 7.01723 0.25C6.80629 0.25 6.59536 0.307528 6.42277 0.422585C6.25019 0.537642 6.11595 0.710227 6.02007 0.901989L4.69692 4.08523L1.18768 4.56463C0.765809 4.62216 0.401462 4.92898 0.286405 5.35085C0.171349 5.77273 0.305582 6.21378 0.650752 6.48224L3.35459 8.6875L2.49166 12.4268C2.39578 12.8679 2.56837 13.3089 2.93271 13.5774C3.31624 13.8267 3.79564 13.8267 4.15999 13.5582L6.17348 12.1392L7.01723 11.5447L7.91851 12.1776L9.87448 13.5582C10.0662 13.6925 10.2772 13.75 10.4881 13.75C10.699 13.75 10.91 13.6925 11.1017 13.5582C11.4853 13.3089 11.6579 12.8487 11.562 12.4077L10.699 8.6875L13.4029 6.48224C13.7289 6.21378 13.8631 5.77273 13.7481 5.35085ZM9.83612 7.78622L9.29919 8.22727C9.29919 8.22727 9.43342 8.74503 9.51013 9.03267L10.2388 12.2159V12.2351L10.258 12.3118L10.1429 12.2351L9.87448 12.0433L7.99521 10.7202L7.01723 10.0298L6.38442 10.4709L6.02007 10.7202L4.14081 12.0241L4.12163 12.0433L4.08328 12.0625L3.75729 12.2926L3.77646 12.1967L3.81482 12.0625L4.48598 9.18608C4.48598 9.1669 4.73527 8.2081 4.73527 8.2081L4.00658 7.63281L1.70544 5.75355L4.94621 5.3125L5.55984 5.2358L5.78996 4.66051L5.86666 4.48793L7.01723 1.74574L8.1678 4.48793L8.47462 5.2358L9.08825 5.3125L9.35672 5.35085H9.39507L12.329 5.75355L9.83612 7.78622Z" fill="currentColor"/>
</svg>
