<svg xmlns="http://www.w3.org/2000/svg" width="21" height="21" viewBox="0 0 21 21">
  <path id="account_circle_FILL1_wght400_GRAD0_opsz48" d="M7.727,20.406A14.932,14.932,0,0,1,11,18.818a11.019,11.019,0,0,1,3.5-.538,11.14,11.14,0,0,1,3.518.538A14.827,14.827,0,0,1,21.3,20.406a9.215,9.215,0,0,0,1.641-2.861,9.487,9.487,0,0,0,.486-3.045A8.745,8.745,0,0,0,14.5,5.575,8.745,8.745,0,0,0,5.575,14.5a9.26,9.26,0,0,0,.5,3.045A9.447,9.447,0,0,0,7.727,20.406ZM14.5,15.288a3.542,3.542,0,0,1-3.6-3.6,3.542,3.542,0,0,1,3.6-3.6,3.542,3.542,0,0,1,3.6,3.6,3.542,3.542,0,0,1-3.6,3.6ZM14.5,25a10.29,10.29,0,0,1-4.121-.827,10.449,10.449,0,0,1-5.565-5.6A10.367,10.367,0,0,1,4,14.474a10.16,10.16,0,0,1,.827-4.069A10.494,10.494,0,0,1,7.084,7.071a10.763,10.763,0,0,1,3.347-2.244,10.488,10.488,0,0,1,8.164,0,10.484,10.484,0,0,1,5.578,5.578,10.488,10.488,0,0,1,0,8.164,10.764,10.764,0,0,1-2.244,3.347,10.494,10.494,0,0,1-3.334,2.258A10.224,10.224,0,0,1,14.5,25Z" transform="translate(-4 -4)" fill="#2d2d39"/>
</svg>
