<svg width="19" height="18" viewBox="0 0 19 18" fill="none" xmlns="http://www.w3.org/2000/svg">
<path d="M16.7514 13.2153C16.4617 12.9256 15.9823 12.9256 15.6926 13.2153C15.4728 13.4351 15.4229 13.7647 15.5328 14.0344H11.8668V14.0943C11.4773 12.8657 10.3186 12.0067 9.02 12.0067C8.89014 12.0067 8.77027 12.0067 8.64042 12.0266C7.34186 12.1865 6.36295 13.1654 6.10324 14.364H5.02444C4.3352 14.364 3.77582 13.8047 3.77582 13.1154V11.8868C4.84464 11.6071 5.66373 10.778 5.92344 9.73918H12.1565C12.5061 11.0477 13.6848 11.9667 15.0433 11.9667C15.1732 11.9667 15.293 11.9667 15.4229 11.9467C17.0611 11.737 18.2298 10.2386 18.02 8.60044C17.8602 7.35183 16.9512 6.38291 15.7925 6.08324V4.86459C15.7925 3.34628 14.5638 2.11765 13.0455 2.11765H11.9168C11.5172 0.879023 10.3585 0 9.03997 0C8.91012 0 8.79025 0 8.6604 0.0199778C7.02222 0.229745 5.85352 1.72808 6.06328 3.36626C6.25307 4.88457 7.54164 5.98335 9.02999 5.98335C9.15984 5.98335 9.27971 5.98335 9.40956 5.96337C10.7081 5.80355 11.687 4.82464 11.9467 3.62597H13.0255C13.7148 3.62597 14.2742 4.18535 14.2742 4.87458V6.10322C13.1954 6.38291 12.3863 7.21199 12.1265 8.26082H5.90346C5.56384 6.95228 4.37516 6.02331 3.01667 6.02331C2.88681 6.02331 2.76695 6.02331 2.63709 6.04329C0.99891 6.25305 -0.159803 7.75139 0.039975 9.38957C0.199797 10.6382 1.10879 11.6071 2.2675 11.9068V13.1254C2.2675 14.6437 3.49613 15.8724 5.01445 15.8724H6.14319C6.52277 17.131 7.68148 18 9.00002 18C9.12987 18 9.24974 18 9.3796 17.98C10.7081 17.8102 11.717 16.7913 11.9368 15.5327H15.5228C15.4129 15.8024 15.4628 16.1321 15.6826 16.3518C15.8324 16.5017 16.0222 16.5716 16.212 16.5716C16.4018 16.5716 16.5916 16.5017 16.7414 16.3518L17.7803 15.313C18.0699 15.0233 18.0699 14.5438 17.7803 14.2542L16.7414 13.2153H16.7514ZM10.2187 3.91565C9.96894 4.23529 9.61933 4.43507 9.21977 4.48502C9.15984 4.48502 9.08992 4.49501 9.02999 4.49501C8.28082 4.49501 7.64153 3.93563 7.55163 3.18646C7.50168 2.7869 7.61156 2.39734 7.8513 2.07769C8.10102 1.75805 8.45063 1.55827 8.85018 1.50832C8.91012 1.50832 8.98004 1.49834 9.03997 1.49834C9.78914 1.49834 10.4284 2.05771 10.5183 2.80688C10.5683 3.20644 10.4584 3.596 10.2187 3.91565ZM13.8446 8.07103C14.0944 7.75139 14.444 7.55161 14.8435 7.50166C14.9035 7.50166 14.9734 7.49168 15.0333 7.49168C15.7825 7.49168 16.4218 8.05105 16.5117 8.80022C16.6116 9.61931 16.0322 10.3685 15.2131 10.4784C15.1532 10.4784 15.0833 10.4883 15.0233 10.4883C14.2742 10.4883 13.6349 9.92897 13.545 9.1798C13.495 8.78024 13.6049 8.39068 13.8446 8.07103ZM1.52832 9.19978C1.47838 8.80022 1.58825 8.41066 1.82799 8.09101C2.07771 7.77137 2.42732 7.57159 2.82688 7.52164C2.88681 7.52164 2.95673 7.51165 3.01667 7.51165C3.76583 7.51165 4.40512 8.07103 4.49502 8.8202C4.54497 9.21976 4.43509 9.60932 4.19536 9.92897C3.94563 10.2486 3.59602 10.4484 3.19647 10.4983C3.13653 10.4983 3.06661 10.5083 3.00668 10.5083C2.25751 10.5083 1.61822 9.94895 1.52832 9.19978ZM9.1998 16.4917C9.13986 16.4917 9.06994 16.5017 9.01001 16.5017C8.26084 16.5017 7.62155 15.9423 7.53165 15.1931C7.48171 14.7936 7.59158 14.404 7.83132 14.0844C8.08104 13.7647 8.43065 13.5649 8.83021 13.515C8.89014 13.515 8.96006 13.505 9.02 13.505C9.76916 13.505 10.4085 14.0644 10.4984 14.8135C10.5982 15.6326 10.0189 16.3818 9.1998 16.4917Z" fill="#14142B"/>
</svg>
