<svg width="44" height="45" viewBox="0 0 44 45" fill="none" xmlns="http://www.w3.org/2000/svg">
<rect y="0.5" width="44" height="44" rx="5" fill="#DEF5D9"/>
<path d="M23.9368 14.031C23.7843 13.8649 23.5992 13.7321 23.393 13.6407C23.1869 13.5494 22.9641 13.5015 22.7387 13.5H16.6884C16.2266 13.5167 15.79 13.7153 15.474 14.0525C15.1579 14.3896 14.9878 14.838 15.0009 15.3V29.7C14.986 30.1609 15.1542 30.609 15.4687 30.9463C15.7833 31.2836 16.2185 31.4827 16.6794 31.5H26.8134C27.2753 31.4833 27.7118 31.2847 28.0279 30.9475C28.3439 30.6104 28.514 30.162 28.5009 29.7V19.647C28.5044 19.1756 28.3259 18.721 28.0025 18.378L23.9368 14.031ZM24.2822 27.9H19.2197C18.981 27.9 18.752 27.8052 18.5833 27.6364C18.4145 27.4676 18.3197 27.2387 18.3197 27C18.3197 26.7613 18.4145 26.5324 18.5833 26.3636C18.752 26.1948 18.981 26.1 19.2197 26.1H24.2822C24.5209 26.1 24.7498 26.1948 24.9186 26.3636C25.0873 26.5324 25.1822 26.7613 25.1822 27C25.1822 27.2387 25.0873 27.4676 24.9186 27.6364C24.7498 27.8052 24.5209 27.9 24.2822 27.9ZM24.2822 24.3H19.2197C18.981 24.3 18.752 24.2052 18.5833 24.0364C18.4145 23.8676 18.3197 23.6387 18.3197 23.4C18.3197 23.1613 18.4145 22.9324 18.5833 22.7636C18.752 22.5948 18.981 22.5 19.2197 22.5H24.2822C24.5209 22.5 24.7498 22.5948 24.9186 22.7636C25.0873 22.9324 25.1822 23.1613 25.1822 23.4C25.1822 23.6387 25.0873 23.8676 24.9186 24.0364C24.7498 24.2052 24.5209 24.3 24.2822 24.3ZM22.5947 18.9V14.85L27.2353 19.8H23.4384C23.2074 19.7918 22.9891 19.6925 22.831 19.5239C22.6729 19.3553 22.588 19.131 22.5947 18.9Z" fill="#49C173"/>
</svg>
