<svg width="18" height="18" viewBox="0 0 18 18" fill="none" xmlns="http://www.w3.org/2000/svg">
    <mask id="9uc0yrogua" style="mask-type:alpha" maskUnits="userSpaceOnUse" x="0" y="0" width="18" height="18">
        <path fill="#D9D9D9" d="M.396.467h17.257V17.8H.396z"/>
    </mask>
    <g mask="url(#9uc0yrogua)">
        <path d="M8.935 14.911a.418.418 0 0 0 .252-.108l5.896-5.922a1.34 1.34 0 0 0 .315-.488 1.577 1.577 0 0 0 0-1.093 1.198 1.198 0 0 0-.315-.46l-3.056-3.07a1.192 1.192 0 0 0-.458-.315 1.535 1.535 0 0 0-1.088 0c-.18.066-.341.171-.485.316l-.198.198 1.33 1.355c.18.168.312.36.396.577.084.217.125.446.125.687 0 .505-.17.93-.511 1.272a1.718 1.718 0 0 1-1.268.515c-.24 0-.47-.042-.692-.126a1.634 1.634 0 0 1-.584-.38L7.245 6.533 4.1 9.693a.343.343 0 0 0-.108.253c0 .096.036.183.108.261a.318.318 0 0 0 .395.082.418.418 0 0 0 .108-.072L7.048 7.76l1.006 1.011-2.426 2.456a.348.348 0 0 0-.108.253c0 .096.036.18.108.252a.344.344 0 0 0 .251.109.42.42 0 0 0 .252-.108l2.445-2.438 1.006 1.011-2.427 2.455a.215.215 0 0 0-.08.109.405.405 0 0 0-.027.144c0 .097.036.18.107.253a.344.344 0 0 0 .504 0l2.445-2.437 1.006 1.01-2.445 2.456a.34.34 0 0 0 .01.506.373.373 0 0 0 .26.108zm-.018 1.445c-.443 0-.836-.148-1.177-.443a1.724 1.724 0 0 1-.603-1.11 1.77 1.77 0 0 1-1.527-1.535 1.704 1.704 0 0 1-1.016-.514 1.841 1.841 0 0 1-.494-1.02 1.707 1.707 0 0 1-1.115-.597 1.777 1.777 0 0 1-.431-1.191c0-.24.045-.473.135-.696a1.75 1.75 0 0 1 .386-.586l4.17-4.17L9.6 6.857c.024.036.06.063.108.081a.4.4 0 0 0 .144.028.384.384 0 0 0 .27-.1.34.34 0 0 0 .107-.261.414.414 0 0 0-.026-.145.218.218 0 0 0-.082-.108L7.551 3.77a1.19 1.19 0 0 0-.459-.316 1.529 1.529 0 0 0-1.087 0c-.18.066-.342.171-.485.316L2.985 6.335a1.535 1.535 0 0 0-.413.813 1.367 1.367 0 0 0 .143.866L1.673 9.06a2.876 2.876 0 0 1-.45-.912 2.846 2.846 0 0 1 .144-1.986c.144-.319.342-.605.593-.857L4.495 2.76c.288-.277.608-.488.962-.632a2.848 2.848 0 0 1 3.119.632l.197.198.198-.198c.288-.277.608-.488.961-.632a2.853 2.853 0 0 1 3.12.632L16.09 5.81a2.954 2.954 0 0 1 .845 2.058 2.883 2.883 0 0 1-.846 2.04l-5.896 5.905c-.167.168-.362.3-.584.397a1.717 1.717 0 0 1-.692.145z" fill="#2D2D39"/>
    </g>
</svg>
