<svg width="20" height="20" viewBox="0 0 20 20" fill="none" xmlns="http://www.w3.org/2000/svg">
    <mask id="9d4d8pu6za" style="mask-type:alpha" maskUnits="userSpaceOnUse" x="0" y="0" width="20" height="20">
        <path fill="#E6EAED" d="M0 0h20v20H0z"/>
    </mask>
    <g mask="url(#9d4d8pu6za)">
        <path d="m7 14.167 3-3 3 3L14.166 13l-3-3 3-3L13 5.834l-3 3-3-3L5.833 7l3 3-3 3L7 14.167zm3 4.167a8.11 8.11 0 0 1-3.25-.657 8.41 8.41 0 0 1-2.646-1.78 8.41 8.41 0 0 1-1.78-2.647A8.11 8.11 0 0 1 1.666 10a8.11 8.11 0 0 1 .656-3.25 8.41 8.41 0 0 1 1.781-2.646A8.421 8.421 0 0 1 6.75 2.323 8.119 8.119 0 0 1 10 1.667c1.153 0 2.236.219 3.25.656a8.421 8.421 0 0 1 2.646 1.781 8.41 8.41 0 0 1 1.78 2.646 8.11 8.11 0 0 1 .657 3.25 8.11 8.11 0 0 1-.656 3.25 8.41 8.41 0 0 1-1.781 2.646 8.41 8.41 0 0 1-2.646 1.781 8.11 8.11 0 0 1-3.25.657zm0-1.667c1.86 0 3.437-.646 4.729-1.938 1.292-1.291 1.938-2.868 1.938-4.729 0-1.86-.646-3.437-1.938-4.729-1.292-1.292-2.868-1.937-4.73-1.937-1.86 0-3.437.645-4.728 1.937-1.292 1.292-1.938 2.868-1.938 4.73 0 1.86.646 3.437 1.938 4.729C6.562 16.02 8.139 16.666 10 16.666z" fill="#2D2D39"/>
    </g>
</svg>
