<svg width="50" height="50" viewBox="0 0 50 50" fill="none" xmlns="http://www.w3.org/2000/svg">
<rect x="0.5" y="0.5" width="49" height="49" rx="4.5" fill="white"/>
<path d="M19.65 30.075H30.375C30.5417 30.075 30.6583 30.0083 30.725 29.875C30.7917 29.7417 30.775 29.6083 30.675 29.475L27.75 25.575C27.6667 25.475 27.5667 25.425 27.45 25.425C27.3333 25.425 27.2333 25.475 27.15 25.575L24.15 29.45L22.125 26.675C22.0417 26.575 21.9417 26.525 21.825 26.525C21.7083 26.525 21.6083 26.575 21.525 26.675L19.375 29.475C19.2917 29.6083 19.2792 29.7417 19.3375 29.875C19.3958 30.0083 19.5 30.075 19.65 30.075ZM17.5 34C17.1 34 16.75 33.85 16.45 33.55C16.15 33.25 16 32.9 16 32.5V17.5C16 17.1 16.15 16.75 16.45 16.45C16.75 16.15 17.1 16 17.5 16H32.5C32.9 16 33.25 16.15 33.55 16.45C33.85 16.75 34 17.1 34 17.5V32.5C34 32.9 33.85 33.25 33.55 33.55C33.25 33.85 32.9 34 32.5 34H17.5ZM17.5 32.5H32.5V17.5H17.5V32.5ZM17.5 17.5V32.5V17.5Z" fill="#2D2D39"/>
<rect x="0.5" y="0.5" width="49" height="49" rx="4.5" stroke="#CED3D9"/>
</svg>
