<svg width="19" height="18" viewBox="0 0 19 18" fill="none" xmlns="http://www.w3.org/2000/svg">
<path fill-rule="evenodd" clip-rule="evenodd" d="M10.7213 1.32654C12.45 -0.431689 15.2806 -0.443649 17.0241 1.29991C18.7573 3.0331 18.7573 5.84316 17.0241 7.57636L13.7828 10.8177C12.2443 12.3562 9.76467 12.4028 8.16947 10.9232L7.25384 10.0739C6.92612 9.76997 6.90687 9.2579 7.21083 8.93018C7.5148 8.60246 8.02688 8.58321 8.35459 8.88717L9.27022 9.73644C10.2273 10.6242 11.7151 10.5962 12.6382 9.67314L15.8796 6.43179C16.9806 5.33072 16.9806 3.54554 15.8796 2.44448C14.7719 1.33683 12.9737 1.34443 11.8755 2.4614L9.19065 5.19199C8.87727 5.51072 8.36484 5.51505 8.04612 5.20167C7.7274 4.88828 7.72307 4.37586 8.03645 4.05714L10.7213 1.32654ZM9.0538 8.26359C8.09667 7.37584 6.60891 7.4038 5.68582 8.32689L2.44446 11.5682C1.3434 12.6693 1.3434 14.4545 2.44446 15.5556C3.55211 16.6632 5.3503 16.6556 6.44855 15.5386L9.13337 12.808C9.44675 12.4893 9.95918 12.485 10.2779 12.7984C10.5966 13.1117 10.601 13.6242 10.2876 13.9429L7.60275 16.6735C5.87399 18.4317 3.04345 18.4437 1.29989 16.7001C-0.433298 14.9669 -0.433298 12.1569 1.29989 10.4237L4.54125 7.18232C6.07973 5.64384 8.55935 5.59723 10.1545 7.07682L11.0702 7.92609C11.3979 8.23006 11.4172 8.74213 11.1132 9.06985C10.8092 9.39757 10.2971 9.41682 9.96943 9.11286L9.0538 8.26359Z" fill="#14142B"/>
</svg>
