<svg width="24" height="25" viewBox="0 0 24 25" fill="none" xmlns="http://www.w3.org/2000/svg">
<g clip-path="url(#clip0_3013_17680)">
<mask id="mask0_3013_17680" style="mask-type:luminance" maskUnits="userSpaceOnUse" x="0" y="0" width="25" height="25">
<path d="M24.001 0.5H0.000976562V24.5H24.001V0.5Z" fill="white"/>
</mask>
<g mask="url(#mask0_3013_17680)">
<path d="M19.001 22.25H5.00098C3.48098 22.25 2.25098 21.02 2.25098 19.5V5.5C2.25098 3.98 3.48098 2.75 5.00098 2.75H17.001C17.201 2.75 17.391 2.83 17.531 2.97L21.531 6.97C21.671 7.11 21.751 7.3 21.751 7.5V19.5C21.751 21.02 20.521 22.25 19.001 22.25ZM5.00098 4.25C4.31098 4.25 3.75098 4.81 3.75098 5.5V19.5C3.75098 20.19 4.31098 20.75 5.00098 20.75H19.001C19.691 20.75 20.251 20.19 20.251 19.5V7.81L16.691 4.25H5.00098Z" fill="#14142B"/>
</g>
<path d="M12.001 15C12.831 15 13.501 15.67 13.501 16.5C13.501 17.33 12.831 18 12.001 18C11.171 18 10.501 17.33 10.501 16.5C10.501 15.67 11.171 15 12.001 15ZM12.001 13.5C10.341 13.5 9.00098 14.84 9.00098 16.5C9.00098 18.16 10.341 19.5 12.001 19.5C13.661 19.5 15.001 18.16 15.001 16.5C15.001 14.84 13.661 13.5 12.001 13.5Z" fill="#14142B"/>
<path d="M15.001 11.25H6.00098C5.59098 11.25 5.25098 10.91 5.25098 10.5V6.5C5.25098 6.09 5.59098 5.75 6.00098 5.75H15.001C15.411 5.75 15.751 6.09 15.751 6.5V10.5C15.751 10.91 15.411 11.25 15.001 11.25ZM6.75098 9.75H14.251V7.25H6.75098V9.75Z" fill="#14142B"/>
</g>
<defs>
<clipPath id="clip0_3013_17680">
<rect width="24" height="24" fill="white" transform="translate(0.000976562 0.5)"/>
</clipPath>
</defs>
</svg>
