<svg width="18" height="19" viewBox="0 0 18 19" fill="none" xmlns="http://www.w3.org/2000/svg">
<path fill-rule="evenodd" clip-rule="evenodd" d="M13.0503 2.16714L11.6027 3.61475L14.885 6.89708L16.3326 5.44947C16.3417 5.42113 16.3517 5.38797 16.3618 5.35042C16.4044 5.19323 16.4486 4.9673 16.4522 4.70192C16.4593 4.18657 16.317 3.50545 15.6557 2.84408C14.9943 2.18271 14.3132 2.04044 13.7978 2.04754C13.5325 2.0512 13.3065 2.09535 13.1493 2.13793C13.1118 2.1481 13.0786 2.15805 13.0503 2.16714ZM16.9984 5.87775C17.7025 6.19841 17.7027 6.19804 17.7029 6.19767L17.7032 6.19687L17.704 6.19515L17.7058 6.19116L17.7103 6.18098C17.7136 6.17322 17.7178 6.16355 17.7225 6.15201C17.7321 6.12894 17.7443 6.09837 17.7582 6.06084C17.7859 5.98591 17.8208 5.88247 17.8553 5.755C17.924 5.50131 17.9936 5.14466 17.9994 4.72326C18.0112 3.86506 17.7556 2.75582 16.7498 1.74997C15.7439 0.744133 14.6347 0.488551 13.7765 0.500388C13.3551 0.5062 12.9984 0.575732 12.7448 0.644454C12.6173 0.678986 12.5138 0.713845 12.4389 0.741585C12.4014 0.755477 12.3708 0.767654 12.3477 0.777211C12.3362 0.781992 12.3265 0.786125 12.3188 0.789499L12.3086 0.79398L12.3046 0.79577L12.3029 0.796547L12.3021 0.796906C12.3017 0.797077 12.3013 0.797245 12.622 1.50131L12.3013 0.797245L12.1739 0.855269L0.745739 12.2835L-0.000244141 18.5L6.21628 17.754L17.6445 6.32581L17.7025 6.19841L16.9984 5.87775ZM13.7909 7.99118L10.5086 4.70886L2.21826 12.9992L1.77067 16.7291L5.50058 16.2815L13.7909 7.99118Z" fill="#6E7191"/>
</svg>
