<svg width="30" height="30" viewBox="0 0 24 24" fill="none" xmlns="http://www.w3.org/2000/svg">
<g clip-path="url(#clip0_6333_8650)">
<path d="M20.9999 9.80114C20.8465 9.23864 20.3863 8.82955 19.7982 8.75284L15.1192 8.11364L13.355 3.89489C13.1249 3.35795 12.6136 3 12.0255 3C11.7442 3 11.463 3.0767 11.2329 3.23011C11.0028 3.38352 10.8238 3.61364 10.6959 3.86932L8.93175 8.11364L4.25277 8.75284C3.69027 8.82955 3.20447 9.23864 3.05106 9.80114C2.89765 10.3636 3.07663 10.9517 3.53686 11.3097L7.14197 14.25L5.9914 19.2358C5.86356 19.8239 6.09368 20.4119 6.57947 20.7699C7.09084 21.1023 7.73004 21.1023 8.21584 20.7443L10.9005 18.8523L12.0255 18.0597L13.2272 18.9034L15.8352 20.7443C16.0908 20.9233 16.3721 21 16.6533 21C16.9346 21 17.2158 20.9233 17.4715 20.7443C17.9829 20.4119 18.213 19.7983 18.0852 19.2102L16.9346 14.25L20.5397 11.3097C20.9744 10.9517 21.1533 10.3636 20.9999 9.80114ZM15.784 13.0483L15.0681 13.6364C15.0681 13.6364 15.2471 14.3267 15.3494 14.7102L16.3209 18.9545V18.9801L16.3465 19.0824L16.1931 18.9801L15.8352 18.7244L13.3295 16.9602L12.0255 16.0398L11.1817 16.6278L10.6959 16.9602L8.19027 18.6989L8.1647 18.7244L8.11356 18.75L7.6789 19.0568L7.70447 18.929L7.75561 18.75L8.6505 14.9148C8.6505 14.8892 8.98288 13.6108 8.98288 13.6108L8.01129 12.8437L4.94311 10.3381L9.26413 9.75L10.0823 9.64773L10.3891 8.88068L10.4914 8.65057L12.0255 4.99432L13.5596 8.65057L13.9687 9.64773L14.7869 9.75L15.1448 9.80114H15.196L19.1079 10.3381L15.784 13.0483Z" fill="#14142B"/>
</g>
<defs>
<clipPath id="clip0_6333_8650">
<rect width="18.0511" height="18" fill="white" transform="translate(3 3)"/>
</clipPath>
</defs>
</svg>
