<svg width="20" height="20" viewBox="0 0 20 20" fill="none" xmlns="http://www.w3.org/2000/svg">
<path d="M2.27273 15.6364C1.89394 15.6364 1.57197 15.5038 1.30682 15.2386C1.04167 14.9735 0.909091 14.6515 0.909091 14.2727V3.36364C0.909091 2.98485 1.04167 2.66288 1.30682 2.39773C1.57197 2.13258 1.89394 2 2.27273 2H17.7273C18.1061 2 18.428 2.13258 18.6932 2.39773C18.9583 2.66288 19.0909 2.98485 19.0909 3.36364V14.2727C19.0909 14.6515 18.9583 14.9735 18.6932 15.2386C18.428 15.5038 18.1061 15.6364 17.7273 15.6364H2.27273ZM2.27273 14.2727H17.7273V3.36364H2.27273V14.2727ZM0.681818 18.3636C0.484848 18.3636 0.32197 18.2992 0.193182 18.1705C0.0643939 18.0417 0 17.8788 0 17.6818C0 17.4848 0.0643939 17.322 0.193182 17.1932C0.32197 17.0644 0.484848 17 0.681818 17H19.3182C19.5152 17 19.678 17.0644 19.8068 17.1932C19.9356 17.322 20 17.4848 20 17.6818C20 17.8788 19.9356 18.0417 19.8068 18.1705C19.678 18.2992 19.5152 18.3636 19.3182 18.3636H0.681818ZM2.27273 14.2727V3.36364V14.2727Z" fill="#14142B"/>
</svg>
