<svg width="18" height="18" viewBox="0 0 18 18" fill="none" xmlns="http://www.w3.org/2000/svg">
    <path d="M4.987 12.806h8.044c.125 0 .213-.05.263-.15.05-.1.037-.2-.038-.3l-2.194-2.925a.284.284 0 0 0-.224-.112.284.284 0 0 0-.225.112l-2.25 2.907-1.52-2.082a.284.284 0 0 0-.224-.112.284.284 0 0 0-.225.112l-1.613 2.1c-.062.1-.072.2-.028.3.044.1.122.15.234.15zM3.375 15.75c-.3 0-.563-.113-.788-.338a1.08 1.08 0 0 1-.337-.787V3.375c0-.3.112-.563.337-.788a1.08 1.08 0 0 1 .788-.337h11.25c.3 0 .563.112.787.337.225.225.338.488.338.788v11.25c0 .3-.113.563-.338.787a1.08 1.08 0 0 1-.787.338H3.375zm0-1.125h11.25V3.375H3.375v11.25zm0-11.25v11.25-11.25z" fill="#2D2D39"/>
</svg>
