<svg width="28" height="28" viewBox="0 0 28 28" fill="none" xmlns="http://www.w3.org/2000/svg">
<rect width="28" height="28" fill="#D7ECFD"/>
<rect width="28" height="28" rx="5" fill="#D7ECFD"/>
<path d="M14.9855 22.2896C14.4401 22.2896 14.0631 21.7444 14.2555 21.2341L17.299 13.163C17.4458 12.7736 17.8185 12.5158 18.2346 12.5158H18.5277C18.9406 12.5158 19.311 12.7696 19.4602 13.1545L22.5725 21.1865C22.7783 21.7175 22.3865 22.2896 21.817 22.2896V22.2896C21.466 22.2896 21.155 22.0637 21.0464 21.73L20.3937 19.724H16.4842L15.7165 21.7821C15.6026 22.0872 15.3112 22.2896 14.9855 22.2896V22.2896ZM16.9321 18.2986H19.8235L18.3982 14.3484H18.3575L16.9321 18.2986ZM8.00339 19.2862C7.69414 19.5955 7.19274 19.5955 6.88348 19.2862V19.2862C6.57423 18.9769 6.57423 18.4755 6.88348 18.1663L10.4774 14.5724C9.96154 13.9751 9.50339 13.3744 9.10294 12.7704C8.93935 12.5236 8.78426 12.2729 8.63766 12.0182C8.34067 11.5022 8.73224 10.8869 9.32759 10.8869V10.8869C9.63353 10.8869 9.91169 11.0591 10.0633 11.3248C10.228 11.6136 10.4034 11.8919 10.5894 12.1595C10.8676 12.56 11.1833 12.9706 11.5362 13.3914C12.1471 12.7534 12.6561 12.0916 13.0633 11.4061C13.4706 10.7206 13.8167 10.0045 14.1018 9.25792H5.81448C5.36466 9.25792 5 8.89326 5 8.44344V8.44344C5 7.99361 5.36465 7.62896 5.81448 7.62896H10.7014V6.81448C10.7014 6.36465 11.066 6 11.5158 6V6C11.9657 6 12.3303 6.36465 12.3303 6.81448V7.62896H17.2172C17.667 7.62896 18.0317 7.99361 18.0317 8.44344V8.44344C18.0317 8.89326 17.667 9.25792 17.2172 9.25792H15.7308C15.4321 10.1946 15.0351 11.1143 14.5396 12.017C14.0441 12.9197 13.4367 13.7783 12.7172 14.5928L14.3481 16.2403C14.5705 16.465 14.6425 16.7981 14.5327 17.0946V17.0946C14.3293 17.6437 13.6295 17.8042 13.2072 17.3985L11.5158 15.7738L8.00339 19.2862Z" fill="#4B9EF9"/>
</svg>
