<svg width="16" height="14" viewBox="0 0 16 14" fill="none" xmlns="http://www.w3.org/2000/svg">
<path fill-rule="evenodd" clip-rule="evenodd" d="M0.5 1.16683C0.5 0.706592 0.779822 0.333496 1.125 0.333496H14.875C15.2202 0.333496 15.5 0.706592 15.5 1.16683C15.5 1.62707 15.2202 2.00016 14.875 2.00016H1.125C0.779822 2.00016 0.5 1.62707 0.5 1.16683ZM0.5 7.00016C0.5 6.53993 0.779822 6.16683 1.125 6.16683H14.875C15.2202 6.16683 15.5 6.53993 15.5 7.00016C15.5 7.4604 15.2202 7.8335 14.875 7.8335H1.125C0.779822 7.8335 0.5 7.4604 0.5 7.00016ZM0.5 12.8335C0.5 12.3733 0.779822 12.0002 1.125 12.0002H14.875C15.2202 12.0002 15.5 12.3733 15.5 12.8335C15.5 13.2937 15.2202 13.6668 14.875 13.6668H1.125C0.779822 13.6668 0.5 13.2937 0.5 12.8335Z" fill="#14142B"/>
</svg>
