<svg width="24" height="24" viewBox="0 0 24 24" fill="none" xmlns="http://www.w3.org/2000/svg">
<path d="M19.5789 19.1053V12.4737V12.7579V19.1053ZM18.6316 8.21053C18.9 8.21053 19.1248 8.11989 19.3061 7.93863C19.488 7.75674 19.5789 7.53158 19.5789 7.26316C19.5789 6.99474 19.488 6.76958 19.3061 6.58768C19.1248 6.40642 18.9 6.31579 18.6316 6.31579C18.3632 6.31579 18.1383 6.40642 17.9571 6.58768C17.7752 6.76958 17.6842 6.99474 17.6842 7.26316C17.6842 7.53158 17.7752 7.75674 17.9571 7.93863C18.1383 8.11989 18.3632 8.21053 18.6316 8.21053ZM18.6316 9.63158C17.9526 9.63158 17.388 9.40642 16.9377 8.95611C16.488 8.50642 16.2632 7.94211 16.2632 7.26316C16.2632 6.6 16.488 6.03947 16.9377 5.58158C17.388 5.12368 17.9526 4.89474 18.6316 4.89474C19.2947 4.89474 19.8553 5.12368 20.3132 5.58158C20.7711 6.03947 21 6.6 21 7.26316C21 7.94211 20.7711 8.50642 20.3132 8.95611C19.8553 9.40642 19.2947 9.63158 18.6316 9.63158ZM12 7.26316C12.3947 7.26316 12.7301 7.12895 13.0061 6.86053C13.2827 6.59211 13.4211 6.25263 13.4211 5.84211C13.4211 5.44737 13.2827 5.112 13.0061 4.836C12.7301 4.55937 12.3947 4.42105 12 4.42105C11.5895 4.42105 11.25 4.55937 10.9816 4.836C10.7132 5.112 10.5789 5.44737 10.5789 5.84211C10.5789 6.25263 10.7132 6.59211 10.9816 6.86053C11.25 7.12895 11.5895 7.26316 12 7.26316ZM12 8.68421C11.1947 8.68421 10.5199 8.41168 9.97547 7.86663C9.43042 7.32221 9.1579 6.64737 9.1579 5.84211C9.1579 5.05263 9.43042 4.38158 9.97547 3.82895C10.5199 3.27632 11.1947 3 12 3C12.7895 3 13.4605 3.27632 14.0132 3.82895C14.5658 4.38158 14.8421 5.05263 14.8421 5.84211C14.8421 6.64737 14.5658 7.32221 14.0132 7.86663C13.4605 8.41168 12.7895 8.68421 12 8.68421ZM7.95 12.8289C7.95 13.35 8.21053 13.938 8.73158 14.5929C9.25263 15.2485 10.2868 16.2789 11.8342 17.6842L12 17.85L12.1895 17.6605C13.6737 16.3184 14.6883 15.312 15.2334 14.6413C15.7778 13.9699 16.05 13.3658 16.05 12.8289C16.05 12.3868 15.9079 12.0158 15.6237 11.7158C15.3395 11.4158 14.9842 11.2658 14.5579 11.2658C14.3053 11.2658 14.0605 11.3248 13.8237 11.4429C13.5868 11.5617 13.3974 11.7158 13.2553 11.9053L12.1895 13.1605H11.7868L10.7211 11.9053C10.5789 11.7158 10.3933 11.5617 10.164 11.4429C9.93537 11.3248 9.69474 11.2658 9.44211 11.2658C9 11.2658 8.64063 11.4158 8.364 11.7158C8.088 12.0158 7.95 12.3868 7.95 12.8289ZM6.52895 12.8289C6.52895 12.0553 6.80526 11.3646 7.35789 10.7571C7.91053 10.1488 8.60526 9.84474 9.44211 9.84474C9.91579 9.84474 10.3658 9.95526 10.7921 10.1763C11.2184 10.3974 11.5816 10.6895 11.8816 11.0526L12 11.1947L12.1184 11.0526C12.4184 10.6895 12.7778 10.3974 13.1965 10.1763C13.6146 9.95526 14.0684 9.84474 14.5579 9.84474C15.3947 9.84474 16.0895 10.1526 16.6421 10.7684C17.1947 11.3842 17.4711 12.0711 17.4711 12.8289C17.4711 13.6184 17.1752 14.4079 16.5834 15.1974C15.9909 15.9868 14.8026 17.1947 13.0184 18.8211L12 19.7684L11.0053 18.8447C9.17368 17.1868 7.96989 15.9673 7.39389 15.186C6.81726 14.4041 6.52895 13.6184 6.52895 12.8289ZM5.36842 8.21053C5.63684 8.21053 5.862 8.11989 6.04389 7.93863C6.22516 7.75674 6.31579 7.53158 6.31579 7.26316C6.31579 6.99474 6.22516 6.76958 6.04389 6.58768C5.862 6.40642 5.63684 6.31579 5.36842 6.31579C5.1 6.31579 4.87484 6.40642 4.69295 6.58768C4.51168 6.76958 4.42105 6.99474 4.42105 7.26316C4.42105 7.53158 4.51168 7.75674 4.69295 7.93863C4.87484 8.11989 5.1 8.21053 5.36842 8.21053ZM12.0711 20.5263V19.1053H19.5789V12.7579C19.5789 12.6789 19.5515 12.6117 19.4965 12.5561C19.4409 12.5012 19.3737 12.4737 19.2947 12.4737H16.8316V11.0526H19.2947C19.7684 11.0526 20.1711 11.2184 20.5026 11.55C20.8342 11.8816 21 12.2842 21 12.7579V20.5263H12.0711ZM4.42105 19.1053H12.0711V20.5263H3V12.7579C3 12.2842 3.16579 11.8816 3.49737 11.55C3.82895 11.2184 4.23158 11.0526 4.70526 11.0526H7.16842V12.4737H4.70526C4.62632 12.4737 4.55937 12.5012 4.50442 12.5561C4.44884 12.6117 4.42105 12.6789 4.42105 12.7579V19.1053ZM5.36842 9.63158C4.68947 9.63158 4.12516 9.40642 3.67547 8.95611C3.22516 8.50642 3 7.94211 3 7.26316C3 6.6 3.22516 6.03947 3.67547 5.58158C4.12516 5.12368 4.68947 4.89474 5.36842 4.89474C6.03158 4.89474 6.59211 5.12368 7.05 5.58158C7.50789 6.03947 7.73684 6.6 7.73684 7.26316C7.73684 7.94211 7.50789 8.50642 7.05 8.95611C6.59211 9.40642 6.03158 9.63158 5.36842 9.63158Z" fill="#2D2D39"/>
</svg>
