<svg width="24" height="24" viewBox="0 0 24 24" fill="none" xmlns="http://www.w3.org/2000/svg">
<path d="M13.8142 20.5968C13.5455 20.8656 13.2096 21 12.8068 21C12.4033 21 12.0672 20.8656 11.7984 20.5968L3.45059 12.249C3.3083 12.1067 3.19763 11.9486 3.11858 11.7747C3.03953 11.6008 3 11.4111 3 11.2055V4.42292C3 4.02767 3.1385 3.69186 3.41549 3.41549C3.69186 3.1385 4.02767 3 4.42292 3H11.2055C11.3953 3 11.5812 3.03953 11.7633 3.11858C11.9448 3.19763 12.0988 3.3004 12.2253 3.42688L20.5731 11.7747C20.8577 12.0593 21 12.403 21 12.8058C21 13.2093 20.8656 13.5455 20.5968 13.8142L13.8142 20.5968ZM12.7945 19.6008L19.5771 12.8182L11.2055 4.42292H4.42292V11.2055L12.7945 19.6008ZM6.79447 7.98024C7.12648 7.98024 7.40727 7.86545 7.63684 7.63589C7.86577 7.40696 7.98024 7.12648 7.98024 6.79447C7.98024 6.46245 7.86577 6.18166 7.63684 5.95209C7.40727 5.72316 7.12648 5.6087 6.79447 5.6087C6.46245 5.6087 6.18198 5.72316 5.95304 5.95209C5.72348 6.18166 5.6087 6.46245 5.6087 6.79447C5.6087 7.12648 5.72348 7.40696 5.95304 7.63589C6.18198 7.86545 6.46245 7.98024 6.79447 7.98024Z" fill="#2D2D39"/>
</svg>
