<svg width="24" height="24" viewBox="0 0 24 24" fill="none" xmlns="http://www.w3.org/2000/svg">
    <path fill-rule="evenodd" clip-rule="evenodd" d="M6.79 5.867c-1.047 0-1.895.835-1.895 1.866 0 1.031.848 1.867 1.894 1.867 1.047 0 1.895-.836 1.895-1.867 0-1.03-.848-1.866-1.895-1.866zM3 7.733C3 5.671 4.697 4 6.79 4c1.765 0 3.249 1.19 3.67 2.8h9.593a.94.94 0 0 1 .947.933.94.94 0 0 1-.947.934H10.46c-.421 1.61-1.905 2.8-3.67 2.8C4.696 11.467 3 9.795 3 7.733zM17.21 15.2c-1.046 0-1.894.836-1.894 1.867 0 1.03.848 1.866 1.894 1.866 1.047 0 1.895-.835 1.895-1.866 0-1.031-.848-1.867-1.895-1.867zm-3.67.933c.421-1.61 1.905-2.8 3.67-2.8 2.093 0 3.79 1.672 3.79 3.734 0 2.061-1.697 3.733-3.79 3.733-1.765 0-3.249-1.19-3.67-2.8H3.947A.94.94 0 0 1 3 17.067a.94.94 0 0 1 .947-.934h9.593z" fill="#14142B"/>
</svg>
