<svg width="15" height="13" viewBox="0 0 15 13" fill="none" xmlns="http://www.w3.org/2000/svg">
<path d="M3.20415 11.3369C2.98167 11.5779 2.99678 11.9537 3.23777 12.1758C3.35222 12.2812 3.49651 12.3333 3.64042 12.3333C3.80058 12.3333 3.9596 12.2691 4.07669 12.1426L3.20415 11.3369ZM14.4071 6.23303L13.655 7.15242C13.9088 7.35979 14.2832 7.32239 14.4905 7.06856C14.5808 6.95826 14.625 6.8253 14.625 6.6931C14.625 6.52123 14.5506 6.3505 14.4071 6.23303ZM2.45286 6.98962C2.45286 7.31748 2.71877 7.5834 3.04664 7.5834C3.3745 7.5834 3.6136 7.34355 3.63815 7.03834C3.63966 7.02248 3.64042 7.00661 3.64042 6.99037V6.98962H2.45286ZM7.20311 6.98962V6.99037C7.20311 6.9949 7.20311 6.99944 7.20349 7.00397C7.21104 7.32504 7.47356 7.5834 7.79689 7.5834C8.12022 7.5834 8.39067 7.31748 8.39067 6.98962H7.20311ZM2.15597 0.458328V1.6459H12.8437V0.458328H2.15597ZM13.4374 2.23969V5.4398L12.0074 4.2696C11.278 3.67279 10.2098 3.74758 9.5703 4.43995L8.0647 6.07098C7.91512 5.84586 7.7187 5.62489 7.48905 5.42696C6.98214 4.98917 6.25578 4.61446 5.42176 4.61446C4.58775 4.61446 3.86139 4.98917 3.35448 5.42696C3.10292 5.64415 2.89064 5.88892 2.73615 6.13633L1.56219 4.96235V6.64173L4.66972 9.74929L3.38017 11.1461H4.99645L10.4428 5.24565C10.6563 5.01486 11.0121 4.98993 11.2553 5.18861L13.4374 6.97451V10.5523H14.625V2.23969H13.4374ZM5.47578 8.87599L3.63815 7.03834C3.63966 7.02248 3.64042 7.00661 3.64042 6.99037C3.64118 6.99037 3.64986 6.91596 3.73863 6.77242C3.82362 6.63455 3.9562 6.47591 4.13033 6.32557C4.48312 6.02112 4.94432 5.80204 5.42176 5.80204C5.89921 5.80204 6.36041 6.02112 6.7132 6.32557C6.88695 6.47591 7.01954 6.63455 7.1049 6.77242C7.19329 6.91596 7.20235 6.99037 7.20311 6.99037C7.20311 6.9949 7.20311 6.99944 7.20349 7.00397L5.47578 8.87599ZM2.15597 11.1461V12.3333H12.8437V11.1461H2.15597ZM0.375 2.23969V10.5523H1.56219V2.23969H0.375ZM1.56219 11.1461V10.5523H0.375C0.375 11.5359 1.17237 12.3333 2.15597 12.3333V11.1461H1.56219ZM13.4374 10.5523V11.1461H12.8437V12.3333C13.8272 12.3333 14.625 11.5359 14.625 10.5523H13.4374ZM14.625 2.23969C14.625 1.25571 13.8272 0.458328 12.8437 0.458328V1.6459H13.4374V2.23969H14.625ZM0.375 2.23969H1.56219V1.6459H2.15597V0.458328C1.17237 0.458328 0.375 1.25571 0.375 2.23969ZM3.58943 6.98962L3.63815 7.03834C3.63966 7.02248 3.64042 7.00661 3.64042 6.99037V6.98962H3.58943ZM9.5703 4.43995L8.0647 6.07098L7.21671 6.98962H7.20311V6.99037C7.20311 6.9949 7.20311 6.99944 7.20349 7.00397L5.47578 8.87599L4.66972 9.74929L3.38017 11.1461L3.20415 11.3369L4.07669 12.1426L4.99645 11.1461L10.4428 5.24565L9.5703 4.43995ZM13.4374 5.4398L12.0074 4.2696L11.2553 5.18861L13.4374 6.97451L13.655 7.15242L14.4071 6.23303L13.4374 5.4398ZM9.5703 4.43995L10.4428 5.24565C10.6563 5.01486 11.0121 4.98993 11.2553 5.18861L12.0074 4.2696C11.278 3.67279 10.2098 3.74758 9.5703 4.43995ZM5.47578 8.87599L3.63815 7.03834L3.58943 6.98962L2.73615 6.13633L1.38843 4.7886L0.548753 5.62829L5.15018 10.2298L5.98986 9.39008L5.47578 8.87599ZM3.35448 5.42696C3.10292 5.64415 2.89064 5.88892 2.73615 6.13633C2.73313 6.14048 2.73048 6.14502 2.72784 6.14917C2.58091 6.38752 2.45286 6.68441 2.45286 6.98962H3.58943L3.63815 7.03834C3.63966 7.02248 3.64042 7.00661 3.64042 6.99037C3.64118 6.99037 3.64986 6.91596 3.73863 6.77242C3.82362 6.63455 3.9562 6.47591 4.13033 6.32557C4.48312 6.02112 4.94432 5.80204 5.42176 5.80204V4.61446C4.58737 4.61446 3.86139 4.98917 3.35448 5.42696ZM8.11531 6.14917C8.09907 6.12311 8.08245 6.09705 8.0647 6.07098C7.91512 5.84586 7.7187 5.62489 7.48905 5.42696C6.98214 4.98917 6.25578 4.61446 5.42176 4.61446V5.80204C5.89921 5.80204 6.36041 6.02112 6.7132 6.32557C6.88695 6.47591 7.01954 6.63455 7.1049 6.77242C7.19329 6.91596 7.20235 6.99037 7.20311 6.99037V6.98962H8.39067C8.39067 6.68441 8.26262 6.38752 8.11531 6.14917Z" fill="#4B9EF9"/>
</svg>
