<svg width="300" height="300" viewBox="0 0 300 300" fill="none" xmlns="http://www.w3.org/2000/svg">
<circle cx="55" cy="104" r="5" fill="#8CC8FA"/>
<circle cx="44.5" cy="193.5" r="9.5" fill="#8CC8FA"/>
<ellipse cx="247" cy="96.5" rx="6" ry="6.5" fill="#8CC8FA"/>
<g clip-path="url(#clip0_2251_3045)">
<path d="M216.858 97.1284H83.4659C81.6663 97.1295 79.9407 97.8407 78.6682 99.1058C77.3957 100.371 76.6803 102.086 76.6792 103.875V225.548C76.6803 227.337 77.3957 229.053 78.6682 230.318C79.9407 231.583 81.6663 232.294 83.4659 232.295H216.858C218.658 232.294 220.383 231.583 221.656 230.318C222.929 229.053 223.644 227.337 223.645 225.548V103.875C223.644 102.086 222.929 100.371 221.656 99.1056C220.383 97.8405 218.658 97.1293 216.858 97.1284Z" fill="#B4DBFC"/>
<path d="M208.077 190.015H92.2487C88.5007 190.015 85.4619 186.994 85.4619 183.268V75.7635C85.4619 72.0375 88.5007 69.0165 92.2487 69.0165H208.077C211.825 69.0165 214.863 72.0375 214.863 75.7635V183.268C214.863 186.994 211.825 190.015 208.077 190.015Z" fill="#F7F7FC"/>
<path d="M87.6106 185.403V77.8997C87.6106 74.1736 90.6494 71.1526 94.3974 71.1526H210.225C211.549 71.1526 212.78 71.5351 213.823 72.1866C212.624 70.2845 210.501 69.0165 208.077 69.0165H92.2487C88.5007 69.0165 85.4619 72.0375 85.4619 75.7635V183.268C85.4619 185.679 86.7374 187.788 88.6506 188.981C87.9954 187.943 87.6106 186.72 87.6106 185.404V185.403Z" fill="#D7ECFD"/>
<path d="M193.825 91.7304H106.501V96.6778H193.825V91.7304ZM193.825 110.621H106.501V115.569H193.825V110.621ZM193.825 129.516H106.501V134.464H193.825V129.516ZM193.825 148.407H106.501V153.355H193.825V148.407Z" fill="white"/>
<path d="M116.907 132.438L138.85 154.254H116.907V132.438Z" fill="url(#paint0_linear_2251_3045)"/>
<path d="M223.646 156.054V105.86L214.864 97.1284V156.053H223.646V156.054Z" fill="#B4DBFC"/>
<path d="M233.932 160.594L224.47 227.181C223.997 230.51 221.132 232.984 217.75 232.984H82.5746C79.1932 232.984 76.3275 230.51 75.8545 227.181L63.068 137.206C62.4913 133.144 65.6618 129.515 69.7882 129.515H111.533C114.915 129.515 117.78 131.989 118.253 135.317L119.929 147.1C120.402 150.429 123.268 152.903 126.649 152.903H227.213C231.338 152.903 234.51 156.532 233.933 160.594H233.932Z" fill="url(#paint1_linear_2251_3045)"/>
<path d="M200.408 203.283H99.918C99.3672 203.283 98.8354 203.083 98.4222 202.721C98.009 202.359 97.7427 201.86 97.6733 201.316L96.416 191.42C96.3761 191.104 96.4043 190.782 96.4988 190.477C96.5934 190.172 96.752 189.891 96.9643 189.652C97.1766 189.412 97.4376 189.221 97.7301 189.089C98.0226 188.958 98.3398 188.89 98.6608 188.89H201.665C201.986 188.89 202.303 188.958 202.596 189.089C202.888 189.221 203.149 189.412 203.362 189.652C203.574 189.891 203.733 190.172 203.827 190.477C203.922 190.782 203.95 191.104 203.91 191.42L202.653 201.316C202.583 201.86 202.317 202.359 201.904 202.721C201.49 203.083 200.959 203.283 200.408 203.283Z" fill="#8CC8FA"/>
</g>
<circle cx="251" cy="72" r="4" fill="#8CC8FA"/>
<defs>
<linearGradient id="paint0_linear_2251_3045" x1="131.405" y1="157.755" x2="105.037" y2="131.232" gradientUnits="userSpaceOnUse">
<stop stop-color="#C2C9CE" stop-opacity="0"/>
<stop offset="0.179" stop-color="#AFB3BC" stop-opacity="0.179"/>
<stop offset="1" stop-color="#808BA0"/>
</linearGradient>
<linearGradient id="paint1_linear_2251_3045" x1="148.5" y1="129.515" x2="148.5" y2="232.984" gradientUnits="userSpaceOnUse">
<stop stop-color="#8CC8FA"/>
<stop offset="0.927" stop-color="#4B9EF9"/>
</linearGradient>
<clipPath id="clip0_2251_3045">
<rect width="171" height="170" fill="white" transform="translate(63 66)"/>
</clipPath>
</defs>
</svg>
