<svg width="19" height="16" viewBox="0 0 19 16" fill="none" xmlns="http://www.w3.org/2000/svg">
<path d="M2.77091 12.75C2.44105 12.75 2.16067 12.6345 1.92977 12.4036C1.69887 12.1727 1.58341 11.8924 1.58341 11.5625V2.0625C1.58341 1.73264 1.69887 1.45226 1.92977 1.22135C2.16067 0.990451 2.44105 0.875 2.77091 0.875H16.2292C16.5591 0.875 16.8395 0.990451 17.0704 1.22135C17.3013 1.45226 17.4167 1.73264 17.4167 2.0625V11.5625C17.4167 11.8924 17.3013 12.1727 17.0704 12.4036C16.8395 12.6345 16.5591 12.75 16.2292 12.75H2.77091ZM2.77091 11.5625H16.2292V2.0625H2.77091V11.5625ZM1.3855 15.125C1.21397 15.125 1.07213 15.0689 0.959977 14.9568C0.847824 14.8446 0.791748 14.7028 0.791748 14.5312C0.791748 14.3597 0.847824 14.2179 0.959977 14.1057C1.07213 13.9936 1.21397 13.9375 1.3855 13.9375H17.6147C17.7862 13.9375 17.928 13.9936 18.0402 14.1057C18.1523 14.2179 18.2084 14.3597 18.2084 14.5312C18.2084 14.7028 18.1523 14.8446 18.0402 14.9568C17.928 15.0689 17.7862 15.125 17.6147 15.125H1.3855ZM2.77091 11.5625V2.0625V11.5625Z" fill="#14142B"/>
</svg>
