<svg width="14" height="12" viewBox="0 0 14 12" fill="none" xmlns="http://www.w3.org/2000/svg">
<path d="M1.28846 11.8385C1.13269 11.8385 0.976923 11.7865 0.873077 11.7346C0.509615 11.5788 0.25 11.2154 0.25 10.8V1.03846C0.25 0.467308 0.717308 0 1.28846 0H12.7115C13.2827 0 13.75 0.467308 13.75 1.03846V8.30769C13.75 8.87885 13.2827 9.34615 12.7115 9.34615H4.76731C4.66346 9.34615 4.50769 9.39808 4.40385 9.45L1.91154 11.5788C1.75577 11.7865 1.54808 11.8385 1.28846 11.8385ZM1.28846 6.23077V10.8L3.78077 8.67115C4.04038 8.46346 4.40385 8.30769 4.76731 8.30769H12.7115V1.03846H1.28846V6.23077Z" fill="#14142B"/>
</svg>
