<svg width="28" height="28" viewBox="0 0 28 28" fill="none" xmlns="http://www.w3.org/2000/svg">
<path d="M15.2866 19.9167L19.523 9.73724C19.568 9.63499 19.5811 9.52152 19.5605 9.41171C19.5399 9.3019 19.4866 9.20087 19.4076 9.12187C19.3286 9.04287 19.2276 8.98959 19.1178 8.96899C19.008 8.9484 18.8945 8.96147 18.7923 9.00648L8.6121 13.2422C8.52405 13.2767 8.44577 13.3322 8.3841 13.4038C8.32243 13.4755 8.27924 13.5612 8.25829 13.6534C8.23734 13.7456 8.23928 13.8416 8.26393 13.9328C8.28858 14.0241 8.33519 14.108 8.3997 14.1771L10.2273 16.0129C10.3267 16.11 10.4583 16.1671 10.5971 16.1734C10.7359 16.1797 10.8721 16.1348 10.9799 16.0471L17.5664 10.9632L12.4776 17.5448C12.3921 17.6545 12.3489 17.7914 12.356 17.9303C12.363 18.0692 12.4197 18.201 12.5159 18.3015L14.3517 20.1291C14.4208 20.1936 14.5047 20.2402 14.596 20.2649C14.6873 20.2895 14.7832 20.2915 14.8754 20.2705C14.9676 20.2496 15.0533 20.2064 15.125 20.1447C15.1967 20.083 15.2522 20.0048 15.2866 19.9167V19.9167Z" fill="#0FA069"/>
<rect x="0.5" y="0.5" width="27" height="27" rx="2.5" stroke="#0FA069"/>
</svg>
