<svg width="44" height="45" viewBox="0 0 44 45" fill="none" xmlns="http://www.w3.org/2000/svg">
<rect y="0.5" width="44" height="44" rx="5" fill="#FFF2D9"/>
<path d="M22.42 13.5C22.8 13.57 23.18 13.62 23.55 13.72C25.85 14.34 27.57 16.4 27.77 18.78C27.91 20.46 27.42 21.94 26.29 23.19C25.69 23.85 25.25 24.58 25.07 25.46C25.05 25.57 25.03 25.68 25.01 25.79H18.98C18.9 25.23 18.76 24.7 18.47 24.23C18.27 23.91 18.06 23.59 17.8 23.31C16.94 22.37 16.38 21.29 16.25 20.03C16.01 17.79 16.8 15.97 18.59 14.61C19.43 13.98 20.4 13.63 21.46 13.53C21.5 13.53 21.54 13.51 21.58 13.5C21.86 13.5 22.14 13.5 22.42 13.5ZM21.47 19.83C21.47 19.83 21.47 19.94 21.47 20.02C21.49 20.31 21.72 20.53 22 20.53C22.28 20.53 22.51 20.31 22.52 20.02C22.52 19.92 22.52 19.82 22.52 19.72C22.52 19.53 22.59 19.39 22.75 19.29C22.82 19.24 22.89 19.2 22.95 19.15C23.53 18.71 23.74 17.91 23.44 17.24C23.13 16.57 22.41 16.2 21.69 16.34C20.98 16.48 20.44 17.11 20.42 17.82C20.42 18.15 20.61 18.39 20.91 18.41C21.21 18.43 21.43 18.2 21.48 17.88C21.5 17.74 21.56 17.59 21.66 17.5C21.87 17.28 22.23 17.32 22.42 17.56C22.62 17.81 22.56 18.15 22.27 18.34C21.74 18.68 21.45 19.15 21.48 19.83H21.47ZM22.52 22.1C22.52 21.82 22.28 21.58 21.99 21.58C21.7 21.58 21.47 21.82 21.47 22.1C21.47 22.39 21.72 22.64 22.01 22.63C22.29 22.63 22.53 22.38 22.53 22.1H22.52Z" fill="#F2BB33"/>
<path d="M31 19.44C30.86 19.74 30.62 19.85 30.29 19.83C30.01 19.81 29.73 19.83 29.45 19.83C29.13 19.83 28.89 19.6 28.89 19.3C28.89 19 29.13 18.78 29.45 18.77C29.73 18.77 30.01 18.78 30.29 18.77C30.62 18.75 30.86 18.86 31 19.16V19.44Z" fill="#F2BB33"/>
<path d="M24.96 26.87C24.96 27.29 25 27.69 24.96 28.09C24.86 28.82 24.21 29.38 23.47 29.38C22.49 29.39 21.51 29.39 20.54 29.38C19.72 29.37 19.04 28.68 19.02 27.86C19.02 27.53 19.02 27.21 19.02 26.87H24.97H24.96Z" fill="#F2BB33"/>
<path d="M20.07 30.45H23.91C23.97 30.87 23.62 31.3399 23.16 31.4599C23.08 31.4799 23 31.5 22.92 31.5C22.31 31.5 21.7 31.5 21.09 31.5C20.53 31.5 20.08 31.0299 20.07 30.4599V30.45Z" fill="#F2BB33"/>
<path d="M14.05 19.83C13.87 19.83 13.7 19.83 13.52 19.83C13.23 19.82 13 19.59 13 19.3C13 19.01 13.23 18.77 13.54 18.77C13.88 18.77 14.23 18.77 14.57 18.77C14.88 18.77 15.11 19.01 15.11 19.3C15.11 19.59 14.88 19.82 14.56 19.82C14.39 19.82 14.22 19.82 14.05 19.82V19.83Z" fill="#F2BB33"/>
<path d="M28.97 17.3C28.73 17.3 28.52 17.13 28.46 16.9C28.4 16.66 28.5 16.41 28.73 16.31C29.1 16.16 29.47 16.02 29.85 15.9C30.08 15.83 30.33 15.97 30.43 16.18C30.53 16.39 30.5 16.71 30.29 16.81C29.87 17.01 29.42 17.17 28.99 17.34C28.99 17.33 28.98 17.31 28.97 17.3Z" fill="#F2BB33"/>
<path d="M15.55 21.83C15.53 22.05 15.43 22.23 15.22 22.31C14.88 22.44 14.53 22.57 14.18 22.68C13.91 22.77 13.63 22.62 13.54 22.37C13.44 22.11 13.56 21.8 13.82 21.7C14.17 21.56 14.52 21.43 14.87 21.32C15.21 21.21 15.55 21.48 15.54 21.83H15.55Z" fill="#F2BB33"/>
<path d="M29.03 21.3C29.03 21.3 29.13 21.32 29.2 21.34C29.5 21.44 29.79 21.55 30.09 21.66C30.42 21.78 30.57 22.07 30.46 22.37C30.35 22.65 30.05 22.77 29.73 22.66C29.42 22.55 29.1 22.44 28.79 22.32C28.53 22.22 28.4 21.97 28.46 21.71C28.51 21.47 28.73 21.3 29.02 21.3H29.03Z" fill="#F2BB33"/>
<path d="M14.98 17.3C14.98 17.3 14.89 17.29 14.84 17.27C14.52 17.15 14.19 17.04 13.87 16.92C13.58 16.81 13.44 16.52 13.54 16.24C13.64 15.97 13.93 15.83 14.21 15.93C14.55 16.04 14.88 16.16 15.21 16.29C15.46 16.39 15.58 16.63 15.53 16.89C15.48 17.13 15.27 17.31 14.97 17.31L14.98 17.3Z" fill="#F2BB33"/>
</svg>
