<svg width="16" height="16" viewBox="0 0 16 16" fill="none" xmlns="http://www.w3.org/2000/svg">
<path d="M16 3.49321V14.2986C16 14.7741 15.8353 15.1765 15.5059 15.5059C15.1765 15.8353 14.774 16 14.2986 16H1.70137C1.22595 16 0.823532 15.8353 0.494119 15.5059C0.164706 15.1765 0 14.7741 0 14.2986V1.70137C0 1.22595 0.164706 0.823532 0.494119 0.494119C0.823532 0.164706 1.22595 0 1.70137 0H12.5068L16 3.49321ZM14.5883 4.09411L11.9059 1.41175H1.70137C1.6169 1.41175 1.54751 1.4389 1.4932 1.4932C1.4389 1.54751 1.41175 1.6169 1.41175 1.70137V14.2986C1.41175 14.3831 1.4389 14.4525 1.4932 14.5068C1.54751 14.5611 1.6169 14.5883 1.70137 14.5883H14.2986C14.3831 14.5883 14.4525 14.5611 14.5068 14.5068C14.5611 14.4525 14.5883 14.3831 14.5883 14.2986V4.09411ZM8 12.9592C8.65158 12.9592 9.20662 12.73 9.66513 12.2715C10.1237 11.8129 10.3529 11.2579 10.3529 10.6063C10.3529 9.95476 10.1237 9.39971 9.66513 8.94118C9.20662 8.48267 8.65158 8.25341 8 8.25341C7.34842 8.25341 6.79338 8.48267 6.33487 8.94118C5.87634 9.39971 5.64708 9.95476 5.64708 10.6063C5.64708 11.2579 5.87634 11.8129 6.33487 12.2715C6.79338 12.73 7.34842 12.9592 8 12.9592ZM2.71495 6.00903H10.4434V2.71495H2.71495V6.00903Z" fill="#14142B"/>
</svg>
