<svg width="28" height="28" viewBox="0 0 28 28" fill="none" xmlns="http://www.w3.org/2000/svg">
<rect width="28" height="28" fill="#D7ECFD"/>
<rect width="28" height="28" rx="5" fill="#D7ECFD"/>
<g clip-path="url(#clip0_3136_29238)">
<path fill-rule="evenodd" clip-rule="evenodd" d="M13.6786 8.53571C10.8382 8.53571 8.53571 10.8382 8.53571 13.6786C8.53571 16.5189 10.8382 18.8214 13.6786 18.8214C16.5189 18.8214 18.8214 16.5189 18.8214 13.6786C18.8214 10.8382 16.5189 8.53571 13.6786 8.53571ZM7.25 13.6786C7.25 10.1282 10.1282 7.25 13.6786 7.25C17.229 7.25 20.1071 10.1282 20.1071 13.6786C20.1071 15.2222 19.5631 16.6388 18.6562 17.747L20.5617 19.6526C20.8128 19.9036 20.8128 20.3107 20.5617 20.5617C20.3107 20.8128 19.9036 20.8128 19.6526 20.5617L17.747 18.6562C16.6388 19.5631 15.2222 20.1071 13.6786 20.1071C10.1282 20.1071 7.25 17.229 7.25 13.6786Z" fill="#4B9EF9"/>
</g>
<defs>
<clipPath id="clip0_3136_29238">
<rect width="18" height="18" fill="white" transform="translate(5 5)"/>
</clipPath>
</defs>
</svg>
