<svg width="18" height="18" viewBox="0 0 18 18" fill="none" xmlns="http://www.w3.org/2000/svg">
<path d="M9 18C7.75263 18 6.58042 17.7632 5.48337 17.2895C4.38568 16.8158 3.43421 16.1763 2.62895 15.3711C1.82368 14.5658 1.18421 13.6143 0.710526 12.5166C0.236842 11.4196 0 10.2474 0 9C0 7.75263 0.236842 6.58011 0.710526 5.48242C1.18421 4.38537 1.82368 3.43421 2.62895 2.62895C3.43421 1.82368 4.38568 1.18421 5.48337 0.710526C6.58042 0.236842 7.75263 0 9 0H9.71053V7.76842C9.93158 7.91053 10.1053 8.08421 10.2316 8.28947C10.3579 8.49474 10.4211 8.73158 10.4211 9C10.4211 9.39474 10.2827 9.73011 10.0061 10.0061C9.73011 10.2827 9.39474 10.4211 9 10.4211C8.60526 10.4211 8.26989 10.2827 7.99389 10.0061C7.71726 9.73011 7.57895 9.39474 7.57895 9C7.57895 8.73158 7.64211 8.49063 7.76842 8.27716C7.89474 8.06432 8.06842 7.89474 8.28947 7.76842V5.28158C7.40526 5.45526 6.67105 5.88568 6.08684 6.57284C5.50263 7.25937 5.21053 8.06842 5.21053 9C5.21053 10.0421 5.58158 10.9342 6.32368 11.6763C7.06579 12.4184 7.95789 12.7895 9 12.7895C10.0421 12.7895 10.9342 12.4184 11.6763 11.6763C12.4184 10.9342 12.7895 10.0421 12.7895 9C12.7895 8.43158 12.6748 7.90642 12.4456 7.42453C12.2169 6.94326 11.9053 6.52105 11.5105 6.1579L12.5289 5.13947C13.0342 5.62895 13.4409 6.20116 13.7492 6.85611C14.0567 7.51168 14.2105 8.22632 14.2105 9C14.2105 10.4526 13.7053 11.6842 12.6947 12.6947C11.6842 13.7053 10.4526 14.2105 9 14.2105C7.54737 14.2105 6.31579 13.7053 5.30526 12.6947C4.29474 11.6842 3.78947 10.4526 3.78947 9C3.78947 7.67368 4.21958 6.52484 5.07979 5.55347C5.94063 4.58274 7.01053 4.01053 8.28947 3.83684V1.44474C6.36316 1.61842 4.73684 2.42368 3.41053 3.86053C2.08421 5.29737 1.42105 7.01053 1.42105 9C1.42105 11.1158 2.15526 12.9079 3.62368 14.3763C5.09211 15.8447 6.88421 16.5789 9 16.5789C11.1158 16.5789 12.9079 15.8447 14.3763 14.3763C15.8447 12.9079 16.5789 11.1158 16.5789 9C16.5789 7.91053 16.3658 6.89211 15.9395 5.94474C15.5132 4.99737 14.9289 4.17632 14.1868 3.48158L15.2053 2.46316C16.0579 3.3 16.7368 4.27516 17.2421 5.38863C17.7474 6.50147 18 7.70526 18 9C18 10.2474 17.7632 11.4196 17.2895 12.5166C16.8158 13.6143 16.1763 14.5658 15.3711 15.3711C14.5658 16.1763 13.6146 16.8158 12.5176 17.2895C11.4199 17.7632 10.2474 18 9 18Z" fill="#14142B"/>
</svg>
