<svg width="28" height="28" viewBox="0 0 28 28" fill="none" xmlns="http://www.w3.org/2000/svg">
<path d="M19.7468 19.6179L8.38881 8.2599C8.12794 7.99903 7.70653 7.99903 7.44565 8.2599C7.18478 8.52077 7.18478 8.94218 7.44565 9.20305L8.48914 10.2465C7.65301 11.5041 7.23161 13.0626 7.42559 14.7282C7.78011 17.765 10.2417 20.2266 13.2718 20.5744C14.9374 20.7684 16.4892 20.347 17.7535 19.5109L18.7969 20.5543C19.0578 20.8152 19.4792 20.8152 19.7401 20.5543C20.0077 20.3002 20.0077 19.8788 19.7468 19.6179ZM12.6497 16.5409L10.7567 14.6479C10.4959 14.3871 10.4959 13.9656 10.7567 13.7048C11.0176 13.4439 11.439 13.4439 11.6999 13.7048L13.118 15.1228L13.2384 15.0024L14.1815 15.9456L13.5929 16.5342C13.332 16.8018 12.9106 16.8018 12.6497 16.5409ZM15.1314 13.1095L10.3821 8.36023C11.6397 7.5241 13.1982 7.1027 14.8638 7.29668C17.9006 7.6512 20.3622 10.1128 20.71 13.1429C20.904 14.8085 20.4826 16.367 19.6465 17.6245L16.0745 14.0526L17.3722 12.7549C17.6331 12.4941 17.6331 12.0726 17.3722 11.8118C17.1113 11.5509 16.6899 11.5509 16.429 11.8118L15.1314 13.1095Z" fill="#6E7191"/>
<rect x="0.5" y="0.5" width="27" height="27" rx="2.5" stroke="#6E7191"/>
</svg>
