<svg width="18" height="18" viewBox="0 0 18 18" fill="none" xmlns="http://www.w3.org/2000/svg">
<path fill-rule="evenodd" clip-rule="evenodd" d="M5.47826 3.56522C4.61382 3.56522 3.91304 4.26599 3.91304 5.13043C3.91304 5.99488 4.61382 6.69565 5.47826 6.69565C6.34271 6.69565 7.04348 5.99488 7.04348 5.13043C7.04348 4.26599 6.34271 3.56522 5.47826 3.56522ZM2.34783 5.13043C2.34783 3.40154 3.74937 2 5.47826 2C7.20715 2 8.6087 3.40154 8.6087 5.13043C8.6087 6.85933 7.20715 8.26087 5.47826 8.26087C3.74937 8.26087 2.34783 6.85933 2.34783 5.13043ZM12.913 5.91304C12.2647 5.91304 11.7391 6.43862 11.7391 7.08696C11.7391 7.73529 12.2647 8.26087 12.913 8.26087C13.5614 8.26087 14.087 7.73529 14.087 7.08696C14.087 6.43862 13.5614 5.91304 12.913 5.91304ZM10.1739 7.08696C10.1739 5.57418 11.4003 4.34783 12.913 4.34783C14.4258 4.34783 15.6522 5.57418 15.6522 7.08696C15.6522 8.59974 14.4258 9.82609 12.913 9.82609C11.4003 9.82609 10.1739 8.59974 10.1739 7.08696ZM0 14.5217C0 11.4962 2.4527 9.04348 5.47826 9.04348C7.38448 9.04348 9.0633 10.0171 10.0446 11.4941C10.861 10.9358 11.8492 10.6087 12.913 10.6087C15.7225 10.6087 18 12.8862 18 15.6957V16.8696H0V14.5217ZM10.9547 14.3803C10.942 13.8796 10.8622 13.3955 10.7238 12.9368C11.3252 12.4587 12.0854 12.1739 12.913 12.1739C14.7258 12.1739 16.2186 13.5435 16.4133 15.3043H10.9565V14.5217C10.9565 14.4745 10.9559 14.4273 10.9547 14.3803ZM9.3913 14.5217C9.3913 14.4848 9.39079 14.4481 9.38978 14.4114C9.33137 12.3013 7.60248 10.6087 5.47826 10.6087C3.31715 10.6087 1.56522 12.3606 1.56522 14.5217V15.3043H9.3913V14.5217Z" fill="#14142B"/>
</svg>
