<svg width="24" height="24" viewBox="0 0 24 24" fill="none" xmlns="http://www.w3.org/2000/svg">
<path fill-rule="evenodd" clip-rule="evenodd" d="M12 6.5C11.1716 6.5 10.5 7.17157 10.5 8C10.5 8.82843 11.1716 9.5 12 9.5C12.8284 9.5 13.5 8.82843 13.5 8C13.5 7.17157 12.8284 6.5 12 6.5ZM9 8C9 6.34315 10.3431 5 12 5C13.6569 5 15 6.34315 15 8C15 9.65685 13.6569 11 12 11C10.3431 11 9 9.65685 9 8ZM6 9.5C5.58579 9.5 5.25 9.83579 5.25 10.25C5.25 10.6642 5.58579 11 6 11C6.41421 11 6.75 10.6642 6.75 10.25C6.75 9.83579 6.41421 9.5 6 9.5ZM3.75 10.25C3.75 9.00736 4.75736 8 6 8C7.24264 8 8.25 9.00736 8.25 10.25C8.25 11.4926 7.24264 12.5 6 12.5C4.75736 12.5 3.75 11.4926 3.75 10.25ZM18 9.5C17.5858 9.5 17.25 9.83579 17.25 10.25C17.25 10.6642 17.5858 11 18 11C18.4142 11 18.75 10.6642 18.75 10.25C18.75 9.83579 18.4142 9.5 18 9.5ZM15.75 10.25C15.75 9.00736 16.7574 8 18 8C19.2426 8 20.25 9.00736 20.25 10.25C20.25 11.4926 19.2426 12.5 18 12.5C16.7574 12.5 15.75 11.4926 15.75 10.25ZM8.22397 13.8012C9.02631 12.5666 10.4178 11.75 12 11.75C13.5822 11.75 14.9737 12.5666 15.776 13.8012C16.3069 13.453 16.9423 13.25 17.625 13.25C19.489 13.25 21 14.761 21 16.625V18.5H3V16.625C3 14.761 4.51104 13.25 6.375 13.25C7.05771 13.25 7.69312 13.453 8.22397 13.8012ZM9.00098 16.1726C9.00033 16.1983 9 16.2241 9 16.25V17H15V16.25C15 16.2225 14.9996 16.1951 14.9989 16.1678C14.9553 14.5489 13.6294 13.25 12 13.25C10.369 13.25 9.04205 14.5515 9.00098 16.1726ZM16.5 16.25V17H19.5V16.625C19.5 15.5895 18.6605 14.75 17.625 14.75C17.1483 14.75 16.7133 14.9274 16.3819 15.2212C16.4507 15.5154 16.4906 15.8206 16.4985 16.1339C16.4995 16.1724 16.5 16.2112 16.5 16.25ZM7.5 17V16.25C7.5 16.2078 7.50058 16.1658 7.50173 16.1239C7.51025 15.8142 7.55007 15.5123 7.61814 15.2212C7.28674 14.9274 6.85169 14.75 6.375 14.75C5.33947 14.75 4.5 15.5895 4.5 16.625V17H7.5Z" fill="#14142B"/>
</svg>
