<svg width="40" height="40" viewBox="0 0 40 40" fill="none" xmlns="http://www.w3.org/2000/svg">
<path d="M11.75 14.63H14.27C14.16 14.9 14.21 15.23 14.43 15.45C14.58 15.6 14.77 15.67 14.96 15.67C15.15 15.67 15.34 15.6 15.49 15.45L16.53 14.41C16.6 14.34 16.65 14.26 16.69 14.17C16.73 14.08 16.75 13.98 16.75 13.88C16.75 13.78 16.73 13.68 16.69 13.59C16.66 13.52 16.61 13.46 16.56 13.4C16.55 13.38 16.54 13.36 16.53 13.35L15.49 12.31C15.2 12.02 14.72 12.02 14.43 12.31C14.21 12.53 14.16 12.86 14.27 13.13H11.75C11.34 13.13 11 13.47 11 13.88C11 14.29 11.34 14.63 11.75 14.63Z" fill="#14142B"/>
<path d="M27.77 24.23C27.48 23.94 27 23.94 26.71 24.23C26.49 24.45 26.44 24.78 26.55 25.05H22.88V25.11C22.49 23.88 21.33 23.02 20.03 23.02C19.9 23.02 19.78 23.02 19.65 23.04C18.35 23.2 17.37 24.18 17.11 25.38H16.03C15.34 25.38 14.78 24.82 14.78 24.13V22.9C15.85 22.62 16.67 21.79 16.93 20.75H23.17C23.52 22.06 24.7 22.98 26.06 22.98C26.19 22.98 26.31 22.98 26.44 22.96C28.08 22.75 29.25 21.25 29.04 19.61C28.88 18.36 27.97 17.39 26.81 17.09V15.87C26.81 14.35 25.58 13.12 24.06 13.12H22.93C22.53 11.88 21.37 11 20.05 11C19.92 11 19.8 11 19.67 11.02C18.03 11.23 16.86 12.73 17.07 14.37C17.26 15.89 18.55 16.99 20.04 16.99C20.17 16.99 20.29 16.99 20.42 16.97C21.72 16.81 22.7 15.83 22.96 14.63H24.04C24.73 14.63 25.29 15.19 25.29 15.88V17.11C24.21 17.39 23.4 18.22 23.14 19.27H16.91C16.57 17.96 15.38 17.03 14.02 17.03C13.89 17.03 13.77 17.03 13.64 17.05C12 17.26 10.84 18.76 11.04 20.4C11.2 21.65 12.11 22.62 13.27 22.92V24.14C13.27 25.66 14.5 26.89 16.02 26.89H17.15C17.53 28.15 18.69 29.02 20.01 29.02C20.14 29.02 20.26 29.02 20.39 29C21.72 28.83 22.73 27.81 22.95 26.55H26.54C26.43 26.82 26.48 27.15 26.7 27.37C26.85 27.52 27.04 27.59 27.23 27.59C27.42 27.59 27.61 27.52 27.76 27.37L28.8 26.33C29.09 26.04 29.09 25.56 28.8 25.27L27.76 24.23H27.77ZM21.23 14.92C20.98 15.24 20.63 15.44 20.23 15.49C20.17 15.49 20.1 15.5 20.04 15.5C19.29 15.5 18.65 14.94 18.56 14.19C18.51 13.79 18.62 13.4 18.86 13.08C19.11 12.76 19.46 12.56 19.86 12.51C19.92 12.51 19.99 12.5 20.05 12.5C20.8 12.5 21.44 13.06 21.53 13.81C21.58 14.21 21.47 14.6 21.23 14.92ZM24.86 19.08C25.11 18.76 25.46 18.56 25.86 18.51C25.92 18.51 25.99 18.5 26.05 18.5C26.8 18.5 27.44 19.06 27.53 19.81C27.63 20.63 27.05 21.38 26.23 21.49C26.17 21.49 26.1 21.5 26.04 21.5C25.29 21.5 24.65 20.94 24.56 20.19C24.51 19.79 24.62 19.4 24.86 19.08ZM12.53 20.21C12.48 19.81 12.59 19.42 12.83 19.1C13.08 18.78 13.43 18.58 13.83 18.53C13.89 18.53 13.96 18.52 14.02 18.52C14.77 18.52 15.41 19.08 15.5 19.83C15.55 20.23 15.44 20.62 15.2 20.94C14.95 21.26 14.6 21.46 14.2 21.51C14.14 21.51 14.07 21.52 14.01 21.52C13.26 21.52 12.62 20.96 12.53 20.21ZM20.21 27.51C20.15 27.51 20.08 27.52 20.02 27.52C19.27 27.52 18.63 26.96 18.54 26.21C18.49 25.81 18.6 25.42 18.84 25.1C19.09 24.78 19.44 24.58 19.84 24.53C19.9 24.53 19.97 24.52 20.03 24.52C20.78 24.52 21.42 25.08 21.51 25.83C21.61 26.65 21.03 27.4 20.21 27.51Z" fill="#14142B"/>
</svg>
