<svg width="21" height="16" viewBox="0 0 21 16" fill="none" xmlns="http://www.w3.org/2000/svg">
<path d="M10.5947 0C10.5947 0 4.34027 -3.1352e-05 2.78027 0.417969C1.91927 0.647969 1.2427 1.32555 1.0127 2.18555C0.594695 3.74555 0.594727 8 0.594727 8C0.594727 8 0.594695 12.2545 1.0127 13.8145C1.2427 14.6755 1.92027 15.352 2.78027 15.582C4.34027 16 10.5947 16 10.5947 16C10.5947 16 16.8492 16 18.4092 15.582C19.2692 15.352 19.9468 14.6745 20.1768 13.8145C20.5948 12.2545 20.5947 8 20.5947 8C20.5947 8 20.5948 3.74555 20.1768 2.18555C19.9468 1.32555 19.2692 0.647969 18.4092 0.417969C16.8492 -3.1352e-05 10.5947 0 10.5947 0ZM10.5947 2C13.4767 2 17.0856 2.13361 17.8916 2.34961C18.0606 2.39461 18.1991 2.53312 18.2451 2.70312C18.4861 3.60113 18.5947 6.342 18.5947 8C18.5947 9.658 18.4861 12.3979 18.2451 13.2969C18.2001 13.4659 18.0616 13.6044 17.8916 13.6504C17.0866 13.8664 13.4767 14 10.5947 14C7.71373 14 4.10485 13.8664 3.29785 13.6504C3.12885 13.6054 2.99034 13.4669 2.94434 13.2969C2.70334 12.3989 2.59473 9.658 2.59473 8C2.59473 6.342 2.70334 3.60117 2.94434 2.70117C2.98934 2.53317 3.12785 2.39461 3.29785 2.34961C4.10285 2.13361 7.71273 2 10.5947 2ZM8.59473 4.53516V11.4648L14.5947 8L8.59473 4.53516Z" fill="#14142B"/>
</svg>
