<svg width="34" height="29" viewBox="0 0 34 29" fill="none" xmlns="http://www.w3.org/2000/svg">
<path d="M9.04406 22.4365C8.23092 22.4365 7.54265 22.1548 6.97926 21.5913C6.41584 21.0279 6.13413 20.3396 6.13413 19.5265V3.24326C6.13413 2.43011 6.41584 1.74183 6.97926 1.17841C7.54265 0.615023 8.23092 0.333328 9.04406 0.333328H17.031L19.817 3.11939H30.5901C31.4032 3.11939 32.0915 3.4011 32.6549 3.96451C33.2183 4.52793 33.5 5.21621 33.5 6.02936V19.5265C33.5 20.3396 33.2183 21.0279 32.6549 21.5913C32.0915 22.1548 31.4032 22.4365 30.5901 22.4365H9.04406ZM9.04406 20.0219H30.5901C30.7139 20.0219 30.8274 19.9703 30.9306 19.8671C31.0338 19.7639 31.0854 19.6503 31.0854 19.5265V6.02936C31.0854 5.90551 31.0338 5.79198 30.9306 5.68877C30.8274 5.58559 30.7139 5.53399 30.5901 5.53399H18.8295L16.0434 2.74789H9.04406C8.90989 2.74789 8.79379 2.79691 8.69575 2.89495C8.59772 2.99298 8.5487 3.10908 8.5487 3.24326V19.5265C8.5487 19.6503 8.60031 19.7639 8.70352 19.8671C8.80671 19.9703 8.92022 20.0219 9.04406 20.0219ZM28.6707 27.0706C28.6707 27.6229 28.223 28.0706 27.6707 28.0706H3.40993C2.59681 28.0706 1.90854 27.7889 1.34513 27.2254C0.781709 26.662 0.5 25.9738 0.5 25.1606V7.33891C0.5 6.78663 0.947715 6.33891 1.5 6.33891H1.91461C2.46689 6.33891 2.91461 6.78663 2.91461 7.33891V25.1606C2.91461 25.2845 2.9662 25.398 3.06938 25.5012C3.1726 25.6044 3.28611 25.656 3.40993 25.656H27.6707C28.223 25.656 28.6707 26.1037 28.6707 26.656V27.0706ZM12.2791 16.5856H27.3241L23.1914 11.0754C22.7946 10.5463 22.0027 10.5413 21.5991 11.0652L18.2537 15.4093L16.4564 13.1283C16.0505 12.6133 15.2671 12.6217 14.8724 13.1453L12.2791 16.5856Z" fill="#FFCD41"/>
</svg>
