<svg width="31" height="34" viewBox="0 0 31 34" fill="none" xmlns="http://www.w3.org/2000/svg">
<g clip-path="url(#clip0_27_147)">
<path d="M30.1861 6.39722L25.7861 1.11111C25.45 0.713889 24.9611 0.5 24.4722 0.5H6.44442C5.92498 0.5 5.43609 0.713889 5.13053 1.11111L0.730535 6.39722C0.486091 6.70278 0.333313 7.1 0.333313 7.49722V31.7889C0.333313 32.7361 1.0972 33.5 2.04442 33.5H28.8722C29.8194 33.5 30.5833 32.7361 30.5833 31.7889V7.49722C30.5833 7.1 30.4305 6.70278 30.1861 6.39722ZM4.06109 6.70278L6.93331 3.25H23.9833L26.8555 6.70278H4.06109ZM27.8333 30.75H3.08331V9.45278H27.8333V30.75Z" fill="#8B54FF"/>
<path d="M15.4583 18.375C13.1666 18.375 11.3333 16.5417 11.3333 14.25H8.58331C8.58331 18.0389 11.6694 21.125 15.4583 21.125C19.2472 21.125 22.3333 18.0389 22.3333 14.25H19.5833C19.5833 16.5417 17.75 18.375 15.4583 18.375Z" fill="#8B54FF"/>
</g>
<defs>
<clipPath id="clip0_27_147">
<rect width="30.25" height="33" fill="white" transform="translate(0.333313 0.5)"/>
</clipPath>
</defs>
</svg>
