<svg width="33" height="33" viewBox="0 0 33 33" fill="none" xmlns="http://www.w3.org/2000/svg">
<path d="M4.07993 33C2.82749 33 1.80276 31.9753 1.80276 30.7228V19.6975L1.44221 19.5457C0.569293 19.2041 0 18.3692 0 17.4393V11.7464C0 10.494 1.02473 9.46924 2.27717 9.46924H7.95112L6.52789 8.44451C5.18056 7.47671 4.3456 6.26222 4.13686 4.93387C3.96607 3.87119 4.13686 2.90339 4.6682 2.10638C5.33238 1.10063 6.52789 0.398505 8.02703 0.132835C8.48246 0.0569293 8.93789 0.0189764 9.39333 0.0189764C11.291 0 13.2645 0.664175 14.6688 1.72685C15.1242 2.06843 15.5227 2.48591 15.9402 3.0552L16.3956 3.64347L16.8511 3.0552C17.1737 2.63772 17.5911 2.14434 18.1604 1.70788C19.5457 0.626222 21.5193 0 23.4359 0C23.9103 0 24.3657 0.0379528 24.8022 0.113859C26.3013 0.360552 27.4968 1.06268 28.161 2.08741C28.5026 2.63772 28.8821 3.56757 28.6734 4.91489C28.4836 6.22427 27.6107 7.49569 26.2444 8.46348L24.7832 9.48821H30.7228C31.9753 9.48821 33 10.5129 33 11.7654V17.4583C33 18.4451 32.3548 19.318 31.406 19.6026L31.0075 19.7355V30.7228C31.0075 31.9753 29.9827 33 28.7303 33H4.07993ZM17.7809 30.3813H28.3887V19.7545H17.8189L17.7809 30.3813ZM4.47844 30.3813H15.1242L15.1622 19.7545H4.47844V30.3813ZM2.67568 17.0788H15.2001V12.1639H2.67568V17.0788ZM17.8378 17.0788H30.3813V12.1639H17.8378V17.0788ZM9.41231 2.71363C9.08971 2.71363 8.78608 2.7326 8.50144 2.78953C7.45773 2.9793 7.05923 3.3778 6.92639 3.54859C6.77458 3.7004 6.69868 4.07993 6.77458 4.55434C7.02128 5.99655 8.97585 7.26797 11.5377 7.6475H15.0673L14.9155 6.96435C14.6118 5.636 13.9856 4.57332 13.0748 3.89017C12.1259 3.16906 10.7596 2.71363 9.41231 2.71363ZM23.4169 2.6567C22.1075 2.6567 20.7412 3.09316 19.7924 3.81426C18.8815 4.53537 18.2553 5.59805 17.9517 6.88844L17.7999 7.59057H21.2536C23.9293 7.23002 25.8838 5.9586 26.1116 4.51639C26.1875 4.00403 26.0736 3.7004 25.9597 3.52961C25.8269 3.35883 25.4474 2.94135 24.3847 2.75158C24.0811 2.69465 23.7585 2.67568 23.4359 2.67568L23.4169 2.6567Z" fill="#FE6F1F"/>
</svg>
