<svg width="16" height="16" viewBox="0 0 16 16" fill="none" xmlns="http://www.w3.org/2000/svg">
<path d="M7.94085 15.9168C6.85695 15.9168 5.83834 15.7112 4.88502 15.2999C3.9317 14.8886 3.09879 14.3268 2.38631 13.6144C1.67381 12.902 1.11189 12.0693 0.700538 11.1161C0.289177 10.163 0.0834961 9.14454 0.0834961 8.06083C0.0834961 6.96348 0.291274 5.93203 0.70683 4.96648C1.12239 4.00091 1.68634 3.15606 2.3987 2.43193C3.11108 1.7078 3.94878 1.13536 4.91181 0.714621C5.87482 0.293871 6.9038 0.0834961 7.99875 0.0834961C9.09369 0.0834961 10.1229 0.29435 11.0863 0.716058C12.0498 1.13777 12.8879 1.71009 13.6005 2.43302C14.3132 3.15593 14.8774 3.99936 15.2932 4.96329C15.7089 5.92722 15.9168 6.95927 15.9168 8.05943V14.3737C15.9168 14.8014 15.766 15.1656 15.4644 15.466C15.1628 15.7665 14.8002 15.9168 14.3767 15.9168H7.94085ZM7.93948 14.8912C9.85813 14.8912 11.4999 14.2285 12.8647 12.9031C14.2296 11.5777 14.912 9.96316 14.912 8.05943C14.912 6.11135 14.2424 4.45259 12.9032 3.08316C11.5641 1.71372 9.9297 1.029 8.00014 1.029C6.05143 1.029 4.4024 1.71372 3.05304 3.08316C1.70368 4.45259 1.029 6.11135 1.029 8.05943C1.029 8.47938 1.06639 8.89018 1.14118 9.29185C1.21596 9.69353 1.3212 10.0829 1.45689 10.4601L4.68764 7.22933L7.44566 9.55464L11.0146 5.97289H9.19406V5.02739H12.6396V8.47289H11.6941V6.66037L7.49212 10.8415L4.75014 8.50814L1.89116 11.3671C2.47557 12.4269 3.3029 13.2792 4.37316 13.924C5.44341 14.5688 6.63218 14.8912 7.93948 14.8912ZM14.4352 14.9969C14.5982 14.9969 14.7346 14.9384 14.8447 14.8214C14.9547 14.7044 15.0097 14.5658 15.0097 14.4056C15.0097 14.2453 14.9513 14.1088 14.8343 13.9961C14.7173 13.8834 14.5808 13.8271 14.4248 13.8271C14.2688 13.8271 14.1323 13.8843 14.0154 13.9988C13.8984 14.1133 13.8399 14.2511 13.8399 14.412C13.8399 14.568 13.8984 14.7044 14.0154 14.8214C14.1323 14.9384 14.2723 14.9969 14.4352 14.9969Z" fill="#14142B"/>
</svg>
