<svg width="28" height="28" viewBox="0 0 28 28" fill="none" xmlns="http://www.w3.org/2000/svg">
<path d="M19.0017 9.55175L17.0915 7.6415C16.8417 7.39175 16.4975 7.25 16.1397 7.25H8.6C7.8575 7.25 7.25 7.8575 7.25 8.6V18.05C7.25 18.7925 7.8575 19.4 8.6 19.4H13.595L19.4 13.595V10.5103C19.4 10.1525 19.2582 9.80825 19.0017 9.55175ZM13.325 17.375C12.2045 17.375 11.3 16.4705 11.3 15.35C11.3 14.2295 12.2045 13.325 13.325 13.325C14.4455 13.325 15.35 14.2295 15.35 15.35C15.35 16.4705 14.4455 17.375 13.325 17.375ZM15.35 11.3C15.35 11.6712 15.0462 11.975 14.675 11.975H9.95C9.57875 11.975 9.275 11.6712 9.275 11.3V9.95C9.275 9.57875 9.57875 9.275 9.95 9.275H14.675C15.0462 9.275 15.35 9.57875 15.35 9.95V11.3ZM18.7182 16.1938L19.913 17.3885L16.646 20.6555C16.5785 20.7163 16.4907 20.75 16.403 20.75H15.6875C15.4985 20.75 15.35 20.6015 15.35 20.4125V19.697C15.35 19.6093 15.3837 19.5215 15.4512 19.4608L18.7182 16.1938ZM20.9187 16.3693L20.345 16.943L19.1502 15.7483L19.724 15.1745C19.859 15.0395 20.0682 15.0395 20.2032 15.1745L20.9187 15.89C21.0537 16.025 21.0537 16.241 20.9187 16.3693Z" fill="#FFCD41"/>
<rect x="0.5" y="0.5" width="27" height="27" rx="2.5" stroke="#FFCD41"/>
</svg>
