<svg width="16" height="16" viewBox="0 0 16 16" fill="none" xmlns="http://www.w3.org/2000/svg">
<path fill-rule="evenodd" clip-rule="evenodd" d="M11.3754 1.88929L10.1691 3.09563L12.9044 5.8309L14.1107 4.62456C14.1183 4.60094 14.1266 4.5733 14.1351 4.54202C14.1705 4.41102 14.2073 4.22275 14.2104 4.0016C14.2163 3.57214 14.0977 3.00454 13.5466 2.4534C12.9955 1.90226 12.4279 1.7837 11.9984 1.78962C11.7772 1.79267 11.589 1.82945 11.458 1.86494C11.4267 1.87342 11.3991 1.88171 11.3754 1.88929ZM14.6656 4.98146C15.2523 5.24868 15.2524 5.24837 15.2526 5.24805L15.2529 5.2474L15.2535 5.24596L15.255 5.24263L15.2588 5.23415C15.2616 5.22769 15.265 5.21962 15.269 5.21001C15.277 5.19079 15.2871 5.16531 15.2987 5.13404C15.3218 5.07159 15.3508 4.98539 15.3796 4.87916C15.4369 4.66776 15.4948 4.37055 15.4997 4.01939C15.5095 3.30422 15.2966 2.37985 14.4584 1.54164C13.6202 0.703444 12.6958 0.490459 11.9806 0.500323C11.6295 0.505167 11.3322 0.56311 11.1208 0.620378C11.0146 0.649155 10.9284 0.678204 10.866 0.701321C10.8347 0.712898 10.8092 0.723045 10.79 0.731009C10.7804 0.734993 10.7723 0.738438 10.7659 0.741249L10.7574 0.744983L10.754 0.746475L10.7526 0.747123L10.7519 0.747422C10.7516 0.747565 10.7513 0.747704 11.0185 1.33443L10.7513 0.747704L10.6452 0.796058L1.12165 10.3196L0.5 15.5L5.68044 14.8783L15.2039 5.35484L15.2523 5.24868L14.6656 4.98146ZM11.9926 6.74265L9.25735 4.00738L2.34875 10.916L1.97576 14.0242L5.08402 13.6512L11.9926 6.74265Z" fill="#6E7191"/>
</svg>
