<svg width="20" height="20" viewBox="0 0 20 20" fill="none" xmlns="http://www.w3.org/2000/svg">
<path fill-rule="evenodd" clip-rule="evenodd" d="M0 2.11111C0 1.49746 0.373096 1 0.833333 1H19.1667C19.6269 1 20 1.49746 20 2.11111C20 2.72476 19.6269 3.22222 19.1667 3.22222H0.833333C0.373096 3.22222 0 2.72476 0 2.11111ZM0 9.88889C0 9.27524 0.373096 8.77778 0.833333 8.77778H19.1667C19.6269 8.77778 20 9.27524 20 9.88889C20 10.5025 19.6269 11 19.1667 11H0.833333C0.373096 11 0 10.5025 0 9.88889ZM0 17.6667C0 17.053 0.373096 16.5556 0.833333 16.5556H19.1667C19.6269 16.5556 20 17.053 20 17.6667C20 18.2803 19.6269 18.7778 19.1667 18.7778H0.833333C0.373096 18.7778 0 18.2803 0 17.6667Z" fill="#14142B"/>
</svg>
