<svg width="18" height="9" viewBox="0 0 18 9" fill="none" xmlns="http://www.w3.org/2000/svg">
<g clip-path="url(#clip0_284_5572)">
<path d="M17.3624 5.39698C17.7215 5.01267 17.7215 4.4159 17.3624 4.03159L14.6041 1.07931C14.2752 0.727292 13.717 0.727293 13.3881 1.07931V1.07931C13.0894 1.39908 13.0894 1.89563 13.3881 2.2154L15.0861 4.0327C15.4447 4.41656 15.4452 5.01247 15.0872 5.39691L13.3868 7.22279C13.089 7.54256 13.0904 8.03853 13.39 8.35658V8.35658C13.7183 8.7051 14.2727 8.70396 14.5996 8.3541L17.3624 5.39698Z" fill="#14142B"/>
</g>
<g clip-path="url(#clip1_284_5572)">
<path d="M0.637564 4.03159C0.2785 4.4159 0.278501 5.01267 0.637565 5.39698L3.39588 8.34926C3.72478 8.70128 4.28296 8.70128 4.61186 8.34926V8.34926C4.91062 8.02949 4.91062 7.53295 4.61186 7.21318L2.91395 5.39587C2.55531 5.01202 2.55483 4.4161 2.91284 4.03167L4.61323 2.20578C4.91102 1.88601 4.9096 1.39004 4.60998 1.07199V1.07199C4.28168 0.723476 3.72728 0.724615 3.4004 1.07447L0.637564 4.03159Z" fill="#14142B"/>
</g>
<defs>
<clipPath id="clip0_284_5572">
<rect x="12.8574" y="0.428574" width="5.14286" height="8.57143" fill="white"/>
</clipPath>
<clipPath id="clip1_284_5572">
<rect width="5.14286" height="8.57143" fill="white" transform="translate(5.14258 9) rotate(-180)"/>
</clipPath>
</defs>
</svg>
