<svg width="50" height="50" viewBox="0 0 50 50" fill="none" xmlns="http://www.w3.org/2000/svg">
<rect x="0.5" y="0.5" width="49" height="49" rx="4.5" fill="white" stroke="#CED3D9"/>
<g clip-path="url(#clip0_762_13557)">
<g clip-path="url(#clip1_762_13557)">
<path d="M21 16C18.243 16 16 18.243 16 21V29C16 31.757 18.243 34 21 34H29C31.757 34 34 31.757 34 29V21C34 18.243 31.757 16 29 16H21ZM21 18H29C30.654 18 32 19.346 32 21V29C32 30.654 30.654 32 29 32H21C19.346 32 18 30.654 18 29V21C18 19.346 19.346 18 21 18ZM30 19C29.7348 19 29.4804 19.1054 29.2929 19.2929C29.1054 19.4804 29 19.7348 29 20C29 20.2652 29.1054 20.5196 29.2929 20.7071C29.4804 20.8946 29.7348 21 30 21C30.2652 21 30.5196 20.8946 30.7071 20.7071C30.8946 20.5196 31 20.2652 31 20C31 19.7348 30.8946 19.4804 30.7071 19.2929C30.5196 19.1054 30.2652 19 30 19ZM25 20C22.243 20 20 22.243 20 25C20 27.757 22.243 30 25 30C27.757 30 30 27.757 30 25C30 22.243 27.757 20 25 20ZM25 22C26.654 22 28 23.346 28 25C28 26.654 26.654 28 25 28C23.346 28 22 26.654 22 25C22 23.346 23.346 22 25 22Z" fill="#14142B"/>
</g>
</g>
<defs>
<clipPath id="clip0_762_13557">
<rect width="24" height="24" fill="white" transform="translate(13 13)"/>
</clipPath>
<clipPath id="clip1_762_13557">
<rect width="24" height="24" fill="white" transform="translate(13 13)"/>
</clipPath>
</defs>
</svg>
