<svg width="16" height="15" viewBox="0 0 16 15" fill="currentColor" xmlns="http://www.w3.org/2000/svg">
<path d="M4.2871 12.6751C4.08519 12.6751 3.89388 12.5807 3.71318 12.3919C3.53247 12.2031 3.44211 12.0096 3.44211 11.8113V9.89314H12.9113V3.42846H14.867C15.0652 3.42846 15.2525 3.52285 15.4288 3.71164C15.6051 3.90043 15.6932 4.10019 15.6932 4.31093V14.1494C15.6932 14.4341 15.5619 14.6304 15.2993 14.7381C15.0366 14.8459 14.8043 14.7988 14.6024 14.5969L12.6806 12.6751H4.2871ZM3.36141 8.76814L1.39836 10.7312C1.19646 10.9331 0.964192 10.9809 0.701555 10.8746C0.43893 10.7684 0.307617 10.5729 0.307617 10.2881V1.15766C0.307617 0.959427 0.395755 0.765915 0.57203 0.577127C0.748317 0.38834 0.93708 0.293945 1.13832 0.293945H10.9413C11.152 0.293945 11.3456 0.385215 11.5218 0.567752C11.6981 0.75029 11.7863 0.946927 11.7863 1.15766V7.9044C11.7863 8.10564 11.6981 8.2999 11.5218 8.48719C11.3456 8.67449 11.152 8.76814 10.9413 8.76814H3.36141ZM10.5088 7.49068V1.57588H1.58954V7.49068H10.5088Z" fill="currentColor"/>
</svg>
