<svg width="18" height="18" viewBox="0 0 18 18" fill="currentColor" xmlns="http://www.w3.org/2000/svg">
<path d="M14.5858 0.585786C14.2107 0.210713 13.702 0 13.1716 0H2C0.89 0 0 0.9 0 2V16C0 17.1 0.89 18 2 18H16C17.1 18 18 17.1 18 16V4.82843C18 4.29799 17.7893 3.78929 17.4142 3.41421L14.5858 0.585786ZM16 15C16 15.5523 15.5523 16 15 16H3C2.44772 16 2 15.5523 2 15V3C2 2.44772 2.44772 2 3 2H12.3416C12.872 2 13.3807 2.21071 13.7558 2.58579L15.4142 4.24421C15.7893 4.61929 16 5.12799 16 5.65843V15ZM9 9C7.34 9 6 10.34 6 12C6 13.66 7.34 15 9 15C10.66 15 12 13.66 12 12C12 10.34 10.66 9 9 9ZM3.5 4.75C3.5 4.05964 4.05964 3.5 4.75 3.5H10.75C11.4404 3.5 12 4.05964 12 4.75C12 5.44036 11.4404 6 10.75 6H4.75C4.05964 6 3.5 5.44036 3.5 4.75Z" fill="currentColor"/>
</svg>
