<svg width="16" height="16" viewBox="0 0 16 16" fill="none" xmlns="http://www.w3.org/2000/svg">
<path d="M8.00154 15.9168C6.90659 15.9168 5.8774 15.709 4.91396 15.2935C3.9505 14.8779 3.11243 14.3139 2.39975 13.6016C1.68705 12.8892 1.12284 12.0515 0.7071 11.0885C0.291364 10.1255 0.0834961 9.09648 0.0834961 8.00154C0.0834961 6.90659 0.291309 5.8774 0.706934 4.91396C1.12256 3.9505 1.68662 3.11243 2.39912 2.39975C3.11162 1.68705 3.94947 1.12284 4.91266 0.7071C5.87584 0.291364 6.905 0.0834961 8.00014 0.0834961H8.47289V6.84312C8.70899 6.94675 8.89755 7.10211 9.03858 7.30921C9.17961 7.5163 9.25012 7.74694 9.25012 8.00112C9.25012 8.34127 9.12699 8.63448 8.88073 8.88073C8.63448 9.12699 8.34095 9.25012 8.00014 9.25012C7.65934 9.25012 7.36581 9.12699 7.11956 8.88073C6.8733 8.63448 6.75016 8.34159 6.75016 8.00206C6.75016 7.74832 6.82068 7.51898 6.96171 7.31402C7.10273 7.10906 7.2913 6.95209 7.52739 6.84312V4.38798C6.61928 4.50335 5.86474 4.90078 5.26377 5.58027C4.66281 6.25975 4.36233 7.06638 4.36233 8.00014C4.36233 9.00975 4.71623 9.86846 5.42402 10.5763C6.13182 11.2841 6.99053 11.638 8.00014 11.638C9.00975 11.638 9.86846 11.2841 10.5763 10.5763C11.2841 9.86846 11.638 9.00975 11.638 8.00014C11.638 7.44673 11.5295 6.94059 11.3126 6.48173C11.0958 6.02285 10.7982 5.62514 10.42 5.2886L11.0995 4.60914C11.5535 5.03007 11.9144 5.53119 12.182 6.1125C12.4496 6.6938 12.5835 7.32302 12.5835 8.00014C12.5835 9.27328 12.138 10.3554 11.2472 11.2466C10.3564 12.1379 9.27465 12.5835 8.00204 12.5835C6.72941 12.5835 5.64706 12.1379 4.75498 11.2466C3.86288 10.3554 3.41683 9.27328 3.41683 8.00014C3.41683 6.7993 3.81079 5.76752 4.59873 4.90481C5.38666 4.0421 6.36288 3.55039 7.52739 3.42966V1.04181C5.70261 1.1572 4.16335 1.88182 2.9096 3.21568C1.65586 4.54956 1.029 6.14438 1.029 8.00014C1.029 9.94031 1.70581 11.5872 3.05943 12.9409C4.41307 14.2945 6.05998 14.9713 8.00014 14.9713C9.94031 14.9713 11.5872 14.2945 12.9409 12.9409C14.2945 11.5872 14.9713 9.94031 14.9713 8.00014C14.9713 6.98839 14.776 6.05036 14.3856 5.18604C13.9951 4.32173 13.4579 3.5712 12.7742 2.93443L13.4536 2.25498C14.2133 2.98146 14.8137 3.83641 15.2549 4.81983C15.6962 5.80323 15.9168 6.86254 15.9168 7.99775C15.9168 9.09336 15.709 10.1229 15.2935 11.0863C14.8779 12.0498 14.3139 12.8879 13.6016 13.6005C12.8892 14.3132 12.0515 14.8774 11.0885 15.2932C10.1255 15.7089 9.09648 15.9168 8.00154 15.9168Z" fill="#14142B"/>
</svg>
