<svg width="18" height="19" viewBox="0 0 18 19" fill="none" xmlns="http://www.w3.org/2000/svg">
<path d="M17.2498 3.5H13.4998V2C13.4998 1.175 12.8248 0.5 11.9998 0.5H10.4998H7.49976H5.99976C5.17476 0.5 4.49976 1.175 4.49976 2V3.5H0.749756C0.299756 3.5 -0.000244141 3.8 -0.000244141 4.25C-0.000244141 4.7 0.299756 5 0.749756 5H1.57476L2.17476 17.075C2.24976 17.9 2.84976 18.5 3.67476 18.5H14.3998C15.2248 18.5 15.8248 17.9 15.8998 17.075L16.4248 5H17.2498C17.6998 5 17.9998 4.7 17.9998 4.25C17.9998 3.8 17.6998 3.5 17.2498 3.5ZM5.99976 2H11.9998V3.5H5.99976V2ZM14.3248 17H3.67476L3.07476 5H14.9998L14.3248 17Z" fill="#6E7191"/>
<path d="M7.49976 12.5V8.75V8H5.99976V8.75V12.5V13.25H7.49976V12.5Z" fill="#6E7191"/>
<path d="M11.9998 12.5V8.75V8H10.4998V8.75V12.5V13.25H11.9998V12.5Z" fill="#6E7191"/>
</svg>
