<svg width="19" height="19" viewBox="0 0 19 19" fill="none" xmlns="http://www.w3.org/2000/svg">
<path d="M16.169 3.569L13.622 1.022C13.289 0.689 12.83 0.5 12.353 0.5H2.3C1.31 0.5 0.5 1.31 0.5 2.3V14.9C0.5 15.89 1.31 16.7 2.3 16.7H8.96L16.7 8.96V4.847C16.7 4.37 16.511 3.911 16.169 3.569ZM8.6 14C7.106 14 5.9 12.794 5.9 11.3C5.9 9.806 7.106 8.6 8.6 8.6C10.094 8.6 11.3 9.806 11.3 11.3C11.3 12.794 10.094 14 8.6 14ZM11.3 5.9C11.3 6.395 10.895 6.8 10.4 6.8H4.1C3.605 6.8 3.2 6.395 3.2 5.9V4.1C3.2 3.605 3.605 3.2 4.1 3.2H10.4C10.895 3.2 11.3 3.605 11.3 4.1V5.9ZM15.791 12.425L17.384 14.018L13.028 18.374C12.938 18.455 12.821 18.5 12.704 18.5H11.75C11.498 18.5 11.3 18.302 11.3 18.05V17.096C11.3 16.979 11.345 16.862 11.435 16.781L15.791 12.425ZM18.725 12.659L17.96 13.424L16.367 11.831L17.132 11.066C17.312 10.886 17.591 10.886 17.771 11.066L18.725 12.02C18.905 12.2 18.905 12.488 18.725 12.659Z" fill="#F0AD4E"/>
</svg>
