<svg width="44" height="45" viewBox="0 0 44 45" fill="none" xmlns="http://www.w3.org/2000/svg">
<rect y="0.5" width="44" height="44" rx="5" fill="#FFE6D9"/>
<path d="M28.3072 23.2711C27.918 23.2711 27.6024 22.9555 27.6024 22.5663V22.5663C27.6024 22.177 27.918 21.8615 28.3072 21.8615H30.2952C30.6845 21.8615 31 22.177 31 22.5663V22.5663C31 22.9555 30.6845 23.2711 30.2952 23.2711H28.3072ZM29.1009 29.0386C28.8657 29.3473 28.4255 29.4085 28.115 29.1756L26.5275 27.9851C26.2136 27.7496 26.1516 27.3035 26.3894 26.9915V26.9915C26.6247 26.6828 27.0649 26.6216 27.3754 26.8545L28.9629 28.0451C29.2768 28.2805 29.3388 28.7265 29.1009 29.0386V29.0386ZM27.3393 18.2419C27.0288 18.4748 26.5885 18.4136 26.3533 18.1049V18.1049C26.1155 17.7928 26.1775 17.3467 26.4913 17.1113L28.0788 15.9207C28.3893 15.6878 28.8295 15.749 29.0648 16.0577V16.0577C29.3026 16.3698 29.2406 16.8159 28.9267 17.0513L27.3393 18.2419ZM16.3614 28.6566C15.9722 28.6566 15.6566 28.341 15.6566 27.9518V24.9879H14.6988C14.2301 24.9879 13.8298 24.822 13.4979 24.49C13.166 24.1581 13 23.7578 13 23.2891V21.8434C13 21.3747 13.166 20.9744 13.4979 20.6425C13.8298 20.3105 14.2301 20.1446 14.6988 20.1446H18.3313L22.5421 17.6326V27.5L18.3313 24.9879H17.0662V27.9518C17.0662 28.341 16.7507 28.6566 16.3614 28.6566V28.6566ZM23.8434 25.4976V19.6349C24.212 19.9687 24.509 20.3891 24.7343 20.8964C24.9596 21.4036 25.0723 21.9602 25.0723 22.5663C25.0723 23.1723 24.9596 23.7289 24.7343 24.2361C24.509 24.7434 24.212 25.1638 23.8434 25.4976ZM14.6988 21.5542C14.6265 21.5542 14.5602 21.5843 14.5 21.6446C14.4397 21.7048 14.4096 21.7711 14.4096 21.8434V23.2891C14.4096 23.3614 14.4397 23.4277 14.5 23.4879C14.5602 23.5482 14.6265 23.5783 14.6988 23.5783H18.7217L21.1325 24.9952V20.1373L18.7217 21.5542H14.6988Z" fill="#FE6F1F"/>
</svg>
