<svg width="44" height="45" viewBox="0 0 44 45" fill="none" xmlns="http://www.w3.org/2000/svg">
<rect y="0.5" width="44" height="44" rx="5" fill="#EFE8FF"/>
<path d="M16 29.5C15.4477 29.5 15 29.0523 15 28.5V20.5C15 19.9477 15.4477 19.5 16 19.5H17C17.5523 19.5 18 19.9477 18 20.5V28.5C18 29.0523 17.5523 29.5 17 29.5H16ZM22 29.5C21.4477 29.5 21 29.0523 21 28.5V15.5C21 14.9477 21.4477 14.5 22 14.5H23C23.5523 14.5 24 14.9477 24 15.5V28.5C24 29.0523 23.5523 29.5 23 29.5H22ZM28 29.5C27.4477 29.5 27 29.0523 27 28.5V24.5C27 23.9477 27.4477 23.5 28 23.5H29C29.5523 23.5 30 23.9477 30 24.5V28.5C30 29.0523 29.5523 29.5 29 29.5H28Z" fill="#8B54FF"/>
</svg>
