<svg width="18" height="18" viewBox="0 0 18 18" fill="none" xmlns="http://www.w3.org/2000/svg">
<path d="M14.7468 14.6179L3.38881 3.2599C3.12794 2.99903 2.70653 2.99903 2.44565 3.2599C2.18478 3.52077 2.18478 3.94218 2.44565 4.20305L3.48914 5.24654C2.65301 6.50408 2.23161 8.06263 2.42559 9.7282C2.78011 12.765 5.24167 15.2266 8.2718 15.5744C9.93737 15.7684 11.4892 15.347 12.7535 14.5109L13.7969 15.5543C14.0578 15.8152 14.4792 15.8152 14.7401 15.5543C15.0077 15.3002 15.0077 14.8788 14.7468 14.6179ZM7.64972 11.5409L5.75673 9.64793C5.49585 9.38706 5.49585 8.96565 5.75673 8.70477C6.0176 8.4439 6.43901 8.4439 6.69988 8.70477L8.11796 10.1229L8.23836 10.0024L9.18151 10.9456L8.59288 11.5342C8.33201 11.8018 7.9106 11.8018 7.64972 11.5409ZM10.1314 8.10945L5.38214 3.36023C6.63968 2.5241 8.19822 2.1027 9.86379 2.29668C12.9006 2.6512 15.3622 5.11276 15.71 8.1429C15.904 9.80847 15.4826 11.367 14.6465 12.6245L11.0745 9.0526L12.3722 7.75493C12.6331 7.49406 12.6331 7.07265 12.3722 6.81178C12.1113 6.5509 11.6899 6.5509 11.429 6.81178L10.1314 8.10945Z" fill="#6E7191"/>
</svg>
