<svg width="18" height="18" viewBox="0 0 18 18" fill="none" xmlns="http://www.w3.org/2000/svg">
<path d="M9 2.25C5.274 2.25 2.25 5.274 2.25 9C2.25 12.726 5.274 15.75 9 15.75C12.726 15.75 15.75 12.726 15.75 9C15.75 5.274 12.726 2.25 9 2.25ZM5.625 10.0125C5.06475 10.0125 4.6125 9.56025 4.6125 9C4.6125 8.43975 5.06475 7.9875 5.625 7.9875C6.18525 7.9875 6.6375 8.43975 6.6375 9C6.6375 9.56025 6.18525 10.0125 5.625 10.0125ZM9 10.0125C8.43975 10.0125 7.9875 9.56025 7.9875 9C7.9875 8.43975 8.43975 7.9875 9 7.9875C9.56025 7.9875 10.0125 8.43975 10.0125 9C10.0125 9.56025 9.56025 10.0125 9 10.0125ZM12.375 10.0125C11.8148 10.0125 11.3625 9.56025 11.3625 9C11.3625 8.43975 11.8148 7.9875 12.375 7.9875C12.9353 7.9875 13.3875 8.43975 13.3875 9C13.3875 9.56025 12.9353 10.0125 12.375 10.0125Z" fill="#006DE6"/>
</svg>
