<svg width="18" height="18" viewBox="0 0 18 18" fill="none" xmlns="http://www.w3.org/2000/svg">
<path d="M16.23 12.25L13.69 11.96C13.08 11.89 12.48 12.1 12.05 12.53L10.21 14.37C7.38004 12.93 5.06004 10.62 3.62004 7.78L5.47004 5.93C5.90004 5.5 6.11004 4.9 6.04004 4.29L5.75004 1.77C5.63004 0.76 4.78004 0 3.76004 0H2.03004C0.900041 0 -0.0399593 0.94 0.0300407 2.07C0.560041 10.61 7.39004 17.43 15.92 17.96C17.05 18.03 17.99 17.09 17.99 15.96V14.23C18 13.22 17.24 12.37 16.23 12.25Z" fill="#C8E1FC"/>
</svg>
