<svg width="16" height="16" viewBox="0 0 16 16" fill="none" xmlns="http://www.w3.org/2000/svg">
<path d="M14.875 3H11.75V1.75C11.75 1.0625 11.1875 0.5 10.5 0.5H9.25H6.75H5.5C4.8125 0.5 4.25 1.0625 4.25 1.75V3H1.125C0.75 3 0.5 3.25 0.5 3.625C0.5 4 0.75 4.25 1.125 4.25H1.8125L2.3125 14.3125C2.375 15 2.875 15.5 3.5625 15.5H12.5C13.1875 15.5 13.6875 15 13.75 14.3125L14.1875 4.25H14.875C15.25 4.25 15.5 4 15.5 3.625C15.5 3.25 15.25 3 14.875 3ZM5.5 1.75H10.5V3H5.5V1.75ZM12.4375 14.25H3.5625L3.0625 4.25H13L12.4375 14.25Z" fill="#14142B"/>
</svg>
