<svg width="17" height="17" viewBox="0 0 17 17" fill="none" xmlns="http://www.w3.org/2000/svg">
    <mask id="xi1dcr8w1a" style="mask-type:alpha" maskUnits="userSpaceOnUse" x="0" y="0" width="17" height="17">
        <path fill="#D9D9D9" d="M.259.133h16.394V16.6H.259z"/>
    </mask>
    <g mask="url(#xi1dcr8w1a)">
        <path d="m9.413 15.16-.956-.961 2.425-2.436-5.807-5.832L2.65 8.367l-.956-.96.956-.996-.956-.96L3.13 4.01l-.957-.995.957-.96.99.96 1.435-1.44.956.96.99-.96.957.96L6.032 4.97l5.806 5.832 2.425-2.435.956.96-.956.995.956.96-1.434 1.441.956.995-.956.96-.99-.96-1.435 1.441-.957-.96-.99.96z" fill="#2D2D39"/>
    </g>
</svg>
