<svg width="21" height="18" viewBox="0 0 21 18" fill="none" xmlns="http://www.w3.org/2000/svg">
<path d="M1.3999 2.8L0.775207 2.01913C0.537992 2.2089 0.399902 2.49622 0.399902 2.8H1.3999ZM10.3999 15.7273L9.77521 16.5081L10.3999 17.0079L11.0246 16.5081L10.3999 15.7273ZM1.3999 15.7273H0.399902C0.399902 16.1117 0.620248 16.4621 0.966713 16.6286C1.31318 16.7951 1.72443 16.7483 2.0246 16.5081L1.3999 15.7273ZM19.3999 2.8H20.3999C20.3999 2.49622 20.2618 2.2089 20.0246 2.01913L19.3999 2.8ZM19.3999 15.7273L18.7752 16.5081C19.0754 16.7483 19.4866 16.7951 19.8331 16.6286C20.1796 16.4621 20.3999 16.1117 20.3999 15.7273H19.3999ZM9.3999 2.8V15.7273H11.3999V2.8H9.3999ZM2.3999 15.7273V2.8H0.399902V15.7273H2.3999ZM1.3999 2.8C2.0246 3.58087 2.02442 3.58101 2.02425 3.58115C2.02421 3.58118 2.02404 3.58131 2.02395 3.58138C2.02377 3.58153 2.02363 3.58165 2.02351 3.58174C2.02328 3.58192 2.02319 3.58199 2.02322 3.58197C2.0233 3.58191 2.0239 3.58143 2.02502 3.58055C2.02726 3.57878 2.03157 3.5754 2.03789 3.57051C2.05054 3.56072 2.07118 3.54491 2.09927 3.52394C2.1555 3.48195 2.24124 3.41953 2.35215 3.34348C2.57482 3.19079 2.89439 2.98627 3.27674 2.78235C4.06425 2.36235 5.01642 2 5.8999 2V0C4.53338 0 3.23555 0.537653 2.33556 1.01765C1.87416 1.26373 1.49061 1.50921 1.22109 1.69402C1.08591 1.78672 0.978289 1.86493 0.902687 1.92138C0.864858 1.94962 0.834959 1.97248 0.813547 1.98906C0.802838 1.99735 0.794244 2.00408 0.787833 2.00912C0.784627 2.01165 0.781967 2.01375 0.77986 2.01543C0.778806 2.01626 0.777891 2.01699 0.777115 2.01761C0.776728 2.01792 0.776375 2.0182 0.776056 2.01845C0.775898 2.01858 0.775685 2.01875 0.775606 2.01881C0.775402 2.01898 0.775207 2.01913 1.3999 2.8ZM5.8999 2C6.78338 2 7.73555 2.36235 8.52306 2.78235C8.90541 2.98627 9.22498 3.19079 9.44765 3.34348C9.55857 3.41953 9.6443 3.48195 9.70054 3.52394C9.72863 3.54491 9.74927 3.56072 9.76191 3.57051C9.76823 3.5754 9.77255 3.57878 9.77479 3.58055C9.77591 3.58143 9.77651 3.58191 9.77658 3.58197C9.77662 3.58199 9.77652 3.58192 9.77629 3.58174C9.77618 3.58165 9.77603 3.58153 9.77585 3.58138C9.77576 3.58131 9.7756 3.58118 9.77555 3.58115C9.77538 3.58101 9.77521 3.58087 10.3999 2.8C11.0246 2.01913 11.0244 2.01898 11.0242 2.01881C11.0241 2.01875 11.0239 2.01858 11.0237 2.01845C11.0234 2.0182 11.0231 2.01792 11.0227 2.01761C11.0219 2.01699 11.021 2.01626 11.0199 2.01543C11.0178 2.01375 11.0152 2.01165 11.012 2.00912C11.0056 2.00408 10.997 1.99735 10.9863 1.98906C10.9648 1.97248 10.9349 1.94962 10.8971 1.92138C10.8215 1.86493 10.7139 1.78672 10.5787 1.69402C10.3092 1.50921 9.92564 1.26373 9.46424 1.01765C8.56425 0.537653 7.26643 0 5.8999 0V2ZM10.3999 15.7273C11.0246 14.9464 11.0244 14.9462 11.0242 14.9461C11.0241 14.946 11.0239 14.9459 11.0237 14.9457C11.0234 14.9455 11.0231 14.9452 11.0227 14.9449C11.0219 14.9443 11.021 14.9435 11.0199 14.9427C11.0178 14.941 11.0152 14.9389 11.012 14.9364C11.0056 14.9313 10.997 14.9246 10.9863 14.9163C10.9648 14.8998 10.9349 14.8769 10.8971 14.8486C10.8215 14.7922 10.7139 14.714 10.5787 14.6213C10.3092 14.4365 9.92564 14.191 9.46424 13.9449C8.56425 13.4649 7.26642 12.9273 5.8999 12.9273V14.9273C6.78338 14.9273 7.73555 15.2896 8.52306 15.7096C8.90542 15.9135 9.22498 16.1181 9.44766 16.2708C9.55857 16.3468 9.6443 16.4092 9.70054 16.4512C9.72863 16.4722 9.74927 16.488 9.76191 16.4978C9.76823 16.5027 9.77255 16.5061 9.77479 16.5078C9.77591 16.5087 9.77651 16.5092 9.77658 16.5092C9.77662 16.5093 9.77652 16.5092 9.77629 16.509C9.77618 16.5089 9.77603 16.5088 9.77585 16.5087C9.77576 16.5086 9.7756 16.5085 9.77555 16.5084C9.77538 16.5083 9.77521 16.5081 10.3999 15.7273ZM5.8999 12.9273C4.53338 12.9273 3.23555 13.4649 2.33556 13.9449C1.87416 14.191 1.49061 14.4365 1.22109 14.6213C1.08591 14.714 0.978289 14.7922 0.902688 14.8486C0.864858 14.8769 0.834959 14.8998 0.813547 14.9163C0.802839 14.9246 0.794244 14.9313 0.787833 14.9364C0.784628 14.9389 0.781967 14.941 0.77986 14.9427C0.778807 14.9435 0.777891 14.9443 0.777116 14.9449C0.776728 14.9452 0.776375 14.9455 0.776057 14.9457C0.775898 14.9459 0.775685 14.946 0.775606 14.9461C0.775402 14.9462 0.775208 14.9464 1.3999 15.7273C2.0246 16.5081 2.02442 16.5083 2.02425 16.5084C2.02421 16.5085 2.02404 16.5086 2.02395 16.5087C2.02377 16.5088 2.02363 16.5089 2.02351 16.509C2.02328 16.5092 2.02319 16.5093 2.02322 16.5092C2.0233 16.5092 2.0239 16.5087 2.02502 16.5078C2.02726 16.5061 2.03157 16.5027 2.03789 16.4978C2.05054 16.488 2.07118 16.4722 2.09927 16.4512C2.1555 16.4092 2.24124 16.3468 2.35215 16.2708C2.57482 16.1181 2.89439 15.9135 3.27674 15.7096C4.06425 15.2896 5.01642 14.9273 5.8999 14.9273V12.9273ZM18.3999 2.8V15.7273H20.3999V2.8H18.3999ZM10.3999 2.8C11.0246 3.58087 11.0244 3.58101 11.0243 3.58115C11.0242 3.58118 11.024 3.58131 11.024 3.58138C11.0238 3.58153 11.0236 3.58165 11.0235 3.58174C11.0233 3.58192 11.0232 3.58199 11.0232 3.58197C11.0233 3.58191 11.0239 3.58143 11.025 3.58055C11.0273 3.57878 11.0316 3.5754 11.0379 3.57051C11.0505 3.56072 11.0712 3.54491 11.0993 3.52394C11.1555 3.48195 11.2412 3.41953 11.3521 3.34348C11.5748 3.19079 11.8944 2.98627 12.2767 2.78235C13.0643 2.36235 14.0164 2 14.8999 2V0C13.5334 0 12.2356 0.537653 11.3356 1.01765C10.8742 1.26373 10.4906 1.50921 10.2211 1.69402C10.0859 1.78672 9.97829 1.86493 9.90269 1.92138C9.86486 1.94962 9.83496 1.97248 9.81355 1.98906C9.80284 1.99735 9.79424 2.00408 9.78783 2.00912C9.78463 2.01165 9.78197 2.01375 9.77986 2.01543C9.77881 2.01626 9.77789 2.01699 9.77712 2.01761C9.77673 2.01792 9.77637 2.0182 9.77606 2.01845C9.7759 2.01858 9.77569 2.01875 9.77561 2.01881C9.7754 2.01898 9.77521 2.01913 10.3999 2.8ZM14.8999 2C15.7834 2 16.7356 2.36235 17.5231 2.78235C17.9054 2.98627 18.225 3.19079 18.4477 3.34348C18.5586 3.41953 18.6443 3.48195 18.7005 3.52394C18.7286 3.54491 18.7493 3.56072 18.7619 3.57051C18.7682 3.5754 18.7725 3.57878 18.7748 3.58055C18.7759 3.58143 18.7765 3.58191 18.7766 3.58197C18.7766 3.58199 18.7765 3.58192 18.7763 3.58174C18.7762 3.58165 18.776 3.58153 18.7759 3.58138C18.7758 3.58131 18.7756 3.58118 18.7756 3.58115C18.7754 3.58101 18.7752 3.58087 19.3999 2.8C20.0246 2.01913 20.0244 2.01898 20.0242 2.01881C20.0241 2.01875 20.0239 2.01858 20.0237 2.01845C20.0234 2.0182 20.0231 2.01792 20.0227 2.01761C20.0219 2.01699 20.021 2.01626 20.0199 2.01543C20.0178 2.01375 20.0152 2.01165 20.012 2.00912C20.0056 2.00408 19.997 1.99735 19.9863 1.98906C19.9648 1.97248 19.9349 1.94962 19.8971 1.92138C19.8215 1.86493 19.7139 1.78672 19.5787 1.69402C19.3092 1.50921 18.9256 1.26373 18.4642 1.01765C17.5643 0.537653 16.2664 0 14.8999 0V2ZM19.3999 15.7273C20.0246 14.9464 20.0244 14.9462 20.0242 14.9461C20.0241 14.946 20.0239 14.9459 20.0237 14.9457C20.0234 14.9455 20.0231 14.9452 20.0227 14.9449C20.0219 14.9443 20.021 14.9435 20.0199 14.9427C20.0178 14.941 20.0152 14.9389 20.012 14.9364C20.0056 14.9313 19.997 14.9246 19.9863 14.9163C19.9648 14.8998 19.9349 14.8769 19.8971 14.8486C19.8215 14.7922 19.7139 14.714 19.5787 14.6213C19.3092 14.4365 18.9256 14.191 18.4642 13.9449C17.5643 13.4649 16.2664 12.9273 14.8999 12.9273V14.9273C15.7834 14.9273 16.7356 15.2896 17.5231 15.7096C17.9054 15.9135 18.225 16.1181 18.4477 16.2708C18.5586 16.3468 18.6443 16.4092 18.7005 16.4512C18.7286 16.4722 18.7493 16.488 18.7619 16.4978C18.7682 16.5027 18.7725 16.5061 18.7748 16.5078C18.7759 16.5087 18.7765 16.5092 18.7766 16.5092C18.7766 16.5093 18.7765 16.5092 18.7763 16.509C18.7762 16.5089 18.776 16.5088 18.7759 16.5087C18.7758 16.5086 18.7756 16.5085 18.7756 16.5084C18.7754 16.5083 18.7752 16.5081 19.3999 15.7273ZM14.8999 12.9273C13.5334 12.9273 12.2356 13.4649 11.3356 13.9449C10.8742 14.191 10.4906 14.4365 10.2211 14.6213C10.0859 14.714 9.97829 14.7922 9.90269 14.8486C9.86486 14.8769 9.83496 14.8998 9.81355 14.9163C9.80284 14.9246 9.79424 14.9313 9.78783 14.9364C9.78463 14.9389 9.78197 14.941 9.77986 14.9427C9.77881 14.9435 9.77789 14.9443 9.77712 14.9449C9.77673 14.9452 9.77637 14.9455 9.77606 14.9457C9.7759 14.9459 9.77569 14.946 9.77561 14.9461C9.7754 14.9462 9.77521 14.9464 10.3999 15.7273C11.0246 16.5081 11.0244 16.5083 11.0243 16.5084C11.0242 16.5085 11.024 16.5086 11.024 16.5087C11.0238 16.5088 11.0236 16.5089 11.0235 16.509C11.0233 16.5092 11.0232 16.5093 11.0232 16.5092C11.0233 16.5092 11.0239 16.5087 11.025 16.5078C11.0273 16.5061 11.0316 16.5027 11.0379 16.4978C11.0505 16.488 11.0712 16.4722 11.0993 16.4512C11.1555 16.4092 11.2412 16.3468 11.3521 16.2708C11.5748 16.1181 11.8944 15.9135 12.2767 15.7096C13.0643 15.2896 14.0164 14.9273 14.8999 14.9273V12.9273Z" fill="#14142B"/>
</svg>
