<svg width="16" height="16" viewBox="0 0 16 16" fill="none" xmlns="http://www.w3.org/2000/svg">
<path fill-rule="evenodd" clip-rule="evenodd" d="M7.71429 3.14286C5.18956 3.14286 3.14286 5.18956 3.14286 7.71429C3.14286 10.239 5.18956 12.2857 7.71429 12.2857C10.239 12.2857 12.2857 10.239 12.2857 7.71429C12.2857 5.18956 10.239 3.14286 7.71429 3.14286ZM2 7.71429C2 4.55837 4.55837 2 7.71429 2C10.8702 2 13.4286 4.55837 13.4286 7.71429C13.4286 9.08644 12.9449 10.3456 12.1388 11.3307L13.8326 13.0245C14.0558 13.2477 14.0558 13.6095 13.8326 13.8326C13.6095 14.0558 13.2477 14.0558 13.0245 13.8326L11.3307 12.1388C10.3456 12.9449 9.08644 13.4286 7.71429 13.4286C4.55837 13.4286 2 10.8702 2 7.71429Z" fill="#C8E1FC"/>
</svg>
