<svg width="24" height="24" viewBox="0 0 24 24" fill="none" xmlns="http://www.w3.org/2000/svg">
<path d="M7.6 16.5C7.6 16.0029 8.00294 15.6 8.5 15.6H13C13.4971 15.6 13.9 16.0029 13.9 16.5C13.9 16.9971 13.4971 17.4 13 17.4H8.5C8.00294 17.4 7.6 16.9971 7.6 16.5ZM7.6 12.9C7.6 12.4029 8.00294 12 8.5 12H15.7C16.1971 12 16.6 12.4029 16.6 12.9C16.6 13.3971 16.1971 13.8 15.7 13.8H8.5C8.00294 13.8 7.6 13.3971 7.6 12.9ZM7.6 9.3C7.6 8.80294 8.00294 8.4 8.5 8.4H15.7C16.1971 8.4 16.6 8.80294 16.6 9.3C16.6 9.79706 16.1971 10.2 15.7 10.2H8.5C8.00294 10.2 7.6 9.79706 7.6 9.3ZM18.4 4.8H14.638C14.26 3.756 13.27 3 12.1 3C10.93 3 9.94 3.756 9.562 4.8H5.8C5.674 4.8 5.557 4.809 5.44 4.836C5.089 4.908 4.774 5.088 4.531 5.331C4.369 5.493 4.234 5.691 4.144 5.907C4.054 6.114 4 6.348 4 6.6V19.2C4 19.443 4.054 19.686 4.144 19.902C4.234 20.118 4.369 20.307 4.531 20.478C4.774 20.721 5.089 20.901 5.44 20.973C5.557 20.991 5.674 21 5.8 21H18.4C19.39 21 20.2 20.19 20.2 19.2V6.6C20.2 5.61 19.39 4.8 18.4 4.8ZM12.1 4.575C12.469 4.575 12.775 4.881 12.775 5.25C12.775 5.619 12.469 5.925 12.1 5.925C11.731 5.925 11.425 5.619 11.425 5.25C11.425 4.881 11.731 4.575 12.1 4.575ZM18.4 19.2H5.8V6.6H18.4V19.2Z" fill="#2D2D39"/>
</svg>
