<svg width="24" height="24" viewBox="0 0 24 24" fill="none" xmlns="http://www.w3.org/2000/svg">
<path d="M12 21C10.7526 21 9.58042 20.7632 8.48337 20.2895C7.38568 19.8158 6.43421 19.1763 5.62895 18.3711C4.82368 17.5658 4.18421 16.6143 3.71053 15.5166C3.23684 14.4196 3 13.2474 3 12C3 10.7526 3.23684 9.58011 3.71053 8.48242C4.18421 7.38537 4.82368 6.43421 5.62895 5.62895C6.43421 4.82368 7.38568 4.18421 8.48337 3.71053C9.58042 3.23684 10.7526 3 12 3H12.7105V10.7684C12.9316 10.9105 13.1053 11.0842 13.2316 11.2895C13.3579 11.4947 13.4211 11.7316 13.4211 12C13.4211 12.3947 13.2827 12.7301 13.0061 13.0061C12.7301 13.2827 12.3947 13.4211 12 13.4211C11.6053 13.4211 11.2699 13.2827 10.9939 13.0061C10.7173 12.7301 10.5789 12.3947 10.5789 12C10.5789 11.7316 10.6421 11.4906 10.7684 11.2772C10.8947 11.0643 11.0684 10.8947 11.2895 10.7684V8.28158C10.4053 8.45526 9.67105 8.88568 9.08684 9.57284C8.50263 10.2594 8.21053 11.0684 8.21053 12C8.21053 13.0421 8.58158 13.9342 9.32368 14.6763C10.0658 15.4184 10.9579 15.7895 12 15.7895C13.0421 15.7895 13.9342 15.4184 14.6763 14.6763C15.4184 13.9342 15.7895 13.0421 15.7895 12C15.7895 11.4316 15.6748 10.9064 15.4456 10.4245C15.2169 9.94326 14.9053 9.52105 14.5105 9.1579L15.5289 8.13947C16.0342 8.62895 16.4409 9.20116 16.7492 9.85611C17.0567 10.5117 17.2105 11.2263 17.2105 12C17.2105 13.4526 16.7053 14.6842 15.6947 15.6947C14.6842 16.7053 13.4526 17.2105 12 17.2105C10.5474 17.2105 9.31579 16.7053 8.30526 15.6947C7.29474 14.6842 6.78947 13.4526 6.78947 12C6.78947 10.6737 7.21958 9.52484 8.07979 8.55347C8.94063 7.58274 10.0105 7.01053 11.2895 6.83684V4.44474C9.36316 4.61842 7.73684 5.42368 6.41053 6.86053C5.08421 8.29737 4.42105 10.0105 4.42105 12C4.42105 14.1158 5.15526 15.9079 6.62368 17.3763C8.09211 18.8447 9.88421 19.5789 12 19.5789C14.1158 19.5789 15.9079 18.8447 17.3763 17.3763C18.8447 15.9079 19.5789 14.1158 19.5789 12C19.5789 10.9105 19.3658 9.89211 18.9395 8.94474C18.5132 7.99737 17.9289 7.17632 17.1868 6.48158L18.2053 5.46316C19.0579 6.3 19.7368 7.27516 20.2421 8.38863C20.7474 9.50147 21 10.7053 21 12C21 13.2474 20.7632 14.4196 20.2895 15.5166C19.8158 16.6143 19.1763 17.5658 18.3711 18.3711C17.5658 19.1763 16.6146 19.8158 15.5176 20.2895C14.4199 20.7632 13.2474 21 12 21Z" fill="#2D2D39"/>
</svg>
