<svg width="18" height="15" viewBox="0 0 18 15" fill="currentColor" xmlns="http://www.w3.org/2000/svg">
<path d="M3.57366 13.7413C3.29264 14.0457 3.31172 14.5205 3.61613 14.801C3.7607 14.9342 3.94296 15 4.12474 15C4.32704 15 4.52791 14.9189 4.67582 14.759L3.57366 13.7413ZM17.7247 7.29436L16.7747 8.45569C17.0954 8.71764 17.5682 8.6704 17.8301 8.34977C17.9442 8.21045 18 8.0425 18 7.8755C18 7.65841 17.906 7.44274 17.7247 7.29436ZM2.62466 8.25005C2.62466 8.6642 2.96056 9.0001 3.3747 9.0001C3.78885 9.0001 4.09087 8.69712 4.12188 8.3116C4.12379 8.29156 4.12474 8.27152 4.12474 8.251V8.25005H2.62466ZM8.62498 8.25005V8.251C8.62498 8.25673 8.62498 8.26245 8.62546 8.26818C8.635 8.67374 8.9666 9.0001 9.37502 9.0001C9.78344 9.0001 10.1251 8.6642 10.1251 8.25005H8.62498ZM2.24964 0V1.5001H15.7499V0H2.24964ZM16.4999 2.25014V6.29239L14.6935 4.81424C13.7722 4.06037 12.4229 4.15484 11.6151 5.02942L9.7133 7.08967C9.52436 6.8053 9.27625 6.52618 8.98616 6.27616C8.34586 5.72317 7.42835 5.24986 6.37486 5.24986C5.32137 5.24986 4.40386 5.72317 3.76356 6.27616C3.44579 6.55051 3.17765 6.85969 2.98251 7.17221L1.4996 5.68929V7.81061L5.42491 11.736L3.796 13.5004H5.83762L12.7173 6.04714C12.9869 5.75561 13.4363 5.72412 13.7436 5.97509L16.4999 8.23096V12.7503H18V2.25014H16.4999ZM6.44309 10.6328L4.12188 8.3116C4.12379 8.29156 4.12474 8.27152 4.12474 8.251C4.1257 8.251 4.13667 8.15701 4.24879 7.9757C4.35615 7.80155 4.52362 7.60115 4.74357 7.41125C5.18921 7.02669 5.77178 6.74995 6.37486 6.74995C6.97795 6.74995 7.56052 7.02669 8.00615 7.41125C8.22563 7.60115 8.3931 7.80155 8.50093 7.9757C8.61257 8.15701 8.62403 8.251 8.62498 8.251C8.62498 8.25673 8.62498 8.26245 8.62546 8.26818L6.44309 10.6328ZM2.24964 13.5004V15H15.7499V13.5004H2.24964ZM0 2.25014V12.7503H1.4996V2.25014H0ZM1.4996 13.5004V12.7503H0C0 13.9928 1.00721 15 2.24964 15V13.5004H1.4996ZM16.4999 12.7503V13.5004H15.7499V15C16.9923 15 18 13.9928 18 12.7503H16.4999ZM18 2.25014C18 1.00722 16.9923 0 15.7499 0V1.5001H16.4999V2.25014H18ZM0 2.25014H1.4996V1.5001H2.24964V0C1.00721 0 0 1.00722 0 2.25014ZM4.06033 8.25005L4.12188 8.3116C4.12379 8.29156 4.12474 8.27152 4.12474 8.251V8.25005H4.06033ZM11.6151 5.02942L9.7133 7.08967L8.64216 8.25005H8.62498V8.251C8.62498 8.25673 8.62498 8.26245 8.62546 8.26818L6.44309 10.6328L5.42491 11.736L3.796 13.5004L3.57366 13.7413L4.67582 14.759L5.83762 13.5004L12.7173 6.04714L11.6151 5.02942ZM16.4999 6.29239L14.6935 4.81424L13.7436 5.97509L16.4999 8.23096L16.7747 8.45569L17.7247 7.29436L16.4999 6.29239ZM11.6151 5.02942L12.7173 6.04714C12.9869 5.75561 13.4363 5.72412 13.7436 5.97509L14.6935 4.81424C13.7722 4.06037 12.4229 4.15484 11.6151 5.02942ZM6.44309 10.6328L4.12188 8.3116L4.06033 8.25005L2.98251 7.17221L1.28013 5.46981L0.219477 6.53047L6.03181 12.3429L7.09246 11.2822L6.44309 10.6328ZM3.76356 6.27616C3.44579 6.55051 3.17765 6.85969 2.98251 7.17221C2.97869 7.17746 2.97535 7.18319 2.97201 7.18843C2.78641 7.4895 2.62466 7.86453 2.62466 8.25005H4.06033L4.12188 8.3116C4.12379 8.29156 4.12474 8.27152 4.12474 8.251C4.1257 8.251 4.13667 8.15701 4.24879 7.9757C4.35615 7.80155 4.52362 7.60115 4.74357 7.41125C5.18921 7.02669 5.77178 6.74995 6.37486 6.74995V5.24986C5.32089 5.24986 4.40386 5.72317 3.76356 6.27616ZM9.77724 7.18843C9.75672 7.15551 9.73573 7.12259 9.7133 7.08967C9.52436 6.8053 9.27625 6.52618 8.98616 6.27616C8.34586 5.72317 7.42835 5.24986 6.37486 5.24986V6.74995C6.97795 6.74995 7.56052 7.02669 8.00615 7.41125C8.22563 7.60115 8.3931 7.80155 8.50093 7.9757C8.61257 8.15701 8.62403 8.251 8.62498 8.251V8.25005H10.1251C10.1251 7.86453 9.96331 7.4895 9.77724 7.18843Z" fill="currentColor"/>
</svg>
