<svg version="1.2" xmlns="http://www.w3.org/2000/svg" viewBox="0 0 30 30" width="30" height="30">
	<title>quiz-svg</title>
	<style>
		.s0 { fill: #ffffff } 
	</style>
	<path id="Layer" fill-rule="evenodd" class="s0" d="m15.7 0c0.6 0.1 1.3 0.2 1.9 0.4 3.8 1 6.7 4.4 7 8.4q0.4 4.2-2.4 7.3c-1 1.2-1.8 2.4-2.1 3.8q0 0.3-0.1 0.6h-10c-0.2-0.9-0.4-1.8-0.9-2.6-0.3-0.5-0.7-1.1-1.1-1.5-1.4-1.6-2.4-3.4-2.6-5.5-0.4-3.7 0.9-6.8 3.9-9 1.4-1.1 3-1.7 4.8-1.8q0.1-0.1 0.2-0.1 0.7 0 1.4 0zm-1.6 10.6c0 0 0 0.1 0 0.3 0.1 0.5 0.4 0.8 0.9 0.8 0.5 0 0.9-0.3 0.9-0.8q0-0.3 0-0.5 0-0.5 0.4-0.7 0.1-0.2 0.3-0.3c1-0.7 1.3-2 0.8-3.2-0.5-1.1-1.7-1.7-2.9-1.5-1.2 0.3-2.1 1.3-2.1 2.5 0 0.6 0.3 1 0.8 1 0.5 0 0.9-0.4 0.9-0.9 0.1-0.2 0.2-0.5 0.3-0.6 0.4-0.4 1-0.3 1.3 0.1 0.3 0.4 0.2 1-0.2 1.3-0.9 0.5-1.4 1.3-1.4 2.5zm1.8 3.7c0-0.4-0.4-0.8-0.9-0.8-0.5 0-0.9 0.4-0.9 0.8 0 0.5 0.5 0.9 0.9 0.9 0.5 0 0.9-0.4 0.9-0.9z"/>
	<path id="Layer" class="s0" d="m30 9.9c-0.2 0.5-0.6 0.7-1.2 0.7-0.5-0.1-0.9 0-1.4 0-0.5 0-0.9-0.4-0.9-0.9 0-0.5 0.4-0.9 0.9-0.9q0.7 0 1.4 0c0.6-0.1 1 0.1 1.2 0.6z"/>
	<path id="Layer" class="s0" d="m19.9 22.3c0 0.7 0.1 1.3 0 2-0.1 1.2-1.2 2.2-2.5 2.2q-2.4 0-4.8 0c-1.4-0.1-2.5-1.2-2.6-2.6q0-0.8 0-1.6h9.9z"/>
	<path id="Layer" class="s0" d="m11.8 28.2h6.4c0.1 0.7-0.5 1.5-1.3 1.7q-0.2 0.1-0.4 0.1-1.5 0-3 0c-1 0-1.7-0.8-1.7-1.7z"/>
	<path id="Layer" class="s0" d="m1.8 10.6q-0.5 0-0.9 0c-0.5-0.1-0.9-0.4-0.9-0.9 0-0.5 0.4-0.9 0.9-0.9q0.9 0 1.7 0c0.5 0 0.9 0.4 0.9 0.9 0 0.5-0.4 0.8-0.9 0.8q-0.4 0-0.8 0z"/>
	<path id="Layer" class="s0" d="m26.6 6.3c-0.4 0-0.7-0.2-0.8-0.6-0.1-0.4 0-0.8 0.4-1q0.9-0.4 1.9-0.7c0.4-0.1 0.8 0.1 1 0.5 0.1 0.3 0.1 0.9-0.3 1-0.7 0.4-1.4 0.6-2.1 0.9q-0.1 0-0.1-0.1z"/>
	<path id="Layer" class="s0" d="m4.3 13.9c-0.1 0.4-0.2 0.7-0.6 0.8q-0.9 0.3-1.7 0.6c-0.5 0.2-0.9-0.1-1.1-0.5-0.2-0.4 0-1 0.5-1.1q0.8-0.4 1.7-0.7c0.6-0.1 1.2 0.3 1.1 0.9z"/>
	<path id="Layer" class="s0" d="m26.7 13c0 0 0.2 0 0.3 0.1q0.7 0.2 1.5 0.5c0.5 0.2 0.8 0.7 0.6 1.2-0.2 0.5-0.7 0.7-1.2 0.5q-0.8-0.3-1.6-0.6c-0.4-0.2-0.6-0.6-0.5-1 0-0.4 0.4-0.7 0.9-0.7z"/>
	<path id="Layer" class="s0" d="m3.3 6.3c0 0-0.2 0-0.2 0q-0.8-0.3-1.7-0.6c-0.4-0.2-0.7-0.7-0.5-1.1 0.2-0.5 0.6-0.7 1.1-0.5q0.9 0.2 1.7 0.6c0.4 0.1 0.6 0.5 0.5 1-0.1 0.4-0.4 0.7-0.9 0.7z"/>
</svg>