<svg width="34" height="32" viewBox="0 0 34 32" fill="none" xmlns="http://www.w3.org/2000/svg">
<path d="M1.49994 31.84C0.947655 31.84 0.499939 31.3923 0.499939 30.84V28.7286L3.32851 25.9V30.84C3.32851 31.3923 2.88079 31.84 2.32851 31.84H1.49994ZM9.0428 31.84C8.49051 31.84 8.0428 31.3923 8.0428 30.84V21.1857L10.8714 18.3571V30.84C10.8714 31.3923 10.4237 31.84 9.87137 31.84H9.0428ZM16.5857 31.84C16.0334 31.84 15.5857 31.3923 15.5857 30.84V18.3571L18.4142 21.2329V30.84C18.4142 31.3923 17.9665 31.84 17.4142 31.84H16.5857ZM24.1285 31.84C23.5762 31.84 23.1285 31.3923 23.1285 30.84V21.2329L25.9571 18.4043V30.84C25.9571 31.3923 25.5094 31.84 24.9571 31.84H24.1285ZM31.6714 31.84C31.1191 31.84 30.6714 31.3923 30.6714 30.84V13.6429L33.4999 10.8143V30.84C33.4999 31.3923 33.0522 31.84 32.4999 31.84H31.6714ZM2.20704 19.7143C1.57708 20.3443 0.499939 19.8981 0.499939 19.0072V17.8285C0.499939 17.5633 0.605296 17.3089 0.792832 17.1214L12.5214 5.39282C12.9119 5.0023 13.5451 5.0023 13.9356 5.39282L20.0643 11.5215C20.4548 11.912 21.0879 11.912 21.4785 11.5215L31.7928 1.20711C32.4228 0.577142 33.4999 1.02331 33.4999 1.91421V3.09293C33.4999 3.35815 33.3946 3.6125 33.207 3.80004L21.4785 15.5286C21.0879 15.9191 20.4548 15.9191 20.0643 15.5286L13.9356 9.39997C13.5451 9.00944 12.9119 9.00944 12.5214 9.39996L2.20704 19.7143Z" fill="#0FA069"/>
</svg>
