<svg version="1.2" xmlns="http://www.w3.org/2000/svg" viewBox="0 0 23 30" width="23" height="30">
	<title>article-svg</title>
	<style>
		.s0 { fill: #ffffff } 
	</style>
	<path id="Layer" fill-rule="evenodd" class="s0" d="m22 8.1c0.5 0.6 0.8 1.4 0.8 2.1v16.8c0.1 0.8-0.2 1.5-0.8 2.1-0.5 0.5-1.2 0.9-2 0.9h-16.9c-0.7 0-1.5-0.4-2-0.9-0.5-0.6-0.8-1.3-0.8-2.1v-24c0-0.8 0.3-1.5 0.8-2.1 0.6-0.5 1.3-0.9 2-0.9h10.1q0.6 0 1.1 0.2 0.5 0.3 0.9 0.7zm-5.1 15.4c0.3-0.3 0.4-0.6 0.4-1 0-0.4-0.1-0.8-0.4-1.1-0.3-0.3-0.7-0.4-1.1-0.4h-8.4c-0.4 0-0.8 0.1-1.1 0.4-0.3 0.3-0.4 0.7-0.4 1.1 0 0.4 0.1 0.7 0.4 1 0.3 0.3 0.7 0.5 1.1 0.5h8.4c0.4 0 0.8-0.2 1.1-0.5zm0-6c0.3-0.3 0.4-0.6 0.4-1 0-0.4-0.1-0.8-0.4-1.1-0.3-0.3-0.7-0.4-1.1-0.4h-8.4c-0.4 0-0.8 0.1-1.1 0.4-0.3 0.3-0.4 0.7-0.4 1.1 0 0.4 0.1 0.7 0.4 1 0.3 0.3 0.7 0.5 1.1 0.5h8.4c0.4 0 0.8-0.2 1.1-0.5zm-3.5-7.5c0.3 0.3 0.6 0.4 1 0.5h6.3l-7.7-8.3v6.8c0 0.3 0.1 0.7 0.4 1z"/>
</svg>