<svg width="13" height="17" viewBox="0 0 13 17" fill="none" xmlns="http://www.w3.org/2000/svg">
    <path d="M3.867 12.698h4.352a.6.6 0 0 0 .44-.171.582.582 0 0 0 .174-.433.582.582 0 0 0-.174-.433.6.6 0 0 0-.44-.171H3.867a.6.6 0 0 0-.44.17.582.582 0 0 0-.174.434c0 .174.058.319.174.433a.6.6 0 0 0 .44.171zm0-3.424h4.352a.601.601 0 0 0 .44-.171.582.582 0 0 0 .174-.434.582.582 0 0 0-.174-.433.601.601 0 0 0-.44-.17H3.867a.601.601 0 0 0-.44.17.582.582 0 0 0-.174.433c0 .175.058.32.174.434a.601.601 0 0 0 .44.17zm-2.64 6.848c-.327 0-.613-.12-.859-.362A1.15 1.15 0 0 1 0 14.914V1.216C0 .894.123.612.368.37.614.13.9.008 1.228.008h5.866c.164 0 .324.033.481.1.157.068.29.155.399.262l3.744 3.687a1.256 1.256 0 0 1 .368.866v9.99c0 .323-.123.605-.368.847a1.187 1.187 0 0 1-.86.362h-9.63zM6.992 4.36V1.216H1.227v13.698h9.631v-9.95H7.606a.601.601 0 0 1-.44-.172.582.582 0 0 1-.174-.433z" fill="#fff"/>
</svg>
