<svg width="24" height="25" viewBox="0 0 24 25" fill="none" xmlns="http://www.w3.org/2000/svg">
<mask id="mask0_2443_46" style="mask-type:alpha" maskUnits="userSpaceOnUse" x="0" y="0" width="24" height="25">
<rect y="0.5" width="24" height="24" fill="#D9D9D9"/>
</mask>
<g mask="url(#mask0_2443_46)">
<path d="M9.15789 16.0526C9.61821 16.0526 10.0096 15.8914 10.3321 15.5689C10.6545 15.2465 10.8158 14.8551 10.8158 14.3947C10.8158 13.9344 10.6545 13.543 10.3321 13.2206C10.0096 12.8981 9.61821 12.7369 9.15789 12.7369C8.69756 12.7369 8.30617 12.8981 7.98372 13.2206C7.66125 13.543 7.50001 13.9344 7.50001 14.3947C7.50001 14.8551 7.66125 15.2465 7.98372 15.5689C8.30617 15.8914 8.69756 16.0526 9.15789 16.0526ZM14.8421 16.0526C15.3024 16.0526 15.6938 15.8914 16.0163 15.5689C16.3388 15.2465 16.5 14.8551 16.5 14.3947C16.5 13.9344 16.3388 13.543 16.0163 13.2206C15.6938 12.8981 15.3024 12.7369 14.8421 12.7369C14.3818 12.7369 13.9904 12.8981 13.6679 13.2206C13.3455 13.543 13.1842 13.9344 13.1842 14.3947C13.1842 14.8551 13.3455 15.2465 13.6679 15.5689C13.9904 15.8914 14.3818 16.0526 14.8421 16.0526ZM12 11.3158C12.4603 11.3158 12.8517 11.1545 13.1742 10.8321C13.4966 10.5096 13.6579 10.1182 13.6579 9.65789C13.6579 9.19756 13.4966 8.80617 13.1742 8.48372C12.8517 8.16125 12.4603 8.00001 12 8.00001C11.5397 8.00001 11.1483 8.16125 10.8258 8.48372C10.5034 8.80617 10.3421 9.19756 10.3421 9.65789C10.3421 10.1182 10.5034 10.5096 10.8258 10.8321C11.1483 11.1545 11.5397 11.3158 12 11.3158ZM12.0016 21.5C10.7568 21.5 9.58677 21.2638 8.49148 20.7914C7.39618 20.3189 6.44342 19.6778 5.63322 18.868C4.82299 18.0581 4.18157 17.1058 3.70894 16.011C3.23631 14.9162 3 13.7464 3 12.5016C3 11.2568 3.23621 10.0868 3.70863 8.99148C4.18106 7.89618 4.82219 6.94343 5.63203 6.13322C6.44189 5.323 7.39423 4.68157 8.48904 4.20894C9.58384 3.73631 10.7536 3.5 11.9984 3.5C13.2432 3.5 14.4132 3.73621 15.5085 4.20863C16.6038 4.68106 17.5566 5.32219 18.3668 6.13203C19.177 6.94189 19.8184 7.89423 20.2911 8.98904C20.7637 10.0838 21 11.2536 21 12.4984C21 13.7432 20.7638 14.9132 20.2914 16.0085C19.8189 17.1038 19.1778 18.0566 18.368 18.8668C17.5581 19.677 16.6058 20.3184 15.511 20.7911C14.4162 21.2637 13.2464 21.5 12.0016 21.5ZM12 20.079C14.1158 20.079 15.9079 19.3448 17.3763 17.8763C18.8448 16.4079 19.579 14.6158 19.579 12.5C19.579 10.3842 18.8448 8.5921 17.3763 7.12367C15.9079 5.65525 14.1158 4.92103 12 4.92103C9.8842 4.92103 8.09209 5.65525 6.62367 7.12367C5.15525 8.5921 4.42103 10.3842 4.42103 12.5C4.42103 14.6158 5.15525 16.4079 6.62367 17.8763C8.09209 19.3448 9.8842 20.079 12 20.079Z" fill="white"/>
</g>
</svg>
