<svg version="1.2" xmlns="http://www.w3.org/2000/svg" viewBox="0 0 30 30" width="30" height="30">
	<title>imggallery-svg</title>
	<style>
		.s0 { fill: #ffffff } 
	</style>
	<path id="Layer" fill-rule="evenodd" class="s0" d="m6.8 25.5c-0.6 0-1.2-0.3-1.6-0.7-0.4-0.4-0.7-1-0.7-1.6v-20.9c0-0.6 0.3-1.2 0.7-1.6 0.4-0.4 1-0.7 1.6-0.7h20.9c0.6 0 1.2 0.3 1.6 0.7 0.4 0.4 0.7 1 0.7 1.5v21c0 0.6-0.3 1.2-0.7 1.6-0.4 0.4-1 0.7-1.5 0.7zm-4.5 4.5c-0.6 0-1.2-0.3-1.6-0.7-0.4-0.4-0.7-1-0.7-1.6v-22.1c0-0.3 0.1-0.6 0.3-0.8 0.2-0.2 0.5-0.3 0.8-0.3 0.3 0 0.6 0.1 0.8 0.3 0.2 0.2 0.4 0.5 0.4 0.8v22.1h22.1c0.3 0 0.6 0.2 0.8 0.4 0.2 0.2 0.3 0.5 0.3 0.8 0 0.3-0.1 0.6-0.3 0.8-0.2 0.2-0.5 0.3-0.8 0.3zm8.8-11.1h12.4q0.2 0 0.3-0.1 0.1-0.1 0.2-0.2 0.1-0.2 0.1-0.3 0-0.2-0.2-0.3l-3.6-5q-0.1-0.1-0.2-0.1-0.1-0.1-0.2-0.1-0.2 0-0.3 0.1-0.1 0-0.2 0.1l-3.4 4.5-2.1-2.7q-0.1-0.1-0.2-0.2-0.1 0-0.3 0-0.1 0-0.2 0.1-0.1 0-0.2 0.1l-2.4 3.2q-0.1 0.1-0.1 0.3 0 0.1 0.1 0.3 0.1 0.1 0.2 0.2 0.1 0.1 0.3 0.1z"/>
</svg>