<svg width="24" height="25" viewBox="0 0 24 25" fill="none" xmlns="http://www.w3.org/2000/svg">
<mask id="mask0_2417_88" style="mask-type:alpha" maskUnits="userSpaceOnUse" x="0" y="0" width="24" height="25">
<rect y="0.5" width="24" height="24" fill="white"/>
</mask>
<g mask="url(#mask0_2417_88)">
<path d="M4.76021 20.5C4.28479 20.5 3.88237 20.3353 3.55296 20.0059C3.22354 19.6765 3.05884 19.2741 3.05884 18.7986V6.20137C3.05884 5.72595 3.22354 5.32353 3.55296 4.99412C3.88237 4.66471 4.28479 4.5 4.76021 4.5H19.2398C19.7152 4.5 20.1177 4.66471 20.4471 4.99412C20.7765 5.32353 20.9412 5.72595 20.9412 6.20137V18.7986C20.9412 19.2741 20.7765 19.6765 20.4471 20.0059C20.1177 20.3353 19.7152 20.5 19.2398 20.5H4.76021ZM6.71497 16.8439H17.2851V15.4321H6.71497V16.8439ZM6.71497 13.2059H10.1901V8.15613H6.71497V13.2059ZM12.2534 13.2059H17.2851V11.7941H12.2534V13.2059ZM12.2534 9.56785H17.2851V8.15613H12.2534V9.56785Z" fill="white"/>
</g>
</svg>
