<svg width="18" height="9" viewBox="0 0 18 9" fill="currentColor" xmlns="http://www.w3.org/2000/svg">
<path d="M0.887025 8.34144C0.74665 8.34144 0.626213 8.2912 0.525713 8.19071C0.425237 8.09024 0.375 7.96981 0.375 7.82942V7.56405C0.375 7.09876 0.6193 6.72138 1.1079 6.43191C1.5965 6.14244 2.24427 5.99771 3.05122 5.99771C3.19285 5.99771 3.3327 6.0024 3.47078 6.01178C3.60885 6.02115 3.74183 6.03565 3.8697 6.05528C3.78289 6.24593 3.71719 6.44391 3.67262 6.64922C3.62806 6.85454 3.60578 7.07161 3.60578 7.30043V8.34144H0.887025ZM5.41884 8.34144C5.26242 8.34144 5.13268 8.28961 5.02961 8.18595C4.92654 8.08228 4.875 7.95382 4.875 7.80058V7.32896C4.875 6.61261 5.25457 6.03497 6.01371 5.59603C6.77283 5.15709 7.76731 4.93763 8.99713 4.93763C10.2384 4.93763 11.2367 5.15709 11.992 5.59603C12.7473 6.03497 13.125 6.61261 13.125 7.32896V7.80058C13.125 7.95382 13.0731 8.08228 12.9695 8.18595C12.8658 8.28961 12.7373 8.34144 12.5841 8.34144H5.41884ZM14.3942 8.34144V7.30043C14.3942 7.07161 14.3725 6.85454 14.3291 6.64922C14.2857 6.44391 14.2194 6.24422 14.1303 6.05016C14.2581 6.02769 14.3909 6.01334 14.5285 6.00709C14.6661 6.00084 14.8069 5.99771 14.951 5.99771C15.7505 5.99771 16.396 6.14244 16.8876 6.43191C17.3792 6.72138 17.625 7.09876 17.625 7.56405V7.82942C17.625 7.96981 17.5747 8.09024 17.4742 8.19071C17.3738 8.2912 17.2533 8.34144 17.1129 8.34144H14.3942ZM8.99998 5.78858C7.99709 5.78858 7.19589 5.93569 6.59638 6.22991C5.99686 6.52415 5.70431 6.90252 5.71873 7.36502V7.49049H12.2884V7.34627C12.2981 6.90107 12.0031 6.53016 11.4036 6.23353C10.8041 5.93689 10.0029 5.78858 8.99998 5.78858ZM3.04824 5.40636C2.73051 5.40636 2.46154 5.29387 2.24136 5.06889C2.02117 4.84391 1.91108 4.57344 1.91108 4.25751C1.91108 3.94157 2.02191 3.67186 2.24359 3.44837C2.46526 3.22487 2.73497 3.11312 3.05271 3.11312C3.37044 3.11312 3.64061 3.22561 3.86321 3.4506C4.0858 3.67558 4.19709 3.94603 4.19709 4.26197C4.19709 4.57791 4.08461 4.84763 3.85963 5.07113C3.63464 5.29461 3.36418 5.40636 3.04824 5.40636ZM14.9473 5.40636C14.6295 5.40636 14.3594 5.29387 14.1368 5.06889C13.9142 4.84391 13.8029 4.57344 13.8029 4.25751C13.8029 3.94157 13.9154 3.67186 14.1403 3.44837C14.3653 3.22487 14.6358 3.11312 14.9517 3.11312C15.2695 3.11312 15.5384 3.22561 15.7586 3.4506C15.9788 3.67558 16.0889 3.94603 16.0889 4.26197C16.0889 4.57791 15.9781 4.84763 15.7564 5.07113C15.5347 5.29461 15.265 5.40636 14.9473 5.40636ZM8.99998 4.37513C8.45912 4.37513 7.99939 4.18583 7.62079 3.80723C7.24219 3.42863 7.05289 2.96889 7.05289 2.42803C7.05289 1.88718 7.24219 1.42746 7.62079 1.04886C7.99939 0.670256 8.45912 0.480957 8.99998 0.480957C9.54084 0.480957 10.0006 0.670256 10.3792 1.04886C10.7578 1.42746 10.9471 1.88718 10.9471 2.42803C10.9471 2.96889 10.7578 3.42863 10.3792 3.80723C10.0006 4.18583 9.54084 4.37513 8.99998 4.37513ZM9.00124 1.33189C8.68646 1.33189 8.42487 1.43568 8.21646 1.64325C8.00804 1.85081 7.90384 2.11199 7.90384 2.42678C7.90384 2.74156 8.00762 3.00316 8.21518 3.21158C8.42276 3.41999 8.68394 3.52419 8.99873 3.52419C9.3135 3.52419 9.57509 3.42041 9.78351 3.21283C9.99192 3.00527 10.0961 2.74409 10.0961 2.42931C10.0961 2.11452 9.99234 1.85292 9.78478 1.64451C9.57721 1.43609 9.31602 1.33189 9.00124 1.33189Z" fill="currentColor"/>
</svg>
