<svg width="24" height="24" viewBox="0 0 24 24" fill="none" xmlns="http://www.w3.org/2000/svg">
    <path d="M12.468 2c.422.078.844.133 1.255.244 2.556.69 4.467 2.978 4.69 5.623.155 1.866-.39 3.51-1.645 4.9-.667.733-1.156 1.544-1.356 2.522l-.067.367h-6.7c-.088-.623-.244-1.212-.566-1.734-.222-.355-.456-.71-.745-1.022-.955-1.044-1.577-2.244-1.722-3.644-.267-2.49.611-4.512 2.6-6.023.933-.7 2.011-1.089 3.189-1.2.044 0 .089-.022.133-.033h.934zm-1.056 7.033v.211a.596.596 0 0 0 .589.567.579.579 0 0 0 .578-.567v-.333c0-.211.077-.367.255-.478.078-.055.156-.1.223-.155a1.773 1.773 0 0 0 .544-2.122 1.77 1.77 0 0 0-1.945-1c-.788.155-1.388.855-1.41 1.644 0 .367.21.633.544.656.333.022.578-.234.633-.59a.718.718 0 0 1 .2-.422c.234-.244.634-.2.845.067.222.278.155.656-.167.867-.589.378-.911.9-.878 1.655h-.01zm1.167 2.523a.59.59 0 0 0-.59-.578.581.581 0 0 0-.577.578c0 .322.278.6.6.589a.598.598 0 0 0 .578-.59h-.011zM22 8.6c-.156.333-.422.456-.79.433-.31-.022-.621 0-.933 0-.355 0-.622-.255-.622-.589 0-.333.267-.577.622-.588.312 0 .623.01.934 0 .367-.023.633.1.789.433V8.6zM15.287 16.856c0 .466.045.91 0 1.355a1.684 1.684 0 0 1-1.655 1.434c-1.089.01-2.178.01-3.256 0-.91-.011-1.666-.778-1.688-1.69v-1.1h6.61-.01zM9.855 20.833h4.267c.067.467-.322.99-.833 1.123-.09.022-.178.044-.267.044H10.99c-.622 0-1.122-.522-1.134-1.156v-.01zM3.167 9.033h-.59A.588.588 0 1 1 2.6 7.855h1.145c.345 0 .6.267.6.59 0 .322-.255.577-.61.577h-.567v.011zM19.746 6.222a.594.594 0 0 1-.567-.444c-.066-.267.045-.545.3-.656.411-.166.822-.322 1.245-.455.255-.078.533.077.644.31.111.234.078.59-.155.7-.467.223-.967.4-1.445.59a.084.084 0 0 0-.022-.045zM4.834 11.256c-.022.244-.133.444-.367.533-.378.145-.766.289-1.155.411a.567.567 0 0 1-.711-.344c-.112-.29.022-.634.31-.745.39-.155.778-.3 1.167-.422a.575.575 0 0 1 .745.567h.01zM19.811 10.667s.112.022.19.044c.333.111.655.233.988.356.367.133.534.455.411.789-.122.31-.455.444-.81.322-.345-.122-.7-.245-1.045-.378a.573.573 0 0 1-.367-.678c.056-.266.3-.455.622-.455h.011zM4.2 6.222s-.1-.01-.155-.033c-.356-.133-.723-.255-1.078-.389-.322-.122-.478-.444-.367-.755a.576.576 0 0 1 .745-.345c.377.122.744.256 1.11.4a.575.575 0 0 1 .356.667c-.055.267-.289.467-.622.467l.011-.012z" fill="#2D2D39"/>
</svg>
