<svg width="21" height="20" viewBox="0 0 21 20" fill="none" xmlns="http://www.w3.org/2000/svg">
<mask id="mask0_1072_6899" style="mask-type:alpha" maskUnits="userSpaceOnUse" x="0" y="0" width="21" height="20">
<rect x="0.666992" width="20" height="20" fill="#2D2D39"/>
</mask>
<g mask="url(#mask0_1072_6899)">
<path d="M10.6672 17.9163C9.56993 17.9163 8.53882 17.708 7.57382 17.2913C6.60827 16.8747 5.77132 16.3122 5.06299 15.6038C4.35465 14.8955 3.79215 14.0586 3.37549 13.093C2.95882 12.128 2.75049 11.0969 2.75049 9.99967C2.75049 8.90245 2.95882 7.87106 3.37549 6.90551C3.79215 5.94051 4.35465 5.10384 5.06299 4.39551C5.77132 3.68717 6.60827 3.12467 7.57382 2.70801C8.53882 2.29134 9.56993 2.08301 10.6672 2.08301H11.2922V8.91634C11.4866 9.04134 11.6394 9.19412 11.7505 9.37467C11.8616 9.55523 11.9172 9.76356 11.9172 9.99967C11.9172 10.3469 11.7955 10.6419 11.5522 10.8847C11.3094 11.128 11.0144 11.2497 10.6672 11.2497C10.3199 11.2497 10.0249 11.128 9.78215 10.8847C9.53882 10.6419 9.41715 10.3469 9.41715 9.99967C9.41715 9.76356 9.47271 9.55162 9.58382 9.36384C9.69493 9.17662 9.84771 9.02745 10.0422 8.91634V6.72884C9.26438 6.88162 8.61854 7.26023 8.10465 7.86467C7.59077 8.46856 7.33382 9.18023 7.33382 9.99967C7.33382 10.9163 7.66021 11.7011 8.31299 12.3538C8.96577 13.0066 9.75049 13.333 10.6672 13.333C11.5838 13.333 12.3685 13.0066 13.0213 12.3538C13.6741 11.7011 14.0005 10.9163 14.0005 9.99967C14.0005 9.49967 13.8997 9.03773 13.698 8.61384C13.4969 8.19051 13.2227 7.81912 12.8755 7.49967L13.7713 6.60384C14.2158 7.0344 14.5735 7.53773 14.8447 8.11384C15.1152 8.69051 15.2505 9.31912 15.2505 9.99967C15.2505 11.2775 14.806 12.3608 13.9172 13.2497C13.0283 14.1386 11.9449 14.583 10.6672 14.583C9.38938 14.583 8.30604 14.1386 7.41715 13.2497C6.52827 12.3608 6.08382 11.2775 6.08382 9.99967C6.08382 8.83301 6.46215 7.82245 7.21882 6.96801C7.97604 6.11412 8.91715 5.61079 10.0422 5.45801V3.35384C8.34771 3.50662 6.91715 4.21495 5.75049 5.47884C4.58382 6.74273 4.00049 8.24967 4.00049 9.99967C4.00049 11.8608 4.64632 13.4372 5.93799 14.7288C7.22965 16.0205 8.80604 16.6663 10.6672 16.6663C12.5283 16.6663 14.1047 16.0205 15.3963 14.7288C16.688 13.4372 17.3338 11.8608 17.3338 9.99967C17.3338 9.04134 17.1463 8.14551 16.7713 7.31217C16.3963 6.47884 15.8824 5.75662 15.2297 5.14551L16.1255 4.24967C16.8755 4.98579 17.4727 5.84356 17.9172 6.82301C18.3616 7.8019 18.5838 8.86078 18.5838 9.99967C18.5838 11.0969 18.3755 12.128 17.9588 13.093C17.5422 14.0586 16.9797 14.8955 16.2713 15.6038C15.563 16.3122 14.7263 16.8747 13.7613 17.2913C12.7958 17.708 11.7644 17.9163 10.6672 17.9163Z" fill="#14142B"/>
</g>
</svg>
