<svg width="16" height="16" viewBox="0 0 16 16" fill="none" xmlns="http://www.w3.org/2000/svg">
<path d="M4.19696 12.0046H5.14244V6.66009H4.19696V12.0046ZM7.52707 12.0046H8.47257V3.99502H7.52707V12.0046ZM10.8572 12.0046H11.8027V9.26586H10.8572V12.0046ZM2.11844 15.0831C1.79165 15.0831 1.50963 14.9645 1.27238 14.7273C1.03513 14.49 0.916504 14.208 0.916504 13.8812V2.11844C0.916504 1.79165 1.03513 1.50963 1.27238 1.27238C1.50963 1.03513 1.79165 0.916504 2.11844 0.916504H13.8812C14.208 0.916504 14.49 1.03513 14.7273 1.27238C14.9645 1.50963 15.0831 1.79165 15.0831 2.11844V13.8812C15.0831 14.208 14.9645 14.49 14.7273 14.7273C14.49 14.9645 14.208 15.0831 13.8812 15.0831H2.11844ZM2.11844 14.1376H13.8812C13.9453 14.1376 14.0041 14.1109 14.0575 14.0575C14.1109 14.0041 14.1376 13.9453 14.1376 13.8812V2.11844C14.1376 2.05433 14.1109 1.99556 14.0575 1.94213C14.0041 1.88871 13.9453 1.862 13.8812 1.862H2.11844C2.05433 1.862 1.99556 1.88871 1.94213 1.94213C1.88871 1.99556 1.862 2.05433 1.862 2.11844V13.8812C1.862 13.9453 1.88871 14.0041 1.94213 14.0575C1.99556 14.1109 2.05433 14.1376 2.11844 14.1376Z" fill="#14142B"/>
</svg>
