<svg width="24" height="24" viewBox="0 0 24 24" fill="none" xmlns="http://www.w3.org/2000/svg">
    <g clip-path="url(#0elccrrpta)">
        <path d="m6.875 6.519 4.067 4.067c.359.359.757.359 1.116 0l4.067-4.067 1.356 1.356-4.107 4.107c-.359.359-.359.757 0 1.116l4.107 4.107-1.316 1.316-4.147-4.147c-.359-.359-.757-.359-1.116 0l-4.067 4.067-1.356-1.355 4.067-4.068c.359-.359.359-.757 0-1.116L5.52 7.875l1.356-1.356z" fill="#4E4B66"/>
    </g>
    <defs>
        <clipPath id="0elccrrpta">
            <path fill="#fff" transform="rotate(45 3.464 14.828)" d="M0 0h15v15H0z"/>
        </clipPath>
    </defs>
</svg>
