<svg width="24" height="25" viewBox="0 0 24 25" fill="none" xmlns="http://www.w3.org/2000/svg">
<mask id="mask0_2364_57" style="mask-type:alpha" maskUnits="userSpaceOnUse" x="0" y="0" width="24" height="25">
<rect y="0.5" width="24" height="24" fill="#D9D9D9"/>
</mask>
<g mask="url(#mask0_2364_57)">
<path d="M8.8421 16.4474C9.35357 16.4474 9.78845 16.2682 10.1467 15.9099C10.505 15.5516 10.6842 15.1167 10.6842 14.6053C10.6842 14.0938 10.505 13.6589 10.1467 13.3006C9.78845 12.9423 9.35357 12.7632 8.8421 12.7632C8.33062 12.7632 7.89574 12.9423 7.53746 13.3006C7.17916 13.6589 7.00001 14.0938 7.00001 14.6053C7.00001 15.1167 7.17916 15.5516 7.53746 15.9099C7.89574 16.2682 8.33062 16.4474 8.8421 16.4474ZM15.1579 16.4474C15.6694 16.4474 16.1043 16.2682 16.4625 15.9099C16.8208 15.5516 17 15.1167 17 14.6053C17 14.0938 16.8208 13.6589 16.4625 13.3006C16.1043 12.9423 15.6694 12.7632 15.1579 12.7632C14.6464 12.7632 14.2115 12.9423 13.8533 13.3006C13.495 13.6589 13.3158 14.0938 13.3158 14.6053C13.3158 15.1167 13.495 15.5516 13.8533 15.9099C14.2115 16.2682 14.6464 16.4474 15.1579 16.4474ZM12 11.1842C12.5115 11.1842 12.9464 11.005 13.3046 10.6467C13.6629 10.2885 13.8421 9.85357 13.8421 9.3421C13.8421 8.83062 13.6629 8.39574 13.3046 8.03746C12.9464 7.67916 12.5115 7.50001 12 7.50001C11.4885 7.50001 11.0536 7.67916 10.6954 8.03746C10.3371 8.39574 10.1579 8.83062 10.1579 9.3421C10.1579 9.85357 10.3371 10.2885 10.6954 10.6467C11.0536 11.005 11.4885 11.1842 12 11.1842ZM12.0018 22.5C10.6187 22.5 9.31863 22.2375 8.10165 21.7126C6.88464 21.1877 5.82603 20.4753 4.9258 19.5755C4.02555 18.6757 3.31285 17.6175 2.78771 16.4011C2.26257 15.1846 2 13.8849 2 12.5018C2 11.1187 2.26246 9.81863 2.78737 8.60165C3.31228 7.38464 4.02465 6.32603 4.92448 5.4258C5.82433 4.52555 6.88248 3.81286 8.09894 3.28771C9.31538 2.76257 10.6151 2.5 11.9982 2.5C13.3813 2.5 14.6814 2.76246 15.8984 3.28737C17.1154 3.81229 18.174 4.52465 19.0742 5.42448C19.9745 6.32433 20.6871 7.38248 21.2123 8.59894C21.7374 9.81538 22 11.1151 22 12.4982C22 13.8813 21.7375 15.1814 21.2126 16.3984C20.6877 17.6154 19.9753 18.674 19.0755 19.5742C18.1757 20.4745 17.1175 21.1871 15.9011 21.7123C14.6846 22.2374 13.3849 22.5 12.0018 22.5ZM12 20.9211C14.3509 20.9211 16.3421 20.1053 17.9737 18.4737C19.6053 16.8421 20.4211 14.8509 20.4211 12.5C20.4211 10.1491 19.6053 8.15788 17.9737 6.5263C16.3421 4.89472 14.3509 4.07893 12 4.07893C9.64912 4.07893 7.65788 4.89472 6.0263 6.5263C4.39472 8.15788 3.57893 10.1491 3.57893 12.5C3.57893 14.8509 4.39472 16.8421 6.0263 18.4737C7.65788 20.1053 9.64912 20.9211 12 20.9211Z" fill="#14142B"/>
</g>
</svg>
