<svg width="18" height="18" viewBox="0 0 18 18" fill="none" xmlns="http://www.w3.org/2000/svg">
<g clip-path="url(#clip0_2514_1977)">
<path d="M7.64545 7.26678C8.03332 7.26678 8.36212 7.13117 8.63187 6.85995C8.90161 6.58875 9.03645 6.25942 9.03645 5.87196C9.03645 5.48451 8.90073 5.15606 8.62922 4.88661C8.35771 4.61716 8.02803 4.48243 7.64014 4.48243C7.25228 4.48243 6.92347 4.61804 6.65374 4.88926C6.38399 5.16046 6.24911 5.4898 6.24911 5.87726C6.24911 6.2647 6.38487 6.59315 6.65638 6.8626C6.92788 7.13206 7.25757 7.26678 7.64545 7.26678ZM5.84715 11.7577C6.23501 11.7577 6.56382 11.6221 6.83356 11.3508C7.10331 11.0796 7.23819 10.7503 7.23819 10.3629C7.23819 9.97542 7.10242 9.64692 6.83091 9.37746C6.55942 9.10809 6.22972 8.97332 5.84185 8.97332C5.45398 8.97332 5.12518 9.1089 4.85543 9.38016C4.58568 9.65133 4.45081 9.98064 4.45081 10.3682C4.45081 10.7556 4.58656 11.084 4.85808 11.3535C5.12958 11.623 5.45926 11.7577 5.84715 11.7577ZM11.689 12.611C11.9437 12.611 12.1573 12.5248 12.3296 12.3527C12.502 12.1806 12.5881 11.9672 12.5881 11.7128C12.5881 11.4583 12.502 11.245 12.3296 11.0728C12.1573 10.9006 11.9437 10.8146 11.689 10.8146C11.4342 10.8146 11.2207 10.9006 11.0483 11.0728C10.876 11.245 10.7898 11.4583 10.7898 11.7128C10.7898 11.9672 10.876 12.1806 11.0483 12.3527C11.2207 12.5248 11.4342 12.611 11.689 12.611ZM8.9968 18C7.76444 18 6.60128 17.7642 5.50732 17.2927C4.41334 16.8212 3.45799 16.1774 2.64127 15.3616C1.82453 14.5458 1.18014 13.5914 0.708083 12.4987C0.236028 11.4059 0 10.2458 0 9.01827C0 7.64103 0.292225 6.35364 0.876675 5.15606C1.46112 3.9585 2.24413 2.9443 3.22571 2.11349C4.20728 1.28268 5.33872 0.683891 6.62001 0.317136C7.90131 -0.0496199 9.2313 -0.098271 10.61 0.171182C10.5201 0.844815 10.58 1.48102 10.7898 2.07981C10.9996 2.67859 11.3181 3.18756 11.7452 3.60671C12.1723 4.02586 12.6856 4.33273 13.285 4.52734C13.8844 4.72195 14.5138 4.76686 15.1732 4.66207C14.8735 5.57521 15.0384 6.39481 15.6677 7.12083C16.2971 7.84686 17.0614 8.24729 17.9606 8.32214C18.0805 9.62451 17.9268 10.8595 17.4998 12.0271C17.0726 13.1947 16.447 14.2202 15.6228 15.1033C14.7985 15.9866 13.8185 16.6901 12.6827 17.2141C11.5468 17.738 10.3182 18 8.9968 18ZM8.99153 16.6527C11.1195 16.6527 12.8878 15.9529 14.2965 14.5533C15.7052 13.1536 16.492 11.4284 16.6568 9.37746C15.8476 9.07812 15.1919 8.63276 14.6899 8.04146C14.1879 7.45016 13.8769 6.77279 13.757 6.00934C12.5432 5.84467 11.5204 5.32073 10.6887 4.43752C9.85698 3.55432 9.38115 2.5289 9.26127 1.36127C8.15233 1.31636 7.11454 1.49599 6.14796 1.90017C5.18137 2.30435 4.34216 2.85823 3.63033 3.5618C2.9185 4.26537 2.36028 5.09244 1.95565 6.04301C1.55104 6.99358 1.34873 7.98532 1.34873 9.01827C1.34873 11.1439 2.09053 12.9478 3.57413 14.4298C5.05774 15.9117 6.86353 16.6527 8.99153 16.6527Z" fill="#14142B"/>
</g>
<defs>
<clipPath id="clip0_2514_1977">
<rect width="18" height="18" fill="white"/>
</clipPath>
</defs>
</svg>
