<svg width="24" height="24" viewBox="0 0 24 24" fill="currentColor" xmlns="http://www.w3.org/2000/svg">
<path d="M19.1102 7.24983H13.5825C13.2244 7.24983 12.8777 7.12177 12.606 6.88896L11.2449 5.72174C10.7015 5.25613 10.0077 5 9.29286 5H4.88983C3.84612 5 3 5.84615 3 6.88988V18.2191C3 18.7885 3.46148 19.25 4.0309 19.25H19.1102C20.1539 19.25 21 18.4039 21 17.3601V9.13971C21 8.09598 20.1539 7.24983 19.1102 7.24983ZM19.4998 17.7498H4.88983C4.87428 17.7498 4.85873 17.7489 4.84363 17.7471H4.50015V6.49974H9.29286C9.65052 6.49974 9.9972 6.6278 10.2689 6.86106L11.63 8.02783C12.1738 8.49344 12.8672 8.75002 13.5825 8.75002H16.3701V8.74819H19.4998V17.7498Z" fill="currentColor"/>
</svg>
