<svg width="18" height="18" viewBox="0 0 18 18" fill="none" xmlns="http://www.w3.org/2000/svg">
<path d="M2.57732 18C2.14124 18 1.77938 17.8515 1.46392 17.5361C1.14845 17.2206 1 16.8588 1 16.4227V3.43299C1 2.99691 1.14845 2.63505 1.46392 2.31959C1.77938 2.00412 2.14124 1.85567 2.57732 1.85567H3.78351V0.649485C3.78351 0.463918 3.83918 0.315464 3.96907 0.185567C4.08969 0.0556701 4.23814 0 4.43299 0C4.62784 0 4.77629 0.0556701 4.89691 0.185567C5.0268 0.315464 5.08247 0.463918 5.08247 0.649485V1.85567H13.0619V0.649485C13.0619 0.463918 13.1175 0.315464 13.2474 0.185567C13.368 0.0556701 13.5165 0 13.7113 0C13.9062 0 14.0546 0.0556701 14.1753 0.185567C14.3052 0.315464 14.3608 0.463918 14.3608 0.649485V1.85567H15.567C16.0031 1.85567 16.3742 2.00412 16.6804 2.31959C16.9866 2.63505 17.1443 2.99691 17.1443 3.43299V16.4227C17.1443 16.8588 16.9959 17.2206 16.6804 17.5361C16.3649 17.8515 16.0031 18 15.567 18H2.57732ZM2.29897 16.701H15.8454V6.86598H2.29897V16.701ZM2.29897 5.56701H15.8454V3.15464H2.29897V5.56701ZM11.3918 14.2887C10.8165 14.2887 10.3433 14.0938 9.94433 13.6948C9.54536 13.2959 9.35052 12.8227 9.35052 12.2474C9.35052 11.6722 9.54536 11.199 9.94433 10.8C10.3433 10.401 10.8165 10.2062 11.3918 10.2062C11.967 10.2062 12.4402 10.401 12.8392 10.8C13.2381 11.199 13.433 11.6722 13.433 12.2474C13.433 12.8227 13.2381 13.2959 12.8392 13.6948C12.4402 14.0938 11.967 14.2887 11.3918 14.2887Z" fill="#14142B"/>
</svg>
