<svg width="50" height="50" viewBox="0 0 50 50" fill="none" xmlns="http://www.w3.org/2000/svg">
<rect x="0.5" y="0.5" width="49" height="49" rx="4.5" fill="white"/>
<g clip-path="url(#clip0_762_13539)">
<path d="M18 16C16.897 16 16 16.897 16 18V32C16 33.103 16.897 34 18 34H24.6211H27.4141H32C33.103 34 34 33.103 34 32V18C34 16.897 33.103 16 32 16H18ZM18 18H32L32.002 32H27.4141V28.0352H29.7793L30.1309 25.3105H27.4297V23.5742C27.4297 22.7862 27.6493 22.2539 28.7793 22.2539H30.207V19.8223C29.512 19.7513 28.8142 19.7167 28.1152 19.7188C26.0412 19.7188 24.6211 20.9846 24.6211 23.3086V25.3145H22.2773V28.0391H24.6211V32H18V18Z" fill="#14142B"/>
</g>
<rect x="0.5" y="0.5" width="49" height="49" rx="4.5" stroke="#CED3D9"/>
<defs>
<clipPath id="clip0_762_13539">
<rect width="24" height="24" fill="white" transform="translate(13 13)"/>
</clipPath>
</defs>
</svg>
