<svg width="17" height="16" viewBox="0 0 17 16" fill="none" xmlns="http://www.w3.org/2000/svg">
<path fill-rule="evenodd" clip-rule="evenodd" d="M4.00008 2.16667C3.07961 2.16667 2.33341 2.91286 2.33341 3.83333C2.33341 4.75381 3.07961 5.5 4.00008 5.5C4.92056 5.5 5.66675 4.75381 5.66675 3.83333C5.66675 2.91286 4.92056 2.16667 4.00008 2.16667ZM0.666748 3.83333C0.666748 1.99238 2.15913 0.5 4.00008 0.5C5.55328 0.5 6.85836 1.56231 7.2284 3H15.6667C16.127 3 16.5001 3.3731 16.5001 3.83333C16.5001 4.29357 16.127 4.66667 15.6667 4.66667H7.2284C6.85836 6.10436 5.55328 7.16667 4.00008 7.16667C2.15913 7.16667 0.666748 5.67428 0.666748 3.83333ZM13.1667 10.5C12.2463 10.5 11.5001 11.2462 11.5001 12.1667C11.5001 13.0871 12.2463 13.8333 13.1667 13.8333C14.0872 13.8333 14.8334 13.0871 14.8334 12.1667C14.8334 11.2462 14.0872 10.5 13.1667 10.5ZM9.93843 11.3333C10.3085 9.89564 11.6135 8.83333 13.1667 8.83333C15.0077 8.83333 16.5001 10.3257 16.5001 12.1667C16.5001 14.0076 15.0077 15.5 13.1667 15.5C11.6135 15.5 10.3085 14.4377 9.93843 13H1.50008C1.03984 13 0.666748 12.6269 0.666748 12.1667C0.666748 11.7064 1.03984 11.3333 1.50008 11.3333H9.93843Z" fill="#14142B"/>
</svg>
