<svg width="19" height="18" viewBox="0 0 19 18" fill="none" xmlns="http://www.w3.org/2000/svg">
<path d="M5.59473 0C2.83773 0 0.594727 2.243 0.594727 5V13C0.594727 15.757 2.83773 18 5.59473 18H13.5947C16.3517 18 18.5947 15.757 18.5947 13V5C18.5947 2.243 16.3517 0 13.5947 0H5.59473ZM5.59473 2H13.5947C15.2487 2 16.5947 3.346 16.5947 5V13C16.5947 14.654 15.2487 16 13.5947 16H5.59473C3.94073 16 2.59473 14.654 2.59473 13V5C2.59473 3.346 3.94073 2 5.59473 2ZM14.5947 3C14.3295 3 14.0752 3.10536 13.8876 3.29289C13.7001 3.48043 13.5947 3.73478 13.5947 4C13.5947 4.26522 13.7001 4.51957 13.8876 4.70711C14.0752 4.89464 14.3295 5 14.5947 5C14.8599 5 15.1143 4.89464 15.3018 4.70711C15.4894 4.51957 15.5947 4.26522 15.5947 4C15.5947 3.73478 15.4894 3.48043 15.3018 3.29289C15.1143 3.10536 14.8599 3 14.5947 3ZM9.59473 4C6.83773 4 4.59473 6.243 4.59473 9C4.59473 11.757 6.83773 14 9.59473 14C12.3517 14 14.5947 11.757 14.5947 9C14.5947 6.243 12.3517 4 9.59473 4ZM9.59473 6C11.2487 6 12.5947 7.346 12.5947 9C12.5947 10.654 11.2487 12 9.59473 12C7.94073 12 6.59473 10.654 6.59473 9C6.59473 7.346 7.94073 6 9.59473 6Z" fill="#14142B"/>
</svg>
