<svg width="137" height="78" viewBox="0 0 137 78" fill="none" xmlns="http://www.w3.org/2000/svg">
    <path d="M20.66 72h-2.394l-4.004-6.062V72h-2.394v-9.828h2.394l4.004 6.09v-6.09h2.394V72zm6.383.098a5.169 5.169 0 0 1-2.548-.644 4.897 4.897 0 0 1-1.834-1.792c-.448-.775-.672-1.643-.672-2.604 0-.961.224-1.825.672-2.59a4.897 4.897 0 0 1 1.834-1.792 5.169 5.169 0 0 1 2.548-.644 5.09 5.09 0 0 1 2.534.644 4.665 4.665 0 0 1 1.82 1.792c.448.765.672 1.629.672 2.59 0 .961-.224 1.83-.672 2.604a4.792 4.792 0 0 1-1.82 1.792 5.09 5.09 0 0 1-2.534.644zm0-2.184c.784 0 1.41-.261 1.876-.784.476-.523.714-1.213.714-2.072 0-.868-.238-1.559-.714-2.072-.466-.523-1.092-.784-1.876-.784-.793 0-1.428.257-1.904.77-.466.513-.7 1.209-.7 2.086 0 .868.234 1.563.7 2.086.476.513 1.111.77 1.904.77zm16.395-7.742v1.918h-2.604V72H38.44v-7.91h-2.604v-1.918h7.602zm9.713 0V72h-2.394v-4.046h-3.724V72H44.64v-9.828h2.394v3.85h3.724v-3.85h2.395zm4.08 0v5.88c0 .588.145 1.04.435 1.358.29.317.714.476 1.274.476s.99-.159 1.288-.476c.298-.317.448-.77.448-1.358v-5.88h2.394v5.866c0 .877-.187 1.62-.56 2.226a3.576 3.576 0 0 1-1.512 1.372c-.626.308-1.326.462-2.1.462-.775 0-1.47-.15-2.086-.448a3.459 3.459 0 0 1-1.442-1.372c-.355-.616-.532-1.363-.532-2.24v-5.866h2.394zm18.65 0V72h-2.394v-5.894L71.289 72h-1.932l-2.212-5.908V72H64.75v-9.828h2.828l2.758 6.804 2.73-6.804h2.814zm7.671 4.788c.57.121 1.027.406 1.372.854.346.439.518.943.518 1.512 0 .821-.289 1.475-.868 1.96-.569.476-1.367.714-2.394.714h-4.578v-9.828h4.424c.999 0 1.778.229 2.338.686.57.457.854 1.078.854 1.862 0 .579-.154 1.06-.462 1.442-.298.383-.7.649-1.204.798zm-3.556-.812h1.568c.392 0 .691-.084.896-.252.215-.177.322-.434.322-.77s-.107-.593-.322-.77c-.205-.177-.504-.266-.896-.266h-1.568v2.058zm1.764 3.92c.402 0 .71-.089.924-.266.224-.187.336-.453.336-.798 0-.345-.116-.616-.35-.812-.224-.196-.536-.294-.938-.294h-1.736v2.17h1.764zM95.623 72h-2.394l-4.004-6.062V72H86.83v-9.828h2.394l4.004 6.09v-6.09h2.394V72zm7.853-1.736h-3.668L99.22 72h-2.506l3.556-9.828h2.772L106.598 72h-2.534l-.588-1.736zm-.616-1.848-1.218-3.598-1.204 3.598h2.422zm7.215-6.244V72h-2.394v-9.828h2.394zm4.128 7.98h3.136V72h-5.53v-9.828h2.394v7.98zM53.08 27.156l-8.307-3.596a1.317 1.317 0 0 0-1.19 0A1.266 1.266 0 0 0 43 24.624v17.678a1.266 1.266 0 0 0 1.267 1.266c.166.038.34.038.506 0l8.282-3.596v5.065a1.267 1.267 0 0 0 1.266 1.267h22.542L53.08 22.294v4.862zm8.662 12.081a1.798 1.798 0 0 1-3.571 0 1.8 1.8 0 0 1 3.571 0zM86.664 48.634 84.13 46.1h.71a1.266 1.266 0 0 0 1.266-1.266V22.04a1.267 1.267 0 0 0-1.267-1.267H58.703l-4.407-4.407a1.253 1.253 0 1 0-1.773 1.773L84.79 50.407a1.215 1.215 0 0 0 1.773 0 1.214 1.214 0 0 0 .101-1.773z" fill="#89909A"/>
    <path d="M14.575 3.118c-.303 0-.6.038-.875.115A3.536 3.536 0 0 0 10.177 0c-1.37 0-2.56.78-3.143 1.93A2.868 2.868 0 0 0 5.2 1.272a2.91 2.91 0 0 0-2.907 2.92c0 .193.016.381.054.564A2.618 2.618 0 0 0 0 7.368 2.622 2.622 0 0 0 2.614 10v-.002h11.961V10A3.433 3.433 0 0 0 18 6.557a3.432 3.432 0 0 0-3.424-3.439zM132.053 9.365c-.438 0-.867.054-1.264.162C130.558 6.98 128.371 5 125.7 5c-1.98 0-3.699 1.091-4.54 2.701a4.226 4.226 0 0 0-2.649-.92c-2.321 0-4.199 1.825-4.199 4.087 0 .272.023.534.078.79-1.905.184-3.39 1.753-3.39 3.657 0 2.034 1.687 3.685 3.776 3.685v-.003h17.277V19c2.737 0 4.947-2.16 4.947-4.82 0-2.654-2.21-4.815-4.946-4.815h-.001z" fill="#748094"/>
</svg>
