<svg width="20" height="20" viewBox="0 0 20 20" fill="none" xmlns="http://www.w3.org/2000/svg">
<g clip-path="url(#clip0_223_752)">
<path d="M10 20C8.62887 20 7.33502 19.7372 6.11844 19.2115C4.90184 18.6859 3.84076 17.9703 2.93522 17.0648C2.02969 16.1592 1.31411 15.0982 0.788476 13.8816C0.262825 12.665 0 11.3711 0 10C0 8.61808 0.262825 7.32153 0.788476 6.11033C1.31411 4.89914 2.02969 3.84076 2.93522 2.93522C3.84076 2.02969 4.90184 1.31411 6.11844 0.788476C7.33502 0.262825 8.62887 0 10 0C11.3819 0 12.6785 0.262825 13.8897 0.788476C15.1009 1.31411 16.1592 2.02969 17.0648 2.93522C17.9703 3.84076 18.6859 4.89914 19.2115 6.11033C19.7372 7.32153 20 8.61808 20 10C20 11.3711 19.7372 12.665 19.2115 13.8816C18.6859 15.0982 17.9703 16.1592 17.0648 17.0648C16.1592 17.9703 15.1009 18.6859 13.8897 19.2115C12.6785 19.7372 11.3819 20 10 20ZM10 18.3988C10.5371 17.6862 10.9892 16.9676 11.3563 16.2429C11.7234 15.5182 12.0223 14.726 12.2531 13.8664H7.74694C7.99121 14.753 8.2935 15.5587 8.65384 16.2834C9.01416 17.0081 9.46287 17.7132 10 18.3988ZM7.96157 18.1093C7.55806 17.5304 7.19571 16.8721 6.87452 16.1346C6.55332 15.3971 6.30366 14.641 6.12552 13.8664H2.55461C3.11063 14.9595 3.85626 15.8779 4.79149 16.6215C5.72673 17.3651 6.78343 17.861 7.96157 18.1093ZM12.0384 18.1093C13.2166 17.861 14.2733 17.3651 15.2085 16.6215C16.1437 15.8779 16.8894 14.9595 17.4454 13.8664H13.8745C13.6626 14.6478 13.3961 15.4072 13.0749 16.1448C12.7537 16.8823 12.4082 17.5371 12.0384 18.1093ZM1.89269 12.2875H5.80567C5.73955 11.8961 5.69165 11.5125 5.66196 11.1367C5.63228 10.7608 5.61744 10.3819 5.61744 10C5.61744 9.61809 5.63228 9.2392 5.66196 8.86334C5.69165 8.4875 5.73955 8.10389 5.80567 7.71252H1.89269C1.79148 8.07015 1.71388 8.44195 1.6599 8.82792C1.60592 9.21388 1.57893 9.60458 1.57893 10C1.57893 10.3954 1.60592 10.7861 1.6599 11.1721C1.71388 11.558 1.79148 11.9298 1.89269 12.2875ZM7.3846 12.2875H12.6154C12.6815 11.8961 12.7294 11.5159 12.7591 11.1468C12.7888 10.7777 12.8037 10.3954 12.8037 10C12.8037 9.60458 12.7888 9.22232 12.7591 8.85323C12.7294 8.48413 12.6815 8.10389 12.6154 7.71252H7.3846C7.31847 8.10389 7.27056 8.48413 7.24086 8.85323C7.21118 9.22232 7.19633 9.60458 7.19633 10C7.19633 10.3954 7.21118 10.7777 7.24086 11.1468C7.27056 11.5159 7.31847 11.8961 7.3846 12.2875ZM14.1943 12.2875H18.1073C18.2085 11.9298 18.2861 11.558 18.3401 11.1721C18.3941 10.7861 18.4211 10.3954 18.4211 10C18.4211 9.60458 18.3941 9.21388 18.3401 8.82792C18.2861 8.44195 18.2085 8.07015 18.1073 7.71252H14.1943C14.2604 8.10389 14.3084 8.4875 14.338 8.86334C14.3677 9.2392 14.3826 9.61809 14.3826 10C14.3826 10.3819 14.3677 10.7608 14.338 11.1367C14.3084 11.5125 14.2604 11.8961 14.1943 12.2875ZM13.8745 6.13362H17.4454C16.8826 5.02699 16.1421 4.10862 15.2237 3.37851C14.3053 2.64842 13.2436 2.14909 12.0384 1.88053C12.4419 2.49322 12.8009 3.16326 13.1153 3.89067C13.4298 4.61807 13.6829 5.36572 13.8745 6.13362ZM7.74694 6.13362H12.2531C12.0088 5.25372 11.7014 4.44298 11.331 3.7014C10.9605 2.95984 10.5169 2.25977 10 1.60119C9.48312 2.25977 9.03946 2.95984 8.66902 3.7014C8.29857 4.44298 7.99121 5.25372 7.74694 6.13362ZM2.55461 6.13362H6.12552C6.31715 5.36572 6.57019 4.61807 6.88465 3.89067C7.19909 3.16326 7.55806 2.49322 7.96157 1.88053C6.74969 2.14909 5.68625 2.65011 4.77125 3.38359C3.85626 4.11706 3.11739 5.03374 2.55461 6.13362Z" fill="#14142B"/>
</g>
<defs>
<clipPath id="clip0_223_752">
<rect width="20" height="20" fill="white"/>
</clipPath>
</defs>
</svg>
