<svg width="44" height="45" viewBox="0 0 44 45" fill="none" xmlns="http://www.w3.org/2000/svg">
<rect y="0.5" width="44" height="44" rx="5" fill="#F3FAFF"/>
<path d="M21.991 13.5C20.2114 13.5018 18.4722 14.0311 16.9933 15.0212C15.5145 16.0112 14.3623 17.4174 13.6825 19.0621C13.0027 20.7068 12.8258 22.5161 13.174 24.2613C13.5223 26.0066 14.3802 27.6094 15.6392 28.8671C16.8983 30.1249 18.5019 30.9812 20.2475 31.3277C21.9931 31.6743 23.8022 31.4955 25.4462 30.8141C27.0902 30.1326 28.4953 28.979 29.4839 27.4992C30.4724 26.0194 31 24.2797 31 22.5C31 21.3173 30.7669 20.1463 30.3141 19.0538C29.8612 17.9613 29.1975 16.9687 28.3608 16.1329C27.5241 15.297 26.5309 14.6343 25.4379 14.1825C24.3449 13.7307 23.1737 13.4988 21.991 13.5V13.5ZM28.228 18.9H25.573C25.2928 17.7855 24.8772 16.7095 24.3355 15.696C25.9755 16.2621 27.3572 17.3994 28.228 18.9V18.9ZM22 15.336C22.756 16.4267 23.3361 17.6294 23.719 18.9H20.281C20.6639 17.6294 21.244 16.4267 22 15.336V15.336ZM15.034 24.3C14.722 23.1203 14.722 21.8797 15.034 20.7H18.0715C17.9946 21.297 17.954 21.8981 17.95 22.5C17.9555 23.102 17.9976 23.7031 18.076 24.3H15.034ZM15.772 26.1H18.427C18.7072 27.2145 19.1228 28.2905 19.6645 29.304C18.0227 28.741 16.6401 27.6029 15.772 26.1V26.1ZM18.427 18.9H15.772C16.6412 17.3962 18.0255 16.2581 19.669 15.696C19.1258 16.7093 18.7087 17.7853 18.427 18.9V18.9ZM22 29.664C21.244 28.5733 20.6639 27.3707 20.281 26.1H23.719C23.3361 27.3707 22.756 28.5733 22 29.664V29.664ZM24.106 24.3H19.894C19.8051 23.704 19.757 23.1026 19.75 22.5C19.7566 21.8974 19.8047 21.296 19.894 20.7H24.106C24.1953 21.296 24.2434 21.8974 24.25 22.5C24.243 23.1026 24.1949 23.704 24.106 24.3ZM24.331 29.304C24.8727 28.2905 25.2883 27.2145 25.5685 26.1H28.2235C27.3527 27.6006 25.971 28.7379 24.331 29.304V29.304ZM25.924 24.3C26.0024 23.7031 26.0445 23.102 26.05 22.5C26.0445 21.898 26.0024 21.2969 25.924 20.7H28.9615C29.2735 21.8797 29.2735 23.1203 28.9615 24.3H25.924Z" fill="#4B9EF9"/>
</svg>
