<svg width="14" height="14" viewBox="0 0 14 14" fill="currentColor" xmlns="http://www.w3.org/2000/svg">
<path fill-rule="evenodd" clip-rule="evenodd" d="M10.0379 1.50036L8.95219 2.58606L11.4139 5.04781L12.4996 3.9621C12.5065 3.94085 12.5139 3.91597 12.5216 3.88782C12.5535 3.76992 12.5866 3.60048 12.5893 3.40144C12.5947 3.01493 12.488 2.50409 11.9919 2.00806C11.4959 1.51203 10.9851 1.40533 10.5986 1.41066C10.3995 1.4134 10.2301 1.44651 10.1122 1.47845C10.084 1.48607 10.0592 1.49354 10.0379 1.50036ZM12.999 4.28331C13.5271 4.52381 13.5272 4.52353 13.5273 4.52325L13.5276 4.52266L13.5282 4.52136L13.5295 4.51837L13.5329 4.51073C13.5354 4.50492 13.5385 4.49766 13.5421 4.48901C13.5493 4.47171 13.5584 4.44878 13.5688 4.42063C13.5896 4.36443 13.6158 4.28685 13.6417 4.19125C13.6932 4.00098 13.7454 3.73349 13.7497 3.41745C13.7586 2.77379 13.5669 1.94186 12.8125 1.18748C12.0581 0.433099 11.2262 0.241413 10.5826 0.250291C10.2665 0.25465 9.99902 0.306799 9.80875 0.358341C9.71315 0.384239 9.63557 0.410384 9.57937 0.431188C9.55122 0.441608 9.52829 0.450741 9.51099 0.457908C9.50234 0.461494 9.49508 0.464594 9.48927 0.467124L9.48163 0.470485L9.47864 0.471827L9.47735 0.472411L9.47675 0.47268C9.47647 0.472808 9.47619 0.472934 9.71669 1.00098L9.47619 0.472934L9.38064 0.516452L0.809488 9.08761L0.25 13.75L4.91239 13.1905L13.4835 4.61936L13.5271 4.52381L12.999 4.28331ZM10.5934 5.86839L8.13161 3.40664L1.91388 9.62438L1.57818 12.4218L4.37562 12.0861L10.5934 5.86839Z" fill="currentColor"/>
</svg>
