<svg width="24" height="24" viewBox="0 0 24 24" fill="none" xmlns="http://www.w3.org/2000/svg">
<path d="M5.75701 19.5795C5.26603 19.5795 4.85045 19.4094 4.51026 19.0692C4.17009 18.729 4 18.3134 4 17.8225V6.75703C4 6.26605 4.17009 5.85047 4.51026 5.51028C4.85045 5.17009 5.26603 5 5.75701 5H16.8224C17.3134 5 17.729 5.17009 18.0692 5.51028C18.4094 5.85047 18.5795 6.26605 18.5795 6.75703V11.2057L21.1464 8.63867C21.4614 8.32368 22 8.54676 22 8.99222V15.5873C22 16.0327 21.4614 16.2558 21.1464 15.9408L18.5795 13.3738V17.8225C18.5795 18.3134 18.4094 18.729 18.0692 19.0692C17.729 19.4094 17.3134 19.5795 16.8224 19.5795H5.75701ZM5.75701 18.1216H16.8224C16.9097 18.1216 16.9813 18.0935 17.0374 18.0374C17.0935 17.9814 17.1215 17.9097 17.1215 17.8225V6.75703C17.1215 6.66979 17.0935 6.59814 17.0374 6.54205C16.9813 6.48597 16.9097 6.45793 16.8224 6.45793H5.75701C5.66977 6.45793 5.59811 6.48597 5.54203 6.54205C5.48595 6.59814 5.45791 6.66979 5.45791 6.75703V17.8225C5.45791 17.9097 5.48595 17.9814 5.54203 18.0374C5.59811 18.0935 5.66977 18.1216 5.75701 18.1216Z" fill="#14142B"/>
</svg>
