<svg width="50" height="50" viewBox="0 0 50 50" fill="none" xmlns="http://www.w3.org/2000/svg">
<rect width="50" height="50" fill="#DADDF0"/>
<mask id="mask0_2352_69" style="mask-type:alpha" maskUnits="userSpaceOnUse" x="13" y="13" width="24" height="24">
<rect x="13" y="13" width="24" height="24" fill="#3A49A7"/>
</mask>
<g mask="url(#mask0_2352_69)">
<path d="M25 34C23.755 34 22.585 33.7638 21.49 33.2912C20.395 32.8187 19.4425 32.1775 18.6325 31.3675C17.8225 30.5575 17.1812 29.605 16.7088 28.51C16.2362 27.415 16 26.245 16 25C16 23.755 16.2362 22.585 16.7088 21.49C17.1812 20.395 17.8225 19.4425 18.6325 18.6325C19.4425 17.8225 20.395 17.1812 21.49 16.7088C22.585 16.2362 23.755 16 25 16C26.245 16 27.415 16.2362 28.51 16.7088C29.605 17.1812 30.5575 17.8225 31.3675 18.6325C32.1775 19.4425 32.8187 20.395 33.2912 21.49C33.7638 22.585 34 23.755 34 25C34 26.245 33.7638 27.415 33.2912 28.51C32.8187 29.605 32.1775 30.5575 31.3675 31.3675C30.5575 32.1775 29.605 32.8187 28.51 33.2912C27.415 33.7638 26.245 34 25 34ZM24.1 32.155V30.4C23.605 30.4 23.1813 30.2238 22.8288 29.8713C22.4762 29.5188 22.3 29.095 22.3 28.6V27.7L17.98 23.38C17.935 23.65 17.8937 23.92 17.8562 24.19C17.8187 24.46 17.8 24.73 17.8 25C17.8 26.815 18.3962 28.405 19.5887 29.77C20.7812 31.135 22.285 31.93 24.1 32.155ZM30.31 29.86C30.61 29.53 30.88 29.1737 31.12 28.7913C31.36 28.4088 31.5587 28.0112 31.7162 27.5987C31.8737 27.1862 31.9938 26.7625 32.0763 26.3275C32.1588 25.8925 32.2 25.45 32.2 25C32.2 23.53 31.7913 22.1875 30.9738 20.9725C30.1562 19.7575 29.065 18.88 27.7 18.34V18.7C27.7 19.195 27.5238 19.6187 27.1713 19.9712C26.8188 20.3238 26.395 20.5 25.9 20.5H24.1V22.3C24.1 22.555 24.0138 22.7687 23.8413 22.9412C23.6688 23.1137 23.455 23.2 23.2 23.2H21.4V25H26.8C27.055 25 27.2688 25.0863 27.4412 25.2587C27.6138 25.4312 27.7 25.645 27.7 25.9V28.6H28.6C28.99 28.6 29.3425 28.7162 29.6575 28.9487C29.9725 29.1812 30.19 29.485 30.31 29.86Z" fill="#3A49A7"/>
</g>
</svg>
