<svg width="20" height="20" viewBox="0 0 20 20" fill="none" xmlns="http://www.w3.org/2000/svg">
<path d="M10.3201 20C9.88496 20 9.50018 19.8853 9.16581 19.6559C8.83145 19.4265 8.59752 19.1255 8.46404 18.7529H8.1512C7.70769 18.7529 7.3257 18.5926 7.00524 18.2722C6.68476 17.9517 6.52453 17.5697 6.52453 17.1262V13.5683C5.43033 12.9052 4.56936 12.016 3.94162 10.901C3.31387 9.7859 3 8.5923 3 7.32014C3 5.27913 3.70977 3.54885 5.1293 2.1293C6.54885 0.709767 8.27913 0 10.3201 0C12.3611 0 14.0914 0.709767 15.511 2.1293C16.9305 3.54885 17.6403 5.27913 17.6403 7.32014C17.6403 8.61455 17.3264 9.81372 16.6987 10.9177C16.0709 12.0216 15.21 12.9052 14.1158 13.5683V17.1262C14.1158 17.5697 13.9555 17.9517 13.635 18.2722C13.3146 18.5926 12.9326 18.7529 12.4891 18.7529H12.1762C12.0428 19.1255 11.8088 19.4265 11.4745 19.6559C11.1401 19.8853 10.7553 20 10.3201 20ZM8.1512 17.1262H12.4891V16.1085H8.1512V17.1262ZM8.1512 15.1491H12.4891V14.098H8.1512V15.1491ZM7.93431 12.4714H9.67363V9.31388L7.80501 7.44526C7.55392 7.19417 7.55392 6.78708 7.80501 6.53599V6.53599C8.0561 6.2849 8.4632 6.2849 8.71429 6.53599L10.3201 8.14184L11.926 6.53599C12.1771 6.2849 12.5842 6.2849 12.8353 6.53599V6.53599C13.0864 6.78708 13.0864 7.19417 12.8353 7.44526L10.9666 9.31388V12.4714H12.706C13.682 12.0014 14.4773 11.3101 15.0918 10.3973C15.7063 9.48456 16.0136 8.45883 16.0136 7.32014C16.0136 5.72959 15.4623 4.38304 14.3598 3.28049C13.2572 2.17795 11.9107 1.62668 10.3201 1.62668C8.72959 1.62668 7.38304 2.17795 6.28049 3.28049C5.17795 4.38304 4.62668 5.72959 4.62668 7.32014C4.62668 8.45883 4.93394 9.48456 5.54848 10.3973C6.16301 11.3101 6.95829 12.0014 7.93431 12.4714Z" fill="#14142B"/>
</svg>
