<svg width="50" height="50" viewBox="0 0 50 50" fill="none" xmlns="http://www.w3.org/2000/svg">
<rect width="50" height="50" fill="#F3E8D6"/>
<mask id="mask0_2352_67" style="mask-type:alpha" maskUnits="userSpaceOnUse" x="13" y="13" width="24" height="24">
<rect x="13" y="13" width="24" height="24" fill="#D9D0C1"/>
</mask>
<g mask="url(#mask0_2352_67)">
<path d="M15 32.273V28.6366C15 28.1215 15.178 27.6897 15.5341 27.3412C15.8902 26.9927 16.3182 26.8184 16.8182 26.8184H19.7955C20.0985 26.8184 20.3864 26.8942 20.6591 27.0457C20.9318 27.1972 21.1515 27.4018 21.3182 27.6594C21.7576 28.2503 22.2992 28.7124 22.9432 29.0457C23.5871 29.3791 24.2727 29.5457 25 29.5457C25.7424 29.5457 26.4356 29.3791 27.0795 29.0457C27.7235 28.7124 28.2576 28.2503 28.6818 27.6594C28.8788 27.4018 29.1098 27.1972 29.375 27.0457C29.6402 26.8942 29.9167 26.8184 30.2045 26.8184H33.1818C33.697 26.8184 34.1288 26.9927 34.4773 27.3412C34.8258 27.6897 35 28.1215 35 28.6366V32.273H28.6364V30.2048C28.1061 30.5836 27.5341 30.8715 26.9205 31.0684C26.3068 31.2654 25.6667 31.3639 25 31.3639C24.3485 31.3639 23.7121 31.2616 23.0909 31.0571C22.4697 30.8525 21.8939 30.5609 21.3636 30.1821V32.273H15ZM25 28.6366C24.4242 28.6366 23.8788 28.5041 23.3636 28.2389C22.8485 27.9738 22.4167 27.6063 22.0682 27.1366C21.8106 26.7578 21.4886 26.4586 21.1023 26.2389C20.7159 26.0192 20.2955 25.9094 19.8409 25.9094C20.1742 25.3488 20.8788 24.9056 21.9545 24.5798C23.0303 24.2541 24.0455 24.0912 25 24.0912C25.9545 24.0912 26.9697 24.2541 28.0455 24.5798C29.1212 24.9056 29.8258 25.3488 30.1591 25.9094C29.7197 25.9094 29.303 26.0192 28.9091 26.2389C28.5152 26.4586 28.1894 26.7578 27.9318 27.1366C27.5985 27.6215 27.1742 27.9927 26.6591 28.2503C26.1439 28.5078 25.5909 28.6366 25 28.6366ZM17.7273 25.9094C16.9697 25.9094 16.3258 25.6442 15.7955 25.1139C15.2652 24.5836 15 23.9397 15 23.1821C15 22.4094 15.2652 21.7616 15.7955 21.2389C16.3258 20.7162 16.9697 20.4548 17.7273 20.4548C18.5 20.4548 19.1477 20.7162 19.6705 21.2389C20.1932 21.7616 20.4545 22.4094 20.4545 23.1821C20.4545 23.9397 20.1932 24.5836 19.6705 25.1139C19.1477 25.6442 18.5 25.9094 17.7273 25.9094ZM32.2727 25.9094C31.5152 25.9094 30.8712 25.6442 30.3409 25.1139C29.8106 24.5836 29.5455 23.9397 29.5455 23.1821C29.5455 22.4094 29.8106 21.7616 30.3409 21.2389C30.8712 20.7162 31.5152 20.4548 32.2727 20.4548C33.0455 20.4548 33.6932 20.7162 34.2159 21.2389C34.7386 21.7616 35 22.4094 35 23.1821C35 23.9397 34.7386 24.5836 34.2159 25.1139C33.6932 25.6442 33.0455 25.9094 32.2727 25.9094ZM25 23.1821C24.2424 23.1821 23.5985 22.9169 23.0682 22.3866C22.5379 21.8563 22.2727 21.2124 22.2727 20.4548C22.2727 19.6821 22.5379 19.0344 23.0682 18.5116C23.5985 17.9889 24.2424 17.7275 25 17.7275C25.7727 17.7275 26.4205 17.9889 26.9432 18.5116C27.4659 19.0344 27.7273 19.6821 27.7273 20.4548C27.7273 21.2124 27.4659 21.8563 26.9432 22.3866C26.4205 22.9169 25.7727 23.1821 25 23.1821Z" fill="#9B6E23"/>
</g>
</svg>
