<svg width="50" height="50" viewBox="0 0 50 50" fill="none" xmlns="http://www.w3.org/2000/svg">
<rect x="0.5" y="0.5" width="49" height="49" rx="4.5" fill="white" stroke="#CED3D9"/>
<path d="M30.8628 16.6046C30.0214 15.638 29.5156 14.3778 29.5156 13H28.4614M30.8628 16.6046C31.6295 17.4857 32.6677 18.1266 33.8499 18.3775C34.2173 18.4576 34.6006 18.5004 35 18.5004V22.452C32.9553 22.452 31.0596 21.7952 29.5154 20.6844V28.7213C29.5154 32.7371 26.2566 36 22.2578 36C20.1651 36 18.2748 35.1028 16.9489 33.677C15.7402 32.374 15 30.6331 15 28.7213C15 24.7643 18.1629 21.5389 22.082 21.4534M30.8628 16.6046C30.8423 16.5912 30.8219 16.5777 30.8016 16.564M19.5741 30.6545C19.1801 30.1098 18.9458 29.4424 18.9458 28.716C18.9458 26.8844 20.4314 25.3945 22.2578 25.3945C22.5986 25.3945 22.9287 25.4531 23.2376 25.5493V21.5122C22.9181 21.4694 22.5933 21.4427 22.2578 21.4427C22.1992 21.4427 21.7274 21.4742 21.6689 21.4742M28.4558 13H25.5697L25.5645 28.8441C25.5005 30.6171 24.0415 32.043 22.2578 32.043C21.1502 32.043 20.1757 31.4929 19.5687 30.6599" stroke="#14142B" stroke-width="1.5" stroke-linejoin="round"/>
</svg>
