<svg width="31" height="31" viewBox="0 0 31 31" fill="none" xmlns="http://www.w3.org/2000/svg">
    <rect width="31" height="31" rx="3" fill="#1E9BEF"/>
    <path d="M21.7 12.042a5.08 5.08 0 0 1-1.461.4 2.548 2.548 0 0 0 1.118-1.406 5.104 5.104 0 0 1-1.616.617 2.544 2.544 0 0 0-4.335 2.32 7.223 7.223 0 0 1-5.243-2.658 2.537 2.537 0 0 0-.344 1.279c0 .882.449 1.66 1.131 2.117a2.54 2.54 0 0 1-1.152-.319v.032c0 1.233.877 2.261 2.04 2.494a2.547 2.547 0 0 1-1.148.044 2.547 2.547 0 0 0 2.376 1.767A5.103 5.103 0 0 1 9.3 19.782a7.202 7.202 0 0 0 3.9 1.143c4.679 0 7.237-3.876 7.237-7.237 0-.11-.002-.22-.007-.33.497-.358.929-.806 1.27-1.316z" fill="#fff"/>
</svg>
