<svg width="20" height="20" viewBox="0 0 20 20" fill="none" xmlns="http://www.w3.org/2000/svg">
<mask id="mask0_223_733" style="mask-type:alpha" maskUnits="userSpaceOnUse" x="0" y="0" width="20" height="20">
<rect width="20" height="20" fill="#D9D9D9"/>
</mask>
<g mask="url(#mask0_223_733)">
<path d="M14.5 13.65V14.5H5.5V13.6583C5.5 12.8655 5.95631 12.1507 6.66618 11.8418L6.66619 11.8418L6.66974 11.8402C7.59107 11.4308 8.72205 11.125 10 11.125C11.2772 11.125 12.4086 11.4304 13.3318 11.8326C14.0455 12.1505 14.5 12.8678 14.5 13.65ZM3.33333 12.1667C3.39639 12.1667 3.45898 12.1681 3.5213 12.1707C3.34633 12.6355 3.25 13.1361 3.25 13.6583V14.5H0.5V13.6917C0.5 13.2185 0.779238 12.7974 1.21512 12.6089L1.21623 12.6084C1.86411 12.3264 2.57968 12.1667 3.33333 12.1667ZM18.7838 12.6085L18.7849 12.6089C19.2208 12.7974 19.5 13.2185 19.5 13.6917V14.5H16.75V13.6583C16.75 13.1361 16.6537 12.6355 16.4787 12.1707C16.541 12.1681 16.6036 12.1667 16.6667 12.1667C17.4203 12.1667 18.1359 12.3264 18.7838 12.6085ZM4.5 9.16667C4.5 9.80719 3.97386 10.3333 3.33333 10.3333C2.69281 10.3333 2.16667 9.80719 2.16667 9.16667C2.16667 8.52614 2.69281 8 3.33333 8C3.97386 8 4.5 8.52614 4.5 9.16667ZM17.8333 9.16667C17.8333 9.80719 17.3072 10.3333 16.6667 10.3333C16.0261 10.3333 15.5 9.80719 15.5 9.16667C15.5 8.52614 16.0261 8 16.6667 8C17.3072 8 17.8333 8.52614 17.8333 9.16667ZM10 5.5C11.1072 5.5 12 6.39281 12 7.5C12 8.60719 11.1072 9.5 10 9.5C8.89281 9.5 8 8.60719 8 7.5C8 6.39281 8.89281 5.5 10 5.5Z" stroke="#14142B"/>
</g>
</svg>
