<svg width="11" height="14" viewBox="0 0 11 14" fill="none" xmlns="http://www.w3.org/2000/svg">
<path d="M0.75 10.9377C0.75 11.2482 1 11.4999 1.30806 11.4999V10.9377H0.75ZM3.5403 10.3752V11.4999C3.84836 11.4999 4.09836 11.2482 4.09836 10.9377C4.09836 10.6272 3.84836 10.3752 3.5403 10.3752ZM1.30806 0.25C1 0.25 0.75 0.501658 0.75 0.812529H1.86612C1.86612 0.501658 1.61646 0.25 1.30806 0.25ZM3.5403 3.62483V4.74989C3.84836 4.74989 4.09836 4.49823 4.09836 4.18736C4.09836 3.87649 3.84836 3.62483 3.5403 3.62483ZM7.44638 12.6249V13.75H9.12056V12.6249H7.44638ZM5.77254 9.81264V12.0624H6.88832V9.81264H5.77254ZM9.67862 10.8076V12.0624H10.7947V10.8076H9.67862ZM7.44638 8.12506V9.25011H8.36407V8.12506H7.44638ZM9.69297 8.78605L8.80704 9.47044L9.56353 10.4654L10.4495 9.78131L9.69297 8.78605ZM8.36407 8.12506V9.25011C8.53791 9.25011 8.7015 9.33136 8.80704 9.47044L9.69297 8.78605C9.37603 8.36948 8.8849 8.12506 8.36407 8.12506ZM6.88832 12.6249V12.0624H5.77254C5.77254 12.9947 6.52186 13.75 7.44638 13.75V12.6249H6.88832ZM9.67862 12.0624C9.67862 12.0772 9.67794 12.0917 9.67691 12.1058V12.6249H9.12056V13.75C10.0451 13.75 10.7947 12.9947 10.7947 12.0624H9.67862ZM10.4495 9.78131L9.56353 10.4654C9.63832 10.5638 9.67862 10.684 9.67862 10.8076H10.7947C10.7947 10.4365 10.6735 10.0757 10.4495 9.78131ZM5.77254 9.81264H6.88832V9.25011H7.44638V8.12506C6.52186 8.12506 5.77254 8.88037 5.77254 9.81264ZM7.52664 6.01506V7.14012H9.20082V6.01506H7.52664ZM5.8528 3.20276V5.45253H6.96858V3.20276H5.8528ZM9.75888 4.19768V5.45253H10.875V4.19768H9.75888ZM7.52664 1.51517V2.64023H8.44433V1.51517H7.52664ZM9.77322 2.17616L8.8873 2.86056L9.64378 3.85549L10.5297 3.17143L9.77322 2.17616ZM8.44433 1.51517V2.64023C8.61817 2.64023 8.78176 2.72148 8.8873 2.86056L9.77322 2.17616C9.45628 1.7596 8.96516 1.51517 8.44433 1.51517ZM6.96858 6.01506V5.45253H5.8528C5.8528 6.3848 6.60212 7.14012 7.52664 7.14012V6.01506H6.96858ZM9.75888 5.45253C9.75888 5.46733 9.7582 5.48179 9.75717 5.49591V6.01506H9.20082V7.14012C10.1253 7.14012 10.875 6.3848 10.875 5.45253H9.75888ZM10.5297 3.17143L9.64378 3.85549C9.71858 3.95395 9.75888 4.07409 9.75888 4.19768H10.875C10.875 3.82657 10.7538 3.46578 10.5297 3.17143ZM5.8528 3.20276H6.96858V2.64023H7.52664V1.51517C6.60212 1.51517 5.8528 2.27049 5.8528 3.20276ZM1.30806 10.3752V11.4999H3.5403V10.3752H1.30806ZM0.75 0.812529V4.18736H1.86612V0.812529H0.75ZM0.75 4.18736V10.9377H1.86612V4.18736H0.75ZM1.30806 3.62483V4.74989H3.5403V3.62483H1.30806Z" fill="#4B9EF9"/>
</svg>
