<svg width="24" height="24" viewBox="0 0 24 24" fill="none" xmlns="http://www.w3.org/2000/svg">
<mask id="mask0_181_11911" style="mask-type:alpha" maskUnits="userSpaceOnUse" x="0" y="0" width="24" height="24">
<rect width="24" height="24" fill="#5C6574"/>
</mask>
<g mask="url(#mask0_181_11911)">
<path d="M5.16925 21.0001C4.56308 21.0001 4.05 20.7925 3.63 20.3772C3.21 19.962 3 19.4548 3 18.8555V16.5616C3 16.0646 3.40294 15.6617 3.89999 15.6617C4.39704 15.6617 4.79998 16.0646 4.79998 16.5616V18.8555C4.79998 18.9468 4.83844 19.0305 4.91536 19.1065C4.9923 19.1826 5.07693 19.2206 5.16925 19.2206H18.8307C18.9231 19.2206 19.0077 19.1826 19.0846 19.1065C19.1616 19.0305 19.2 18.9468 19.2 18.8555V16.5616C19.2 16.0646 19.603 15.6617 20.1 15.6617C20.5971 15.6617 21 16.0646 21 16.5616V18.8555C21 19.4548 20.79 19.962 20.37 20.3772C19.95 20.7925 19.4369 21.0001 18.8307 21.0001H5.16925ZM12 16.3917C11.503 16.3917 11.1 15.9887 11.1 15.4917V6.42657L8.78493 8.71526C8.42992 9.06623 7.85735 9.06211 7.50742 8.70607C7.15894 8.3515 7.16304 7.78181 7.51659 7.43229L11.297 3.69502C11.6865 3.30989 12.3135 3.30989 12.703 3.69502L16.4834 7.43229C16.837 7.78181 16.8411 8.3515 16.4926 8.70607C16.1426 9.06211 15.5701 9.06623 15.2151 8.71526L12.9 6.42657V15.4917C12.9 15.9887 12.497 16.3917 12 16.3917Z" fill="#5C6574"/>
</g>
</svg>
